<?xml version="1.0" encoding="UTF-8" standalone="no"?>
<svg
   xmlns:dc="http://purl.org/dc/elements/1.1/"
   xmlns:cc="http://creativecommons.org/ns#"
   xmlns:rdf="http://www.w3.org/1999/02/22-rdf-syntax-ns#"
   xmlns:svg="http://www.w3.org/2000/svg"
   xmlns="http://www.w3.org/2000/svg"
   viewBox="0 0 1496 1496"
   height="1496"
   width="1496"
   xml:space="preserve"
   id="svg2"
   version="1.1"><metadata
     id="metadata8"><rdf:RDF><cc:Work
         rdf:about=""><dc:format>image/svg+xml</dc:format><dc:type
           rdf:resource="http://purl.org/dc/dcmitype/StillImage" /></cc:Work></rdf:RDF></metadata><defs
     id="defs6" /><g
     transform="matrix(1.3333333,0,0,-1.3333333,0,1496)"
     id="g10"><g
       transform="scale(0.1)"
       id="g12"><path
         id="path14"
         style="fill:#ffffff;fill-opacity:1;fill-rule:nonzero;stroke:none"
         d="M 11220,0 H 0 V 11220 H 11220 V 0" /><path
         id="path16"
         style="fill:#44403d;fill-opacity:1;fill-rule:nonzero;stroke:none"
         d="m 6155.33,6424.88 c 0,-945.84 197.63,-1888.57 553.85,-2694.77 H 4510.82 c 364.38,813.93 566.81,1737.52 566.81,2694.77 h 1077.7" /><path
         id="path18"
         style="fill:#383533;fill-opacity:1;fill-rule:nonzero;stroke:none"
         d="M 6814.26,3733.68 H 4405.79 c -60.43,0 -98.46,-65.1 -68.79,-117.74 l 173.82,-209.89 h 2198.36 l 173.83,209.96 c 29.65,52.61 -8.36,117.67 -68.75,117.67" /><path
         id="path20"
         style="fill:#383533;fill-opacity:1;fill-rule:nonzero;stroke:none"
         d="M 7338.07,2235.73 H 3881.93 c -53.46,0 -103.55,-14.37 -146.64,-39.45 C 3648.4,2145.71 3590,2051.58 3590,1943.81 h 291.93 291.91 2872.32 291.91 291.93 c 0,161.22 -130.69,291.92 -291.93,291.92" /><path
         id="path22"
         style="fill:#44403d;fill-opacity:1;fill-rule:nonzero;stroke:none"
         d="M 6182.38,1943.81 H 3590 v -291.92 h 4040 v 291.92 H 6182.38" /><path
         id="path24"
         style="fill:#44403d;fill-opacity:1;fill-rule:nonzero;stroke:none"
         d="m 7285.21,2918.95 c -72.92,43.11 -143.38,90.4 -210.93,141.52 -67.35,50.97 -131.82,105.75 -193,163.99 -31.36,29.84 -61.84,60.59 -91.42,92.19 -11.5,12.3 -77.64,87.4 -77.64,87.4 H 5620.66 5610 5599.34 4507.78 c 0,0 -66.14,-75.1 -77.64,-87.4 -29.58,-31.6 -60.06,-62.35 -91.42,-92.19 -61.18,-58.24 -125.65,-113.02 -193,-163.99 -67.55,-51.12 -138.01,-98.41 -210.93,-141.52 -158.33,-93.62 -344.79,-178.29 -344.79,-391.3 0,-161.22 130.7,-291.92 291.93,-291.92 h 1717.41 10.66 10.66 1717.41 c 161.23,0 291.93,130.7 291.93,291.92 0,213.01 -186.46,297.68 -344.79,391.3" /><path
         id="path26"
         style="fill:#383533;fill-opacity:1;fill-rule:nonzero;stroke:none"
         d="m 6318.18,6567.41 c 0,69.76 -48.94,128.01 -114.34,142.52 v 3.57 H 5047.91 c -80.69,0 -146.09,-65.41 -146.09,-146.09 0,-80.69 65.4,-146.09 146.09,-146.09 10.91,0 21.52,1.29 31.75,3.56 h 1060.68 c 10.23,-2.27 20.84,-3.56 31.75,-3.56 10.92,0 21.52,1.29 31.75,3.56 65.4,14.5 114.34,72.76 114.34,142.53" /><path
         id="path28"
         style="fill:#44403d;fill-opacity:1;fill-rule:nonzero;stroke:none"
         d="m 6483.9,8501.65 -169.35,-578.04 h -273.77 l 73.33,539.59 c 7.54,55.51 -35.61,104.92 -91.62,104.92 h -427.8 -427.81 c -56.01,0 -99.16,-49.41 -91.62,-104.92 l 73.33,-539.59 h -273.77 l -169.35,578.04 c -11.54,39.4 -47.68,66.47 -88.74,66.47 h -297.99 c -61.69,0 -106.08,-59.27 -88.74,-118.46 l 342.54,-1169.17 c 28.85,-98.49 119.2,-166.17 221.83,-166.17 H 5594.69 6395 c 102.64,0 192.98,67.68 221.83,166.17 l 342.54,1169.17 c 17.34,59.19 -27.05,118.46 -88.74,118.46 h -297.99 c -41.06,0 -77.19,-27.07 -88.74,-66.47" /><path
         id="path30"
         style="fill:#383533;fill-opacity:1;fill-rule:nonzero;stroke:none"
         d="m 6870.64,8568.12 c 0,0 -296.44,-1337.11 -2045.43,-1450.24 -2.18,-1.2 -4.26,-2.36 -6.42,-3.56 h 775.9 800.32 c 102.63,0 192.97,67.68 221.83,166.17 l 342.53,1169.17 c 17.34,59.2 -27.05,118.46 -88.73,118.46" /><path
         id="path32"
         style="fill:#565656;fill-opacity:1;fill-rule:nonzero;stroke:none"
         d="m 4534.87,8498.77 h -128.29 c -61.69,0 -106.08,-59.26 -88.74,-118.46 l 76.35,-260.58 c -3.88,22.38 -6.01,45.35 -6.01,68.84 0,124.97 57.13,236.59 146.69,310.2" /><path
         id="path34"
         style="fill:#565656;fill-opacity:1;fill-rule:nonzero;stroke:none"
         d="m 5367.04,8498.77 h -128.3 c -61.69,0 -106.08,-59.26 -88.73,-118.46 l 33.58,-260.58 c 0,0 1.61,48.73 4.62,72.02 19.88,153.43 89.27,233.41 178.83,307.02" /><path
         id="path36"
         style="fill:#565656;fill-opacity:1;fill-rule:nonzero;stroke:none"
         d="m 3742.63,2538.44 c 0,97.3 53.89,181.95 133.39,225.94 -114.12,-4.36 -205.37,-98 -205.37,-213.2 0,-99.43 68.03,-182.74 160.02,-206.56 -53.86,47.31 -88.04,116.5 -88.04,193.82" /><path
         id="path38"
         style="fill:#44403d;fill-opacity:1;fill-rule:nonzero;stroke:none"
         d="M 6387,7114.32 H 4809.88 c -112.65,0 -203.97,-91.32 -203.97,-203.97 0,-112.08 90.42,-202.97 202.29,-203.89 v -0.08 h 1571.29 c 15.24,0 30.04,1.8 44.32,4.96 91.32,20.27 159.65,101.6 159.65,199.01 0,97.41 -62.39,203.97 -196.46,203.97" /><path
         id="path40"
         style="fill:#565656;fill-opacity:1;fill-rule:nonzero;stroke:none"
         d="m 4723.68,6898.9 c 0,69.38 38.42,129.73 95.11,161.1 -81.37,-3.12 -146.44,-69.88 -146.44,-152.02 0,-70.89 48.51,-130.29 114.1,-147.27 -38.4,33.73 -62.77,83.06 -62.77,138.19" /></g></g></svg>