<?xml version="1.0" encoding="UTF-8" standalone="no"?>
<svg
   xmlns:dc="http://purl.org/dc/elements/1.1/"
   xmlns:cc="http://creativecommons.org/ns#"
   xmlns:rdf="http://www.w3.org/1999/02/22-rdf-syntax-ns#"
   xmlns:svg="http://www.w3.org/2000/svg"
   xmlns="http://www.w3.org/2000/svg"
   viewBox="0 0 1496 1496"
   height="1496"
   width="1496"
   xml:space="preserve"
   id="svg2"
   version="1.1"><metadata
     id="metadata8"><rdf:RDF><cc:Work
         rdf:about=""><dc:format>image/svg+xml</dc:format><dc:type
           rdf:resource="http://purl.org/dc/dcmitype/StillImage" /></cc:Work></rdf:RDF></metadata><defs
     id="defs6" /><g
     transform="matrix(1.3333333,0,0,-1.3333333,0,1496)"
     id="g10"><g
       transform="scale(0.1)"
       id="g12"><path
         id="path14"
         style="fill:#ffffff;fill-opacity:1;fill-rule:nonzero;stroke:none"
         d="M 11220,0 H 0 V 11220 H 11220 V 0" /><path
         id="path16"
         style="fill:#44403d;fill-opacity:1;fill-rule:nonzero;stroke:none"
         d="m 6126.15,5663.22 c 0,-803.21 167.82,-1603.77 470.32,-2288.39 H 4729.63 c 309.43,691.19 481.33,1475.5 481.33,2288.39 h 915.19" /><path
         id="path18"
         style="fill:#383533;fill-opacity:1;fill-rule:nonzero;stroke:none"
         d="M 6685.71,3377.85 H 4640.44 c -51.32,0 -83.61,-55.28 -58.42,-99.98 l 147.61,-178.23 h 1866.84 l 147.62,178.29 c 25.18,44.68 -7.1,99.92 -58.38,99.92" /><path
         id="path20"
         style="fill:#383533;fill-opacity:1;fill-rule:nonzero;stroke:none"
         d="M 7130.53,2105.8 H 4195.58 c -45.4,0 -87.94,-12.2 -124.53,-33.5 -73.78,-42.95 -123.38,-122.88 -123.38,-214.4 h 247.91 247.89 2439.16 247.9 247.9 c 0,136.91 -110.98,247.9 -247.9,247.9" /><path
         id="path22"
         style="fill:#44403d;fill-opacity:1;fill-rule:nonzero;stroke:none"
         d="M 6149.11,1857.9 H 3947.67 V 1610 h 3430.76 v 247.9 H 6149.11" /><path
         id="path24"
         style="fill:#44403d;fill-opacity:1;fill-rule:nonzero;stroke:none"
         d="m 7085.64,2685.99 c -61.92,36.61 -121.76,76.77 -179.12,120.18 -57.2,43.28 -111.94,89.81 -163.9,139.25 -26.63,25.35 -52.51,51.46 -77.63,78.3 -9.77,10.44 -65.93,74.22 -65.93,74.22 h -926.95 -9.06 -9.05 -926.95 c 0,0 -56.16,-63.78 -65.93,-74.22 -25.12,-26.84 -51.01,-52.95 -77.64,-78.3 -51.95,-49.44 -106.7,-95.97 -163.89,-139.25 -57.37,-43.41 -117.2,-83.57 -179.13,-120.18 -134.44,-79.51 -292.79,-151.4 -292.79,-332.29 0,-136.91 111,-247.9 247.91,-247.9 H 5654 h 9.05 9.06 1458.42 c 136.91,0 247.9,110.99 247.9,247.9 0,180.89 -158.34,252.78 -292.79,332.29" /><path
         id="path26"
         style="fill:#565656;fill-opacity:1;fill-rule:nonzero;stroke:none"
         d="m 4077.29,2362.86 c 0,82.63 45.76,154.51 113.27,191.87 -96.91,-3.71 -174.4,-83.22 -174.4,-181.05 0,-84.44 57.78,-155.19 135.89,-175.41 -45.74,40.17 -74.76,98.93 -74.76,164.59" /><path
         id="path28"
         style="fill:#383533;fill-opacity:1;fill-rule:nonzero;stroke:none"
         d="M 6335.88,6009.64 H 4996.6 c -95.66,0 -173.21,-77.55 -173.21,-173.21 0,-95.18 76.78,-172.36 171.78,-173.14 v -0.07 H 6329.5 c 12.95,0 25.52,1.53 37.65,4.21 77.54,17.21 135.56,86.28 135.56,169 0,82.72 -52.97,173.21 -166.83,173.21" /><path
         id="path30"
         style="fill:#565656;fill-opacity:1;fill-rule:nonzero;stroke:none"
         d="m 4919.7,5826.7 c 0,58.92 32.63,110.17 80.77,136.81 -69.1,-2.64 -124.35,-59.34 -124.35,-129.09 0,-60.21 41.19,-110.65 96.89,-125.07 -32.61,28.64 -53.31,70.54 -53.31,117.35" /><path
         id="path32"
         style="fill:#44403d;fill-opacity:1;fill-rule:nonzero;stroke:none"
         d="M 6264.44,6255.65 H 5061.66 c -68.52,0 -124.06,-55.55 -124.06,-124.06 0,-68.52 55.54,-124.06 124.06,-124.06 h 1202.78 v 0.56 c 5.87,0.47 11.67,1.22 17.29,2.46 55.53,12.32 97.09,61.79 97.09,121.04 0,59.24 -41.1,124.06 -114.38,124.06" /><path
         id="path34"
         style="fill:#383533;fill-opacity:1;fill-rule:nonzero;stroke:none"
         d="m 6427.7,8234.8 c 0,-422.31 -342.35,-764.65 -764.65,-764.65 -422.31,0 -764.65,342.34 -764.65,764.65 0,422.3 342.34,764.65 764.65,764.65 422.3,0 764.65,-342.35 764.65,-764.65" /><path
         id="path36"
         style="fill:#44403d;fill-opacity:1;fill-rule:nonzero;stroke:none"
         d="m 5848.33,9184.72 c 0,-102.32 -82.95,-185.27 -185.28,-185.27 -102.32,0 -185.27,82.95 -185.27,185.27 0,102.33 82.95,185.28 185.27,185.28 102.33,0 185.28,-82.95 185.28,-185.28" /><path
         id="path38"
         style="fill:#44403d;fill-opacity:1;fill-rule:nonzero;stroke:none"
         d="m 6760.49,8564.11 c -46.74,60.92 -120.25,100.18 -202.96,100.18 -43.25,0 -86.21,-11.02 -124.02,-32.03 -44.28,-24.6 -76.29,-64.51 -103.38,-106.38 -27.26,-42.13 -66.36,-75.82 -112.36,-95.95 -32.21,-14.09 -67.25,-21.33 -102.4,-21.33 -90.54,0 -171.93,55.44 -222.14,128.16 -51.86,75.1 -126.04,127.53 -220.3,127.53 -2.79,0 -5.59,-0.18 -8.39,-0.27 -2.79,0.09 -5.59,0.27 -8.39,0.27 -94.25,0 -168.44,-52.43 -220.29,-127.53 -50.21,-72.72 -131.6,-128.16 -222.14,-128.16 -35.15,0 -70.19,7.24 -102.4,21.33 -46,20.13 -85.11,53.82 -112.36,95.95 -27.09,41.87 -59.1,81.78 -103.38,106.38 -37.81,21.01 -80.77,32.03 -124.02,32.03 -82.71,0 -156.22,-39.26 -202.96,-100.18 5.93,-10.1 11.69,-20.31 17.53,-30.46 372.62,-505.33 583.71,-1129.33 585.47,-1804.92 h -1.65 c 5.27,-157.44 3,-327.16 -51.09,-477.06 h 542.56 3.12 3.13 542.56 c -54.1,149.9 -56.36,319.62 -51.09,477.06 v 0 c 1.76,675.59 211.2,1299.59 583.82,1804.92 5.84,10.15 11.6,20.36 17.53,30.46" /><path
         id="path40"
         style="fill:#383533;fill-opacity:1;fill-rule:nonzero;stroke:none"
         d="m 5760.02,9342.52 c 18.44,-28.79 29.14,-63.03 29.14,-99.76 0,-102.29 -82.92,-185.21 -185.21,-185.21 -35.53,0 -68.71,10.01 -96.9,27.35 32.91,-51.39 90.51,-85.45 156.07,-85.45 102.29,0 185.21,82.92 185.21,185.21 0,66.76 -35.33,125.27 -88.31,157.86" /><path
         id="path42"
         style="fill:#565656;fill-opacity:1;fill-rule:nonzero;stroke:none"
         d="m 5510.35,9167.5 c 0,90.29 73.2,163.49 163.49,163.49 52.78,0 99.71,-25.02 129.6,-63.83 -28.23,49.01 -81.14,82.01 -141.77,82.01 -90.29,0 -163.49,-73.2 -163.49,-163.5 0,-37.51 12.65,-72.07 33.9,-99.66 -13.82,23.99 -21.73,51.81 -21.73,81.49" /><path
         id="path44"
         style="fill:#565656;fill-opacity:1;fill-rule:nonzero;stroke:none"
         d="m 5803.44,8564.33 c -45.7,30.42 -98.73,45.77 -157.05,36.9 -2.45,-0.37 -4.89,-0.91 -7.34,-1.36 -2.47,-0.29 -4.96,-0.51 -7.41,-0.88 -82.91,-12.61 -141.15,-68.66 -176.72,-141.66 -4.39,-9 -9.27,-17.83 -14.6,-26.4 64.61,67.83 151.29,115.62 251.06,130.8 37.99,5.77 75.56,6.45 112.06,2.6" /><path
         id="path46"
         style="fill:#565656;fill-opacity:1;fill-rule:nonzero;stroke:none"
         d="m 6702.49,8564.33 c -45.71,30.42 -98.73,45.77 -157.05,36.9 -2.45,-0.37 -4.89,-0.91 -7.34,-1.36 -2.47,-0.29 -4.96,-0.51 -7.42,-0.88 -82.9,-12.61 -141.15,-68.66 -176.72,-141.66 -4.38,-9 -9.26,-17.83 -14.59,-26.4 64.6,67.83 151.28,115.62 251.05,130.8 37.99,5.77 75.57,6.45 112.07,2.6" /><path
         id="path48"
         style="fill:#383533;fill-opacity:1;fill-rule:nonzero;stroke:none"
         d="m 6154.43,6728.73 v 0 c 1.04,397.24 73.95,776.6 209.54,1124.53 C 6173.04,7419.17 5794.16,6774.71 5165.94,6557.11 l -0.06,-1.77 h 592.59 3.44 3.44 388.44 c -2.13,58.39 -1.25,116.69 0.64,173.39" /><path
         id="path50"
         style="fill:#383533;fill-opacity:1;fill-rule:nonzero;stroke:none"
         d="m 6163.23,6431.07 h -997.34 c -38.69,0 -70.06,31.37 -70.06,70.07 0,38.69 31.37,70.05 70.06,70.05 h 997.34 c 38.69,0 70.06,-31.36 70.06,-70.05 0,-38.7 -31.37,-70.07 -70.06,-70.07" /></g></g></svg>