<?xml version="1.0" encoding="UTF-8" standalone="no"?>
<svg
   xmlns:dc="http://purl.org/dc/elements/1.1/"
   xmlns:cc="http://creativecommons.org/ns#"
   xmlns:rdf="http://www.w3.org/1999/02/22-rdf-syntax-ns#"
   xmlns:svg="http://www.w3.org/2000/svg"
   xmlns="http://www.w3.org/2000/svg"
   viewBox="0 0 1066.6667 1066.6667"
   height="1066.6667"
   width="1066.6667"
   xml:space="preserve"
   id="svg2"
   version="1.1"><metadata
     id="metadata8"><rdf:RDF><cc:Work
         rdf:about=""><dc:format>image/svg+xml</dc:format><dc:type
           rdf:resource="http://purl.org/dc/dcmitype/StillImage" /></cc:Work></rdf:RDF></metadata><defs
     id="defs6" /><g
     transform="matrix(1.3333333,0,0,-1.3333333,0,1066.6667)"
     id="g10"><g
       transform="scale(0.1)"
       id="g12"><path
         id="path14"
         style="fill:#ffffff;fill-opacity:1;fill-rule:nonzero;stroke:none"
         d="M 0,0 H 8000 V 8000 H 0 Z" /><path
         id="path16"
         style="fill:#211c1d;fill-opacity:1;fill-rule:nonzero;stroke:none"
         d="m 2914.7,335.102 c 0,-7.032 1.09,-13.012 3.27,-17.95 2.19,-4.941 5.17,-8.652 8.97,-11.152 3.81,-2.5 7.95,-3.77 12.44,-3.77 4.57,0 8.73,1.192 12.5,3.571 3.76,2.359 6.77,6.019 9.02,10.918 2.25,4.902 3.37,11.051 3.37,18.383 0,6.91 -1.12,12.847 -3.37,17.828 -2.25,4.961 -5.28,8.75 -9.11,11.39 -3.84,2.61 -8.03,3.918 -12.59,3.918 -4.75,0 -8.99,-1.347 -12.73,-4.019 -3.74,-2.699 -6.64,-6.539 -8.69,-11.578 -2.07,-5.039 -3.08,-10.879 -3.08,-17.539 z m 50.99,-38.09 v 2.578 c -3.47,-3.981 -6.91,-7.25 -10.3,-9.731 -3.39,-2.519 -7.06,-4.41 -11.02,-5.699 -3.95,-1.328 -8.27,-1.949 -12.95,-1.949 -6.21,0 -11.97,1.309 -17.25,3.918 -5.29,2.641 -9.86,6.391 -13.72,11.269 -3.88,4.872 -6.8,10.594 -8.79,17.192 -1.99,6.582 -3,13.711 -3,21.371 0,16.211 3.97,28.84 11.88,37.91 7.92,9.039 18.34,13.57 31.25,13.57 7.47,0 13.77,-1.293 18.9,-3.851 5.13,-2.551 10.13,-6.52 15,-11.809 v 38.258 c 0,5.332 1.06,9.332 3.19,12.07 2.12,2.711 5.13,4.082 9.07,4.082 3.93,0 6.94,-1.25 9.07,-3.75 2.12,-2.519 3.19,-6.191 3.19,-11.07 V 297.012 c 0,-4.942 -1.14,-8.633 -3.42,-11.11 -2.29,-2.461 -5.23,-3.691 -8.84,-3.691 -3.55,0 -6.48,1.269 -8.79,3.828 -2.31,2.57 -3.47,6.231 -3.47,10.973" /><path
         id="path18"
         style="fill:#211c1d;fill-opacity:1;fill-rule:nonzero;stroke:none"
         d="m 3029.33,343.262 h 47.01 c -0.63,8.867 -3.03,15.508 -7.17,19.898 -4.16,4.422 -9.61,6.61 -16.39,6.61 -6.46,0 -11.76,-2.231 -15.9,-6.68 -4.16,-4.481 -6.67,-11.078 -7.55,-19.828 z m 50.7,-14.723 h -50.7 c 0.05,-5.879 1.24,-11.078 3.55,-15.57 2.31,-4.489 5.39,-7.887 9.22,-10.16 3.83,-2.278 8.06,-3.418 12.68,-3.418 3.1,0 5.93,0.359 8.49,1.078 2.58,0.742 5.06,1.871 7.46,3.441 2.41,1.539 4.63,3.199 6.65,4.981 2.02,1.769 4.64,4.199 7.88,7.218 1.33,1.141 3.24,1.723 5.71,1.723 2.65,0 4.8,-0.742 6.44,-2.211 1.65,-1.461 2.48,-3.492 2.48,-6.172 0,-2.34 -0.92,-5.058 -2.75,-8.199 -1.85,-3.141 -4.61,-6.148 -8.31,-9.02 -3.72,-2.89 -8.35,-5.281 -13.98,-7.171 -5.58,-1.918 -12.03,-2.848 -19.31,-2.848 -16.65,0 -29.61,4.738 -38.85,14.238 -9.24,9.492 -13.87,22.383 -13.87,38.653 0,7.668 1.14,14.777 3.42,21.328 2.29,6.562 5.61,12.16 9.97,16.851 4.37,4.688 9.76,8.278 16.15,10.778 6.4,2.5 13.49,3.75 21.28,3.75 10.12,0 18.81,-2.129 26.06,-6.399 7.26,-4.281 12.69,-9.808 16.3,-16.57 3.6,-6.77 5.42,-13.692 5.42,-20.699 0,-6.539 -1.88,-10.762 -5.61,-12.692 -3.73,-1.937 -8.99,-2.91 -15.78,-2.91" /><path
         id="path20"
         style="fill:#211c1d;fill-opacity:1;fill-rule:nonzero;stroke:none"
         d="m 3198.18,316.109 c 0,-7.148 -1.72,-13.277 -5.22,-18.379 -3.48,-5.089 -8.62,-8.96 -15.43,-11.601 -6.81,-2.609 -15.09,-3.918 -24.84,-3.918 -9.3,0 -17.29,1.418 -23.93,4.269 -6.65,2.84 -11.56,6.411 -14.73,10.672 -3.16,4.297 -4.74,8.567 -4.74,12.887 0,2.852 1,5.27 3.04,7.301 2.02,2.019 4.59,3.031 7.7,3.031 2.71,0 4.79,-0.66 6.25,-1.992 1.46,-1.328 2.86,-3.199 4.18,-5.59 2.66,-4.648 5.85,-8.059 9.55,-10.367 3.71,-2.262 8.75,-3.422 15.16,-3.422 5.19,0 9.45,1.18 12.77,3.48 3.32,2.321 4.98,4.961 4.98,7.93 0,4.57 -1.72,7.871 -5.18,9.961 -3.45,2.09 -9.14,4.098 -17.05,6 -8.92,2.199 -16.19,4.551 -21.79,6.988 -5.61,2.422 -10.08,5.641 -13.44,9.633 -3.36,3.977 -5.04,8.899 -5.04,14.719 0,5.18 1.55,10.098 4.66,14.73 3.1,4.61 7.68,8.297 13.74,11.059 6.03,2.75 13.32,4.141 21.87,4.141 6.72,0 12.76,-0.711 18.09,-2.11 5.36,-1.371 9.83,-3.261 13.4,-5.609 3.58,-2.32 6.31,-4.922 8.16,-7.77 1.88,-2.851 2.8,-5.632 2.8,-8.363 0,-2.969 -0.99,-5.41 -2.97,-7.328 -2,-1.871 -4.83,-2.852 -8.52,-2.852 -2.66,0 -4.92,0.762 -6.78,2.313 -1.87,1.5 -4,3.789 -6.41,6.808 -1.97,2.54 -4.27,4.571 -6.93,6.102 -2.66,1.52 -6.27,2.258 -10.84,2.258 -4.68,0 -8.57,-0.969 -11.68,-2.981 -3.1,-2 -4.64,-4.48 -4.64,-7.449 0,-2.73 1.13,-4.961 3.4,-6.699 2.29,-1.75 5.36,-3.199 9.23,-4.332 3.86,-1.129 9.16,-2.52 15.96,-4.16 8.03,-1.969 14.59,-4.321 19.7,-7.028 5.08,-2.722 8.95,-5.941 11.59,-9.652 2.63,-3.707 3.93,-7.93 3.93,-12.68" /><path
         id="path22"
         style="fill:#211c1d;fill-opacity:1;fill-rule:nonzero;stroke:none"
         d="m 3237.5,372.91 v -74.941 c 0,-5.199 -1.24,-9.117 -3.7,-11.778 -2.48,-2.652 -5.61,-3.98 -9.42,-3.98 -3.79,0 -6.88,1.34 -9.25,4.078 -2.39,2.711 -3.56,6.621 -3.56,11.68 v 74.183 c 0,5.118 1.17,8.977 3.56,11.578 2.37,2.602 5.46,3.911 9.25,3.911 3.81,0 6.94,-1.309 9.42,-3.911 2.46,-2.601 3.7,-6.21 3.7,-10.82 z m -12.82,26.781 c -3.62,0 -6.7,1.11 -9.26,3.321 -2.57,2.199 -3.85,5.347 -3.85,9.41 0,3.668 1.31,6.68 3.94,9.058 2.62,2.391 5.69,3.579 9.17,3.579 3.36,0 6.33,-1.079 8.92,-3.239 2.6,-2.148 3.9,-5.281 3.9,-9.398 0,-4 -1.28,-7.113 -3.81,-9.352 -2.53,-2.25 -5.54,-3.379 -9.01,-3.379" /><path
         id="path24"
         style="fill:#211c1d;fill-opacity:1;fill-rule:nonzero;stroke:none"
         d="m 3275.96,335.762 c 0,-10.512 2.29,-18.461 6.88,-23.832 4.59,-5.391 10.53,-8.078 17.81,-8.078 4.3,0 8.36,1.168 12.19,3.468 3.85,2.309 6.95,5.801 9.38,10.45 2.39,4.652 3.6,10.3 3.6,16.96 0,10.559 -2.32,18.809 -6.98,24.68 -4.66,5.879 -10.78,8.828 -18.38,8.828 -7.42,0 -13.35,-2.808 -17.81,-8.449 -4.47,-5.629 -6.69,-13.641 -6.69,-24.027 z m 75.12,32.867 V 293.32 c 0,-8.609 -0.91,-16.031 -2.76,-22.25 -1.83,-6.191 -4.78,-11.32 -8.83,-15.371 -4.05,-4.039 -9.35,-7.07 -15.91,-9.019 -6.54,-1.969 -14.7,-2.95 -24.45,-2.95 -8.92,0 -16.91,1.25 -23.94,3.75 -7.02,2.52 -12.43,5.739 -16.23,9.692 -3.8,3.957 -5.71,8.027 -5.71,12.199 0,3.168 1.08,5.77 3.23,7.738 2.15,2.012 4.76,3.012 7.79,3.012 3.8,0 7.13,-1.68 9.98,-5.039 1.38,-1.703 2.82,-3.441 4.31,-5.184 1.49,-1.757 3.15,-3.238 4.95,-4.468 1.79,-1.231 3.96,-2.149 6.5,-2.75 2.53,-0.59 5.45,-0.899 8.73,-0.899 6.72,0 11.93,0.93 15.64,2.809 3.7,1.859 6.29,4.469 7.78,7.832 1.49,3.34 2.36,6.937 2.62,10.777 0.25,3.832 0.43,9.981 0.56,18.481 -3.99,-5.59 -8.59,-9.821 -13.83,-12.731 -5.21,-2.91 -11.44,-4.379 -18.65,-4.379 -8.67,0 -16.25,2.231 -22.75,6.66 -6.49,4.43 -11.48,10.629 -14.95,18.61 -3.49,7.992 -5.23,17.191 -5.23,27.64 0,7.77 1.06,14.821 3.19,21.071 2.12,6.289 5.14,11.57 9.06,15.879 3.92,4.3 8.45,7.539 13.58,9.73 5.13,2.192 10.76,3.281 16.91,3.281 7.34,0 13.71,-1.421 19.1,-4.222 5.37,-2.828 10.38,-7.239 15,-13.258 v 3.519 c 0,4.489 1.1,7.969 3.32,10.45 2.22,2.461 5.08,3.711 8.55,3.711 5,0 8.32,-1.641 9.96,-4.911 1.66,-3.261 2.48,-7.96 2.48,-14.101" /><path
         id="path26"
         style="fill:#211c1d;fill-opacity:1;fill-rule:nonzero;stroke:none"
         d="m 3392.29,373.281 v -3.121 c 4.56,6.012 9.55,10.43 14.97,13.242 5.41,2.809 11.62,4.239 18.65,4.239 6.84,0 12.95,-1.512 18.34,-4.481 5.37,-2.98 9.41,-7.18 12.05,-12.609 1.72,-3.192 2.83,-6.602 3.33,-10.281 0.51,-3.668 0.77,-8.36 0.77,-14.059 v -48.242 c 0,-5.199 -1.19,-9.117 -3.57,-11.778 -2.37,-2.652 -5.45,-3.98 -9.26,-3.98 -3.87,0 -6.99,1.34 -9.4,4.078 -2.42,2.711 -3.61,6.621 -3.61,11.68 v 43.222 c 0,8.539 -1.19,15.079 -3.56,19.61 -2.38,4.508 -7.1,6.801 -14.21,6.801 -4.61,0 -8.83,-1.391 -12.62,-4.141 -3.81,-2.762 -6.59,-6.551 -8.36,-11.352 -1.27,-3.871 -1.9,-11.07 -1.9,-21.66 v -32.48 c 0,-5.258 -1.22,-9.199 -3.66,-11.84 -2.43,-2.609 -5.58,-3.918 -9.44,-3.918 -3.75,0 -6.82,1.34 -9.22,4.078 -2.4,2.711 -3.61,6.621 -3.61,11.68 v 74.941 c 0,4.942 1.07,8.629 3.22,11.07 2.16,2.43 5.1,3.661 8.83,3.661 2.28,0 4.35,-0.551 6.19,-1.621 1.83,-1.098 3.3,-2.7 4.41,-4.848 1.12,-2.152 1.66,-4.781 1.66,-7.891" /><path
         id="path28"
         style="fill:#211c1d;fill-opacity:1;fill-rule:nonzero;stroke:none"
         d="m 3499.33,343.262 h 47.01 c -0.63,8.867 -3.03,15.508 -7.17,19.898 -4.15,4.422 -9.61,6.61 -16.39,6.61 -6.46,0 -11.76,-2.231 -15.91,-6.68 -4.15,-4.481 -6.66,-11.078 -7.54,-19.828 z m 50.71,-14.723 h -50.71 c 0.06,-5.879 1.25,-11.078 3.56,-15.57 2.32,-4.489 5.38,-7.887 9.21,-10.16 3.83,-2.278 8.06,-3.418 12.68,-3.418 3.1,0 5.93,0.359 8.51,1.078 2.55,0.742 5.04,1.871 7.45,3.441 2.39,1.539 4.61,3.199 6.65,4.981 2.01,1.769 4.65,4.199 7.87,7.218 1.33,1.141 3.24,1.723 5.71,1.723 2.65,0 4.81,-0.742 6.46,-2.211 1.64,-1.461 2.46,-3.492 2.46,-6.172 0,-2.34 -0.92,-5.058 -2.75,-8.199 -1.84,-3.141 -4.61,-6.148 -8.32,-9.02 -3.7,-2.89 -8.34,-5.281 -13.95,-7.171 -5.6,-1.918 -12.05,-2.848 -19.33,-2.848 -16.65,0 -29.6,4.738 -38.85,14.238 -9.24,9.492 -13.87,22.383 -13.87,38.653 0,7.668 1.14,14.777 3.42,21.328 2.29,6.562 5.61,12.16 9.98,16.851 4.37,4.688 9.75,8.278 16.14,10.778 6.4,2.5 13.49,3.75 21.28,3.75 10.13,0 18.81,-2.129 26.06,-6.399 7.26,-4.281 12.69,-9.808 16.31,-16.57 3.59,-6.77 5.41,-13.692 5.41,-20.699 0,-6.539 -1.87,-10.762 -5.61,-12.692 -3.73,-1.937 -8.98,-2.91 -15.77,-2.91" /><path
         id="path30"
         style="fill:#211c1d;fill-opacity:1;fill-rule:nonzero;stroke:none"
         d="m 3604.74,335.102 c 0,-7.032 1.09,-13.012 3.28,-17.95 2.18,-4.941 5.17,-8.652 8.98,-11.152 3.79,-2.5 7.93,-3.77 12.42,-3.77 4.57,0 8.73,1.192 12.5,3.571 3.77,2.359 6.78,6.019 9.03,10.918 2.24,4.902 3.37,11.051 3.37,18.383 0,6.91 -1.13,12.847 -3.37,17.828 -2.25,4.961 -5.3,8.75 -9.12,11.39 -3.84,2.61 -8.03,3.918 -12.59,3.918 -4.74,0 -9,-1.347 -12.73,-4.019 -3.73,-2.699 -6.63,-6.539 -8.69,-11.578 -2.06,-5.039 -3.08,-10.879 -3.08,-17.539 z m 50.99,-38.09 v 2.578 c -3.47,-3.981 -6.91,-7.25 -10.29,-9.731 -3.4,-2.519 -7.06,-4.41 -11.02,-5.699 -3.95,-1.328 -8.28,-1.949 -12.96,-1.949 -6.22,0 -11.96,1.309 -17.24,3.918 -5.28,2.641 -9.86,6.391 -13.72,11.269 -3.87,4.872 -6.8,10.594 -8.79,17.192 -1.99,6.582 -2.99,13.711 -2.99,21.371 0,16.211 3.95,28.84 11.87,37.91 7.92,9.039 18.33,13.57 31.25,13.57 7.47,0 13.78,-1.293 18.89,-3.851 5.14,-2.551 10.14,-6.52 15,-11.809 v 38.258 c 0,5.332 1.08,9.332 3.2,12.07 2.11,2.711 5.14,4.082 9.07,4.082 3.92,0 6.94,-1.25 9.06,-3.75 2.13,-2.519 3.18,-6.191 3.18,-11.07 V 297.012 c 0,-4.942 -1.13,-8.633 -3.41,-11.11 -2.28,-2.461 -5.22,-3.691 -8.83,-3.691 -3.55,0 -6.48,1.269 -8.79,3.828 -2.32,2.57 -3.48,6.231 -3.48,10.973" /><path
         id="path32"
         style="fill:#211c1d;fill-opacity:1;fill-rule:nonzero;stroke:none"
         d="m 3762.96,334.34 c 0,-10.32 2.35,-18.25 7.07,-23.77 4.72,-5.55 10.91,-8.34 18.57,-8.34 6.52,0 12.14,2.829 16.86,8.508 4.71,5.672 7.07,13.793 7.07,24.364 0,6.828 -0.98,12.73 -2.94,17.668 -1.96,4.941 -4.75,8.75 -8.35,11.449 -3.61,2.672 -7.83,4.019 -12.64,4.019 -4.94,0 -9.35,-1.347 -13.2,-4.019 -3.87,-2.699 -6.9,-6.578 -9.12,-11.68 -2.22,-5.098 -3.32,-11.168 -3.32,-18.199 z m -1.24,77.031 v -39.59 c 4.87,5.059 9.84,8.938 14.91,11.621 5.06,2.688 11.34,4.039 18.81,4.039 8.61,0 16.15,-2.05 22.66,-6.109 6.48,-4.102 11.51,-10.023 15.09,-17.781 3.58,-7.75 5.37,-16.949 5.37,-27.59 0,-7.852 -0.99,-15.039 -2.98,-21.602 -2.01,-6.57 -4.91,-12.25 -8.7,-17.058 -3.8,-4.801 -8.41,-8.531 -13.82,-11.172 -5.41,-2.609 -11.39,-3.918 -17.9,-3.918 -4,0 -7.75,0.469 -11.26,1.418 -3.52,0.941 -6.51,2.191 -8.98,3.75 -2.46,1.551 -4.57,3.152 -6.32,4.793 -1.73,1.637 -4.04,4.117 -6.88,7.418 v -2.578 c 0,-4.86 -1.17,-8.551 -3.52,-11.071 -2.33,-2.5 -5.31,-3.73 -8.92,-3.73 -3.67,0 -6.6,1.23 -8.78,3.73 -2.19,2.52 -3.28,6.211 -3.28,11.071 V 410.23 c 0,5.262 1.05,9.239 3.17,11.922 2.12,2.688 5.09,4.039 8.89,4.039 3.99,0 7.06,-1.293 9.21,-3.851 2.14,-2.57 3.23,-6.211 3.23,-10.969" /><path
         id="path34"
         style="fill:#211c1d;fill-opacity:1;fill-rule:nonzero;stroke:none"
         d="m 3872.18,278.961 2.37,5.809 -31.91,80.351 c -1.97,4.609 -2.95,7.988 -2.95,10.078 0,2.199 0.57,4.25 1.71,6.153 1.15,1.91 2.71,3.437 4.7,4.57 2,1.148 4.07,1.719 6.22,1.719 3.73,0 6.56,-1.192 8.46,-3.582 1.91,-2.36 3.58,-5.758 5.03,-10.188 l 21.94,-63.832 20.8,59.352 c 1.65,4.808 3.14,8.578 4.47,11.308 1.33,2.723 2.73,4.551 4.22,5.492 1.48,0.961 3.59,1.45 6.32,1.45 1.98,0 3.85,-0.532 5.65,-1.59 1.81,-1.031 3.2,-2.442 4.18,-4.211 0.98,-1.781 1.48,-3.641 1.48,-5.61 -0.27,-1.191 -0.66,-2.91 -1.25,-5.14 -0.56,-2.199 -1.26,-4.469 -2.08,-6.731 l -33.82,-88.519 c -2.91,-7.789 -5.76,-13.891 -8.55,-18.32 -2.78,-4.43 -6.46,-7.848 -11.05,-10.219 -4.6,-2.379 -10.79,-3.571 -18.58,-3.571 -7.6,0 -13.3,0.821 -17.09,2.461 -3.81,1.661 -5.7,4.668 -5.7,9.039 0,2.969 0.9,5.282 2.71,6.879 1.8,1.621 4.48,2.442 8.01,2.442 1.41,0 2.77,-0.192 4.1,-0.59 1.64,-0.371 3.07,-0.559 4.26,-0.559 2.98,0 5.33,0.43 7.04,1.328 1.71,0.879 3.23,2.422 4.6,4.61 1.37,2.16 2.93,5.39 4.71,9.621" /><path
         id="path36"
         style="fill:#211c1d;fill-opacity:1;fill-rule:nonzero;stroke:none"
         d="m 4247.8,385.391 h 6.19 v 7.769 c 0,8.149 1,14.57 3.07,19.379 2.03,4.781 5.55,8.262 10.47,10.453 4.9,2.168 11.62,3.258 20.16,3.258 15.19,0 22.73,-3.668 22.73,-11.129 0,-2.391 -0.8,-4.461 -2.4,-6.16 -1.55,-1.691 -3.44,-2.551 -5.59,-2.551 -0.99,0 -2.77,0.172 -5.27,0.578 -2.37,0.332 -4.51,0.571 -6.23,0.571 -4.67,0 -7.66,-1.411 -9.05,-4.157 -1.26,-2.761 -1.95,-6.683 -1.95,-11.843 v -6.168 h 6.33 c 9.9,0 14.8,-2.969 14.8,-8.961 0,-4.18 -1.27,-6.899 -3.92,-8.051 -2.62,-1.129 -6.23,-1.699 -10.88,-1.699 h -6.33 v -68.711 c 0,-5.117 -1.21,-9.008 -3.69,-11.68 -2.42,-2.738 -5.55,-4.059 -9.43,-4.059 -3.68,0 -6.7,1.321 -9.18,4.059 -2.44,2.672 -3.64,6.563 -3.64,11.68 v 68.711 h -7.14 c -3.89,0 -6.82,0.84 -8.93,2.621 -2.09,1.699 -3.14,3.98 -3.14,6.769 0,6.231 4.33,9.321 13.02,9.321" /><path
         id="path38"
         style="fill:#211c1d;fill-opacity:1;fill-rule:nonzero;stroke:none"
         d="m 4332.71,319.652 v -21.683 c 0,-5.239 -1.33,-9.199 -3.75,-11.797 -2.47,-2.652 -5.59,-3.942 -9.38,-3.942 -3.81,0 -6.87,1.309 -9.26,4 -2.36,2.641 -3.61,6.559 -3.61,11.739 v 72.23 c 0,11.66 4.2,17.481 12.62,17.481 4.33,0 7.42,-1.348 9.33,-4.09 1.9,-2.731 2.95,-6.731 3.17,-12.07 3.08,5.339 6.25,9.339 9.49,12.07 3.32,2.742 7.62,4.09 13.08,4.09 5.49,0 10.73,-1.348 15.86,-4.09 5.16,-2.731 7.72,-6.36 7.72,-10.84 0,-3.141 -1.11,-5.801 -3.26,-7.809 -2.21,-2.089 -4.55,-3.121 -7.07,-3.121 -1,0 -3.3,0.621 -6.92,1.789 -3.65,1.141 -6.89,1.743 -9.63,1.743 -3.81,0 -6.93,-1.032 -9.31,-2.993 -2.42,-2.05 -4.32,-4.961 -5.65,-8.859 -1.29,-3.949 -2.18,-8.66 -2.73,-14.051 -0.49,-5.41 -0.7,-12.027 -0.7,-19.797" /><path
         id="path40"
         style="fill:#211c1d;fill-opacity:1;fill-rule:nonzero;stroke:none"
         d="m 4401.16,343.32 h 47.01 c -0.62,8.852 -2.96,15.489 -7.13,19.86 -4.17,4.422 -9.58,6.609 -16.4,6.609 -6.47,0 -11.78,-2.207 -15.92,-6.699 -4.14,-4.461 -6.68,-11.039 -7.56,-19.77 m 50.74,-14.75 h -50.74 c 0.1,-5.871 1.25,-11.109 3.56,-15.578 2.34,-4.472 5.39,-7.871 9.24,-10.183 3.84,-2.258 8.04,-3.399 12.69,-3.399 3.11,0 5.92,0.34 8.5,1.121 2.54,0.699 5.04,1.848 7.44,3.418 2.42,1.52 4.61,3.18 6.64,5 2.03,1.731 4.67,4.16 7.91,7.18 1.35,1.141 3.24,1.742 5.68,1.742 2.68,0 4.81,-0.742 6.49,-2.23 1.66,-1.461 2.44,-3.489 2.44,-6.172 0,-2.34 -0.9,-5.078 -2.68,-8.18 -1.87,-3.18 -4.63,-6.168 -8.36,-9.059 -3.75,-2.859 -8.4,-5.281 -13.98,-7.148 -5.59,-1.902 -12.05,-2.852 -19.32,-2.852 -16.7,0 -29.63,4.719 -38.87,14.219 -9.23,9.512 -13.9,22.422 -13.9,38.672 0,7.668 1.17,14.777 3.48,21.34 2.24,6.59 5.56,12.168 9.98,16.879 4.35,4.711 9.7,8.281 16.13,10.781 6.37,2.5 13.46,3.75 21.27,3.75 10.12,0 18.81,-2.152 26.07,-6.461 7.23,-4.219 12.74,-9.769 16.29,-16.551 3.61,-6.789 5.41,-13.668 5.41,-20.738 0,-6.48 -1.87,-10.699 -5.6,-12.66 -3.73,-1.93 -8.99,-2.891 -15.77,-2.891" /><path
         id="path42"
         style="fill:#211c1d;fill-opacity:1;fill-rule:nonzero;stroke:none"
         d="m 4509.05,343.32 h 47.01 c -0.64,8.852 -3.04,15.489 -7.14,19.86 -4.22,4.422 -9.63,6.609 -16.43,6.609 -6.46,0 -11.76,-2.207 -15.94,-6.699 -4.12,-4.461 -6.66,-11.039 -7.5,-19.77 m 50.73,-14.75 h -50.73 c 0.06,-5.871 1.25,-11.109 3.54,-15.578 2.32,-4.472 5.39,-7.871 9.22,-10.183 3.82,-2.258 8.04,-3.399 12.71,-3.399 3.07,0 5.92,0.34 8.44,1.121 2.6,0.699 5.06,1.848 7.5,3.418 2.42,1.52 4.61,3.18 6.64,5 1.99,1.731 4.65,4.16 7.89,7.18 1.35,1.141 3.26,1.742 5.68,1.742 2.68,0 4.83,-0.742 6.51,-2.23 1.64,-1.461 2.4,-3.489 2.4,-6.172 0,-2.34 -0.88,-5.078 -2.73,-8.18 -1.78,-3.18 -4.56,-6.168 -8.31,-9.059 -3.71,-2.859 -8.39,-5.281 -13.96,-7.148 -5.57,-1.902 -12.07,-2.852 -19.34,-2.852 -16.68,0 -29.59,4.719 -38.86,14.219 -9.24,9.512 -13.89,22.422 -13.89,38.672 0,7.668 1.15,14.777 3.48,21.34 2.26,6.59 5.58,12.168 9.96,16.879 4.35,4.711 9.72,8.281 16.13,10.781 6.39,2.5 13.52,3.75 21.29,3.75 10.1,0 18.79,-2.152 26.13,-6.461 7.21,-4.219 12.66,-9.769 16.21,-16.551 3.6,-6.789 5.45,-13.668 5.45,-20.738 0,-6.48 -1.91,-10.699 -5.6,-12.66 -3.75,-1.93 -9.01,-2.891 -15.76,-2.891" /><path
         id="path44"
         style="fill:#211c1d;fill-opacity:1;fill-rule:nonzero;stroke:none"
         d="m 4667.41,335.41 c 0,6.86 -1.05,12.731 -3.14,17.641 -2.09,4.918 -4.98,8.668 -8.65,11.269 -3.68,2.629 -7.84,3.961 -12.33,3.961 -7.15,0 -13.18,-2.832 -18.08,-8.441 -4.93,-5.66 -7.41,-13.938 -7.41,-24.918 0,-10.27 2.44,-18.34 7.37,-24.063 4.86,-5.738 10.86,-8.589 18.12,-8.589 4.28,0 8.3,1.269 11.97,3.73 3.71,2.52 6.64,6.27 8.83,11.27 2.21,5.019 3.32,11.07 3.32,18.14 m -50.84,37.68 v -3.11 c 4.87,6.02 9.94,10.43 15.26,13.239 5.17,2.851 11.17,4.281 17.81,4.281 7.95,0 15.35,-2.09 22.07,-6.168 6.72,-4.141 11.99,-10.16 15.9,-18.07 3.88,-7.953 5.86,-17.301 5.86,-28.141 0,-7.949 -1.14,-15.32 -3.36,-22.012 -2.25,-6.679 -5.37,-12.269 -9.3,-16.8 -3.93,-4.489 -8.55,-8.008 -13.89,-10.45 -5.43,-2.418 -11.11,-3.629 -17.28,-3.629 -7.38,0 -13.63,1.481 -18.65,4.469 -5.02,2.91 -9.83,7.321 -14.42,13.051 v -38.93 c 0,-11.351 -4.16,-17.09 -12.44,-17.09 -4.9,0 -8.09,1.469 -9.71,4.391 -1.52,2.988 -2.34,7.231 -2.34,12.918 v 111.93 c 0,4.941 1.07,8.59 3.2,11.07 2.15,2.391 5.12,3.641 8.85,3.641 3.69,0 6.66,-1.25 8.97,-3.731 2.34,-2.539 3.47,-6.117 3.47,-10.859" /><path
         id="path46"
         style="fill:#211c1d;fill-opacity:1;fill-rule:nonzero;stroke:none"
         d="m 4732.41,372.969 v -75.02 c 0,-5.16 -1.23,-9.078 -3.69,-11.719 -2.5,-2.691 -5.6,-4 -9.41,-4 -3.81,0 -6.86,1.321 -9.28,4.059 -2.34,2.75 -3.56,6.641 -3.56,11.66 v 74.281 c 0,5.09 1.22,8.942 3.56,11.54 2.42,2.64 5.47,3.91 9.28,3.91 3.81,0 6.91,-1.27 9.41,-3.91 2.46,-2.598 3.69,-6.231 3.69,-10.801 m -12.83,26.781 c -3.63,0 -6.7,1.152 -9.24,3.359 -2.6,2.223 -3.87,5.313 -3.87,9.352 0,3.687 1.31,6.699 3.97,9.098 2.62,2.351 5.66,3.562 9.14,3.562 3.4,0 6.35,-1.062 8.93,-3.191 2.59,-2.18 3.9,-5.348 3.9,-9.469 0,-3.981 -1.27,-7.109 -3.77,-9.352 -2.54,-2.207 -5.54,-3.359 -9.06,-3.359" /><path
         id="path48"
         style="fill:#211c1d;fill-opacity:1;fill-rule:nonzero;stroke:none"
         d="m 4816.01,294.059 -22.84,37.66 -14.08,-13.278 V 297.77 c 0,-4.981 -1.33,-8.809 -3.96,-11.481 -2.58,-2.738 -5.67,-4.059 -9.07,-4.059 -3.98,0 -7.14,1.309 -9.41,4 -2.27,2.641 -3.44,6.559 -3.44,11.739 V 408.59 c 0,5.75 1.16,10.121 3.32,13.152 2.23,3.047 5.45,4.508 9.53,4.508 3.99,0 7.13,-1.371 9.5,-4.098 2.34,-2.722 3.53,-6.742 3.53,-12.031 v -62.93 l 29.16,30.618 c 3.62,3.773 6.33,6.41 8.26,7.8 1.9,1.379 4.2,2.071 6.9,2.071 3.26,0 5.94,-1.039 8.16,-3.09 2.11,-2.051 3.21,-4.649 3.21,-7.731 0,-3.789 -3.54,-8.89 -10.55,-15.218 l -13.77,-12.621 26.58,-41.829 c 1.93,-3.132 3.4,-5.429 4.24,-7.05 0.84,-1.602 1.31,-3.211 1.31,-4.629 0,-4.121 -1.15,-7.352 -3.42,-9.75 -2.25,-2.36 -5.23,-3.532 -8.85,-3.532 -3.16,0 -5.64,0.801 -7.34,2.559 -1.7,1.711 -4.06,4.82 -6.97,9.27" /><path
         id="path50"
         style="fill:#211c1d;fill-opacity:1;fill-rule:nonzero;stroke:none"
         d="m 4872.37,282.23 c -3.92,0 -7.28,1.25 -10.13,3.809 -2.86,2.481 -4.3,6.051 -4.3,10.641 0,3.851 1.39,7.191 4.1,9.941 2.75,2.789 6.08,4.199 10.08,4.199 3.98,0 7.36,-1.41 10.23,-4.121 2.8,-2.75 4.22,-6.129 4.22,-10.019 0,-4.528 -1.42,-8.09 -4.22,-10.61 -2.87,-2.59 -6.19,-3.84 -9.98,-3.84" /><path
         id="path52"
         style="fill:#211c1d;fill-opacity:1;fill-rule:nonzero;stroke:none"
         d="m 5001.36,314.32 c 0,-3.211 -0.98,-6.679 -2.91,-10.34 -1.92,-3.71 -4.89,-7.179 -8.87,-10.5 -3.95,-3.32 -8.91,-6.019 -14.94,-8.031 -6.02,-2.027 -12.81,-3.07 -20.31,-3.07 -16.06,0 -28.58,4.691 -37.58,14.012 -8.95,9.347 -13.46,21.89 -13.46,37.589 0,10.692 2.05,20.059 6.19,28.25 4.08,8.141 10.04,14.469 17.81,18.942 7.8,4.469 17.17,6.699 27.95,6.699 6.74,0 12.88,-0.98 18.52,-2.949 5.61,-1.953 10.33,-4.512 14.26,-7.602 3.86,-3.14 6.85,-6.418 8.88,-9.922 2.07,-3.507 3.09,-6.789 3.09,-9.859 0,-3.09 -1.13,-5.719 -3.44,-7.867 -2.34,-2.152 -5.15,-3.242 -8.38,-3.242 -2.18,0 -3.98,0.558 -5.41,1.66 -1.44,1.109 -3.04,2.89 -4.78,5.41 -3.19,4.781 -6.47,8.41 -9.96,10.801 -3.44,2.418 -7.81,3.609 -13.15,3.609 -7.61,0 -13.83,-2.969 -18.53,-8.961 -4.67,-5.957 -7.03,-14.199 -7.03,-24.558 0,-4.879 0.62,-9.391 1.83,-13.469 1.17,-4.063 2.91,-7.563 5.2,-10.43 2.3,-2.871 5.04,-5.062 8.26,-6.543 3.24,-1.551 6.82,-2.269 10.64,-2.269 5.22,0 9.67,1.211 13.36,3.609 3.77,2.41 7.03,6.082 9.87,11.02 1.58,2.91 3.28,5.171 5.09,6.832 1.82,1.648 4.09,2.5 6.76,2.5 3.17,0 5.8,-1.231 7.85,-3.629 2.11,-2.403 3.19,-4.981 3.19,-7.692" /><path
         id="path54"
         style="fill:#211c1d;fill-opacity:1;fill-rule:nonzero;stroke:none"
         d="m 5087.22,334.922 c 0,10.59 -2.35,18.808 -6.98,24.687 -4.62,5.961 -10.89,8.891 -18.75,8.891 -5.07,0 -9.55,-1.328 -13.41,-3.949 -3.87,-2.621 -6.82,-6.481 -8.91,-11.641 -2.09,-5.14 -3.14,-11.129 -3.14,-17.988 0,-6.781 1.01,-12.672 3.08,-17.731 2.09,-5.101 5.02,-8.972 8.87,-11.66 3.85,-2.66 8.34,-4.051 13.51,-4.051 7.86,0 14.13,2.969 18.75,8.93 4.63,5.899 6.98,14.102 6.98,24.512 m 26.03,0 c 0,-7.692 -1.21,-14.84 -3.55,-21.383 -2.46,-6.527 -5.92,-12.129 -10.49,-16.777 -4.55,-4.692 -10.02,-8.282 -16.33,-10.801 -6.39,-2.481 -13.5,-3.75 -21.39,-3.75 -7.85,0 -14.92,1.269 -21.21,3.828 -6.23,2.481 -11.7,6.133 -16.25,10.82 -4.61,4.762 -8.08,10.332 -10.52,16.75 -2.29,6.45 -3.5,13.563 -3.5,21.313 0,7.867 1.23,15.058 3.57,21.578 2.43,6.551 5.9,12.129 10.39,16.738 4.52,4.614 9.95,8.172 16.31,10.711 6.45,2.481 13.5,3.731 21.21,3.731 7.86,0 14.98,-1.25 21.39,-3.809 6.39,-2.519 11.84,-6.16 16.45,-10.801 4.57,-4.75 8.02,-10.3 10.39,-16.718 2.34,-6.512 3.53,-13.602 3.53,-21.43" /><path
         id="path56"
         style="fill:#211c1d;fill-opacity:1;fill-rule:nonzero;stroke:none"
         d="m 5212.18,333.031 v -34.48 c 0,-5.461 -1.21,-9.512 -3.69,-12.262 -2.5,-2.738 -5.73,-4.078 -9.79,-4.078 -3.92,0 -7.13,1.34 -9.51,4.078 -2.46,2.75 -3.71,6.801 -3.71,12.262 v 41.308 c 0,6.551 -0.22,11.621 -0.65,15.262 -0.45,3.527 -1.68,6.539 -3.61,8.828 -1.97,2.34 -5.1,3.512 -9.32,3.512 -8.49,0 -14.06,-2.91 -16.75,-8.813 -2.68,-5.757 -4.07,-14.136 -4.07,-25.078 v -35.019 c 0,-5.371 -1.23,-9.449 -3.61,-12.219 -2.5,-2.742 -5.68,-4.121 -9.65,-4.121 -3.96,0 -7.17,1.379 -9.67,4.121 -2.52,2.77 -3.77,6.848 -3.77,12.219 v 74.199 c 0,4.891 1.12,8.602 3.36,11.121 2.29,2.559 5.26,3.809 8.89,3.809 3.58,0 6.52,-1.231 8.93,-3.559 2.36,-2.379 3.53,-5.66 3.53,-9.84 v -2.441 c 4.53,5.351 9.36,9.308 14.45,11.789 5.16,2.601 10.83,3.871 17.13,3.871 6.51,0 12.11,-1.309 16.78,-3.91 4.69,-2.59 8.54,-6.539 11.6,-11.75 4.4,5.269 9.08,9.211 14.1,11.789 5,2.582 10.53,3.871 16.63,3.871 7.05,0 13.2,-1.43 18.34,-4.199 5.09,-2.77 8.92,-6.801 11.46,-11.949 2.21,-4.731 3.3,-12.09 3.3,-22.172 v -50.629 c 0,-5.461 -1.21,-9.512 -3.67,-12.262 -2.46,-2.738 -5.74,-4.078 -9.79,-4.078 -3.94,0 -7.14,1.379 -9.64,4.121 -2.5,2.77 -3.77,6.848 -3.77,12.219 v 43.621 c 0,5.578 -0.24,10.039 -0.69,13.379 -0.47,3.379 -1.78,6.211 -3.83,8.469 -2.12,2.269 -5.31,3.441 -9.53,3.441 -3.42,0 -6.66,-1.07 -9.74,-3.09 -3.07,-1.973 -5.47,-4.762 -7.21,-8.121 -1.86,-4.379 -2.83,-12.129 -2.83,-23.219" /><path
         id="path58"
         style="fill:#211c1d;fill-opacity:1;fill-rule:nonzero;stroke:none"
         d="m 4005.13,341.211 -0.02,0.18 0.02,-0.18" /><path
         id="path60"
         style="fill:#211c1d;fill-opacity:1;fill-rule:nonzero;stroke:none"
         d="m 4006.44,332.91 h 0.02 c -0.49,2.36 -0.88,4.711 -1.18,7.031 0.3,-2.339 0.69,-4.691 1.16,-7.031" /><path
         id="path62"
         style="fill:#211c1d;fill-opacity:1;fill-rule:nonzero;stroke:none"
         d="m 4015.02,308.852 -0.17,0.328 0.17,-0.328" /><path
         id="path64"
         style="fill:#211c1d;fill-opacity:1;fill-rule:nonzero;stroke:none"
         d="m 4014.2,310.449 -0.66,1.352 0.66,-1.352" /><path
         id="path66"
         style="fill:#211c1d;fill-opacity:1;fill-rule:nonzero;stroke:none"
         d="m 4008.85,323.648 c 1.27,-3.996 2.8,-7.886 4.57,-11.578 -1.81,3.77 -3.3,7.66 -4.54,11.578 h -0.03" /><path
         id="path68"
         style="fill:#211c1d;fill-opacity:1;fill-rule:nonzero;stroke:none"
         d="m 4105.5,440.57 c 5.02,0 8.71,-0.39 12.95,-1.121 l 1.21,7.641 c 0,0 -11.72,3.59 -27.11,2.34 l -1.21,4.14 c 4.78,1.02 8.38,5.282 8.38,10.36 0,5.82 -4.75,10.519 -10.57,10.519 -5.84,0 -10.57,-4.699 -10.57,-10.519 0,-5.078 3.6,-9.34 8.36,-10.36 l 1.35,-4.621 c -16.35,-2.25 -29.35,-8.617 -29.35,-8.617 l 2.3,-7.051 c 9.88,3.278 18.46,5.289 26.24,6.129 7.62,0.801 13.35,1.16 18.02,1.16" /><path
         id="path70"
         style="fill:#211c1d;fill-opacity:1;fill-rule:nonzero;stroke:none"
         d="m 4014.82,401.988 0.06,0.082 1.14,1.43 -3.14,2.238 -4.87,3.582 c -0.28,-0.39 -7.95,-7.449 -14.02,-20.488 l -0.89,1.188 c -1.82,1.992 -4.36,3.011 -7.58,2.949 h -0.16 c -1.99,0 -3.36,0.66 -4.26,1.461 0.89,1.14 1.43,2.558 1.43,4.14 0,3.68 -3,6.68 -6.7,6.68 -3.68,0 -6.68,-3 -6.68,-6.68 0,-3.711 3,-6.699 6.68,-6.699 l 1.68,0.219 c 1.64,-1.84 4.25,-3.418 8.07,-3.34 1.97,0.02 3.41,-0.488 4.37,-1.559 1.11,-1.211 1.49,-2.949 1.6,-4.281 l -0.03,-0.039 c -4.35,-11.891 -3.11,-26.699 -3.11,-26.699 l 10.57,-0.434 c 0.22,5.391 0.99,14.832 3.73,22.313 5.25,14.488 11.85,23.551 12.11,23.937" /><path
         id="path72"
         style="fill:#211c1d;fill-opacity:1;fill-rule:nonzero;stroke:none"
         d="m 4197.49,431.742 c -3.67,0 -6.68,-2.992 -6.68,-6.703 l 0.23,-1.637 c -1.83,-1.66 -3.43,-4.281 -3.37,-8.113 0.04,-1.969 -0.47,-3.398 -1.55,-4.367 -0.84,-0.742 -1.91,-1.152 -2.95,-1.41 -7.87,11.039 -17.55,17.758 -17.55,17.758 l -7.6,-8.129 c 5.74,-5.211 11.6,-11.762 17.28,-19.899 3.95,-5.652 7.99,-12.91 11.37,-20.16 l 10.23,4.867 c 0,0 -4.66,11.563 -11.25,21.91 1.14,0.411 2.29,1.032 3.31,1.93 2.01,1.801 2.98,4.363 2.92,7.582 -0.01,2.07 0.67,3.481 1.49,4.418 1.15,-0.879 2.58,-1.43 4.12,-1.43 3.71,0 6.7,2.993 6.7,6.68 0,3.711 -2.99,6.703 -6.7,6.703" /><path
         id="path74"
         style="fill:#211c1d;fill-opacity:1;fill-rule:nonzero;stroke:none"
         d="m 4170.93,339.711 c -14.1,-6.859 -37.29,-15.941 -67.81,-20.199 -12,-1.66 -23.6,-2.262 -34.29,-2.262 -13.91,0 -26.2,1.031 -35.63,2.219 -10.76,1.351 -19.17,3.011 -24.32,4.179 1.24,-3.918 2.73,-7.808 4.54,-11.578 l 0.12,-0.269 0.66,-1.352 0.65,-1.269 0.17,-0.328 c 3.03,-5.711 6.67,-10.942 10.81,-15.493 14.39,-15.738 29.06,-18.238 29.2,-18.257 l 0.23,-0.02 0.22,-0.082 c 0.14,-0.059 13.14,-4.262 32.91,-4.262 19.45,0 38.55,3.934 56.74,11.684 13.47,6.898 26.23,17.367 32.54,26.699 4.88,7.231 8.41,14.918 10.5,22.93 1.12,4.258 2,11.07 1.47,18.258 -3.97,-2.668 -10.24,-6.457 -18.71,-10.598" /><path
         id="path76"
         style="fill:#211c1d;fill-opacity:1;fill-rule:nonzero;stroke:none"
         d="m 4059.63,406.02 c 15.57,0 28.17,-12.618 28.17,-28.188 0,-15.543 -12.6,-28.141 -28.17,-28.141 -15.55,0 -28.16,12.598 -28.16,28.141 0,15.57 12.61,28.188 28.16,28.188 z m 82.41,-0.711 c 9.61,0 17.44,-7.809 17.44,-17.418 0,-9.629 -7.83,-17.442 -17.44,-17.442 -9.61,0 -17.42,7.813 -17.42,17.442 0,9.609 7.81,17.418 17.42,17.418 z m -122.69,-6.661 c -0.41,-0.597 -6.53,-9.257 -11.35,-22.539 -3.62,-9.937 -3.46,-24.429 -3.46,-24.589 v -0.04 c 0,-3.39 0.2,-6.75 0.57,-10.089 l 0.02,-0.18 0.15,-1.27 c 0.3,-2.32 0.69,-4.671 1.18,-7.031 7.01,-1.781 48.78,-11.519 95.48,-5.019 29.28,4.078 51.51,12.73 65,19.281 11.21,5.43 18.42,10.348 21.19,12.379 -2.77,10.269 -10.41,26.41 -17.42,36.469 -20.06,28.652 -41.68,35.992 -52.77,37.832 -4.24,0.679 -7.64,1.089 -12.44,1.089 -4.47,0 -10.02,-0.371 -17.42,-1.152 -7.45,-0.758 -15.73,-2.719 -25.34,-5.957 -13.47,-4.512 -25.66,-11.582 -35.26,-20.473 l -0.32,-0.308 c -1.43,-1.313 -4.4,-4.059 -7.81,-8.403" /><path
         id="path78"
         style="fill:#80d5e7;fill-opacity:1;fill-rule:nonzero;stroke:none"
         d="m 1665.63,6536.1 c -68.34,-22.62 -136.67,-45.25 -205,-67.87 -123.58,-40.91 -247.18,-81.83 -370.76,-122.75 -44.36,-14.68 -88.71,-29.37 -133.061,-44.05 -29.426,-9.74 -61.649,-16.54 -80.625,-43.58 -27.844,-39.68 -14.118,-96.57 28.894,-119.04 21.942,-11.47 45.801,-10.96 68.746,-3.36 29.636,9.81 59.266,19.62 88.906,29.43 117.96,39.05 235.9,78.1 353.85,117.16 94.45,31.26 188.89,62.53 283.33,93.8 24.24,8.02 46.63,17.14 60.87,40.52 17.42,28.61 15.34,65.99 -5.25,92.45 -20.94,26.9 -57.54,37.98 -89.9,27.29" /><path
         id="path80"
         style="fill:#80d5e7;fill-opacity:1;fill-rule:nonzero;stroke:none"
         d="m 1716.42,6133.58 c -88.89,-29.43 -177.89,-58.97 -266.78,-88.39 -85.22,-28.21 -170.36,-56.41 -255.58,-84.61 22.81,-12.73 45.01,-27.08 65.77,-43.17 h 0.11 c 43.68,-33.71 81.16,-74.94 106.01,-124.75 9.56,-19.24 17.1,-39.3 22.4,-60.06 h -176.16 c -24.73,39.9 -66.18,69.44 -107.23,91.03 -7.42,3.86 -15.05,7.63 -22.7,11.1 -41.65,19.34 -85.928,33.39 -130.537,43.58 -7.231,1.63 -14.77,2.95 -22.078,4.58 h -0.118 c -9.261,2.03 -18.422,4.58 -26.683,9.37 -42.356,24.23 -54.481,81.66 -24.637,120.65 19.141,24.75 50.406,31.37 78.609,40.72 44.294,14.68 88.684,29.44 132.984,44.1 123.61,40.93 247.23,81.77 370.84,122.7 68.32,22.6 136.65,45.31 204.98,67.91 45.3,14.98 94.89,-13.44 105.17,-59.97 8.85,-40.42 -15.17,-81.87 -54.37,-94.79" /><path
         id="path82"
         style="fill:#80d5e7;fill-opacity:1;fill-rule:nonzero;stroke:none"
         d="m 1665.63,6766.9 c -68.34,-22.63 -136.67,-45.26 -205,-67.88 -123.58,-40.91 -247.18,-81.82 -370.76,-122.76 -44.36,-14.67 -88.71,-29.36 -133.061,-44.03 -29.426,-9.74 -61.649,-16.55 -80.625,-43.6 -27.844,-39.66 -14.118,-96.55 28.894,-119.04 21.942,-11.46 45.801,-10.94 68.746,-3.34 29.636,9.81 59.266,19.6 88.906,29.41 117.96,39.07 235.9,78.11 353.85,117.17 94.45,31.27 188.89,62.53 283.33,93.8 24.24,8.02 46.63,17.15 60.87,40.53 17.42,28.61 15.34,65.98 -5.25,92.43 -20.93,26.91 -57.54,38 -89.9,27.31" /><path
         id="path84"
         style="fill:#80d5e7;fill-opacity:1;fill-rule:nonzero;stroke:none"
         d="m 942.809,6591.1 c 25.379,0 53.32,13.33 76.991,21.17 47.18,15.61 94.35,31.22 141.51,46.85 123.71,40.95 247.44,81.92 371.14,122.88 46.03,15.22 92.05,30.46 138.07,45.7 24.45,8.09 55.29,14.34 74.9,31.83 35.4,31.55 35.97,88.64 0.97,120.76 -22.58,20.75 -54.13,26.23 -82.87,16.71 -26,-8.61 -51.98,-17.21 -77.96,-25.81 -115.72,-38.31 -231.41,-76.61 -347.12,-114.93 -98.91,-32.74 -197.81,-65.48 -296.725,-98.23 -16.844,-5.57 -34.711,-10.08 -48.926,-21.14 -26.101,-20.3 -37.445,-55.44 -28.156,-87.17 10.074,-34.31 42.383,-58.62 78.176,-58.62" /><path
         id="path86"
         style="fill:#80d5e7;fill-opacity:1;fill-rule:nonzero;stroke:none"
         d="m 1115.91,6879.21 c 16.18,0 31.17,5.99 46.3,11 21.58,7.14 43.16,14.28 64.74,21.43 61.59,20.39 123.17,40.77 184.74,61.17 42.45,14.05 84.88,28.1 127.32,42.15 28.05,9.28 50.37,29.13 57.99,58.5 11.93,45.98 -19.5,93.56 -66.36,100.89 -18.81,2.94 -35.47,-2.29 -52.86,-8.03 -19.88,-6.6 -39.77,-13.18 -59.65,-19.76 -60.97,-20.19 -121.93,-40.37 -182.9,-60.56 -45.47,-15.06 -90.96,-30.12 -136.45,-45.18 -23.17,-7.67 -43.28,-19.88 -55.03,-42.37 -22.57,-43.13 -1.2,-97.91 44.62,-114.42 8.82,-3.18 18.17,-4.82 27.54,-4.82" /><path
         id="path88"
         style="fill:#beeaf1;fill-opacity:1;fill-rule:nonzero;stroke:none"
         d="m 1259.87,5917.41 c -0.01,0 -0.02,0 -0.04,0 -20.76,16.09 -42.95,30.44 -65.76,43.16 0.01,0 0.02,0.01 0.02,0.01 22.81,-12.73 45.01,-27.08 65.78,-43.17" /><path
         id="path90"
         style="fill:#64c5e1;fill-opacity:1;fill-rule:nonzero;stroke:none"
         d="m 1082.59,5834.73 h -0.3 c -41.65,19.34 -85.942,33.39 -130.536,43.58 -7.223,1.63 -14.766,2.95 -22.094,4.58 36.059,10.02 261.98,76.96 264.41,77.68 22.81,-12.72 45,-27.07 65.76,-43.16 -5.45,0.31 -10.77,0.45 -15.92,0.45 -122.51,0 -161.32,-83.13 -161.32,-83.13 m 177.28,82.68 v 0 0" /><path
         id="path92"
         style="fill:#ffffff;fill-opacity:1;fill-rule:nonzero;stroke:none"
         d="m 1585.17,6191.59 c -5.36,0 -10.34,3.41 -12.1,8.77 -2.19,6.67 1.45,13.87 8.13,16.06 l 66.28,21.74 c 6.71,2.16 13.87,-1.45 16.06,-8.12 2.2,-6.69 -1.44,-13.89 -8.12,-16.08 l -66.29,-21.73 c -1.32,-0.43 -2.66,-0.64 -3.96,-0.64" /><path
         id="path94"
         style="fill:#ffffff;fill-opacity:1;fill-rule:nonzero;stroke:none"
         d="m 1172.89,6056.35 c -5.36,0 -10.34,3.41 -12.09,8.78 -2.2,6.67 1.44,13.86 8.12,16.04 l 318.19,104.38 c 6.71,2.19 13.87,-1.45 16.06,-8.13 2.2,-6.67 -1.44,-13.87 -8.12,-16.05 l -318.19,-104.38 c -1.32,-0.43 -2.67,-0.64 -3.97,-0.64" /><path
         id="path96"
         style="fill:#ffffff;fill-opacity:1;fill-rule:nonzero;stroke:none"
         d="m 1585.17,6446.71 c -5.36,0 -10.34,3.41 -12.1,8.76 -2.19,6.69 1.45,13.88 8.13,16.07 l 66.28,21.73 c 6.71,2.17 13.87,-1.44 16.06,-8.12 2.2,-6.68 -1.44,-13.88 -8.12,-16.06 l -66.29,-21.74 c -1.32,-0.43 -2.66,-0.64 -3.96,-0.64" /><path
         id="path98"
         style="fill:#ffffff;fill-opacity:1;fill-rule:nonzero;stroke:none"
         d="m 1172.89,6311.47 c -5.36,0 -10.34,3.41 -12.09,8.76 -2.2,6.69 1.44,13.88 8.12,16.07 l 318.19,104.37 c 6.71,2.19 13.87,-1.45 16.06,-8.13 2.2,-6.67 -1.44,-13.86 -8.12,-16.05 l -318.19,-104.38 c -1.32,-0.44 -2.67,-0.64 -3.97,-0.64" /><path
         id="path100"
         style="fill:#ffffff;fill-opacity:1;fill-rule:nonzero;stroke:none"
         d="m 1585.17,6679.66 c -5.36,0 -10.34,3.41 -12.1,8.77 -2.19,6.69 1.45,13.87 8.13,16.06 l 66.28,21.75 c 6.71,2.16 13.87,-1.46 16.06,-8.13 2.2,-6.68 -1.44,-13.88 -8.12,-16.06 l -66.29,-21.74 c -1.32,-0.44 -2.66,-0.65 -3.96,-0.65" /><path
         id="path102"
         style="fill:#ffffff;fill-opacity:1;fill-rule:nonzero;stroke:none"
         d="m 1172.89,6544.43 c -5.36,0 -10.34,3.4 -12.09,8.77 -2.2,6.68 1.44,13.87 8.12,16.05 l 318.19,104.38 c 6.71,2.18 13.87,-1.46 16.06,-8.13 2.2,-6.68 -1.44,-13.88 -8.12,-16.06 l -318.19,-104.37 c -1.32,-0.43 -2.67,-0.64 -3.97,-0.64" /><path
         id="path104"
         style="fill:#ffffff;fill-opacity:1;fill-rule:nonzero;stroke:none"
         d="m 1585.17,6905.24 c -5.36,0 -10.34,3.4 -12.1,8.77 -2.19,6.68 1.45,13.87 8.13,16.06 l 66.28,21.74 c 6.71,2.15 13.87,-1.46 16.06,-8.12 2.2,-6.7 -1.44,-13.88 -8.12,-16.08 l -66.29,-21.74 c -1.32,-0.42 -2.66,-0.63 -3.96,-0.63" /><path
         id="path106"
         style="fill:#ffffff;fill-opacity:1;fill-rule:nonzero;stroke:none"
         d="m 1172.89,6770 c -5.36,0 -10.34,3.41 -12.09,8.76 -2.2,6.68 1.44,13.88 8.12,16.07 l 318.19,104.37 c 6.71,2.2 13.87,-1.46 16.06,-8.12 2.2,-6.69 -1.44,-13.87 -8.12,-16.07 l -318.19,-104.37 c -1.32,-0.43 -2.67,-0.64 -3.97,-0.64" /><path
         id="path108"
         style="fill:#ffffff;fill-opacity:1;fill-rule:nonzero;stroke:none"
         d="m 1340.83,7055.49 c -5.35,0 -10.34,3.4 -12.1,8.77 -2.17,6.68 1.45,13.87 8.14,16.05 l 150.24,49.3 c 6.71,2.15 13.87,-1.47 16.07,-8.13 2.19,-6.69 -1.45,-13.87 -8.13,-16.07 l -150.26,-49.28 c -1.31,-0.43 -2.65,-0.64 -3.96,-0.64" /><path
         id="path110"
         style="fill:#80d5e7;fill-opacity:1;fill-rule:nonzero;stroke:none"
         d="m 1445.88,5432.01 v -72.11 c 0,-23.79 -19.46,-43.26 -43.26,-43.26 h -168.71 c -23.78,0 -43.26,19.47 -43.26,43.26 v 72.11 h 255.23" /><path
         id="path112"
         style="fill:#211c1d;fill-opacity:1;fill-rule:nonzero;stroke:none"
         d="m 1590.56,5763.44 c 0,0 0,-29.42 0,-61.59 h -543.52 c 0,32.17 0,61.59 0,61.59 h 543.52" /><path
         id="path114"
         style="fill:#211c1d;fill-opacity:1;fill-rule:nonzero;stroke:none"
         d="m 1047.04,5681.48 h 543.52 v -37.77 c 0,-64.06 -52.64,-52.55 -70.35,-72.3 -22.61,-25.16 0,-139.4 -60.6,-139.4 h -281.53 c -60.58,0 -37.99,114.24 -60.58,139.4 -17.83,19.75 -70.46,8.24 -70.46,72.3 v 37.77" /><path
         id="path116"
         style="fill:#65c8ec;fill-opacity:1;fill-rule:nonzero;stroke:none"
         d="m 1190.65,5393.62 h 255.23 v 15.2695 h -255.23 z" /><path
         id="path118"
         style="fill:#b5e7f8;fill-opacity:1;fill-rule:nonzero;stroke:none"
         d="m 1445.88,5357.35 h -0.08 c 0.05,0.84 0.08,1.69 0.08,2.55 v 12.71 -15.26 m -255.15,0 h -0.08 v 2.55 c 0,-0.86 0.03,-1.71 0.08,-2.55" /><path
         id="path120"
         style="fill:#65c8ec;fill-opacity:1;fill-rule:nonzero;stroke:none"
         d="m 1445.8,5357.35 h -255.07 c -0.05,0.84 -0.08,1.69 -0.08,2.55 v 12.71 h 255.23 v -12.71 c 0,-0.86 -0.03,-1.71 -0.08,-2.55" /><path
         id="path122"
         style="fill:#211c1d;fill-opacity:1;fill-rule:nonzero;stroke:none"
         d="m 1269.51,5316.64 6.49,-20.36 c 1.63,-5.3 6.83,-9.58 11.52,-9.58 h 62.62 c 4.68,0 9.9,4.28 11.51,9.58 l 6.48,20.36 h -98.62" /><path
         id="path124"
         style="fill:#80d5e7;fill-opacity:1;fill-rule:nonzero;stroke:none"
         d="M 4499.14,7204.94 V 5844.36 h -447.16 v 1360.58 c 0,123.44 100.13,223.59 223.6,223.59 123.43,0 223.56,-100.15 223.56,-223.59" /><path
         id="path126"
         style="fill:#beeaf1;fill-opacity:1;fill-rule:nonzero;stroke:none"
         d="m 4359.54,5828.34 -22.92,5.43 c 0.78,3.28 1.59,6.82 2.43,10.59 h 24.09 c -1.94,-8.92 -3.26,-14.57 -3.6,-16.02 m -163.88,0 c -0.34,1.45 -1.66,7.1 -3.59,16.02 h 24.07 c 0.85,-3.77 1.66,-7.31 2.43,-10.59 l -22.91,-5.43" /><path
         id="path128"
         style="fill:#64c5e1;fill-opacity:1;fill-rule:nonzero;stroke:none"
         d="m 4363.14,5844.36 h -24.09 c 18.18,81.18 50.28,270.29 13.71,325.42 -7.28,10.98 -14.64,17.54 -20.66,18.51 4.24,-6.27 7.52,-13.56 9.7,-21.79 8.12,-30.6 -1.02,-66.77 -19.59,-77.41 -3.83,-2.2 -7.87,-3.28 -11.92,-3.28 -6.96,0 -13.97,3.18 -20.06,9.34 -15.34,15.49 -13.53,47.57 -4.96,72.5 2.76,7.98 6.09,15.01 9.9,21 -4.83,1.77 -11.06,2.64 -17.3,2.64 -6.41,0 -12.84,-0.92 -17.77,-2.74 3.79,-5.97 7.1,-12.96 9.82,-20.88 8.6,-24.94 10.39,-57.02 -4.93,-72.52 -6.09,-6.17 -13.12,-9.34 -20.08,-9.34 -4.06,0 -8.09,1.07 -11.91,3.26 -18.57,10.66 -27.73,46.83 -19.59,77.43 2.2,8.23 5.46,15.52 9.7,21.79 -6.01,-0.98 -13.37,-7.54 -20.65,-18.51 -36.58,-55.13 -4.48,-244.24 13.68,-325.42 h -24.07 c -13.1,60.4 -54.29,270.52 -9.23,338.42 12.87,19.39 26.85,29.19 41.53,29.19 1.43,0 2.86,-0.1 4.29,-0.28 4.92,-0.62 9.66,-2.36 14.12,-5.12 9.74,5.5 21.37,8.4 34.52,8.4 13.39,0 25.23,-2.91 35.07,-8.45 4.49,2.79 9.24,4.55 14.17,5.17 1.43,0.18 2.85,0.27 4.26,0.27 14.73,0 28.71,-9.77 41.59,-29.18 45.05,-67.9 3.85,-278.02 -9.25,-338.42 m -121.47,329.13 c -4.66,-7.46 -6.51,-15.89 -7.23,-22.39 -2.61,-23.32 6.8,-40.89 10.62,-41.76 0.18,0.04 1.4,0.54 3.19,2.35 5.64,5.7 6.78,26.94 -0.57,48.3 -1.73,5.02 -3.78,9.58 -6.01,13.5 m 71.91,0.04 c -2.25,-3.94 -4.3,-8.51 -6.04,-13.54 -7.37,-21.37 -6.2,-42.6 -0.57,-48.3 1.79,-1.81 3.01,-2.31 3.27,-2.34 3.73,0.85 13.15,18.42 10.55,41.72 -0.71,6.53 -2.6,14.98 -7.21,22.46" /><path
         id="path130"
         style="fill:#ffffff;fill-opacity:1;fill-rule:nonzero;stroke:none"
         d="m 4423.27,6342.87 c -9.77,0 -17.65,7.91 -17.65,17.64 v 402.76 c 0,9.75 7.88,17.65 17.65,17.65 9.75,0 17.63,-7.9 17.63,-17.65 v -402.76 c 0,-9.73 -7.88,-17.64 -17.63,-17.64" /><path
         id="path132"
         style="fill:#ffffff;fill-opacity:1;fill-rule:nonzero;stroke:none"
         d="m 4423.27,6961.4 c -9.77,0 -17.65,7.89 -17.65,17.66 v 157 c 0,9.76 7.88,17.65 17.65,17.65 9.75,0 17.63,-7.89 17.63,-17.65 v -157 c 0,-9.77 -7.88,-17.66 -17.63,-17.66" /><path
         id="path134"
         style="fill:#80d5e7;fill-opacity:1;fill-rule:nonzero;stroke:none"
         d="m 4423.04,5460.86 v -83.34 c 0,-27.49 -22.48,-49.98 -49.98,-49.98 h -194.97 c -27.51,0 -49.98,22.49 -49.98,49.98 v 83.34 h 294.93" /><path
         id="path136"
         style="fill:#211c1d;fill-opacity:1;fill-rule:nonzero;stroke:none"
         d="m 4560,5844.33 v -142.27 h -190.86 l -39.54,-72.26 h -104.02 l -39.55,72.26 h -194.88 v 142.27 H 4560" /><path
         id="path138"
         style="fill:#211c1d;fill-opacity:1;fill-rule:nonzero;stroke:none"
         d="M 4383.13,5678.53 H 4560 v -99.45 c 0,-64.72 -43.42,-117.68 -96.49,-117.68 h -375.98 c -52.95,0 -96.38,52.96 -96.38,117.68 v 99.45 h 180.99 l 39.42,-72.26 h 132.05 l 39.52,72.26" /><path
         id="path140"
         style="fill:#6fcae3;fill-opacity:1;fill-rule:nonzero;stroke:none"
         d="m 4128.11,5416.48 h 294.93 v 17.6484 h -294.93 z" /><path
         id="path142"
         style="fill:#beeaf1;fill-opacity:1;fill-rule:nonzero;stroke:none"
         d="m 4423.04,5374.56 h -0.09 c 0.06,0.98 0.09,1.97 0.09,2.96 v 14.68 -17.64 m -294.85,0 h -0.08 v 2.96 c 0,-0.99 0.02,-1.98 0.08,-2.96" /><path
         id="path144"
         style="fill:#64c5e1;fill-opacity:1;fill-rule:nonzero;stroke:none"
         d="m 4422.95,5374.56 h -294.76 c -0.06,0.98 -0.08,1.97 -0.08,2.96 v 14.68 h 294.93 v -14.68 c 0,-0.99 -0.03,-1.98 -0.09,-2.96" /><path
         id="path146"
         style="fill:#211c1d;fill-opacity:1;fill-rule:nonzero;stroke:none"
         d="m 4218.57,5327.53 7.52,-23.53 c 1.86,-6.13 7.88,-11.07 13.31,-11.07 h 72.35 c 5.41,0 11.45,4.94 13.31,11.07 l 7.51,23.53 h -114" /><path
         id="path148"
         style="fill:#80d5e7;fill-opacity:1;fill-rule:nonzero;stroke:none"
         d="m 3351.41,6085.27 h -0.02 c 66.14,93.66 105.12,207.84 105.12,331.21 0,317.57 -257.42,574.98 -574.97,574.98 -317.57,0 -574.99,-257.41 -574.99,-574.98 0,-123.37 38.99,-237.55 105.12,-331.21 h -0.02 l 0.65,-0.88 c 5.62,-7.93 11.43,-15.7 17.44,-23.32 205.74,-277.43 255.22,-433.19 255.22,-433.19 h 196.58 196.58 c 0,0 49.46,155.76 255.23,433.19 5.98,7.62 11.79,15.39 17.41,23.32 l 0.65,0.88" /><path
         id="path150"
         style="fill:#d2f0f6;fill-opacity:1;fill-rule:nonzero;stroke:none"
         d="m 2793.44,5590.01 c -5.84,0 -10.9,4.3 -11.77,10.22 l -4.05,27.65 h 24.13 l 3.54,-24.18 c 0.96,-6.53 -3.55,-12.6 -10.07,-13.55 -0.6,-0.09 -1.2,-0.14 -1.78,-0.14 m 175.84,0.02 -1.74,0.12 c -6.53,0.95 -11.05,7.02 -10.1,13.55 l 3.54,24.18 h 24.14 l -4.05,-27.65 c -0.88,-5.92 -5.97,-10.2 -11.79,-10.2" /><path
         id="path152"
         style="fill:#63bfde;fill-opacity:1;fill-rule:nonzero;stroke:none"
         d="m 2985.12,5627.88 h -24.14 l 51.57,352.22 c -3.33,-4.96 -6.69,-11.47 -10.54,-19.23 -9.61,-19.39 -21.62,-43.51 -47.35,-43.51 -25.73,0 -37.71,24.12 -47.35,43.51 -9.34,18.83 -15.76,30.26 -25.94,30.26 -10.19,0 -16.63,-11.43 -25.97,-30.27 -9.63,-19.38 -21.62,-43.5 -47.34,-43.5 -25.72,0 -37.71,24.12 -47.34,43.51 -3.84,7.76 -7.2,14.26 -10.53,19.21 l 51.56,-352.2 h -24.13 l -54.67,373.45 c -0.5,3.45 0.51,6.92 2.77,9.54 2.28,2.62 5.57,4.14 9.05,4.14 25.72,0 37.7,-24.13 47.34,-43.52 9.34,-18.81 15.76,-30.25 25.95,-30.25 10.18,0 16.6,11.44 25.95,30.25 9.63,19.39 21.63,43.52 47.36,43.52 25.72,0 37.71,-24.13 47.33,-43.51 9.36,-18.82 15.78,-30.26 25.96,-30.26 10.2,0 16.61,11.44 25.97,30.25 9.63,19.39 21.63,43.52 47.35,43.52 3.47,0 6.76,-1.52 9.03,-4.14 2.27,-2.62 3.29,-6.09 2.78,-9.54 l -54.67,-373.45" /><path
         id="path154"
         style="fill:#ffffff;fill-opacity:1;fill-rule:nonzero;stroke:none"
         d="m 3361.54,6316.05 v 0 c -8.92,0 -16.15,7.23 -16.15,16.15 0,33.81 -2.01,66.84 -6.01,98.22 -1.12,8.85 5.13,16.93 13.98,18.05 8.86,1.12 16.93,-5.13 18.06,-13.97 4.17,-32.73 6.28,-67.14 6.28,-102.31 -0.01,-8.91 -7.24,-16.14 -16.16,-16.14" /><path
         id="path156"
         style="fill:#ffffff;fill-opacity:1;fill-rule:nonzero;stroke:none"
         d="m 3313.09,6577.96 c -6.33,0 -12.31,3.73 -14.91,9.91 -92.72,220.87 -292.42,275.37 -294.43,275.9 -8.63,2.25 -13.79,11.08 -11.54,19.71 2.26,8.63 11.07,13.83 19.72,11.54 8.82,-2.31 217.22,-59.22 316.03,-294.64 3.45,-8.23 -0.41,-17.7 -8.63,-21.15 -2.05,-0.87 -4.17,-1.27 -6.24,-1.27" /><path
         id="path158"
         style="fill:#211c1d;fill-opacity:1;fill-rule:nonzero;stroke:none"
         d="m 2705.96,5352.01 371.16,55.09 c -4.22,-45.12 -32.19,-80.31 -65.87,-80.31 h -259.77 c -17.58,0 -33.53,9.55 -45.52,25.22" /><path
         id="path160"
         style="fill:#211c1d;fill-opacity:1;fill-rule:nonzero;stroke:none"
         d="m 3077.8,5627.88 v -34.51 l -392.84,-58.35 v 92.86 h 392.84" /><path
         id="path162"
         style="fill:#211c1d;fill-opacity:1;fill-rule:nonzero;stroke:none"
         d="m 2684.96,5511.01 392.84,58.23 v -30.01 l -392.84,-58.2 v 29.98" /><path
         id="path164"
         style="fill:#211c1d;fill-opacity:1;fill-rule:nonzero;stroke:none"
         d="m 2684.96,5456.88 392.84,58.36 v -29.86 l -392.84,-58.36 v 29.86" /><path
         id="path166"
         style="fill:#211c1d;fill-opacity:1;fill-rule:nonzero;stroke:none"
         d="m 2686.05,5403.14 391.75,57.96 v -29.86 l -384.26,-56.99 c -3.68,8.87 -6.27,18.54 -7.49,28.89" /><path
         id="path168"
         style="fill:#80d5e7;fill-opacity:1;fill-rule:nonzero;stroke:none"
         d="m 2815.34,5326.79 8.68,-27.27 c 2.18,-7.09 9.14,-12.82 15.43,-12.82 h 83.85 c 6.28,0 13.25,5.73 15.42,12.82 l 8.68,27.27 h -132.06" /><path
         id="path170"
         style="fill:#80d5e7;fill-opacity:1;fill-rule:nonzero;stroke:none"
         d="m 6838.52,5454.63 v -83.34 c 0,-27.49 -22.47,-49.99 -49.99,-49.99 h -194.95 c -27.49,0 -50,22.5 -50,49.99 v 83.34 h 294.94" /><path
         id="path172"
         style="fill:#211c1d;fill-opacity:1;fill-rule:nonzero;stroke:none"
         d="m 7005.82,5837.67 c 0,0 0,-58.6 0,-105.91 h -199.36 l -12.84,-39.3 h -38.95 l -19.77,39.3 h -87.65 l -19.77,-39.3 h -38.95 l -12.87,39.3 h -198.02 c 0,47.31 0,105.91 0,105.91 h 628.18" /><path
         id="path174"
         style="fill:#211c1d;fill-opacity:1;fill-rule:nonzero;stroke:none"
         d="m 6823.52,5708.23 h 182.3 v -8.94 c 0,-74.03 -60.87,-60.73 -81.34,-83.55 -26.14,-29.07 0,-161.11 -70.03,-161.11 h -325.48 c -70.03,0 -43.89,132.04 -70.03,161.11 -20.47,22.82 -81.3,9.52 -81.3,83.55 v 8.94 h 180.99 l 12.7,-39.3 h 70.6 l 19.77,39.3 h 58.74 l 19.76,-39.3 h 70.6 l 12.72,39.3" /><path
         id="path176"
         style="fill:#64c5e1;fill-opacity:1;fill-rule:nonzero;stroke:none"
         d="m 6543.58,5410.26 h 294.941 v 17.6602 H 6543.58 Z" /><path
         id="path178"
         style="fill:#beeaf1;fill-opacity:1;fill-rule:nonzero;stroke:none"
         d="m 6838.52,5368.35 h -0.09 c 0.06,0.97 0.09,1.95 0.09,2.94 v 14.71 -17.65 m -294.85,0 h -0.09 v 2.94 c 0,-0.99 0.03,-1.97 0.09,-2.94" /><path
         id="path180"
         style="fill:#64c5e1;fill-opacity:1;fill-rule:nonzero;stroke:none"
         d="m 6838.43,5368.35 h -294.76 c -0.06,0.97 -0.09,1.95 -0.09,2.94 V 5386 h 294.94 v -14.71 c 0,-0.99 -0.03,-1.97 -0.09,-2.94" /><path
         id="path182"
         style="fill:#211c1d;fill-opacity:1;fill-rule:nonzero;stroke:none"
         d="m 6634.75,5321.3 7.47,-23.54 c 1.9,-6.11 7.88,-11.06 13.31,-11.06 h 72.37 c 5.41,0 11.46,4.95 13.31,11.06 l 7.48,23.54 h -113.94" /><path
         id="path184"
         style="fill:#80d5e7;fill-opacity:1;fill-rule:nonzero;stroke:none"
         d="m 6954.49,6813.33 v -975.66 h -117.67 v 975.66 c 0,25.3 -10.95,41.42 -32.47,48.13 -19.66,6.12 -47.81,2.23 -60.98,-16.94 l -96.95,66.6 c 33.65,48.96 93.33,75.2 153.93,70.25 12.91,-1.06 26.11,-3.53 38.93,-7.53 70.97,-22.13 115.21,-83.56 115.21,-160.51" /><path
         id="path186"
         style="fill:#65c8ec;fill-opacity:1;fill-rule:nonzero;stroke:none"
         d="m 6743.37,6844.52 -96.95,66.6 c 30.95,45.03 83.91,70.84 139.37,70.84 4.84,0 9.7,-0.2 14.56,-0.59 l 0.11,-0.11 c 0,0 -52.15,-63.44 3.89,-119.8 -5.59,1.74 -11.87,2.67 -18.29,2.67 -16.17,0 -33.26,-5.89 -42.69,-19.61" /><path
         id="path188"
         style="fill:#80d5e7;fill-opacity:1;fill-rule:nonzero;stroke:none"
         d="m 6764.67,5837.67 h -117.7 v 975.7 c 0,47.14 -38.86,50.8 -50.79,50.8 -11.9,0 -50.79,-3.66 -50.79,-50.8 v -975.7 h -117.68 v 975.7 c 0,109.44 86.8,168.48 168.47,168.48 81.67,0 168.49,-59.04 168.49,-168.48 v -975.7" /><path
         id="path190"
         style="fill:#ffffff;fill-opacity:1;fill-rule:nonzero;stroke:none"
         d="m 6915.31,6218.59 c -6.52,0 -11.76,5.27 -11.76,11.77 v 287.32 c 0,6.5 5.24,11.77 11.76,11.77 6.5,0 11.78,-5.27 11.78,-11.77 v -287.32 c 0,-6.5 -5.28,-11.77 -11.78,-11.77" /><path
         id="path192"
         style="fill:#ffffff;fill-opacity:1;fill-rule:nonzero;stroke:none"
         d="m 6915.31,6591.23 c -6.52,0 -11.76,5.26 -11.76,11.76 v 95.13 c 0,6.5 5.24,11.77 11.76,11.77 6.5,0 11.78,-5.27 11.78,-11.77 v -95.13 c 0,-6.5 -5.28,-11.76 -11.78,-11.76" /><path
         id="path194"
         style="fill:#ffffff;fill-opacity:1;fill-rule:nonzero;stroke:none"
         d="m 6725.37,6218.59 c -6.49,0 -11.78,5.27 -11.78,11.77 v 287.32 c 0,6.5 5.29,11.77 11.78,11.77 6.51,0 11.77,-5.27 11.77,-11.77 v -287.32 c 0,-6.5 -5.26,-11.77 -11.77,-11.77" /><path
         id="path196"
         style="fill:#ffffff;fill-opacity:1;fill-rule:nonzero;stroke:none"
         d="m 6725.37,6591.23 c -6.49,0 -11.78,5.26 -11.78,11.76 v 95.13 c 0,6.5 5.29,11.77 11.78,11.77 6.51,0 11.77,-5.27 11.77,-11.77 v -95.13 c 0,-6.5 -5.26,-11.76 -11.77,-11.76" /><path
         id="path198"
         style="fill:#80d5e7;fill-opacity:1;fill-rule:nonzero;stroke:none"
         d="m 5776.74,5984.03 c 2.58,-71.55 -16.35,-142.39 -51.9,-204.41 -25.89,-45.18 -59.56,-86.84 -99.44,-120.38 -17.76,-15.07 -36.7,-28.59 -56.95,-40.01 l -230.65,-34.24 c -30.47,7.18 -59.9,18.59 -87.19,34.24 -19.18,10.96 -37.43,24.24 -54.48,39.08 -28.51,24.71 -53.9,53.78 -75.09,83.42 -41.06,57.43 -68.25,123.8 -74.98,194.29 -3.62,37.3 0.14,74.25 3.32,111.45 3.18,37.17 7.43,74.24 12.11,111.3 18.83,150.29 51.3,299.62 97.69,443.9 42.12,131.08 94.84,261.34 167.2,378.79 16.13,26.13 32.96,50.13 64.5,57.78 34,8.35 70.01,-6 89.44,-35.08 71.65,-109.2 123.91,-231.7 166.38,-354.78 49.32,-143.1 83.9,-291.02 106.27,-440.7 2.47,-16.59 4.94,-33.19 7.19,-49.91 7.98,-58.01 14.45,-116.49 16.58,-174.74" /><path
         id="path200"
         style="fill:#64c5e1;fill-opacity:1;fill-rule:nonzero;stroke:none"
         d="m 5314.63,5618.16 c -6.34,0 -11.87,4.69 -12.83,11.16 l -64.16,438.32 c -0.55,3.76 0.54,7.56 3.02,10.41 2.48,2.88 6.09,4.52 9.88,4.52 28.1,0 41.22,-26.35 51.72,-47.55 10.24,-20.55 17.25,-33.05 28.39,-33.05 11.13,0 18.15,12.5 28.35,33.05 10.51,21.2 23.61,47.55 51.74,47.55 28.1,0 41.22,-26.35 51.74,-47.53 10.22,-20.57 17.24,-33.07 28.36,-33.07 11.15,0 18.15,12.5 28.38,33.05 10.51,21.2 23.61,47.55 51.76,47.55 3.77,0 7.36,-1.64 9.85,-4.52 2.49,-2.85 3.59,-6.65 3.03,-10.41 l -64.17,-438.32 c -0.94,-6.48 -6.53,-11.15 -12.88,-11.15 l -1.91,0.14 c -7.11,1.03 -12.04,7.67 -11.02,14.8 l 60.21,411.32 c -3.61,-5.42 -7.28,-12.54 -11.51,-21.01 -10.52,-21.18 -23.62,-47.55 -51.74,-47.55 -28.11,0 -41.19,26.37 -51.72,47.56 -10.23,20.57 -17.25,33.05 -28.38,33.05 -11.14,0 -18.14,-12.48 -28.37,-33.07 -10.52,-21.17 -23.64,-47.54 -51.72,-47.54 -28.13,0 -41.22,26.37 -51.74,47.55 -4.22,8.47 -7.88,15.58 -11.5,20.99 l 60.22,-411.3 c 1.03,-7.13 -3.91,-13.77 -11.05,-14.8 -0.65,-0.1 -1.31,-0.15 -1.95,-0.15" /><path
         id="path202"
         style="fill:#ffffff;fill-opacity:1;fill-rule:nonzero;stroke:none"
         d="m 5674.2,6124.31 c -9.27,0 -17.05,7.22 -17.64,16.59 -7.32,121.77 -29.93,252.04 -67.18,387.21 -2.61,9.39 2.92,19.12 12.32,21.7 9.35,2.6 19.1,-2.92 21.72,-12.32 37.89,-137.53 60.91,-270.24 68.4,-394.45 0.57,-9.75 -6.83,-18.11 -16.54,-18.7 l -1.08,-0.03" /><path
         id="path204"
         style="fill:#ffffff;fill-opacity:1;fill-rule:nonzero;stroke:none"
         d="m 5565.24,6648.65 c -7.33,0 -14.19,4.62 -16.69,11.95 -27.27,79.76 -49.25,129.07 -49.46,129.55 -3.98,8.9 0,19.34 8.89,23.31 8.9,4 19.33,0.02 23.33,-8.88 0.93,-2.06 22.78,-51.12 50.63,-132.55 3.16,-9.24 -1.75,-19.28 -10.98,-22.43 -1.92,-0.63 -3.81,-0.95 -5.72,-0.95" /><path
         id="path206"
         style="fill:#211c1d;fill-opacity:1;fill-rule:nonzero;stroke:none"
         d="m 5219.06,5358.07 405.6,60.2 c -4.58,-49.31 -35.16,-87.76 -71.96,-87.76 h -283.86 c -19.23,0 -36.66,10.44 -49.78,27.56" /><path
         id="path208"
         style="fill:#211c1d;fill-opacity:1;fill-rule:nonzero;stroke:none"
         d="m 5625.4,5659.47 v -37.65 l -56.96,-8.47 -230.65,-34.24 -141.68,-21.06 v 101.42 h 429.29" /><path
         id="path210"
         style="fill:#211c1d;fill-opacity:1;fill-rule:nonzero;stroke:none"
         d="m 5196.13,5531.83 429.28,63.63 v -32.79 l -429.28,-63.62 v 32.78" /><path
         id="path212"
         style="fill:#211c1d;fill-opacity:1;fill-rule:nonzero;stroke:none"
         d="m 5196.13,5472.18 429.28,63.77 v -32.64 l -429.28,-63.78 v 32.65" /><path
         id="path214"
         style="fill:#211c1d;fill-opacity:1;fill-rule:nonzero;stroke:none"
         d="m 5197.29,5413.95 428.12,63.33 v -32.63 l -419.9,-62.28 c -4.03,9.69 -6.86,20.27 -8.22,31.58" /><path
         id="path216"
         style="fill:#80d5e7;fill-opacity:1;fill-rule:nonzero;stroke:none"
         d="m 5338.6,5330.51 9.51,-29.8 c 2.35,-7.75 9.99,-14.01 16.85,-14.01 h 91.62 c 6.86,0 14.48,6.26 16.85,14.01 l 9.48,29.8 H 5338.6" /><path
         id="path218"
         style="fill:#211c1d;fill-opacity:1;fill-rule:nonzero;stroke:none"
         d="m 1125.35,2760.81 405.61,60.21 c -4.61,-49.31 -35.17,-87.79 -71.98,-87.79 h -283.86 c -19.23,0 -36.65,10.45 -49.77,27.58" /><path
         id="path220"
         style="fill:#211c1d;fill-opacity:1;fill-rule:nonzero;stroke:none"
         d="m 1531.69,3062.28 v -37.72 l -429.28,-63.78 v 101.5 h 429.28" /><path
         id="path222"
         style="fill:#211c1d;fill-opacity:1;fill-rule:nonzero;stroke:none"
         d="m 1102.41,2934.54 429.28,63.66 v -32.8 l -429.28,-63.61 v 32.75" /><path
         id="path224"
         style="fill:#211c1d;fill-opacity:1;fill-rule:nonzero;stroke:none"
         d="m 1102.41,2875.42 429.28,63.76 v -32.65 l -429.28,-63.76 v 32.65" /><path
         id="path226"
         style="fill:#211c1d;fill-opacity:1;fill-rule:nonzero;stroke:none"
         d="m 1103.59,2816.68 428.1,63.34 v -32.64 l -419.9,-62.27 c -4.03,9.68 -6.86,20.26 -8.2,31.57" /><path
         id="path228"
         style="fill:#80d5e7;fill-opacity:1;fill-rule:nonzero;stroke:none"
         d="m 1244.89,2733.23 9.49,-29.79 c 2.37,-7.74 9.99,-13.98 16.86,-13.98 h 91.63 c 6.86,0 14.48,6.24 16.84,13.98 l 9.5,29.79 h -144.32" /><path
         id="path230"
         style="fill:#80d5e7;fill-opacity:1;fill-rule:nonzero;stroke:none"
         d="m 1787.89,3481.07 c 0,-182.77 -104.09,-341.21 -256.22,-419.15 v 0.38 H 1102.4 v -0.38 c -152.142,77.94 -256.24,236.38 -256.24,419.15 0,260.07 210.79,470.85 470.87,470.85 260.07,0 470.86,-210.78 470.86,-470.85" /><path
         id="path232"
         style="fill:#beeaf1;fill-opacity:1;fill-rule:nonzero;stroke:none"
         d="m 1416.17,3062.28 h -25.25 c 0,0.01 0.01,0.01 0.01,0.02 h 25.24 c 0,-0.01 0,-0.01 0,-0.02 m -168.84,0 h -25.25 c 0,0.01 0,0.01 0,0.02 h 25.24 c 0.01,-0.01 0.01,-0.01 0.01,-0.02" /><path
         id="path234"
         style="fill:#1a1b1b;fill-opacity:1;fill-rule:nonzero;stroke:none"
         d="m 1405.52,3024.41 -24.14,4.33 c 2.82,9.01 6.12,20.45 9.54,33.54 h 25.25 c -5.52,-21.32 -9.96,-35.67 -10.65,-37.87 m -172.8,0 c -0.68,2.2 -5.13,16.55 -10.64,37.87 h 25.25 c 3.42,-13.09 6.72,-24.53 9.54,-33.54 l -24.15,-4.33" /><path
         id="path236"
         style="fill:#64c5e1;fill-opacity:1;fill-rule:nonzero;stroke:none"
         d="m 1416.17,3062.3 h -25.24 c 18.94,72.39 41.63,195.05 7.46,233.92 -7.7,8.76 -15.46,13.97 -21.79,14.73 4.47,-4.96 7.91,-10.76 10.22,-17.33 8.59,-24.36 -1.07,-53.16 -20.65,-61.65 -4.03,-1.74 -8.28,-2.59 -12.56,-2.59 -7.34,0 -14.75,2.52 -21.16,7.43 -16.18,12.31 -14.29,37.87 -5.23,57.69 2.88,6.36 6.41,11.99 10.42,16.75 -5.07,1.42 -11.07,2.24 -18.18,2.24 -7.37,0 -13.59,-0.86 -18.8,-2.33 3.99,-4.74 7.49,-10.31 10.37,-16.64 9.05,-19.84 10.95,-45.37 -5.2,-57.71 -6.44,-4.91 -13.84,-7.43 -21.18,-7.43 -4.27,0 -8.52,0.85 -12.55,2.59 -19.6,8.49 -29.24,37.29 -20.66,61.65 2.3,6.55 5.75,12.37 10.2,17.33 -6.33,-0.76 -14.08,-5.97 -21.77,-14.73 -34.18,-38.87 -11.48,-161.53 7.45,-233.92 h -25.24 c -16.97,65.67 -44.06,197.44 -2.9,244.29 13.62,15.47 28.41,23.2 43.96,23.2 1.45,0 2.91,-0.07 4.37,-0.2 5.19,-0.5 10.17,-1.87 14.89,-4.05 10.27,4.36 22.54,6.69 36.4,6.69 14.15,0 26.62,-2.33 37.01,-6.75 4.7,2.22 9.71,3.61 14.93,4.1 1.51,0.14 3,0.21 4.49,0.21 15.55,0 30.26,-7.76 43.84,-23.2 41.17,-46.85 14.08,-178.62 -2.9,-244.29 m -134.96,236.88 c -4.89,-5.95 -6.86,-12.65 -7.62,-17.82 -2.74,-18.56 7.18,-32.55 11.21,-33.25 0.19,0.02 1.47,0.44 3.37,1.89 5.94,4.52 7.16,21.43 -0.61,38.42 -1.81,3.98 -3.98,7.63 -6.35,10.76 m 75.85,0.04 c -2.37,-3.14 -4.55,-6.8 -6.38,-10.8 -7.75,-16.99 -6.54,-33.92 -0.61,-38.42 1.9,-1.45 3.18,-1.87 3.47,-1.88 3.95,0.69 13.85,14.68 11.12,33.21 -0.76,5.2 -2.73,11.93 -7.6,17.89" /><path
         id="path238"
         style="fill:#ffffff;fill-opacity:1;fill-rule:nonzero;stroke:none"
         d="m 1719.15,3381.03 -1.37,0.04 c -7.72,0.77 -13.4,7.63 -12.65,15.35 11.62,120.61 -11.28,223.57 -68.07,305.99 -4.4,6.4 -2.79,15.17 3.59,19.57 6.41,4.4 15.16,2.77 19.56,-3.59 60.64,-88.07 85.18,-197.28 72.91,-324.68 -0.71,-7.25 -6.83,-12.68 -13.97,-12.68" /><path
         id="path240"
         style="fill:#ffffff;fill-opacity:1;fill-rule:nonzero;stroke:none"
         d="m 1555.34,3792.41 c -2.92,0 -5.86,0.9 -8.37,2.79 -62.16,46.12 -118.98,61.59 -119.54,61.74 -7.5,2.01 -11.97,9.69 -9.97,17.19 2,7.51 9.69,11.98 17.2,9.98 2.52,-0.68 62.63,-17.05 129.05,-66.36 6.24,-4.63 7.54,-13.42 2.91,-19.68 -2.75,-3.7 -6.99,-5.66 -11.28,-5.66" /><path
         id="path242"
         style="fill:#80d5e7;fill-opacity:1;fill-rule:nonzero;stroke:none"
         d="m 2954.69,4564.84 -0.09,0.03 -0.82,0.31 c -31.38,10.28 -42.6,47.75 -42.6,47.75 l -9.5,65.38 c -1.27,8.67 -8.08,15.88 -17.22,17.21 -11.12,1.62 -21.45,-6.08 -23.06,-17.21 l -9.6,-66.05 c -1.58,-4.79 -12.96,-36.39 -40.84,-46.5 -81.84,-29.06 -140.49,-107.16 -140.49,-198.93 V 3082.4 h 422.13 v 1284.43 c 0,90.81 -57.4,168.24 -137.91,198.01" /><path
         id="path244"
         style="fill:#beeaf1;fill-opacity:1;fill-rule:nonzero;stroke:none"
         d="m 2960.82,3067.28 -21.64,5.12 c 0.74,3.1 1.5,6.44 2.3,10 h 22.74 c -1.83,-8.42 -3.08,-13.76 -3.4,-15.12 m -154.7,0 c -0.32,1.36 -1.57,6.7 -3.4,15.12 h 22.73 c 0.79,-3.56 1.56,-6.9 2.29,-10 l -21.62,-5.12" /><path
         id="path246"
         style="fill:#64c5e1;fill-opacity:1;fill-rule:nonzero;stroke:none"
         d="m 2964.22,3082.4 h -22.74 c 17.14,76.63 47.46,255.18 12.93,307.2 -6.88,10.39 -13.84,16.56 -19.51,17.48 4,-5.93 7.1,-12.78 9.16,-20.56 7.68,-28.9 -0.95,-63.06 -18.5,-73.09 -3.6,-2.08 -7.42,-3.1 -11.25,-3.1 -6.56,0 -13.18,2.99 -18.93,8.8 -14.48,14.64 -12.78,44.93 -4.68,68.46 2.61,7.54 5.74,14.16 9.33,19.81 -4.56,1.68 -10.44,2.51 -16.32,2.51 -6.06,0 -12.12,-0.87 -16.77,-2.59 3.56,-5.62 6.69,-12.23 9.27,-19.71 8.12,-23.53 9.82,-53.84 -4.66,-68.48 -5.75,-5.81 -12.37,-8.8 -18.93,-8.8 -3.84,0 -7.65,1.02 -11.26,3.08 -17.53,10.05 -26.19,44.21 -18.49,73.11 2.07,7.78 5.15,14.63 9.15,20.56 -5.68,-0.94 -12.62,-7.11 -19.49,-17.48 -34.54,-52.02 -4.23,-230.57 12.92,-307.2 h -22.73 c -12.37,57.02 -51.26,255.38 -8.72,319.49 12.15,18.29 25.36,27.55 39.23,27.55 1.34,0 2.69,-0.09 4.04,-0.26 4.63,-0.6 9.11,-2.24 13.32,-4.83 9.18,5.18 20.17,7.93 32.57,7.93 12.67,0 23.82,-2.78 33.12,-7.99 4.23,2.63 8.72,4.29 13.39,4.89 1.34,0.17 2.67,0.25 3.99,0.25 13.91,0 27.11,-9.23 39.28,-27.54 42.53,-64.11 3.64,-262.47 -8.72,-319.49 m -46.8,310.73 c -2.13,-3.71 -4.06,-8.03 -5.69,-12.77 -6.96,-20.17 -5.88,-40.23 -0.56,-45.58 1.69,-1.73 2.84,-2.19 3.11,-2.23 3.51,0.81 12.39,17.4 9.95,39.39 -0.68,6.16 -2.45,14.15 -6.81,21.19 m -67.88,-0.03 c -4.39,-7.05 -6.16,-15 -6.83,-21.13 -2.45,-22.02 6.42,-38.59 10.03,-39.42 0.18,0.04 1.31,0.5 3.02,2.23 5.32,5.35 6.4,25.42 -0.57,45.58 -1.61,4.73 -3.55,9.04 -5.65,12.74" /><path
         id="path248"
         style="fill:#ffffff;fill-opacity:1;fill-rule:nonzero;stroke:none"
         d="m 3020.96,3553.01 c -9.21,0 -16.65,7.46 -16.65,16.64 v 380.21 c 0,9.21 7.44,16.68 16.65,16.68 9.21,0 16.67,-7.47 16.67,-16.68 v -380.21 c 0,-9.18 -7.46,-16.64 -16.67,-16.64" /><path
         id="path250"
         style="fill:#ffffff;fill-opacity:1;fill-rule:nonzero;stroke:none"
         d="m 3020.96,4136.91 c -9.21,0 -16.65,7.44 -16.65,16.68 v 148.2 c 0,9.23 7.44,16.67 16.65,16.67 9.21,0 16.67,-7.44 16.67,-16.67 v -148.2 c 0,-9.24 -7.46,-16.68 -16.67,-16.68" /><path
         id="path252"
         style="fill:#211c1d;fill-opacity:1;fill-rule:nonzero;stroke:none"
         d="m 2698.6,2756.82 382.9,56.83 c -4.35,-46.54 -33.2,-82.88 -67.95,-82.88 h -267.97 c -18.14,0 -34.6,9.9 -46.98,26.05" /><path
         id="path254"
         style="fill:#211c1d;fill-opacity:1;fill-rule:nonzero;stroke:none"
         d="m 3134.7,3082.4 v -34.67 c 0,-9.72 -7.96,-17.68 -17.69,-17.68 h -18.3 c 0,0 -16.55,-1.5 -16.55,-15.47 v -8.76 l -405.23,-60.23 v 70.22 c -0.97,12.83 -16.44,14.24 -16.44,14.24 h -14.43 c -9.72,0 -17.69,7.96 -17.69,17.68 v 34.67 h 506.33" /><path
         id="path256"
         style="fill:#211c1d;fill-opacity:1;fill-rule:nonzero;stroke:none"
         d="m 2676.93,2920.83 405.27,60.11 v -30.98 l -405.27,-60.07 v 30.94" /><path
         id="path258"
         style="fill:#211c1d;fill-opacity:1;fill-rule:nonzero;stroke:none"
         d="m 2676.93,2864.99 405.27,60.21 v -30.82 l -405.27,-60.19 v 30.8" /><path
         id="path260"
         style="fill:#211c1d;fill-opacity:1;fill-rule:nonzero;stroke:none"
         d="m 2678.06,2809.55 404.14,59.82 v -30.83 l -396.41,-58.77 c -3.79,9.14 -6.47,19.12 -7.73,29.78" /><path
         id="path262"
         style="fill:#80d5e7;fill-opacity:1;fill-rule:nonzero;stroke:none"
         d="m 2811.44,2730.77 8.97,-28.1 c 2.23,-7.3 9.42,-13.21 15.91,-13.21 h 86.49 c 6.49,0 13.68,5.91 15.9,13.21 l 8.97,28.1 h -136.24" /><path
         id="path264"
         style="fill:#80d5e7;fill-opacity:1;fill-rule:nonzero;stroke:none"
         d="m 4523.54,4103.86 v -918.85 h -76.49 v 918.85 c 0,118.43 -86.08,171.43 -171.53,171.43 -85.32,0 -171.42,-53 -171.42,-171.43 v -918.85 h -76.48 v 918.85 c 0,162.78 124.77,247.89 247.9,247.89 123.24,0 248.02,-85.11 248.02,-247.89" /><path
         id="path266"
         style="fill:#80d5e7;fill-opacity:1;fill-rule:nonzero;stroke:none"
         d="m 4401.6,4078.73 v -893.72 h -76.47 v 893.72 c 0,45.22 -26.66,61.29 -49.61,61.29 -22.81,0 -49.49,-16.07 -49.49,-61.29 v -893.72 h -76.48 v 893.72 c 0,90.45 63.37,137.76 125.97,137.76 62.71,0 126.08,-47.31 126.08,-137.76" /><path
         id="path268"
         style="fill:#ffffff;fill-opacity:1;fill-rule:nonzero;stroke:none"
         d="m 4496.32,3547.76 c -4.51,0 -8.19,3.67 -8.19,8.22 v 329.58 c 0,4.53 3.68,8.2 8.19,8.2 4.53,0 8.21,-3.67 8.21,-8.2 v -329.58 c 0,-4.55 -3.68,-8.22 -8.21,-8.22" /><path
         id="path270"
         style="fill:#ffffff;fill-opacity:1;fill-rule:nonzero;stroke:none"
         d="m 4496.32,3975.68 c -4.51,0 -8.19,3.69 -8.19,8.2 v 91.05 c 0,4.52 3.68,8.2 8.19,8.2 4.53,0 8.21,-3.68 8.21,-8.2 v -91.05 c 0,-4.51 -3.68,-8.2 -8.21,-8.2" /><path
         id="path272"
         style="fill:#ffffff;fill-opacity:1;fill-rule:nonzero;stroke:none"
         d="m 4374.79,3430.78 c -4.53,0 -8.2,3.67 -8.2,8.19 v 166.63 c 0,4.5 3.67,8.18 8.2,8.18 4.52,0 8.19,-3.68 8.19,-8.18 v -166.63 c 0,-4.52 -3.67,-8.19 -8.19,-8.19" /><path
         id="path274"
         style="fill:#ffffff;fill-opacity:1;fill-rule:nonzero;stroke:none"
         d="m 4374.79,3675.22 c -4.53,0 -8.2,3.69 -8.2,8.22 v 37.77 c 0,4.52 3.67,8.2 8.2,8.2 4.52,0 8.19,-3.68 8.19,-8.2 v -37.77 c 0,-4.53 -3.67,-8.22 -8.19,-8.22" /><path
         id="path276"
         style="fill:#80d5e7;fill-opacity:1;fill-rule:nonzero;stroke:none"
         d="m 4407.68,2840.51 v -74.97 c 0,-24.73 -20.24,-44.98 -44.97,-44.98 h -175.39 c -24.71,0 -44.95,20.25 -44.95,44.98 v 74.97 h 265.31" /><path
         id="path278"
         style="fill:#211c1d;fill-opacity:1;fill-rule:nonzero;stroke:none"
         d="m 4558.07,3185.01 c 0,0 0,-30.6 0,-64.04 h -565 c 0,33.44 0,64.04 0,64.04 h 565" /><path
         id="path280"
         style="fill:#211c1d;fill-opacity:1;fill-rule:nonzero;stroke:none"
         d="m 3993.07,3099.82 h 565 v -39.28 c 0,-66.58 -54.73,-54.63 -73.14,-75.16 -23.49,-26.15 0,-144.87 -62.99,-144.87 h -292.65 c -62.97,0 -39.48,118.72 -62.97,144.87 -18.51,20.53 -73.25,8.58 -73.25,75.16 v 39.28" /><path
         id="path282"
         style="fill:#64c5e1;fill-opacity:1;fill-rule:nonzero;stroke:none"
         d="m 4142.37,2800.58 h 265.309 v 15.8672 H 4142.37 Z" /><path
         id="path284"
         style="fill:#beeaf1;fill-opacity:1;fill-rule:nonzero;stroke:none"
         d="m 4407.68,2762.87 h -0.08 c 0.05,0.88 0.08,1.77 0.08,2.67 v 13.21 -15.88 m -265.23,0 h -0.08 v 2.67 c 0,-0.9 0.03,-1.79 0.08,-2.67" /><path
         id="path286"
         style="fill:#64c5e1;fill-opacity:1;fill-rule:nonzero;stroke:none"
         d="m 4407.6,2762.87 h -265.15 c -0.05,0.88 -0.08,1.77 -0.08,2.67 v 13.21 h 265.31 v -13.21 c 0,-0.9 -0.03,-1.79 -0.08,-2.67" /><path
         id="path288"
         style="fill:#211c1d;fill-opacity:1;fill-rule:nonzero;stroke:none"
         d="m 4224.37,2720.56 6.71,-21.16 c 1.67,-5.51 7.1,-9.94 11.98,-9.94 h 65.08 c 4.87,0 10.29,4.43 11.96,9.94 l 6.76,21.16 h -102.49" /><path
         id="path290"
         style="fill:#80d5e7;fill-opacity:1;fill-rule:nonzero;stroke:none"
         d="m 7254.84,3852.3 v -0.11 c 0,-2.22 -0.33,-49.53 -31.56,-106.78 h -0.11 c -19.38,-35.58 -50.73,-75.01 -101.23,-109.68 -33.02,-22.59 -62.16,-50.94 -87.98,-83.19 -2,-2.34 -3.86,-4.78 -5.76,-7.21 -162.93,-210.58 -188.76,-573.58 -188.76,-573.58 h -295.42 c 0,0 -25.72,361.57 -187.88,572.27 -2.32,2.98 -4.55,5.98 -6.98,8.85 -25.7,32.15 -54.73,60.38 -87.63,82.86 -50.62,34.67 -81.97,74.1 -101.35,109.68 -31.24,57.25 -31.58,104.56 -31.58,106.78 v 0.11 c 0,177.45 252.12,321.35 563.08,321.35 311.03,0 563.16,-143.9 563.16,-321.35" /><path
         id="path292"
         style="fill:#beeaf1;fill-opacity:1;fill-rule:nonzero;stroke:none"
         d="m 6635.69,2948.86 c -3.72,0 -6.96,2.73 -7.51,6.51 l -2.4,16.38 h 15.39 l 2.07,-14.16 c 0.62,-4.15 -2.26,-8.04 -6.42,-8.65 -0.38,-0.05 -0.76,-0.08 -1.13,-0.08 m 112.05,0.01 -1.11,0.07 c -4.16,0.61 -7.04,4.5 -6.43,8.65 l 2.08,14.16 h 15.37 l -2.4,-16.38 c -0.55,-3.77 -3.79,-6.5 -7.51,-6.5" /><path
         id="path294"
         style="fill:#64c5e1;fill-opacity:1;fill-rule:nonzero;stroke:none"
         d="m 6757.65,2971.75 h -15.37 l 33.03,225.69 c -2.11,-3.14 -4.25,-7.31 -6.72,-12.25 -6.13,-12.35 -13.78,-27.73 -30.15,-27.73 -16.41,0 -24.04,15.38 -30.19,27.75 -5.94,11.99 -10.06,19.24 -16.53,19.24 -6.49,0 -10.6,-7.25 -16.56,-19.26 -6.15,-12.35 -13.76,-27.73 -30.15,-27.73 -16.4,0 -24.02,15.38 -30.17,27.73 -2.46,4.94 -4.59,9.09 -6.71,12.25 l 33.04,-225.69 h -15.39 l -35.02,239.24 c -0.32,2.17 0.34,4.38 1.79,6.05 1.42,1.68 3.52,2.64 5.74,2.64 16.42,0 24.03,-15.35 30.18,-27.73 5.94,-11.99 10.04,-19.26 16.54,-19.26 6.48,0 10.59,7.27 16.53,19.26 6.15,12.38 13.77,27.73 30.18,27.73 16.39,0 24.03,-15.35 30.17,-27.73 5.96,-11.99 10.05,-19.26 16.55,-19.26 6.49,0 10.58,7.27 16.54,19.26 6.12,12.38 13.78,27.73 30.17,27.73 2.21,0 4.3,-0.96 5.75,-2.64 1.45,-1.67 2.1,-3.88 1.78,-6.05 l -35.03,-239.24" /><path
         id="path296"
         style="fill:#ffffff;fill-opacity:1;fill-rule:nonzero;stroke:none"
         d="m 7142.19,3921.63 c -4.15,0 -8.32,1.58 -11.57,4.69 -52.18,50.56 -119.03,88.95 -198.67,114.14 -8.77,2.75 -13.6,12.09 -10.85,20.82 2.78,8.75 12.1,13.58 20.86,10.86 84.61,-26.73 155.86,-67.76 211.8,-121.94 6.59,-6.38 6.73,-16.91 0.36,-23.49 -3.25,-3.37 -7.59,-5.08 -11.93,-5.08" /><path
         id="path298"
         style="fill:#ffffff;fill-opacity:1;fill-rule:nonzero;stroke:none"
         d="m 6806.99,4067.5 -2.05,0.13 c -68.77,8.47 -118,5.04 -118.47,4.99 -9.09,-0.69 -17.11,6.19 -17.78,15.34 -0.69,9.15 6.17,17.13 15.31,17.82 2.13,0.14 52.82,3.73 125.01,-5.17 9.12,-1.1 15.58,-9.4 14.46,-18.53 -1.03,-8.41 -8.21,-14.58 -16.48,-14.58" /><path
         id="path300"
         style="fill:#64c5e1;fill-opacity:1;fill-rule:nonzero;stroke:none"
         d="m 6691,3495.67 c -92.6,0 -194.83,16.63 -341.84,57.2 v 0 c -25.7,32.15 -54.73,60.38 -87.63,82.86 -50.62,34.67 -81.97,74.1 -101.35,109.68 0,0 210.27,-123.75 508.44,-123.75 298.2,0 554.55,123.75 554.55,123.75 -19.38,-35.58 -50.73,-75.01 -101.23,-109.68 -33.02,-22.59 -62.16,-50.94 -87.98,-83.19 v 0 c -138.91,-33.98 -234.31,-56.87 -342.96,-56.87" /><path
         id="path302"
         style="fill:#80d5e7;fill-opacity:1;fill-rule:nonzero;stroke:none"
         d="m 6768.65,2773.46 v -43.49 c 0,-14.35 -11.72,-26.08 -26.07,-26.08 h -101.72 c -14.36,0 -26.08,11.73 -26.08,26.08 v 43.49 h 153.87" /><path
         id="path304"
         style="fill:#211c1d;fill-opacity:1;fill-rule:nonzero;stroke:none"
         d="m 6840.13,2973.52 v -74.19 h -99.6 l -20.63,-37.74 h -54.26 l -20.63,37.74 h -101.68 v 74.19 h 296.8" /><path
         id="path306"
         style="fill:#211c1d;fill-opacity:1;fill-rule:nonzero;stroke:none"
         d="m 6747.84,2887.04 h 92.29 v -51.91 c 0,-33.74 -22.66,-61.41 -50.35,-61.41 h -196.17 c -27.64,0 -50.28,27.67 -50.28,61.41 v 51.91 h 94.42 l 20.58,-37.71 h 68.88 l 20.63,37.71" /><path
         id="path308"
         style="fill:#6fcae3;fill-opacity:1;fill-rule:nonzero;stroke:none"
         d="m 6614.78,2750.29 h 153.867 v 9.2109 H 6614.78 Z" /><path
         id="path310"
         style="fill:#beeaf1;fill-opacity:1;fill-rule:nonzero;stroke:none"
         d="m 6768.65,2728.42 h -0.04 c 0.03,0.51 0.04,1.03 0.04,1.55 v 7.67 -9.22 m -153.82,0 h -0.05 v 1.55 c 0,-0.52 0.02,-1.04 0.05,-1.55" /><path
         id="path312"
         style="fill:#64c5e1;fill-opacity:1;fill-rule:nonzero;stroke:none"
         d="m 6768.61,2728.42 h -153.78 c -0.03,0.51 -0.05,1.03 -0.05,1.55 v 7.67 h 153.87 v -7.67 c 0,-0.52 -0.01,-1.04 -0.04,-1.55" /><path
         id="path314"
         style="fill:#211c1d;fill-opacity:1;fill-rule:nonzero;stroke:none"
         d="m 6661.98,2703.89 3.93,-12.28 c 0.98,-3.18 4.11,-5.78 6.92,-5.78 h 37.78 c 2.79,0 5.95,2.6 6.93,5.78 l 3.92,12.28 h -59.48" /><path
         id="path316"
         style="fill:#211c1d;fill-opacity:1;fill-rule:nonzero;stroke:none"
         d="m 5225.41,2798.25 388.01,57.61 c -4.41,-47.18 -33.64,-83.98 -68.85,-83.98 h -271.54 c -18.39,0 -35.07,10.02 -47.62,26.37" /><path
         id="path318"
         style="fill:#211c1d;fill-opacity:1;fill-rule:nonzero;stroke:none"
         d="m 5667.31,3128.18 v -35.13 c 0,-9.86 -8.06,-17.93 -17.9,-17.93 h -18.57 c 0,0 -16.75,-1.51 -16.75,-15.69 v -8.86 l -410.63,-61.03 v 71.15 c -0.99,13.01 -16.64,14.43 -16.64,14.43 h -14.64 c -9.84,0 -17.92,8.07 -17.92,17.93 v 35.13 h 513.05" /><path
         id="path320"
         style="fill:#211c1d;fill-opacity:1;fill-rule:nonzero;stroke:none"
         d="m 5203.46,2964.44 410.67,60.91 v -31.39 l -410.67,-60.84 v 31.32" /><path
         id="path322"
         style="fill:#211c1d;fill-opacity:1;fill-rule:nonzero;stroke:none"
         d="m 5203.46,2907.87 410.67,61.03 v -31.22 l -410.67,-61.02 v 31.21" /><path
         id="path324"
         style="fill:#211c1d;fill-opacity:1;fill-rule:nonzero;stroke:none"
         d="m 5204.61,2851.7 409.52,60.59 v -31.23 l -401.7,-59.54 c -3.82,9.24 -6.53,19.38 -7.82,30.18" /><path
         id="path326"
         style="fill:#80d5e7;fill-opacity:1;fill-rule:nonzero;stroke:none"
         d="m 5339.77,2771.88 9.1,-28.5 c 2.23,-7.4 9.54,-13.39 16.1,-13.39 h 87.68 c 6.54,0 13.83,5.99 16.09,13.39 l 9.08,28.5 h -138.05" /><path
         id="path328"
         style="fill:#80d5e7;fill-opacity:1;fill-rule:nonzero;stroke:none"
         d="m 5169.79,3246.45 c -21.01,0 -40.72,12.98 -48.27,33.87 -9.65,26.68 4.15,56.12 30.81,65.76 l 481.99,174.22 c 26.69,9.7 56.1,-4.15 65.75,-30.83 9.64,-26.67 -4.17,-56.1 -30.83,-65.74 L 5187.27,3249.5 c -5.79,-2.1 -11.68,-3.05 -17.48,-3.05" /><path
         id="path330"
         style="fill:#80d5e7;fill-opacity:1;fill-rule:nonzero;stroke:none"
         d="m 5472.5,3236.56 v -108.38 h -102.7 v 68 l -212.1,51.69 c -27.62,6.74 -44.52,34.56 -37.77,62.06 6.73,27.62 34.46,44.5 61.97,37.79 l 251.46,-61.28 c 22.94,-5.59 39.14,-26.12 39.14,-49.88" /><path
         id="path332"
         style="fill:#80d5e7;fill-opacity:1;fill-rule:nonzero;stroke:none"
         d="m 5169.79,3420.68 c -21.01,0 -40.72,12.98 -48.27,33.87 -9.65,26.69 4.15,56.11 30.81,65.76 l 481.99,174.24 c 26.69,9.66 56.1,-4.17 65.75,-30.83 9.64,-26.67 -4.17,-56.11 -30.83,-65.74 l -481.97,-174.25 c -5.79,-2.09 -11.68,-3.05 -17.48,-3.05" /><path
         id="path334"
         style="fill:#80d5e7;fill-opacity:1;fill-rule:nonzero;stroke:none"
         d="m 5169.79,3594.9 c -21.01,0 -40.72,13 -48.27,33.92 -9.65,26.65 4.15,56.09 30.81,65.73 l 481.99,174.24 c 26.69,9.66 56.1,-4.16 65.75,-30.83 9.64,-26.68 -4.17,-56.1 -30.83,-65.75 l -481.97,-174.23 c -5.79,-2.08 -11.68,-3.08 -17.48,-3.08" /><path
         id="path336"
         style="fill:#80d5e7;fill-opacity:1;fill-rule:nonzero;stroke:none"
         d="m 5169.78,3943.39 c -21.03,0 -40.75,12.99 -48.31,33.9 -9.62,26.67 4.18,56.1 30.84,65.75 l 481.99,174.22 c 26.69,9.65 56.1,-4.17 65.74,-30.83 9.65,-26.66 -4.16,-56.12 -30.82,-65.75 l -482,-174.23 c -5.75,-2.08 -11.65,-3.06 -17.44,-3.06" /><path
         id="path338"
         style="fill:#80d5e7;fill-opacity:1;fill-rule:nonzero;stroke:none"
         d="m 5169.79,3769.15 c -21.01,0 -40.72,12.99 -48.27,33.9 -9.65,26.68 4.15,56.1 30.81,65.74 l 481.99,174.24 c 26.69,9.66 56.1,-4.17 65.75,-30.83 9.64,-26.69 -4.17,-56.11 -30.83,-65.75 l -481.97,-174.22 c -5.79,-2.1 -11.68,-3.08 -17.48,-3.08" /><path
         id="path340"
         style="fill:#beeaf1;fill-opacity:1;fill-rule:nonzero;stroke:none"
         d="m 5429.96,3337.24 15.89,5.74 h 0.02 l -15.91,-5.74" /><path
         id="path342"
         style="fill:#64c5e1;fill-opacity:1;fill-rule:nonzero;stroke:none"
         d="m 5347.38,3307.41 -47.07,11.45 -25.41,6.19 170.95,17.93 -15.89,-5.74 -82.58,-29.83" /><path
         id="path344"
         style="fill:#64c5e1;fill-opacity:1;fill-rule:nonzero;stroke:none"
         d="m 5300.31,3318.86 -25.45,6.19 h 0.04 l 25.41,-6.19" /><path
         id="path346"
         style="fill:#ffffff;fill-opacity:1;fill-rule:nonzero;stroke:none"
         d="m 5584.67,4150.2 c -3.25,0 -6.32,2.01 -7.49,5.26 -1.5,4.14 0.65,8.69 4.78,10.2 l 43,15.5 c 4.1,1.45 8.69,-0.66 10.19,-4.79 1.49,-4.15 -0.66,-8.73 -4.8,-10.2 l -42.98,-15.5 -2.7,-0.47" /><path
         id="path348"
         style="fill:#ffffff;fill-opacity:1;fill-rule:nonzero;stroke:none"
         d="m 5274,4038.13 c -3.27,0 -6.34,2.04 -7.49,5.27 -1.51,4.15 0.66,8.72 4.79,10.19 l 232.12,83.72 c 4.14,1.49 8.71,-0.66 10.2,-4.8 1.5,-4.13 -0.65,-8.68 -4.79,-10.19 l -232.13,-83.72 -2.7,-0.47" /><path
         id="path350"
         style="fill:#ffffff;fill-opacity:1;fill-rule:nonzero;stroke:none"
         d="m 5584.67,3975.95 c -3.25,0 -6.32,2 -7.49,5.27 -1.5,4.12 0.65,8.68 4.78,10.19 l 43,15.49 c 4.1,1.47 8.69,-0.65 10.19,-4.79 1.49,-4.13 -0.66,-8.7 -4.8,-10.2 l -42.98,-15.48 -2.7,-0.48" /><path
         id="path352"
         style="fill:#ffffff;fill-opacity:1;fill-rule:nonzero;stroke:none"
         d="m 5274,3863.9 c -3.27,0 -6.34,2.02 -7.49,5.27 -1.51,4.14 0.66,8.69 4.79,10.19 l 232.12,83.72 c 4.14,1.49 8.71,-0.64 10.2,-4.79 1.5,-4.15 -0.65,-8.72 -4.79,-10.18 l -232.13,-83.74 -2.7,-0.47" /><path
         id="path354"
         style="fill:#ffffff;fill-opacity:1;fill-rule:nonzero;stroke:none"
         d="m 5584.67,3801.7 c -3.25,0 -6.32,2.03 -7.49,5.26 -1.5,4.13 0.65,8.71 4.78,10.2 l 43,15.5 c 4.1,1.49 8.69,-0.65 10.19,-4.8 1.49,-4.13 -0.66,-8.69 -4.8,-10.2 l -42.98,-15.49 -2.7,-0.47" /><path
         id="path356"
         style="fill:#ffffff;fill-opacity:1;fill-rule:nonzero;stroke:none"
         d="m 5274,3689.66 c -3.27,0 -6.34,2.01 -7.49,5.27 -1.51,4.12 0.66,8.7 4.79,10.18 l 232.12,83.72 c 4.14,1.48 8.71,-0.65 10.2,-4.79 1.5,-4.15 -0.65,-8.71 -4.79,-10.19 l -232.13,-83.73 -2.7,-0.46" /><path
         id="path358"
         style="fill:#ffffff;fill-opacity:1;fill-rule:nonzero;stroke:none"
         d="m 5584.67,3627.46 c -3.25,0 -6.32,2.03 -7.49,5.27 -1.5,4.14 0.65,8.71 4.78,10.2 l 43,15.49 c 4.1,1.48 8.69,-0.63 10.19,-4.8 1.49,-4.14 -0.66,-8.7 -4.8,-10.19 l -42.98,-15.49 -2.7,-0.48" /><path
         id="path360"
         style="fill:#ffffff;fill-opacity:1;fill-rule:nonzero;stroke:none"
         d="m 5274,3515.42 c -3.27,0 -6.34,2.03 -7.49,5.27 -1.51,4.12 0.66,8.69 4.79,10.19 l 232.12,83.71 c 4.14,1.49 8.71,-0.63 10.2,-4.79 1.5,-4.14 -0.65,-8.71 -4.79,-10.19 l -232.13,-83.72 -2.7,-0.47" /><path
         id="path362"
         style="fill:#ffffff;fill-opacity:1;fill-rule:nonzero;stroke:none"
         d="m 5584.67,3453.26 c -3.25,0 -6.32,2.01 -7.49,5.27 -1.5,4.14 0.65,8.71 4.78,10.2 l 43,15.5 c 4.1,1.47 8.69,-0.67 10.19,-4.81 1.49,-4.11 -0.66,-8.71 -4.8,-10.18 l -42.98,-15.5 -2.7,-0.48" /><path
         id="path364"
         style="fill:#ffffff;fill-opacity:1;fill-rule:nonzero;stroke:none"
         d="m 5274,3341.22 c -3.27,0 -6.34,2.03 -7.49,5.27 -1.51,4.15 0.66,8.7 4.79,10.2 l 232.12,83.71 c 4.14,1.47 8.71,-0.66 10.2,-4.8 1.5,-4.14 -0.65,-8.7 -4.79,-10.2 l -232.13,-83.69 -2.7,-0.49" /><path
         id="path366"
         style="fill:#80d5e7;fill-opacity:1;fill-rule:nonzero;stroke:none"
         d="m 1764.2,1347.66 h -0.02 c 54.27,76.84 86.25,170.53 86.25,271.76 0,260.58 -211.22,471.8 -471.78,471.8 -260.56,0 -471.795,-211.22 -471.795,-471.8 0,-101.23 31.989,-194.92 86.25,-271.76 h -0.003 l 0.523,-0.74 c 4.613,-6.49 9.385,-12.86 14.315,-19.12 168.81,-227.63 209.41,-355.441 209.41,-355.441 h 161.3 161.3 c 0,0 40.59,127.811 209.42,355.441 4.91,6.26 9.68,12.63 14.29,19.12 l 0.54,0.74" /><path
         id="path368"
         style="fill:#beeaf1;fill-opacity:1;fill-rule:nonzero;stroke:none"
         d="m 1306.36,941.281 c -4.79,0 -8.94,3.528 -9.65,8.391 l -3.32,22.687 h 19.79 l 2.9,-19.847 c 0.8,-5.34 -2.91,-10.332 -8.25,-11.121 -0.49,-0.082 -0.98,-0.11 -1.47,-0.11 m 144.29,0.008 -1.43,0.102 c -5.36,0.789 -9.07,5.781 -8.28,11.121 l 2.9,19.847 h 19.81 l -3.32,-22.687 c -0.72,-4.871 -4.9,-8.383 -9.68,-8.383" /><path
         id="path370"
         style="fill:#64c5e1;fill-opacity:1;fill-rule:nonzero;stroke:none"
         d="m 1463.65,972.359 h -19.81 l 42.31,288.991 c -2.73,-4.06 -5.48,-9.41 -8.65,-15.77 -7.89,-15.91 -17.73,-35.7 -38.85,-35.7 -21.11,0 -30.94,19.8 -38.85,35.72 -7.67,15.44 -12.93,24.81 -21.29,24.81 -8.36,0 -13.64,-9.37 -21.31,-24.83 -7.89,-15.91 -17.73,-35.7 -38.84,-35.7 -21.1,0 -30.94,19.8 -38.84,35.7 -3.16,6.35 -5.91,11.71 -8.64,15.77 l 42.3,-288.991 h -19.79 l -44.86,306.431 c -0.42,2.81 0.41,5.67 2.28,7.82 1.86,2.15 4.56,3.39 7.42,3.39 21.1,0 30.93,-19.79 38.84,-35.7 7.67,-15.44 12.93,-24.83 21.29,-24.83 8.36,0 13.63,9.39 21.3,24.83 7.9,15.91 17.74,35.7 38.85,35.7 21.11,0 30.94,-19.79 38.84,-35.69 7.68,-15.45 12.95,-24.84 21.3,-24.84 8.37,0 13.63,9.39 21.32,24.83 7.9,15.91 17.73,35.7 38.84,35.7 2.85,0 5.55,-1.24 7.41,-3.39 1.87,-2.15 2.7,-5.01 2.28,-7.82 l -44.85,-306.431" /><path
         id="path372"
         style="fill:#ffffff;fill-opacity:1;fill-rule:nonzero;stroke:none"
         d="m 1772.51,1537.02 v 0 c -7.33,0 -13.25,5.93 -13.25,13.24 0,27.76 -1.65,54.86 -4.93,80.6 -0.93,7.26 4.21,13.91 11.47,14.81 7.27,0.92 13.89,-4.21 14.82,-11.46 3.42,-26.86 5.15,-55.09 5.15,-83.95 -0.01,-7.31 -5.94,-13.24 -13.26,-13.24" /><path
         id="path374"
         style="fill:#ffffff;fill-opacity:1;fill-rule:nonzero;stroke:none"
         d="m 1732.75,1751.92 c -5.19,0 -10.1,3.06 -12.23,8.14 -76.08,181.22 -239.94,225.95 -241.59,226.38 -7.08,1.85 -11.32,9.09 -9.47,16.16 1.85,7.1 9.08,11.36 16.18,9.48 7.24,-1.88 178.23,-48.58 259.32,-241.77 2.83,-6.74 -0.34,-14.52 -7.09,-17.34 -1.68,-0.7 -3.42,-1.05 -5.12,-1.05" /><path
         id="path376"
         style="fill:#211c1d;fill-opacity:1;fill-rule:nonzero;stroke:none"
         d="m 1234.58,746 304.55,45.199 c -3.46,-37.027 -26.41,-65.898 -54.04,-65.898 h -213.15 c -14.43,0 -27.52,7.828 -37.36,20.699" /><path
         id="path378"
         style="fill:#211c1d;fill-opacity:1;fill-rule:nonzero;stroke:none"
         d="M 1539.7,972.359 V 944.031 L 1217.35,896.16 v 76.199 h 322.35" /><path
         id="path380"
         style="fill:#211c1d;fill-opacity:1;fill-rule:nonzero;stroke:none"
         d="m 1217.35,876.461 322.35,47.781 v -24.621 l -322.35,-47.762 v 24.602" /><path
         id="path382"
         style="fill:#211c1d;fill-opacity:1;fill-rule:nonzero;stroke:none"
         d="m 1217.35,832.039 322.35,47.891 v -24.508 l -322.35,-47.883 v 24.5" /><path
         id="path384"
         style="fill:#211c1d;fill-opacity:1;fill-rule:nonzero;stroke:none"
         d="M 1218.25,787.961 1539.7,835.5 v -24.488 l -315.31,-46.77 c -3.02,7.27 -5.15,15.207 -6.14,23.719" /><path
         id="path386"
         style="fill:#80d5e7;fill-opacity:1;fill-rule:nonzero;stroke:none"
         d="m 1324.34,725.301 7.12,-22.379 c 1.78,-5.82 7.5,-10.524 12.66,-10.524 h 68.8 c 5.15,0 10.87,4.704 12.65,10.524 l 7.12,22.379 h -108.35" /><path
         id="path388"
         style="fill:#80d5e7;fill-opacity:1;fill-rule:nonzero;stroke:none"
         d="m 6904.89,1216.01 c 1.94,-53.72 -12.28,-106.92 -38.96,-153.48 -19.45,-33.93 -44.72,-65.21 -74.67,-90.389 -13.34,-11.321 -27.56,-21.481 -42.76,-30.051 l -173.2,-25.699 c -22.87,5.39 -44.98,13.949 -65.47,25.699 -14.4,8.219 -28.09,18.199 -40.9,29.351 -21.4,18.551 -40.47,40.379 -56.38,62.629 -30.83,43.12 -51.24,92.95 -56.28,145.89 -2.74,28 0.09,55.73 2.46,83.68 2.4,27.91 5.59,55.74 9.11,83.58 14.13,112.83 38.53,224.96 73.35,333.29 31.63,98.44 71.21,196.24 125.55,284.43 12.11,19.62 24.74,37.65 48.42,43.38 25.53,6.28 52.57,-4.5 67.15,-26.33 53.82,-81.99 93.05,-173.98 124.95,-266.39 37.02,-107.45 62.99,-218.53 79.78,-330.92 1.86,-12.45 3.72,-24.91 5.4,-37.46 6,-43.57 10.85,-87.48 12.45,-131.21" /><path
         id="path390"
         style="fill:#63bfde;fill-opacity:1;fill-rule:nonzero;stroke:none"
         d="m 6557.91,941.281 c -4.76,0 -8.91,3.528 -9.63,8.391 l -48.18,329.118 c -0.41,2.81 0.42,5.67 2.27,7.82 1.87,2.15 4.57,3.39 7.41,3.39 21.11,0 30.96,-19.79 38.84,-35.7 7.69,-15.44 12.96,-24.83 21.32,-24.83 8.36,0 13.62,9.39 21.29,24.83 7.89,15.91 17.72,35.7 38.86,35.7 21.09,0 30.95,-19.79 38.84,-35.69 7.66,-15.45 12.95,-24.84 21.3,-24.84 8.36,0 13.62,9.39 21.3,24.83 7.89,15.91 17.74,35.7 38.86,35.7 2.83,0 5.54,-1.24 7.4,-3.39 1.87,-2.15 2.7,-5.01 2.28,-7.82 l -48.2,-329.118 c -0.69,-4.871 -4.88,-8.383 -9.65,-8.383 l -1.44,0.102 c -5.35,0.789 -9.04,5.781 -8.28,11.121 l 45.21,308.838 c -2.71,-4.06 -5.46,-9.41 -8.65,-15.77 -7.88,-15.91 -17.71,-35.7 -38.83,-35.7 -21.11,0 -30.94,19.8 -38.84,35.72 -7.69,15.44 -12.94,24.81 -21.3,24.81 -8.38,0 -13.64,-9.37 -21.3,-24.83 -7.91,-15.91 -17.76,-35.7 -38.85,-35.7 -21.12,0 -30.96,19.8 -38.85,35.7 -3.17,6.35 -5.93,11.71 -8.64,15.77 l 45.22,-308.838 c 0.78,-5.34 -2.93,-10.332 -8.29,-11.121 -0.5,-0.082 -0.98,-0.11 -1.47,-0.11" /><path
         id="path392"
         style="fill:#ffffff;fill-opacity:1;fill-rule:nonzero;stroke:none"
         d="m 6827.9,1321.33 c -6.97,0 -12.79,5.42 -13.24,12.46 -5.52,91.43 -22.48,189.26 -50.46,290.75 -1.95,7.04 2.21,14.35 9.27,16.29 7.03,1.95 14.34,-2.19 16.3,-9.26 28.44,-103.27 45.73,-202.91 51.35,-296.18 0.44,-7.3 -5.11,-13.58 -12.41,-14.03 l -0.81,-0.03" /><path
         id="path394"
         style="fill:#ffffff;fill-opacity:1;fill-rule:nonzero;stroke:none"
         d="m 6746.08,1715.05 c -5.49,0 -10.65,3.46 -12.53,8.96 -20.46,59.9 -36.98,96.93 -37.12,97.28 -3,6.68 0,14.52 6.67,17.51 6.68,3.01 14.51,0.02 17.51,-6.68 0.69,-1.53 17.1,-38.37 38.01,-99.52 2.38,-6.94 -1.32,-14.48 -8.24,-16.85 -1.43,-0.47 -2.87,-0.7 -4.3,-0.7" /><path
         id="path396"
         style="fill:#211c1d;fill-opacity:1;fill-rule:nonzero;stroke:none"
         d="m 6486.15,746 304.54,45.199 c -3.43,-37.027 -26.39,-65.898 -54.03,-65.898 h -213.14 c -14.44,0 -27.52,7.828 -37.37,20.699" /><path
         id="path398"
         style="fill:#211c1d;fill-opacity:1;fill-rule:nonzero;stroke:none"
         d="m 6791.26,972.301 v -28.27 l -42.77,-6.351 -173.2,-25.719 -106.36,-15.813 v 76.153 h 322.33" /><path
         id="path400"
         style="fill:#211c1d;fill-opacity:1;fill-rule:nonzero;stroke:none"
         d="m 6468.93,876.461 322.34,47.781 v -24.621 l -322.34,-47.762 v 24.602" /><path
         id="path402"
         style="fill:#211c1d;fill-opacity:1;fill-rule:nonzero;stroke:none"
         d="m 6468.93,831.68 322.34,47.879 V 855.051 L 6468.93,807.16 v 24.52" /><path
         id="path404"
         style="fill:#211c1d;fill-opacity:1;fill-rule:nonzero;stroke:none"
         d="m 6469.8,787.961 321.47,47.539 v -24.488 l -315.28,-46.77 c -3.04,7.27 -5.17,15.207 -6.19,23.719" /><path
         id="path406"
         style="fill:#80d5e7;fill-opacity:1;fill-rule:nonzero;stroke:none"
         d="m 6575.91,725.301 7.14,-22.379 c 1.76,-5.82 7.5,-10.524 12.65,-10.524 h 68.8 c 5.15,0 10.87,4.704 12.64,10.524 l 7.13,22.379 h -108.36" /><path
         id="path408"
         style="fill:#211c1d;fill-opacity:1;fill-rule:nonzero;stroke:none"
         d="m 2418.49,1323.16 v 330.62 h 42.77 v -287.64 h 118.2 v -42.98 h -160.97" /><path
         id="path410"
         style="fill:#211c1d;fill-opacity:1;fill-rule:nonzero;stroke:none"
         d="m 2760.6,1653.78 v -330.62 h -42.76 v 330.62 h 42.76" /><path
         id="path412"
         style="fill:#211c1d;fill-opacity:1;fill-rule:nonzero;stroke:none"
         d="m 3191.99,1368.41 c -34.03,-32.5 -72.95,-48.77 -116.76,-48.77 -46.69,0 -86.51,16.47 -119.42,49.39 -32.93,32.92 -49.4,72.76 -49.4,119.45 0,46.56 16.47,86.37 49.4,119.44 32.91,33.06 72.73,49.59 119.42,49.59 43.67,0 85.08,-17.85 124.2,-53.52 l -32.02,-29.14 c -29.49,26.18 -60.21,39.26 -92.18,39.26 -34.58,0 -64.16,-12.26 -88.75,-36.79 -24.58,-24.51 -36.88,-54.13 -36.88,-88.84 0,-34.86 12.3,-64.54 36.88,-89.07 24.59,-24.53 54.17,-36.79 88.75,-36.79 29.77,0 54.43,7.88 73.97,23.57 v 99.82 h 42.79 v -117.6" /><path
         id="path414"
         style="fill:#211c1d;fill-opacity:1;fill-rule:nonzero;stroke:none"
         d="m 3383.67,1459.96 v -136.8 h -42.78 v 330.62 h 42.78 v -151.06 h 102.08 v 151.06 h 42.77 v -330.62 h -42.77 v 136.8 h -102.08" /><path
         id="path416"
         style="fill:#211c1d;fill-opacity:1;fill-rule:nonzero;stroke:none"
         d="m 3774.54,1611.01 v -287.85 h -42.97 v 287.85 h -77.08 v 42.77 h 197.13 v -42.77 h -77.08" /><path
         id="path418"
         style="fill:#211c1d;fill-opacity:1;fill-rule:nonzero;stroke:none"
         d="m 4251.32,1514.72 v -148.58 h 41.95 v 0.63 c 8.81,0.53 19.77,7.63 32.86,21.28 14.45,14.88 21.7,32.57 21.7,53.1 0,20.26 -7.2,37.57 -21.6,51.98 -14.4,14.38 -31.73,21.59 -51.98,21.59 z m 0,96.29 v -52.28 h 27.9 c 6.32,0.55 11.76,2.96 16.33,7.23 4.94,4.56 7.43,10.68 7.43,18.41 0,7.7 -2.59,14.07 -7.76,19.11 -5.15,5.01 -11.73,7.53 -19.74,7.53 z m 24.16,42.77 c 19.17,0 35.55,-6.77 49.2,-20.34 13.63,-13.58 20.45,-29.94 20.45,-49.07 0,-19.72 -9.92,-31.9 -29.75,-36.59 14.33,-2.07 30.62,-12.25 48.88,-30.58 18.23,-18.32 27.37,-43.66 27.37,-76.05 0,-32.37 -11.38,-60.33 -34.11,-83.9 -21.33,-22.16 -42.75,-33.4 -64.25,-33.67 v -0.42 h -84.73 v 330.62 h 66.94" /><path
         id="path420"
         style="fill:#211c1d;fill-opacity:1;fill-rule:nonzero;stroke:none"
         d="m 4707.71,1653.78 h 42.97 V 1420.9 c -3.71,-26.59 -14.65,-49.03 -32.85,-67.36 -22.05,-22.05 -48.55,-33.06 -79.56,-33.06 -31,0 -57.49,10.97 -79.45,32.97 -21.97,21.95 -32.95,48.44 -32.95,79.44 v 220.89 h 42.96 v -220.89 c 0,-19.01 6.8,-35.31 20.37,-48.86 13.57,-13.58 29.91,-20.37 49.07,-20.37 19.28,0 35.69,6.76 49.18,20.26 13.52,13.49 20.26,29.82 20.26,48.97 v 220.89" /><path
         id="path422"
         style="fill:#211c1d;fill-opacity:1;fill-rule:nonzero;stroke:none"
         d="m 4897.31,1323.16 v 330.62 h 42.78 v -287.64 h 118.2 v -42.98 h -160.98" /><path
         id="path424"
         style="fill:#211c1d;fill-opacity:1;fill-rule:nonzero;stroke:none"
         d="m 5235.3,1514.72 v -148.58 h 41.96 v 0.63 c 8.79,0.53 19.75,7.63 32.85,21.28 14.44,14.88 21.7,32.57 21.7,53.1 0,20.26 -7.22,37.57 -21.6,51.98 -14.4,14.38 -31.72,21.59 -51.96,21.59 z m 0,96.29 v -52.28 h 27.9 c 6.33,0.55 11.77,2.96 16.32,7.23 4.96,4.56 7.44,10.68 7.44,18.41 0,7.7 -2.58,14.07 -7.75,19.11 -5.17,5.01 -11.74,7.53 -19.73,7.53 z m 24.18,42.77 c 19.15,0 35.54,-6.77 49.17,-20.34 13.64,-13.58 20.47,-29.94 20.47,-49.07 0,-19.72 -9.93,-31.9 -29.75,-36.59 14.32,-2.07 30.61,-12.25 48.86,-30.58 18.24,-18.32 27.38,-43.66 27.38,-76.05 0,-32.37 -11.36,-60.33 -34.11,-83.9 -21.33,-22.16 -42.76,-33.4 -64.24,-33.67 v -0.42 h -84.74 v 330.62 h 66.96" /><path
         id="path426"
         style="fill:#211c1d;fill-opacity:1;fill-rule:nonzero;stroke:none"
         d="m 5593.94,1492.81 c -23.42,7.85 -42.4,19.06 -56.92,33.59 -14.54,14.53 -21.81,32.54 -21.81,54.03 0,21.09 7.54,39.18 22.64,54.34 15.07,15.16 33.37,22.74 54.86,22.74 21.22,0 39.39,-7.53 54.56,-22.54 8.53,-8.25 15.69,-21.42 21.47,-39.44 l -38.85,-15.32 c -4.68,12.68 -8.95,20.95 -12.8,24.81 -6.75,6.62 -14.88,9.92 -24.38,9.92 -9.64,0 -17.84,-3.35 -24.59,-10.03 -6.74,-6.69 -10.14,-14.84 -10.14,-24.48 0,-9.65 3.4,-17.84 10.14,-24.6 7.58,-7.42 18.03,-14.26 31.39,-20.44 25.91,-8.4 47.89,-21.63 65.92,-39.68 20.26,-19.98 30.39,-44.23 30.39,-72.75 0,-28.5 -10.09,-52.86 -30.28,-73.04 -20.18,-20.17 -44.46,-30.28 -72.83,-30.28 -28.53,0 -52.84,10.13 -72.95,30.39 -16.13,16.11 -26.3,38.36 -30.59,66.75 l 41.53,15.08 c 2.63,-24.38 9.05,-41.66 19.22,-51.87 11.85,-11.85 26.11,-17.76 42.79,-17.76 16.66,0 30.92,5.91 42.77,17.76 11.83,11.85 17.77,26.17 17.77,42.97 0,16.68 -5.94,30.94 -17.77,42.79 -11.29,11.28 -25.14,20.32 -41.54,27.06" /><path
         id="path428"
         style="fill:#211c1d;fill-opacity:1;fill-rule:nonzero;stroke:none"
         d="m 2543.42,981.012 7.43,-6.672 c -17.05,-15.508 -37.1,-23.289 -60.21,-23.289 -24.76,0 -45.86,8.738 -63.31,26.191 -17.45,17.449 -26.18,38.558 -26.18,63.308 0,24.69 8.73,45.78 26.18,63.28 17.45,17.49 38.55,26.23 63.31,26.23 23.11,0 43.16,-7.77 60.21,-23.27 l -7.43,-6.8 c -15,13.34 -32.59,20.01 -52.78,20.01 -21.92,0 -40.64,-7.76 -56.15,-23.27 -15.53,-15.52 -23.28,-34.26 -23.28,-56.18 0,-21.99 7.75,-40.749 23.28,-56.28 15.51,-15.508 34.23,-23.25 56.15,-23.25 20.19,0 37.78,6.671 52.78,19.992" /><path
         id="path430"
         style="fill:#211c1d;fill-opacity:1;fill-rule:nonzero;stroke:none"
         d="m 2877.75,1120.43 c -22,0 -40.78,-7.78 -56.33,-23.34 -15.56,-15.55 -23.33,-34.33 -23.33,-56.31 0,-22.01 7.77,-40.811 23.33,-56.382 15.55,-15.589 34.33,-23.378 56.33,-23.378 22,0 40.78,7.789 56.33,23.378 15.55,15.571 23.33,34.372 23.33,56.382 0,21.98 -7.78,40.76 -23.33,56.31 -15.55,15.56 -34.33,23.34 -56.33,23.34 z m 63.44,-16.24 c 17.51,-17.5 26.28,-38.65 26.28,-63.41 0,-24.77 -8.77,-45.909 -26.28,-63.452 -17.53,-17.5 -38.68,-26.277 -63.44,-26.277 -24.77,0 -45.91,8.777 -63.43,26.277 -17.52,17.543 -26.27,38.682 -26.27,63.452 0,24.76 8.75,45.91 26.27,63.41 17.52,17.54 38.66,26.3 63.43,26.3 24.76,0 45.91,-8.76 63.44,-26.3" /><path
         id="path432"
         style="fill:#211c1d;fill-opacity:1;fill-rule:nonzero;stroke:none"
         d="m 3210.11,953.141 v 174.829 h 9.83 V 962.969 h 67.75 v -9.828 h -77.58" /><path
         id="path434"
         style="fill:#211c1d;fill-opacity:1;fill-rule:nonzero;stroke:none"
         d="m 3526.52,953.141 v 174.829 h 9.82 V 962.969 h 67.76 v -9.828 h -77.58" /><path
         id="path436"
         style="fill:#211c1d;fill-opacity:1;fill-rule:nonzero;stroke:none"
         d="m 3930.33,1127.97 v -9.82 h -77.58 v -72.68 h 77.58 v -9.84 h -77.58 v -72.661 h 77.58 v -9.828 h -87.41 v 174.829 h 87.41" /><path
         id="path438"
         style="fill:#211c1d;fill-opacity:1;fill-rule:nonzero;stroke:none"
         d="m 4312.52,981.012 7.43,-6.672 c -17.04,-15.508 -37.12,-23.289 -60.21,-23.289 -24.78,0 -45.87,8.738 -63.32,26.191 -17.44,17.449 -26.17,38.558 -26.17,63.308 0,24.69 8.73,45.78 26.17,63.28 17.45,17.49 38.54,26.23 63.32,26.23 23.09,0 43.17,-7.77 60.21,-23.27 l -7.43,-6.8 c -15,13.34 -32.6,20.01 -52.78,20.01 -21.93,0 -40.64,-7.76 -56.17,-23.27 -15.5,-15.52 -23.26,-34.26 -23.26,-56.18 0,-21.99 7.76,-40.749 23.26,-56.28 15.53,-15.508 34.24,-23.25 56.17,-23.25 20.18,0 37.78,6.671 52.78,19.992" /><path
         id="path440"
         style="fill:#211c1d;fill-opacity:1;fill-rule:nonzero;stroke:none"
         d="M 4603.05,1118.15 V 953.141 h -9.85 v 165.009 h -44.25 v 9.82 h 98.34 v -9.82 h -44.24" /><path
         id="path442"
         style="fill:#211c1d;fill-opacity:1;fill-rule:nonzero;stroke:none"
         d="M 4893.76,1127.97 V 953.141 h -9.84 v 174.829 h 9.84" /><path
         id="path444"
         style="fill:#211c1d;fill-opacity:1;fill-rule:nonzero;stroke:none"
         d="m 5228.31,1120.43 c -22.01,0 -40.78,-7.78 -56.34,-23.34 -15.54,-15.55 -23.33,-34.33 -23.33,-56.31 0,-22.01 7.79,-40.811 23.33,-56.382 15.56,-15.589 34.33,-23.378 56.34,-23.378 21.99,0 40.76,7.789 56.31,23.378 15.56,15.571 23.33,34.372 23.33,56.382 0,21.98 -7.77,40.76 -23.33,56.31 -15.55,15.56 -34.32,23.34 -56.31,23.34 z m 63.42,-16.24 c 17.53,-17.5 26.28,-38.65 26.28,-63.41 0,-24.77 -8.75,-45.909 -26.28,-63.452 -17.51,-17.5 -38.65,-26.277 -63.42,-26.277 -24.77,0 -45.93,8.777 -63.45,26.277 -17.52,17.543 -26.28,38.682 -26.28,63.452 0,24.76 8.76,45.91 26.28,63.41 17.52,17.54 38.68,26.3 63.45,26.3 24.77,0 45.91,-8.76 63.42,-26.3" /><path
         id="path446"
         style="fill:#211c1d;fill-opacity:1;fill-rule:nonzero;stroke:none"
         d="m 5560.66,1127.97 h 10.81 l 89.83,-155.49 v 155.49 h 9.82 V 953.141 h -9.82 l -90.81,157.019 V 953.141 h -9.83 v 174.829" /></g></g></svg>