<?xml version="1.0" encoding="UTF-8" standalone="no"?><!-- Generator: Gravit.io --><svg xmlns="http://www.w3.org/2000/svg" xmlns:xlink="http://www.w3.org/1999/xlink" style="isolation:isolate" viewBox="0 0 250 250" width="250pt" height="250pt"><defs><clipPath id="_clipPath_bTnzio6djAu7dxQYCHVvl78QLZMavyuc"><rect width="250" height="250"/></clipPath></defs><g clip-path="url(#_clipPath_bTnzio6djAu7dxQYCHVvl78QLZMavyuc)"><g><path d=" M 121.319 95.452 C 121.751 94.312 122.616 93.292 124.127 93.16 C 125.651 93.04 131.411 92.932 132.504 95.62 C 133.607 98.308 133.116 101.716 129.492 101.572 C 125.867 101.404 121.319 95.452 121.319 95.452" fill="rgb(247,202,88)"/><path d=" M 132.911 96.196 C 131.904 97.336 131.219 98.608 130.931 99.952 C 130.859 100.252 132.023 101.452 131.999 101.752 C 131.867 103.444 123.659 110.908 122.819 110.44 C 121.979 109.948 122.735 96.016 122.735 96.016 C 122.735 96.016 125.904 91.504 126.707 89.368 C 127.199 88.036 132.911 96.196 132.911 96.196" fill="rgb(201,142,125)"/><g><clipPath id="_clipPath_EFebyxfH4fVpQ3jpoCfYLHAEpHLd2jbB"><path d=" M 120.031 104.388 C 119.899 104.388 119.791 104.367 119.711 104.32 C 118.607 103.672 122.351 98.128 122.075 96.976 C 122.138 96.892 122.221 96.783 122.318 96.649 C 122.432 96.779 122.554 96.915 122.683 97.056 C 122.616 98.449 122.503 101.039 122.45 103.573 C 121.409 104.067 120.539 104.388 120.031 104.388" fill="rgb(255,255,255)"/></clipPath><g clip-path="url(#_clipPath_EFebyxfH4fVpQ3jpoCfYLHAEpHLd2jbB)"><g><linearGradient id="_lgradient_103" x1="1.546580126567278" y1="0.6984786092110511" x2="3.8008419141090606" y2="3.439519379951097" gradientTransform="matrix(3.176,0,0,-7.739,119.507,104.388)" gradientUnits="userSpaceOnUse"><stop offset="0%" stop-opacity="1" style="stop-color:rgb(255,255,255)"/><stop offset="51.648300000000006%" stop-opacity="1" style="stop-color:rgb(196,189,180)"/><stop offset="100%" stop-opacity="1" style="stop-color:rgb(196,189,180)"/></linearGradient><path d=" M 120.031 104.388 C 119.899 104.388 119.791 104.367 119.711 104.32 C 118.607 103.672 122.351 98.128 122.075 96.976 C 122.138 96.892 122.221 96.783 122.318 96.649 C 122.432 96.779 122.554 96.915 122.683 97.056 C 122.616 98.449 122.503 101.039 122.45 103.573 C 121.409 104.067 120.539 104.388 120.031 104.388" fill="url(#_lgradient_103)"/></g></g></g><g><clipPath id="_clipPath_KLlYUjVgFqALW1hdtulbrN3coootfxi9"><path d=" M 122.683 97.056 C 122.554 96.915 122.432 96.779 122.318 96.649 C 122.435 96.489 122.575 96.296 122.732 96.073 C 122.725 96.204 122.707 96.551 122.683 97.056 Z " fill="rgb(255,255,255)"/></clipPath><g clip-path="url(#_clipPath_KLlYUjVgFqALW1hdtulbrN3coootfxi9)"><g><linearGradient id="_lgradient_104" x1="5.0662379421222" y1="-1.9603852937186161" x2="22.427979070364962" y2="19.150401637307088" gradientTransform="matrix(0.415,0,0,-0.983,122.318,97.056)" gradientUnits="userSpaceOnUse"><stop offset="0%" stop-opacity="1" style="stop-color:rgb(125,189,234)"/><stop offset="51.648300000000006%" stop-opacity="1" style="stop-color:rgb(84,141,183)"/><stop offset="100%" stop-opacity="1" style="stop-color:rgb(84,141,183)"/></linearGradient><path d=" M 122.683 97.056 C 122.554 96.915 122.432 96.779 122.318 96.649 C 122.435 96.489 122.575 96.296 122.732 96.073 C 122.725 96.204 122.707 96.551 122.683 97.056 Z " fill="url(#_lgradient_104)"/></g></g></g><g><clipPath id="_clipPath_s2P6V1GNtvZsGdpttAgjeUpEOCTE8h9B"><path d=" M 132.125 94.989 C 132.027 94.869 131.918 94.757 131.798 94.651 C 131.305 93.981 130.697 93.171 130.073 92.383 L 132.347 93.868 C 132.302 93.943 132.224 94.391 132.125 94.989 Z " fill="rgb(255,255,255)"/></clipPath><g clip-path="url(#_clipPath_s2P6V1GNtvZsGdpttAgjeUpEOCTE8h9B)"><g><linearGradient id="_lgradient_105" x1="-2.4859604900639027" y1="-1.5319693094629159" x2="1.620031288947402" y2="3.4606588461455807" gradientTransform="matrix(2.275,0,0,-2.607,130.073,94.989)" gradientUnits="userSpaceOnUse"><stop offset="0%" stop-opacity="1" style="stop-color:rgb(255,255,255)"/><stop offset="51.648300000000006%" stop-opacity="1" style="stop-color:rgb(196,189,180)"/><stop offset="100%" stop-opacity="1" style="stop-color:rgb(196,189,180)"/></linearGradient><path d=" M 132.125 94.989 C 132.027 94.869 131.918 94.757 131.798 94.651 C 131.305 93.981 130.697 93.171 130.073 92.383 L 132.347 93.868 C 132.302 93.943 132.224 94.391 132.125 94.989 Z " fill="url(#_lgradient_105)"/></g></g></g><g><clipPath id="_clipPath_GCFiosFSX3pnTSERxKFSYNRHuuDfqMrR"><path d=" M 132.11 95.079 C 132.013 94.944 131.909 94.801 131.798 94.651 C 131.918 94.757 132.027 94.869 132.125 94.989 C 132.121 95.019 132.116 95.048 132.11 95.079" fill="rgb(255,255,255)"/></clipPath><g clip-path="url(#_clipPath_GCFiosFSX3pnTSERxKFSYNRHuuDfqMrR)"><g><linearGradient id="_lgradient_106" x1="-22.564207093355265" y1="-9.130651699407537" x2="4.181852119567637" y2="23.390876707102024" gradientTransform="matrix(0.327,0,0,-0.428,131.798,95.079)" gradientUnits="userSpaceOnUse"><stop offset="0%" stop-opacity="1" style="stop-color:rgb(125,189,234)"/><stop offset="51.648300000000006%" stop-opacity="1" style="stop-color:rgb(84,141,183)"/><stop offset="100%" stop-opacity="1" style="stop-color:rgb(84,141,183)"/></linearGradient><path d=" M 132.11 95.079 C 132.013 94.944 131.909 94.801 131.798 94.651 C 131.918 94.757 132.027 94.869 132.125 94.989 C 132.121 95.019 132.116 95.048 132.11 95.079" fill="url(#_lgradient_106)"/></g></g></g><g><clipPath id="_clipPath_R8Z0SIadsucqu4QQXk11mwVSkbLAxPYr"><path d=" M 125.027 92.525 C 125.984 90.883 126.849 89.112 127.079 87.772 L 129.142 91.242 C 128.179 90.104 127.304 89.221 126.903 89.221 C 126.811 89.221 126.744 89.268 126.707 89.368 C 126.395 90.197 125.727 91.383 125.027 92.525" fill="rgb(255,255,255)"/></clipPath><g clip-path="url(#_clipPath_R8Z0SIadsucqu4QQXk11mwVSkbLAxPYr)"><g><linearGradient id="_lgradient_107" x1="-0.1479309115655063" y1="-1.3585614901256733" x2="2.1123596477346864" y2="1.3898098884783816" gradientTransform="matrix(4.115,0,0,-4.753,125.027,92.525)" gradientUnits="userSpaceOnUse"><stop offset="0%" stop-opacity="1" style="stop-color:rgb(255,255,255)"/><stop offset="51.648300000000006%" stop-opacity="1" style="stop-color:rgb(196,189,180)"/><stop offset="100%" stop-opacity="1" style="stop-color:rgb(196,189,180)"/></linearGradient><path d=" M 125.027 92.525 C 125.984 90.883 126.849 89.112 127.079 87.772 L 129.142 91.242 C 128.179 90.104 127.304 89.221 126.903 89.221 C 126.811 89.221 126.744 89.268 126.707 89.368 C 126.395 90.197 125.727 91.383 125.027 92.525" fill="url(#_lgradient_107)"/></g></g></g><g><clipPath id="_clipPath_lo6ryVB5IxHgPj44Axl5vDWvtIHI5xxC"><path d=" M 122.45 103.573 C 122.503 101.039 122.616 98.449 122.683 97.056 C 122.707 96.551 122.725 96.204 122.732 96.073 C 123.346 95.207 124.219 93.911 125.027 92.525 C 125.727 91.383 126.395 90.197 126.707 89.368 C 126.744 89.268 126.811 89.221 126.903 89.221 C 127.304 89.221 128.179 90.104 129.142 91.242 L 129.647 92.092 L 129.671 92.104 L 129.695 92.116 L 129.683 92.128 L 130.073 92.383 C 130.697 93.171 131.305 93.981 131.798 94.651 C 131.909 94.801 132.013 94.944 132.11 95.079 C 131.922 96.221 131.66 97.845 131.399 98.476 C 130.488 98.911 125.656 102.057 122.45 103.573" fill="rgb(255,255,255)"/></clipPath><g clip-path="url(#_clipPath_lo6ryVB5IxHgPj44Axl5vDWvtIHI5xxC)"><g><linearGradient id="_lgradient_108" x1="0.20372670807453375" y1="0.3198532144184334" x2="1.0605915126895686" y2="1.3617470075183093" gradientTransform="matrix(9.66,0,0,-14.352,122.45,103.573)" gradientUnits="userSpaceOnUse"><stop offset="0%" stop-opacity="1" style="stop-color:rgb(201,142,125)"/><stop offset="51.648300000000006%" stop-opacity="1" style="stop-color:rgb(152,105,89)"/><stop offset="100%" stop-opacity="1" style="stop-color:rgb(152,105,89)"/></linearGradient><path d=" M 122.45 103.573 C 122.503 101.039 122.616 98.449 122.683 97.056 C 122.707 96.551 122.725 96.204 122.732 96.073 C 123.346 95.207 124.219 93.911 125.027 92.525 C 125.727 91.383 126.395 90.197 126.707 89.368 C 126.744 89.268 126.811 89.221 126.903 89.221 C 127.304 89.221 128.179 90.104 129.142 91.242 L 129.647 92.092 L 129.671 92.104 L 129.695 92.116 L 129.683 92.128 L 130.073 92.383 C 130.697 93.171 131.305 93.981 131.798 94.651 C 131.909 94.801 132.013 94.944 132.11 95.079 C 131.922 96.221 131.66 97.845 131.399 98.476 C 130.488 98.911 125.656 102.057 122.45 103.573" fill="url(#_lgradient_108)"/></g></g></g><path d=" M 132.563 95.888 C 131.584 100.213 127.966 106.616 126.769 106.076 C 125.847 105.147 122.134 95.42 122.027 94.396 C 121.565 94.643 113.508 96.678 113.508 96.678 L 113.469 130.349 L 132.563 136.373 L 138.536 100.807 L 132.563 95.888 Z " fill="rgb(255,185,8)"/><path d=" M 123.212 93.726 C 122.781 94.521 123.663 98.607 124.969 101.543 C 124.969 101.543 124.014 100.758 123.475 101.366 C 122.937 101.977 120.578 104.354 120.578 104.354 C 120.578 104.354 119.621 95.015 120.052 94.955 C 121.342 94.777 123.212 93.726 123.212 93.726 Z " fill="rgb(247,202,88)"/><path d=" M 133.443 104.493 C 132.937 102.166 131.15 101.06 130.699 101.379 C 130.248 101.689 132.782 95.923 132.085 95.4 C 133.313 96.444 133.758 97.643 133.758 97.643 L 133.443 104.493 Z " fill="rgb(247,202,88)"/><path d=" M 131.777 100.173 C 131.359 101.372 131.25 102.548 131.25 102.548 C 131.25 102.548 127.916 106.584 127.12 109.588 C 126.323 112.592 127.345 105.136 127.345 105.136 C 127.345 105.136 130.183 101.895 130.614 101.007 C 131.056 100.116 131.412 99.272 131.412 99.272 L 131.777 100.173" fill="rgb(247,202,88)"/><path d=" M 123.471 98.144 C 123.313 97.98 124.562 99.812 125.536 101.999 C 126.122 103.318 127.24 105.013 127.323 105.419 C 127.41 105.825 126.852 109.821 126.852 109.821 C 126.852 109.821 127.007 107.187 126.209 105.643 C 125.413 104.096 123.112 99.516 122.599 99.683 C 122.082 99.848 122.579 97.544 122.077 97.271 C 121.579 96.997 123.471 98.144 123.471 98.144" fill="rgb(248,203,91)"/><path d=" M 126.819 83.799 C 125.263 85.671 125.599 89.218 124.492 89.188 C 124.253 89.179 124.553 90.978 124.4 90.78 C 124.245 90.578 124.664 92.32 125.743 91.354 C 126.175 90.968 129.74 86.936 129.74 86.548 C 129.738 86.16 126.819 83.799 126.819 83.799" fill="rgb(25,25,31)"/><path d=" M 136.955 93.306 C 138.321 92.123 139.183 90.739 139.608 88.108 C 139.847 86.418 140.495 85.218 139.586 84.445 C 139.078 84.132 138.612 83.904 138.16 83.725 C 137.694 83.313 137.112 82.903 136.396 82.487 C 131.955 79.915 130.889 83.166 129.162 86.161 C 128.503 84.959 127.503 85.733 126.907 86.98 C 126.449 87.932 126.323 89.233 126.738 89.881 C 125.621 92.671 125.847 95.904 128.779 98.066 C 129.311 98.461 129.898 98.621 130.508 98.611 C 131.222 98.657 132.258 98.091 132.959 97.645 C 136.882 95.467 136.844 93.399 136.955 93.306" fill="rgb(201,142,125)"/><path d=" M 132.037 79.52 C 130.844 79.16 129.534 80.172 128.318 81.372 C 126.612 83.064 126.1 85.318 126.1 85.318 L 127.789 86.057 L 127.833 87.437 L 128.245 88.091 C 128.245 88.091 130.118 85.972 130.832 85.592 C 131.365 85.312 132.892 84.344 133.586 85.954 C 133.586 85.954 135.036 80.479 133.98 79.976 C 132.92 79.472 132.037 79.52 132.037 79.52" fill="rgb(25,25,31)"/><path d=" M 133.97 82.088 C 132.734 83.506 133.26 85.623 133.26 85.623 C 133.793 86.604 133.951 87.144 134.94 88.076 C 136.854 89.885 137.075 89.297 138.055 89.872 C 139.04 90.451 138.466 94.339 136.183 96.178 C 138.954 94.108 139.689 90.543 139.689 90.543 C 139.689 90.543 139.877 92.399 137.719 94.923 C 137.212 95.512 142.688 91.104 141.379 86.195 C 140.575 83.183 136.41 80.271 134.372 81.995 C 134.162 82.171 134.112 81.93 133.97 82.088" fill="rgb(36,36,40)"/><path d=" M 133.894 81.673 L 133.758 82.384 C 133.758 82.384 140.857 90.115 141.124 89.937 C 141.388 89.766 142.432 86.311 140.883 83.516 C 139.338 80.715 134.459 78.912 133.961 80.244 L 133.894 81.673 Z " fill="rgb(36,36,40)"/><path d=" M 134.54 84.42 C 134.849 84.851 137.653 85.157 138.817 86.836 C 139.986 88.524 140.764 89.701 139.396 92.304 C 141.124 89.937 140.183 86.993 137.621 85.301 C 135.062 83.608 134.54 84.42 134.54 84.42" fill="rgb(25,25,31)"/><path d=" M 133.012 83.144 C 133.97 82.088 138.144 83.106 139.871 85.245 C 138.58 83.72 135.501 82.023 134.251 82.397 C 132.98 82.784 133.012 83.144 133.012 83.144" fill="rgb(25,25,31)"/><path d=" M 133.465 82.355 C 133.662 82.012 135.488 81.868 136.386 82.211 C 137.282 82.544 140.629 83.732 140.965 86.971 C 141.037 85.442 139.57 82.967 136.986 82.069 C 134.404 81.175 133.774 81.718 133.634 81.823 C 133.496 81.925 133.465 82.355 133.465 82.355 Z " fill="rgb(25,25,31)"/><path d=" M 133.636 81.197 C 134.16 81.048 137.928 80.954 139.486 82.651 C 141.047 84.349 142.11 86.194 141.193 88.827 C 141.757 88.179 141.795 85.312 140.877 83.928 C 139.967 82.548 138.376 81.008 136.463 80.6 C 134.554 80.196 133.875 80.385 133.748 80.724 L 133.636 81.197 Z " fill="rgb(25,25,31)"/><path d=" M 62.8 129.245 L 74.557 124.293 L 69.297 135.124 L 62.8 129.245 Z " fill="rgb(33,30,30)"/><path d=" M 42.573 126.4 C 40.782 131.178 38.892 135.107 39.886 137.894 C 42.235 144.471 51.227 142.967 56.599 141.771 C 61.97 140.58 63.883 142.066 65.753 137.395 C 66.548 135.404 64.135 125.433 60.381 126.056 C 56.62 126.679 42.573 126.4 42.573 126.4" fill="rgb(25,25,31)"/><path d=" M 78.763 112.736 C 78.469 114.104 76.74 115.444 76.74 115.444 C 76.74 115.444 75.609 112.527 75.256 112.04 C 74.9 111.555 71.467 110.825 71.236 110.533 C 71.005 110.245 70.326 108.154 69.825 105.831 C 69.319 103.507 72.499 92.663 75.544 95.5 C 78.595 98.335 78.763 112.736 78.763 112.736" fill="rgb(156,75,50)"/><path d=" M 69.789 105.332 C 70.025 105.703 71.282 106.285 71.623 106.266 C 71.205 107.106 70.399 108.931 70.399 108.931 C 70.399 108.931 68.709 109.152 68.207 108.623 C 67.704 108.1 69.789 105.332 69.789 105.332 Z " fill="rgb(57,81,171)"/><path d=" M 64.01 100.784 C 64.31 101.78 68.201 107.52 69.789 105.332 C 70.289 104.651 73.829 109.84 73.662 110.235 C 73.534 110.53 72.07 119.885 67.693 121.875 C 66.178 122.563 65.514 130.576 65.103 131.723 C 63.218 137.055 60.929 132.719 53.165 134.111 C 50.788 134.54 41.099 134.128 41.228 132.324 C 42.673 111.691 54.96 103.371 54.96 103.371 L 64.01 100.784 Z " fill="rgb(3,165,203)"/><path d=" M 79.196 120.58 C 82.602 121.972 82.373 129.271 78.579 131.872 C 74.787 134.478 61.409 145.181 61.409 145.181 L 57.04 140.43 C 57.04 140.43 70.484 125.455 71.617 123.985 C 74.513 120.224 79.196 120.58 79.196 120.58 Z " fill="rgb(25,25,31)"/><path d=" M 76.594 106.144 C 75.772 107.078 75.38 107.785 74.767 107.859 C 74.379 108.951 77.148 116.43 76.575 117.644 C 76 118.861 73.221 119.519 72.74 118.96 C 72.25 118.397 71.825 108.112 72.172 107.551 C 72.516 106.987 73.511 105.72 74.021 105.66 C 74.534 105.592 76.594 106.144 76.594 106.144" fill="rgb(201,142,125)"/><path d=" M 76.993 105.756 C 77.194 104.916 76.665 102.573 76.22 102.978 C 75.951 103.221 76.339 105.449 76.339 105.449 C 76.339 105.449 75.941 103.609 75.537 103.732 C 75.126 103.854 75.544 106.109 75.544 106.109 C 75.544 106.109 75.855 106.197 75.544 106.109 C 75.23 106.019 75.511 104.616 74.993 104.54 C 74.471 104.464 74.157 107.312 74.157 107.312 C 74.157 107.312 74.703 107.903 75.507 107.452 C 76.31 107 76.993 105.756 76.993 105.756" fill="rgb(201,142,125)"/><path d=" M 72.79 116.559 C 73.77 116.901 75.873 115.863 76.743 114.503 C 78.339 117.269 78.894 123.916 75.61 124.527 C 73.88 124.849 72.121 122.415 71.623 119.667 C 71.121 116.927 72.79 116.559 72.79 116.559" fill="rgb(3,165,203)"/><path d=" M 66.078 95.831 C 67.941 91.103 70.956 89.147 74.709 90.625 C 78.469 92.099 79.369 95.885 77.513 100.609 C 77.236 101.306 75.151 106.881 71.221 108.087 C 70.286 108.381 69.537 107.715 68.78 107.252 C 65.354 105.133 64.219 100.548 66.078 95.831" fill="rgb(218,169,157)"/><path d=" M 75.489 98.973 C 76.384 99.719 77.118 100.431 77.191 103.531 C 77.259 106.632 78.617 115.1 77.495 116.443 C 79.662 115.215 80.197 108.233 80.315 104.912 C 80.434 101.588 80.412 95.478 77.991 91.551 C 76.381 88.94 73.149 88.359 72.196 89.271 C 71.242 90.185 75.489 98.973 75.489 98.973" fill="rgb(184,108,62)"/><path d=" M 72.168 106.052 C 69.68 107.649 68.811 108.493 68.014 110.583 C 65.628 110.881 64.607 108.745 64.607 107.352 C 64.607 105.956 67.592 102.378 67.592 102.378 L 72.168 106.052 Z " fill="rgb(218,169,157)"/><path d=" M 76.671 97.676 C 75.82 100.712 72.79 99.018 69.956 101.928 C 67.83 104.108 63.911 111.032 66 114.913 C 64.131 114.875 62.479 109.378 62.616 106.256 C 62.751 103.136 62.742 112.856 63.414 113.421 C 61.211 111.956 61.059 104.387 59.333 103.671 C 57.291 102.818 54.366 103.823 53.165 104.863 C 54.642 103.383 60.165 98.566 61.845 95.164 C 64.3 90.18 70.769 87.224 73.625 89.042 C 76.479 90.859 76.671 97.676 76.671 97.676" fill="rgb(156,75,50)"/><path d=" M 58.83 137.497 C 56.253 138.733 53.777 140.384 53.158 140.899 C 52.539 141.416 56.972 142.139 58.416 141.828 C 59.861 141.52 61.175 139.689 61.175 139.689 C 61.175 139.689 62.233 137.395 62.955 137.185 C 63.677 136.98 58.83 137.497 58.83 137.497" fill="rgb(201,142,125)"/><path d=" M 54.91 136.415 C 59.58 141.627 65.223 142.243 72.079 142.912 L 79.584 143.555 C 79.584 143.555 88.171 139.689 81.672 136.749 C 80.139 136.054 75.818 138.419 73.058 137.192 C 70.291 135.961 58.803 130.587 58.803 130.587 L 54.91 136.415 Z " fill="rgb(218,169,157)"/><path d=" M 42.998 123.676 C 52.281 120.995 58.16 131.411 73.269 136.672 C 69.968 138.32 69.247 143.324 69.247 143.324 C 69.247 143.324 43.556 137.443 40.676 132.031 C 36.809 124.76 42.998 123.676 42.998 123.676" fill="rgb(37,38,47)"/><path d=" M 78.631 136.672 C 79.251 137.704 80.048 142.809 78.193 143.633 C 82.319 143.839 82.912 142.395 83.838 141.233 C 84.966 139.828 84.405 136.672 81.831 136.515 C 79.251 136.364 78.631 136.672 78.631 136.672 Z " fill="rgb(183,194,212)"/><path d=" M 66.667 141.159 C 66.975 140.23 61.951 139.413 61.175 139.689 C 56.3 141.413 55.089 141.62 54.058 140.384 C 53.029 139.147 49.829 142.679 50.656 144.33 C 51.481 145.983 66.667 141.159 66.667 141.159 Z " fill="rgb(183,194,212)"/><path d=" M 51.66 142.163 C 53.972 140.744 55.192 143.145 56.842 142.316 C 58.495 141.493 59.662 139.884 64.423 139.997 C 68.857 140.103 67.75 144.251 64.193 146.108 C 60.993 147.778 55.399 146.237 53.13 146.443 C 50.86 146.649 48.977 143.813 51.66 142.163" fill="rgb(149,163,188)"/><path d=" M 56.93 120.018 C 58.115 120.115 58.788 120.019 59.433 120.379 C 60.257 120.839 61.311 121.564 61.311 121.564 C 61.279 121.96 59.235 121.135 59.104 121.201 C 58.664 121.423 60.313 122.325 61.015 122.652 C 61.672 122.959 63.048 123.019 62.859 123.343 C 62.704 123.604 61.98 123.564 61.279 123.408 C 60.311 123.197 60.158 123.212 60.158 123.212 C 60.158 123.212 60.047 123.2 61.015 123.442 C 61.627 123.597 62.581 123.604 62.945 123.855 C 63.474 124.224 61.699 124.389 60.839 124.233 C 59.571 124.011 59.258 123.993 59.258 123.993 C 59.258 123.993 59.547 123.987 60.421 124.299 C 61.09 124.537 62.32 124.489 62.178 124.649 C 61.717 125.171 58.755 124.716 58.755 124.716 C 58.755 124.716 61.167 124.839 60.993 125.156 C 60.797 125.518 58.243 125.149 57.875 124.913 C 57.115 124.42 55.751 123.635 55.059 122.837 C 54.847 122.599 45.108 125.04 44.015 124.528 C 42.917 124.019 42.097 118.703 43.022 118.861 C 43.942 119.016 56.93 120.018 56.93 120.018" fill="rgb(218,169,157)"/><path d=" M 50.084 106.552 C 48.888 107.751 45.108 112.824 42.222 119.092 C 40.552 122.715 40.136 124.763 41.527 124.661 C 42.92 124.56 44.511 124.661 45.009 124.161 C 45.507 123.666 48.388 120.58 48.987 120.085 C 49.586 119.589 53.667 112.124 54.66 109.937 C 55.654 107.751 50.084 106.552 50.084 106.552 Z " fill="rgb(218,169,157)"/><path d=" M 54.26 104.068 C 52.972 104.157 49.287 104.564 45.108 112.125 C 49.088 116.008 51.824 117.3 51.824 117.3 C 51.824 117.3 57.943 111.927 58.042 109.24 C 58.042 109.24 59.185 103.72 54.26 104.068 Z " fill="rgb(2,137,168)"/><path d=" M 114.556 133.024 C 112.633 134.855 107.501 133.242 105.198 133.336 C 102.893 133.428 100.575 134.948 101.198 137.192 C 101.198 137.192 100.391 141.655 104.823 141.485 C 108.362 141.348 113.159 139.251 117.681 139.069 C 120.686 138.947 114.556 133.024 114.556 133.024" fill="rgb(37,38,47)"/><path d=" M 107.349 133.437 C 104.648 133.221 100.96 133.657 100.569 136.376 C 100.178 139.096 101.514 140.23 102.448 140.966 C 103.233 141.585 104.286 141.459 104.286 141.459 C 104.286 141.459 101.37 139.399 102.217 136.004 C 102.899 133.267 107.349 133.437 107.349 133.437" fill="rgb(25,25,31)"/><path d=" M 150.128 118.195 C 152.746 120.979 151.923 125.097 148.72 128.559 C 145.511 132.018 123.957 141.161 118.513 141.291 C 116.654 137.409 116.649 135.271 114.761 132.387 C 115.456 131.192 117.797 128.533 119.831 130.793 C 120.729 131.789 119.005 129.754 120.313 129.037 C 121.621 128.32 121.912 129.888 125.539 129.172 C 127.003 128.887 142.06 121.216 143.542 118.897 C 145.56 115.736 150.128 118.195 150.128 118.195" fill="rgb(183,194,212)"/><path d=" M 130.887 133.812 C 132.974 135.378 137.797 133.205 140.058 133.025 C 142.321 132.849 144.76 134.067 144.417 136.327 C 144.417 136.327 145.722 140.593 141.373 140.944 C 137.898 141.223 132.972 139.728 128.535 140.079 C 125.584 140.308 130.887 133.812 130.887 133.812" fill="rgb(37,38,47)"/><path d=" M 137.971 133.375 C 140.583 132.852 144.235 132.845 144.933 135.455 C 145.632 138.067 144.456 139.33 143.633 140.157 C 142.936 140.855 141.895 140.855 141.895 140.855 C 141.895 140.855 144.504 138.503 143.281 135.284 C 142.296 132.688 137.971 133.375 137.971 133.375" fill="rgb(25,25,31)"/><path d=" M 98.492 119.688 C 95.873 122.472 95.68 126.889 99.545 129.788 C 103.321 132.62 124.749 142.347 131.862 141.993 C 133.722 138.111 132.519 136.627 134.409 133.74 C 133.712 132.547 132.476 132.772 130.546 132.861 C 129.208 132.924 130.359 132.087 129.053 131.369 C 127.742 130.652 128.643 130.766 125.012 130.051 C 123.55 129.759 111.721 122.73 109.819 120.742 C 104.024 114.683 98.492 119.688 98.492 119.688" fill="rgb(149,163,188)"/><path d=" M 105.107 156.544 L 58.283 156.016 L 72.323 145.48 L 108.359 146.164 L 105.107 156.544" fill="rgb(243,101,29)"/><path d=" M 75.318 150.184 C 75.304 150.184 75.289 150.184 75.275 150.184 C 73.763 150.172 73.692 149.776 74.351 149.332 C 75.551 148.528 78.899 147.496 81.071 147.496 L 81.167 147.544 L 80.939 147.604 C 80.929 147.604 80.917 147.604 80.906 147.604 C 79.064 147.604 75.797 148.592 74.699 149.332 C 74.111 149.752 74.147 150.04 75.455 150.052 C 75.481 150.052 75.507 150.052 75.533 150.052 C 78.462 150.052 82.877 148.727 83.604 148.108 C 83.807 147.916 83.735 147.808 83.279 147.784 L 83.207 147.712 L 83.447 147.676 C 84.083 147.712 84.204 147.892 83.939 148.108 C 83.103 148.813 78.603 150.184 75.318 150.184 Z " fill="rgb(250,180,134)"/><path d=" M 82.355 148.252 L 82.319 148.252 L 82.199 148.204 L 82.547 147.508 L 82.643 147.46 L 82.799 147.436 L 84.359 147.508 L 84.431 147.58 L 84.192 147.616 L 82.859 147.556 L 82.571 148.18 L 82.355 148.252" fill="rgb(250,180,134)"/><path d=" M 75.407 148.216 C 75.251 148.216 75.119 148.204 75.011 148.168 L 75.035 148.048 L 75.335 147.88 L 75.551 147.628 C 75.575 147.508 75.635 147.388 75.804 147.292 C 76.019 147.148 76.487 147.016 77.004 147.016 L 77.159 147.028 C 77.892 147.052 78.107 147.16 77.867 147.304 C 77.699 147.424 77.351 147.544 77.039 147.688 C 76.847 147.748 76.739 147.82 76.692 147.844 C 76.559 147.928 76.655 147.928 76.547 148.012 L 76.451 148.072 C 76.151 148.18 75.719 148.216 75.407 148.216 M 76.823 147.148 C 76.487 147.148 76.367 147.184 76.175 147.292 L 75.971 147.58 C 75.971 147.688 75.851 147.796 75.719 147.88 L 75.419 148.048 L 75.395 148.072 L 75.599 148.084 C 75.827 148.084 76.104 148.048 76.127 148.036 L 76.163 148.012 C 76.199 148.012 76.127 147.964 76.307 147.844 C 76.379 147.796 76.511 147.736 76.704 147.652 C 77.051 147.508 77.387 147.376 77.495 147.304 C 77.604 147.232 77.627 147.184 76.919 147.148 L 76.919 147.148 L 76.823 147.148" fill="rgb(250,180,134)"/><path d=" M 75.395 147.148 L 75.311 147.136 L 74.951 147.004 L 75.047 146.92 L 75.323 146.908 L 75.683 147.04 L 75.599 147.124 L 75.395 147.148" fill="rgb(250,180,134)"/><path d=" M 73.859 147.496 L 73.823 147.496 L 73.727 147.448 L 74.004 147.376 L 75.131 147.34 L 75.263 147.388 L 75.011 147.46 L 73.859 147.496" fill="rgb(250,180,134)"/><path d=" M 78.623 147.16 L 78.492 147.16 L 78.383 147.148 L 78.539 147.064 L 79.295 146.932 L 79.547 146.944 L 79.392 147.028 L 78.623 147.16" fill="rgb(250,180,134)"/><path d=" M 78.971 147.532 L 78.959 147.532 L 77.939 147.484 L 77.879 147.412 L 78.167 147.364 L 79.175 147.412 L 79.247 147.484 L 78.971 147.532" fill="rgb(250,180,134)"/><path d=" M 76.619 146.968 L 76.583 146.968 L 76.475 146.92 L 76.667 146.752 L 76.919 146.692 L 77.063 146.74 L 76.871 146.896 L 76.619 146.968" fill="rgb(250,180,134)"/><path d=" M 77.771 146.968 L 77.711 146.968 L 77.711 146.884 L 78.251 146.692 L 78.527 146.656 L 78.527 146.728 L 77.999 146.932 L 77.771 146.968 Z " fill="rgb(250,180,134)"/><path d=" M 70.146 153.768 L 71.093 153.778 L 72.622 152.631 L 71.772 152.559 L 70.146 153.768 Z  M 69.875 153.831 L 71.704 152.485 L 72.861 152.566 L 71.334 153.86 L 71.173 153.849 L 71.086 153.924 L 69.875 153.831" fill="rgb(255,255,255)"/><path d=" M 71.93 153.787 L 72.883 153.804 L 74.845 152.235 L 74 152.16 L 71.93 153.787 Z  M 71.667 153.86 L 73.92 152.091 L 75.082 152.163 L 73.131 153.871 L 72.969 153.867 L 72.883 153.944 L 71.667 153.86" fill="rgb(255,255,255)"/><path d=" M 73.833 153.804 L 74.789 153.823 L 77.173 151.801 L 76.334 151.73 L 73.833 153.804 Z  M 73.579 153.889 L 76.255 151.66 L 77.405 151.731 L 75.038 153.896 L 74.868 153.896 L 74.793 153.966 L 73.579 153.889 Z " fill="rgb(255,255,255)"/><path d=" M 75.777 153.83 L 76.727 153.831 L 79.495 151.368 L 78.655 151.308 L 75.777 153.83 Z  M 75.526 153.903 L 78.572 151.24 L 79.72 151.32 L 76.985 153.913 L 76.812 153.913 L 76.743 153.978 L 75.526 153.903" fill="rgb(255,255,255)"/><path d=" M 104.058 147.983 L 96.347 147.928 L 95.579 147.964 C 95.579 147.964 94.827 147.975 93.832 147.975 C 93.334 147.975 92.775 147.972 92.219 147.964 C 91.607 147.964 91.487 147.964 91.355 147.952 L 91.259 147.904 C 91.187 147.892 91.079 147.88 90.935 147.868 C 90.563 147.844 90.335 147.832 90.155 147.832 C 90.12 147.831 90.086 147.831 90.052 147.831 C 89.701 147.831 89.424 147.885 88.427 147.94 L 88.475 147.784 C 89.417 147.74 89.679 147.687 90.137 147.687 C 90.181 147.687 90.227 147.687 90.275 147.688 C 90.504 147.688 90.755 147.7 91.127 147.724 C 91.487 147.772 91.655 147.748 91.716 147.82 C 91.823 147.82 92.027 147.82 92.339 147.82 C 92.892 147.828 93.446 147.831 93.939 147.831 C 94.927 147.831 95.671 147.82 95.663 147.82 L 96.431 147.772 L 104.167 147.837 L 104.058 147.983" fill="rgb(252,216,191)"/><path d=" M 103.706 148.454 C 102.995 148.449 101.628 148.442 99.179 148.42 C 97.763 148.408 95.987 148.384 93.755 148.372 C 92.795 148.36 92.375 148.348 92.339 148.348 L 91.931 148.312 L 90.527 148.42 L 89.711 148.408 L 87.995 148.432 L 88.092 148.288 L 89.819 148.252 L 90.587 148.276 L 92.063 148.156 L 92.111 148.156 L 92.519 148.204 C 92.519 148.204 92.916 148.216 93.875 148.216 C 96.107 148.24 97.883 148.252 99.299 148.276 C 101.74 148.297 103.103 148.305 103.813 148.309 L 103.706 148.454 Z " fill="rgb(252,216,191)"/><path d=" M 100.031 148.948 L 97.692 148.84 C 97.679 148.84 97.139 148.696 95.916 148.612 L 95.639 148.6 C 95.304 148.612 95.316 148.624 95.219 148.66 C 95.171 148.684 94.967 148.792 94.643 148.792 C 94.547 148.78 94.451 148.78 94.319 148.768 C 94.199 148.744 94.043 148.732 93.875 148.732 C 93.216 148.732 92.435 148.84 92.327 148.852 L 91.739 148.852 L 89.951 148.828 C 89.951 148.828 89.951 148.828 89.604 148.828 C 89.231 148.828 88.751 148.816 88.751 148.816 C 88.751 148.816 88.271 148.816 87.683 148.816 L 87.792 148.66 C 88.392 148.672 88.871 148.672 88.871 148.672 C 88.871 148.672 89.351 148.672 89.711 148.684 C 90.071 148.684 90.071 148.684 90.071 148.684 L 91.859 148.696 L 92.351 148.708 C 92.363 148.708 93.204 148.588 93.995 148.588 C 94.199 148.588 94.392 148.6 94.571 148.624 L 94.763 148.648 L 94.775 148.648 C 94.787 148.648 94.763 148.648 94.907 148.588 C 95.031 148.532 95.301 148.455 95.679 148.455 C 95.705 148.455 95.732 148.455 95.759 148.456 L 96.095 148.48 C 97.355 148.552 97.955 148.708 97.931 148.708 L 100.163 148.816 L 103.441 148.807 L 103.342 148.939 L 100.031 148.948" fill="rgb(252,216,191)"/><path d=" M 95.741 149.503 C 95.645 149.503 95.555 149.501 95.471 149.5 C 95.027 149.5 94.739 149.488 94.679 149.476 C 94.667 149.476 94.535 149.452 94.319 149.416 C 94.104 149.392 93.792 149.356 93.419 149.356 C 93.192 149.356 92.939 149.368 92.663 149.392 C 91.895 149.464 91.475 149.488 91.199 149.488 L 91.151 149.488 C 90.827 149.488 90.707 149.404 90.707 149.356 C 90.671 149.332 90.707 149.32 90.311 149.308 L 90.107 149.308 C 89.219 149.32 88.883 149.356 88.451 149.356 C 88.139 149.356 87.804 149.332 87.251 149.272 L 87.479 149.128 C 88.031 149.188 88.319 149.212 88.571 149.212 C 88.617 149.213 88.664 149.215 88.712 149.215 C 89.019 149.215 89.406 149.185 90.204 149.164 L 90.431 149.164 C 90.887 149.164 91.079 149.224 91.127 149.284 C 91.199 149.344 91.104 149.32 91.319 149.332 C 91.348 149.333 91.384 149.335 91.425 149.335 C 91.641 149.335 92.028 149.308 92.651 149.248 C 92.975 149.224 93.275 149.212 93.539 149.212 C 94.367 149.224 94.931 149.332 94.919 149.332 C 94.943 149.344 95.195 149.356 95.592 149.356 C 95.671 149.357 95.757 149.359 95.847 149.359 C 96.341 149.359 96.979 149.33 97.607 149.248 C 98.35 149.156 99.059 149.125 99.58 149.125 C 99.672 149.125 99.759 149.127 99.839 149.128 C 100.199 149.128 100.439 149.14 100.451 149.14 C 101.195 149.188 102.023 149.32 102.023 149.32 L 103.05 149.327 L 102.945 149.467 L 101.831 149.452 C 101.831 149.452 100.979 149.332 100.271 149.284 C 100.271 149.284 100.055 149.272 99.719 149.272 C 99.645 149.271 99.564 149.269 99.477 149.269 C 98.991 149.269 98.327 149.3 97.655 149.392 C 96.956 149.473 96.264 149.503 95.741 149.503" fill="rgb(252,216,191)"/><path d=" M 99.347 151.144 L 86.183 151.036 L 86.531 150.688 L 99.539 150.784 L 99.347 151.144" fill="rgb(250,184,140)"/><path d=" M 98.999 151.708 L 85.643 151.612 L 85.992 151.24 L 99.227 151.348 L 98.999 151.708 Z " fill="rgb(250,184,140)"/><path d=" M 98.651 152.308 L 85.067 152.2 L 85.427 151.828 L 98.879 151.924 L 98.651 152.308 Z " fill="rgb(250,184,140)"/><path d=" M 98.292 152.92 L 84.479 152.812 L 84.851 152.416 L 98.531 152.524 L 98.292 152.92" fill="rgb(250,184,140)"/><path d=" M 97.919 153.544 L 83.879 153.436 L 84.263 153.04 L 98.159 153.148 L 97.919 153.544" fill="rgb(250,184,140)"/><path d=" M 97.535 154.204 L 83.243 154.096 L 83.639 153.676 L 97.775 153.784 L 97.535 154.204" fill="rgb(250,184,140)"/><path d=" M 95.675 159.16 L 171.215 159.16 L 159.719 144.664 L 106.547 144.664 L 95.675 159.16 Z " fill="rgb(155,207,241)"/><path d=" M 126.086 151.023 C 127.977 149.94 133.241 148.532 136.667 148.532 C 136.811 148.532 136.886 148.568 136.811 148.604 C 136.756 148.644 136.596 148.675 136.461 148.675 C 133.57 148.661 128.379 150.011 126.638 151.028 C 125.704 151.589 125.774 151.983 127.824 152.007 C 132.44 152.033 139.49 150.205 140.651 149.356 C 140.975 149.103 140.857 148.96 140.131 148.918 C 140 148.909 139.954 148.867 140.029 148.831 C 140.103 148.793 140.277 148.771 140.404 148.776 C 141.398 148.82 141.585 149.071 141.17 149.356 C 139.855 150.319 132.71 152.195 127.542 152.176 C 125.154 152.166 125.052 151.628 126.086 151.023" fill="rgb(243,101,29)"/><path d=" M 138.444 149.488 L 138.982 148.544 L 139.135 148.487 L 139.386 148.454 L 141.836 148.554 C 141.967 148.568 142.006 148.604 141.949 148.644 C 141.87 148.683 141.701 148.703 141.574 148.703 L 139.471 148.608 L 139.015 149.461 L 139.015 149.464 C 138.982 149.503 138.842 149.543 138.682 149.552 L 138.621 149.552 L 138.444 149.488" fill="rgb(243,101,29)"/><path d=" M 128.448 148.281 C 128.29 148.372 128.188 148.491 128.173 148.619 C 128.173 148.749 128.005 148.867 127.828 148.969 C 127.671 149.056 127.503 149.123 127.436 149.156 L 127.403 149.183 C 127.425 149.191 127.523 149.203 127.671 149.203 C 127.972 149.207 128.354 149.154 128.388 149.142 L 128.423 149.123 C 128.467 149.112 128.388 149.056 128.614 148.928 C 128.709 148.867 128.891 148.793 129.156 148.696 C 129.619 148.532 130.07 148.384 130.217 148.292 C 130.352 148.215 130.386 148.154 129.442 148.119 L 129.607 148.052 L 129.442 148.113 L 129.318 148.113 C 128.867 148.119 128.703 148.154 128.448 148.281 L 128.448 148.281 Z  M 126.889 149.296 C 126.769 149.271 126.825 149.203 126.915 149.154 C 127.037 149.093 127.185 149.035 127.318 148.96 C 127.466 148.881 127.587 148.791 127.611 148.675 C 127.633 148.535 127.725 148.395 127.944 148.281 C 128.233 148.119 128.862 147.972 129.557 147.972 L 129.756 147.981 C 130.738 148.007 131.029 148.133 130.714 148.301 C 130.481 148.436 130.015 148.58 129.607 148.736 C 129.347 148.82 129.205 148.889 129.137 148.928 C 128.963 149.023 129.091 149.023 128.939 149.123 L 128.815 149.183 C 128.404 149.316 127.836 149.351 127.42 149.351 C 127.206 149.351 127.022 149.335 126.889 149.296" fill="rgb(243,101,29)"/><path d=" M 127.283 148.103 L 126.804 147.945 C 126.736 147.92 126.794 147.884 126.932 147.854 C 127.072 147.827 127.248 147.821 127.306 147.839 L 127.789 147.989 C 127.857 148.016 127.793 148.059 127.668 148.088 L 127.403 148.119 L 127.283 148.103" fill="rgb(243,101,29)"/><path d=" M 125.162 148.46 C 125.212 148.425 125.378 148.387 125.537 148.387 L 127.05 148.343 C 127.199 148.34 127.275 148.367 127.22 148.403 C 127.175 148.44 127.022 148.476 126.874 148.48 L 125.331 148.525 L 125.29 148.525 C 125.162 148.525 125.111 148.5 125.162 148.46" fill="rgb(243,101,29)"/><path d=" M 131.408 148.113 C 131.368 148.083 131.466 148.04 131.614 148.016 L 132.63 147.868 C 132.782 147.844 132.93 147.854 132.962 147.884 C 132.991 147.913 132.905 147.952 132.755 147.976 L 131.73 148.124 L 131.555 148.133 L 131.408 148.113" fill="rgb(243,101,29)"/><path d=" M 132.175 148.554 L 130.806 148.5 C 130.679 148.495 130.646 148.454 130.727 148.42 C 130.806 148.384 130.974 148.36 131.118 148.366 L 132.471 148.425 C 132.599 148.436 132.63 148.469 132.558 148.5 C 132.474 148.535 132.322 148.554 132.193 148.554 L 132.175 148.554" fill="rgb(243,101,29)"/><path d=" M 128.852 147.854 L 129.1 147.664 C 129.156 147.635 129.293 147.591 129.442 147.591 C 129.591 147.578 129.667 147.609 129.626 147.642 L 129.382 147.832 C 129.338 147.876 129.177 147.913 129.037 147.913 L 128.997 147.918 L 128.852 147.854" fill="rgb(243,101,29)"/><path d=" M 130.504 147.906 L 130.504 147.813 L 131.221 147.588 L 131.605 147.548 L 131.605 147.635 L 130.894 147.863 L 130.581 147.913 L 130.504 147.906 Z " fill="rgb(243,101,29)"/><path d=" M 111.134 149.336 C 110.967 149.279 111.039 149.22 111.247 149.147 L 116.462 147.783 C 116.567 147.745 116.711 147.728 116.871 147.718 L 117.167 147.76 L 117.924 148.075 L 123.022 146.742 C 123.216 146.692 123.484 146.673 123.636 146.712 C 123.806 146.745 123.772 146.819 123.581 146.863 L 118.052 148.343 C 117.924 148.366 117.804 148.391 117.646 148.393 C 117.518 148.393 117.414 148.378 117.347 148.352 L 116.567 148.039 L 111.813 149.305 C 111.683 149.344 111.503 149.354 111.373 149.354 L 111.134 149.336" fill="rgb(255,255,255)"/><path d=" M 122.925 147.433 L 123.388 146.784 L 120.801 146.948 C 120.555 146.968 120.353 146.918 120.37 146.86 C 120.37 146.804 120.561 146.742 120.815 146.718 L 123.949 146.518 C 124.077 146.518 124.204 146.518 124.284 146.542 L 124.388 146.625 L 123.813 147.407 C 123.772 147.475 123.524 147.527 123.26 147.537 L 123.216 147.537 C 123.017 147.537 122.862 147.491 122.925 147.433 Z " fill="rgb(255,255,255)"/><path d=" M 151.213 148.199 L 149.831 146.908 L 148.9 146.976 L 150.128 148.207 L 151.213 148.199 Z  M 151.505 148.272 L 150.081 148.378 L 150.009 148.285 L 149.82 148.3 L 148.672 146.915 L 149.932 146.832 L 151.505 148.272" fill="rgb(255,255,255)"/><path d=" M 149.171 148.216 L 147.671 146.512 L 146.759 146.584 L 148.067 148.228 L 149.171 148.216 Z  M 149.435 148.3 L 147.995 148.396 L 147.947 148.3 L 147.755 148.3 L 146.543 146.512 L 147.779 146.452 L 149.435 148.3" fill="rgb(255,255,255)"/><path d=" M 146.987 148.228 L 145.523 146.116 L 144.635 146.176 L 145.895 148.24 L 146.987 148.228 Z  M 147.227 148.324 L 145.787 148.408 L 145.751 148.324 L 145.559 148.324 L 144.443 146.116 L 145.631 146.056 L 147.227 148.324" fill="rgb(255,255,255)"/><path d=" M 144.755 148.252 L 143.483 145.744 L 142.619 145.792 L 143.675 148.252 L 144.755 148.252 M 144.995 148.336 L 143.543 148.42 L 143.519 148.336 L 143.316 148.336 L 142.427 145.756 L 143.616 145.684 L 144.995 148.336 Z " fill="rgb(255,255,255)"/><path d=" M 143.399 149.86 L 143.255 149.656 L 152.531 149.56 L 153.383 149.62 C 153.374 149.62 154.405 149.64 155.685 149.64 C 156.112 149.64 156.567 149.639 157.019 149.632 C 157.367 149.62 157.583 149.62 157.704 149.62 C 157.775 149.524 157.955 149.56 158.339 149.5 C 158.759 149.452 159.035 149.428 159.275 149.428 C 159.887 149.428 160.116 149.512 161.255 149.584 L 161.316 149.8 C 160.193 149.721 159.889 149.643 159.492 149.643 C 159.464 149.643 159.436 149.643 159.407 149.644 C 159.216 149.644 158.963 149.668 158.567 149.704 C 158.399 149.716 158.279 149.728 158.207 149.752 L 158.099 149.824 C 157.955 149.836 157.823 149.836 157.163 149.836 C 156.662 149.845 156.16 149.849 155.694 149.849 C 154.451 149.849 153.467 149.824 153.467 149.824 L 152.639 149.776 L 143.399 149.86 Z " fill="rgb(232,246,253)"/><path d=" M 144.166 150.545 C 143.925 150.545 143.831 150.544 143.831 150.544 L 143.699 150.34 C 143.711 150.34 144.851 150.34 149.399 150.292 C 150.947 150.256 152.892 150.232 155.339 150.208 C 156.395 150.196 156.827 150.184 156.827 150.184 L 157.271 150.124 L 157.331 150.112 L 158.939 150.28 L 159.779 150.256 L 161.675 150.304 L 161.783 150.52 L 159.899 150.484 L 159.011 150.496 L 157.463 150.34 L 157.031 150.388 C 156.983 150.388 156.527 150.412 155.471 150.424 C 153.023 150.448 151.079 150.484 149.531 150.496 C 146.283 150.539 144.767 150.545 144.166 150.545" fill="rgb(232,246,253)"/><path d=" M 148.595 151.264 L 144.227 151.252 L 144.095 151.048 L 148.451 151.06 L 150.887 150.916 C 150.875 150.916 151.535 150.688 152.916 150.58 C 153.035 150.556 153.167 150.556 153.275 150.556 C 153.299 150.556 153.322 150.555 153.345 150.555 C 153.766 150.555 154.075 150.656 154.211 150.736 C 154.355 150.82 154.331 150.82 154.355 150.82 L 154.367 150.82 L 154.583 150.796 C 154.775 150.76 154.992 150.748 155.207 150.748 C 155.259 150.747 155.31 150.745 155.362 150.745 C 156.187 150.745 156.996 150.916 157.007 150.916 L 157.547 150.892 L 159.504 150.88 C 159.504 150.88 159.504 150.88 159.899 150.868 C 160.295 150.868 160.811 150.856 160.811 150.856 C 160.823 150.856 161.351 150.856 161.999 150.856 L 162.119 151.06 L 162.119 151.06 L 162.119 151.072 L 162.119 151.06 C 161.471 151.072 160.943 151.084 160.943 151.084 C 160.943 151.084 160.427 151.084 160.031 151.084 C 159.635 151.084 159.635 151.084 159.635 151.084 L 157.679 151.12 L 157.031 151.12 C 156.916 151.108 156.117 150.952 155.414 150.952 C 155.389 150.952 155.364 150.952 155.339 150.952 C 155.159 150.952 154.992 150.964 154.847 151 C 154.716 151.012 154.607 151.024 154.499 151.036 C 154.139 151.036 153.911 150.88 153.863 150.832 C 153.767 150.796 153.767 150.772 153.407 150.76 C 153.323 150.76 153.239 150.772 153.107 150.784 C 151.763 150.892 151.175 151.108 151.163 151.108 L 148.595 151.264" fill="rgb(232,246,253)"/><path d=" M 153.587 152.068 C 152.999 152.068 152.111 152.044 151.199 151.888 C 150.459 151.764 149.727 151.73 149.193 151.73 C 149.104 151.73 149.02 151.731 148.943 151.732 C 148.559 151.732 148.331 151.744 148.331 151.744 C 147.563 151.816 146.627 151.996 146.627 151.996 L 144.599 152.02 L 144.467 151.816 L 146.423 151.804 C 146.411 151.792 147.323 151.612 148.127 151.54 C 148.151 151.54 148.404 151.528 148.799 151.516 C 149.387 151.516 150.287 151.528 151.247 151.696 C 151.947 151.82 152.655 151.855 153.198 151.855 C 153.289 151.855 153.375 151.854 153.455 151.852 C 153.887 151.852 154.175 151.828 154.199 151.828 C 154.187 151.828 154.799 151.66 155.711 151.648 C 155.762 151.645 155.815 151.645 155.868 151.645 C 156.115 151.645 156.385 151.667 156.671 151.696 C 157.499 151.792 157.943 151.828 158.135 151.828 C 158.375 151.804 158.267 151.828 158.351 151.756 C 158.397 151.676 158.594 151.575 159.033 151.575 C 159.057 151.575 159.082 151.576 159.107 151.576 L 159.371 151.576 C 160.289 151.597 160.71 151.649 161.058 151.649 C 161.093 151.649 161.126 151.649 161.159 151.648 C 161.423 151.648 161.735 151.612 162.347 151.528 L 162.599 151.72 C 161.987 151.828 161.627 151.852 161.279 151.864 C 160.799 151.864 160.451 151.804 159.467 151.792 L 159.239 151.78 C 158.819 151.792 158.855 151.828 158.807 151.864 C 158.807 151.912 158.687 152.044 158.327 152.044 L 158.279 152.044 C 157.967 152.044 157.499 152.008 156.659 151.912 C 156.371 151.864 156.095 151.852 155.843 151.852 C 155.435 151.852 155.087 151.888 154.847 151.936 C 154.607 151.984 154.463 152.02 154.463 152.02 C 154.392 152.044 154.079 152.056 153.587 152.068" fill="rgb(232,246,253)"/><path d=" M 142.271 153.904 L 142.151 153.76 L 150.192 153.688 L 150.935 153.736 C 150.927 153.736 151.629 153.747 152.563 153.747 C 153.03 153.747 153.555 153.744 154.079 153.736 C 154.379 153.736 154.571 153.736 154.679 153.736 C 154.739 153.664 154.895 153.688 155.231 153.652 C 155.592 153.616 155.831 153.604 156.047 153.604 C 156.563 153.604 156.767 153.664 157.763 153.712 L 157.799 153.856 C 156.767 153.796 156.539 153.748 156.155 153.748 C 155.987 153.748 155.771 153.76 155.423 153.784 C 155.279 153.796 155.183 153.808 155.111 153.82 L 155.016 153.88 C 154.895 153.88 154.787 153.88 154.199 153.892 C 153.883 153.895 153.565 153.896 153.259 153.896 C 152.036 153.896 151.007 153.88 151.007 153.88 L 150.275 153.844 L 142.271 153.904" fill="rgb(232,246,253)"/><path d=" M 143.25 154.373 C 142.805 154.373 142.643 154.372 142.643 154.372 L 142.535 154.228 C 142.547 154.228 143.531 154.228 147.479 154.192 C 148.811 154.18 150.504 154.156 152.627 154.144 C 153.539 154.132 153.923 154.12 153.923 154.12 L 154.295 154.084 L 154.343 154.072 L 155.747 154.192 L 156.479 154.18 L 158.123 154.204 L 158.207 154.36 L 156.587 154.324 L 155.807 154.336 L 154.463 154.228 L 154.092 154.264 C 154.043 154.264 153.659 154.276 152.747 154.288 C 150.623 154.312 148.931 154.324 147.587 154.348 C 145.226 154.369 143.918 154.373 143.25 154.373" fill="rgb(232,246,253)"/><path d=" M 154.903 154.767 L 154.773 154.611 L 156.239 154.6 C 156.239 154.6 156.239 154.6 156.587 154.6 C 156.923 154.6 157.379 154.588 157.379 154.588 C 157.379 154.588 157.835 154.588 158.399 154.588 L 158.507 154.732 C 157.943 154.732 157.487 154.744 157.487 154.744 C 157.487 154.744 157.043 154.744 156.695 154.756 C 156.359 154.756 156.359 154.756 156.359 154.756 L 154.903 154.767 M 153.226 154.54 L 152.032 154.54 C 152.184 154.516 152.351 154.516 152.519 154.516 C 152.551 154.516 152.584 154.515 152.617 154.515 C 152.825 154.515 153.034 154.525 153.226 154.54 M 151.719 154.54 L 151.219 154.54 C 151.172 154.533 151.097 154.528 150.959 154.528 L 150.683 154.54 L 150.683 154.54 L 149.174 154.54 C 149.465 154.492 149.915 154.433 150.527 154.396 L 150.839 154.384 C 150.869 154.383 150.898 154.383 150.926 154.383 C 151.277 154.383 151.532 154.448 151.643 154.504 C 151.678 154.52 151.702 154.532 151.719 154.54" fill="rgb(232,246,253)"/><path d=" M 155.417 155.389 L 155.257 155.196 C 155.314 155.14 155.498 155.08 155.892 155.08 L 156.119 155.08 C 156.875 155.101 157.247 155.131 157.535 155.131 C 157.581 155.131 157.625 155.13 157.667 155.128 C 157.907 155.128 158.171 155.116 158.699 155.044 L 158.916 155.188 C 158.387 155.26 158.075 155.272 157.775 155.284 C 157.367 155.284 157.055 155.248 156.204 155.224 L 156.011 155.224 C 155.639 155.236 155.675 155.26 155.639 155.284 C 155.631 155.311 155.575 155.363 155.417 155.389" fill="rgb(232,246,253)"/><path d=" M 122.447 150.844 L 109.487 150.7 L 109.643 150.364 L 122.531 150.508 L 122.447 150.844 Z " fill="rgb(209,237,250)"/><path d=" M 122.292 151.384 L 109.235 151.252 L 109.392 150.892 L 122.387 151.036 L 122.292 151.384 Z " fill="rgb(209,237,250)"/><path d=" M 122.123 151.924 L 108.971 151.804 L 109.139 151.444 L 122.231 151.576 L 122.123 151.924 Z " fill="rgb(209,237,250)"/><path d=" M 121.979 152.476 L 108.719 152.356 L 108.875 151.996 L 122.075 152.116 L 121.979 152.476" fill="rgb(209,237,250)"/><path d=" M 121.811 153.028 L 108.455 152.932 L 108.623 152.56 L 121.919 152.68 L 121.811 153.028" fill="rgb(209,237,250)"/><path d=" M 121.655 153.604 L 108.192 153.508 L 108.347 153.136 L 121.751 153.232 L 121.655 153.604" fill="rgb(209,237,250)"/><path d=" M 162.527 163.996 L 147.131 163.996 L 142.727 154.54 L 154.716 154.54 L 162.527 163.996 Z " fill="rgb(250,224,60)"/><path d=" M 147.275 156.472 C 146.843 156.448 146.819 156.472 146.735 156.388 L 146.747 156.364 L 146.711 156.352 C 146.663 156.316 146.555 156.28 146.375 156.232 C 146.123 156.16 145.967 156.136 145.871 156.136 C 145.863 156.136 145.856 156.136 145.849 156.136 C 145.641 156.136 145.603 156.299 145.127 156.472 L 145.079 156.352 C 145.547 156.184 145.559 156.016 145.871 156.004 C 145.992 156.004 146.147 156.04 146.411 156.112 C 146.759 156.208 146.843 156.244 146.867 156.34 L 146.879 156.34 C 146.939 156.34 147.059 156.352 147.275 156.352 C 148.211 156.352 149.063 156.232 149.075 156.232 L 149.435 156.1 L 154.283 156.052 L 154.283 156.184 L 149.447 156.232 L 149.111 156.352 C 149.099 156.352 148.223 156.472 147.275 156.472 Z " fill="rgb(154,139,42)"/><path d=" M 145.871 157.984 L 145.859 157.852 L 146.783 157.72 L 147.239 157.732 L 147.863 157.336 L 148.187 157.468 C 148.187 157.468 148.439 157.48 149.016 157.48 C 150.335 157.492 151.392 157.504 152.243 157.504 C 154.775 157.504 155.375 157.468 155.375 157.468 L 155.375 157.588 C 155.375 157.588 154.775 157.624 152.243 157.624 C 151.392 157.624 150.335 157.624 149.016 157.612 C 148.439 157.612 148.175 157.588 148.163 157.588 L 147.875 157.456 L 147.275 157.852 L 146.795 157.852 L 145.871 157.984" fill="rgb(154,139,42)"/><path d=" M 154.259 159.352 L 152.579 159.052 C 152.579 159.052 151.799 158.548 150.875 158.344 L 150.683 158.308 L 150.563 158.38 C 150.563 158.488 150.683 158.68 150.683 158.812 L 150.563 158.932 L 150.335 158.86 C 150.204 158.8 150.083 158.788 149.987 158.788 C 149.981 158.788 149.975 158.788 149.969 158.788 C 149.574 158.788 149.398 159.161 149.339 159.208 L 148.967 159.208 L 147.863 159.208 C 147.863 159.208 147.863 159.208 147.647 159.208 L 147.311 159.208 L 147.143 159.208 C 147.143 159.208 146.843 159.208 146.483 159.208 L 146.483 159.076 C 146.843 159.076 147.143 159.076 147.143 159.076 C 147.143 159.076 147.431 159.076 147.647 159.076 C 147.863 159.076 147.863 159.076 147.863 159.076 L 148.967 159.076 L 149.279 159.112 C 149.279 159.112 149.483 158.656 149.987 158.656 C 150.095 158.656 150.239 158.68 150.383 158.74 L 150.551 158.8 C 150.551 158.728 150.443 158.536 150.443 158.38 C 150.443 158.272 150.527 158.188 150.683 158.188 L 150.911 158.212 C 151.847 158.428 152.627 158.932 152.627 158.932 L 154.259 159.22 L 156.659 159.076 L 156.671 159.208 L 154.259 159.352" fill="rgb(154,139,42)"/><path d=" M 150.275 161.512 C 149.828 161.478 149.75 160.876 149.283 160.876 C 149.274 160.876 149.265 160.876 149.255 160.876 L 149.135 160.888 C 148.619 160.972 148.499 161.104 148.223 161.116 C 148.031 161.104 147.779 161.032 147.263 160.804 L 147.323 160.684 C 147.827 160.912 148.067 160.984 148.223 160.984 C 148.439 160.984 148.583 160.84 149.111 160.756 L 149.255 160.744 C 149.839 160.756 149.969 161.381 150.252 161.381 C 150.259 161.381 150.267 161.381 150.275 161.38 C 150.395 161.38 150.575 161.296 150.863 161.008 C 150.983 160.876 151.151 160.828 151.331 160.828 C 151.871 160.84 152.543 161.26 152.543 161.26 C 152.543 161.26 152.771 161.32 153.047 161.32 C 153.395 161.32 153.804 161.236 153.983 160.864 C 154.199 160.42 154.692 160.336 155.027 160.336 C 155.267 160.336 155.447 160.372 155.459 160.384 C 156.083 160.54 157.031 160.984 157.031 160.984 L 158.219 160.984 L 158.219 161.116 L 156.995 161.104 C 156.995 161.104 156.035 160.66 155.423 160.504 C 155.423 160.504 155.255 160.468 155.027 160.468 C 154.704 160.468 154.283 160.552 154.104 160.924 C 153.887 161.356 153.407 161.452 153.047 161.452 C 152.747 161.452 152.519 161.392 152.495 161.38 C 152.495 161.38 151.823 160.96 151.331 160.96 C 151.175 160.96 151.043 160.996 150.959 161.092 C 150.659 161.392 150.455 161.512 150.275 161.512" fill="rgb(154,139,42)"/><path d=" M 186.707 163.78 L 171.047 163.78 L 163.883 155.164 L 177.191 154.672 L 186.707 163.78" fill="rgb(211,25,59)"/><path d=" M 167.027 157.06 L 166.979 156.94 C 167.423 156.76 167.375 156.58 167.723 156.568 C 167.855 156.568 168.023 156.592 168.299 156.652 C 168.719 156.748 168.815 156.796 168.839 156.88 L 168.887 156.88 C 168.959 156.88 169.079 156.868 169.295 156.868 C 170.266 156.845 171.147 156.699 171.201 156.699 C 171.203 156.699 171.203 156.7 171.203 156.7 L 171.551 156.556 L 176.939 156.34 L 176.951 156.46 L 171.575 156.688 L 171.239 156.82 C 171.239 156.82 170.315 156.976 169.295 157 C 169.079 157 168.959 157.012 168.887 157.012 L 168.719 156.916 L 168.695 156.904 C 168.635 156.868 168.515 156.832 168.275 156.784 C 167.999 156.724 167.831 156.7 167.723 156.7 C 167.714 156.7 167.706 156.7 167.698 156.7 C 167.463 156.7 167.503 156.863 167.027 157.06" fill="rgb(130,21,40)"/><path d=" M 168.251 158.524 L 168.239 158.392 L 169.163 158.248 L 169.631 158.248 L 170.183 157.852 L 170.567 157.96 C 170.567 157.96 170.687 157.96 170.939 157.96 C 171.071 157.96 171.239 157.96 171.443 157.96 C 177.203 157.864 178.379 157.78 178.391 157.78 L 178.403 157.9 C 178.403 157.9 177.215 157.996 171.443 158.092 C 171.239 158.092 171.071 158.092 170.939 158.092 C 170.687 158.092 170.567 158.092 170.543 158.092 L 170.195 157.96 L 169.679 158.368 L 169.175 158.368 L 168.251 158.524" fill="rgb(130,21,40)"/><path d=" M 177.419 159.652 L 175.559 159.412 C 175.559 159.412 174.635 158.932 173.591 158.752 L 173.387 158.716 C 173.267 158.728 173.279 158.752 173.279 158.764 C 173.267 158.86 173.483 159.076 173.495 159.22 L 173.375 159.328 L 173.135 159.268 C 172.979 159.22 172.847 159.196 172.751 159.196 C 172.307 159.196 172.223 159.556 172.163 159.604 L 171.779 159.616 L 170.639 159.628 C 170.639 159.628 170.639 159.628 170.411 159.64 C 170.195 159.64 169.883 159.652 169.883 159.652 C 169.883 159.652 169.595 159.652 169.223 159.652 L 169.211 159.532 C 169.595 159.52 169.883 159.52 169.883 159.52 C 169.883 159.52 170.183 159.508 170.411 159.508 C 170.639 159.508 170.639 159.508 170.639 159.508 L 171.767 159.484 L 172.091 159.52 C 172.091 159.508 172.223 159.064 172.751 159.064 C 172.871 159.064 173.015 159.088 173.171 159.148 L 173.363 159.196 C 173.327 159.124 173.159 158.92 173.147 158.764 C 173.147 158.656 173.243 158.596 173.387 158.596 L 173.615 158.62 C 174.671 158.812 175.619 159.292 175.595 159.292 L 177.419 159.52 L 180.023 159.34 L 180.035 159.472 L 177.419 159.652 M 169.223 159.652 L 169.211 159.652 L 169.223 159.652 Z " fill="rgb(130,21,40)"/><path d=" M 173.603 161.68 C 173.165 161.656 172.959 161.128 172.479 161.128 C 172.474 161.128 172.469 161.128 172.463 161.128 L 172.319 161.152 C 171.827 161.224 171.731 161.356 171.455 161.356 C 171.251 161.356 170.987 161.284 170.423 161.092 L 170.435 161.092 L 170.471 160.972 C 171.023 161.164 171.287 161.224 171.455 161.224 C 171.465 161.224 171.474 161.225 171.482 161.225 C 171.682 161.225 171.802 161.1 172.307 161.02 L 172.463 161.008 C 173.027 161.008 173.281 161.549 173.583 161.549 C 173.59 161.549 173.597 161.548 173.603 161.548 C 173.735 161.548 173.903 161.476 174.143 161.224 C 174.251 161.104 174.407 161.056 174.599 161.056 C 175.151 161.068 175.907 161.428 175.919 161.428 C 175.919 161.428 176.147 161.476 176.423 161.476 C 176.795 161.476 177.227 161.392 177.359 161.068 C 177.539 160.636 178.067 160.564 178.439 160.564 C 178.679 160.564 178.847 160.6 178.859 160.6 C 179.555 160.744 180.635 161.14 180.623 161.14 L 181.919 161.116 L 181.919 161.248 L 180.599 161.26 C 180.599 161.26 179.507 160.864 178.835 160.72 C 178.835 160.72 178.655 160.696 178.439 160.696 C 178.079 160.696 177.611 160.78 177.479 161.116 C 177.299 161.524 176.807 161.596 176.423 161.608 C 176.135 161.608 175.895 161.56 175.883 161.548 C 175.883 161.548 175.679 161.464 175.427 161.368 C 175.175 161.272 174.851 161.188 174.599 161.188 C 174.431 161.188 174.299 161.224 174.227 161.308 C 173.987 161.572 173.795 161.68 173.603 161.68" fill="rgb(130,21,40)"/><path d=" M 119.964 162.763 L 104.571 162.763 L 109.825 154.885 L 121.805 154.885 L 119.964 162.763 Z " fill="rgb(183,194,212)"/><path d=" M 119.041 156.701 L 110.953 156.701 L 111.245 156.209 L 119.199 156.209 L 119.041 156.701 Z " fill="rgb(255,255,255)"/><path d=" M 118.541 158.303 L 110.009 158.303 L 110.316 157.795 L 118.703 157.795 L 118.541 158.303 Z " fill="rgb(255,255,255)"/><path d=" M 118.281 159.137 L 109.518 159.137 L 109.836 158.601 L 118.446 158.601 L 118.281 159.137" fill="rgb(255,255,255)"/><path d=" M 118.001 160.02 L 109.005 160.02 L 109.335 159.454 L 118.18 159.454 L 118.001 160.02 Z " fill="rgb(255,255,255)"/><path d=" M 57.477 159.916 L 41.966 159.916 L 54.155 153.632 L 65.299 153.672 L 57.477 159.916" fill="rgb(63,80,170)"/><path d=" M 61.383 155.03 L 53.724 155.009 L 54.407 154.632 L 61.905 154.655 L 61.383 155.03" fill="rgb(255,255,255)"/><path d=" M 59.684 156.267 L 51.474 156.254 L 52.199 155.857 L 60.228 155.869 L 59.684 156.267" fill="rgb(255,255,255)"/><path d=" M 58.774 156.93 L 50.271 156.913 L 51.042 156.492 L 59.36 156.5 L 58.774 156.93" fill="rgb(255,255,255)"/><path d=" M 57.795 157.635 L 48.98 157.625 L 49.809 157.168 L 58.422 157.184 L 57.795 157.635 Z " fill="rgb(255,255,255)"/><path d=" M 141.011 165.808 L 125.616 165.808 L 125.987 156.352 L 137.975 156.352 L 141.011 165.808 Z " fill="rgb(122,24,89)"/><path d=" M 136.392 159.052 L 128.292 159.052 L 128.279 158.452 L 136.247 158.452 L 136.392 159.052" fill="rgb(166,82,148)"/><path d=" M 136.871 160.972 L 128.339 160.972 L 128.327 160.36 L 136.716 160.36 L 136.871 160.972" fill="rgb(166,82,148)"/><path d=" M 137.123 161.98 L 128.363 161.98 L 128.339 161.332 L 136.955 161.332 L 137.123 161.98 Z " fill="rgb(166,82,148)"/><path d=" M 137.375 163.036 L 128.387 163.036 L 128.363 162.352 L 137.219 162.352 L 137.375 163.036" fill="rgb(166,82,148)"/><path d=" M 85.644 169.912 C 85.6 169.949 85.75 169.984 85.985 169.99 L 112.728 170.548 C 112.962 170.555 113.187 170.528 113.232 170.491 L 121.143 165.908 C 121.186 165.868 121.282 164.801 121.048 164.799 L 95.031 165.461 C 94.798 165.455 94.573 165.48 94.529 165.521 L 85.644 169.912 Z " fill="rgb(37,38,47)"/><path d=" M 85.597 168.836 C 85.553 168.878 85.708 168.909 85.941 168.915 L 112.686 169.476 C 112.919 169.48 113.143 169.456 113.187 169.416 L 121.097 164.833 C 121.143 164.796 120.989 164.764 120.758 164.757 L 94.986 164.387 C 94.753 164.381 94.529 164.408 94.485 164.447 L 85.597 168.836 Z " fill="rgb(25,25,31)"/><path d=" M 113.253 170.093 C 113.291 170.351 113.129 170.559 112.893 170.554 L 85.645 169.981 C 85.407 169.978 85.184 169.763 85.146 169.503 L 82.077 148.996 C 82.039 148.737 82.199 148.53 82.437 148.535 L 109.673 149.106 C 109.912 149.111 110.137 149.327 110.177 149.588 L 113.253 170.093 Z " fill="rgb(37,38,47)"/><path d=" M 115.551 118.644 C 115.925 119.2 120.904 125.851 122.164 128.451 C 123.717 129.456 125.102 130.815 125.775 131.712 C 126.198 132.316 126.699 132.972 126.985 133.366 C 127.604 134.199 128.611 135.759 127.965 135.948 C 127.688 136.025 127.005 134.931 126.259 134.212 L 124.915 133.104 C 125.01 134.096 125.736 137.485 125.396 137.711 C 124.708 138.161 124.553 135.392 123.842 133.944 L 123.806 133.913 C 124.255 135.009 124.586 137.647 123.992 137.607 C 123.721 137.588 123.22 135.454 122.626 134.403 L 122.439 134.344 C 122.749 135.32 123.266 137.078 123.001 137.064 C 122.677 137.057 122.275 135.937 121.58 134.861 C 120.547 134.411 119.779 132.755 119.459 132.042 C 119.194 131.452 118.946 130.804 118.759 130.289 C 115.225 127.819 108.821 122.466 108.801 119.976 L 114.774 117.316 L 115.551 118.644" fill="rgb(201,142,125)"/><path d=" M 113.771 96.678 C 111.488 96.547 109.205 98.876 108.941 100.718 C 108.678 102.561 106.658 116.527 106.658 119.688 C 106.658 122.848 113.07 127.24 113.595 128.031 C 113.595 128.031 115.441 125.66 118.909 124.299 C 120.136 123.816 114.022 119.709 114.551 117.337 C 115.077 114.967 115.746 111.124 115.746 107.964 C 115.746 104.803 113.771 96.678 113.771 96.678" fill="rgb(255,185,8)"/><path d=" M 115.746 110.025 C 115.834 111.52 115.746 113.364 115.746 114.419 C 115.746 115.472 114.957 115.735 115.221 116.527 C 115.484 117.318 117.065 120.918 117.855 120.918 C 118.646 120.918 120.577 125.133 120.577 125.133 C 120.577 125.133 117.373 123.993 114.648 126.976 C 114.008 127.678 112.323 123.112 112.323 123.112 L 116.01 121.004 C 116.01 121.004 115.155 118.042 113.31 118.042 C 111.466 118.042 108.987 118.459 108.987 118.459 C 108.987 118.459 112.915 115.669 113.706 116.46 C 113.706 116.46 110.544 116.263 109.49 116.789 C 111.861 115.143 112.784 114.551 113.641 115.143 C 112.849 114.287 113.047 113.232 113.047 112.969 C 113.047 112.705 114.583 111.279 114.781 109.764 C 114.977 108.249 115.659 106.425 115.309 103.968 C 115.155 102.892 115.746 110.025 115.746 110.025" fill="rgb(247,202,88)"/><path d=" M 140.644 104.493 C 137.56 106.911 138.185 110.643 138.185 110.643 C 138.185 110.643 141.607 115.14 142.751 116.659 C 142.12 117.512 137.996 121.847 137.996 121.847 C 136.032 121.992 135.972 122.303 134.848 122.848 C 133.925 123.299 131.967 124.499 131.967 124.499 C 131.967 124.499 131.806 125.263 133.07 124.957 C 133.817 124.776 134.927 124.38 135.177 124.299 C 135.027 124.395 132.907 125.975 132.641 126.466 C 132.37 126.951 133.07 127.197 133.07 127.197 C 132.802 128.366 133.303 127.94 133.303 127.94 C 133.095 128.918 133.963 128.707 133.963 128.707 C 133.859 128.924 133.927 129.16 134.513 129.278 C 135.108 129.399 136.673 128.713 137.594 128.301 C 138.295 128.057 139.789 125.9 140.38 125.549 C 143.479 123.713 146.692 120.311 148.634 117.228 C 146.351 112.048 142.762 104.98 140.644 104.493" fill="rgb(218,169,157)"/><path d=" M 138.536 100.807 C 140.294 100.981 142.049 103.266 142.927 105.02 C 143.805 106.778 147.845 113.454 148.371 114.33 C 148.898 115.209 148.953 117.093 148.953 117.093 C 148.953 117.093 145.034 114.595 141.873 117.58 C 140.997 116.878 141.17 116.087 141.17 116.087 C 141.17 116.087 141.169 114.684 139.239 113.276 C 137.307 111.871 136.958 113.1 136.251 111.345 C 135.551 109.588 138.536 100.807 138.536 100.807" fill="rgb(255,185,8)"/><path d=" M 138.536 100.807 C 139.589 100.981 141.719 101.313 143.477 105.264 C 145.233 109.215 147.406 112.575 147.67 113.015 C 147.933 113.452 149.513 114.859 149.075 117.318 C 149.075 117.318 147.296 115.12 144.925 115.604 C 142.554 116.088 143.805 113.627 143.805 113.627 L 145.584 113.101 C 145.584 113.101 145.56 112.355 144.815 110.819 C 144.069 109.281 139.306 102.188 138.208 102.63 C 137.108 103.068 138.536 100.807 138.536 100.807" fill="rgb(247,202,88)"/><path d=" M 185.465 132.772 C 182.321 134.066 168.454 141.461 167.529 144.789 C 166.602 148.119 168.637 149.784 168.637 149.784 L 174.555 150.707 L 185.465 132.772 Z " fill="rgb(149,163,188)"/><path d=" M 188.819 150.008 C 192.249 149.252 201.762 146.196 203.005 146.592 C 203.629 146.787 203.751 147.752 203.691 149.092 C 203.641 150.22 202.861 151.827 204.291 151.64 C 205.717 151.455 207.486 149.428 207.506 147.82 C 207.538 145.925 206.935 145.318 207.077 144.057 C 207.219 142.809 207.134 141.232 206.227 141.042 C 205.603 140.909 204.661 141.466 203.831 142.078 C 202.437 143.1 189.655 145.151 189.655 145.151 C 189.655 145.151 186.861 150.44 188.819 150.008" fill="rgb(209,156,140)"/><path d=" M 204.222 141.647 C 204.742 141.754 205.327 141.619 205.569 143.369 C 205.814 145.115 206.446 147.811 205.803 148.785 C 205.155 149.767 203.61 150.169 203.594 149.707 C 203.583 149.251 202.942 151.388 203.245 152.248 C 203.55 153.096 207.699 151.283 208.095 149.269 C 208.491 147.249 207.535 146.283 207.574 144.616 C 207.611 142.948 207.443 141.044 205.955 140.904 C 204.762 140.797 204.222 141.647 204.222 141.647 Z " fill="rgb(183,194,212)"/><path d=" M 189.089 151.087 C 192.894 150.243 203.457 146.852 204.834 147.292 C 205.53 147.511 205.666 148.581 205.599 150.069 C 205.541 151.321 204.677 153.104 206.263 152.897 C 207.85 152.693 209.809 150.44 209.831 148.655 C 209.87 146.551 209.201 145.878 209.357 144.483 C 209.518 143.091 209.421 141.344 208.413 141.128 C 207.721 140.981 206.674 141.601 205.755 142.28 C 204.205 143.415 190.017 145.689 190.017 145.689 C 190.017 145.689 186.917 151.564 189.089 151.087" fill="rgb(218,169,157)"/><path d=" M 206.187 141.803 C 206.767 141.92 207.417 141.772 207.685 143.715 C 207.954 145.654 208.657 148.645 207.943 149.728 C 207.222 150.819 205.509 151.263 205.491 150.751 C 205.475 150.243 204.766 152.62 205.105 153.569 C 205.443 154.513 210.05 152.497 210.489 150.263 C 210.927 148.02 209.867 146.949 209.91 145.1 C 209.95 143.249 209.766 141.131 208.113 140.979 C 206.785 140.86 206.187 141.803 206.187 141.803 Z " fill="rgb(183,194,212)"/><path d=" M 190.906 131.478 C 188.029 132.939 170.811 142.293 169.949 144.633 C 169.483 145.892 167.567 149.266 169.354 150.059 C 171.853 151.169 172.447 151.656 173.374 151.656 C 175.39 151.656 199.518 153.111 199.518 153.111 C 199.518 153.111 202.413 146.681 201.547 142.881 C 200.361 137.643 190.906 131.478 190.906 131.478 Z " fill="rgb(149,163,188)"/><path d=" M 202.847 136.331 C 202.847 138.967 204.163 141.947 201.25 144.167 C 198.339 146.384 196.814 145.415 194.734 145.415 C 192.654 145.415 193.486 135.984 193.486 135.984 L 202.847 136.331" fill="rgb(149,163,188)"/><path d=" M 186.067 143.266 C 189.533 142.155 199.101 142.433 200.905 142.712 C 202.706 142.988 201.458 144.097 201.458 144.097 L 186.067 143.266" fill="rgb(183,194,212)"/><path d=" M 188.562 134.528 C 186.343 134.943 173.723 142.848 172.613 144.375 C 171.227 143.819 172.337 143.957 171.227 143.819 C 170.118 143.681 185.373 133.279 186.343 133.14 C 187.314 133.003 188.562 134.528 188.562 134.528 Z " fill="rgb(183,194,212)"/><path d=" M 193.229 112.419 C 192.657 109.554 187.186 109.933 187.186 109.933 C 187.186 109.933 180.983 122.492 179.906 122.832 C 178.913 123.148 172.435 126.568 170.733 127.459 C 170.269 127.493 169.741 127.5 169.377 127.408 C 168.921 127.295 167.961 127.068 167.533 126.872 C 167.103 126.678 166.322 126.935 165.527 126.697 C 165.238 126.609 164.847 126.771 165.091 127.039 C 165.334 127.301 165.878 127.336 166.277 127.601 C 166.769 127.925 165.159 128.321 164.73 128.403 C 164.365 128.472 162.238 129.215 162.333 129.469 C 162.505 129.937 164.831 128.878 164.854 129.088 C 164.873 129.257 162.191 129.935 162.357 130.2 C 162.709 130.764 164.683 129.771 165.024 129.999 C 165.024 129.999 164.505 130.173 163.946 130.354 C 163.433 130.52 162.885 130.568 162.832 130.703 C 162.456 131.63 165.612 130.083 165.612 130.533 C 165.609 130.888 163.777 131.233 164.012 131.584 C 164.13 131.76 166.241 131.044 166.241 131.044 C 166.241 131.044 169.283 130.599 170.317 130.196 C 170.69 130.047 171.675 129.736 172.399 129.508 C 174.957 128.961 180.322 127.73 182.353 126.642 C 183.643 125.954 193.801 115.287 193.229 112.419" fill="rgb(201,142,125)"/><path d=" M 177.903 103.173 C 180.499 103.663 183.019 104.545 184.553 107.569 C 185.23 108.9 184.681 112.58 184.903 114.42 C 185.122 116.207 188.913 112.252 190.766 109.912 C 192.398 107.848 191.249 106.74 192.495 105.732 C 191.026 105.1 184.154 98.592 183.313 94.894 C 182.473 91.196 177.903 103.173 177.903 103.173 Z " fill="rgb(201,142,125)"/><path d=" M 180.109 88.771 C 184.381 88.239 187.529 88.571 188.202 93.947 C 188.874 99.331 184.198 105.067 179.994 106.006 C 178.002 106.445 177.057 105.633 175.991 102.727 C 175.358 102.703 174.761 102.568 174.741 102.123 C 175.003 101.197 175.137 100.478 175.19 99.873 C 175.057 99.213 174.247 97.443 174.169 96.742 C 173.497 91.357 175.833 89.309 180.109 88.771" fill="rgb(201,142,125)"/><path d=" M 187.843 91.225 C 185.407 86.93 179.81 87.031 175.858 89.854 C 174.966 90.491 174.626 91.276 174.498 91.904 C 172.665 93.84 173.646 94.861 174.825 95.024 C 176.022 95.187 180.999 97.037 181.259 97.395 C 181.51 97.757 181.743 95.676 182.574 96.337 C 183.71 97.245 183.325 99.449 183.325 99.449 L 187.555 102.208 C 187.555 102.208 191.251 97.244 187.843 91.225" fill="rgb(25,25,31)"/><path d=" M 188.562 105.752 C 188.009 106.731 184.471 110.883 184.471 110.883 C 184.557 113.112 183.969 115.987 184.117 119.33 C 184.182 120.866 185.991 122.733 187.222 123.159 C 189.91 124.079 190.433 127.124 188.769 128.997 C 186.43 131.63 181.918 134.003 181.918 134.003 C 181.918 134.003 187.037 135.059 195.079 139.036 C 199.165 141.052 202.582 139.931 202.569 138.827 C 202.222 111.299 191.863 105.439 190.613 103.792 C 190.651 104.292 190.031 103.152 188.562 105.752" fill="rgb(40,1,100)"/><path d=" M 190.259 103.221 C 191.71 104.188 193.422 105.797 194.871 106.867 C 197.179 108.921 197.849 109.954 198.87 112.616 C 202.197 121.254 205.343 131.892 203.031 140.167 C 202.893 140.66 199.447 140.839 195.079 139.036 C 198.686 132.309 198.222 127.648 196.145 120.301 C 194.433 114.244 193.173 110.8 192.098 109.012 C 191.209 107.525 190.087 106.308 188.515 105.497 C 188.555 105.435 190.302 103.721 190.259 103.221" fill="rgb(64,0,158)"/><path d=" M 194.917 113.627 C 193.45 110.963 189.694 113.151 189.694 113.151 C 189.694 113.151 188.963 126.784 188.002 127.46 C 187.375 127.901 184.685 130.288 182.731 131.74 L 179.921 133.675 C 178.582 133.371 175.745 132.948 175.289 133.215 C 174.83 133.481 173.521 134.597 173.259 134.835 C 172.998 135.075 172.562 135.776 172.506 136.033 C 172.435 136.32 172.753 136.74 173.006 136.413 C 173.259 136.079 174.287 135.248 174.287 135.248 C 174.287 135.248 173.779 136.259 173.894 136.471 C 174.029 136.703 174.189 136.673 174.189 136.673 L 174.642 136.384 C 174.642 136.384 174.327 136.808 174.51 137.08 C 174.602 137.203 174.91 137.066 175.091 136.942 C 174.941 137.164 174.687 137.347 175.043 137.527 C 175.307 137.664 175.778 137.343 175.778 137.343 C 175.778 137.343 175.523 137.675 175.659 137.852 C 175.778 138.04 176.467 137.983 176.749 137.883 C 177.031 137.792 180.109 136.919 181.003 136.608 L 181.293 136.495 C 182.918 135.845 191.929 131.52 192.962 130.606 C 194.099 129.601 196.385 116.291 194.917 113.627 Z " fill="rgb(201,142,125)"/><path d=" M 191.613 108.179 C 193.554 107.901 195.415 109.023 195.969 111.521 C 196.525 114.019 197.023 121.201 197.023 121.201 C 197.023 121.201 190.849 119.504 188.791 121.333 C 188.167 121.889 188.978 111.368 189.395 110.397 C 189.811 109.427 191.613 108.179 191.613 108.179" fill="rgb(40,1,100)"/><path d=" M 189.253 110.467 C 189.021 112.078 188.395 118.83 188.461 122.059 C 189.449 120.937 190.338 120.247 191.458 120.379 C 191.458 120.379 191.557 108.885 190.899 108.82 C 190.239 108.755 189.318 110.006 189.253 110.467 Z " fill="rgb(64,0,158)"/><path d=" M 187.623 109.923 C 187.45 108.963 188.127 107.083 188.365 106.732 C 188.347 106.385 188.422 105.923 188.433 105.711 C 188.441 105.279 188.378 102.795 188.337 101.475 C 187.905 101.503 187.415 101.16 187.071 100.621 C 186.501 99.718 187.354 98.056 187.354 98.056 C 187.695 98.268 188.831 99.049 189.057 99.742 C 189.866 100.611 192.127 102.484 191.126 104.739 C 191.31 105.543 191.227 107.603 190.173 109.111 L 190.207 109.121 C 189.907 110.121 189.257 111.832 187.721 112.516 C 186.358 113.12 186.769 111.096 187.623 109.923" fill="rgb(25,25,31)"/><path d=" M 186.774 100.613 C 187.019 101.342 187.086 104.459 188.226 105.211 C 187.713 106.008 187.254 106.445 188.094 107.54 C 187.058 108.018 186.698 109.081 187.378 110.266 C 187.086 110.584 185.477 111.789 186.346 112.708 C 185.127 113.511 182.809 116.918 182.991 119.309 C 183.251 119.53 184.186 117.327 184.186 117.327 L 185.353 114.878 C 185.353 114.878 184.519 117.919 184.551 118.089 C 184.582 118.263 185.547 116.324 185.547 116.324 L 184.701 118.599 L 186.575 116.793 C 186.575 116.793 187.547 112.185 188.378 110.504 C 189.209 108.823 190.115 103.168 188.774 101.566 C 187.434 99.969 187.318 99.985 187.155 100.078 C 186.991 100.163 186.774 100.613 186.774 100.613" fill="rgb(36,36,40)"/><path d=" M 187.942 112.419 C 188.123 113.449 187.855 117.042 186.306 118.318 C 184.755 119.596 183.723 120.128 183.723 120.128 L 185.159 118.161 L 183.647 119.773 L 184.265 118.205 L 183.251 119.53 C 183.251 119.53 184.631 115.828 185.731 114.336 C 186.834 112.847 187.491 111.195 187.979 110.927 C 188.463 110.666 188.153 108.18 188.723 107.727 C 189.295 107.271 188.879 105.108 189.287 104.742 C 189.701 104.376 188.075 101.203 187.657 100.58 C 187.33 100.092 188.262 99.645 188.903 100.6 C 189.539 101.551 190.47 104.409 190.325 105.975 C 190.185 107.533 187.942 112.419 187.942 112.419" fill="rgb(25,25,31)"/></g></g></svg>