<?xml version="1.0" encoding="UTF-8" standalone="no"?><!-- Generator: Gravit.io --><svg xmlns="http://www.w3.org/2000/svg" xmlns:xlink="http://www.w3.org/1999/xlink" style="isolation:isolate" viewBox="0 0 300 300" width="300pt" height="300pt"><defs><clipPath id="_clipPath_raxENCXu1rZRVSzhKQ7yKbopXE2yYKZu"><rect width="300" height="300"/></clipPath></defs><g clip-path="url(#_clipPath_raxENCXu1rZRVSzhKQ7yKbopXE2yYKZu)"><path d=" M 93.65 224.189 L 19.126 224.189 L 19.126 84.572 L 93.65 84.572 L 93.65 224.189 Z " fill="rgb(0,26,51)"/><path d=" M 93.65 191.928 L 19.126 191.928 L 19.126 190.067 L 93.65 190.067 L 93.65 191.928 Z " fill="rgb(23,51,77)"/><path d=" M 93.65 137.533 L 19.126 137.533 L 19.126 135.672 L 93.65 135.672 L 93.65 137.533 Z " fill="rgb(23,51,77)"/><path d=" M 83.788 181.123 L 40.638 181.123 L 40.638 145.112 L 83.788 145.112 L 83.788 181.123 Z " fill="rgb(0,34,66)"/><path d=" M 88.485 158.573 C 86.873 158.573 86.774 161.303 86.774 163.908 C 86.774 166.513 87.23 172.643 87.63 174.176 C 88.029 175.708 88.942 175.708 89.341 174.176 C 89.741 172.643 90.197 166.513 90.197 163.908 C 90.197 161.303 89.998 158.573 88.485 158.573 Z " fill="rgb(255,255,255)"/><path d=" M 83.788 128.288 L 40.638 128.288 L 40.638 92.277 L 83.788 92.277 L 83.788 128.288 Z " fill="rgb(0,34,66)"/><path d=" M 88.485 107.177 C 86.873 107.177 86.774 109.908 86.774 112.513 C 86.774 115.117 87.23 121.248 87.63 122.78 C 88.029 124.313 88.942 124.313 89.341 122.78 C 89.741 121.248 90.197 115.117 90.197 112.513 C 90.197 109.908 89.998 107.177 88.485 107.177 Z " fill="rgb(255,255,255)"/><path d=" M 83.788 174.156 L 40.638 174.156 L 40.638 173.035 L 83.788 173.035 L 83.788 174.156 Z " fill="rgb(23,51,77)"/><path d=" M 83.788 121.545 L 40.638 121.545 L 40.638 120.425 L 83.788 120.425 L 83.788 121.545 Z " fill="rgb(23,51,77)"/><path d=" M 63.28 105.408 C 59.818 106.225 53.262 108.704 50.872 111.935 C 48.481 115.165 49.049 119.247 52.086 119.247 C 55.124 119.247 64.93 119.247 67.192 119.247 C 69.453 119.247 70.322 114.777 69.806 111.676 C 69.289 108.575 67.376 104.44 63.28 105.408" fill="rgb(204,86,20)"/><path d=" M 57.049 117.217 C 56.156 116.584 54.158 114.909 51.833 114.813 C 49.506 114.716 50.437 117.316 51.601 118.533 C 52.764 119.751 56.098 120.021 57.52 119.455 C 58.941 118.888 57.638 117.635 57.049 117.217" fill="rgb(189,79,15)"/><path d=" M 68.772 104.244 C 68.772 104.244 63.925 106.765 61.793 109.349 C 59.66 111.935 63.666 116.911 66.574 116.652 C 69.482 116.393 70.517 115.101 70.581 112.193 C 70.633 109.868 70.077 108.045 70.469 107.043 C 71.162 105.264 71.897 105.236 71.55 104.309 C 71.228 103.443 70.932 102.996 68.772 104.244 Z " fill="rgb(189,79,15)"/><path d=" M 56.638 115.153 C 57.366 115.217 58.281 116.699 58.666 117.471 C 59.053 118.244 59.344 119.532 57.362 119.54 C 55.382 119.548 54.858 119.432 54.658 118.485 C 54.417 117.341 54.465 114.96 56.638 115.153" fill="rgb(92,102,10)"/><path d=" M 62.857 115.153 C 62.129 115.217 61.214 116.699 60.828 117.471 C 60.442 118.244 60.152 119.532 62.132 119.54 C 64.113 119.548 64.637 119.432 64.837 118.485 C 65.078 117.341 65.03 114.96 62.857 115.153" fill="rgb(92,102,10)"/><path d=" M 48.034 116.477 C 48.828 116.151 50.37 115.791 51.602 116.101 C 52.834 116.413 54.162 117.645 53.676 118.197 C 52.566 119.457 50.345 119.892 48.965 119.239 C 46.814 118.22 46.344 117.173 48.034 116.477" fill="rgb(92,102,10)"/><path d=" M 66.246 117.556 C 66.849 116.947 68.129 116.013 69.385 115.82 C 70.641 115.628 72.345 116.245 72.112 116.943 C 71.581 118.535 69.704 119.8 68.178 119.736 C 65.801 119.636 64.96 118.855 66.246 117.556 Z " fill="rgb(92,102,10)"/><path d=" M 45.832 118.485 C 45.954 119.571 46.872 120.425 47.988 120.425 L 71.544 120.425 C 72.66 120.425 73.577 119.571 73.7 118.485 L 45.832 118.485 Z " fill="rgb(49,66,82)"/><path d=" M 69.937 103.66 L 71.454 105.264 L 72.61 104.373 C 72.61 104.373 74.814 104.761 75.04 103.631 C 75.326 102.197 73.813 102.371 73.813 102.371 C 73.813 102.371 74.653 100.884 73.36 100.496 C 72.068 100.108 71.692 101.433 71.453 101.885 C 71.141 102.477 69.937 103.66 69.937 103.66" fill="rgb(255,255,255)"/><path d=" M 35.394 132.096 L 23.25 132.096 L 23.25 88.037 L 35.394 88.037 L 35.394 132.096 Z " fill="rgb(49,66,82)"/><path d=" M 33.522 97.365 L 28.069 97.365 L 28.069 96.196 L 33.522 96.196 L 33.522 97.365 Z " fill="rgb(88,89,91)"/><path d=" M 33.522 94.941 L 28.069 94.941 L 28.069 93.772 L 33.522 93.772 L 33.522 94.941 Z " fill="rgb(88,89,91)"/><path d=" M 26.88 97.365 L 25.121 97.365 L 25.121 96.196 L 26.88 96.196 L 26.88 97.365 Z " fill="rgb(88,89,91)"/><path d=" M 26.88 94.941 L 25.121 94.941 L 25.121 93.772 L 26.88 93.772 L 26.88 94.941 Z " fill="rgb(88,89,91)"/><path d=" M 33.522 101.091 L 25.121 101.091 L 25.121 122.643 L 33.522 122.643 L 33.522 101.091 Z " fill="rgb(87,117,145)"/><path d=" M 32.72 120.783 L 28.6 120.783 L 28.6 120.415 L 32.72 120.415 L 32.72 120.783 Z " fill="rgb(41,40,39)"/><path d=" M 32.72 118.425 L 28.6 118.425 L 28.6 118.057 L 32.72 118.057 L 32.72 118.425 Z " fill="rgb(41,40,39)"/><path d=" M 32.72 116.047 L 28.6 116.047 L 28.6 115.679 L 32.72 115.679 L 32.72 116.047 Z " fill="rgb(41,40,39)"/><path d=" M 32.72 113.555 L 26.157 113.555 L 26.157 113.168 L 32.72 113.168 L 32.72 113.555 Z " fill="rgb(41,40,39)"/><path d=" M 32.72 107.001 L 26.157 107.001 L 26.157 106.613 L 32.72 106.613 L 32.72 107.001 Z " fill="rgb(41,40,39)"/><path d=" M 32.72 111.815 L 31.274 111.815 L 31.274 110.647 L 32.72 110.647 L 32.72 111.815 Z " fill="rgb(255,255,255)"/><path d=" M 30.045 111.815 L 28.6 111.815 L 28.6 110.647 L 30.045 110.647 L 30.045 111.815 Z " fill="rgb(255,255,255)"/><path d=" M 27.602 111.815 L 26.157 111.815 L 26.157 110.647 L 27.602 110.647 L 27.602 111.815 Z " fill="rgb(255,255,255)"/><path d=" M 32.72 109.487 L 31.274 109.487 L 31.274 108.32 L 32.72 108.32 L 32.72 109.487 Z " fill="rgb(255,255,255)"/><path d=" M 30.045 109.487 L 28.6 109.487 L 28.6 108.32 L 30.045 108.32 L 30.045 109.487 Z " fill="rgb(255,255,255)"/><path d=" M 27.602 109.487 L 26.157 109.487 L 26.157 108.32 L 27.602 108.32 L 27.602 109.487 Z " fill="rgb(255,255,255)"/><path d=" M 32.72 105.509 L 31.274 105.509 L 31.274 104.341 L 32.72 104.341 L 32.72 105.509 Z " fill="rgb(255,255,255)"/><path d=" M 30.045 105.509 L 28.6 105.509 L 28.6 104.341 L 30.045 104.341 L 30.045 105.509 Z " fill="rgb(255,255,255)"/><path d=" M 27.602 105.509 L 26.157 105.509 L 26.157 104.341 L 27.602 104.341 L 27.602 105.509 Z " fill="rgb(255,255,255)"/><path d=" M 32.72 103.183 L 31.274 103.183 L 31.274 102.015 L 32.72 102.015 L 32.72 103.183 Z " fill="rgb(255,255,255)"/><path d=" M 30.045 103.183 L 28.6 103.183 L 28.6 102.015 L 30.045 102.015 L 30.045 103.183 Z " fill="rgb(255,255,255)"/><path d=" M 27.602 103.183 L 26.157 103.183 L 26.157 102.015 L 27.602 102.015 L 27.602 103.183 Z " fill="rgb(255,255,255)"/><path d=" M 27.494 120.599 C 27.494 120.939 27.22 121.213 26.88 121.213 C 26.541 121.213 26.265 120.939 26.265 120.599 C 26.265 120.26 26.541 119.984 26.88 119.984 C 27.22 119.984 27.494 120.26 27.494 120.599 Z " fill="rgb(255,255,255)"/><path d=" M 27.494 118.241 C 27.494 118.581 27.22 118.856 26.88 118.856 C 26.541 118.856 26.265 118.581 26.265 118.241 C 26.265 117.901 26.541 117.627 26.88 117.627 C 27.22 117.627 27.494 117.901 27.494 118.241 Z " fill="rgb(255,255,255)"/><path d=" M 27.494 115.863 C 27.494 116.203 27.22 116.477 26.88 116.477 C 26.541 116.477 26.265 116.203 26.265 115.863 C 26.265 115.524 26.541 115.248 26.88 115.248 C 27.22 115.248 27.494 115.524 27.494 115.863 Z " fill="rgb(255,255,255)"/><path d=" M 31.274 127.477 C 31.274 128.555 30.4 129.429 29.322 129.429 C 28.244 129.429 27.37 128.555 27.37 127.477 C 27.37 126.399 28.244 125.525 29.322 125.525 C 30.4 125.525 31.274 126.399 31.274 127.477 Z " fill="rgb(95,128,158)"/><path d=" M 33.522 91.211 L 25.121 91.211 L 25.121 89.877 L 33.522 89.877 L 33.522 91.211 Z " fill="rgb(227,25,55)"/><path d=" M 35.394 185.147 L 23.25 185.147 L 23.25 141.088 L 35.394 141.088 L 35.394 185.147 Z " fill="rgb(49,66,82)"/><path d=" M 33.522 150.416 L 28.069 150.416 L 28.069 149.247 L 33.522 149.247 L 33.522 150.416 Z " fill="rgb(88,89,91)"/><path d=" M 33.522 147.992 L 28.069 147.992 L 28.069 146.823 L 33.522 146.823 L 33.522 147.992 Z " fill="rgb(88,89,91)"/><path d=" M 26.88 150.416 L 25.121 150.416 L 25.121 149.247 L 26.88 149.247 L 26.88 150.416 Z " fill="rgb(88,89,91)"/><path d=" M 26.88 147.992 L 25.121 147.992 L 25.121 146.823 L 26.88 146.823 L 26.88 147.992 Z " fill="rgb(88,89,91)"/><path d=" M 33.639 154.089 L 25.238 154.089 L 25.238 175.642 L 33.639 175.642 L 33.639 154.089 Z " fill="rgb(87,117,145)"/><path d=" M 32.72 173.833 L 28.6 173.833 L 28.6 173.465 L 32.72 173.465 L 32.72 173.833 Z " fill="rgb(41,40,39)"/><path d=" M 32.72 171.476 L 28.6 171.476 L 28.6 171.108 L 32.72 171.108 L 32.72 171.476 Z " fill="rgb(41,40,39)"/><path d=" M 32.72 169.097 L 28.6 169.097 L 28.6 168.729 L 32.72 168.729 L 32.72 169.097 Z " fill="rgb(41,40,39)"/><path d=" M 32.72 166.605 L 26.157 166.605 L 26.157 166.217 L 32.72 166.217 L 32.72 166.605 Z " fill="rgb(41,40,39)"/><path d=" M 32.72 160.052 L 26.157 160.052 L 26.157 159.664 L 32.72 159.664 L 32.72 160.052 Z " fill="rgb(41,40,39)"/><path d=" M 32.72 164.865 L 31.274 164.865 L 31.274 163.697 L 32.72 163.697 L 32.72 164.865 Z " fill="rgb(255,255,255)"/><path d=" M 30.045 164.865 L 28.6 164.865 L 28.6 163.697 L 30.045 163.697 L 30.045 164.865 Z " fill="rgb(255,255,255)"/><path d=" M 27.602 164.865 L 26.157 164.865 L 26.157 163.697 L 27.602 163.697 L 27.602 164.865 Z " fill="rgb(255,255,255)"/><path d=" M 32.72 162.537 L 31.274 162.537 L 31.274 161.371 L 32.72 161.371 L 32.72 162.537 Z " fill="rgb(255,255,255)"/><path d=" M 30.045 162.537 L 28.6 162.537 L 28.6 161.371 L 30.045 161.371 L 30.045 162.537 Z " fill="rgb(255,255,255)"/><path d=" M 27.602 162.537 L 26.157 162.537 L 26.157 161.371 L 27.602 161.371 L 27.602 162.537 Z " fill="rgb(255,255,255)"/><path d=" M 32.72 158.56 L 31.274 158.56 L 31.274 157.392 L 32.72 157.392 L 32.72 158.56 Z " fill="rgb(255,255,255)"/><path d=" M 30.045 158.56 L 28.6 158.56 L 28.6 157.392 L 30.045 157.392 L 30.045 158.56 Z " fill="rgb(255,255,255)"/><path d=" M 27.602 158.56 L 26.157 158.56 L 26.157 157.392 L 27.602 157.392 L 27.602 158.56 Z " fill="rgb(255,255,255)"/><path d=" M 32.72 156.232 L 31.274 156.232 L 31.274 155.065 L 32.72 155.065 L 32.72 156.232 Z " fill="rgb(255,255,255)"/><path d=" M 30.045 156.232 L 28.6 156.232 L 28.6 155.065 L 30.045 155.065 L 30.045 156.232 Z " fill="rgb(255,255,255)"/><path d=" M 27.602 156.232 L 26.157 156.232 L 26.157 155.065 L 27.602 155.065 L 27.602 156.232 Z " fill="rgb(255,255,255)"/><path d=" M 27.494 173.649 C 27.494 173.989 27.22 174.264 26.88 174.264 C 26.541 174.264 26.265 173.989 26.265 173.649 C 26.265 173.311 26.541 173.035 26.88 173.035 C 27.22 173.035 27.494 173.311 27.494 173.649 Z " fill="rgb(255,255,255)"/><path d=" M 27.494 171.292 C 27.494 171.632 27.22 171.907 26.88 171.907 C 26.541 171.907 26.265 171.632 26.265 171.292 C 26.265 170.952 26.541 170.677 26.88 170.677 C 27.22 170.677 27.494 170.952 27.494 171.292 Z " fill="rgb(255,255,255)"/><path d=" M 27.494 168.913 C 27.494 169.253 27.22 169.528 26.88 169.528 C 26.541 169.528 26.265 169.253 26.265 168.913 C 26.265 168.573 26.541 168.299 26.88 168.299 C 27.22 168.299 27.494 168.573 27.494 168.913 Z " fill="rgb(255,255,255)"/><path d=" M 31.274 180.528 C 31.274 181.605 30.4 182.479 29.322 182.479 C 28.244 182.479 27.37 181.605 27.37 180.528 C 27.37 179.449 28.244 178.575 29.322 178.575 C 30.4 178.575 31.274 179.449 31.274 180.528 Z " fill="rgb(95,128,158)"/><path d=" M 33.522 144.261 L 25.121 144.261 L 25.121 142.928 L 33.522 142.928 L 33.522 144.261 Z " fill="rgb(227,25,55)"/><path d=" M 89.006 220.128 L 23.772 220.128 L 23.772 196.4 L 89.006 196.4 L 89.006 220.128 Z " fill="rgb(0,34,66)"/><path d=" M 61.128 201.08 L 50.474 201.08 C 49.877 201.08 49.389 200.592 49.389 199.995 L 49.389 199.995 C 49.389 199.397 49.877 198.909 50.474 198.909 L 61.128 198.909 C 61.725 198.909 62.213 199.397 62.213 199.995 L 62.213 199.995 C 62.213 200.592 61.725 201.08 61.128 201.08 Z " fill="rgb(41,40,39)"/><path d=" M 94.948 132.861 C 94.948 132.861 98.305 143.347 100.321 145.921 C 102.337 148.496 106.26 147.341 107.301 144.641 C 108.344 141.941 107.457 141.088 107.457 141.088 L 98.402 128.901 L 94.948 132.861" fill="rgb(249,170,109)"/><path d=" M 70.873 141.088 C 69.301 140.225 63.242 134.207 61.485 132.725 C 59.728 131.244 56.956 129.911 54.714 129.073 C 52.474 128.237 52.104 130.613 53.504 132.595 C 55.496 135.413 58.53 134.897 59.882 137.172 C 61.389 139.708 67.204 150.901 72.574 147.407 C 74.464 146.179 74.636 139.861 74.636 139.861 L 70.873 141.088" fill="rgb(249,170,109)"/><path d=" M 88.418 116.851 C 89.188 116.692 90.757 115.432 91.021 114.711 C 90.64 112.984 90.893 110.195 90.893 110.195 L 85.152 109.305 C 85.152 109.305 84.949 113.129 84.632 114.8 C 84.966 115.913 86.836 117.179 88.418 116.851 Z " fill="rgb(249,170,109)"/><path d=" M 95.209 103.749 C 95.022 102.867 94.126 102.991 93.809 103.064 C 93.385 99.317 91.233 96.529 88.3 96.423 C 85.298 96.313 82.942 98.856 82.316 102.649 C 82.018 102.553 81.113 102.348 80.86 103.227 C 80.553 104.284 81.029 105.904 82.214 106.347 L 82.225 106.349 C 82.302 107.023 82.442 107.669 82.68 108.233 C 83.852 111.017 86.074 113.163 87.688 113.221 C 89.341 113.283 91.53 111.407 92.88 108.604 C 93.145 108.053 93.389 107.427 93.572 106.775 L 93.632 106.763 C 94.845 106.407 95.437 104.825 95.209 103.749" fill="rgb(249,170,109)"/><path d=" M 81.125 102.741 C 80.781 100.087 82.434 97.425 83.362 96.376 C 85.97 93.432 90.773 93.849 92.236 95.447 C 95.394 98.899 95.312 101.396 94.393 103.089 C 93.701 105.735 92.822 110.104 88.013 110.104 C 84.984 110.104 82.12 105.761 81.125 102.741" fill="rgb(54,53,54)"/><path d=" M 107.104 136.085 C 105.485 128.031 103.704 120.101 101.328 118.637 C 98.952 117.171 90.917 114.553 90.917 114.553 L 84.737 114.553 C 84.737 114.553 76.701 117.171 74.325 118.637 C 71.949 120.101 70.168 128.031 68.55 136.085 C 68.186 137.892 67.756 139.911 67.31 141.941 C 70.32 146.823 74.298 143.595 74.298 143.595 L 77.312 129.996 L 79.318 143.595 L 87.722 143.595 L 87.932 143.595 L 96.334 143.595 L 98.341 129.996 L 100.166 142.373 C 100.166 142.373 105.037 147.355 107.798 143.232 C 108.388 140.641 107.466 137.892 107.104 136.085" fill="rgb(0,38,77)"/><path d=" M 77.368 216.859 C 77.368 216.859 70.617 220.137 68.749 221.329 C 66.881 222.52 67.597 223.669 67.597 223.669 L 81.246 223.669 C 81.246 223.669 81.44 218.355 81.056 217.205 C 80.672 216.056 77.368 216.859 77.368 216.859" fill="rgb(189,79,15)"/><path d=" M 76.158 177.149 C 76.158 177.149 75.888 189.571 75.357 194.652 C 74.504 202.816 73.346 218.136 73.346 218.136 L 81.97 218.136 C 81.97 218.136 83.681 198.673 84.632 190.916 C 85.298 185.476 86.63 177.149 86.63 177.149 L 76.158 177.149" fill="rgb(54,53,54)"/><path d=" M 81.246 223.149 L 67.462 223.149 L 67.462 224.189 L 81.246 224.189 L 81.246 223.149 Z " fill="rgb(133,37,27)"/><path d=" M 99.005 216.859 C 99.005 216.859 105.756 220.137 107.624 221.329 C 109.492 222.52 108.776 223.669 108.776 223.669 L 95.126 223.669 C 95.126 223.669 94.933 218.355 95.317 217.205 C 95.701 216.056 99.005 216.859 99.005 216.859" fill="rgb(189,79,15)"/><path d=" M 100.214 177.149 C 100.214 177.149 100.485 189.571 101.016 194.652 C 101.869 202.816 103.028 218.136 103.028 218.136 L 94.402 218.136 C 94.402 218.136 92.692 198.673 91.741 190.916 C 91.074 185.476 89.742 177.149 89.742 177.149 L 100.214 177.149" fill="rgb(54,53,54)"/><path d=" M 95.126 223.149 L 108.91 223.149 L 108.91 224.189 L 95.126 224.189 L 95.126 223.149 Z " fill="rgb(133,37,27)"/><path d=" M 101.504 164.379 C 100.91 154.061 96.521 143.595 96.521 143.595 L 87.722 143.595 L 86.508 143.595 L 79.318 143.595 C 79.318 143.595 74.93 154.061 74.336 164.379 C 73.741 174.695 72.752 185.783 72.752 185.783 L 86.216 185.783 L 88.013 185.783 L 103.088 185.783 C 103.088 185.783 102.098 174.695 101.504 164.379 Z " fill="rgb(166,26,17)"/><path d=" M 94.948 96.419 L 81.078 96.419 L 81.078 101.584 L 94.948 101.584 L 94.948 96.419 Z " fill="rgb(166,26,17)"/><path d=" M 96.721 144.089 L 79.138 144.089 L 79.138 142.373 L 96.721 142.373 L 96.721 144.089 Z " fill="rgb(151,25,16)"/><path d=" M 83.369 99.356 C 82.118 99.547 79.509 100.28 78.321 99.001 C 77.133 97.723 76.401 93.516 81.078 92.253 C 85.756 90.992 91.289 92.623 94.041 93.841 C 96.793 95.06 98.913 95.792 98.294 97.128 C 97.674 98.465 94.948 98.465 91.462 98.243 C 89.661 98.128 85.157 99.083 83.369 99.356 Z " fill="rgb(151,25,16)"/><path d=" M 87.549 111.719 C 84.556 111.719 81.518 115.704 81.518 115.704 L 93.92 115.577 C 93.92 115.577 90.541 111.719 87.549 111.719 Z " fill="rgb(218,217,215)"/><path d=" M 170.917 137.28 C 170.917 137.28 168.966 136.519 167.9 136.445 C 166.834 136.373 166.417 137.684 167.9 138.34 C 170.026 139.28 171.696 139.579 171.696 139.579 L 170.917 137.28" fill="rgb(0,26,51)"/><path d=" M 197.08 137.28 C 197.08 137.28 199.03 136.519 200.097 136.445 C 201.164 136.373 201.58 137.684 200.097 138.34 C 197.972 139.28 196.301 139.579 196.301 139.579 L 197.08 137.28" fill="rgb(0,26,51)"/><path d=" M 192.804 150.877 L 175.329 150.877 C 172.716 150.877 170.598 148.76 170.598 146.148 L 170.598 134.764 L 197.533 134.764 L 197.533 146.148 C 197.533 148.76 195.416 150.877 192.804 150.877 Z " fill="rgb(195,206,217)"/><path d=" M 199.765 133.177 L 168.366 133.177 L 168.366 134.9 L 199.765 134.9 L 199.765 133.177" fill="rgb(95,128,158)"/><path d=" M 180.808 133.992 L 180.808 133.289 C 180.808 131.492 182.269 130.031 184.065 130.031 C 185.862 130.031 187.322 131.492 187.322 133.289 L 187.322 133.992 L 188.041 133.992 L 188.041 133.289 C 188.041 131.096 186.257 129.312 184.065 129.312 C 181.873 129.312 180.089 131.096 180.089 133.289 L 180.089 133.992 L 180.808 133.992" fill="rgb(95,128,158)"/><path d=" M 242.338 224.189 L 131.126 224.189 L 131.126 150.923 L 242.338 150.923 L 242.338 224.189 Z " fill="rgb(0,26,51)"/><path d=" M 242.338 163.741 L 131.126 163.741 L 131.126 161.788 L 242.338 161.788 L 242.338 163.741 Z " fill="rgb(23,51,77)"/><path d=" M 230.824 157.112 C 230.824 158.184 229.954 159.052 228.884 159.052 C 227.812 159.052 226.942 158.184 226.942 157.112 C 226.942 156.04 227.812 155.172 228.884 155.172 C 229.954 155.172 230.824 156.04 230.824 157.112 Z " fill="rgb(95,128,158)"/><path d=" M 221.849 157.112 C 221.849 158.184 220.981 159.052 219.909 159.052 C 218.837 159.052 217.969 158.184 217.969 157.112 C 217.969 156.04 218.837 155.172 219.909 155.172 C 220.981 155.172 221.849 156.04 221.849 157.112 Z " fill="rgb(95,128,158)"/><path d=" M 212.876 157.112 C 212.876 158.184 212.006 159.052 210.936 159.052 C 209.864 159.052 208.994 158.184 208.994 157.112 C 208.994 156.04 209.864 155.172 210.936 155.172 C 212.006 155.172 212.876 156.04 212.876 157.112 Z " fill="rgb(95,128,158)"/><path d=" M 203.901 157.112 C 203.901 158.184 203.033 159.052 201.961 159.052 C 200.889 159.052 200.021 158.184 200.021 157.112 C 200.021 156.04 200.889 155.172 201.961 155.172 C 203.033 155.172 203.901 156.04 203.901 157.112 Z " fill="rgb(95,128,158)"/><path d=" M 232.292 170.025 L 198.552 170.025 L 198.552 167.868 L 232.292 167.868 L 232.292 170.025 Z " fill="rgb(49,66,82)"/><path d=" M 174.146 157.112 C 174.146 158.184 173.277 159.052 172.206 159.052 C 171.134 159.052 170.265 158.184 170.265 157.112 C 170.265 156.04 171.134 155.172 172.206 155.172 C 173.277 155.172 174.146 156.04 174.146 157.112 Z " fill="rgb(95,128,158)"/><path d=" M 165.172 157.112 C 165.172 158.184 164.304 159.052 163.232 159.052 C 162.16 159.052 161.292 158.184 161.292 157.112 C 161.292 156.04 162.16 155.172 163.232 155.172 C 164.304 155.172 165.172 156.04 165.172 157.112 Z " fill="rgb(95,128,158)"/><path d=" M 156.198 157.112 C 156.198 158.184 155.329 159.052 154.257 159.052 C 153.186 159.052 152.317 158.184 152.317 157.112 C 152.317 156.04 153.186 155.172 154.257 155.172 C 155.329 155.172 156.198 156.04 156.198 157.112 Z " fill="rgb(95,128,158)"/><path d=" M 147.224 157.112 C 147.224 158.184 146.356 159.052 145.284 159.052 C 144.212 159.052 143.344 158.184 143.344 157.112 C 143.344 156.04 144.212 155.172 145.284 155.172 C 146.356 155.172 147.224 156.04 147.224 157.112 Z " fill="rgb(95,128,158)"/><path d=" M 164.857 147.94 L 160.768 149.579 L 160.041 147.768 L 164.13 146.128 L 164.857 147.94 Z " fill="rgb(195,206,217)"/><path d=" M 133.638 146.128 L 133.638 146.376 C 133.638 148.816 135.636 150.813 138.076 150.813 L 158.016 150.813 C 160.456 150.813 162.453 148.816 162.453 146.376 L 162.453 146.128 L 133.638 146.128 Z " fill="rgb(49,66,82)"/><path d=" M 169.734 148.221 L 164.142 148.221 L 164.142 146.128 L 169.734 146.128 L 169.734 148.221 Z " fill="rgb(195,206,217)"/><path d=" M 179.184 145.607 L 168.956 145.607 L 168.956 148.743 L 179.184 148.743 C 180.046 148.743 180.752 148.037 180.752 147.175 C 180.752 146.312 180.046 145.607 179.184 145.607 Z " fill="rgb(0,26,51)"/><path d=" M 175.614 170.025 L 141.874 170.025 L 141.874 167.868 L 175.614 167.868 L 175.614 170.025 Z " fill="rgb(49,66,82)"/><path d=" M 234.117 142.921 C 234.117 142.921 228.176 142.921 224.581 142.921 C 223.81 142.921 222.494 143.989 221.737 143.879 C 221.313 143.816 220.48 142.921 220.48 142.921 C 219.912 142.921 219.449 142.547 219.449 142.088 C 219.449 141.629 219.912 141.255 220.48 141.255 L 234.117 141.255 C 234.685 141.255 235.148 141.629 235.148 142.088 C 235.148 142.547 234.685 142.921 234.117 142.921" fill="rgb(0,26,51)"/><path d=" M 206.652 139.151 L 206.652 147.575 C 206.652 149.409 208.153 150.911 209.989 150.911 L 218.401 150.911 C 220.236 150.911 221.737 149.409 221.737 147.575 L 221.737 139.151 L 206.652 139.151 Z " fill="rgb(195,206,217)"/><path d=" M 221.928 140.024 L 206.56 140.024 C 206.078 140.024 205.685 139.631 205.685 139.151 C 205.685 138.669 206.078 138.276 206.56 138.276 L 221.928 138.276 C 222.409 138.276 222.802 138.669 222.802 139.151 C 222.802 139.631 222.409 140.024 221.928 140.024 Z " fill="rgb(95,128,158)"/><path d=" M 232.817 139.151 C 231.49 140.401 228.604 142.92 228.905 143.887 C 229.206 144.853 232.825 145.364 234.332 145.031 C 235.84 144.697 239.156 142.495 239.608 142.82 C 240.061 143.147 250.914 146.128 250.914 146.128 L 252.465 139.579 C 252.465 139.579 236.152 136.003 232.817 139.151 Z " fill="rgb(249,170,109)"/><path d=" M 260.73 216.008 C 260.73 216.008 252.618 219.947 250.376 221.377 C 248.132 222.808 248.992 224.189 248.992 224.189 L 265.389 224.189 C 265.389 224.189 265.622 217.804 265.161 216.424 C 264.7 215.043 260.73 216.008 260.73 216.008 Z " fill="rgb(189,79,15)"/><path d=" M 272.162 216.008 C 272.162 216.008 264.052 219.947 261.808 221.377 C 259.564 222.808 260.424 224.189 260.424 224.189 L 276.822 224.189 C 276.822 224.189 277.054 217.804 276.593 216.424 C 276.132 215.043 272.162 216.008 272.162 216.008 Z " fill="rgb(189,79,15)"/><path d=" M 276.822 224.189 L 260.262 224.189 L 260.262 223.267 L 276.822 223.267 L 276.822 224.189 Z " fill="rgb(133,37,27)"/><path d=" M 265.446 217.447 C 265.5 214.228 263.802 193.675 263.802 190.551 C 263.802 188.781 265.008 178.924 265.444 175.148 L 255.081 173.907 C 254.728 180.156 253.272 184.199 254.205 194.343 C 254.405 196.52 257.005 214.439 257.182 217.447 L 265.446 217.447 Z " fill="rgb(54,53,54)"/><path d=" M 277.236 217.447 L 276.914 175.617 L 267.357 175.617 L 269.266 217.447 L 277.236 217.447 Z " fill="rgb(54,53,54)"/><path d=" M 258.834 99.301 C 259.193 97.925 259.564 97.261 261.02 96.249 C 262.477 95.237 268.17 94.229 270.93 96.569 C 273.692 98.911 272.602 103.239 272.152 104.72 C 271.641 106.4 270.717 108.483 270.398 110.807 C 270.254 111.857 271.242 114.209 271.565 114.812 L 271.569 114.819 C 270.438 116.183 268.357 116.721 266.689 116.884 C 265.744 116.976 264.932 116.893 264.165 116.709 C 264.273 116.571 264.368 116.423 264.428 116.255 C 264.638 115.66 264.534 113.143 264.014 112.56 C 263.277 111.731 262.406 111.788 261.328 112.008 C 259.9 112.299 260.221 110.455 259.322 110.155 C 258.736 109.957 259.116 109.655 259.264 109.355 C 259.166 109.151 258.717 109.044 258.624 108.865 C 258.396 108.429 258.9 108.267 258.829 108.041 C 258.652 107.475 257.044 107.452 257.192 106.843 C 257.446 105.789 259.293 103.739 259.034 103.049 C 258.512 101.657 258.494 100.608 258.834 99.301" fill="rgb(249,170,109)"/><path d=" M 258.949 98.895 C 258.949 98.895 260.86 98.159 263.454 100.128 C 265.114 101.388 265.172 102.868 267.385 103.483 C 269.292 104.012 268.948 105.369 268.948 105.369 L 270.588 109.989 C 270.588 109.989 273.468 107.548 273.714 102.123 C 273.952 96.904 272.38 96.275 272.38 96.275 C 272.38 96.275 269.569 94.092 263.952 94.524 C 260.789 94.767 259.3 97.373 258.949 98.895" fill="rgb(54,53,54)"/><path d=" M 266.92 103.648 C 266.92 103.648 266.981 101.929 268.609 102.131 C 270.237 102.333 270.426 104.639 268.649 106 C 266.87 107.363 266.92 103.648 266.92 103.648 Z " fill="rgb(249,170,109)"/><path d=" M 278.005 92.464 L 263.244 86.997 L 258.822 98.936 L 273.582 104.403 L 278.005 92.464 Z " fill="rgb(0,38,77)"/><path d=" M 279.148 177.685 C 279.154 171.467 279.16 139.275 278.525 130.659 C 277.644 118.677 271.565 114.812 271.565 114.812 L 264.165 116.709 C 264.165 116.709 260.41 119.672 258.94 123.524 C 257.165 128.172 255.817 135.44 255.568 136.732 C 255.168 138.808 254.025 170.103 253.753 177.685 L 279.148 177.685" fill="rgb(0,38,77)"/><path d=" M 272.136 115.723 C 269.341 115.121 265.706 116.509 263.541 119.119 C 262.838 119.964 262.701 135.187 260.605 136.732 C 257.864 138.755 247.812 138.011 247.812 138.011 L 246.253 146.291 C 246.253 146.291 252.864 148.177 255.722 148.221 C 260.11 148.288 264.652 148.721 268.413 144.593 C 272.136 140.509 275.785 126.185 275.468 123.8 C 275.15 121.413 272.136 115.723 272.136 115.723" fill="rgb(0,38,77)"/><path d=" M 261.056 119.685 C 261.056 119.685 262.784 115.059 266.18 113.775 C 269.002 112.708 273.116 112.708 273.116 112.708 L 273.116 116.197 C 273.116 116.197 269.469 115.215 267.492 115.857 C 264.905 116.697 261.056 119.685 261.056 119.685 Z " fill="rgb(218,217,215)"/><path d=" M 265.448 224.189 L 248.889 224.189 L 248.889 223.267 L 265.448 223.267 L 265.448 224.189 Z " fill="rgb(133,37,27)"/><path d=" M 278.368 90.863 C 275.782 88.472 272.537 86.788 269.222 85.661 C 266.626 84.779 260.428 84.541 258.949 86.997 C 256.326 91.353 261.712 91.135 267.885 94.467 C 270.009 95.615 272.217 98.02 275.086 98.728 C 277.213 99.252 279.848 98.884 280.666 96.547 C 281.441 94.331 279.905 92.285 278.368 90.863" fill="rgb(1,36,70)"/><path d=" M 237.137 219.432 L 193.708 219.432 L 193.708 174.527 L 237.137 174.527 L 237.137 219.432 Z " fill="rgb(0,34,66)"/><path d=" M 215.62 79.816 L 137.994 79.816 L 137.994 78.241 L 215.62 78.241 L 215.62 79.816 Z " fill="rgb(23,51,77)"/><path d=" M 269.114 87.924 C 269.114 87.924 266.944 88.849 265.909 89.835 C 264.874 90.82 265.656 92.579 266.92 91.337 C 268.184 90.096 269.114 87.924 269.114 87.924 Z " fill="rgb(1,25,49)"/><path d=" M 274.906 90.403 C 274.906 90.403 275.872 93.149 275.544 95.139 C 275.216 97.128 276.09 98.593 276.87 97.072 C 278.422 94.047 274.906 90.403 274.906 90.403 Z " fill="rgb(1,25,49)"/><path d=" M 265.909 87.424 C 265.496 87.511 263.013 87.408 261.876 88.235 C 260.738 89.063 262.806 90.509 263.893 89.476 C 264.978 88.441 265.909 87.424 265.909 87.424 Z " fill="rgb(1,25,49)"/><path d=" M 179.581 219.432 L 136.152 219.432 L 136.152 174.527 L 179.581 174.527 L 179.581 219.432" fill="rgb(0,34,66)"/><path d=" M 205.537 101.352 L 203.873 101.352 L 203.873 92.793 L 205.537 92.793 L 205.537 101.352 Z " fill="rgb(195,206,217)"/><path d=" M 206.253 93.457 L 206.253 82.937 C 206.253 82.087 205.557 81.389 204.705 81.389 C 203.854 81.389 203.158 82.087 203.158 82.937 L 203.158 93.457 L 206.253 93.457 Z " fill="rgb(0,34,66)"/><path d=" M 204.705 84.235 L 204.705 84.235 C 204.36 84.235 204.08 83.955 204.08 83.609 L 204.08 76.435 C 204.08 76.089 204.36 75.811 204.705 75.811 C 205.05 75.811 205.33 76.089 205.33 76.435 L 205.33 83.609 C 205.33 83.955 205.05 84.235 204.705 84.235 Z " fill="rgb(255,255,255)"/><path d=" M 214.829 110.523 C 214.829 116.113 210.297 120.645 204.705 120.645 C 199.114 120.645 194.582 116.113 194.582 110.523 C 194.582 104.932 199.114 100.399 204.705 100.399 C 210.297 100.399 214.829 104.932 214.829 110.523 Z " fill="rgb(49,66,82)"/><path d=" M 211.812 110.523 C 211.812 114.447 208.63 117.629 204.705 117.629 C 200.781 117.629 197.598 114.447 197.598 110.523 C 197.598 106.597 200.781 103.416 204.705 103.416 C 208.63 103.416 211.812 106.597 211.812 110.523 Z " fill="rgb(0,26,51)"/><path d=" M 150.801 101.352 L 149.136 101.352 L 149.136 92.793 L 150.801 92.793 L 150.801 101.352 Z " fill="rgb(195,206,217)"/><path d=" M 151.516 93.457 L 151.516 82.937 C 151.516 82.087 150.82 81.389 149.968 81.389 C 149.117 81.389 148.421 82.087 148.421 82.937 L 148.421 93.457 L 151.516 93.457 Z " fill="rgb(0,34,66)"/><path d=" M 149.969 84.235 L 149.968 84.235 C 149.622 84.235 149.344 83.955 149.344 83.609 L 149.344 76.435 C 149.344 76.089 149.622 75.811 149.968 75.811 L 149.969 75.811 C 150.313 75.811 150.593 76.089 150.593 76.435 L 150.593 83.609 C 150.593 83.955 150.313 84.235 149.969 84.235 Z " fill="rgb(255,255,255)"/><path d=" M 163.693 114.124 C 163.693 121.704 157.549 127.849 149.969 127.849 C 142.388 127.849 136.244 121.704 136.244 114.124 C 136.244 106.544 142.388 100.399 149.969 100.399 C 157.549 100.399 163.693 106.544 163.693 114.124 Z " fill="rgb(49,66,82)"/><path d=" M 159.604 114.124 C 159.604 119.445 155.289 123.759 149.969 123.759 C 144.648 123.759 140.333 119.445 140.333 114.124 C 140.333 108.803 144.648 104.489 149.969 104.489 C 155.289 104.489 159.604 108.803 159.604 114.124 Z " fill="rgb(0,26,51)"/><path d=" M 180.644 101.352 L 178.98 101.352 L 178.98 92.793 L 180.644 92.793 L 180.644 101.352 Z " fill="rgb(195,206,217)"/><path d=" M 181.36 93.457 L 181.36 82.937 C 181.36 82.087 180.664 81.389 179.812 81.389 C 178.961 81.389 178.265 82.087 178.265 82.937 L 178.265 93.457 L 181.36 93.457 Z " fill="rgb(0,34,66)"/><path d=" M 179.812 84.235 L 179.812 84.235 C 179.466 84.235 179.186 83.955 179.186 83.609 L 179.186 76.435 C 179.186 76.089 179.466 75.811 179.812 75.811 C 180.157 75.811 180.437 76.089 180.437 76.435 L 180.437 83.609 C 180.437 83.955 180.157 84.235 179.812 84.235 Z " fill="rgb(255,255,255)"/><path d=" M 191.708 112.295 C 191.708 118.865 186.382 124.191 179.812 124.191 C 173.242 124.191 167.917 118.865 167.917 112.295 C 167.917 105.725 173.242 100.399 179.812 100.399 C 186.382 100.399 191.708 105.725 191.708 112.295 Z " fill="rgb(49,66,82)"/><path d=" M 188.164 112.295 C 188.164 116.907 184.424 120.645 179.812 120.645 C 175.2 120.645 171.461 116.907 171.461 112.295 C 171.461 107.683 175.2 103.944 179.812 103.944 C 184.424 103.944 188.164 107.683 188.164 112.295 Z " fill="rgb(0,26,51)"/></g></svg>