<?xml version="1.0" encoding="UTF-8" standalone="no"?><!-- Generator: Gravit.io --><svg xmlns="http://www.w3.org/2000/svg" xmlns:xlink="http://www.w3.org/1999/xlink" style="isolation:isolate" viewBox="0 0 250 135" width="250pt" height="135pt"><defs><clipPath id="_clipPath_kKk2eMCJwX656xccTWH81wGpScT4aXV5"><rect width="250" height="135"/></clipPath></defs><g clip-path="url(#_clipPath_kKk2eMCJwX656xccTWH81wGpScT4aXV5)"><g><g><path d=" M 119.624 24.349 C 120.255 22.684 121.518 21.195 123.725 21.002 C 125.951 20.827 134.362 20.669 135.958 24.594 C 137.569 28.52 136.852 33.497 131.56 33.286 C 126.266 33.041 119.624 24.349 119.624 24.349 Z " fill="rgb(247,202,88)"/><path d=" M 136.553 25.436 C 135.082 27.1 134.082 28.958 133.661 30.921 C 133.556 31.359 135.256 33.111 135.221 33.549 C 135.028 36.02 123.042 46.92 121.815 46.237 C 120.588 45.518 121.692 25.173 121.692 25.173 C 121.692 25.173 126.32 18.584 127.493 15.464 C 128.211 13.519 136.553 25.436 136.553 25.436 Z " fill="rgb(201,142,125)"/><g><clipPath id="_clipPath_TJCtjuNRAK2lRJBsKVJHgRhlufBrQm3Z"><path d=" M 117.743 37.399 C 117.551 37.399 117.393 37.368 117.276 37.299 C 115.664 36.353 121.131 28.257 120.728 26.575 C 120.82 26.452 120.942 26.293 121.083 26.097 C 121.25 26.287 121.428 26.486 121.616 26.691 C 121.518 28.726 121.353 32.508 121.276 36.209 C 119.756 36.93 118.485 37.399 117.743 37.399 Z " fill="rgb(255,255,255)"/></clipPath><g clip-path="url(#_clipPath_TJCtjuNRAK2lRJBsKVJHgRhlufBrQm3Z)"><g><g><linearGradient id="_lgradient_12" x1="1.5465356844198226" y1="0.3015213907889489" x2="2.681399985815245" y2="-3.060956472998868" gradientTransform="matrix(4.638,0,0,11.302,116.978,26.097)" gradientUnits="userSpaceOnUse"><stop offset="0%" stop-opacity="1" style="stop-color:rgb(255,255,255)"/><stop offset="51.648300000000006%" stop-opacity="1" style="stop-color:rgb(196,189,180)"/><stop offset="100%" stop-opacity="1" style="stop-color:rgb(196,189,180)"/></linearGradient><path d=" M 117.743 37.399 C 117.551 37.399 117.393 37.368 117.276 37.299 C 115.664 36.353 121.131 28.257 120.728 26.575 C 120.82 26.452 120.942 26.293 121.083 26.097 C 121.25 26.287 121.428 26.486 121.616 26.691 C 121.518 28.726 121.353 32.508 121.276 36.209 C 119.756 36.93 118.485 37.399 117.743 37.399 Z " fill="url(#_lgradient_12)"/></g></g></g></g><g><clipPath id="_clipPath_GvzUGiNwSqMAaxl4bh6dzU0gFPHdlmEh"><path d=" M 121.616 26.691 C 121.428 26.486 121.25 26.287 121.083 26.097 C 121.254 25.863 121.459 25.582 121.688 25.256 C 121.678 25.447 121.651 25.954 121.616 26.691 Z " fill="rgb(255,255,255)"/></clipPath><g clip-path="url(#_clipPath_GvzUGiNwSqMAaxl4bh6dzU0gFPHdlmEh)"><g><g><linearGradient id="_lgradient_13" x1="5.078475231837444" y1="2.960385293718602" x2="14.052333431350732" y2="-22.88575931980239" gradientTransform="matrix(0.605,0,0,1.436,121.083,25.256)" gradientUnits="userSpaceOnUse"><stop offset="0%" stop-opacity="1" style="stop-color:rgb(125,189,234)"/><stop offset="51.648300000000006%" stop-opacity="1" style="stop-color:rgb(84,141,183)"/><stop offset="100%" stop-opacity="1" style="stop-color:rgb(84,141,183)"/></linearGradient><path d=" M 121.616 26.691 C 121.428 26.486 121.25 26.287 121.083 26.097 C 121.254 25.863 121.459 25.582 121.688 25.256 C 121.678 25.447 121.651 25.954 121.616 26.691 Z " fill="url(#_lgradient_13)"/></g></g></g></g><g><clipPath id="_clipPath_68W7WQuvt1xW9cFFMgdP5jo5HjWaXLLX"><path d=" M 135.405 23.673 C 135.262 23.498 135.103 23.334 134.927 23.179 C 134.208 22.201 133.32 21.018 132.408 19.867 L 135.729 22.036 C 135.663 22.145 135.55 22.8 135.405 23.673 Z " fill="rgb(255,255,255)"/></clipPath><g clip-path="url(#_clipPath_68W7WQuvt1xW9cFFMgdP5jo5HjWaXLLX)"><g><g><linearGradient id="_lgradient_14" x1="-2.4870537004816953" y1="2.5325571718226456" x2="1.2834854870731078" y2="-2.7212512828557367" gradientTransform="matrix(3.321,0,0,3.806,132.408,19.867)" gradientUnits="userSpaceOnUse"><stop offset="0%" stop-opacity="1" style="stop-color:rgb(255,255,255)"/><stop offset="51.648300000000006%" stop-opacity="1" style="stop-color:rgb(196,189,180)"/><stop offset="100%" stop-opacity="1" style="stop-color:rgb(196,189,180)"/></linearGradient><path d=" M 135.405 23.673 C 135.262 23.498 135.103 23.334 134.927 23.179 C 134.208 22.201 133.32 21.018 132.408 19.867 L 135.729 22.036 C 135.663 22.145 135.55 22.8 135.405 23.673 Z " fill="url(#_lgradient_14)"/></g></g></g></g><g><clipPath id="_clipPath_G2DjHeWCSYHSDUnJ7VIXlqvr5SmT0WkZ"><path d=" M 135.383 23.804 C 135.241 23.607 135.09 23.398 134.927 23.179 C 135.103 23.334 135.262 23.498 135.405 23.673 C 135.399 23.717 135.392 23.759 135.383 23.804 Z " fill="rgb(255,255,255)"/></clipPath><g clip-path="url(#_clipPath_G2DjHeWCSYHSDUnJ7VIXlqvr5SmT0WkZ)"><g><g><linearGradient id="_lgradient_15" x1="-22.564207093355378" y1="10.130651699407593" x2="-0.1620307512808914" y2="-25.522454595208664" gradientTransform="matrix(0.478,0,0,0.625,134.927,23.179)" gradientUnits="userSpaceOnUse"><stop offset="0%" stop-opacity="1" style="stop-color:rgb(125,189,234)"/><stop offset="51.648300000000006%" stop-opacity="1" style="stop-color:rgb(84,141,183)"/><stop offset="100%" stop-opacity="1" style="stop-color:rgb(84,141,183)"/></linearGradient><path d=" M 135.383 23.804 C 135.241 23.607 135.09 23.398 134.927 23.179 C 135.103 23.334 135.262 23.498 135.405 23.673 C 135.399 23.717 135.392 23.759 135.383 23.804 Z " fill="url(#_lgradient_15)"/></g></g></g></g><g><clipPath id="_clipPath_kNWCUs5rLD30UZM9hOrMRQnwqZTEveiF"><path d=" M 125.039 20.075 C 126.437 17.677 127.7 15.09 128.036 13.133 L 131.049 18.201 C 129.642 16.539 128.365 15.25 127.779 15.25 C 127.645 15.25 127.547 15.318 127.493 15.464 C 127.037 16.675 126.062 18.407 125.039 20.075 Z " fill="rgb(255,255,255)"/></clipPath><g clip-path="url(#_clipPath_kNWCUs5rLD30UZM9hOrMRQnwqZTEveiF)"><g><g><linearGradient id="_lgradient_16" x1="-0.1479309115655063" y1="2.3585614901256697" x2="1.9160119989146174" y2="-0.540162075423547" gradientTransform="matrix(6.009,0,0,6.941,125.039,13.133)" gradientUnits="userSpaceOnUse"><stop offset="0%" stop-opacity="1" style="stop-color:rgb(255,255,255)"/><stop offset="51.648300000000006%" stop-opacity="1" style="stop-color:rgb(196,189,180)"/><stop offset="100%" stop-opacity="1" style="stop-color:rgb(196,189,180)"/></linearGradient><path d=" M 125.039 20.075 C 126.437 17.677 127.7 15.09 128.036 13.133 L 131.049 18.201 C 129.642 16.539 128.365 15.25 127.779 15.25 C 127.645 15.25 127.547 15.318 127.493 15.464 C 127.037 16.675 126.062 18.407 125.039 20.075 Z " fill="url(#_lgradient_16)"/></g></g></g></g><g><clipPath id="_clipPath_pUADwUfa9l5LsmspWQjG0GptvdjmE0tc"><path d=" M 121.276 36.209 C 121.353 32.508 121.518 28.726 121.616 26.691 C 121.651 25.954 121.678 25.447 121.688 25.256 C 122.584 23.991 123.859 22.099 125.039 20.075 C 126.062 18.407 127.037 16.675 127.493 15.464 C 127.547 15.318 127.645 15.25 127.779 15.25 C 128.365 15.25 129.642 16.539 131.049 18.201 L 131.786 19.442 L 131.821 19.46 L 131.856 19.477 L 131.839 19.495 L 132.408 19.867 C 133.32 21.018 134.208 22.201 134.927 23.179 C 135.09 23.398 135.241 23.607 135.383 23.804 C 135.109 25.472 134.726 27.844 134.345 28.765 C 133.014 29.4 125.958 33.995 121.276 36.209 Z " fill="rgb(255,255,255)"/></clipPath><g clip-path="url(#_clipPath_pUADwUfa9l5LsmspWQjG0GptvdjmE0tc)"><g><g><linearGradient id="_lgradient_17" x1="0.20372670807453197" y1="0.6801467855815666" x2="0.8570383099613342" y2="-0.5000836666302513" gradientTransform="matrix(14.107,0,0,20.959,121.276,15.25)" gradientUnits="userSpaceOnUse"><stop offset="0%" stop-opacity="1" style="stop-color:rgb(201,142,125)"/><stop offset="51.648300000000006%" stop-opacity="1" style="stop-color:rgb(152,105,89)"/><stop offset="100%" stop-opacity="1" style="stop-color:rgb(152,105,89)"/></linearGradient><path d=" M 121.276 36.209 C 121.353 32.508 121.518 28.726 121.616 26.691 C 121.651 25.954 121.678 25.447 121.688 25.256 C 122.584 23.991 123.859 22.099 125.039 20.075 C 126.062 18.407 127.037 16.675 127.493 15.464 C 127.547 15.318 127.645 15.25 127.779 15.25 C 128.365 15.25 129.642 16.539 131.049 18.201 L 131.786 19.442 L 131.821 19.46 L 131.856 19.477 L 131.839 19.495 L 132.408 19.867 C 133.32 21.018 134.208 22.201 134.927 23.179 C 135.09 23.398 135.241 23.607 135.383 23.804 C 135.109 25.472 134.726 27.844 134.345 28.765 C 133.014 29.4 125.958 33.995 121.276 36.209 Z " fill="url(#_lgradient_17)"/></g></g></g></g><path d=" M 136.045 24.986 C 134.615 31.302 129.331 40.652 127.583 39.864 C 126.237 38.507 120.815 24.302 120.658 22.807 C 119.984 23.168 108.217 26.139 108.217 26.139 L 108.161 75.311 L 136.045 84.108 L 144.767 32.169 L 136.045 24.986 Z " fill="rgb(255,185,8)"/><path d=" M 122.389 21.828 C 121.759 22.989 123.047 28.956 124.955 33.244 C 124.955 33.244 123.56 32.098 122.773 32.986 C 121.987 33.878 118.542 37.349 118.542 37.349 C 118.542 37.349 117.145 23.711 117.774 23.623 C 119.658 23.363 122.389 21.828 122.389 21.828 Z " fill="rgb(247,202,88)"/><path d=" M 137.33 37.552 C 136.591 34.154 133.981 32.539 133.323 33.005 C 132.664 33.457 136.364 25.037 135.347 24.273 C 137.14 25.798 137.79 27.549 137.79 27.549 L 137.33 37.552 Z " fill="rgb(247,202,88)"/><path d=" M 134.897 31.243 C 134.286 32.994 134.127 34.712 134.127 34.712 C 134.127 34.712 129.258 40.606 128.096 44.993 C 126.932 49.38 128.424 38.491 128.424 38.491 C 128.424 38.491 132.569 33.758 133.198 32.461 C 133.844 31.16 134.364 29.928 134.364 29.928 L 134.897 31.243 Z " fill="rgb(247,202,88)"/><path d=" M 122.767 28.28 C 122.536 28.041 124.36 30.716 125.783 33.91 C 126.638 35.836 128.271 38.312 128.392 38.904 C 128.519 39.497 127.705 45.333 127.705 45.333 C 127.705 45.333 127.931 41.486 126.766 39.232 C 125.603 36.972 122.243 30.284 121.494 30.528 C 120.739 30.769 121.464 27.404 120.731 27.005 C 120.004 26.605 122.767 28.28 122.767 28.28 Z " fill="rgb(248,203,91)"/><path d=" M 127.656 7.331 C 125.384 10.065 125.875 15.245 124.258 15.201 C 123.909 15.188 124.347 17.815 124.124 17.526 C 123.897 17.231 124.509 19.775 126.085 18.364 C 126.716 17.801 131.922 11.913 131.922 11.346 C 131.919 10.779 127.656 7.331 127.656 7.331 Z " fill="rgb(25,25,31)"/><path d=" M 142.459 21.215 C 144.453 19.487 145.712 17.466 146.333 13.624 C 146.682 11.156 147.628 9.404 146.301 8.275 C 145.559 7.818 144.878 7.485 144.218 7.223 C 143.538 6.622 142.688 6.023 141.642 5.415 C 135.157 1.659 133.6 6.407 131.078 10.781 C 130.116 9.025 128.655 10.156 127.785 11.977 C 127.116 13.367 126.932 15.267 127.538 16.213 C 125.907 20.288 126.237 25.009 130.519 28.166 C 131.296 28.743 132.153 28.977 133.044 28.962 C 134.086 29.029 135.599 28.203 136.623 27.552 C 142.352 24.371 142.296 21.351 142.459 21.215 Z " fill="rgb(201,142,125)"/><path d=" M 135.276 1.083 C 133.534 0.557 131.621 2.035 129.845 3.787 C 127.354 6.258 126.606 9.55 126.606 9.55 L 129.073 10.629 L 129.137 12.644 L 129.739 13.599 C 129.739 13.599 132.474 10.505 133.517 9.95 C 134.295 9.541 136.525 8.127 137.539 10.478 C 137.539 10.478 139.656 2.483 138.114 1.748 C 136.566 1.012 135.276 1.083 135.276 1.083 Z " fill="rgb(25,25,31)"/><path d=" M 138.099 4.833 C 136.294 6.904 137.063 9.995 137.063 9.995 C 137.841 11.428 138.072 12.216 139.516 13.577 C 142.311 16.219 142.634 15.36 144.065 16.2 C 145.503 17.046 144.665 22.724 141.331 25.409 C 145.378 22.386 146.451 17.18 146.451 17.18 C 146.451 17.18 146.726 19.891 143.574 23.576 C 142.834 24.437 150.831 17.999 148.919 10.83 C 147.745 6.432 141.663 2.179 138.686 4.697 C 138.38 4.954 138.307 4.602 138.099 4.833 Z " fill="rgb(36,36,40)"/><path d=" M 137.988 4.227 L 137.79 5.265 C 137.79 5.265 148.157 16.555 148.547 16.295 C 148.932 16.045 150.457 11 148.195 6.918 C 145.939 2.828 138.813 0.195 138.086 2.14 L 137.988 4.227 Z " fill="rgb(36,36,40)"/><path d=" M 138.932 8.238 C 139.383 8.868 143.478 9.315 145.178 11.767 C 146.885 14.232 148.021 15.95 146.023 19.752 C 148.547 16.295 147.173 11.996 143.431 9.525 C 139.694 7.052 138.932 8.238 138.932 8.238 Z " fill="rgb(25,25,31)"/><path d=" M 136.7 6.375 C 138.099 4.833 144.195 6.319 146.717 9.443 C 144.832 7.216 140.335 4.738 138.51 5.284 C 136.654 5.849 136.7 6.375 136.7 6.375 Z " fill="rgb(25,25,31)"/><path d=" M 137.362 5.223 C 137.65 4.722 140.316 4.511 141.628 5.012 C 142.936 5.499 147.824 7.234 148.315 11.964 C 148.42 9.731 146.277 6.116 142.504 4.805 C 138.733 3.499 137.813 4.292 137.609 4.446 C 137.407 4.595 137.362 5.223 137.362 5.223 Z " fill="rgb(25,25,31)"/><path d=" M 137.612 3.532 C 138.377 3.314 143.879 3.177 146.155 5.655 C 148.434 8.135 149.987 10.829 148.648 14.674 C 149.471 13.728 149.527 9.541 148.186 7.52 C 146.857 5.505 144.534 3.256 141.74 2.66 C 138.952 2.07 137.961 2.346 137.775 2.841 L 137.612 3.532 Z " fill="rgb(25,25,31)"/><path d=" M 34.165 73.699 L 51.335 66.467 L 43.653 82.284 L 34.165 73.699 Z " fill="rgb(33,30,30)"/><path d=" M 4.627 69.544 C 2.011 76.522 -0.749 82.26 0.703 86.33 C 4.133 95.934 17.265 93.738 25.11 91.991 C 32.953 90.252 35.747 92.422 38.478 85.601 C 39.639 82.693 36.115 68.132 30.633 69.042 C 25.14 69.952 4.627 69.544 4.627 69.544 Z " fill="rgb(25,25,31)"/><path d=" M 57.477 49.59 C 57.048 51.588 54.523 53.545 54.523 53.545 C 54.523 53.545 52.871 49.285 52.356 48.573 C 51.836 47.865 46.822 46.799 46.485 46.373 C 46.148 45.952 45.156 42.899 44.424 39.506 C 43.686 36.112 48.33 20.276 52.776 24.419 C 57.232 28.559 57.477 49.59 57.477 49.59 Z " fill="rgb(156,75,50)"/><path d=" M 44.372 38.777 C 44.717 39.319 46.552 40.169 47.05 40.141 C 46.44 41.368 45.263 44.033 45.263 44.033 C 45.263 44.033 42.795 44.356 42.062 43.583 C 41.327 42.82 44.372 38.777 44.372 38.777 Z " fill="rgb(57,81,171)"/><path d=" M 35.932 32.136 C 36.371 33.59 42.053 41.973 44.372 38.777 C 45.102 37.783 50.272 45.361 50.028 45.938 C 49.841 46.368 47.703 60.03 41.311 62.936 C 39.099 63.941 38.129 75.643 37.529 77.318 C 34.776 85.104 31.433 78.772 20.095 80.805 C 16.624 81.432 2.474 80.83 2.663 78.195 C 4.773 48.064 22.716 35.914 22.716 35.914 L 35.932 32.136 Z " fill="rgb(3,165,203)"/><path d=" M 58.11 61.045 C 63.084 63.078 62.749 73.737 57.208 77.535 C 51.671 81.341 32.134 96.971 32.134 96.971 L 25.754 90.033 C 25.754 90.033 45.387 68.164 47.041 66.018 C 51.271 60.525 58.11 61.045 58.11 61.045 Z " fill="rgb(25,25,31)"/><path d=" M 54.31 39.963 C 53.109 41.327 52.537 42.36 51.642 42.468 C 51.075 44.062 55.119 54.984 54.282 56.757 C 53.442 58.535 49.384 59.496 48.681 58.679 C 47.966 57.857 47.345 42.837 47.852 42.018 C 48.354 41.194 49.807 39.344 50.552 39.256 C 51.301 39.157 54.31 39.963 54.31 39.963 Z " fill="rgb(201,142,125)"/><path d=" M 54.892 39.397 C 55.186 38.17 54.413 34.748 53.764 35.34 C 53.371 35.695 53.937 38.948 53.937 38.948 C 53.937 38.948 53.356 36.261 52.766 36.441 C 52.166 36.619 52.776 39.912 52.776 39.912 C 52.776 39.912 53.23 40.041 52.776 39.912 C 52.318 39.781 52.728 37.732 51.972 37.621 C 51.209 37.51 50.751 41.669 50.751 41.669 C 50.751 41.669 51.548 42.532 52.722 41.873 C 53.895 41.213 54.892 39.397 54.892 39.397 Z " fill="rgb(201,142,125)"/><path d=" M 48.754 55.173 C 50.186 55.672 53.257 54.156 54.527 52.17 C 56.858 56.21 57.669 65.917 52.873 66.809 C 50.346 67.279 47.777 63.725 47.05 59.712 C 46.317 55.71 48.754 55.173 48.754 55.173 Z " fill="rgb(3,165,203)"/><path d=" M 38.953 24.902 C 41.673 17.998 46.076 15.141 51.557 17.3 C 57.048 19.452 58.362 24.981 55.652 31.88 C 55.247 32.898 52.202 41.039 46.463 42.801 C 45.098 43.23 44.004 42.257 42.898 41.581 C 37.895 38.487 36.238 31.791 38.953 24.902 Z " fill="rgb(218,169,157)"/><path d=" M 52.696 29.491 C 54.003 30.58 55.075 31.62 55.182 36.147 C 55.281 40.676 57.264 53.042 55.625 55.003 C 58.79 53.21 59.571 43.014 59.744 38.164 C 59.917 33.31 59.885 24.387 56.35 18.652 C 53.999 14.839 49.279 13.991 47.887 15.323 C 46.494 16.657 52.696 29.491 52.696 29.491 Z " fill="rgb(184,108,62)"/><path d=" M 47.846 39.829 C 44.213 42.161 42.944 43.394 41.78 46.446 C 38.295 46.881 36.804 43.762 36.804 41.727 C 36.804 39.689 41.164 34.463 41.164 34.463 L 47.846 39.829 Z " fill="rgb(218,169,157)"/><path d=" M 54.422 27.597 C 53.179 32.031 48.754 29.557 44.616 33.806 C 41.511 36.99 35.788 47.101 38.839 52.769 C 36.109 52.714 33.697 44.686 33.897 40.127 C 34.094 35.57 34.081 49.765 35.062 50.59 C 31.845 48.451 31.623 37.397 29.102 36.352 C 26.12 35.106 21.849 36.574 20.095 38.092 C 22.252 35.931 30.317 28.897 32.771 23.928 C 36.356 16.65 45.803 12.333 49.974 14.988 C 54.142 17.642 54.422 27.597 54.422 27.597 Z " fill="rgb(156,75,50)"/><path d=" M 28.368 85.75 C 24.604 87.555 20.989 89.966 20.085 90.718 C 19.181 91.473 25.654 92.529 27.763 92.075 C 29.873 91.625 31.792 88.951 31.792 88.951 C 31.792 88.951 33.337 85.601 34.392 85.294 C 35.446 84.995 28.368 85.75 28.368 85.75 Z " fill="rgb(201,142,125)"/><path d=" M 22.643 84.17 C 29.463 91.781 37.704 92.681 47.716 93.658 L 58.676 94.597 C 58.676 94.597 71.216 88.951 61.725 84.658 C 59.487 83.643 53.176 87.096 49.146 85.304 C 45.105 83.507 28.328 75.659 28.328 75.659 L 22.643 84.17 Z " fill="rgb(218,169,157)"/><path d=" M 5.247 65.566 C 18.804 61.651 27.389 76.862 49.454 84.545 C 44.633 86.952 43.58 94.259 43.58 94.259 C 43.58 94.259 6.062 85.671 1.856 77.768 C -3.791 67.149 5.247 65.566 5.247 65.566 Z " fill="rgb(37,38,47)"/><path d=" M 57.284 84.545 C 58.19 86.052 59.354 93.507 56.645 94.711 C 62.67 95.012 63.536 92.903 64.889 91.206 C 66.536 89.154 65.717 84.545 61.958 84.316 C 58.19 84.095 57.284 84.545 57.284 84.545 Z " fill="rgb(183,194,212)"/><path d=" M 39.813 91.098 C 40.262 89.741 32.926 88.548 31.792 88.951 C 24.673 91.469 22.905 91.771 21.399 89.966 C 19.896 88.16 15.223 93.318 16.431 95.729 C 17.636 98.143 39.813 91.098 39.813 91.098 Z " fill="rgb(183,194,212)"/><path d=" M 17.897 92.564 C 21.273 90.492 23.055 93.998 25.465 92.787 C 27.879 91.586 29.583 89.236 36.536 89.401 C 43.011 89.556 41.394 95.613 36.2 98.325 C 31.527 100.764 23.357 98.513 20.044 98.814 C 16.729 99.115 13.979 94.974 17.897 92.564 Z " fill="rgb(149,163,188)"/><path d=" M 25.593 60.224 C 27.324 60.366 28.306 60.226 29.248 60.751 C 30.452 61.423 31.991 62.482 31.991 62.482 C 31.944 63.06 28.959 61.855 28.768 61.952 C 28.125 62.276 30.534 63.593 31.559 64.071 C 32.518 64.519 34.528 64.607 34.252 65.08 C 34.025 65.461 32.968 65.403 31.944 65.175 C 30.531 64.867 30.307 64.889 30.307 64.889 C 30.307 64.889 30.145 64.871 31.559 65.225 C 32.452 65.451 33.846 65.461 34.377 65.828 C 35.15 66.367 32.558 66.607 31.302 66.38 C 29.45 66.055 28.993 66.029 28.993 66.029 C 28.993 66.029 29.415 66.02 30.691 66.476 C 31.668 66.824 33.464 66.754 33.257 66.987 C 32.584 67.749 28.258 67.085 28.258 67.085 C 28.258 67.085 31.781 67.265 31.527 67.728 C 31.24 68.256 27.511 67.717 26.973 67.373 C 25.863 66.653 23.871 65.506 22.861 64.341 C 22.551 63.993 8.329 67.558 6.733 66.81 C 5.129 66.067 3.932 58.304 5.282 58.535 C 6.626 58.761 25.593 60.224 25.593 60.224 Z " fill="rgb(218,169,157)"/><path d=" M 15.595 40.559 C 13.849 42.31 8.329 49.718 4.114 58.872 C 1.675 64.163 1.068 67.154 3.099 67.005 C 5.133 66.857 7.457 67.005 8.184 66.275 C 8.911 65.552 13.119 61.045 13.993 60.322 C 14.868 59.598 20.828 48.696 22.278 45.502 C 23.73 42.31 15.595 40.559 15.595 40.559 Z " fill="rgb(218,169,157)"/><path d=" M 21.694 36.931 C 19.813 37.061 14.432 37.656 8.329 48.698 C 14.141 54.368 18.137 56.255 18.137 56.255 C 18.137 56.255 27.072 48.408 27.217 44.484 C 27.217 44.484 28.886 36.423 21.694 36.931 Z " fill="rgb(2,137,168)"/><path d=" M 109.748 79.218 C 106.94 81.892 99.445 79.536 96.082 79.673 C 92.716 79.808 89.331 82.027 90.24 85.304 C 90.24 85.304 89.062 91.822 95.534 91.574 C 100.702 91.374 107.708 88.311 114.312 88.046 C 118.7 87.867 109.748 79.218 109.748 79.218 Z " fill="rgb(37,38,47)"/><path d=" M 99.223 79.821 C 95.279 79.505 89.893 80.142 89.322 84.113 C 88.751 88.085 90.702 89.741 92.066 90.816 C 93.212 91.72 94.75 91.536 94.75 91.536 C 94.75 91.536 90.492 88.528 91.729 83.57 C 92.724 79.573 99.223 79.821 99.223 79.821 Z " fill="rgb(25,25,31)"/><path d=" M 161.696 57.562 C 165.519 61.628 164.317 67.641 159.64 72.697 C 154.953 77.749 123.477 91.101 115.527 91.291 C 112.812 85.621 112.804 82.499 110.047 78.287 C 111.062 76.542 114.481 72.659 117.451 75.96 C 118.763 77.414 116.245 74.442 118.155 73.395 C 120.065 72.348 120.49 74.638 125.787 73.592 C 127.925 73.176 149.914 61.974 152.078 58.587 C 155.025 53.971 161.696 57.562 161.696 57.562 Z " fill="rgb(183,194,212)"/><path d=" M 133.597 80.368 C 136.645 82.655 143.688 79.482 146.99 79.219 C 150.295 78.962 153.857 80.741 153.356 84.041 C 153.356 84.041 155.262 90.271 148.91 90.784 C 143.836 91.191 136.642 89.008 130.162 89.521 C 125.853 89.855 133.597 80.368 133.597 80.368 Z " fill="rgb(37,38,47)"/><path d=" M 143.942 79.73 C 147.757 78.967 153.09 78.956 154.109 82.768 C 155.13 86.582 153.413 88.427 152.211 89.634 C 151.193 90.654 149.673 90.654 149.673 90.654 C 149.673 90.654 153.483 87.219 151.697 82.518 C 150.258 78.727 143.942 79.73 143.942 79.73 Z " fill="rgb(25,25,31)"/><path d=" M 86.289 59.742 C 82.464 63.808 82.182 70.258 87.826 74.492 C 93.341 78.628 124.633 92.833 135.021 92.316 C 137.737 86.647 135.98 84.479 138.74 80.263 C 137.723 78.521 135.918 78.85 133.099 78.98 C 131.145 79.072 132.826 77.849 130.919 76.801 C 129.004 75.754 130.32 75.92 125.017 74.876 C 122.882 74.45 105.608 64.185 102.83 61.282 C 94.367 52.433 86.289 59.742 86.289 59.742 Z " fill="rgb(149,163,188)"/><path d=" M 95.949 113.565 L 27.569 112.794 L 48.072 97.408 L 100.698 98.407 L 95.949 113.565 Z " fill="rgb(243,101,29)"/><path d=" M 52.446 104.278 C 52.426 104.278 52.404 104.278 52.383 104.278 C 50.175 104.26 50.072 103.682 51.034 103.033 C 52.787 101.859 57.676 100.352 60.848 100.352 L 60.988 100.422 L 60.655 100.51 C 60.64 100.51 60.623 100.51 60.607 100.51 C 57.917 100.51 53.146 101.953 51.542 103.033 C 50.684 103.647 50.736 104.067 52.646 104.085 C 52.684 104.085 52.722 104.085 52.76 104.085 C 57.038 104.085 63.485 102.15 64.547 101.246 C 64.843 100.965 64.738 100.808 64.072 100.773 L 63.967 100.668 L 64.318 100.615 C 65.246 100.668 65.423 100.93 65.036 101.246 C 63.815 102.275 57.244 104.278 52.446 104.278 Z " fill="rgb(250,180,134)"/><path d=" M 62.723 101.456 L 62.67 101.456 L 62.495 101.386 L 63.003 100.37 L 63.143 100.299 L 63.371 100.264 L 65.649 100.37 L 65.755 100.475 L 65.406 100.527 L 63.459 100.44 L 63.038 101.351 L 62.723 101.456 Z " fill="rgb(250,180,134)"/><path d=" M 52.576 101.404 C 52.348 101.404 52.156 101.386 51.998 101.333 L 52.033 101.158 L 52.471 100.913 L 52.787 100.545 C 52.822 100.37 52.909 100.194 53.156 100.054 C 53.47 99.844 54.153 99.651 54.908 99.651 L 55.135 99.669 C 56.205 99.704 56.519 99.861 56.169 100.072 C 55.923 100.247 55.415 100.422 54.96 100.632 C 54.679 100.72 54.521 100.825 54.453 100.86 C 54.259 100.983 54.399 100.983 54.241 101.106 L 54.101 101.193 C 53.663 101.351 53.032 101.404 52.576 101.404 Z  M 54.644 99.844 C 54.153 99.844 53.978 99.896 53.698 100.054 L 53.4 100.475 C 53.4 100.632 53.225 100.79 53.032 100.913 L 52.594 101.158 L 52.559 101.193 L 52.857 101.211 C 53.19 101.211 53.594 101.158 53.628 101.141 L 53.68 101.106 C 53.733 101.106 53.628 101.036 53.891 100.86 C 53.996 100.79 54.188 100.703 54.47 100.58 C 54.977 100.37 55.468 100.177 55.625 100.072 C 55.785 99.967 55.818 99.896 54.784 99.844 L 54.784 99.844 L 54.644 99.844 Z " fill="rgb(250,180,134)"/><path d=" M 52.559 99.844 L 52.436 99.826 L 51.91 99.634 L 52.051 99.511 L 52.454 99.493 L 52.979 99.686 L 52.857 99.809 L 52.559 99.844 Z " fill="rgb(250,180,134)"/><path d=" M 50.316 100.352 L 50.263 100.352 L 50.123 100.282 L 50.527 100.177 L 52.173 100.124 L 52.366 100.194 L 51.998 100.299 L 50.316 100.352 Z " fill="rgb(250,180,134)"/><path d=" M 57.273 99.861 L 57.081 99.861 L 56.922 99.844 L 57.15 99.721 L 58.254 99.528 L 58.622 99.546 L 58.396 99.669 L 57.273 99.861 Z " fill="rgb(250,180,134)"/><path d=" M 57.781 100.405 L 57.763 100.405 L 56.274 100.335 L 56.186 100.229 L 56.607 100.159 L 58.079 100.229 L 58.184 100.335 L 57.781 100.405 Z " fill="rgb(250,180,134)"/><path d=" M 54.346 99.581 L 54.294 99.581 L 54.136 99.511 L 54.416 99.266 L 54.784 99.178 L 54.995 99.248 L 54.714 99.476 L 54.346 99.581 Z " fill="rgb(250,180,134)"/><path d=" M 56.029 99.581 L 55.941 99.581 L 55.941 99.458 L 56.729 99.178 L 57.133 99.125 L 57.133 99.231 L 56.361 99.528 L 56.029 99.581 Z " fill="rgb(250,180,134)"/><path d=" M 44.893 109.511 L 46.276 109.526 L 48.509 107.851 L 47.268 107.746 L 44.893 109.511 Z  M 44.498 109.603 L 47.169 107.638 L 48.858 107.756 L 46.628 109.646 L 46.393 109.63 L 46.266 109.739 L 44.498 109.603 Z " fill="rgb(255,255,255)"/><path d=" M 47.499 109.539 L 48.89 109.564 L 51.756 107.273 L 50.522 107.163 L 47.499 109.539 Z  M 47.114 109.646 L 50.405 107.062 L 52.102 107.168 L 49.252 109.662 L 49.016 109.656 L 48.89 109.768 L 47.114 109.646 Z " fill="rgb(255,255,255)"/><path d=" M 50.278 109.564 L 51.674 109.592 L 55.155 106.639 L 53.93 106.535 L 50.278 109.564 Z  M 49.907 109.688 L 53.815 106.433 L 55.494 106.537 L 52.037 109.698 L 51.789 109.698 L 51.68 109.801 L 49.907 109.688 Z " fill="rgb(255,255,255)"/><path d=" M 53.117 109.602 L 54.504 109.603 L 58.546 106.007 L 57.319 105.919 L 53.117 109.602 Z  M 52.75 109.709 L 57.198 105.82 L 58.875 105.936 L 54.881 109.723 L 54.628 109.723 L 54.527 109.818 L 52.75 109.709 Z " fill="rgb(255,255,255)"/><path d=" M 94.417 101.063 L 83.156 100.983 L 82.035 101.036 C 82.035 101.036 80.936 101.052 79.483 101.052 C 78.756 101.052 77.94 101.047 77.128 101.036 C 76.234 101.036 76.059 101.036 75.866 101.018 L 75.726 100.948 C 75.621 100.93 75.463 100.913 75.253 100.895 C 74.709 100.86 74.377 100.843 74.114 100.843 C 74.063 100.841 74.013 100.841 73.963 100.841 C 73.451 100.841 73.046 100.92 71.59 101 L 71.66 100.773 C 73.036 100.708 73.419 100.631 74.087 100.631 C 74.152 100.631 74.219 100.631 74.289 100.632 C 74.623 100.632 74.99 100.65 75.533 100.685 C 76.059 100.755 76.304 100.72 76.393 100.825 C 76.55 100.825 76.847 100.825 77.303 100.825 C 78.111 100.837 78.92 100.841 79.64 100.841 C 81.082 100.841 82.169 100.825 82.157 100.825 L 83.279 100.755 L 94.576 100.85 L 94.417 101.063 Z " fill="rgb(252,216,191)"/><path d=" M 93.903 101.751 C 92.865 101.744 90.868 101.734 87.292 101.701 C 85.224 101.684 82.63 101.649 79.371 101.631 C 77.969 101.614 77.356 101.596 77.303 101.596 L 76.707 101.544 L 74.657 101.701 L 73.465 101.684 L 70.959 101.719 L 71.101 101.509 L 73.623 101.456 L 74.745 101.491 L 76.9 101.316 L 76.97 101.316 L 77.566 101.386 C 77.566 101.386 78.146 101.404 79.546 101.404 C 82.806 101.439 85.399 101.456 87.467 101.491 C 91.032 101.522 93.022 101.533 94.059 101.539 L 93.903 101.751 Z " fill="rgb(252,216,191)"/><path d=" M 88.536 102.473 L 85.12 102.315 C 85.101 102.315 84.313 102.104 82.527 101.982 L 82.122 101.964 C 81.633 101.982 81.651 101.999 81.509 102.052 C 81.439 102.087 81.141 102.245 80.668 102.245 C 80.528 102.227 80.387 102.227 80.195 102.21 C 80.019 102.175 79.792 102.157 79.546 102.157 C 78.584 102.157 77.443 102.315 77.286 102.332 L 76.427 102.332 L 73.816 102.297 C 73.816 102.297 73.816 102.297 73.309 102.297 C 72.764 102.297 72.063 102.28 72.063 102.28 C 72.063 102.28 71.362 102.28 70.504 102.28 L 70.663 102.052 C 71.539 102.069 72.239 102.069 72.239 102.069 C 72.239 102.069 72.94 102.069 73.465 102.087 C 73.991 102.087 73.991 102.087 73.991 102.087 L 76.602 102.104 L 77.321 102.122 C 77.338 102.122 78.566 101.947 79.721 101.947 C 80.019 101.947 80.301 101.964 80.563 101.999 L 80.843 102.034 L 80.861 102.034 C 80.878 102.034 80.843 102.034 81.053 101.947 C 81.234 101.865 81.629 101.753 82.181 101.753 C 82.219 101.753 82.258 101.753 82.298 101.754 L 82.788 101.789 C 84.628 101.894 85.504 102.122 85.469 102.122 L 88.729 102.28 L 93.516 102.267 L 93.371 102.459 L 88.536 102.473 Z " fill="rgb(252,216,191)"/><path d=" M 82.271 103.283 C 82.131 103.283 82 103.28 81.877 103.279 C 81.229 103.279 80.808 103.261 80.72 103.244 C 80.703 103.244 80.51 103.209 80.195 103.156 C 79.881 103.121 79.425 103.068 78.88 103.068 C 78.549 103.068 78.179 103.086 77.776 103.121 C 76.655 103.226 76.041 103.261 75.638 103.261 L 75.568 103.261 C 75.095 103.261 74.92 103.138 74.92 103.068 C 74.867 103.033 74.92 103.016 74.341 102.998 L 74.044 102.998 C 72.747 103.016 72.256 103.068 71.625 103.068 C 71.17 103.068 70.68 103.033 69.873 102.946 L 70.206 102.735 C 71.012 102.823 71.432 102.858 71.8 102.858 C 71.868 102.86 71.936 102.862 72.006 102.862 C 72.455 102.862 73.02 102.819 74.185 102.788 L 74.517 102.788 C 75.183 102.788 75.463 102.876 75.533 102.963 C 75.638 103.051 75.5 103.016 75.814 103.033 C 75.856 103.035 75.908 103.038 75.968 103.038 C 76.284 103.038 76.849 102.998 77.759 102.911 C 78.232 102.876 78.67 102.858 79.056 102.858 C 80.265 102.876 81.088 103.033 81.071 103.033 C 81.106 103.051 81.474 103.068 82.054 103.068 C 82.169 103.07 82.295 103.073 82.426 103.073 C 83.147 103.073 84.079 103.03 84.996 102.911 C 86.081 102.776 87.117 102.731 87.878 102.731 C 88.012 102.731 88.139 102.734 88.256 102.735 C 88.782 102.735 89.132 102.753 89.15 102.753 C 90.236 102.823 91.445 103.016 91.445 103.016 L 92.945 103.026 L 92.792 103.23 L 91.165 103.209 C 91.165 103.209 89.921 103.033 88.887 102.963 C 88.887 102.963 88.571 102.946 88.081 102.946 C 87.972 102.944 87.854 102.941 87.727 102.941 C 87.017 102.941 86.048 102.987 85.066 103.121 C 84.046 103.239 83.035 103.283 82.271 103.283 Z " fill="rgb(252,216,191)"/><path d=" M 87.537 105.679 L 68.313 105.522 L 68.821 105.014 L 87.818 105.154 L 87.537 105.679 Z " fill="rgb(250,184,140)"/><path d=" M 87.029 106.503 L 67.524 106.363 L 68.034 105.82 L 87.362 105.977 L 87.029 106.503 Z " fill="rgb(250,184,140)"/><path d=" M 86.521 107.379 L 66.683 107.222 L 67.209 106.678 L 86.854 106.819 L 86.521 107.379 Z " fill="rgb(250,184,140)"/><path d=" M 85.997 108.273 L 65.825 108.115 L 66.368 107.537 L 86.346 107.695 L 85.997 108.273 Z " fill="rgb(250,184,140)"/><path d=" M 85.452 109.184 L 64.948 109.027 L 65.509 108.448 L 85.802 108.606 L 85.452 109.184 Z " fill="rgb(250,184,140)"/><path d=" M 84.891 110.148 L 64.02 109.99 L 64.598 109.377 L 85.242 109.535 L 84.891 110.148 Z " fill="rgb(250,184,140)"/><path d=" M 82.175 117.386 L 192.491 117.386 L 175.702 96.216 L 98.052 96.216 L 82.175 117.386 Z " fill="rgb(155,207,241)"/><path d=" M 126.586 105.503 C 129.347 103.921 137.035 101.865 142.038 101.865 C 142.248 101.865 142.358 101.918 142.248 101.97 C 142.168 102.029 141.934 102.074 141.737 102.074 C 137.515 102.053 129.934 104.025 127.392 105.51 C 126.028 106.329 126.13 106.905 129.124 106.94 C 135.865 106.978 146.161 104.308 147.856 103.068 C 148.329 102.699 148.157 102.49 147.097 102.429 C 146.905 102.416 146.838 102.354 146.948 102.302 C 147.056 102.246 147.31 102.214 147.495 102.221 C 148.947 102.286 149.22 102.652 148.614 103.068 C 146.694 104.475 136.259 107.214 128.712 107.187 C 125.225 107.172 125.076 106.386 126.586 105.503 Z " fill="rgb(243,101,29)"/><path d=" M 144.633 103.261 L 145.419 101.883 L 145.642 101.799 L 146.009 101.751 L 149.587 101.897 C 149.778 101.918 149.835 101.97 149.752 102.029 C 149.636 102.086 149.389 102.115 149.204 102.115 L 146.133 101.976 L 145.467 103.222 L 145.467 103.226 C 145.419 103.283 145.214 103.341 144.981 103.355 L 144.892 103.355 L 144.633 103.261 Z " fill="rgb(243,101,29)"/><path d=" M 130.035 101.498 C 129.805 101.631 129.656 101.805 129.634 101.992 C 129.634 102.182 129.388 102.354 129.13 102.503 C 128.901 102.63 128.655 102.728 128.557 102.776 L 128.509 102.816 C 128.541 102.827 128.684 102.845 128.901 102.845 C 129.34 102.851 129.898 102.773 129.948 102.756 L 129.999 102.728 C 130.063 102.712 129.948 102.63 130.278 102.443 C 130.416 102.354 130.682 102.246 131.069 102.104 C 131.745 101.865 132.404 101.649 132.619 101.515 C 132.816 101.402 132.865 101.313 131.487 101.262 L 131.728 101.164 L 131.487 101.253 L 131.306 101.253 C 130.647 101.262 130.408 101.313 130.035 101.498 L 130.035 101.498 Z  M 127.759 102.981 C 127.583 102.944 127.665 102.845 127.797 102.773 C 127.975 102.684 128.191 102.6 128.385 102.49 C 128.601 102.375 128.778 102.243 128.813 102.074 C 128.845 101.869 128.979 101.665 129.299 101.498 C 129.721 101.262 130.64 101.047 131.655 101.047 L 131.945 101.06 C 133.379 101.098 133.804 101.282 133.344 101.528 C 133.004 101.725 132.324 101.935 131.728 102.163 C 131.348 102.286 131.141 102.386 131.041 102.443 C 130.787 102.582 130.974 102.582 130.752 102.728 L 130.571 102.816 C 129.971 103.01 129.142 103.061 128.534 103.061 C 128.221 103.061 127.953 103.038 127.759 102.981 Z " fill="rgb(243,101,29)"/><path d=" M 128.334 101.239 L 127.634 101.008 C 127.535 100.971 127.62 100.919 127.821 100.875 C 128.026 100.835 128.283 100.827 128.368 100.853 L 129.073 101.072 C 129.172 101.111 129.079 101.174 128.896 101.217 L 128.509 101.262 L 128.334 101.239 Z " fill="rgb(243,101,29)"/><path d=" M 125.237 101.76 C 125.31 101.709 125.552 101.653 125.784 101.653 L 127.994 101.589 C 128.211 101.585 128.322 101.624 128.242 101.677 C 128.176 101.731 127.953 101.783 127.737 101.789 L 125.483 101.855 L 125.423 101.855 C 125.237 101.855 125.162 101.818 125.237 101.76 Z " fill="rgb(243,101,29)"/><path d=" M 134.358 101.253 C 134.3 101.209 134.443 101.146 134.659 101.111 L 136.142 100.895 C 136.364 100.86 136.581 100.875 136.627 100.919 C 136.67 100.961 136.544 101.018 136.325 101.053 L 134.828 101.269 L 134.573 101.282 L 134.358 101.253 Z " fill="rgb(243,101,29)"/><path d=" M 135.478 101.897 L 133.479 101.818 C 133.293 101.811 133.245 101.751 133.363 101.701 C 133.479 101.649 133.724 101.614 133.934 101.623 L 135.91 101.709 C 136.097 101.725 136.142 101.773 136.037 101.818 C 135.915 101.869 135.693 101.897 135.504 101.897 L 135.478 101.897 Z " fill="rgb(243,101,29)"/><path d=" M 130.625 100.875 L 130.987 100.597 C 131.069 100.555 131.269 100.491 131.487 100.491 C 131.704 100.472 131.815 100.517 131.756 100.565 L 131.399 100.843 C 131.335 100.907 131.1 100.961 130.895 100.961 L 130.837 100.968 L 130.625 100.875 Z " fill="rgb(243,101,29)"/><path d=" M 133.038 100.951 L 133.038 100.815 L 134.085 100.486 L 134.646 100.428 L 134.646 100.555 L 133.607 100.888 L 133.15 100.961 L 133.038 100.951 Z " fill="rgb(243,101,29)"/><path d=" M 104.751 103.039 C 104.507 102.956 104.612 102.87 104.916 102.763 L 112.531 100.771 C 112.685 100.716 112.895 100.691 113.129 100.676 L 113.561 100.738 L 114.666 101.198 L 122.111 99.251 C 122.395 99.178 122.786 99.15 123.008 99.207 C 123.256 99.255 123.207 99.363 122.928 99.428 L 114.853 101.589 C 114.666 101.623 114.491 101.659 114.26 101.662 C 114.074 101.662 113.922 101.64 113.824 101.602 L 112.685 101.145 L 105.742 102.994 C 105.552 103.051 105.289 103.065 105.1 103.065 L 104.751 103.039 Z " fill="rgb(255,255,255)"/><path d=" M 121.97 100.26 L 122.646 99.312 L 118.868 99.552 C 118.509 99.581 118.214 99.508 118.238 99.423 C 118.238 99.341 118.517 99.251 118.888 99.216 L 123.465 98.924 C 123.652 98.924 123.837 98.924 123.954 98.959 L 124.106 99.08 L 123.266 100.222 C 123.207 100.321 122.844 100.397 122.459 100.412 L 122.395 100.412 C 122.104 100.412 121.878 100.345 121.97 100.26 Z " fill="rgb(255,255,255)"/><path d=" M 163.28 101.379 L 161.262 99.493 L 159.903 99.593 L 161.696 101.39 L 163.28 101.379 Z  M 163.707 101.485 L 161.627 101.64 L 161.522 101.504 L 161.246 101.526 L 159.57 99.504 L 161.41 99.382 L 163.707 101.485 Z " fill="rgb(255,255,255)"/><path d=" M 160.298 101.404 L 158.108 98.915 L 156.776 99.02 L 158.686 101.421 L 160.298 101.404 Z  M 160.684 101.526 L 158.581 101.666 L 158.511 101.526 L 158.23 101.526 L 156.461 98.915 L 158.266 98.827 L 160.684 101.526 Z " fill="rgb(255,255,255)"/><path d=" M 157.109 101.421 L 154.971 98.337 L 153.674 98.424 L 155.514 101.439 L 157.109 101.421 Z  M 157.459 101.561 L 155.356 101.684 L 155.304 101.561 L 155.024 101.561 L 153.394 98.337 L 155.129 98.249 L 157.459 101.561 Z " fill="rgb(255,255,255)"/><path d=" M 153.849 101.456 L 151.992 97.794 L 150.73 97.864 L 152.272 101.456 L 153.849 101.456 Z  M 154.2 101.579 L 152.079 101.701 L 152.044 101.579 L 151.748 101.579 L 150.45 97.811 L 152.186 97.706 L 154.2 101.579 Z " fill="rgb(255,255,255)"/><path d=" M 151.869 103.804 L 151.659 103.506 L 165.205 103.366 L 166.449 103.454 C 166.436 103.454 167.942 103.483 169.811 103.483 C 170.435 103.483 171.099 103.482 171.759 103.471 C 172.267 103.454 172.583 103.454 172.76 103.454 C 172.863 103.314 173.126 103.366 173.687 103.279 C 174.3 103.209 174.703 103.173 175.054 103.173 C 175.948 103.173 176.282 103.296 177.945 103.401 L 178.034 103.717 C 176.394 103.601 175.95 103.487 175.371 103.487 C 175.33 103.487 175.289 103.487 175.247 103.489 C 174.968 103.489 174.598 103.524 174.02 103.577 C 173.775 103.594 173.599 103.612 173.494 103.647 L 173.336 103.752 C 173.126 103.769 172.933 103.769 171.97 103.769 C 171.238 103.782 170.505 103.788 169.824 103.788 C 168.009 103.788 166.572 103.752 166.572 103.752 L 165.363 103.682 L 151.869 103.804 Z " fill="rgb(232,246,253)"/><path d=" M 152.989 104.805 C 152.637 104.805 152.5 104.803 152.5 104.803 L 152.307 104.505 C 152.325 104.505 153.99 104.505 160.631 104.435 C 162.892 104.383 165.732 104.348 169.306 104.313 C 170.848 104.295 171.479 104.278 171.479 104.278 L 172.127 104.19 L 172.215 104.172 L 174.563 104.418 L 175.79 104.383 L 178.559 104.453 L 178.716 104.768 L 175.965 104.716 L 174.668 104.733 L 172.408 104.505 L 171.777 104.575 C 171.707 104.575 171.041 104.61 169.499 104.628 C 165.924 104.663 163.085 104.716 160.824 104.733 C 156.081 104.796 153.867 104.805 152.989 104.805 Z " fill="rgb(232,246,253)"/><path d=" M 159.457 105.855 L 153.078 105.837 L 152.886 105.539 L 159.247 105.557 L 162.804 105.346 C 162.787 105.346 163.751 105.014 165.767 104.856 C 165.941 104.821 166.134 104.821 166.292 104.821 C 166.327 104.821 166.36 104.819 166.394 104.819 C 167.009 104.819 167.46 104.967 167.659 105.084 C 167.869 105.206 167.834 105.206 167.869 105.206 L 167.886 105.206 L 168.202 105.171 C 168.482 105.119 168.799 105.101 169.113 105.101 C 169.189 105.1 169.263 105.097 169.339 105.097 C 170.544 105.097 171.726 105.346 171.742 105.346 L 172.53 105.311 L 175.388 105.294 C 175.388 105.294 175.388 105.294 175.965 105.276 C 176.543 105.276 177.297 105.259 177.297 105.259 C 177.314 105.259 178.086 105.259 179.032 105.259 L 179.207 105.557 L 179.207 105.557 L 179.207 105.574 L 179.207 105.557 C 178.261 105.574 177.49 105.592 177.49 105.592 C 177.49 105.592 176.736 105.592 176.158 105.592 C 175.58 105.592 175.58 105.592 175.58 105.592 L 172.723 105.644 L 171.777 105.644 C 171.609 105.627 170.442 105.399 169.415 105.399 C 169.379 105.399 169.342 105.399 169.306 105.399 C 169.043 105.399 168.799 105.417 168.587 105.469 C 168.396 105.487 168.237 105.504 168.079 105.522 C 167.553 105.522 167.22 105.294 167.15 105.224 C 167.01 105.171 167.01 105.136 166.484 105.119 C 166.362 105.119 166.239 105.136 166.046 105.154 C 164.084 105.311 163.225 105.627 163.207 105.627 L 159.457 105.855 Z " fill="rgb(232,246,253)"/><path d=" M 166.747 107.029 C 165.889 107.029 164.592 106.994 163.26 106.766 C 162.179 106.585 161.11 106.535 160.33 106.535 C 160.2 106.535 160.078 106.537 159.965 106.538 C 159.405 106.538 159.072 106.556 159.072 106.556 C 157.95 106.661 156.583 106.924 156.583 106.924 L 153.622 106.959 L 153.429 106.661 L 156.285 106.643 C 156.268 106.626 157.6 106.363 158.774 106.258 C 158.809 106.258 159.178 106.24 159.755 106.223 C 160.614 106.223 161.928 106.24 163.33 106.486 C 164.352 106.667 165.386 106.718 166.179 106.718 C 166.312 106.718 166.438 106.716 166.555 106.713 C 167.185 106.713 167.606 106.678 167.641 106.678 C 167.624 106.678 168.517 106.433 169.849 106.415 C 169.924 106.411 170.001 106.411 170.078 106.411 C 170.439 106.411 170.833 106.443 171.251 106.486 C 172.46 106.626 173.109 106.678 173.389 106.678 C 173.739 106.643 173.582 106.678 173.704 106.573 C 173.772 106.456 174.059 106.309 174.7 106.309 C 174.735 106.309 174.772 106.31 174.808 106.31 L 175.194 106.31 C 176.535 106.341 177.149 106.417 177.658 106.417 C 177.709 106.417 177.757 106.417 177.805 106.415 C 178.191 106.415 178.646 106.363 179.54 106.24 L 179.908 106.521 C 179.014 106.678 178.489 106.713 177.98 106.731 C 177.279 106.731 176.771 106.643 175.334 106.626 L 175.001 106.608 C 174.388 106.626 174.44 106.678 174.37 106.731 C 174.37 106.801 174.195 106.994 173.669 106.994 L 173.599 106.994 C 173.144 106.994 172.46 106.941 171.234 106.801 C 170.813 106.731 170.41 106.713 170.042 106.713 C 169.446 106.713 168.938 106.766 168.587 106.836 C 168.237 106.906 168.027 106.959 168.027 106.959 C 167.923 106.994 167.466 107.011 166.747 107.029 Z " fill="rgb(232,246,253)"/><path d=" M 150.222 109.71 L 150.047 109.5 L 161.789 109.395 L 162.874 109.465 C 162.863 109.465 163.888 109.481 165.252 109.481 C 165.934 109.481 166.701 109.476 167.466 109.465 C 167.904 109.465 168.184 109.465 168.342 109.465 C 168.43 109.36 168.657 109.395 169.148 109.342 C 169.675 109.289 170.024 109.272 170.34 109.272 C 171.093 109.272 171.391 109.36 172.846 109.43 L 172.898 109.64 C 171.391 109.552 171.058 109.482 170.497 109.482 C 170.252 109.482 169.937 109.5 169.429 109.535 C 169.218 109.552 169.078 109.57 168.973 109.587 L 168.834 109.675 C 168.657 109.675 168.5 109.675 167.641 109.693 C 167.18 109.697 166.715 109.698 166.268 109.698 C 164.482 109.698 162.98 109.675 162.98 109.675 L 161.911 109.622 L 150.222 109.71 Z " fill="rgb(232,246,253)"/><path d=" M 151.652 110.395 C 151.002 110.395 150.765 110.394 150.765 110.394 L 150.607 110.183 C 150.625 110.183 152.062 110.183 157.827 110.131 C 159.773 110.113 162.245 110.078 165.345 110.061 C 166.677 110.043 167.238 110.025 167.238 110.025 L 167.781 109.973 L 167.851 109.955 L 169.902 110.131 L 170.971 110.113 L 173.371 110.148 L 173.494 110.376 L 171.128 110.323 L 169.989 110.341 L 168.027 110.183 L 167.485 110.236 C 167.413 110.236 166.852 110.253 165.521 110.271 C 162.419 110.306 159.948 110.323 157.985 110.358 C 154.537 110.389 152.627 110.395 151.652 110.395 Z " fill="rgb(232,246,253)"/><path d=" M 168.669 110.97 L 168.479 110.743 L 170.62 110.726 C 170.62 110.726 170.62 110.726 171.128 110.726 C 171.619 110.726 172.285 110.709 172.285 110.709 C 172.285 110.709 172.951 110.709 173.775 110.709 L 173.932 110.919 C 173.109 110.919 172.443 110.937 172.443 110.937 C 172.443 110.937 171.794 110.937 171.286 110.954 C 170.795 110.954 170.795 110.954 170.795 110.954 L 168.669 110.97 Z  M 166.22 110.639 L 164.476 110.639 C 164.698 110.604 164.942 110.604 165.188 110.604 C 165.234 110.604 165.283 110.602 165.331 110.602 C 165.634 110.602 165.94 110.617 166.22 110.639 Z  M 164.019 110.639 L 163.289 110.639 C 163.221 110.629 163.111 110.621 162.909 110.621 L 162.506 110.639 L 162.506 110.639 L 160.303 110.639 C 160.728 110.569 161.385 110.483 162.279 110.429 L 162.734 110.411 C 162.778 110.41 162.82 110.41 162.861 110.41 C 163.374 110.41 163.746 110.504 163.908 110.586 C 163.959 110.61 163.995 110.627 164.019 110.639 Z " fill="rgb(232,246,253)"/><path d=" M 169.42 111.879 L 169.186 111.597 C 169.269 111.515 169.538 111.427 170.113 111.427 L 170.445 111.427 C 171.549 111.458 172.092 111.502 172.513 111.502 C 172.58 111.502 172.644 111.5 172.706 111.498 C 173.056 111.498 173.442 111.48 174.213 111.375 L 174.53 111.585 C 173.757 111.69 173.301 111.708 172.863 111.725 C 172.267 111.725 171.812 111.673 170.569 111.638 L 170.287 111.638 C 169.744 111.655 169.797 111.69 169.744 111.725 C 169.732 111.765 169.65 111.841 169.42 111.879 Z " fill="rgb(232,246,253)"/><path d=" M 121.272 105.241 L 102.345 105.031 L 102.573 104.54 L 121.394 104.751 L 121.272 105.241 Z " fill="rgb(209,237,250)"/><path d=" M 121.045 106.03 L 101.977 105.837 L 102.207 105.311 L 121.184 105.522 L 121.045 106.03 Z " fill="rgb(209,237,250)"/><path d=" M 120.798 106.819 L 101.592 106.643 L 101.837 106.118 L 120.956 106.31 L 120.798 106.819 Z " fill="rgb(209,237,250)"/><path d=" M 120.588 107.625 L 101.224 107.449 L 101.452 106.924 L 120.728 107.099 L 120.588 107.625 Z " fill="rgb(209,237,250)"/><path d=" M 120.343 108.431 L 100.838 108.291 L 101.084 107.747 L 120.501 107.923 L 120.343 108.431 Z " fill="rgb(209,237,250)"/><path d=" M 120.115 109.272 L 100.454 109.132 L 100.681 108.589 L 120.255 108.729 L 120.115 109.272 Z " fill="rgb(209,237,250)"/><path d=" M 179.803 124.448 L 157.319 124.448 L 150.888 110.639 L 168.396 110.639 L 179.803 124.448 Z " fill="rgb(250,224,60)"/><path d=" M 157.529 113.46 C 156.899 113.425 156.864 113.46 156.741 113.338 L 156.758 113.303 L 156.706 113.285 C 156.636 113.232 156.478 113.18 156.215 113.11 C 155.847 113.005 155.619 112.97 155.479 112.97 C 155.467 112.97 155.457 112.97 155.447 112.97 C 155.143 112.97 155.088 113.208 154.393 113.46 L 154.323 113.285 C 155.006 113.04 155.024 112.794 155.479 112.777 C 155.656 112.777 155.882 112.829 156.268 112.935 C 156.776 113.075 156.899 113.127 156.934 113.267 L 156.951 113.267 C 157.039 113.267 157.214 113.285 157.529 113.285 C 158.896 113.285 160.141 113.11 160.158 113.11 L 160.684 112.917 L 167.764 112.847 L 167.764 113.04 L 160.701 113.11 L 160.211 113.285 C 160.193 113.285 158.914 113.46 157.529 113.46 Z " fill="rgb(154,139,42)"/><path d=" M 155.479 115.668 L 155.462 115.476 L 156.811 115.283 L 157.477 115.3 L 158.388 114.722 L 158.861 114.915 C 158.861 114.915 159.229 114.932 160.072 114.932 C 161.998 114.95 163.542 114.967 164.785 114.967 C 168.482 114.967 169.358 114.915 169.358 114.915 L 169.358 115.09 C 169.358 115.09 168.482 115.143 164.785 115.143 C 163.542 115.143 161.998 115.143 160.072 115.125 C 159.229 115.125 158.844 115.09 158.826 115.09 L 158.406 114.897 L 157.529 115.476 L 156.829 115.476 L 155.479 115.668 Z " fill="rgb(154,139,42)"/><path d=" M 167.729 117.666 L 165.275 117.228 C 165.275 117.228 164.136 116.492 162.787 116.194 L 162.506 116.141 L 162.331 116.247 C 162.331 116.404 162.506 116.685 162.506 116.878 L 162.331 117.053 L 161.998 116.948 C 161.807 116.86 161.63 116.842 161.49 116.842 C 161.481 116.842 161.472 116.842 161.464 116.842 C 160.887 116.842 160.63 117.387 160.544 117.456 L 160 117.456 L 158.388 117.456 C 158.388 117.456 158.388 117.456 158.073 117.456 L 157.582 117.456 L 157.337 117.456 C 157.337 117.456 156.899 117.456 156.373 117.456 L 156.373 117.263 C 156.899 117.263 157.337 117.263 157.337 117.263 C 157.337 117.263 157.757 117.263 158.073 117.263 C 158.388 117.263 158.388 117.263 158.388 117.263 L 160 117.263 L 160.456 117.316 C 160.456 117.316 160.754 116.65 161.49 116.65 C 161.648 116.65 161.858 116.685 162.068 116.772 L 162.314 116.86 C 162.314 116.755 162.156 116.474 162.156 116.247 C 162.156 116.089 162.279 115.966 162.506 115.966 L 162.839 116.001 C 164.206 116.317 165.345 117.053 165.345 117.053 L 167.729 117.473 L 171.234 117.263 L 171.251 117.456 L 167.729 117.666 Z " fill="rgb(154,139,42)"/><path d=" M 161.911 120.82 C 161.258 120.771 161.144 119.892 160.462 119.892 C 160.449 119.892 160.436 119.892 160.421 119.892 L 160.246 119.909 C 159.492 120.032 159.317 120.225 158.914 120.242 C 158.634 120.225 158.266 120.12 157.512 119.787 L 157.6 119.611 C 158.336 119.944 158.686 120.049 158.914 120.049 C 159.229 120.049 159.44 119.839 160.211 119.716 L 160.421 119.699 C 161.274 119.716 161.464 120.629 161.877 120.629 C 161.887 120.629 161.899 120.629 161.911 120.628 C 162.086 120.628 162.349 120.505 162.769 120.084 C 162.945 119.892 163.19 119.822 163.453 119.822 C 164.241 119.839 165.223 120.452 165.223 120.452 C 165.223 120.452 165.556 120.54 165.959 120.54 C 166.467 120.54 167.064 120.417 167.326 119.874 C 167.641 119.226 168.361 119.103 168.85 119.103 C 169.201 119.103 169.464 119.156 169.481 119.173 C 170.392 119.401 171.777 120.049 171.777 120.049 L 173.512 120.049 L 173.512 120.242 L 171.724 120.225 C 171.724 120.225 170.322 119.576 169.429 119.348 C 169.429 119.348 169.183 119.296 168.85 119.296 C 168.379 119.296 167.764 119.419 167.502 119.962 C 167.185 120.593 166.484 120.733 165.959 120.733 C 165.521 120.733 165.188 120.645 165.153 120.628 C 165.153 120.628 164.171 120.014 163.453 120.014 C 163.225 120.014 163.032 120.067 162.909 120.207 C 162.471 120.645 162.173 120.82 161.911 120.82 Z " fill="rgb(154,139,42)"/><path d=" M 215.114 124.133 L 192.245 124.133 L 181.783 111.55 L 201.218 110.832 L 215.114 124.133 Z " fill="rgb(211,25,59)"/><path d=" M 186.375 114.319 L 186.304 114.144 C 186.953 113.881 186.883 113.618 187.391 113.6 C 187.584 113.6 187.829 113.636 188.232 113.723 C 188.845 113.863 188.986 113.933 189.021 114.056 L 189.091 114.056 C 189.196 114.056 189.371 114.039 189.687 114.039 C 191.105 114.005 192.391 113.792 192.47 113.792 C 192.473 113.792 192.473 113.793 192.473 113.793 L 192.981 113.583 L 200.85 113.267 L 200.867 113.443 L 193.016 113.776 L 192.526 113.968 C 192.526 113.968 191.176 114.196 189.687 114.231 C 189.371 114.231 189.196 114.249 189.091 114.249 L 188.845 114.109 L 188.81 114.091 C 188.723 114.039 188.548 113.986 188.197 113.916 C 187.794 113.828 187.549 113.793 187.391 113.793 C 187.378 113.793 187.366 113.793 187.354 113.793 C 187.011 113.793 187.07 114.031 186.375 114.319 Z " fill="rgb(130,21,40)"/><path d=" M 188.162 116.457 L 188.145 116.264 L 189.494 116.054 L 190.177 116.054 L 190.983 115.476 L 191.544 115.633 C 191.544 115.633 191.719 115.633 192.087 115.633 C 192.28 115.633 192.526 115.633 192.824 115.633 C 201.235 115.493 202.953 115.37 202.97 115.37 L 202.988 115.546 C 202.988 115.546 201.253 115.686 192.824 115.826 C 192.526 115.826 192.28 115.826 192.087 115.826 C 191.719 115.826 191.544 115.826 191.509 115.826 L 191.001 115.633 L 190.247 116.229 L 189.511 116.229 L 188.162 116.457 Z " fill="rgb(130,21,40)"/><path d=" M 201.551 118.104 L 198.834 117.754 C 198.834 117.754 197.485 117.053 195.96 116.79 L 195.662 116.737 C 195.487 116.755 195.505 116.79 195.505 116.807 C 195.487 116.948 195.803 117.263 195.82 117.473 L 195.645 117.631 L 195.294 117.543 C 195.067 117.473 194.874 117.438 194.734 117.438 C 194.085 117.438 193.963 117.964 193.875 118.034 L 193.314 118.052 L 191.649 118.069 C 191.649 118.069 191.649 118.069 191.316 118.087 C 191.001 118.087 190.545 118.104 190.545 118.104 C 190.545 118.104 190.125 118.104 189.581 118.104 L 189.564 117.929 C 190.125 117.911 190.545 117.911 190.545 117.911 C 190.545 117.911 190.983 117.894 191.316 117.894 C 191.649 117.894 191.649 117.894 191.649 117.894 L 193.297 117.859 L 193.77 117.911 C 193.77 117.894 193.963 117.246 194.734 117.246 C 194.909 117.246 195.119 117.281 195.347 117.368 L 195.627 117.438 C 195.575 117.333 195.329 117.035 195.312 116.807 C 195.312 116.65 195.452 116.562 195.662 116.562 L 195.995 116.597 C 197.538 116.878 198.922 117.578 198.887 117.578 L 201.551 117.911 L 205.353 117.649 L 205.371 117.841 L 201.551 118.104 Z  M 189.581 118.104 L 189.564 118.104 L 189.581 118.104 Z " fill="rgb(130,21,40)"/><path d=" M 195.978 121.066 C 195.338 121.031 195.037 120.26 194.336 120.26 C 194.329 120.26 194.322 120.26 194.313 120.26 L 194.103 120.295 C 193.384 120.4 193.244 120.593 192.841 120.593 C 192.543 120.593 192.158 120.488 191.334 120.207 L 191.351 120.207 L 191.404 120.032 C 192.21 120.312 192.596 120.4 192.841 120.4 C 192.856 120.4 192.869 120.401 192.88 120.401 C 193.173 120.401 193.348 120.219 194.085 120.102 L 194.313 120.084 C 195.137 120.084 195.508 120.875 195.949 120.875 C 195.959 120.875 195.969 120.873 195.978 120.873 C 196.171 120.873 196.416 120.768 196.766 120.4 C 196.924 120.225 197.152 120.155 197.432 120.155 C 198.239 120.172 199.343 120.698 199.36 120.698 C 199.36 120.698 199.693 120.768 200.096 120.768 C 200.639 120.768 201.27 120.645 201.463 120.172 C 201.726 119.541 202.497 119.436 203.04 119.436 C 203.391 119.436 203.636 119.489 203.654 119.489 C 204.67 119.699 206.247 120.277 206.23 120.277 L 208.122 120.242 L 208.122 120.435 L 206.195 120.452 C 206.195 120.452 204.6 119.874 203.618 119.664 C 203.618 119.664 203.356 119.629 203.04 119.629 C 202.514 119.629 201.831 119.752 201.638 120.242 C 201.375 120.838 200.657 120.943 200.096 120.961 C 199.676 120.961 199.325 120.891 199.308 120.873 C 199.308 120.873 199.01 120.75 198.642 120.61 C 198.274 120.47 197.8 120.347 197.432 120.347 C 197.187 120.347 196.994 120.4 196.889 120.523 C 196.539 120.908 196.258 121.066 195.978 121.066 Z " fill="rgb(130,21,40)"/><path d=" M 117.646 122.647 L 95.166 122.647 L 102.839 111.143 L 120.334 111.143 L 117.646 122.647 Z " fill="rgb(183,194,212)"/><path d=" M 116.298 113.795 L 104.486 113.795 L 104.913 113.076 L 116.528 113.076 L 116.298 113.795 Z " fill="rgb(255,255,255)"/><path d=" M 115.567 116.134 L 103.108 116.134 L 103.556 115.392 L 115.804 115.392 L 115.567 116.134 Z " fill="rgb(255,255,255)"/><path d=" M 115.188 117.352 L 102.391 117.352 L 102.855 116.569 L 115.429 116.569 L 115.188 117.352 Z " fill="rgb(255,255,255)"/><path d=" M 114.779 118.642 L 101.641 118.642 L 102.123 117.815 L 115.04 117.815 L 114.779 118.642 Z " fill="rgb(255,255,255)"/><path d=" M 26.392 118.49 L 3.74 118.49 L 21.541 109.313 L 37.815 109.371 L 26.392 118.49 Z " fill="rgb(63,80,170)"/><path d=" M 32.096 111.354 L 20.911 111.324 L 21.909 110.773 L 32.858 110.807 L 32.096 111.354 Z " fill="rgb(255,255,255)"/><path d=" M 29.615 113.161 L 17.625 113.142 L 18.684 112.562 L 30.409 112.58 L 29.615 113.161 Z " fill="rgb(255,255,255)"/><path d=" M 28.286 114.129 L 15.869 114.104 L 16.995 113.489 L 29.142 113.501 L 28.286 114.129 Z " fill="rgb(255,255,255)"/><path d=" M 26.856 115.159 L 13.983 115.144 L 15.194 114.477 L 27.772 114.5 L 26.856 115.159 Z " fill="rgb(255,255,255)"/><path d=" M 148.382 127.094 L 125.9 127.094 L 126.441 113.285 L 143.948 113.285 L 148.382 127.094 Z " fill="rgb(122,24,89)"/><path d=" M 141.636 117.228 L 129.807 117.228 L 129.788 116.352 L 141.425 116.352 L 141.636 117.228 Z " fill="rgb(166,82,148)"/><path d=" M 142.336 120.032 L 129.876 120.032 L 129.859 119.138 L 142.11 119.138 L 142.336 120.032 Z " fill="rgb(166,82,148)"/><path d=" M 142.704 121.504 L 129.911 121.504 L 129.876 120.558 L 142.459 120.558 L 142.704 121.504 Z " fill="rgb(166,82,148)"/><path d=" M 143.072 123.046 L 129.946 123.046 L 129.911 122.047 L 142.844 122.047 L 143.072 123.046 Z " fill="rgb(166,82,148)"/><path d=" M 67.526 133.088 C 67.462 133.142 67.681 133.193 68.024 133.201 L 107.078 134.016 C 107.42 134.027 107.749 133.987 107.814 133.933 L 119.367 127.24 C 119.43 127.182 119.57 125.624 119.229 125.621 L 81.234 126.587 C 80.894 126.579 80.566 126.615 80.501 126.675 L 67.526 133.088 Z " fill="rgb(37,38,47)"/><path d=" M 67.457 131.516 C 67.393 131.578 67.619 131.623 67.96 131.632 L 107.017 132.451 C 107.357 132.457 107.684 132.422 107.749 132.363 L 119.3 125.67 C 119.367 125.616 119.142 125.57 118.805 125.559 L 81.169 125.019 C 80.828 125.01 80.501 125.05 80.437 125.107 L 67.457 131.516 Z " fill="rgb(25,25,31)"/><path d=" M 107.845 133.352 C 107.901 133.729 107.664 134.032 107.319 134.025 L 67.527 133.188 C 67.18 133.184 66.854 132.87 66.799 132.49 L 62.317 102.543 C 62.261 102.164 62.495 101.862 62.843 101.869 L 102.617 102.703 C 102.966 102.711 103.295 103.026 103.353 103.407 L 107.845 133.352 Z " fill="rgb(37,38,47)"/><path d=" M 111.201 58.218 C 111.747 59.03 119.018 68.743 120.858 72.539 C 123.126 74.007 125.149 75.992 126.132 77.302 C 126.749 78.184 127.481 79.142 127.899 79.717 C 128.803 80.934 130.273 83.212 129.33 83.488 C 128.925 83.6 127.928 82.003 126.839 80.953 L 124.876 79.335 C 125.015 80.783 126.075 85.732 125.578 86.062 C 124.574 86.72 124.347 82.676 123.309 80.561 L 123.256 80.516 C 123.912 82.117 124.395 85.969 123.528 85.911 C 123.132 85.883 122.4 82.766 121.533 81.232 L 121.26 81.145 C 121.713 82.571 122.468 85.138 122.081 85.118 C 121.608 85.107 121.02 83.472 120.005 81.9 C 118.497 81.243 117.375 78.825 116.908 77.784 C 116.521 76.922 116.159 75.976 115.886 75.224 C 110.725 71.617 101.373 63.799 101.344 60.163 L 110.066 56.278 L 111.201 58.218 Z " fill="rgb(201,142,125)"/><path d=" M 108.602 26.139 C 105.268 25.948 101.934 29.349 101.548 32.039 C 101.164 34.731 98.214 55.126 98.214 59.742 C 98.214 64.357 107.578 70.771 108.345 71.926 C 108.345 71.926 111.04 68.464 116.105 66.476 C 117.897 65.771 108.968 59.773 109.741 56.309 C 110.509 52.848 111.486 47.236 111.486 42.621 C 111.486 38.005 108.602 26.139 108.602 26.139 Z " fill="rgb(255,185,8)"/><path d=" M 111.486 45.631 C 111.614 47.814 111.486 50.507 111.486 52.048 C 111.486 53.585 110.334 53.97 110.719 55.126 C 111.103 56.281 113.412 61.539 114.566 61.539 C 115.721 61.539 118.541 67.694 118.541 67.694 C 118.541 67.694 113.862 66.029 109.882 70.385 C 108.948 71.411 106.487 64.743 106.487 64.743 L 111.871 61.664 C 111.871 61.664 110.623 57.339 107.928 57.339 C 105.235 57.339 101.615 57.948 101.615 57.948 C 101.615 57.948 107.351 53.873 108.507 55.028 C 108.507 55.028 103.889 54.741 102.35 55.509 C 105.812 53.105 107.16 52.24 108.412 53.105 C 107.255 51.855 107.544 50.314 107.544 49.93 C 107.544 49.545 109.787 47.462 110.077 45.25 C 110.363 43.037 111.359 40.374 110.848 36.785 C 110.623 35.214 111.486 45.631 111.486 45.631 Z " fill="rgb(247,202,88)"/><path d=" M 147.846 37.552 C 143.342 41.083 144.255 46.533 144.255 46.533 C 144.255 46.533 149.252 53.101 150.923 55.319 C 150.001 56.565 143.979 62.895 143.979 62.895 C 141.111 63.107 141.023 63.561 139.382 64.357 C 138.034 65.016 135.174 66.768 135.174 66.768 C 135.174 66.768 134.939 67.884 136.785 67.437 C 137.876 67.173 139.497 66.594 139.862 66.476 C 139.643 66.616 136.547 68.924 136.159 69.641 C 135.763 70.349 136.785 70.708 136.785 70.708 C 136.394 72.415 137.125 71.793 137.125 71.793 C 136.822 73.221 138.089 72.913 138.089 72.913 C 137.937 73.23 138.037 73.575 138.892 73.747 C 139.761 73.924 142.047 72.922 143.392 72.32 C 144.415 71.964 146.597 68.814 147.46 68.302 C 151.986 65.62 156.678 60.652 159.514 56.15 C 156.18 48.585 150.939 38.263 147.846 37.552 Z " fill="rgb(218,169,157)"/><path d=" M 144.767 32.169 C 147.335 32.423 149.898 35.76 151.18 38.322 C 152.462 40.889 158.362 50.638 159.13 51.918 C 159.9 53.201 159.98 55.953 159.98 55.953 C 159.98 55.953 154.257 52.305 149.641 56.664 C 148.361 55.639 148.614 54.484 148.614 54.484 C 148.614 54.484 148.613 52.435 145.794 50.378 C 142.973 48.327 142.463 50.121 141.43 47.559 C 140.408 44.993 144.767 32.169 144.767 32.169 Z " fill="rgb(255,185,8)"/><path d=" M 144.767 32.169 C 146.305 32.423 149.416 32.908 151.983 38.678 C 154.547 44.448 157.721 49.355 158.106 49.997 C 158.49 50.636 160.798 52.69 160.158 56.281 C 160.158 56.281 157.56 53.071 154.098 53.778 C 150.635 54.485 152.462 50.891 152.462 50.891 L 155.06 50.123 C 155.06 50.123 155.025 49.034 153.937 46.79 C 152.848 44.544 145.892 34.186 144.288 34.831 C 142.682 35.471 144.767 32.169 144.767 32.169 Z " fill="rgb(247,202,88)"/><path d=" M 213.301 78.85 C 208.709 80.739 188.458 91.539 187.108 96.399 C 185.754 101.262 188.726 103.693 188.726 103.693 L 197.368 105.041 L 213.301 78.85 Z " fill="rgb(149,163,188)"/><path d=" M 218.199 104.02 C 223.208 102.916 237.1 98.454 238.915 99.032 C 239.827 99.317 240.005 100.726 239.917 102.683 C 239.844 104.33 238.705 106.677 240.793 106.404 C 242.876 106.134 245.459 103.173 245.489 100.825 C 245.535 98.058 244.655 97.171 244.862 95.33 C 245.069 93.507 244.945 91.204 243.621 90.927 C 242.709 90.733 241.334 91.546 240.122 92.44 C 238.086 93.932 219.42 96.928 219.42 96.928 C 219.42 96.928 215.339 104.651 218.199 104.02 Z " fill="rgb(209,156,140)"/><path d=" M 240.693 91.81 C 241.452 91.967 242.306 91.77 242.66 94.325 C 243.018 96.875 243.941 100.812 243.002 102.234 C 242.055 103.669 239.799 104.256 239.776 103.581 C 239.76 102.915 238.823 106.036 239.266 107.292 C 239.711 108.53 245.77 105.882 246.349 102.941 C 246.927 99.991 245.531 98.581 245.588 96.146 C 245.642 93.71 245.397 90.93 243.223 90.725 C 241.481 90.569 240.693 91.81 240.693 91.81 Z " fill="rgb(183,194,212)"/><path d=" M 218.593 105.596 C 224.15 104.364 239.576 99.412 241.586 100.054 C 242.603 100.374 242.801 101.937 242.704 104.11 C 242.619 105.938 241.357 108.542 243.673 108.239 C 245.991 107.942 248.852 104.651 248.884 102.045 C 248.941 98.972 247.964 97.989 248.192 95.952 C 248.427 93.919 248.285 91.368 246.813 91.052 C 245.802 90.838 244.273 91.743 242.931 92.735 C 240.668 94.392 219.948 97.713 219.948 97.713 C 219.948 97.713 215.421 106.293 218.593 105.596 Z " fill="rgb(218,169,157)"/><path d=" M 243.562 92.038 C 244.409 92.209 245.359 91.993 245.75 94.83 C 246.143 97.662 247.169 102.03 246.127 103.612 C 245.074 105.205 242.572 105.853 242.546 105.106 C 242.523 104.364 241.487 107.835 241.982 109.221 C 242.476 110.599 249.204 107.655 249.845 104.393 C 250.484 101.117 248.936 99.553 248.999 96.853 C 249.058 94.15 248.789 91.057 246.375 90.835 C 244.436 90.661 243.562 92.038 243.562 92.038 Z " fill="rgb(183,194,212)"/><path d=" M 221.247 76.96 C 217.045 79.094 191.901 92.754 190.642 96.171 C 189.961 98.01 187.163 102.937 189.773 104.095 C 193.422 105.716 194.29 106.427 195.643 106.427 C 198.588 106.427 233.823 108.552 233.823 108.552 C 233.823 108.552 238.051 99.162 236.786 93.612 C 235.054 85.963 221.247 76.96 221.247 76.96 Z " fill="rgb(149,163,188)"/><path d=" M 238.685 84.047 C 238.685 87.897 240.607 92.249 236.352 95.491 C 232.101 98.728 229.874 97.313 226.837 97.313 C 223.799 97.313 225.014 83.54 225.014 83.54 L 238.685 84.047 Z " fill="rgb(149,163,188)"/><path d=" M 214.18 94.175 C 219.241 92.552 233.214 92.958 235.849 93.366 C 238.479 93.769 236.656 95.388 236.656 95.388 L 214.18 94.175 Z " fill="rgb(183,194,212)"/><path d=" M 217.823 81.414 C 214.583 82.02 196.153 93.564 194.532 95.794 C 192.508 94.982 194.129 95.184 192.508 94.982 C 190.889 94.781 213.166 79.59 214.583 79.387 C 216.001 79.187 217.823 81.414 217.823 81.414 Z " fill="rgb(183,194,212)"/><path d=" M 224.639 49.127 C 223.804 44.943 215.814 45.497 215.814 45.497 C 215.814 45.497 206.755 63.837 205.183 64.334 C 203.732 64.795 194.272 69.79 191.787 71.091 C 191.109 71.14 190.338 71.151 189.806 71.016 C 189.14 70.851 187.739 70.52 187.113 70.234 C 186.486 69.95 185.345 70.326 184.184 69.978 C 183.762 69.849 183.191 70.086 183.547 70.477 C 183.902 70.86 184.697 70.911 185.279 71.298 C 185.998 71.771 183.647 72.35 183.02 72.469 C 182.487 72.57 179.381 73.655 179.52 74.026 C 179.771 74.71 183.168 73.163 183.201 73.47 C 183.229 73.717 179.312 74.707 179.555 75.094 C 180.069 75.917 182.951 74.467 183.449 74.8 C 183.449 74.8 182.692 75.054 181.875 75.319 C 181.126 75.561 180.326 75.631 180.248 75.828 C 179.699 77.182 184.308 74.923 184.308 75.58 C 184.304 76.098 181.628 76.602 181.972 77.115 C 182.144 77.372 185.227 76.326 185.227 76.326 C 185.227 76.326 189.669 75.676 191.179 75.088 C 191.724 74.87 193.162 74.416 194.22 74.083 C 197.955 73.284 205.79 71.487 208.756 69.898 C 210.64 68.893 225.474 53.315 224.639 49.127 Z " fill="rgb(201,142,125)"/><path d=" M 202.257 35.624 C 206.049 36.34 209.729 37.628 211.969 42.044 C 212.958 43.988 212.156 49.362 212.48 52.049 C 212.8 54.659 218.336 48.883 221.042 45.466 C 223.425 42.452 221.747 40.834 223.567 39.362 C 221.422 38.439 211.386 28.935 210.158 23.534 C 208.931 18.134 202.257 35.624 202.257 35.624 Z " fill="rgb(201,142,125)"/><path d=" M 205.479 14.592 C 211.718 13.815 216.315 14.3 217.298 22.151 C 218.279 30.014 211.45 38.39 205.311 39.762 C 202.402 40.403 201.022 39.217 199.465 34.973 C 198.541 34.938 197.669 34.741 197.64 34.091 C 198.022 32.739 198.218 31.689 198.295 30.805 C 198.101 29.841 196.918 27.257 196.804 26.233 C 195.823 18.369 199.234 15.378 205.479 14.592 Z " fill="rgb(201,142,125)"/><path d=" M 216.773 18.176 C 213.216 11.904 205.042 12.051 199.271 16.174 C 197.968 17.104 197.472 18.251 197.285 19.168 C 194.608 21.995 196.041 23.486 197.762 23.724 C 199.51 23.962 206.779 26.664 207.158 27.186 C 207.525 27.715 207.865 24.676 209.079 25.641 C 210.738 26.967 210.176 30.186 210.176 30.186 L 216.353 34.215 C 216.353 34.215 221.75 26.966 216.773 18.176 Z " fill="rgb(25,25,31)"/><path d=" M 217.823 39.391 C 217.016 40.82 211.849 46.884 211.849 46.884 C 211.975 50.139 211.116 54.338 211.332 59.22 C 211.427 61.463 214.069 64.189 215.867 64.811 C 219.792 66.155 220.556 70.602 218.126 73.337 C 214.71 77.182 208.121 80.647 208.121 80.647 C 208.121 80.647 215.596 82.19 227.341 87.997 C 233.308 90.941 238.298 89.304 238.279 87.692 C 237.772 47.491 222.644 38.934 220.819 36.528 C 220.874 37.259 219.969 35.594 217.823 39.391 Z " fill="rgb(40,1,100)"/><path d=" M 220.302 35.695 C 222.421 37.107 224.921 39.456 227.037 41.019 C 230.407 44.019 231.386 45.527 232.877 49.415 C 237.735 62.029 242.33 77.565 238.953 89.649 C 238.752 90.369 233.719 90.63 227.341 87.997 C 232.608 78.174 231.931 71.367 228.897 60.638 C 226.397 51.792 224.557 46.763 222.987 44.152 C 221.689 41.98 220.05 40.203 217.755 39.018 C 217.813 38.928 220.364 36.425 220.302 35.695 Z " fill="rgb(64,0,158)"/><path d=" M 227.104 50.891 C 224.962 47.001 219.477 50.196 219.477 50.196 C 219.477 50.196 218.409 70.105 217.006 71.092 C 216.09 71.736 212.162 75.222 209.308 77.343 L 205.204 80.168 C 203.249 79.724 199.106 79.107 198.44 79.497 C 197.77 79.885 195.858 81.515 195.476 81.862 C 195.094 82.213 194.458 83.237 194.376 83.612 C 194.272 84.031 194.737 84.644 195.106 84.167 C 195.476 83.679 196.977 82.466 196.977 82.466 C 196.977 82.466 196.235 83.942 196.403 84.252 C 196.6 84.59 196.834 84.547 196.834 84.547 L 197.495 84.125 C 197.495 84.125 197.035 84.744 197.302 85.141 C 197.437 85.321 197.887 85.12 198.151 84.939 C 197.932 85.264 197.561 85.531 198.081 85.794 C 198.466 85.994 199.154 85.525 199.154 85.525 C 199.154 85.525 198.782 86.01 198.98 86.268 C 199.154 86.543 200.16 86.46 200.572 86.314 C 200.984 86.181 205.479 84.906 206.785 84.452 L 207.208 84.287 C 209.581 83.337 222.74 77.021 224.249 75.687 C 225.909 74.219 229.248 54.781 227.104 50.891 Z " fill="rgb(201,142,125)"/><path d=" M 222.279 42.935 C 225.114 42.529 227.831 44.168 228.64 47.816 C 229.452 51.464 230.18 61.952 230.18 61.952 C 230.18 61.952 221.163 59.474 218.158 62.145 C 217.247 62.957 218.431 47.592 219.04 46.174 C 219.647 44.758 222.279 42.935 222.279 42.935 Z " fill="rgb(40,1,100)"/><path d=" M 218.833 46.276 C 218.494 48.629 217.58 58.489 217.676 63.205 C 219.119 61.566 220.417 60.559 222.053 60.751 C 222.053 60.751 222.197 43.966 221.236 43.871 C 220.272 43.776 218.927 45.603 218.833 46.276 Z " fill="rgb(64,0,158)"/><path d=" M 216.452 45.482 C 216.2 44.08 217.188 41.334 217.536 40.822 C 217.509 40.315 217.619 39.64 217.635 39.331 C 217.647 38.7 217.555 35.072 217.495 33.145 C 216.864 33.186 216.148 32.685 215.646 31.898 C 214.814 30.579 216.059 28.152 216.059 28.152 C 216.557 28.461 218.216 29.602 218.546 30.614 C 219.728 31.883 223.03 34.618 221.568 37.911 C 221.837 39.086 221.715 42.094 220.176 44.296 L 220.226 44.311 C 219.788 45.771 218.838 48.27 216.595 49.269 C 214.605 50.151 215.205 47.195 216.452 45.482 Z " fill="rgb(25,25,31)"/><path d=" M 215.212 31.886 C 215.57 32.951 215.668 37.502 217.333 38.601 C 216.584 39.765 215.913 40.403 217.14 42.002 C 215.627 42.7 215.101 44.252 216.094 45.983 C 215.668 46.447 213.318 48.207 214.587 49.549 C 212.807 50.722 209.422 55.697 209.688 59.189 C 210.067 59.512 211.433 56.294 211.433 56.294 L 213.137 52.718 C 213.137 52.718 211.919 57.159 211.966 57.407 C 212.011 57.661 213.42 54.83 213.42 54.83 L 212.185 58.152 L 214.922 55.515 C 214.922 55.515 216.341 48.785 217.555 46.33 C 218.768 43.876 220.091 35.617 218.133 33.278 C 216.176 30.945 216.007 30.969 215.769 31.105 C 215.529 31.229 215.212 31.886 215.212 31.886 Z " fill="rgb(36,36,40)"/><path d=" M 216.918 49.127 C 217.182 50.631 216.791 55.878 214.529 57.742 C 212.264 59.608 210.757 60.385 210.757 60.385 L 212.854 57.512 L 210.646 59.866 L 211.548 57.577 L 210.067 59.512 C 210.067 59.512 212.083 54.105 213.689 51.926 C 215.3 49.752 216.259 47.339 216.972 46.948 C 217.679 46.567 217.226 42.936 218.059 42.275 C 218.894 41.609 218.286 38.45 218.882 37.916 C 219.487 37.381 217.112 32.748 216.502 31.838 C 216.024 31.125 217.385 30.472 218.321 31.867 C 219.25 33.256 220.61 37.429 220.398 39.716 C 220.194 41.992 216.918 49.127 216.918 49.127 Z " fill="rgb(25,25,31)"/></g></g></g></svg>