<?xml version="1.0" encoding="UTF-8" standalone="no"?><!-- Generator: Gravit.io --><svg xmlns="http://www.w3.org/2000/svg" xmlns:xlink="http://www.w3.org/1999/xlink" style="isolation:isolate" viewBox="0 0 2000 1000" width="2000pt" height="1000pt"><defs><clipPath id="_clipPath_9NSDOHpgKftr8mDiplTBbScODa3GmVT7"><rect width="2000" height="1000"/></clipPath></defs><g clip-path="url(#_clipPath_9NSDOHpgKftr8mDiplTBbScODa3GmVT7)"><clipPath id="_clipPath_mCsE3sQU0B46ezPPRoRWOIahmvhgGYWk"><rect x="0" y="0" width="2000" height="1000" transform="matrix(1,0,0,1,0,0)" fill="rgb(255,255,255)"/></clipPath><g clip-path="url(#_clipPath_mCsE3sQU0B46ezPPRoRWOIahmvhgGYWk)"><g><g><path d=" M 826.887 351.693 C 826.887 351.92 826.872 352.12 826.867 352.333 C 826.859 352.56 826.855 352.8 826.837 353.013 C 826.824 353.2 826.799 353.387 826.777 353.573 C 826.753 353.787 826.728 354.013 826.693 354.24 C 826.66 354.453 826.617 354.653 826.575 354.867 C 826.541 355.027 826.512 355.187 826.473 355.347 C 826.42 355.573 826.356 355.787 826.293 356 C 826.251 356.147 826.209 356.307 826.161 356.453 L 826.064 356.72 C 825.853 357.32 825.613 357.907 825.325 358.467 L 825.305 358.507 C 825.025 359.067 824.696 359.587 824.339 360.12 L 824.165 360.373 C 823.805 360.88 823.407 361.373 822.975 361.853 C 822.855 361.987 822.731 362.12 822.605 362.253 C 822.471 362.387 822.329 362.533 822.189 362.667 C 822.028 362.827 821.86 362.987 821.691 363.133 C 821.536 363.267 821.383 363.413 821.221 363.547 C 821.079 363.667 820.927 363.787 820.777 363.907 C 820.505 364.133 820.223 364.347 819.932 364.547 C 819.78 364.653 819.631 364.773 819.475 364.88 C 819.161 365.093 818.833 365.307 818.499 365.507 C 818.355 365.6 818.213 365.693 818.064 365.787 C 817.777 365.96 817.473 366.107 817.169 366.28 C 817.001 366.373 816.841 366.467 816.668 366.547 C 816.187 366.8 815.688 367.04 815.169 367.267 C 813.213 368.093 811.14 368.747 808.972 369.28 C 807.245 369.693 805.463 370.013 803.632 370.293 C 801.891 370.533 800.105 370.733 798.291 370.88 C 795.763 371.08 793.177 371.2 790.56 371.28 C 784.835 371.44 778.964 371.387 773.259 371.547 C 770.688 371.613 768.148 371.733 765.673 371.933 L 766.443 459.68 C 768.92 459.48 771.457 459.36 774.029 459.293 C 779.736 459.133 785.605 459.187 791.332 459.027 C 793.949 458.96 796.535 458.84 799.06 458.627 C 800.877 458.48 802.66 458.293 804.403 458.027 C 806.232 457.773 808.017 457.44 809.743 457.013 C 811.912 456.493 813.985 455.84 815.941 455.013 C 816.461 454.787 816.964 454.547 817.449 454.293 C 817.591 454.227 817.72 454.147 817.859 454.067 C 818.195 453.893 818.529 453.707 818.849 453.52 L 818.951 453.467 L 819.233 453.28 C 819.581 453.067 819.921 452.853 820.248 452.627 C 820.404 452.52 820.552 452.413 820.703 452.307 C 820.993 452.093 821.273 451.88 821.544 451.667 L 821.804 451.467 L 821.995 451.293 C 822.155 451.16 822.308 451.027 822.463 450.88 C 822.629 450.733 822.797 450.587 822.957 450.427 C 823.101 450.28 823.241 450.133 823.38 450 L 823.637 449.733 L 823.743 449.6 C 824.177 449.12 824.577 448.627 824.937 448.12 L 825.012 448.027 L 825.109 447.867 C 825.465 447.347 825.797 446.813 826.077 446.253 L 826.083 446.253 L 826.091 446.227 C 826.385 445.653 826.629 445.053 826.84 444.453 L 826.896 444.32 L 826.925 444.213 C 826.984 444.04 827.031 443.867 827.081 443.693 C 827.136 443.507 827.192 443.307 827.241 443.12 C 827.281 442.947 827.315 442.76 827.349 442.587 C 827.381 442.44 827.419 442.293 827.444 442.147 L 827.463 442 C 827.5 441.76 827.528 441.52 827.552 441.293 C 827.572 441.12 827.593 440.96 827.607 440.787 C 827.627 440.52 827.635 440.253 827.64 440 C 827.644 439.867 827.657 439.747 827.657 439.627 L 827.657 439.453 L 826.887 351.693 Z " fill="rgb(230,166,7)"/><path d=" M 756.129 373.293 L 756.037 373.32 C 754.408 373.707 746.008 376.533 740.116 379.16 C 739.571 379.4 739.044 379.64 738.547 379.88 L 739.317 467.64 C 739.815 467.4 740.34 467.147 740.888 466.907 C 746.777 464.28 755.18 461.467 756.809 461.053 L 756.9 461.04 C 758.28 460.733 759.697 460.48 761.144 460.267 C 762.871 460.027 764.64 459.84 766.443 459.68 L 765.673 371.933 C 763.871 372.08 762.099 372.28 760.375 372.52 C 758.927 372.733 757.509 372.987 756.129 373.293 Z " fill="rgb(120,29,67)"/><path d=" M 861.076 549.8 L 860.303 462.053 L 704.039 527.8 L 704.68 600.827 C 686.535 603 670.228 601.293 661.429 595.36 C 655.575 591.413 654.679 586.347 654.533 581.093 C 654.521 579.64 654.508 578.187 654.496 576.747 C 654.457 572.427 654.157 568.147 651.305 564.387 C 650.696 563.6 644.416 558.253 639.116 555.12 L 483.021 620.813 L 483.793 708.547 L 639.887 642.88 C 645.187 646 651.467 651.347 652.077 652.133 C 654.631 655.493 655.135 659.28 655.24 663.147 C 655.252 664.6 655.265 666.04 655.279 667.48 C 655.328 673.227 655.844 678.827 662.201 683.107 C 677.272 693.28 714.341 691.053 745.012 678.147 C 745.875 677.787 746.727 677.413 747.56 677.04 C 767.965 667.947 779.704 656.293 779.619 646.76 C 779.437 625.933 779.255 605.12 779.071 584.307 L 861.076 549.8 Z " fill="rgb(230,166,7)"/><path d=" M 815.169 367.267 L 815.941 455.013 C 799.615 461.893 775.051 457.053 756.9 461.04 C 755.528 461.347 746.897 464.227 740.888 466.907 C 740.34 467.147 739.815 467.4 739.317 467.64 L 738.547 379.88 C 739.044 379.64 739.571 379.4 740.116 379.16 C 746.128 376.48 754.76 373.587 756.129 373.293 C 774.281 369.293 798.843 374.147 815.169 367.267 Z " fill="rgb(230,166,7)"/><path d=" M 483.021 620.813 L 188.7 422.2 L 189.472 509.947 L 483.793 708.547 L 483.021 620.813 L 483.021 620.813 Z " fill="rgb(230,166,7)"/><path d=" M 772.499 548.627 C 763.137 542.307 746.992 542.707 733.859 540.28 C 727.045 539.027 720.047 537.173 714.567 534.667 C 713.376 534.12 707.481 530.72 704.039 527.8 L 860.303 462.053 L 738.547 379.88 C 739.044 379.64 739.571 379.4 740.116 379.16 C 746.128 376.48 754.76 373.587 756.129 373.293 C 774.281 369.293 798.843 374.147 815.169 367.267 C 833.757 358.973 829.843 339.56 806.175 323.6 C 782.253 307.453 747.2 300.96 727.311 309.333 C 715.915 314.413 716.372 322.827 711.729 329.72 C 709.285 333.347 705.701 337.093 700.929 340.027 C 700.356 340.373 698.161 341.48 695.387 342.72 C 693.089 343.747 690.396 344.853 687.891 345.707 L 565.984 263.44 L 188.7 422.2 L 483.021 620.813 L 639.116 555.12 C 644.416 558.253 650.696 563.6 651.305 564.387 C 658.604 573.987 649.193 587.107 661.429 595.36 C 676.5 605.52 713.571 603.293 744.241 590.4 C 745.103 590.027 745.955 589.667 746.789 589.293 C 775.6 576.44 787.14 558.507 772.499 548.627 Z " fill="rgb(255,186,8)"/><path d=" M 1046.276 173.147 C 1066.743 157.96 1068.156 153.84 1071.249 147.667 C 1084.583 121.187 1050.556 126.987 1042.263 130.213 C 1037.489 132.067 1038.929 143.827 1025.743 160.4 C 1025.743 160.4 1003.769 177.92 997.703 177.8 C 997.703 177.8 991.663 179.6 992.316 184.04 C 992.316 184.04 1010.676 191.52 1046.276 173.147 Z " fill="rgb(230,131,104)"/><path d=" M 1046.196 129.013 C 1046.196 129.013 1052.263 140.747 1036.423 139.987 L 1019.663 130.747 C 1019.663 130.747 1014.609 128.933 1015.609 124.213 C 1015.609 124.213 1017.036 121.4 1022.223 123.227 L 1046.196 129.013 L 1046.196 129.013 Z " fill="rgb(230,131,104)"/><path d=" M 1574.476 496.933 L 1568.529 514.16 L 1574.409 539.6 C 1574.409 539.6 1569.316 542.667 1565.943 534.067 L 1560.409 512.96 L 1565.449 493.253 L 1574.476 496.933 Z " fill="rgb(230,131,104)"/><path d=" M 1568.636 502.04 L 1561.729 518.907 L 1566.183 544.627 C 1566.183 544.627 1560.929 547.413 1558.036 538.627 L 1553.689 517.253 L 1559.823 497.853 L 1568.636 502.04 L 1568.636 502.04 Z " fill="rgb(230,131,104)"/><path d=" M 1548.103 502.24 L 1555.169 482.267 L 1563.503 457.36 L 1579.916 458.16 L 1580.343 486.133 L 1579.023 500.533 L 1576.996 520.16 L 1576.676 526.56 C 1576.676 526.56 1571.369 527.24 1569.343 516.573 L 1568.689 497.587 L 1559.063 510.6 L 1560.196 536.853 C 1560.196 536.853 1556.236 549.693 1553.223 544.013 L 1546.636 506.227 L 1548.103 502.24 Z " fill="rgb(230,131,104)"/><path d=" M 917.076 318.133 C 917.343 318.053 917.636 318 917.916 317.947 C 918.343 317.853 918.769 317.747 919.209 317.667 C 919.516 317.6 919.836 317.547 920.156 317.493 C 920.463 317.44 920.769 317.387 921.076 317.347 L 921.716 390.88 L 1043.489 473.04 L 1042.729 385.293 L 941.836 317.227 C 943.316 317.4 944.809 317.613 946.316 317.853 C 946.636 317.907 946.969 317.96 947.289 318.027 C 947.863 318.12 948.436 318.227 949.009 318.333 C 949.396 318.413 949.783 318.493 950.169 318.56 C 950.729 318.68 951.289 318.787 951.849 318.92 C 952.196 318.987 952.543 319.067 952.903 319.147 C 953.783 319.347 954.663 319.56 955.543 319.787 C 955.783 319.84 956.009 319.893 956.249 319.96 C 957.343 320.24 958.423 320.547 959.516 320.867 C 959.703 320.92 959.903 320.987 960.089 321.04 C 961.596 321.48 963.103 321.96 964.583 322.467 L 964.743 322.52 C 966.249 323.04 967.743 323.587 969.223 324.16 L 969.543 324.293 C 971.223 324.947 972.889 325.653 974.529 326.387 L 974.756 326.493 C 976.423 327.24 978.049 328.04 979.663 328.867 L 979.823 328.947 C 981.449 329.787 983.063 330.68 984.623 331.6 L 984.703 331.653 C 986.303 332.587 987.849 333.573 989.369 334.587 C 1002.796 343.653 1009.876 353.853 1009.943 362.52 C 1009.689 333.267 1009.436 304.013 1009.183 274.773 C 1009.103 266.093 1002.036 255.92 988.596 246.84 C 987.076 245.813 985.529 244.84 983.943 243.907 L 983.849 243.853 C 982.289 242.933 980.689 242.053 979.049 241.2 L 978.889 241.12 C 977.276 240.28 975.649 239.493 973.996 238.747 L 973.743 238.64 C 972.116 237.893 970.463 237.2 968.783 236.547 L 968.689 236.507 L 968.409 236.4 C 966.956 235.84 965.489 235.293 964.009 234.787 L 963.809 234.707 C 962.329 234.2 960.849 233.747 959.356 233.307 C 959.236 233.267 959.103 233.213 958.969 233.173 L 958.716 233.107 C 957.649 232.8 956.569 232.493 955.489 232.213 C 955.236 232.147 954.996 232.093 954.756 232.027 C 953.889 231.813 953.023 231.6 952.156 231.4 C 951.983 231.373 951.809 231.32 951.623 231.28 C 951.436 231.24 951.236 231.2 951.036 231.16 C 950.503 231.04 949.983 230.933 949.449 230.827 C 949.036 230.733 948.623 230.653 948.223 230.587 C 947.676 230.48 947.143 230.373 946.596 230.28 C 946.303 230.24 946.023 230.187 945.743 230.133 L 945.529 230.107 C 944.023 229.853 942.543 229.653 941.063 229.467 C 940.943 229.453 940.809 229.44 940.676 229.413 L 940.396 229.4 C 939.103 229.253 937.823 229.133 936.556 229.04 L 936.236 229.013 C 936.089 229 935.943 229 935.796 229 C 934.609 228.92 933.409 228.867 932.236 228.84 L 932.196 228.84 L 932.143 228.84 C 931.036 228.813 929.943 228.827 928.863 228.853 C 928.716 228.853 928.569 228.853 928.423 228.853 C 928.303 228.853 928.183 228.867 928.049 228.867 C 926.969 228.907 925.889 228.96 924.836 229.04 L 924.743 229.053 L 924.503 229.08 C 923.409 229.173 922.343 229.307 921.289 229.44 L 920.929 229.493 L 920.676 229.533 C 920.263 229.587 919.849 229.667 919.436 229.733 C 919.103 229.787 918.756 229.853 918.423 229.92 C 918.023 230 917.623 230.08 917.223 230.173 C 916.943 230.24 916.663 230.28 916.396 230.36 L 916.289 230.373 C 915.343 230.613 914.436 230.867 913.543 231.147 C 913.329 231.213 913.129 231.28 912.929 231.347 C 912.023 231.653 911.143 231.973 910.303 232.32 C 909.623 232.627 908.996 232.933 908.396 233.253 C 908.223 233.347 908.049 233.453 907.876 233.547 C 907.663 233.667 907.436 233.787 907.236 233.907 C 907.063 234.013 906.903 234.12 906.729 234.24 C 906.516 234.373 906.303 234.507 906.089 234.653 C 905.756 234.88 905.449 235.107 905.143 235.333 C 904.956 235.48 904.783 235.613 904.609 235.747 L 904.423 235.893 C 904.063 236.187 903.716 236.493 903.396 236.813 L 903.263 236.933 C 903.009 237.187 902.769 237.427 902.529 237.693 L 902.529 237.72 L 902.529 237.72 L 902.529 237.693 L 902.316 237.933 C 902.209 238.067 902.103 238.187 901.983 238.32 C 901.756 238.587 901.543 238.867 901.329 239.147 C 901.236 239.28 901.129 239.4 901.036 239.533 L 900.889 239.733 C 900.796 239.88 900.703 240.027 900.609 240.173 C 900.436 240.44 900.249 240.72 900.089 241 C 899.969 241.2 899.849 241.4 899.729 241.6 C 899.569 241.88 899.423 242.16 899.276 242.44 L 899.129 242.693 L 898.996 242.987 C 898.756 243.467 898.516 243.96 898.289 244.467 L 898.183 244.707 C 897.876 245.373 897.596 246.053 897.303 246.72 C 897.116 247.16 896.929 247.6 896.743 248.04 C 896.649 248.227 896.556 248.427 896.476 248.627 C 896.209 249.2 895.943 249.787 895.649 250.347 C 895.516 250.64 895.356 250.92 895.196 251.2 C 895.116 251.36 895.036 251.507 894.943 251.667 C 894.689 252.107 894.423 252.533 894.143 252.96 C 893.956 253.227 893.756 253.507 893.556 253.773 C 893.289 254.16 892.996 254.547 892.703 254.92 C 892.569 255.093 892.436 255.253 892.303 255.427 C 891.889 255.933 891.463 256.427 891.009 256.933 L 890.929 257.027 C 890.463 257.533 889.956 258.04 889.436 258.547 C 889.289 258.693 889.129 258.827 888.969 258.973 C 888.583 259.333 888.196 259.68 887.783 260.027 C 887.583 260.2 887.396 260.36 887.183 260.533 C 886.769 260.867 886.343 261.187 885.916 261.52 C 885.716 261.653 885.529 261.813 885.329 261.947 C 884.689 262.4 884.036 262.84 883.343 263.28 L 883.223 263.347 L 883.023 263.467 L 882.889 263.52 L 882.596 263.68 L 882.383 263.8 C 882.276 263.853 882.156 263.907 882.036 263.973 L 881.783 264.093 C 881.649 264.16 881.529 264.227 881.369 264.293 L 881.036 264.453 C 880.903 264.533 880.769 264.6 880.609 264.667 C 880.449 264.747 880.263 264.827 880.089 264.92 L 879.769 265.067 C 879.583 265.16 879.369 265.253 879.156 265.347 L 878.836 265.507 C 878.516 265.64 878.183 265.787 877.836 265.947 C 875.529 266.973 872.823 268.093 870.289 268.947 L 748.403 186.693 L 749.172 274.44 L 871.063 356.693 C 873.596 355.84 876.303 354.733 878.609 353.693 C 878.956 353.547 879.289 353.4 879.609 353.253 L 879.783 353.173 C 880.049 353.04 880.303 352.933 880.543 352.813 L 880.823 352.68 C 881.023 352.587 881.209 352.493 881.383 352.413 C 881.516 352.36 881.623 352.307 881.729 352.253 C 881.876 352.187 882.023 352.107 882.156 352.04 L 882.423 351.92 C 882.556 351.84 882.703 351.773 882.823 351.707 L 883.023 351.613 C 883.143 351.547 883.276 351.48 883.369 351.427 L 883.529 351.347 L 883.809 351.2 L 883.916 351.133 L 884.076 351.04 L 884.116 351.013 C 884.796 350.6 885.463 350.147 886.089 349.707 C 886.303 349.547 886.489 349.4 886.703 349.253 C 887.129 348.933 887.543 348.613 887.943 348.28 L 888.276 348.027 L 888.569 347.773 C 888.969 347.427 889.343 347.093 889.716 346.747 C 889.889 346.587 890.049 346.44 890.209 346.293 C 890.729 345.787 891.223 345.28 891.703 344.773 L 891.716 344.76 L 891.796 344.653 C 892.249 344.16 892.676 343.667 893.076 343.173 C 893.209 343.013 893.329 342.84 893.463 342.68 C 893.769 342.293 894.063 341.907 894.329 341.52 L 894.543 341.24 C 894.676 341.053 894.796 340.88 894.903 340.707 C 895.196 340.28 895.463 339.853 895.716 339.413 C 895.823 339.213 895.929 339.013 896.049 338.813 C 896.169 338.587 896.289 338.36 896.409 338.133 L 896.423 338.107 C 896.716 337.52 896.996 336.933 897.249 336.36 C 897.329 336.187 897.396 336.027 897.476 335.867 C 897.703 335.347 897.929 334.813 898.156 334.293 C 898.409 333.693 898.676 333.093 898.943 332.493 L 899.089 332.147 C 899.303 331.68 899.529 331.213 899.756 330.747 C 899.849 330.56 899.956 330.373 900.049 330.187 C 900.196 329.907 900.343 329.64 900.503 329.36 C 900.609 329.147 900.729 328.947 900.863 328.733 C 901.023 328.453 901.209 328.187 901.383 327.92 C 901.529 327.707 901.663 327.493 901.809 327.293 C 901.903 327.16 902.009 327.027 902.103 326.893 C 902.316 326.613 902.529 326.347 902.756 326.08 C 902.863 325.947 902.983 325.813 903.103 325.68 C 903.396 325.333 903.703 325.013 904.036 324.68 L 904.169 324.547 C 904.543 324.2 904.956 323.84 905.383 323.493 C 905.543 323.36 905.729 323.213 905.903 323.093 C 906.209 322.853 906.529 322.627 906.863 322.4 C 907.063 322.267 907.289 322.12 907.503 321.987 C 907.863 321.747 908.249 321.52 908.649 321.293 C 908.823 321.2 908.996 321.093 909.169 321 C 909.769 320.68 910.396 320.36 911.076 320.067 C 911.916 319.707 912.796 319.4 913.689 319.107 C 913.903 319.04 914.103 318.96 914.316 318.907 C 915.209 318.613 916.129 318.36 917.076 318.133 Z " fill="rgb(230,166,7)"/><path d=" M 1420.783 314.28 L 1420.009 226.533 L 1263.729 292.293 L 1264.369 365.32 L 1264.223 365.333 C 1263.876 365.373 1263.543 365.413 1263.209 365.453 C 1261.956 365.587 1260.716 365.707 1259.489 365.813 C 1259.369 365.827 1259.249 365.827 1259.129 365.84 C 1258.223 365.92 1257.329 365.973 1256.436 366.027 C 1256.103 366.053 1255.769 366.053 1255.436 366.08 C 1254.769 366.107 1254.089 366.147 1253.436 366.16 C 1253.183 366.173 1252.943 366.173 1252.689 366.187 C 1251.129 366.213 1249.569 366.24 1248.063 366.2 C 1247.863 366.2 1247.649 366.2 1247.449 366.187 C 1246.183 366.16 1244.943 366.107 1243.729 366.027 L 1243.436 366.013 C 1242.303 365.933 1241.183 365.827 1240.089 365.707 C 1239.809 365.68 1239.543 365.653 1239.276 365.613 C 1238.343 365.507 1237.423 365.373 1236.516 365.24 L 1236.196 365.187 C 1235.223 365.027 1234.289 364.84 1233.356 364.64 C 1233.116 364.587 1232.889 364.533 1232.649 364.48 C 1231.796 364.28 1230.943 364.053 1230.129 363.827 L 1229.769 363.733 C 1229.596 363.68 1229.436 363.627 1229.263 363.573 C 1228.823 363.427 1228.369 363.293 1227.943 363.133 C 1227.716 363.067 1227.503 362.973 1227.276 362.893 C 1226.903 362.76 1226.543 362.627 1226.183 362.48 C 1225.983 362.4 1225.783 362.307 1225.583 362.227 C 1225.223 362.067 1224.889 361.92 1224.543 361.76 C 1224.356 361.667 1224.169 361.587 1223.983 361.493 C 1223.636 361.307 1223.289 361.133 1222.956 360.947 C 1222.809 360.867 1222.649 360.773 1222.503 360.693 C 1222.023 360.413 1221.569 360.133 1221.129 359.84 C 1215.263 355.88 1214.369 350.813 1214.236 345.533 C 1214.223 344.107 1214.209 342.693 1214.196 341.267 C 1214.156 336.933 1213.863 332.64 1210.996 328.88 C 1210.396 328.08 1204.116 322.747 1198.796 319.613 L 1042.729 385.293 L 1043.489 473.04 L 1199.569 407.36 C 1204.889 410.493 1211.169 415.827 1211.769 416.627 C 1214.343 420 1214.836 423.813 1214.943 427.693 C 1214.956 429.107 1214.969 430.533 1214.983 431.947 C 1215.023 437.68 1215.529 443.293 1221.903 447.6 C 1222.343 447.893 1222.796 448.173 1223.263 448.44 C 1223.423 448.533 1223.583 448.613 1223.743 448.707 C 1224.063 448.88 1224.396 449.053 1224.743 449.227 C 1224.929 449.32 1225.129 449.413 1225.316 449.52 C 1225.663 449.667 1225.996 449.827 1226.356 449.973 C 1226.556 450.053 1226.743 450.147 1226.956 450.227 L 1227.289 450.373 C 1227.543 450.467 1227.796 450.56 1228.063 450.653 C 1228.276 450.733 1228.489 450.813 1228.716 450.893 C 1229.129 451.027 1229.569 451.173 1230.009 451.32 C 1230.196 451.373 1230.369 451.427 1230.556 451.48 L 1230.649 451.52 L 1230.876 451.573 C 1231.703 451.813 1232.569 452.027 1233.436 452.227 C 1233.569 452.267 1233.689 452.293 1233.809 452.32 L 1234.116 452.387 C 1235.049 452.587 1235.996 452.773 1236.983 452.933 L 1237.036 452.947 L 1237.249 452.987 C 1238.156 453.133 1239.103 453.253 1240.063 453.373 C 1240.196 453.387 1240.329 453.413 1240.463 453.427 C 1240.583 453.44 1240.716 453.453 1240.849 453.467 C 1241.943 453.587 1243.063 453.68 1244.209 453.76 L 1244.276 453.773 L 1244.516 453.773 C 1245.729 453.853 1246.983 453.907 1248.249 453.933 C 1248.383 453.933 1248.503 453.96 1248.636 453.96 L 1248.823 453.96 C 1250.329 453.987 1251.889 453.973 1253.449 453.933 C 1253.583 453.92 1253.703 453.933 1253.823 453.92 C 1253.956 453.92 1254.089 453.92 1254.209 453.907 C 1254.876 453.893 1255.543 453.867 1256.209 453.827 C 1256.543 453.813 1256.876 453.8 1257.209 453.773 C 1258.156 453.72 1259.116 453.653 1260.076 453.573 L 1260.236 453.56 L 1260.249 453.56 C 1261.489 453.467 1262.743 453.333 1263.996 453.2 C 1264.329 453.16 1264.649 453.12 1264.983 453.08 C 1266.089 452.947 1267.196 452.813 1268.316 452.653 C 1268.449 452.627 1268.583 452.613 1268.729 452.587 L 1268.863 452.573 C 1269.903 452.413 1270.943 452.253 1271.983 452.08 C 1272.156 452.053 1272.329 452.013 1272.516 451.987 C 1273.383 451.84 1274.263 451.68 1275.129 451.52 C 1275.529 451.44 1275.916 451.347 1276.316 451.28 C 1276.969 451.147 1277.636 451.013 1278.303 450.867 C 1278.743 450.773 1279.183 450.68 1279.623 450.573 C 1280.249 450.44 1280.876 450.293 1281.503 450.147 C 1281.663 450.12 1281.836 450.08 1281.996 450.04 C 1282.143 450 1282.289 449.96 1282.423 449.92 C 1284.116 449.52 1285.809 449.08 1287.503 448.6 C 1287.729 448.533 1287.943 448.48 1288.169 448.413 C 1289.889 447.92 1291.596 447.413 1293.303 446.853 C 1293.489 446.8 1293.663 446.733 1293.823 446.68 C 1295.583 446.107 1297.329 445.507 1299.063 444.867 L 1299.369 444.747 C 1301.169 444.08 1302.956 443.373 1304.716 442.627 C 1305.569 442.267 1306.423 441.893 1307.263 441.533 C 1308.449 441 1309.596 440.467 1310.716 439.92 C 1311.103 439.733 1311.476 439.547 1311.849 439.36 C 1312.583 438.987 1313.316 438.627 1314.009 438.253 C 1314.436 438.04 1314.836 437.813 1315.249 437.587 C 1315.903 437.24 1316.529 436.88 1317.156 436.533 C 1317.556 436.307 1317.943 436.08 1318.329 435.853 C 1318.569 435.72 1318.809 435.587 1319.036 435.44 C 1319.436 435.213 1319.796 434.96 1320.183 434.72 C 1320.516 434.52 1320.863 434.307 1321.196 434.107 C 1321.876 433.653 1322.543 433.213 1323.209 432.76 C 1323.409 432.627 1323.636 432.467 1323.849 432.32 C 1324.689 431.733 1325.503 431.133 1326.289 430.533 C 1326.489 430.387 1326.676 430.227 1326.876 430.067 C 1327.343 429.72 1327.809 429.347 1328.249 428.987 L 1328.489 428.773 C 1329.063 428.293 1329.596 427.8 1330.129 427.32 C 1330.356 427.107 1330.609 426.893 1330.836 426.667 C 1331.569 425.973 1332.276 425.28 1332.916 424.573 L 1332.916 424.573 C 1333.489 423.947 1334.009 423.333 1334.503 422.733 C 1334.663 422.52 1334.796 422.333 1334.943 422.133 C 1335.209 421.8 1335.476 421.453 1335.716 421.12 L 1335.889 420.853 C 1336.009 420.68 1336.116 420.507 1336.223 420.333 C 1336.503 419.907 1336.769 419.48 1337.009 419.053 C 1337.116 418.867 1337.223 418.693 1337.316 418.507 L 1337.476 418.2 C 1337.716 417.76 1337.916 417.307 1338.103 416.853 L 1338.196 416.627 C 1338.329 416.32 1338.449 416.013 1338.556 415.693 C 1338.623 415.493 1338.676 415.293 1338.729 415.107 L 1338.823 414.8 C 1338.943 414.347 1339.049 413.907 1339.129 413.453 L 1339.169 413.187 L 1339.196 412.907 C 1339.263 412.4 1339.316 411.893 1339.316 411.4 L 1339.316 411.24 C 1339.129 390.427 1338.943 369.613 1338.769 348.787 L 1420.783 314.28 Z " fill="rgb(230,166,7)"/><path d=" M 748.403 186.693 L 1125.689 27.933 L 1420.009 226.533 L 1263.729 292.293 C 1267.183 295.2 1273.063 298.6 1274.263 299.16 C 1279.743 301.653 1286.743 303.52 1293.543 304.773 C 1306.689 307.187 1322.823 306.8 1332.196 313.107 C 1346.836 323 1335.303 340.933 1306.489 353.773 C 1305.663 354.147 1304.809 354.52 1303.943 354.88 C 1273.276 367.787 1236.196 370.013 1221.129 359.84 C 1208.889 351.587 1218.303 338.48 1210.996 328.88 C 1210.396 328.08 1204.116 322.747 1198.796 319.613 L 1042.729 385.293 L 920.943 303.12 C 921.436 302.893 921.969 302.653 922.503 302.4 C 928.529 299.72 937.169 296.84 938.543 296.533 C 956.703 292.547 981.263 297.387 996.943 290.787 C 1016.169 282.227 1012.249 262.8 988.596 246.84 C 964.676 230.693 929.623 224.2 910.303 232.32 C 898.316 237.653 898.783 246.067 894.143 252.96 C 891.703 256.587 888.116 260.32 883.343 263.28 C 882.769 263.627 880.596 264.72 877.836 265.947 C 875.529 266.973 872.823 268.093 870.289 268.947 L 748.403 186.693 Z " fill="rgb(255,186,8)"/><path d=" M 1434.743 388.4 C 1434.703 384.48 1432.663 380.907 1428.383 378.027 C 1427.703 377.56 1426.983 377.147 1426.236 376.76 C 1425.996 376.64 1425.756 376.52 1425.516 376.413 C 1424.983 376.147 1424.436 375.907 1423.863 375.667 C 1423.729 375.613 1423.596 375.547 1423.463 375.493 C 1423.343 375.44 1423.209 375.4 1423.089 375.36 C 1422.183 375.013 1421.263 374.693 1420.303 374.413 L 1420.249 374.4 L 1420.236 374.387 C 1419.263 374.107 1418.263 373.853 1417.236 373.627 L 1416.903 373.533 C 1416.756 373.507 1416.609 373.48 1416.476 373.453 C 1415.263 373.2 1414.036 372.96 1412.783 372.747 L 1412.689 372.733 L 1412.369 372.693 C 1411.089 372.48 1409.783 372.293 1408.463 372.107 C 1408.316 372.093 1408.183 372.067 1408.036 372.053 C 1406.649 371.88 1405.263 371.72 1403.863 371.547 L 1403.609 371.533 C 1402.476 371.4 1401.343 371.267 1400.209 371.133 C 1398.889 370.987 1397.556 370.827 1396.236 370.667 C 1395.996 370.627 1395.756 370.6 1395.516 370.573 C 1394.223 370.4 1392.943 370.213 1391.689 370.013 C 1391.036 369.907 1390.369 369.8 1389.729 369.667 C 1388.409 369.427 1387.089 369.16 1385.769 368.867 C 1385.529 368.813 1385.289 368.773 1385.049 368.72 C 1384.089 368.493 1383.129 368.267 1382.183 368.027 L 1382.103 368.013 C 1381.143 367.76 1380.183 367.493 1379.249 367.227 C 1378.943 367.133 1378.649 367.04 1378.343 366.96 C 1377.689 366.76 1377.049 366.56 1376.409 366.347 C 1376.103 366.24 1375.783 366.147 1375.476 366.027 C 1374.823 365.8 1374.169 365.573 1373.543 365.333 C 1373.303 365.24 1373.049 365.147 1372.809 365.053 C 1371.996 364.733 1371.209 364.4 1370.449 364.053 C 1369.263 363.507 1363.369 360.12 1359.929 357.187 L 1360.689 444.947 C 1364.143 447.867 1370.036 451.253 1371.223 451.8 C 1371.983 452.16 1372.769 452.48 1373.583 452.8 L 1373.756 452.88 C 1373.929 452.947 1374.129 453.013 1374.303 453.08 C 1374.943 453.32 1375.596 453.56 1376.263 453.787 C 1376.556 453.893 1376.863 454 1377.169 454.093 C 1377.823 454.32 1378.489 454.52 1379.156 454.72 C 1379.343 454.773 1379.529 454.84 1379.716 454.893 L 1379.996 454.973 C 1380.943 455.253 1381.903 455.52 1382.876 455.76 L 1382.889 455.76 C 1383.863 456.013 1384.849 456.253 1385.836 456.467 L 1386.116 456.533 C 1386.249 456.56 1386.383 456.587 1386.516 456.613 C 1387.849 456.907 1389.183 457.187 1390.503 457.427 C 1391.049 457.52 1391.583 457.627 1392.143 457.72 L 1392.463 457.76 C 1393.716 457.96 1394.983 458.147 1396.276 458.32 C 1396.529 458.347 1396.783 458.387 1397.036 458.413 C 1398.329 458.573 1399.636 458.733 1400.943 458.88 L 1400.983 458.893 C 1401.849 458.987 1402.703 459.08 1403.569 459.173 C 1403.916 459.213 1404.263 459.267 1404.609 459.307 C 1406.023 459.467 1407.436 459.627 1408.849 459.813 L 1409.169 459.853 C 1410.516 460.027 1411.836 460.227 1413.143 460.44 C 1413.276 460.453 1413.423 460.48 1413.556 460.493 C 1414.809 460.707 1416.036 460.947 1417.236 461.2 C 1417.489 461.253 1417.756 461.32 1418.009 461.373 C 1419.036 461.613 1420.049 461.867 1421.023 462.147 C 1421.996 462.427 1422.943 462.76 1423.863 463.107 C 1424.116 463.213 1424.383 463.307 1424.636 463.413 C 1425.209 463.64 1425.756 463.907 1426.303 464.16 C 1426.529 464.28 1426.769 464.387 1427.009 464.507 C 1427.756 464.907 1428.476 465.32 1429.156 465.76 C 1433.423 468.653 1435.476 472.227 1435.503 476.16 L 1434.743 388.4 Z " fill="rgb(230,166,7)"/><path d=" M 1307.596 581.64 C 1307.889 581.573 1308.196 581.507 1308.503 581.44 C 1308.903 581.36 1309.303 581.267 1309.729 581.173 C 1310.063 581.12 1310.396 581.053 1310.743 581 C 1311.023 580.947 1311.303 580.907 1311.596 580.853 L 1312.236 654.387 L 1434.009 736.56 L 1433.236 648.8 L 1332.369 580.733 C 1333.849 580.907 1335.329 581.12 1336.823 581.36 C 1337.156 581.427 1337.503 581.48 1337.849 581.547 C 1338.409 581.64 1338.956 581.733 1339.516 581.853 C 1339.916 581.92 1340.316 582 1340.716 582.08 C 1341.249 582.187 1341.783 582.293 1342.329 582.413 C 1342.703 582.507 1343.076 582.587 1343.449 582.667 C 1344.316 582.867 1345.183 583.08 1346.049 583.293 C 1346.289 583.36 1346.529 583.413 1346.769 583.48 C 1347.849 583.76 1348.929 584.053 1350.009 584.373 C 1350.223 584.44 1350.436 584.493 1350.636 584.56 C 1352.116 585 1353.609 585.467 1355.089 585.973 L 1355.303 586.053 C 1356.783 586.56 1358.249 587.107 1359.716 587.667 L 1360.063 587.8 C 1361.743 588.467 1363.396 589.173 1365.036 589.893 L 1365.276 590.013 C 1366.929 590.76 1368.569 591.547 1370.183 592.373 L 1370.343 592.467 C 1371.969 593.307 1373.569 594.2 1375.143 595.12 L 1375.223 595.16 C 1376.809 596.107 1378.369 597.08 1379.876 598.093 C 1393.316 607.173 1400.383 617.36 1400.463 626.027 C 1400.209 596.787 1399.956 567.533 1399.689 538.28 C 1399.609 529.613 1392.543 519.427 1379.103 510.36 C 1377.596 509.333 1376.036 508.347 1374.449 507.413 L 1374.369 507.36 C 1372.796 506.44 1371.196 505.56 1369.569 504.707 L 1369.396 504.627 C 1367.796 503.8 1366.156 503 1364.503 502.253 L 1364.263 502.147 C 1362.623 501.413 1360.969 500.72 1359.289 500.053 L 1359.196 500.013 L 1358.943 499.92 C 1357.476 499.347 1355.996 498.8 1354.503 498.293 L 1354.329 498.227 C 1352.836 497.72 1351.343 497.24 1349.836 496.8 L 1349.489 496.693 L 1349.263 496.627 C 1348.169 496.307 1347.076 496 1345.983 495.72 C 1345.756 495.667 1345.543 495.613 1345.316 495.547 C 1344.423 495.32 1343.529 495.12 1342.649 494.92 C 1342.476 494.88 1342.316 494.827 1342.143 494.787 C 1341.956 494.747 1341.769 494.72 1341.596 494.68 C 1341.036 494.56 1340.476 494.44 1339.916 494.333 C 1339.529 494.253 1339.143 494.173 1338.756 494.093 C 1338.196 493.987 1337.636 493.893 1337.076 493.787 C 1336.796 493.747 1336.529 493.693 1336.263 493.64 L 1336.049 493.613 C 1334.543 493.373 1333.036 493.16 1331.556 492.987 L 1331.196 492.933 L 1330.943 492.907 C 1329.636 492.76 1328.343 492.64 1327.063 492.56 L 1326.756 492.533 C 1326.609 492.52 1326.476 492.52 1326.329 492.507 C 1323.956 492.36 1321.623 492.307 1319.356 492.36 C 1319.223 492.36 1319.076 492.36 1318.943 492.36 L 1318.596 492.387 C 1317.503 492.413 1316.409 492.467 1315.343 492.56 L 1315.276 492.56 L 1315.076 492.587 C 1313.969 492.68 1312.876 492.813 1311.809 492.96 L 1311.449 493 L 1311.209 493.04 C 1310.769 493.107 1310.329 493.187 1309.903 493.253 C 1309.596 493.32 1309.276 493.36 1308.969 493.427 C 1308.516 493.507 1308.076 493.613 1307.636 493.707 C 1307.409 493.76 1307.156 493.8 1306.929 493.867 L 1306.836 493.893 C 1305.889 494.12 1304.956 494.387 1304.063 494.667 C 1303.863 494.72 1303.663 494.8 1303.449 494.867 C 1302.556 495.16 1301.663 495.48 1300.823 495.84 C 1300.143 496.133 1299.516 496.453 1298.916 496.773 C 1298.743 496.867 1298.569 496.973 1298.396 497.067 C 1298.183 497.187 1297.956 497.293 1297.756 497.427 C 1297.569 497.533 1297.423 497.64 1297.249 497.747 C 1297.036 497.893 1296.809 498.027 1296.609 498.16 C 1296.276 498.387 1295.956 498.627 1295.663 498.853 C 1295.476 498.987 1295.289 499.133 1295.116 499.267 L 1294.929 499.413 C 1294.569 499.707 1294.236 500.013 1293.916 500.32 L 1293.796 500.44 C 1293.529 500.693 1293.276 500.96 1293.036 501.213 L 1292.836 501.44 C 1292.729 501.573 1292.609 501.707 1292.503 501.84 C 1292.276 502.12 1292.049 502.387 1291.849 502.667 C 1291.743 502.787 1291.649 502.92 1291.556 503.053 L 1291.396 503.267 C 1291.303 503.4 1291.223 503.547 1291.116 503.693 C 1290.943 503.96 1290.769 504.24 1290.596 504.507 C 1290.476 504.707 1290.356 504.933 1290.236 505.133 C 1290.089 505.4 1289.929 505.667 1289.796 505.947 L 1289.649 506.213 L 1289.503 506.533 C 1289.263 507 1289.036 507.467 1288.823 507.933 L 1288.689 508.253 C 1288.396 508.88 1288.129 509.52 1287.863 510.147 C 1287.649 510.627 1287.449 511.107 1287.236 511.587 C 1287.156 511.773 1287.076 511.96 1286.983 512.133 C 1286.729 512.72 1286.463 513.293 1286.169 513.867 C 1286.023 514.16 1285.849 514.453 1285.689 514.76 C 1285.609 514.893 1285.543 515.04 1285.463 515.187 C 1285.209 515.613 1284.943 516.04 1284.663 516.467 C 1284.476 516.733 1284.289 517 1284.089 517.267 C 1283.823 517.64 1283.529 518.04 1283.223 518.427 C 1283.089 518.587 1282.969 518.747 1282.836 518.92 C 1282.423 519.427 1281.996 519.92 1281.556 520.4 L 1281.449 520.533 C 1280.983 521.04 1280.476 521.547 1279.956 522.053 C 1279.796 522.2 1279.636 522.333 1279.489 522.48 C 1279.103 522.84 1278.716 523.2 1278.303 523.533 C 1278.103 523.707 1277.903 523.867 1277.689 524.04 C 1277.289 524.373 1276.863 524.693 1276.436 525.013 C 1276.236 525.16 1276.049 525.32 1275.836 525.467 C 1275.196 525.92 1274.543 526.36 1273.863 526.787 L 1273.636 526.907 L 1273.543 526.96 L 1273.263 527.107 L 1273.116 527.187 L 1272.783 527.36 L 1272.556 527.48 L 1272.196 527.653 L 1271.876 527.813 C 1271.769 527.867 1271.636 527.92 1271.516 527.987 C 1271.383 528.053 1271.249 528.12 1271.103 528.187 C 1270.983 528.253 1270.836 528.32 1270.703 528.373 C 1270.556 528.453 1270.409 528.52 1270.249 528.6 C 1270.049 528.693 1269.836 528.787 1269.623 528.88 L 1269.316 529.027 C 1268.996 529.173 1268.663 529.32 1268.316 529.48 C 1266.023 530.507 1263.329 531.613 1260.823 532.453 L 1138.916 450.2 L 1139.689 537.947 L 1261.596 620.213 C 1264.103 619.36 1266.796 618.253 1269.089 617.227 C 1269.756 616.933 1270.383 616.64 1270.969 616.36 L 1271.009 616.347 C 1271.289 616.227 1271.543 616.093 1271.796 615.973 L 1271.863 615.947 C 1272.063 615.853 1272.236 615.76 1272.423 615.68 L 1272.649 615.573 C 1272.796 615.493 1272.916 615.427 1273.049 615.373 L 1273.316 615.24 L 1273.623 615.08 L 1273.876 614.947 L 1274.089 614.827 L 1274.316 614.707 L 1274.463 614.64 L 1274.596 614.56 L 1274.636 614.533 C 1275.316 614.107 1275.983 613.653 1276.609 613.213 C 1276.809 613.067 1276.996 612.933 1277.183 612.773 C 1277.623 612.453 1278.063 612.12 1278.476 611.787 L 1278.783 611.547 L 1279.076 611.293 C 1279.476 610.947 1279.863 610.6 1280.249 610.24 C 1280.409 610.093 1280.569 609.947 1280.729 609.787 C 1281.249 609.293 1281.743 608.787 1282.223 608.28 L 1282.236 608.253 L 1282.343 608.147 C 1282.783 607.653 1283.196 607.16 1283.596 606.68 C 1283.743 606.507 1283.863 606.333 1283.996 606.173 C 1284.303 605.787 1284.583 605.4 1284.863 605.027 L 1285.089 604.707 C 1285.209 604.547 1285.316 604.387 1285.436 604.213 C 1285.716 603.787 1285.983 603.36 1286.236 602.92 C 1286.329 602.773 1286.409 602.6 1286.489 602.453 C 1286.636 602.187 1286.783 601.933 1286.916 601.667 L 1286.943 601.627 C 1287.223 601.04 1287.503 600.467 1287.769 599.88 C 1287.836 599.707 1287.916 599.533 1287.996 599.347 C 1288.209 598.867 1288.423 598.387 1288.623 597.907 C 1288.903 597.267 1289.169 596.627 1289.463 595.987 L 1289.583 595.72 C 1289.809 595.227 1290.036 594.747 1290.276 594.267 C 1290.369 594.08 1290.463 593.893 1290.556 593.707 C 1290.703 593.427 1290.863 593.147 1291.009 592.88 C 1291.129 592.667 1291.249 592.467 1291.369 592.267 C 1291.543 591.987 1291.716 591.72 1291.889 591.44 C 1292.036 591.227 1292.169 591.013 1292.329 590.8 C 1292.423 590.667 1292.516 590.533 1292.623 590.413 C 1292.823 590.147 1293.036 589.867 1293.263 589.6 C 1293.383 589.467 1293.489 589.333 1293.609 589.2 C 1293.916 588.867 1294.223 588.533 1294.556 588.2 L 1294.689 588.08 C 1295.063 587.707 1295.463 587.36 1295.903 587.013 C 1296.063 586.88 1296.249 586.747 1296.423 586.613 C 1296.729 586.373 1297.049 586.147 1297.383 585.92 C 1297.583 585.773 1297.796 585.64 1298.009 585.507 C 1298.383 585.267 1298.769 585.04 1299.169 584.813 C 1299.343 584.72 1299.503 584.627 1299.689 584.52 C 1300.289 584.2 1300.916 583.893 1301.596 583.587 C 1302.436 583.24 1303.316 582.92 1304.223 582.613 C 1304.423 582.547 1304.623 582.48 1304.836 582.413 C 1305.729 582.133 1306.649 581.867 1307.596 581.64 Z " fill="rgb(230,166,7)"/><g><path d=" M 1810.524 490.039 L 1811.3 577.782 L 1434.012 736.554 L 1433.25 648.789 L 1810.524 490.039 Z " fill="rgb(230,166,7)"/></g><g><path d=" M 1138.918 450.195 L 1294.99 384.516 C 1300.308 387.648 1306.585 392.994 1307.192 393.784 C 1314.485 403.39 1305.09 416.495 1317.32 424.747 C 1332.4 434.918 1369.457 432.703 1400.124 419.782 C 1400.984 419.429 1401.817 419.062 1402.663 418.696 C 1431.482 405.845 1443.035 387.902 1428.379 378.027 C 1419.026 371.708 1402.889 372.103 1389.728 369.676 C 1382.942 368.421 1375.946 366.559 1370.444 364.048 C 1369.259 363.512 1363.377 360.112 1359.935 357.192 L 1516.19 291.443 L 1810.518 490.045 L 1433.231 648.797 L 1311.466 566.642 C 1311.946 566.402 1312.453 566.177 1312.99 565.937 C 1318.999 563.257 1327.674 560.351 1329.057 560.04 C 1347.211 556.048 1371.77 560.901 1387.471 554.299 C 1406.683 545.737 1402.762 526.312 1379.106 510.358 C 1355.181 494.206 1320.127 487.703 1300.83 495.843 C 1288.84 501.175 1289.305 509.568 1284.664 516.466 C 1282.224 520.105 1278.641 523.844 1273.859 526.778 C 1273.294 527.13 1271.094 528.231 1268.315 529.472 C 1266.03 530.502 1263.335 531.616 1260.825 532.448 L 1138.918 450.195 Z " fill="rgb(255,186,8)"/></g><path d=" M 875.036 623.92 C 875.009 619.987 872.969 616.413 868.689 613.533 C 868.009 613.08 867.289 612.667 866.543 612.267 C 866.316 612.147 866.063 612.04 865.823 611.92 C 865.289 611.667 864.743 611.413 864.183 611.187 C 864.049 611.12 863.916 611.053 863.769 611 C 863.649 610.947 863.516 610.92 863.383 610.867 C 862.489 610.52 861.569 610.2 860.623 609.92 L 860.569 609.907 L 860.556 609.907 C 859.596 609.627 858.583 609.373 857.569 609.147 C 857.449 609.12 857.343 609.08 857.209 609.053 C 857.076 609.027 856.916 609 856.756 608.973 C 855.569 608.707 854.369 608.48 853.129 608.267 L 853.023 608.253 C 852.889 608.227 852.756 608.213 852.623 608.187 C 851.396 607.987 850.143 607.813 848.889 607.64 C 848.716 607.627 848.556 607.6 848.383 607.573 C 847.036 607.4 845.663 607.24 844.295 607.093 L 844.057 607.053 C 843.749 607.013 843.44 606.987 843.132 606.947 C 842.208 606.84 841.287 606.747 840.364 606.64 C 839.077 606.493 837.8 606.333 836.529 606.173 C 836.272 606.133 836.015 606.107 835.759 606.08 C 834.491 605.907 833.239 605.72 832.008 605.52 C 831.349 605.413 830.695 605.307 830.051 605.2 C 828.727 604.947 827.395 604.667 826.068 604.387 C 825.82 604.333 825.572 604.28 825.323 604.213 C 824.368 604.013 823.417 603.787 822.476 603.547 L 822.388 603.52 C 821.429 603.28 820.48 603.013 819.543 602.733 C 819.251 602.653 818.964 602.573 818.673 602.48 C 818.021 602.28 817.376 602.08 816.74 601.867 C 816.421 601.76 816.105 601.667 815.791 601.56 C 815.155 601.333 814.531 601.107 813.919 600.867 C 813.657 600.773 813.392 600.68 813.139 600.573 C 812.324 600.253 811.528 599.92 810.767 599.573 C 809.569 599.027 803.681 595.627 800.24 592.72 L 801.009 680.453 C 804.451 683.373 810.336 686.773 811.537 687.32 C 812.305 687.667 813.105 688 813.927 688.333 L 814.101 688.413 C 814.276 688.467 814.463 688.533 814.637 688.6 C 815.273 688.84 815.919 689.08 816.579 689.307 C 816.883 689.413 817.188 689.52 817.497 689.613 C 818.132 689.827 818.777 690.027 819.431 690.227 C 819.631 690.293 819.821 690.347 820.023 690.413 L 820.327 690.493 C 821.255 690.76 822.193 691.027 823.147 691.267 L 823.269 691.293 C 824.197 691.533 825.137 691.76 826.081 691.973 L 826.395 692.04 C 826.549 692.08 826.703 692.107 826.859 692.133 C 828.179 692.427 829.501 692.693 830.821 692.933 C 831.36 693.04 831.907 693.133 832.456 693.227 L 832.803 693.28 C 834.021 693.48 835.259 693.653 836.509 693.813 C 836.788 693.853 837.069 693.893 837.348 693.933 C 838.575 694.08 839.811 694.227 841.055 694.387 L 841.169 694.387 C 842.047 694.493 842.923 694.587 843.8 694.693 C 844.239 694.733 844.676 694.8 845.116 694.84 C 846.476 695 847.823 695.147 849.169 695.333 C 849.329 695.347 849.489 695.373 849.649 695.4 C 850.916 695.56 852.156 695.733 853.396 695.933 C 853.556 695.96 853.729 696 853.903 696.013 C 855.143 696.227 856.356 696.467 857.543 696.72 C 857.809 696.773 858.076 696.827 858.329 696.893 C 859.356 697.12 860.356 697.373 861.329 697.667 L 861.356 697.667 C 862.329 697.947 863.249 698.267 864.156 698.627 C 864.423 698.72 864.689 698.827 864.956 698.933 C 865.516 699.173 866.063 699.413 866.596 699.68 C 866.836 699.787 867.089 699.893 867.316 700.013 C 868.063 700.413 868.783 700.827 869.463 701.28 C 873.729 704.16 875.783 707.733 875.809 711.667 L 875.036 623.92 Z " fill="rgb(230,166,7)"/><path d=" M 1217.756 706.613 C 1217.796 706.453 1217.823 706.28 1217.863 706.107 C 1217.889 705.96 1217.929 705.813 1217.956 705.667 L 1217.983 705.507 C 1218.009 705.267 1218.036 705.04 1218.063 704.813 C 1218.089 704.627 1218.103 704.467 1218.116 704.293 C 1218.143 704.04 1218.143 703.8 1218.156 703.547 C 1218.156 703.413 1218.169 703.28 1218.169 703.133 L 1218.169 702.96 L 1217.396 615.2 C 1217.396 615.4 1217.383 615.6 1217.383 615.8 C 1217.369 616.04 1217.369 616.293 1217.356 616.533 C 1217.343 616.707 1217.316 616.893 1217.289 617.053 C 1217.276 617.293 1217.236 617.52 1217.209 617.747 C 1217.169 617.96 1217.129 618.16 1217.089 618.36 C 1217.063 618.533 1217.023 618.693 1216.983 618.867 C 1216.929 619.08 1216.876 619.28 1216.809 619.493 C 1216.769 619.64 1216.729 619.813 1216.676 619.96 L 1216.583 620.213 C 1216.369 620.813 1216.129 621.413 1215.836 621.987 L 1215.823 622.027 C 1215.543 622.573 1215.209 623.107 1214.849 623.627 L 1214.676 623.893 C 1214.316 624.387 1213.916 624.88 1213.489 625.36 C 1213.369 625.493 1213.249 625.627 1213.116 625.76 C 1212.983 625.893 1212.849 626.04 1212.703 626.173 C 1212.543 626.333 1212.369 626.493 1212.196 626.653 C 1212.049 626.787 1211.903 626.92 1211.743 627.053 C 1211.596 627.187 1211.436 627.307 1211.289 627.427 C 1211.009 627.64 1210.729 627.853 1210.449 628.067 C 1210.303 628.173 1210.143 628.28 1209.996 628.387 C 1209.663 628.613 1209.329 628.827 1208.983 629.04 C 1208.849 629.12 1208.729 629.2 1208.596 629.28 C 1208.276 629.467 1207.956 629.653 1207.623 629.813 C 1207.476 629.893 1207.343 629.987 1207.183 630.067 C 1206.703 630.307 1206.209 630.547 1205.689 630.773 C 1204.689 631.2 1203.649 631.573 1202.596 631.92 C 1202.236 632.027 1201.863 632.107 1201.503 632.227 C 1200.783 632.427 1200.063 632.64 1199.303 632.827 C 1199.116 632.867 1198.916 632.907 1198.716 632.947 C 1197.876 633.147 1197.023 633.307 1196.156 633.453 C 1195.809 633.52 1195.463 633.573 1195.103 633.627 C 1194.303 633.76 1193.489 633.88 1192.663 633.987 C 1192.396 634.027 1192.116 634.053 1191.849 634.08 C 1190.783 634.213 1189.689 634.32 1188.596 634.4 C 1187.916 634.453 1187.223 634.493 1186.529 634.533 C 1185.943 634.573 1185.356 634.613 1184.769 634.64 C 1184.063 634.68 1183.343 634.693 1182.636 634.733 C 1182.049 634.747 1181.489 634.773 1180.903 634.787 C 1179.529 634.827 1178.156 634.853 1176.769 634.867 L 1176.663 634.867 C 1175.036 634.893 1173.409 634.907 1171.769 634.92 C 1170.729 634.933 1169.703 634.947 1168.663 634.96 C 1168.143 634.973 1167.636 634.987 1167.129 634.987 C 1166.236 635 1165.356 635.013 1164.489 635.04 C 1164.263 635.053 1164.036 635.053 1163.809 635.053 C 1163.423 635.067 1163.049 635.093 1162.663 635.093 C 1161.996 635.12 1161.329 635.147 1160.663 635.173 C 1160.036 635.2 1159.423 635.24 1158.796 635.28 C 1158.156 635.32 1157.516 635.36 1156.876 635.4 C 1156.663 635.413 1156.436 635.427 1156.223 635.453 L 1156.223 635.467 L 1156.223 635.453 C 1155.503 635.507 1154.796 635.573 1154.089 635.653 C 1153.943 635.667 1153.796 635.68 1153.663 635.693 C 1152.729 635.787 1151.823 635.893 1150.916 636.027 L 1150.609 636.093 C 1149.263 636.293 1147.929 636.52 1146.649 636.8 L 1146.529 636.84 L 1146.409 636.867 L 1146.223 636.92 L 1145.943 636.987 L 1145.716 637.067 C 1145.609 637.107 1145.476 637.133 1145.356 637.173 L 1145.076 637.267 C 1144.929 637.307 1144.769 637.36 1144.609 637.413 L 1144.316 637.507 C 1144.143 637.56 1143.956 637.627 1143.769 637.68 L 1143.436 637.8 C 1143.236 637.853 1143.036 637.933 1142.823 638 C 1142.703 638.04 1142.596 638.08 1142.463 638.12 C 1142.249 638.187 1142.023 638.267 1141.796 638.347 C 1141.676 638.4 1141.543 638.427 1141.409 638.48 C 1141.196 638.56 1140.956 638.64 1140.729 638.72 C 1140.583 638.773 1140.436 638.827 1140.289 638.88 C 1140.076 638.96 1139.849 639.04 1139.636 639.107 C 1139.463 639.173 1139.276 639.24 1139.103 639.307 C 1138.889 639.387 1138.676 639.467 1138.463 639.547 C 1138.276 639.613 1138.089 639.68 1137.889 639.747 C 1137.676 639.827 1137.463 639.92 1137.236 639.987 C 1137.049 640.067 1136.849 640.147 1136.663 640.213 C 1136.436 640.293 1136.223 640.387 1135.996 640.467 C 1135.809 640.533 1135.609 640.613 1135.423 640.693 C 1135.196 640.773 1134.983 640.867 1134.769 640.947 C 1134.569 641.027 1134.369 641.093 1134.183 641.173 C 1133.956 641.267 1133.743 641.36 1133.529 641.44 C 1133.343 641.52 1133.143 641.6 1132.956 641.68 C 1132.729 641.773 1132.503 641.867 1132.263 641.96 C 1132.103 642.04 1131.929 642.107 1131.769 642.173 C 1131.383 642.333 1130.996 642.507 1130.636 642.68 C 1130.076 642.92 1129.556 643.16 1129.063 643.4 L 1129.836 731.147 C 1130.329 730.907 1130.849 730.667 1131.396 730.413 C 1131.769 730.253 1132.156 730.093 1132.543 729.92 C 1132.676 729.867 1132.796 729.813 1132.929 729.76 C 1133.196 729.64 1133.463 729.533 1133.729 729.427 C 1133.889 729.36 1134.049 729.293 1134.196 729.24 C 1134.449 729.133 1134.703 729.027 1134.956 728.933 C 1135.129 728.853 1135.303 728.787 1135.476 728.72 C 1135.716 728.627 1135.956 728.533 1136.196 728.44 C 1136.369 728.373 1136.556 728.293 1136.743 728.227 C 1136.969 728.133 1137.209 728.053 1137.436 727.96 C 1137.623 727.88 1137.809 727.813 1137.996 727.747 C 1138.223 727.667 1138.449 727.587 1138.663 727.493 C 1138.849 727.427 1139.036 727.36 1139.223 727.293 C 1139.436 727.213 1139.663 727.133 1139.876 727.053 C 1140.063 726.987 1140.236 726.92 1140.409 726.867 C 1140.623 726.787 1140.836 726.707 1141.036 726.64 C 1141.236 726.573 1141.423 726.493 1141.609 726.44 C 1141.783 726.373 1141.969 726.307 1142.143 726.253 C 1142.329 726.173 1142.516 726.12 1142.703 726.053 C 1142.863 726 1143.036 725.933 1143.196 725.88 C 1143.369 725.813 1143.529 725.773 1143.689 725.707 C 1143.863 725.667 1144.023 725.6 1144.183 725.56 C 1144.329 725.493 1144.463 725.453 1144.609 725.4 C 1144.769 725.36 1144.916 725.307 1145.063 725.267 C 1145.196 725.213 1145.316 725.187 1145.449 725.147 C 1145.569 725.093 1145.703 725.053 1145.823 725.013 C 1145.943 724.973 1146.049 724.947 1146.169 724.92 L 1146.476 724.827 L 1146.743 724.747 L 1146.996 724.667 L 1147.183 724.613 L 1147.423 724.56 C 1148.716 724.267 1150.036 724.04 1151.383 723.84 C 1152.383 723.693 1153.396 723.547 1154.409 723.44 C 1154.583 723.427 1154.756 723.413 1154.929 723.4 C 1155.836 723.307 1156.743 723.227 1157.649 723.147 C 1158.289 723.107 1158.916 723.067 1159.556 723.027 C 1160.183 722.987 1160.809 722.96 1161.436 722.933 C 1162.089 722.893 1162.743 722.867 1163.396 722.853 C 1164.023 722.84 1164.649 722.813 1165.276 722.787 C 1166.129 722.773 1166.983 722.76 1167.836 722.747 C 1168.383 722.733 1168.916 722.72 1169.449 722.707 C 1170.476 722.707 1171.503 722.68 1172.529 722.68 C 1173.876 722.667 1175.209 722.653 1176.556 722.627 C 1176.889 722.627 1177.236 722.627 1177.569 722.627 C 1178.943 722.613 1180.303 722.573 1181.649 722.533 L 1181.849 722.533 L 1181.849 722.533 L 1181.849 722.533 C 1182.409 722.52 1182.969 722.493 1183.529 722.48 C 1184.196 722.453 1184.876 722.427 1185.543 722.4 C 1186.156 722.36 1186.756 722.32 1187.356 722.28 C 1188.023 722.24 1188.689 722.2 1189.356 722.16 L 1189.583 722.133 C 1190.609 722.053 1191.623 721.947 1192.636 721.84 C 1192.889 721.8 1193.143 721.773 1193.396 721.747 C 1193.903 721.667 1194.423 721.613 1194.916 721.547 L 1194.916 721.52 L 1194.916 721.547 C 1195.249 721.507 1195.556 721.44 1195.889 721.387 C 1196.236 721.333 1196.569 721.28 1196.916 721.213 C 1197.783 721.067 1198.636 720.88 1199.476 720.693 C 1199.676 720.653 1199.889 720.613 1200.089 720.573 L 1200.263 720.533 C 1200.956 720.36 1201.623 720.16 1202.303 719.96 C 1202.649 719.867 1203.009 719.773 1203.356 719.667 C 1204.423 719.32 1205.449 718.947 1206.449 718.533 C 1206.969 718.293 1207.476 718.053 1207.956 717.813 C 1208.129 717.72 1208.289 717.627 1208.449 717.547 C 1208.756 717.373 1209.063 717.213 1209.356 717.04 L 1209.463 716.973 L 1209.783 716.773 C 1210.116 716.56 1210.436 716.36 1210.756 716.147 C 1210.916 716.04 1211.063 715.92 1211.223 715.813 C 1211.503 715.6 1211.783 715.4 1212.049 715.173 L 1212.316 714.973 L 1212.316 714.96 L 1212.316 714.973 L 1212.516 714.8 C 1212.663 714.667 1212.809 714.533 1212.969 714.413 C 1213.143 714.24 1213.316 714.093 1213.476 713.92 C 1213.623 713.787 1213.756 713.653 1213.889 713.507 L 1214.156 713.24 L 1214.263 713.107 C 1214.689 712.627 1215.089 712.133 1215.449 711.627 L 1215.529 711.533 L 1215.623 711.387 C 1215.983 710.853 1216.303 710.32 1216.596 709.773 L 1216.596 709.76 L 1216.609 709.72 C 1216.903 709.16 1217.143 708.573 1217.343 707.987 L 1217.409 707.827 L 1217.409 707.8 L 1217.409 707.827 L 1217.449 707.707 C 1217.489 707.56 1217.543 707.413 1217.583 707.24 C 1217.649 707.04 1217.703 706.827 1217.756 706.613 Z " fill="rgb(230,166,7)"/><path d=" M 1250.823 725.56 L 1251.596 813.307 L 874.303 972.067 L 873.529 884.32 L 1250.823 725.56 L 1250.823 725.56 Z " fill="rgb(230,166,7)"/><path d=" M 873.529 884.32 L 874.303 972.067 L 579.984 773.467 L 579.213 685.707 L 873.529 884.32 L 873.529 884.32 Z " fill="rgb(230,166,7)"/><path d=" M 579.213 685.707 L 735.307 620.04 C 740.615 623.16 746.887 628.507 747.499 629.293 C 754.795 638.907 745.384 652.013 757.62 660.267 C 772.693 670.427 809.764 668.213 840.431 655.307 C 841.296 654.947 842.145 654.573 842.98 654.2 C 871.796 641.36 883.329 623.413 868.689 613.533 C 859.329 607.213 843.183 607.613 830.051 605.2 C 823.239 603.933 816.24 602.08 810.767 599.573 C 809.569 599.027 803.681 595.627 800.24 592.72 L 956.503 526.947 L 1078.409 609.213 C 1080.929 608.36 1083.636 607.24 1085.943 606.213 C 1088.703 604.987 1090.876 603.893 1091.436 603.547 C 1096.223 600.6 1099.809 596.853 1102.249 593.227 C 1106.889 586.333 1106.436 577.92 1117.823 572.84 C 1137.716 564.467 1172.769 570.96 1196.703 587.107 C 1220.356 603.08 1224.276 622.493 1205.689 630.773 C 1189.356 637.667 1164.809 632.8 1146.649 636.8 C 1145.276 637.107 1136.649 639.987 1130.636 642.68 C 1130.076 642.92 1129.556 643.16 1129.063 643.4 L 1250.823 725.56 L 873.529 884.32 L 579.213 685.707 Z " fill="rgb(255,186,8)"/></g></g></g></g></svg>