<?xml version="1.0" encoding="UTF-8" standalone="no"?><!-- Generator: Gravit.io --><svg xmlns="http://www.w3.org/2000/svg" xmlns:xlink="http://www.w3.org/1999/xlink" style="isolation:isolate" viewBox="0 0 600 600" width="600pt" height="600pt"><defs><clipPath id="_clipPath_2SvJ4w9fu6sc9Zt0r3Jlamr6gcmF27sL"><rect width="600" height="600"/></clipPath></defs><g clip-path="url(#_clipPath_2SvJ4w9fu6sc9Zt0r3Jlamr6gcmF27sL)"><path d=" M 300 531.219 C 205.784 531.219 129.408 520.882 129.408 508.13 C 129.408 495.377 205.784 485.041 300 485.041 C 394.213 485.041 470.592 495.377 470.592 508.13 C 470.592 520.882 394.213 531.219 300 531.219" fill="rgb(221,243,246)"/><path d=" M 261.211 508.13 L 321.892 508.13 L 321.892 474.629 L 261.211 474.629 L 261.211 508.13 Z " fill="rgb(77,48,0)"/><path d=" M 262.544 507.463 L 307.834 507.463 L 307.834 475.295 L 262.544 475.295 L 262.544 507.463 Z  M 309.167 508.797 L 261.211 508.797 L 261.211 473.962 L 309.167 473.962 L 309.167 508.797 Z " fill="rgb(77,48,0)"/><path d=" M 275.158 508.13 L 307.819 508.13 L 307.819 474.629 L 275.158 474.629 L 275.158 508.13 Z " fill="rgb(153,96,0)"/><path d=" M 276.424 507.463 L 321.832 507.463 L 321.832 475.295 L 276.424 475.295 L 276.424 507.463 Z  M 323.764 508.797 L 274.491 508.797 L 274.491 473.962 L 323.764 473.962 L 323.764 508.797 Z " fill="rgb(77,48,0)"/><path d=" M 250.258 480.107 L 333.044 480.107 L 333.044 441.434 L 250.258 441.434 L 250.258 480.107 Z " fill="rgb(77,48,0)"/><path d=" M 250.924 479.441 L 301.434 479.441 L 301.434 442.101 L 250.924 442.101 L 250.924 479.441 Z  M 302.767 480.774 L 249.591 480.774 L 249.591 440.767 L 302.767 440.767 L 302.767 480.774 Z " fill="rgb(77,48,0)"/><path d=" M 264.848 480.107 L 302.1 480.107 L 302.1 441.434 L 264.848 441.434 L 264.848 480.107 Z " fill="rgb(153,96,0)"/><path d=" M 265.515 479.441 L 301.434 479.441 L 301.434 442.101 L 265.515 442.101 L 265.515 479.441 Z  M 302.767 480.774 L 264.182 480.774 L 264.182 440.767 L 302.767 440.767 L 302.767 480.774 Z " fill="rgb(77,48,0)"/><path d=" M 295.911 480.107 L 321.892 480.107 L 321.892 441.434 L 295.911 441.434 L 295.911 480.107 Z " fill="rgb(153,96,0)"/><path d=" M 297.173 479.441 L 332.835 479.441 L 332.835 442.101 L 297.173 442.101 L 297.173 479.441 Z  M 334.764 480.774 L 295.244 480.774 L 295.244 440.767 L 334.764 440.767 L 334.764 480.774 Z " fill="rgb(77,48,0)"/><path d=" M 261.211 340.571 L 321.892 340.571 L 321.892 374.073 L 261.211 374.073 L 261.211 340.571 Z " fill="rgb(77,48,0)"/><path d=" M 262.544 341.238 L 307.834 341.238 L 307.834 373.406 L 262.544 373.406 L 262.544 341.238 Z  M 309.167 339.905 L 261.211 339.905 L 261.211 374.739 L 309.167 374.739 L 309.167 339.905 Z " fill="rgb(77,48,0)"/><path d=" M 275.158 340.571 L 307.819 340.571 L 307.819 374.073 L 275.158 374.073 L 275.158 340.571 Z " fill="rgb(153,96,0)"/><path d=" M 276.424 341.238 L 321.832 341.238 L 321.832 373.406 L 276.424 373.406 L 276.424 341.238 Z  M 323.764 339.905 L 274.491 339.905 L 274.491 374.739 L 323.764 374.739 L 323.764 339.905 Z " fill="rgb(77,48,0)"/><path d=" M 250.258 368.594 L 333.044 368.594 L 333.044 407.267 L 250.258 407.267 L 250.258 368.594 Z " fill="rgb(77,48,0)"/><path d=" M 250.924 369.261 L 301.434 369.261 L 301.434 406.601 L 250.924 406.601 L 250.924 369.261 Z  M 302.767 367.927 L 249.591 367.927 L 249.591 407.934 L 302.767 407.934 L 302.767 367.927 Z " fill="rgb(77,48,0)"/><path d=" M 264.848 368.594 L 302.1 368.594 L 302.1 407.267 L 264.848 407.267 L 264.848 368.594 Z " fill="rgb(153,96,0)"/><path d=" M 265.515 369.261 L 301.434 369.261 L 301.434 406.601 L 265.515 406.601 L 265.515 369.261 Z  M 302.767 367.927 L 264.182 367.927 L 264.182 407.934 L 302.767 407.934 L 302.767 367.927 Z " fill="rgb(77,48,0)"/><path d=" M 295.911 368.594 L 321.892 368.594 L 321.892 407.267 L 295.911 407.267 L 295.911 368.594 Z " fill="rgb(153,96,0)"/><path d=" M 297.173 369.261 L 332.835 369.261 L 332.835 406.601 L 297.173 406.601 L 297.173 369.261 Z  M 334.764 367.927 L 295.244 367.927 L 295.244 407.934 L 334.764 407.934 L 334.764 367.927 Z " fill="rgb(77,48,0)"/><path d=" M 263.156 441.434 L 320.795 441.434 L 320.795 407.934 L 263.156 407.934 L 263.156 441.434 Z " fill="rgb(77,48,0)"/><path d=" M 263.823 440.767 L 313.303 440.767 L 313.303 408.601 L 263.823 408.601 L 263.823 440.767 Z  M 314.636 442.101 L 262.49 442.101 L 262.49 407.267 L 314.636 407.267 L 314.636 442.101 Z " fill="rgb(77,48,0)"/><path d=" M 271.795 441.434 L 313.97 441.434 L 313.97 407.934 L 271.795 407.934 L 271.795 441.434 Z " fill="rgb(153,96,0)"/><path d=" M 272.684 440.767 L 320.337 440.767 L 320.337 408.601 L 272.684 408.601 L 272.684 440.767 Z  M 321.892 442.101 L 271.128 442.101 L 271.128 407.267 L 321.892 407.267 L 321.892 442.101 Z " fill="rgb(77,48,0)"/><path d=" M 248.537 339.905 L 331.323 339.905 L 331.323 301.231 L 248.537 301.231 L 248.537 339.905 Z " fill="rgb(77,48,0)"/><path d=" M 249.204 339.238 L 299.713 339.238 L 299.713 301.898 L 249.204 301.898 L 249.204 339.238 Z  M 301.046 340.571 L 247.87 340.571 L 247.87 300.565 L 301.046 300.565 L 301.046 340.571 Z " fill="rgb(77,48,0)"/><path d=" M 263.128 339.905 L 300.38 339.905 L 300.38 301.231 L 263.128 301.231 L 263.128 339.905 Z " fill="rgb(153,96,0)"/><path d=" M 263.794 339.238 L 299.713 339.238 L 299.713 301.898 L 263.794 301.898 L 263.794 339.238 Z  M 301.046 340.571 L 262.461 340.571 L 262.461 300.565 L 301.046 300.565 L 301.046 340.571 Z " fill="rgb(77,48,0)"/><path d=" M 294.19 339.905 L 320.172 339.905 L 320.172 301.231 L 294.19 301.231 L 294.19 339.905 Z " fill="rgb(153,96,0)"/><path d=" M 295.453 339.238 L 331.115 339.238 L 331.115 301.898 L 295.453 301.898 L 295.453 339.238 Z  M 333.044 340.571 L 293.524 340.571 L 293.524 300.565 L 333.044 300.565 L 333.044 340.571 Z " fill="rgb(77,48,0)"/><path d=" M 330.171 211.694 L 394.379 211.694 L 392.882 204.332 L 328.674 204.332 L 330.171 211.694 Z " fill="rgb(108,98,183)"/><path d=" M 343.71 211.694 L 279.502 211.694 L 280.999 204.332 L 345.207 204.332 L 343.71 211.694 Z " fill="rgb(135,129,200)"/><path d=" M 332.866 265.07 L 268.659 265.07 L 270.157 257.709 L 334.361 257.709 L 332.866 265.07 Z " fill="rgb(135,129,200)"/><path d=" M 201.001 299.898 L 286.962 299.898 L 286.962 257.229 L 201.001 257.229 L 201.001 299.898 Z " fill="rgb(51,110,170)"/><path d=" M 201.667 299.231 L 286.295 299.231 L 286.295 257.895 L 201.667 257.895 L 201.667 299.231 Z  M 287.629 300.565 L 200.334 300.565 L 200.334 256.562 L 287.629 256.562 L 287.629 300.565 Z " fill="rgb(51,110,170)"/><path d=" M 225.194 299.898 L 286.962 299.898 L 286.962 257.229 L 225.194 257.229 L 225.194 299.898 Z " fill="rgb(69,149,229)"/><path d=" M 225.861 299.231 L 286.295 299.231 L 286.295 257.895 L 225.861 257.895 L 225.861 299.231 Z  M 287.629 300.565 L 224.527 300.565 L 224.527 256.562 L 287.629 256.562 L 287.629 300.565 Z " fill="rgb(51,110,170)"/><path d=" M 392.043 299.898 L 306.083 299.898 L 306.083 257.229 L 392.043 257.229 L 392.043 299.898" fill="rgb(51,110,170)"/><path d=" M 306.75 299.231 L 391.377 299.231 L 391.377 257.895 L 306.75 257.895 L 306.75 299.231 Z  M 392.71 300.565 L 305.417 300.565 L 305.417 256.562 L 392.71 256.562 L 392.71 300.565 Z " fill="rgb(51,110,170)"/><path d=" M 367.85 299.898 L 306.083 299.898 L 306.083 257.229 L 367.85 257.229 L 367.85 299.898 Z " fill="rgb(69,149,229)"/><path d=" M 306.75 299.231 L 367.183 299.231 L 367.183 257.895 L 306.75 257.895 L 306.75 299.231 Z  M 368.517 300.565 L 305.417 300.565 L 305.417 256.562 L 368.517 256.562 L 368.517 300.565 Z " fill="rgb(51,110,170)"/><path d=" M 276.698 299.898 L 319.778 299.898 L 319.778 257.229 L 276.698 257.229 L 276.698 299.898" fill="rgb(69,149,229)"/><path d=" M 277.365 299.231 L 319.111 299.231 L 319.111 257.895 L 277.365 257.895 L 277.365 299.231 Z  M 320.445 300.565 L 276.031 300.565 L 276.031 256.562 L 320.445 256.562 L 320.445 300.565 Z " fill="rgb(51,110,170)"/><path d=" M 392.043 207.145 L 306.083 207.145 L 306.083 164.476 L 392.043 164.476 L 392.043 207.145" fill="rgb(51,110,170)"/><path d=" M 306.75 206.478 L 391.377 206.478 L 391.377 165.142 L 306.75 165.142 L 306.75 206.478 Z  M 392.71 207.812 L 305.417 207.812 L 305.417 163.809 L 392.71 163.809 L 392.71 207.812 Z " fill="rgb(51,110,170)"/><path d=" M 367.85 207.145 L 306.083 207.145 L 306.083 164.476 L 367.85 164.476 L 367.85 207.145 Z " fill="rgb(69,149,229)"/><path d=" M 306.75 206.478 L 367.183 206.478 L 367.183 165.142 L 306.75 165.142 L 306.75 206.478 Z  M 368.517 207.812 L 305.417 207.812 L 305.417 163.809 L 368.517 163.809 L 368.517 207.812 Z " fill="rgb(51,110,170)"/><path d=" M 201.001 207.145 L 286.962 207.145 L 286.962 164.476 L 201.001 164.476 L 201.001 207.145 Z " fill="rgb(51,110,170)"/><path d=" M 201.667 206.478 L 286.295 206.478 L 286.295 165.142 L 201.667 165.142 L 201.667 206.478 Z  M 287.629 207.812 L 200.334 207.812 L 200.334 163.809 L 287.629 163.809 L 287.629 207.812 Z " fill="rgb(51,110,170)"/><path d=" M 225.194 207.145 L 286.962 207.145 L 286.962 164.476 L 225.194 164.476 L 225.194 207.145 Z " fill="rgb(69,149,229)"/><path d=" M 225.861 206.478 L 286.295 206.478 L 286.295 165.142 L 225.861 165.142 L 225.861 206.478 Z  M 287.629 207.812 L 224.527 207.812 L 224.527 163.809 L 287.629 163.809 L 287.629 207.812 Z " fill="rgb(51,110,170)"/><path d=" M 316.345 207.145 L 273.266 207.145 L 273.266 164.476 L 316.345 164.476 L 316.345 207.145 Z " fill="rgb(69,149,229)"/><path d=" M 273.933 206.478 L 315.678 206.478 L 315.678 165.142 L 273.933 165.142 L 273.933 206.478 Z  M 317.011 207.812 L 272.599 207.812 L 272.599 163.809 L 317.011 163.809 L 317.011 207.812 Z " fill="rgb(51,110,170)"/><path d=" M 408.759 256.626 L 310.286 256.626 L 310.286 207.748 L 408.759 207.748 L 408.759 256.626" fill="rgb(51,110,170)"/><path d=" M 310.953 255.959 L 408.093 255.959 L 408.093 208.414 L 310.953 208.414 L 310.953 255.959 Z  M 409.426 257.293 L 309.619 257.293 L 309.619 207.081 L 409.426 207.081 L 409.426 257.293 Z " fill="rgb(51,110,170)"/><path d=" M 381.043 256.626 L 310.286 256.626 L 310.286 207.748 L 381.043 207.748 L 381.043 256.626 Z " fill="rgb(69,149,229)"/><path d=" M 310.953 255.959 L 380.377 255.959 L 380.377 208.414 L 310.953 208.414 L 310.953 255.959 Z  M 381.71 257.293 L 309.619 257.293 L 309.619 207.081 L 381.71 207.081 L 381.71 257.293 Z " fill="rgb(51,110,170)"/><path d=" M 189.907 256.626 L 288.381 256.626 L 288.381 207.748 L 189.907 207.748 L 189.907 256.626 Z " fill="rgb(51,110,170)"/><path d=" M 190.574 255.959 L 287.714 255.959 L 287.714 208.414 L 190.574 208.414 L 190.574 255.959 Z  M 289.047 257.293 L 189.241 257.293 L 189.241 207.081 L 289.047 207.081 L 289.047 257.293 Z " fill="rgb(51,110,170)"/><path d=" M 217.622 256.626 L 288.381 256.626 L 288.381 207.748 L 217.622 207.748 L 217.622 256.626 Z " fill="rgb(69,149,229)"/><path d=" M 218.289 255.959 L 287.714 255.959 L 287.714 208.414 L 218.289 208.414 L 218.289 255.959 Z  M 289.047 257.293 L 216.955 257.293 L 216.955 207.081 L 289.047 207.081 L 289.047 257.293 Z " fill="rgb(51,110,170)"/><path d=" M 322.041 256.626 L 272.691 256.626 L 272.691 207.748 L 322.041 207.748 L 322.041 256.626 Z " fill="rgb(251,200,68)"/><path d=" M 273.358 255.959 L 321.374 255.959 L 321.374 208.414 L 273.358 208.414 L 273.358 255.959 Z  M 322.707 257.293 L 272.025 257.293 L 272.025 207.081 L 322.707 207.081 L 322.707 257.293 Z " fill="rgb(219,178,77)"/><path d=" M 322.041 256.626 L 272.691 256.626 L 272.691 207.748 L 322.041 207.748 L 322.041 256.626 Z " fill="rgb(69,149,229)"/><path d=" M 273.358 255.959 L 321.374 255.959 L 321.374 208.414 L 273.358 208.414 L 273.358 255.959 Z  M 322.707 257.293 L 272.025 257.293 L 272.025 207.081 L 322.707 207.081 L 322.707 257.293 Z " fill="rgb(51,110,170)"/><path d=" M 398.473 163.142 L 300 163.142 L 300 114.264 L 398.473 114.264 L 398.473 163.142" fill="rgb(51,110,170)"/><path d=" M 300.667 162.476 L 397.807 162.476 L 397.807 114.93 L 300.667 114.93 L 300.667 162.476 Z  M 399.14 163.809 L 299.333 163.809 L 299.333 113.597 L 399.14 113.597 L 399.14 163.809 Z " fill="rgb(51,110,170)"/><path d=" M 370.757 163.142 L 300 163.142 L 300 114.264 L 370.757 114.264 L 370.757 163.142 Z " fill="rgb(69,149,229)"/><path d=" M 300.667 162.476 L 370.091 162.476 L 370.091 114.93 L 300.667 114.93 L 300.667 162.476 Z  M 371.424 163.809 L 299.333 163.809 L 299.333 113.597 L 371.424 113.597 L 371.424 163.809 Z " fill="rgb(51,110,170)"/><path d=" M 179.621 163.142 L 278.095 163.142 L 278.095 114.264 L 179.621 114.264 L 179.621 163.142 Z " fill="rgb(51,110,170)"/><path d=" M 180.288 162.476 L 277.428 162.476 L 277.428 114.93 L 180.288 114.93 L 180.288 162.476 Z  M 278.761 163.809 L 178.955 163.809 L 178.955 113.597 L 278.761 113.597 L 278.761 163.809 Z " fill="rgb(51,110,170)"/><path d=" M 207.336 163.142 L 278.095 163.142 L 278.095 114.264 L 207.336 114.264 L 207.336 163.142 Z " fill="rgb(69,149,229)"/><path d=" M 208.003 162.476 L 277.428 162.476 L 277.428 114.93 L 208.003 114.93 L 208.003 162.476 Z  M 278.761 163.809 L 206.669 163.809 L 206.669 113.597 L 278.761 113.597 L 278.761 163.809 Z " fill="rgb(51,110,170)"/><path d=" M 267.236 98.547 L 343.597 98.547 L 343.597 78.872 L 267.236 78.872 L 267.236 98.547 Z " fill="rgb(140,19,10)"/><path d=" M 267.753 91.816 L 267.753 98.279 L 343.08 98.279 L 343.08 79.14 L 267.753 79.14 L 267.753 91.816 Z  M 344.114 98.816 L 266.719 98.816 L 266.719 78.604 L 344.114 78.604 L 344.114 98.816 Z " fill="rgb(140,19,10)"/><path d=" M 288.728 98.547 L 343.597 98.547 L 343.597 78.872 L 288.728 78.872 L 288.728 98.547 Z " fill="rgb(166,26,17)"/><path d=" M 289.244 98.279 L 343.08 98.279 L 343.08 79.14 L 289.244 79.14 L 289.244 98.279 Z  M 344.114 98.816 L 288.211 98.816 L 288.211 78.604 L 344.114 78.604 L 344.114 98.816 Z " fill="rgb(140,19,10)"/><path d=" M 343.45 98.547 L 321.744 98.547 L 321.744 118.223 L 343.45 118.223 L 343.45 98.547 Z " fill="rgb(140,19,10)"/><path d=" M 343.303 105.279 L 343.303 98.816 L 321.891 98.816 L 321.891 117.954 L 343.303 117.954 L 343.303 105.279 Z  M 321.597 98.279 L 343.597 98.279 L 343.597 118.491 L 321.597 118.491 L 321.597 98.279 Z " fill="rgb(140,19,10)"/><path d=" M 337.341 98.547 L 321.744 98.547 L 321.744 118.223 L 337.341 118.223 L 337.341 98.547 Z " fill="rgb(166,26,17)"/><path d=" M 337.194 98.816 L 321.891 98.816 L 321.891 117.954 L 337.194 117.954 L 337.194 98.816 Z  M 321.597 98.279 L 337.488 98.279 L 337.488 118.491 L 321.597 118.491 L 321.597 98.279 Z " fill="rgb(140,19,10)"/><path d=" M 321.597 118.759 L 343.303 118.759 L 343.303 138.435 L 321.597 138.435 L 321.597 118.759 Z " fill="rgb(140,19,10)"/><path d=" M 321.744 125.491 L 321.744 119.028 L 343.156 119.028 L 343.156 138.166 L 321.744 138.166 L 321.744 125.491 Z  M 343.45 118.491 L 321.45 118.491 L 321.45 138.703 L 343.45 138.703 L 343.45 118.491 Z " fill="rgb(140,19,10)"/><path d=" M 327.706 118.759 L 343.303 118.759 L 343.303 138.435 L 327.706 138.435 L 327.706 118.759 Z " fill="rgb(166,26,17)"/><path d=" M 327.853 119.028 L 343.156 119.028 L 343.156 138.166 L 327.853 138.166 L 327.853 119.028 Z  M 343.45 118.491 L 327.559 118.491 L 327.559 138.703 L 343.45 138.703 L 343.45 118.491 Z " fill="rgb(140,19,10)"/><path d=" M 311.755 163.142 L 262.405 163.142 L 262.405 114.264 L 311.755 114.264 L 311.755 163.142 Z " fill="rgb(251,200,68)"/><path d=" M 263.072 162.476 L 311.088 162.476 L 311.088 114.93 L 263.072 114.93 L 263.072 162.476 Z  M 312.421 163.809 L 261.739 163.809 L 261.739 113.597 L 312.421 113.597 L 312.421 163.809 Z " fill="rgb(219,178,77)"/><path d=" M 311.755 163.142 L 262.405 163.142 L 262.405 114.264 L 311.755 114.264 L 311.755 163.142 Z " fill="rgb(69,149,229)"/><path d=" M 263.072 162.476 L 311.088 162.476 L 311.088 114.93 L 263.072 114.93 L 263.072 162.476 Z  M 312.421 163.809 L 261.739 163.809 L 261.739 113.597 L 312.421 113.597 L 312.421 163.809 Z " fill="rgb(51,110,170)"/><path d=" M 280.144 264.311 L 280.136 264.412 L 280.105 264.563 L 280.144 264.311 Z " fill="rgb(158,67,61)"/></g></svg>