<?xml version="1.0" encoding="UTF-8" standalone="no"?><!-- Generator: Gravit.io --><svg xmlns="http://www.w3.org/2000/svg" xmlns:xlink="http://www.w3.org/1999/xlink" style="isolation:isolate" viewBox="0 0 250 250" width="250pt" height="250pt"><g><path d=" M 121.871 69.419 C 120.445 65.473 118.504 58.169 117.612 57.452 C 117.612 57.452 116.019 63.88 116.025 66.135 C 116.03 67.889 117.549 75.656 118.51 79.536 C 117.383 80.291 116.347 81.101 116.143 81.555 C 115.699 82.535 117 85.473 118.336 85.824 C 119.491 86.129 122.514 83.441 123.591 81.82 C 123.695 81.697 123.762 81.416 123.856 81.271 C 125.156 79.129 123.291 73.369 121.871 69.419 Z " fill="rgb(74,55,6)"/><path d=" M 100.079 52.797 C 100.486 52.005 100.607 52.077 102.059 51.993 C 103.51 51.897 109.463 51.777 110.507 53.673 C 111.551 55.569 111.083 57.981 107.603 57.861 C 104.123 57.753 100.079 52.797 100.079 52.797" fill="rgb(149,112,20)"/><path d=" M 105.94 153.068 C 106.078 151.792 106.601 150.968 106.017 144.375 C 105.944 143.575 111.922 143.299 111.922 143.299 C 111.66 146.536 110.813 148.567 113.957 152.455 C 114.645 153.304 116.655 154.42 117.547 155.461 C 117.687 155.621 118.392 158.319 115.445 158.325 C 111.731 158.333 110.187 157.911 108.964 156.101 C 108.87 155.961 108.192 155.719 108.192 155.719 C 108.192 155.719 105.636 155.901 105.94 153.068" fill="rgb(25,25,31)"/><path d=" M 96.958 148.08 L 91.333 147.329 C 91.333 147.329 91.257 147.864 90.821 149.808 C 90.008 153.413 88.628 155.18 87.425 156.119 C 86.507 156.836 85.959 157.547 85.959 158.481 L 86.187 160.039 C 86.187 160.039 86.789 160.741 87.925 160.881 C 90.199 161.169 93.01 160.401 93.583 159.58 C 93.833 159.225 95.094 157.215 95.986 157.08 C 95.986 157.08 96.892 155.533 96.233 153.733 C 95.575 151.929 96.958 148.08 96.958 148.08" fill="rgb(25,25,31)"/><path d=" M 115.785 86.356 C 115.81 86.951 116.87 89.185 116.884 89.737 C 117.066 95.82 116.903 98.187 116.906 99.783 C 116.909 101.529 115.83 121.512 114.529 125.883 C 113.228 130.249 113.159 145.731 114.034 147.031 C 114.911 148.343 114.529 152.08 114.529 152.08 C 114.529 152.08 109.798 149.685 105.451 152.841 C 105.451 152.841 105.206 150.48 105.146 147.911 C 104.885 137.101 104.731 134.116 105.695 126.997 C 106.048 124.4 105.237 108.547 105.231 105.923 C 105.225 103.971 101.629 124.372 99.893 130.493 C 99.893 130.493 97.035 143.433 97.779 149.067 C 98.442 154.14 96.89 155.448 96.89 155.448 C 96.89 155.448 91.75 152.371 88.699 154.125 C 88.587 152.38 88.719 151.58 89.105 148.42 C 89.585 144.485 90.134 135.471 91.085 129.403 C 92.253 121.916 92.459 108.353 92.885 100.492 C 93.299 92.629 95.67 88.845 96.563 87.273 C 97.461 85.699 115.785 86.356 115.785 86.356" fill="rgb(25,25,31)"/><path d=" M 115.813 100.224 C 115.509 109.18 112.856 122.889 111.883 126.827 C 110.91 130.756 112.218 129.281 111.731 131.573 C 111.245 133.868 110.866 145.347 110.869 146.169 C 110.869 146.987 106.805 149.244 107.97 149.077 C 108.785 148.959 111.156 147.768 111.158 148.257 C 111.158 148.749 108.206 150.528 108.206 150.528 C 108.206 150.528 112.846 149.24 114.586 150.339 C 114.893 150.535 114.271 148.033 114.053 146.285 C 113.83 144.543 113.546 132.711 114.302 128.317 C 115.103 123.681 117.19 103.665 116.69 100.879 C 116.193 98.092 115.813 100.224 115.813 100.224" fill="rgb(37,38,47)"/><path d=" M 105.609 103.247 C 103.816 106.861 100.155 125.247 99.344 127.869 C 98.526 130.493 97.168 132.847 96.513 133.661 C 95.865 134.484 92.203 147.597 92.703 149.889 C 94.341 150.047 95.978 149.724 96.146 150.535 C 96.305 151.353 91.885 151.04 91.885 151.04 L 97.464 153.979 C 97.464 153.979 97.781 151.192 97.779 149.067 C 97.772 146.935 98.109 136.88 99.736 131.637 C 101.36 126.391 102.158 122.152 102.805 117.563 C 103.453 112.973 105.609 103.247 105.609 103.247" fill="rgb(37,38,47)"/><path d=" M 109.871 51.009 C 109.331 52.305 109.103 53.601 109.259 54.861 C 109.283 55.137 110.651 55.833 110.71 56.109 C 111.107 57.621 106.175 66.513 105.31 66.345 C 104.435 66.177 100.979 53.865 100.979 53.865 C 100.979 53.865 102.407 49.005 102.467 46.917 C 102.503 45.609 109.871 51.009 109.871 51.009" fill="rgb(201,142,125)"/><g><clipPath id="_clipPath_ZzZzl5h3uiHZ9AxOlvEcqIWWKL1YvX6Y"><path d=" M 100.886 61.96 C 100.859 61.96 100.834 61.959 100.81 61.953 C 99.647 61.713 101.267 55.809 100.691 54.873 C 100.758 54.676 100.865 54.344 100.992 53.913 C 101.112 54.339 102.003 57.483 102.962 60.504 C 102.065 61.372 101.306 61.96 100.886 61.96 Z  M 108.847 50.276 C 108.165 49.796 107.223 49.144 106.272 48.531 L 108.695 49.149 C 108.678 49.236 108.75 49.687 108.847 50.276 M 101.925 50.229 C 102.28 48.499 102.519 46.669 102.323 45.417 L 105.118 47.811 C 104.069 47.183 103.143 46.713 102.716 46.713 C 102.56 46.713 102.47 46.776 102.467 46.917 C 102.443 47.744 102.204 49.007 101.925 50.229 Z " fill="rgb(255,255,255)"/></clipPath><g clip-path="url(#_clipPath_ZzZzl5h3uiHZ9AxOlvEcqIWWKL1YvX6Y)"><g><linearGradient id="_lgradient_109" x1="0.3469324031446117" y1="0.3643910695575059" x2="0.7081848765970575" y2="1.3213500231943214" gradientTransform="matrix(8.469,0,0,-16.543,100.378,61.96)" gradientUnits="userSpaceOnUse"><stop offset="0%" stop-opacity="1" style="stop-color:rgb(255,255,255)"/><stop offset="51.648300000000006%" stop-opacity="1" style="stop-color:rgb(196,189,180)"/><stop offset="100%" stop-opacity="1" style="stop-color:rgb(196,189,180)"/></linearGradient><path d=" M 100.886 61.96 C 100.859 61.96 100.834 61.959 100.81 61.953 C 99.647 61.713 101.267 55.809 100.691 54.873 C 100.758 54.676 100.865 54.344 100.992 53.913 C 101.112 54.339 102.003 57.483 102.962 60.504 C 102.065 61.372 101.306 61.96 100.886 61.96 Z  M 108.847 50.276 C 108.165 49.796 107.223 49.144 106.272 48.531 L 108.695 49.149 C 108.678 49.236 108.75 49.687 108.847 50.276 M 101.925 50.229 C 102.28 48.499 102.519 46.669 102.323 45.417 L 105.118 47.811 C 104.069 47.183 103.143 46.713 102.716 46.713 C 102.56 46.713 102.47 46.776 102.467 46.917 C 102.443 47.744 102.204 49.007 101.925 50.229 Z " fill="url(#_lgradient_109)"/></g></g></g><g><clipPath id="_clipPath_s6XiWt2ZXIxwAWuFvQY880LNsdRgEQWY"><path d=" M 102.962 60.504 C 102.003 57.483 101.112 54.339 100.992 53.913 C 101.265 53 101.634 51.648 101.925 50.229 C 102.204 49.007 102.443 47.744 102.467 46.917 C 102.47 46.776 102.56 46.713 102.716 46.713 C 103.143 46.713 104.069 47.183 105.118 47.811 L 105.827 48.417 L 105.851 48.417 L 105.875 48.417 L 105.875 48.429 L 106.272 48.531 C 107.223 49.144 108.165 49.796 108.847 50.276 C 109.019 51.325 109.269 52.811 109.223 53.433 C 108.558 54.089 105.294 58.245 102.962 60.504 Z " fill="rgb(255,255,255)"/></clipPath><g clip-path="url(#_clipPath_s6XiWt2ZXIxwAWuFvQY880LNsdRgEQWY)"><g><linearGradient id="_lgradient_110" x1="0.28219684771373643" y1="0.3315285700473751" x2="0.6947946978808559" y2="1.424501590260347" gradientTransform="matrix(8.236,0,0,-13.791,100.992,60.504)" gradientUnits="userSpaceOnUse"><stop offset="0%" stop-opacity="1" style="stop-color:rgb(201,142,125)"/><stop offset="51.648300000000006%" stop-opacity="1" style="stop-color:rgb(152,105,89)"/><stop offset="100%" stop-opacity="1" style="stop-color:rgb(152,105,89)"/></linearGradient><path d=" M 102.962 60.504 C 102.003 57.483 101.112 54.339 100.992 53.913 C 101.265 53 101.634 51.648 101.925 50.229 C 102.204 49.007 102.443 47.744 102.467 46.917 C 102.47 46.776 102.56 46.713 102.716 46.713 C 103.143 46.713 104.069 47.183 105.118 47.811 L 105.827 48.417 L 105.851 48.417 L 105.875 48.417 L 105.875 48.429 L 106.272 48.531 C 107.223 49.144 108.165 49.796 108.847 50.276 C 109.019 51.325 109.269 52.811 109.223 53.433 C 108.558 54.089 105.294 58.245 102.962 60.504 Z " fill="url(#_lgradient_110)"/></g></g></g><path d=" M 110.298 54.801 C 110.72 58.844 108.603 63.181 107.404 63.065 C 106.327 62.529 100.47 54.552 100.075 53.692 C 99.747 54.047 97.697 55.804 97.697 55.804 L 96.296 91.847 L 114.649 91.449 L 114.28 56.275 L 110.298 54.801" fill="rgb(179,134,23)"/><path d=" M 113.595 98.045 C 113.435 96.403 113.26 76.971 113.186 73.155 C 112.905 58.497 109.262 53.997 111.425 54.971 C 113.391 55.863 116.077 57.115 117.612 57.452 C 118.134 57.568 117.794 60.695 117.794 60.695 C 117.794 60.695 117.301 68.171 116.958 69.195 C 116.619 70.231 116.875 76.919 116.942 79.324 C 116.983 80.689 118.806 92.871 119.01 98.228 C 119.018 98.427 118.88 98.807 118.297 98.984 C 118.297 98.984 113.83 100.431 113.595 98.045 Z " fill="rgb(74,55,6)"/><path d=" M 101.596 99.793 C 101.381 101.921 92.852 99.884 92.454 99.847 C 91.871 99.791 91.468 99.263 91.471 99.041 C 91.563 92.268 93.871 81.547 93.945 78.541 C 94.008 76.14 92.854 70.799 92.502 69.767 C 92.156 68.735 90.193 56.339 91.168 56.145 C 93.934 55.604 94.053 55.775 98.935 53.701 C 98.935 53.701 102.128 69.965 101.917 82.207 C 101.892 83.737 102.41 91.713 101.596 99.793" fill="rgb(74,55,6)"/><path d=" M 100.925 42.045 C 100.125 44.128 101.465 47.108 100.492 47.408 C 100.282 47.473 101.075 48.944 100.881 48.819 C 100.689 48.689 101.565 50.077 102.219 48.919 C 102.478 48.459 104.385 43.908 104.272 43.571 C 104.156 43.233 100.925 42.045 100.925 42.045" fill="rgb(25,25,31)"/><path d=" M 112.529 47.308 C 113.369 45.881 113.708 44.425 113.302 42.019 C 113.009 40.477 113.219 39.244 112.206 38.843 C 111.668 38.719 111.198 38.657 110.754 38.635 C 110.225 38.419 109.599 38.233 108.854 38.08 C 104.24 37.156 104.272 40.296 103.658 43.405 C 102.729 42.555 102.091 43.52 101.939 44.783 C 101.823 45.741 102.096 46.908 102.648 47.348 C 102.5 50.097 103.648 52.843 106.832 53.853 C 107.411 54.041 107.968 54.008 108.495 53.82 C 109.129 53.645 109.862 52.852 110.34 52.257 C 113.103 49.208 112.459 47.424 112.529 47.308" fill="rgb(201,142,125)"/><path d=" M 104.194 36.789 C 103.052 36.827 102.213 38.095 101.512 39.495 C 100.529 41.465 100.746 43.573 100.746 43.573 L 102.434 43.716 L 102.88 44.907 L 103.429 45.352 C 103.429 45.352 104.43 42.96 104.939 42.419 C 105.318 42.019 106.36 40.727 107.437 41.919 C 107.437 41.919 107.083 36.739 106.017 36.615 C 104.948 36.491 104.194 36.789 104.194 36.789" fill="rgb(25,25,31)"/><path d=" M 106.631 38.451 C 105.977 40.047 107.056 41.729 107.056 41.729 C 107.808 42.424 108.106 42.847 109.237 43.365 C 111.436 44.371 111.452 43.795 112.474 44.007 C 113.498 44.219 114.147 47.761 112.706 50.035 C 114.5 47.416 114.089 44.109 114.089 44.109 C 114.089 44.109 114.798 45.66 113.667 48.491 C 113.405 49.151 116.859 43.711 114.275 39.832 C 112.689 37.455 108.216 36.153 106.952 38.249 C 106.825 38.465 106.706 38.268 106.631 38.451" fill="rgb(36,36,40)"/><path d=" M 106.442 38.115 L 106.534 38.771 C 106.534 38.771 114.978 43.391 115.155 43.161 C 115.337 42.929 115.224 39.625 113.053 37.652 C 110.885 35.676 106.119 35.548 106.078 36.852 L 106.442 38.115" fill="rgb(36,36,40)"/><path d=" M 107.813 40.307 C 108.207 40.591 110.732 40.029 112.242 41.145 C 113.753 42.267 114.773 43.057 114.352 45.721 C 115.155 43.161 113.47 40.875 110.752 40.163 C 108.029 39.448 107.813 40.307 107.813 40.307 Z " fill="rgb(25,25,31)"/><path d=" M 106.109 39.649 C 106.631 38.451 110.557 38.105 112.686 39.453 C 111.117 38.509 107.942 37.943 106.968 38.637 C 105.977 39.345 106.109 39.649 106.109 39.649 Z " fill="rgb(25,25,31)"/><path d=" M 106.271 38.832 C 106.342 38.475 107.885 37.812 108.766 37.844 C 109.641 37.871 112.898 37.916 114.145 40.629 C 113.758 39.279 111.753 37.565 109.243 37.545 C 106.736 37.531 106.352 38.187 106.26 38.317 C 106.172 38.448 106.271 38.832 106.271 38.832 Z " fill="rgb(25,25,31)"/><path d=" M 106.078 37.777 C 106.488 37.489 109.733 36.296 111.587 37.312 C 113.443 38.329 114.909 39.616 114.89 42.171 C 115.189 41.444 114.376 38.945 113.169 38.012 C 111.974 37.08 110.138 36.213 108.357 36.424 C 106.578 36.635 106.047 37.001 106.037 37.332 L 106.078 37.777" fill="rgb(25,25,31)"/><path d=" M 100.643 52.177 C 100.502 52.992 101.473 55.203 103.471 57.368 C 103.471 57.368 102.094 57.132 101.806 57.816 C 101.517 58.507 98.78 59.753 98.78 59.753 C 98.78 59.753 98.055 53.991 98.41 53.815 C 99.479 53.276 100.643 52.177 100.643 52.177 Z " fill="rgb(149,112,20)"/><path d=" M 112.76 59.645 C 111.925 57.626 109.934 57.571 109.577 57.93 C 109.224 58.283 110.579 53.443 109.863 53.083 C 111.146 53.826 111.743 54.834 111.743 54.834 L 112.76 59.645 Z " fill="rgb(149,112,20)"/><path d=" M 110.392 57.501 C 110.305 58.661 110.486 59.729 110.486 59.729 C 110.486 59.729 107.818 63.391 107.825 66.241 C 107.83 69.093 107.64 62.947 107.64 62.947 C 107.64 62.947 109.385 59.407 109.558 58.515 C 109.737 57.623 109.853 56.792 109.853 56.792 L 110.392 57.501 Z " fill="rgb(149,112,20)"/><path d=" M 103.126 56.893 C 102.961 56.767 104.351 58.252 105.539 60.096 C 106.255 61.207 107.507 62.589 107.64 62.947 C 107.773 63.299 107.827 67 107.827 67 C 107.827 67 107.601 64.592 106.659 63.301 C 105.723 62.013 102.997 58.189 102.552 58.411 C 102.107 58.632 102.234 56.471 101.743 56.295 C 101.252 56.117 103.126 56.893 103.126 56.893 Z " fill="rgb(149,112,20)"/><path d=" M 91.582 56.205 C 88.138 56.099 84.786 67.784 83.988 70.976 C 83.89 71.363 83.025 72.324 82.948 72.713 C 82.556 74.701 82.908 76.043 83.36 77.785 C 83.36 77.785 83.482 79.468 84.177 79.463 C 84.875 79.463 87.194 79.46 89.742 78.528 C 92.286 77.592 100.507 71.548 100.507 71.548 C 100.507 71.548 101.194 64.06 100.259 63.747 C 99.33 63.435 90.996 69.249 90.996 69.249 C 90.996 69.249 93.197 68.784 93.197 67.392 C 93.193 66 91.582 56.205 91.582 56.205" fill="rgb(74,55,6)"/><path d=" M 106.167 63.299 C 105.526 63.151 104.299 63.829 102.69 64.571 C 102.285 64.755 101.192 65.048 100.846 65.208 C 100.647 65.293 99.771 68.811 100.448 68.753 C 101.547 68.66 102.773 67.683 102.995 67.812 C 104.281 68.583 105.957 67.555 106.305 67.201 C 106.74 66.76 106.167 63.299 106.167 63.299" fill="rgb(218,169,157)"/><path d=" M 107.495 63.659 C 107.702 63.777 108.385 63.955 108.731 64.573 C 109.204 65.413 109.625 66.304 109.425 66.603 C 109.109 67.083 108.181 65.233 108.181 65.233 L 107.218 64.856 C 107.218 64.856 107.978 65.391 108.423 66.075 C 108.87 66.768 108.913 67.425 108.641 67.815 C 108.423 68.132 108.158 67.215 107.685 66.704 C 107.305 66.291 107.106 66.285 107.106 66.285 C 107.106 66.285 107.396 66.585 107.68 66.98 C 107.997 67.425 108.396 67.747 108.293 68.129 C 108.202 68.505 107.551 67.833 106.957 67.309 C 106.498 66.907 105.959 66.887 105.959 66.887 C 105.959 66.887 106.486 67.044 106.923 67.421 C 107.381 67.82 107.811 68.292 107.625 68.547 C 107.42 68.823 106.908 68.317 106.275 67.961 C 105.797 67.687 105.124 67.752 104.856 67.583 C 104.341 67.276 104.032 67.34 104.037 66.635 C 104.041 66.509 104.109 66.367 104.169 66.14 C 104.207 66.003 104.071 65.632 104.213 65.216 C 104.316 64.885 104.776 64.625 104.786 64.393 C 104.818 63.589 105.345 63.731 105.513 63.623 C 105.799 63.447 105.987 62.807 107.495 63.659 Z " fill="rgb(218,169,157)"/><path d=" M 100.997 65.144 C 98.321 66.201 88.082 69.916 88.082 69.916 C 88.082 69.916 86.315 70.247 86.114 71.391 C 85.91 72.531 87.685 70.491 88.596 70.653 C 89.51 70.816 100.268 66.68 100.268 66.68 L 100.997 65.144" fill="rgb(91,68,8)"/><path d=" M 136.488 121.588 C 136.434 123.135 135.707 128.075 136.724 134.004 C 137.742 139.948 140.782 145.764 139.041 149.268 C 138.568 150.22 137.234 151.767 135.84 153.252 C 134.316 154.889 140.374 155.716 141.401 154.132 C 142.345 152.676 146.095 152.324 145.477 150 C 145.207 148.983 144.886 148.129 144.541 146.445 C 143.241 140.036 144.858 138.496 144.505 132.796 C 144.013 124.733 142.845 121.525 142.633 118.72 C 142.431 115.927 136.544 120.036 136.488 121.588" fill="rgb(170,108,95)"/><path d=" M 132.237 87.009 C 127.206 99.023 133.41 114.401 134.818 120.739 C 136.224 127.08 134.787 130.413 136.268 133.684 C 143.456 135.279 144.858 132.352 144.858 132.352 C 144.858 132.352 144.129 123.56 143.497 119.309 C 143.406 118.697 142.357 96.919 141.815 89.807 C 141.583 86.753 132.237 87.009 132.237 87.009" fill="rgb(230,218,201)"/><path d=" M 142.633 100.492 C 140.659 104.789 142.16 121.157 142.16 121.157 C 142.675 124.397 142.332 126.048 142.263 127.125 C 142.194 128.209 142.898 132.769 143.022 133.541 C 143.049 133.752 145.016 133.128 144.886 131.947 C 144.704 130.272 144.325 125.647 143.983 123.107 C 143.273 117.868 142.633 100.492 142.633 100.492" fill="rgb(240,223,199)"/><path d=" M 145.094 148.332 C 145.094 148.332 145.294 148.776 144.673 149.983 C 144.182 150.932 142.857 151.963 141.76 152.679 C 140.601 153.156 139.156 153.62 137.895 153.489 C 136.859 153.437 136.82 153.192 136.881 151.885 C 136.488 152.491 131.693 155.963 135.039 156.599 C 136.914 156.949 140.561 156.323 142.68 154.283 C 143.409 153.749 144.091 153.957 144.431 153.859 C 144.842 153.741 145.156 153.559 145.395 153.501 C 145.631 153.44 145.651 152.644 145.769 151.695 C 145.883 150.744 145.808 149.221 145.094 148.332" fill="rgb(37,38,47)"/><path d=" M 157.141 123.56 C 157.786 124.767 159.963 128.201 161.44 133.296 C 162.92 138.403 163.561 144.171 164.451 146.463 C 165.213 148.423 167.007 150.032 167.223 151.316 C 167.553 153.265 165.67 154.928 164.066 154.487 C 162.463 154.044 162.081 153.416 161.787 151.816 C 161.625 150.913 161.131 149.325 160.755 147.853 C 159.316 142.271 156.145 140.309 154.225 135.657 C 151.51 129.075 151.759 127.544 150.847 125.236 C 149.929 122.944 156.503 122.351 157.141 123.56" fill="rgb(170,108,95)"/><path d=" M 166.703 150.072 C 166.615 152.001 164.607 153.172 161.684 151.624 C 161.835 153.356 163.445 156.495 167.231 155.059 C 168.791 154.468 166.742 149.135 166.703 150.072 Z " fill="rgb(37,38,47)"/><path d=" M 149.76 88.077 C 154.968 96.037 152.811 99.807 156.539 119.641 C 157.025 122.217 160.504 127.411 161.346 132.167 C 157.906 134.788 153.716 135.572 153.716 135.572 C 153.716 135.572 151.449 130.468 150.254 126.425 C 150.221 126.329 148.564 123.259 148.106 121.799 C 145.891 114.732 140.245 100.113 139.878 95.049 C 139.684 92.356 149.76 88.077 149.76 88.077" fill="rgb(230,218,201)"/><path d=" M 156.539 119.641 C 152.979 100.704 154.777 96.411 150.417 89.135 L 147.44 89.717 C 148.992 91.971 153.463 112.575 154.366 118.813 C 154.725 121.281 155.758 122.273 156.473 123.935 C 157.143 125.493 159.075 130.924 159.096 133.597 C 159.851 133.195 160.617 132.725 161.346 132.167 C 159.325 123.795 157.025 122.217 156.539 119.641" fill="rgb(240,223,199)"/><path d=" M 125.78 63.292 C 124.408 65.945 122.219 70.148 121.271 73.367 C 119.654 73.009 115.655 73.044 113.91 73.009 C 112.126 72.975 113.034 75.372 113.034 75.372 C 113.034 75.372 122.461 79.591 123.08 78.353 C 123.08 78.353 127.502 73.105 128.381 69.679 C 128.796 68.049 125.78 63.292 125.78 63.292 Z " fill="rgb(170,108,95)"/><path d=" M 138.31 47.601 C 138.31 48.789 140.195 52.005 141.143 52.113 C 140.867 52.929 137.315 55.005 136.415 55.137 C 135.515 55.269 135.419 50.097 135.551 49.749 C 135.695 49.401 138.31 47.601 138.31 47.601" fill="rgb(37,38,47)"/><path d=" M 143.219 57.813 C 142.151 57.597 140.003 57.333 138.455 55.377 C 137.879 53.853 137.123 51.801 137.051 51.405 L 132.863 52.209 C 132.886 52.329 131.627 52.785 131.627 52.785 C 133.715 58.557 129.023 59.997 127.955 60.717 C 126.755 61.173 134.459 69.333 135.227 69.153 C 146.603 66.405 144.431 57.813 143.219 57.813" fill="rgb(170,108,95)"/><g><clipPath id="_clipPath_hCxzqO5wtX70DArWLclF1hA4K4obb8ew"><path d=" M 130.228 65.156 C 129.473 65.156 129.013 63.641 128.57 62.388 C 129.1 63.141 129.861 64.065 130.683 64.985 C 130.52 65.103 130.369 65.156 130.228 65.156 M 127.832 60.873 C 127.814 60.856 127.794 60.84 127.775 60.825 C 127.804 60.813 127.833 60.801 127.863 60.789 C 127.848 60.813 127.837 60.841 127.832 60.873 Z  M 131.883 57.128 C 132.112 56.269 132.095 55.119 132.008 54.12 C 132.259 55.337 132.17 56.324 131.883 57.128 Z  M 131.837 52.707 C 131.774 52.299 131.72 52.024 131.71 51.969 L 134.015 51.141 L 134.039 51.141 L 134.063 51.141 L 135.506 50.941 C 135.51 51.175 135.518 51.431 135.531 51.697 L 132.863 52.209 C 132.88 52.299 132.194 52.571 131.837 52.707" fill="rgb(255,255,255)"/></clipPath><g clip-path="url(#_clipPath_hCxzqO5wtX70DArWLclF1hA4K4obb8ew)"><g><linearGradient id="_lgradient_111" x1="0.492462397937258" y1="-0.1816902729575105" x2="0.6286685367701702" y2="1.1637894324422708" gradientTransform="matrix(7.757,0,0,-14.215,127.775,65.156)" gradientUnits="userSpaceOnUse"><stop offset="0%" stop-opacity="1" style="stop-color:rgb(255,255,255)"/><stop offset="25%" stop-opacity="1" style="stop-color:rgb(255,255,255)"/><stop offset="64.2857%" stop-opacity="1" style="stop-color:rgb(196,189,180)"/><stop offset="100%" stop-opacity="1" style="stop-color:rgb(196,189,180)"/></linearGradient><path d=" M 130.228 65.156 C 129.473 65.156 129.013 63.641 128.57 62.388 C 129.1 63.141 129.861 64.065 130.683 64.985 C 130.52 65.103 130.369 65.156 130.228 65.156 M 127.832 60.873 C 127.814 60.856 127.794 60.84 127.775 60.825 C 127.804 60.813 127.833 60.801 127.863 60.789 C 127.848 60.813 127.837 60.841 127.832 60.873 Z  M 131.883 57.128 C 132.112 56.269 132.095 55.119 132.008 54.12 C 132.259 55.337 132.17 56.324 131.883 57.128 Z  M 131.837 52.707 C 131.774 52.299 131.72 52.024 131.71 51.969 L 134.015 51.141 L 134.039 51.141 L 134.063 51.141 L 135.506 50.941 C 135.51 51.175 135.518 51.431 135.531 51.697 L 132.863 52.209 C 132.88 52.299 132.194 52.571 131.837 52.707" fill="url(#_lgradient_111)"/></g></g></g><g><clipPath id="_clipPath_BYth7AKoj1Ju4SttWChJKi58KP6cim6L"><path d=" M 137.233 52.019 C 137.135 51.727 137.069 51.509 137.051 51.405 L 135.531 51.697 C 135.518 51.431 135.51 51.175 135.506 50.941 L 137.003 50.733 C 137.03 50.871 137.112 51.408 137.233 52.019" fill="rgb(255,255,255)"/></clipPath><g clip-path="url(#_clipPath_BYth7AKoj1Ju4SttWChJKi58KP6cim6L)"><g><linearGradient id="_lgradient_112" x1="-2.2647263182274386" y1="-12.230290456429884" x2="-1.1568516945881342" y2="-1.286416450408085" gradientTransform="matrix(1.727,0,0,-1.285,135.506,52.019)" gradientUnits="userSpaceOnUse"><stop offset="0%" stop-opacity="1" style="stop-color:rgb(38,38,47)"/><stop offset="25%" stop-opacity="1" style="stop-color:rgb(38,38,47)"/><stop offset="64.2857%" stop-opacity="1" style="stop-color:rgb(30,30,33)"/><stop offset="100%" stop-opacity="1" style="stop-color:rgb(30,30,33)"/></linearGradient><path d=" M 137.233 52.019 C 137.135 51.727 137.069 51.509 137.051 51.405 L 135.531 51.697 C 135.518 51.431 135.51 51.175 135.506 50.941 L 137.003 50.733 C 137.03 50.871 137.112 51.408 137.233 52.019" fill="url(#_lgradient_112)"/></g></g></g><g><clipPath id="_clipPath_j5vLhwI5G2aDwHcccFBrasZZpNqZzkPl"><path d=" M 130.683 64.985 C 129.861 64.065 129.1 63.141 128.57 62.388 C 128.333 61.717 128.102 61.123 127.832 60.873 C 127.837 60.841 127.848 60.813 127.863 60.789 C 129.545 60.116 131.43 58.723 131.867 57.189 C 131.872 57.169 131.878 57.149 131.883 57.128 C 132.17 56.324 132.259 55.337 132.008 54.12 C 131.962 53.58 131.895 53.087 131.837 52.707 C 132.194 52.571 132.88 52.299 132.863 52.209 L 135.531 51.697 L 137.051 51.405 C 137.069 51.509 137.135 51.727 137.233 52.019 C 137.324 52.48 137.437 52.983 137.567 53.385 C 137.039 54.621 136.139 60.801 130.727 64.953 C 130.712 64.964 130.697 64.975 130.683 64.985" fill="rgb(255,255,255)"/></clipPath><g clip-path="url(#_clipPath_j5vLhwI5G2aDwHcccFBrasZZpNqZzkPl)"><g><linearGradient id="_lgradient_113" x1="0.38647819417050044" y1="-0.2027491408934523" x2="0.5280491581133732" y2="1.1957257038614342" gradientTransform="matrix(9.734,0,0,-13.58,127.832,64.985)" gradientUnits="userSpaceOnUse"><stop offset="0%" stop-opacity="1" style="stop-color:rgb(170,108,95)"/><stop offset="25%" stop-opacity="1" style="stop-color:rgb(170,108,95)"/><stop offset="64.2857%" stop-opacity="1" style="stop-color:rgb(128,79,67)"/><stop offset="100%" stop-opacity="1" style="stop-color:rgb(128,79,67)"/></linearGradient><path d=" M 130.683 64.985 C 129.861 64.065 129.1 63.141 128.57 62.388 C 128.333 61.717 128.102 61.123 127.832 60.873 C 127.837 60.841 127.848 60.813 127.863 60.789 C 129.545 60.116 131.43 58.723 131.867 57.189 C 131.872 57.169 131.878 57.149 131.883 57.128 C 132.17 56.324 132.259 55.337 132.008 54.12 C 131.962 53.58 131.895 53.087 131.837 52.707 C 132.194 52.571 132.88 52.299 132.863 52.209 L 135.531 51.697 L 137.051 51.405 C 137.069 51.509 137.135 51.727 137.233 52.019 C 137.324 52.48 137.437 52.983 137.567 53.385 C 137.039 54.621 136.139 60.801 130.727 64.953 C 130.712 64.964 130.697 64.975 130.683 64.985" fill="url(#_lgradient_113)"/></g></g></g><path d=" M 128.177 52.113 C 128.862 53.875 128.509 56.117 128.318 56.463 C 129.606 56.767 133.437 56.308 133.908 55.261 C 134.376 54.215 128.177 52.113 128.177 52.113 Z " fill="rgb(25,25,31)"/><path d=" M 127.398 51.089 C 128.874 54.773 131.779 57.304 134.153 56.873 C 136.544 56.447 138.225 54.621 137.271 49.597 C 136.675 46.448 136.009 41.543 130.862 42.269 C 126.046 42.952 125.808 47.137 127.398 51.089 Z " fill="rgb(170,108,95)"/><path d=" M 129.517 44.853 C 128.285 45.465 126.548 48.615 127.398 51.089 C 126.238 50.327 124.925 46.088 126.192 44.152 C 127.454 42.212 128.716 42.325 128.716 42.325 L 129.517 44.853" fill="rgb(25,25,31)"/><path d=" M 127.874 46.387 C 130.337 46.699 133.959 44.393 135.406 46.825 C 136.404 48.499 137.986 50.321 137.986 50.321 C 137.986 50.321 138.728 51.247 138.718 50.164 C 138.701 48.345 137.718 43.92 135.97 42.289 C 134.056 40.495 129.614 40.227 128.135 42.413 C 127.272 43.689 127.874 46.387 127.874 46.387 Z " fill="rgb(37,38,47)"/><path d=" M 136.081 47.651 C 137.071 46.352 137.956 48.712 137.825 49.777 C 137.67 51.083 137.119 50.847 137.119 50.847 L 136.081 47.651" fill="rgb(170,108,95)"/><path d=" M 140.601 56.905 C 140.653 57.589 139.915 63.927 135.719 64.667 C 132.777 65.187 131.077 62.717 130.268 58.799 C 127.862 60.585 126.797 60.9 126.797 60.9 C 126.797 60.9 128.396 70.563 130.119 73.411 C 131.845 76.269 131.619 82.723 130.914 84.051 C 130.221 85.371 129.925 93.183 130.347 96.528 C 130.602 98.545 144.897 98.031 152.684 93.505 C 152.811 93.431 150.939 85.144 147.977 80.776 C 146.88 79.164 145.523 71.835 146.333 68.508 C 147.078 65.423 146.626 58.523 146.161 58.44 C 144.552 58.141 140.601 56.905 140.601 56.905" fill="rgb(255,186,8)"/><path d=" M 127.048 73.941 C 126.167 73.265 122.165 70.065 122.313 69.463 C 124.656 60.055 127.465 60.812 127.465 60.812 C 127.465 60.812 129.323 68.637 129.175 69.005 C 128.236 71.373 127.048 73.941 127.048 73.941" fill="rgb(255,186,8)"/><path d=" M 127.43 64.687 C 128.951 67.892 129.342 70.444 129.586 71.396 C 130.434 74.756 133.031 74.003 136.298 72.689 C 138.175 71.928 141.766 72.208 142.241 73.091 C 142.716 73.975 135.892 71.96 133.452 75.841 C 132.723 77.004 131.51 83.599 131.695 88.325 C 131.895 93.352 132.041 97.295 132.041 97.295 C 132.041 97.295 129.049 97.637 128.981 96.468 C 128.182 83.816 133.082 81.903 129.944 75.493 C 128.909 73.367 128.012 74.044 128.122 70.713 C 128.211 68.271 127.43 64.687 127.43 64.687" fill="rgb(232,169,9)"/><path d=" M 146.631 64.413 C 145.686 66.556 147.725 73.304 147.692 75.991 C 147.292 75.999 139.206 77.641 137.508 77.919 C 136.483 77.507 135.192 77.14 134.526 77.117 C 133.78 76.981 133.031 76.957 132.742 76.955 C 132.129 76.937 130.927 76.7 131.052 77.083 C 131.109 77.241 131.932 77.435 132.532 77.553 L 133.097 77.687 C 132.585 77.979 130.988 78.932 130.996 79.175 C 131.016 79.664 131.952 78.871 132.899 78.721 L 132.982 78.791 C 132.289 78.951 131.486 79.629 131.58 79.757 C 131.679 79.884 132.893 79.396 133.612 79.324 L 133.701 79.396 C 133.12 79.577 132.085 79.928 132.184 80.049 C 132.297 80.207 133.031 80.049 133.797 80.02 C 134.369 80.369 135.536 80.309 135.995 80.224 C 136.372 80.152 137.126 80.172 137.444 80.088 C 139.856 80.965 150.182 80.448 151.405 79.605 C 152.67 78.733 151.565 68.063 151.08 66.241 C 150.032 62.339 146.954 63.673 146.631 64.413" fill="rgb(190,131,114)"/><path d=" M 145.833 58.407 C 146.107 57.416 149.252 59.652 150.328 63.612 C 150.964 65.933 152.333 70.545 152.333 70.545 L 147.021 72.309 L 146.297 67.677 C 146.297 67.677 145.541 59.448 145.833 58.407 Z " fill="rgb(255,186,8)"/><path d=" M 146.107 69.369 L 146.004 63.488 C 147.327 64.609 148.61 70.129 148.965 71.64 C 147.154 72.353 146.647 72.399 146.647 72.399 L 146.107 69.369" fill="rgb(232,169,9)"/><path d=" M 91.339 66.364 C 91.252 68.06 90.275 69.841 90.275 69.841 L 87.867 70.295 L 91.422 63.868 L 91.339 66.364 Z " fill="rgb(91,68,8)"/><path d=" M 120.197 82.525 C 120.203 82.796 120.023 83.025 119.799 83.029 L 97.027 83.493 C 96.798 83.493 96.61 83.275 96.604 83.001 L 96.273 66.536 C 96.264 66.263 96.444 66.033 96.67 66.031 L 119.44 65.564 C 119.673 65.561 119.858 65.783 119.866 66.056 L 120.197 82.525" fill="rgb(37,38,47)"/><path d=" M 118.998 82.532 C 118.851 81.712 118.425 81.735 117.952 81.291 C 117.488 80.848 117.269 79.719 117.085 79.66 C 116.784 79.564 116.535 80.241 116.773 80.985 C 116.975 81.643 116.914 81.535 116.914 81.535 C 116.914 81.535 115.876 81.215 115.411 81 C 114.951 80.781 114.275 80.271 114.053 80.005 C 113.835 79.744 113.189 78.951 112.94 79.051 C 112.484 79.247 113.184 80.113 113.539 80.605 C 113.901 81.101 114.719 81.491 114.719 81.491 C 114.719 81.491 113.385 80.939 113.203 80.695 C 113.026 80.448 111.885 79.307 111.668 79.556 C 111.357 79.92 112.513 80.98 112.782 81.348 C 113.051 81.72 114.034 82.413 114.12 82.537 C 114.211 82.663 112.996 81.735 112.62 81.381 C 111.996 80.788 111.815 80.149 111.469 80.384 C 111.26 80.529 111.914 81.749 112.38 82.195 C 112.849 82.643 113.339 83.272 113.339 83.272 C 113.339 83.272 111.904 81.853 111.541 81.859 C 111.181 81.856 111.915 82.749 112.403 83.195 C 113.007 83.755 113.556 84.272 113.844 84.468 C 114.13 84.664 116.019 84.747 117.131 84.489 C 119.09 84.043 118.998 82.532 118.998 82.532" fill="rgb(218,169,157)"/></g><g><path d=" M 109.292 154.654 C 109.172 153.04 105.88 149.643 105.062 146.78 C 99.424 127.044 85.27 132.895 85.601 131.307 C 86.113 128.866 80.521 115.2 75.429 106.164 C 75.197 104.14 73.549 100.01 73.8 97.879 C 74.122 95.154 70.926 97.459 70.926 97.459 C 70.926 97.459 69.916 97.924 68.248 99.182 C 63.625 101.331 43.372 100.13 35.781 97.76 C 35.304 97.612 34.825 97.447 34.348 97.284 C 32.161 95.604 22.481 93.159 19.766 91.915 C 19.766 91.915 17.534 91.856 17.65 95.323 C 17.66 95.555 18.544 97.867 17.582 100.26 C 13.053 111.524 18.596 119.599 15.624 129.96 C 11.972 142.691 17.756 142.562 19.11 143.227 C 20.464 143.892 15.67 159.591 18.512 165.828 C 19.138 167.198 24.854 164.903 29.541 166.224 C 46.164 170.903 89.202 167.695 103.652 157.826 C 106.428 155.932 109.458 156.848 109.292 154.654" fill="rgb(3,165,203)"/><path d=" M 28.225 141.143 C 23.917 145.2 29.898 143.11 32.221 145.842 C 34.469 146.348 29.018 146.282 29.194 151.482 C 32.808 149.014 36.037 151.71 40.473 151.392 C 44.912 151.078 66.077 158.206 95.376 142.482 C 98.201 141.258 101.802 139.674 96.514 136.148 C 92.318 132.802 86.825 133.82 85.216 133.555 C 82.538 133.588 85.264 137.64 63.397 139.495 C 44.932 141.059 32.874 138.034 28.225 141.143" fill="rgb(3,139,170)"/><path d=" M 21.733 143.734 C 24.984 140.488 28.761 138.279 34.109 138.48 C 39.457 138.68 76.293 140.731 81.12 131.3 C 78.824 132.767 76.709 133.602 73.252 134.938 C 66.892 137.395 39.778 138.323 35.414 137.392 C 31.048 136.46 26.578 137.812 23.654 140.7 C 20.73 143.588 21.733 143.734 21.733 143.734" fill="rgb(3,139,170)"/><path d=" M 70.741 107.375 C 70.353 104.403 70.594 102.08 68.486 103.464 C 66.381 104.846 51.224 107.446 44.085 104.25 C 32.278 98.963 25.642 99.903 25.642 99.903 C 23.505 102.34 23.537 118.12 23.642 127.69 L 28.73 126.504 C 30.986 124.952 34.316 126.102 33.556 126.372 C 32.877 126.612 30.75 127.162 28.504 129.388 C 28.557 130.244 28.632 131.05 28.729 131.779 C 32.613 128.528 36.484 127.57 37.425 127.671 C 38.656 127.802 33.474 128.94 32.006 131.298 C 30.54 133.658 36.28 130.518 36.153 131.512 C 36.025 132.511 34.528 133.714 34.528 133.714 L 30.372 136.019 L 30.609 136.14 C 34.936 137.343 39.482 134.668 46.348 136.299 C 52.52 137.763 80.878 135.167 80.28 129.482 C 79.794 124.862 71.129 110.343 70.741 107.375" fill="rgb(3,139,170)"/><path d=" M 88.365 145.407 C 87.742 146.668 85.305 160.575 85.46 161.732 C 85.736 163.804 88.31 165.294 91.55 166.323 C 92.949 167.724 94.404 168.271 91.749 168.796 C 89.457 169.256 79.721 169.302 79.245 168.318 C 78.161 166.094 79.973 165.266 80.265 161.755 C 80.593 157.81 80.566 151.432 82.304 145.688 C 83.373 142.171 88.985 144.148 88.365 145.407" fill="rgb(201,142,125)"/><path d=" M 79.08 165.142 C 80.93 165.419 81.357 165.919 83.297 166.907 C 85.252 167.892 89.865 168.495 90.854 167.81 C 91.837 167.127 91.518 166.318 91.518 166.318 C 91.518 166.318 95.502 167.519 95.714 168.928 C 95.793 169.46 93.326 171.255 89.688 171.047 C 86.038 170.843 85.504 169.667 83.701 169.739 C 81.901 169.815 80.21 170.6 79.25 168.928 C 78.289 167.259 79.08 165.142 79.08 165.142" fill="rgb(37,38,47)"/><path d=" M 82.144 129.627 C 82.342 130.112 82.925 130.919 82.521 130.831 C 82.118 130.735 82.138 130.446 81.744 130.242 C 81.348 130.036 80.616 129.135 80.616 129.135 C 80.616 129.135 82.306 130.635 81.986 130.847 C 81.68 131.062 80.256 129.771 80.256 129.771 C 80.256 129.771 81.18 130.726 81.001 130.714 C 80.828 130.7 80.334 130.506 79.902 130.254 C 79.473 130.007 77.269 129.667 77.642 129.28 C 78.032 128.903 78.902 128.266 80.112 128.591 C 81.314 128.919 82.144 129.627 82.144 129.627" fill="rgb(201,142,125)"/><path d=" M 75.568 128.466 C 77.365 128.504 80.046 127.879 80.732 128.171 C 81.417 128.458 82.484 129.244 82.484 129.244 C 82.484 129.244 83.774 130.828 83.18 130.898 C 82.589 130.971 82.208 129.768 81.872 129.622 C 81.529 129.479 80.616 129.135 80.616 129.135 L 78.728 129.264 C 78.728 129.264 80.968 129.631 80.944 129.984 C 80.916 130.335 80.72 130.32 79.902 130.254 C 79.084 130.19 78.352 130.647 77.638 130.602 C 76.529 130.535 76.089 129.651 76.089 129.651 L 75.246 128.619 L 75.568 128.466" fill="rgb(218,169,157)"/><path d=" M 63.63 130.258 C 65.033 131.659 67.706 132.23 67.706 132.23 C 67.706 132.23 89.232 128.767 91.686 130.87 C 94.14 132.974 94.404 135.604 93.174 137.622 C 92.142 139.316 86.053 162.279 86.053 162.279 L 79.741 161.359 C 79.741 161.359 78.797 147.176 84.232 140.338 C 85.346 138.94 60.561 141.916 58.457 139.815 C 56.352 137.708 55.87 132.888 55.87 132.888 L 63.63 130.258 Z " fill="rgb(37,38,47)"/><path d=" M 85.732 141.892 C 84.978 143.083 94.509 162.683 95.278 163.559 C 97.69 166.291 100.541 167.466 103.653 168.834 C 104.536 171.079 103.728 171.214 101.022 171.466 C 98.704 171.675 90.702 171.704 90.328 170.674 C 89.492 168.35 89.95 165.919 89.714 165.11 C 86.936 155.635 80.988 151.562 80.988 143.802 C 80.988 140.127 86.49 140.703 85.732 141.892" fill="rgb(218,169,157)"/><path d=" M 89.405 166.159 C 91.208 166.63 92.162 168.139 93.998 169.324 C 95.833 170.514 99.926 170.107 101.945 169.01 C 103.006 168.432 101.638 167.739 101.638 167.739 C 101.638 167.739 106.922 168.844 106.081 170.779 C 105.869 171.266 103.876 173.064 100.277 172.474 C 96.673 171.891 96.068 172.13 94.269 172.011 C 92.476 171.899 90.276 172.768 89.604 170.96 C 89.1 169.62 89.405 166.159 89.405 166.159" fill="rgb(25,25,31)"/><path d=" M 45.349 133.938 C 46.794 141.171 44.658 146.243 53.897 147.486 C 62.708 148.668 77.558 137.044 77.657 141.567 C 77.745 145.51 83.488 158.268 88.486 164.319 L 94.798 161.031 C 94.798 161.031 87.298 140.274 87.214 136.306 C 87.126 132.099 84.584 129.38 82.129 129.38 C 80.345 129.38 69.565 132.32 63.63 132.888 C 61.394 133.099 61.514 130.448 61.13 130.258 C 59.726 129.555 45.349 133.938 45.349 133.938" fill="rgb(25,25,31)"/><path d=" M 87.564 163.572 C 88.266 163.572 94.404 159.539 94.49 158.927 C 94.58 158.314 95.369 161.907 95.369 161.907 C 95.369 161.907 88.968 164.888 88.529 164.888 C 88.092 164.888 87.564 163.572 87.564 163.572 Z " fill="rgb(37,38,47)"/><path d=" M 79.325 158.927 C 80.2 159.276 85.986 160.682 86.513 160.503 C 87.038 160.328 86.338 162.61 86.338 162.61 C 86.338 162.61 79.848 161.82 79.498 161.732 C 79.148 161.646 79.325 158.927 79.325 158.927" fill="rgb(25,25,31)"/><path d=" M 60.706 85.438 C 64.489 86.586 66.418 91.343 66.757 96.423 C 66.993 99.955 65.974 108.755 64.036 112.323 C 61.698 109.875 52.324 105.414 52.324 105.414 L 60.706 85.438" fill="rgb(37,34,34)"/><path d=" M 59.641 98.932 C 56.41 101.182 55.913 102.354 55.608 103.998 C 55.213 106.123 58.245 107.052 58.238 107.703 C 58.204 109.82 54.994 114.162 52.142 112.087 C 49.64 110.25 48.148 103.08 46.418 102.334 C 47.884 101.151 52.121 94.868 51.906 90.386 C 51.676 85.903 59.641 98.932 59.641 98.932" fill="rgb(201,142,125)"/><path d=" M 58.392 85.187 C 53.761 84.156 49.902 85.708 49.301 91.631 C 48.708 97.552 52.818 101.736 56.598 102.984 C 57.886 103.416 59.248 102.799 60.816 100.63 C 61.51 100.695 62.18 100.646 62.27 100.164 C 62.185 99.542 62.385 98.43 62.818 97.167 C 63.872 95.191 64.438 93.542 64.661 91.334 C 65.148 86.58 61.274 85.828 58.392 85.187" fill="rgb(201,142,125)"/><path d=" M 64.304 91.334 C 64.84 92.026 65.692 94.998 65.684 98.635 C 65.68 102.268 64.113 109.422 64.113 109.422 C 64.113 109.422 66.585 100.276 66.098 95.468 C 65.612 90.667 64.05 85.796 60.706 85.438 C 63.029 89.346 64.304 91.334 64.304 91.334 Z " fill="rgb(16,15,13)"/><path d=" M 39.168 112.37 C 38.993 114.826 45.306 121.138 44.954 124.995 C 44.604 128.854 43.028 138.059 45.306 141.216 C 48.988 137.796 52.977 135.122 52.977 135.122 C 52.977 135.122 53.285 118.858 50.829 114.299 C 49.248 111.362 49.454 104.731 47.848 103.779 C 46.961 103.252 47.781 104.151 40.812 107.966 C 38.232 109.375 39.168 112.37 39.168 112.37" fill="rgb(222,227,230)"/><path d=" M 89.792 129.94 L 89.74 130.055 L 74.337 132.992 C 74.214 133.018 73.954 133.024 73.754 133.002 L 60.857 131.856 C 60.461 131.818 60.597 131.463 60.784 131.427 L 76.518 128.154 C 76.668 128.122 78.294 128.283 78.436 128.36 L 89.792 129.94" fill="rgb(149,163,188)"/><path d=" M 64.989 131.222 L 75.86 129.116 L 82.785 129.818 L 74.981 131.835 L 64.989 131.222" fill="rgb(37,38,47)"/><path d=" M 74.285 133.092 C 74.302 132.919 74.214 132.768 74.092 132.756 L 60.841 131.468 C 60.714 131.456 60.6 131.588 60.586 131.76 L 60.568 131.92 C 60.553 132.092 60.64 132.242 60.765 132.252 L 74.014 133.542 C 74.138 133.552 74.253 133.422 74.268 133.25 L 74.285 133.092" fill="rgb(183,194,212)"/><path d=" M 68.956 122.826 C 67.52 121.05 64.744 114.627 63.856 112.779 C 62.82 110.612 61.54 108.206 60.277 108.456 C 60.277 108.456 59.204 115.57 60.32 118.251 C 61.197 120.358 65.669 125.916 65.669 125.916 C 65.669 125.916 74.588 130.432 77.688 130.304 C 78.364 130.276 79.06 129.555 79.06 129.555 C 79.06 129.555 71.676 124.406 68.956 122.826 Z " fill="rgb(218,169,157)"/><path d=" M 59.816 107.504 C 60.604 107.768 62.05 108.294 62.708 109.214 C 63.366 110.135 67.444 119.078 67.444 119.078 L 62.448 121.974 C 62.448 121.974 60.342 120.458 60.212 119.144 C 60.08 117.828 59.816 107.504 59.816 107.504 Z " fill="rgb(255,255,255)"/><path d=" M 60.649 109.654 C 61.568 109.367 63.19 113.116 65.909 119.474 C 64.857 120.326 62.381 121.643 62.381 121.643 C 62.381 121.643 60.804 121.116 60.804 120.131 C 60.804 119.144 60.649 109.654 60.649 109.654 Z " fill="rgb(222,227,230)"/><path d=" M 56.878 106.102 C 58.457 106.891 60.649 107.372 60.649 108.426 C 60.649 109.479 62.109 114.515 62.425 116.06 C 63.041 119.043 61.726 119.304 61.462 120.622 C 61.2 121.935 62.618 125.028 63.63 126.378 C 65.206 128.482 65.93 130.19 65.93 130.19 C 65.93 130.19 59.356 130.979 51.661 135.914 C 50.112 136.906 49.474 125.475 50.281 122.956 C 51.772 118.31 49.952 117.104 47.233 112.547 C 45.804 110.146 43.157 107.394 43.77 107.307 C 45.098 107.116 47.848 104.567 47.848 104.567 C 47.848 104.567 52.253 110.924 55.936 110.267 C 58.538 109.802 56.878 106.102 56.878 106.102 Z " fill="rgb(255,255,255)"/><path d=" M 49.92 87.631 C 50.213 87.122 50.965 86.474 51.421 86.176 C 54.888 83.924 58.884 84.676 60.429 85.19 C 61.977 85.708 64.304 91.334 64.304 91.334 C 63.742 92.102 62.07 94.395 59.844 94.88 C 57.614 95.37 56.557 94.507 55.833 94.728 C 54.245 93.435 53.45 94.895 53.522 96.231 C 53.562 97.012 53.729 97.555 53.729 97.555 L 53.196 111.406 C 53.196 111.406 47.881 106.57 44.46 101.186 C 45.477 97.03 47.132 91.559 49.92 87.631 Z " fill="rgb(16,15,13)"/><path d=" M 90.828 129.644 C 90.8 129.826 90.676 129.99 90.545 130.015 L 74.061 133.37 C 73.904 133.4 73.46 133.354 73.489 133.156 L 76.901 117.763 C 76.932 117.567 77.084 117.395 77.238 117.38 L 94.23 115.515 C 94.357 115.504 94.786 115.483 94.753 115.746 L 90.828 129.644" fill="rgb(149,163,188)"/><path d=" M 91.222 129.708 C 91.196 129.891 91.069 130.055 90.938 130.082 L 74.117 133.528 C 73.96 133.558 73.854 133.42 73.884 133.219 L 77.296 117.828 C 77.328 117.631 77.476 117.46 77.634 117.446 L 94.624 115.579 C 94.752 115.57 94.832 115.704 94.809 115.88 L 91.222 129.708" fill="rgb(183,194,212)"/><path d=" M 44.517 112.458 C 45.509 115.132 48.725 121.752 50.616 125.271 C 51.101 125.31 61.145 128.283 63.19 128.74 C 64.462 128.314 66.806 127.976 67.62 128 C 68.277 128.042 69.037 128.567 69.35 128.727 C 69.942 129.035 70.649 129.763 70.502 129.927 C 70.362 130.082 69.658 129.495 69.065 129.32 L 67.882 128.81 C 68.489 129.204 70.498 130.034 70.353 130.586 C 70.27 130.898 69.202 130.174 68.825 129.96 L 67.657 129.73 C 68.484 129.97 70.073 130.854 69.952 131 C 69.826 131.151 68.378 130.468 67.513 130.331 L 67.398 130.411 C 68.092 130.675 69.322 131.174 69.197 131.318 C 69.048 131.502 67.828 131.126 66.9 131.036 C 66.178 131.423 65.096 131.395 64.548 131.258 C 64.092 131.142 63.42 131.107 63.04 130.979 C 59.794 131.748 47.997 130.763 46.569 129.651 C 45.092 128.495 37.73 116.474 38.457 114.29 C 40.008 109.614 44.174 111.531 44.517 112.458" fill="rgb(218,169,157)"/><path d=" M 44.134 109.162 C 45.341 110.222 48.776 119.455 48.965 120.392 C 48.965 120.392 42.942 123.752 41.996 124.075 C 41.048 124.398 37.186 114.296 38.509 110.838 C 39.833 107.379 43.146 108.294 44.134 109.162" fill="rgb(255,255,255)"/><path d=" M 141.701 154.116 C 141.833 152.484 144.869 150.192 145.385 147.24 C 149.321 124.728 168.809 129.36 168.473 127.764 C 167.957 125.292 169.349 109.38 174.497 100.248 C 174.725 98.208 175.325 95.1 175.073 92.952 C 174.749 90.192 179.549 93.216 179.549 93.216 C 179.549 93.216 194.945 98.916 211.337 93.888 C 211.817 93.744 221.885 92.412 224.621 91.152 C 224.621 91.152 228.545 87.504 228.281 96.828 C 228.905 97.896 230.561 102.096 230.801 103.308 C 233.237 115.32 230.813 113.82 233.813 124.272 C 237.497 137.124 232.025 136.296 230.657 136.968 C 229.289 137.64 237.485 140.484 235.145 161.208 C 235.049 161.988 233.381 161.724 231.125 161.46 C 228.977 161.208 226.313 160.956 224.009 161.616 C 207.233 166.344 175.337 166.512 148.781 157.656 C 145.565 156.588 141.533 156.336 141.701 154.116 Z " fill="rgb(64,0,158)"/><path d=" M 224.309 135.296 C 228.869 139.078 222.385 136.64 221.658 137.359 C 219.476 138.028 228.896 145.323 227.666 146.204 C 219.64 143.088 219.702 142.87 215.29 142.868 C 210.882 142.867 193.916 152.071 163.784 138.32 C 153.229 141.358 159.341 136.104 163.861 133.886 C 167.762 130.216 168.432 131.038 170 130.655 C 172.65 130.5 170.257 134.776 192.014 135.086 C 210.39 135.351 213.796 130.438 224.309 135.296" fill="rgb(39,0,98)"/><path d=" M 170.849 126.072 C 170.369 131.532 199.517 133.2 205.817 131.616 C 209.537 130.68 212.609 130.92 215.333 131.16 C 217.745 131.376 219.881 131.592 221.957 131.004 L 222.197 130.884 L 217.877 128.796 C 217.877 128.796 216.317 127.692 216.161 126.744 C 216.089 126.336 217.145 126.624 218.249 126.912 C 219.725 127.296 221.297 127.68 220.409 126.42 C 218.849 124.2 213.509 123.264 214.769 123.108 C 215.729 122.988 222.377 122.268 226.445 125.268 C 226.529 124.56 226.577 124.8 226.613 123.984 C 224.261 121.92 223.073 120.444 222.365 120.24 C 221.585 120 216.893 117.468 219.233 118.896 C 219.245 118.896 219.377 118.896 219.581 118.884 C 220.553 118.848 223.289 118.8 224.597 120.9 C 228.557 116.196 223.829 96.852 221.585 94.584 C 221.585 94.584 212.393 96.144 204.833 98.7 C 197.273 101.244 182.525 98.1 180.329 96.84 C 178.133 95.58 179.441 96.78 179.117 99.636 C 178.781 102.492 171.233 121.644 170.849 126.072" fill="rgb(39,0,98)"/><path d=" M 187.205 98.522 C 184.948 98.391 184.15 102.239 182.822 105.427 C 181.494 108.612 172.336 117.908 173.528 118.707 C 174.721 119.5 180.298 122.158 183.486 120.432 C 186.672 118.707 189.992 111.667 189.33 105.692 C 188.666 99.719 187.205 98.522 187.205 98.522" fill="rgb(172,164,10)"/><path d=" M 156.656 162.214 C 156.46 160.602 156.281 161.303 158.989 153.356 C 159.314 152.396 152.402 151.911 152.402 151.911 C 151.845 155.986 148.546 159.698 143.233 163.86 C 140.509 165.995 138.544 167.843 141.112 168.995 C 145.681 171.043 148.784 168.978 152.509 166.498 C 152.684 166.379 154.562 166.25 154.562 166.25 C 154.562 166.25 157.156 166.32 156.656 162.214 Z " fill="rgb(16,15,13)"/><path d=" M 192.754 124.231 C 191.842 127.555 194.117 130.687 191.736 133.302 C 189.044 136.252 187.642 134.91 181.169 132.916 C 177.205 131.695 166.557 132.072 166.557 132.072 C 166.557 132.072 166.036 136.328 164.62 142.118 C 163.2 147.906 157.304 165.004 156.574 164.302 C 152.218 160.099 146.552 159.724 146.552 159.724 C 146.552 159.724 153.194 145.68 155.101 137.534 C 156.853 130.064 155.489 126.78 158.273 122.794 C 161.397 118.32 167.812 120.255 171.402 120.88 C 174.994 121.506 180.448 121.328 183.262 120.448 C 186.077 119.57 192.754 124.231 192.754 124.231" fill="rgb(149,163,188)"/><path d=" M 172.864 121.988 C 170.492 121.075 163.484 119.296 161.09 119.51 C 158.7 119.722 155.954 121.279 155.778 126.502 C 155.721 128.171 152.593 137.107 151.882 140.002 C 151.174 142.895 147.325 158.107 146.552 159.724 C 148.606 158.992 154.801 162.602 155.778 162.752 C 156.757 162.9 152.416 157.487 152.062 156.69 C 151.372 155.138 155.866 158.903 155.866 158.903 L 152.416 155.008 C 152.416 155.008 157.989 138.674 158.877 126.326 C 159.109 123.102 161.385 120.864 164.298 121.08 C 167.21 121.292 172.864 121.988 172.864 121.988" fill="rgb(183,194,212)"/><path d=" M 174.356 168.276 C 174.246 166.619 173.098 165.036 174.338 156.54 C 174.486 155.516 168.754 154.171 168.754 154.171 C 168.514 158.362 166.978 163.703 161.653 168.058 C 158.916 170.291 155.489 172.49 159.497 173.622 C 164.41 175.023 168.304 172.974 170.786 170.739 C 170.948 170.596 172.114 170.443 172.114 170.443 C 172.114 170.443 174.476 170.066 174.356 168.276" fill="rgb(16,15,13)"/><path d=" M 207.268 130.134 C 205.937 133.786 204.27 138.856 199.512 139.562 C 195.096 140.216 193.934 141.039 187 138.151 C 182.749 136.38 180.21 134.558 180.21 134.558 C 180.21 134.558 179.945 139.338 179.062 148.722 C 178.429 155.41 176.176 167.508 175.366 166.731 C 172.197 163.676 165.096 162.842 165.096 162.842 C 165.096 162.842 168.481 153.456 168.79 144.031 C 169.145 133.228 168.632 127.867 172.465 124.002 C 175.164 121.279 178.582 122.088 182.557 122.806 C 187.336 123.668 191.45 125.495 194.634 124.787 C 197.822 124.079 207.268 130.134 207.268 130.134" fill="rgb(149,163,188)"/><path d=" M 190.517 93.552 C 191.225 94.86 191.885 95.244 192.197 96.612 C 192.269 96.948 190.457 98.424 189.065 98.988 C 187.481 99.624 196.121 104.04 197.045 103.764 C 197.981 103.5 204.125 95.82 204.125 95.82 C 204.125 95.82 201.569 93.864 201.137 93.408 C 199.793 91.98 198.317 89.304 197.945 88.332 C 197.441 87 190.517 93.552 190.517 93.552 Z " fill="rgb(201,142,125)"/><g><clipPath id="_clipPath_4I6zLkU4QYqoYXGCZBGusbKkG1yEUmxN"><path d=" M 201.121 99.474 C 201.466 99.064 201.804 98.66 202.121 98.276 C 202.02 98.716 201.892 99.112 201.712 99.4 C 201.517 99.427 201.32 99.452 201.121 99.474 Z " fill="rgb(255,255,255)"/></clipPath><g clip-path="url(#_clipPath_4I6zLkU4QYqoYXGCZBGusbKkG1yEUmxN)"><g><linearGradient id="_lgradient_114" x1="2.2520000000000664" y1="3.018930957683665" x2="-20.822616409831365" y2="12.67394116623229" gradientTransform="matrix(1,0,0,-1.197,201.121,99.474)" gradientUnits="userSpaceOnUse"><stop offset="0%" stop-opacity="1" style="stop-color:rgb(122,24,89)"/><stop offset="51.648300000000006%" stop-opacity="1" style="stop-color:rgb(93,21,62)"/><stop offset="100%" stop-opacity="1" style="stop-color:rgb(93,21,62)"/></linearGradient><path d=" M 201.121 99.474 C 201.466 99.064 201.804 98.66 202.121 98.276 C 202.02 98.716 201.892 99.112 201.712 99.4 C 201.517 99.427 201.32 99.452 201.121 99.474 Z " fill="url(#_lgradient_114)"/></g></g></g><g><clipPath id="_clipPath_097dTc4HMfQd1IB4jIFpQJKlI5qQJMXp"><path d=" M 200.937 99.883 C 200.889 99.883 200.837 99.88 200.782 99.875 C 200.896 99.742 201.009 99.607 201.121 99.474 C 201.32 99.452 201.517 99.427 201.712 99.4 C 201.572 99.626 201.4 99.787 201.185 99.852 C 201.116 99.874 201.033 99.883 200.937 99.883" fill="rgb(255,255,255)"/></clipPath><g clip-path="url(#_clipPath_097dTc4HMfQd1IB4jIFpQJKlI5qQJMXp)"><g><linearGradient id="_lgradient_115" x1="2.7876614060259044" y1="8.337016574584823" x2="-22.62065997130628" y2="18.968508683623902" gradientTransform="matrix(0.929,0,0,-0.483,200.782,99.883)" gradientUnits="userSpaceOnUse"><stop offset="0%" stop-opacity="1" style="stop-color:rgb(151,30,118)"/><stop offset="51.648300000000006%" stop-opacity="1" style="stop-color:rgb(113,27,81)"/><stop offset="100%" stop-opacity="1" style="stop-color:rgb(113,27,81)"/></linearGradient><path d=" M 200.937 99.883 C 200.889 99.883 200.837 99.88 200.782 99.875 C 200.896 99.742 201.009 99.607 201.121 99.474 C 201.32 99.452 201.517 99.427 201.712 99.4 C 201.572 99.626 201.4 99.787 201.185 99.852 C 201.116 99.874 201.033 99.883 200.937 99.883" fill="url(#_lgradient_115)"/></g></g></g><g><clipPath id="_clipPath_AQnrOFVhDT9kRHZ8LKwcjKNXb2yydw4N"><path d=" M 191.714 95.388 C 191.417 95.191 191.19 95.03 191.057 94.92 C 191.033 94.78 191.036 94.612 191.058 94.424 C 191.298 94.771 191.522 95.062 191.714 95.388 M 202.413 94.484 C 201.846 94.032 201.314 93.595 201.137 93.408 C 200.405 92.631 199.634 91.483 199.024 90.442 C 199.366 90.974 199.762 91.572 200.201 92.208 C 201.029 93.336 201.916 94.011 202.413 94.484 Z  M 191.585 92.568 C 191.868 91.802 192.148 91.147 192.113 91.032 L 195.681 89.175 C 194.316 90.15 192.649 91.607 191.585 92.568 M 197.641 88.155 L 197.645 88.152 C 197.645 88.152 197.645 88.154 197.646 88.154 C 197.644 88.154 197.642 88.155 197.641 88.155" fill="rgb(255,255,255)"/></clipPath><g clip-path="url(#_clipPath_AQnrOFVhDT9kRHZ8LKwcjKNXb2yydw4N)"><g><linearGradient id="_lgradient_116" x1="1.0844114447253155" y1="-0.06504514464714362" x2="-0.9918287240350807" y2="0.8037068930352365" gradientTransform="matrix(11.373,0,0,-7.236,191.04,95.388)" gradientUnits="userSpaceOnUse"><stop offset="0%" stop-opacity="1" style="stop-color:rgb(255,255,255)"/><stop offset="51.648300000000006%" stop-opacity="1" style="stop-color:rgb(196,189,180)"/><stop offset="100%" stop-opacity="1" style="stop-color:rgb(196,189,180)"/></linearGradient><path d=" M 191.714 95.388 C 191.417 95.191 191.19 95.03 191.057 94.92 C 191.033 94.78 191.036 94.612 191.058 94.424 C 191.298 94.771 191.522 95.062 191.714 95.388 M 202.413 94.484 C 201.846 94.032 201.314 93.595 201.137 93.408 C 200.405 92.631 199.634 91.483 199.024 90.442 C 199.366 90.974 199.762 91.572 200.201 92.208 C 201.029 93.336 201.916 94.011 202.413 94.484 Z  M 191.585 92.568 C 191.868 91.802 192.148 91.147 192.113 91.032 L 195.681 89.175 C 194.316 90.15 192.649 91.607 191.585 92.568 M 197.641 88.155 L 197.645 88.152 C 197.645 88.152 197.645 88.154 197.646 88.154 C 197.644 88.154 197.642 88.155 197.641 88.155" fill="url(#_lgradient_116)"/></g></g></g><g><clipPath id="_clipPath_1sE1y5amC3JpgX2265E6vulb5NHJqibR"><path d=" M 200.782 99.875 C 198.942 99.704 193.718 96.716 191.714 95.388 C 191.522 95.062 191.298 94.771 191.058 94.424 C 191.125 93.887 191.356 93.191 191.585 92.568 C 192.649 91.607 194.316 90.15 195.681 89.175 L 197.641 88.155 C 197.642 88.155 197.644 88.154 197.646 88.154 C 197.692 88.278 198.205 89.171 199.024 90.442 C 199.634 91.483 200.405 92.631 201.137 93.408 C 201.314 93.595 201.846 94.032 202.413 94.484 C 202.593 94.656 202.724 94.802 202.781 94.932 C 202.464 95.575 202.393 97.091 202.121 98.276 C 201.804 98.66 201.466 99.064 201.121 99.474 C 201.009 99.607 200.896 99.742 200.782 99.875" fill="rgb(255,255,255)"/></clipPath><g clip-path="url(#_clipPath_1sE1y5amC3JpgX2265E6vulb5NHJqibR)"><g><linearGradient id="_lgradient_117" x1="1.0505004549590637" y1="0.3426231372995048" x2="-0.9637852593266594" y2="1.1854518452157976" gradientTransform="matrix(11.723,0,0,-11.721,191.058,99.875)" gradientUnits="userSpaceOnUse"><stop offset="0%" stop-opacity="1" style="stop-color:rgb(201,142,125)"/><stop offset="51.648300000000006%" stop-opacity="1" style="stop-color:rgb(152,105,89)"/><stop offset="100%" stop-opacity="1" style="stop-color:rgb(152,105,89)"/></linearGradient><path d=" M 200.782 99.875 C 198.942 99.704 193.718 96.716 191.714 95.388 C 191.522 95.062 191.298 94.771 191.058 94.424 C 191.125 93.887 191.356 93.191 191.585 92.568 C 192.649 91.607 194.316 90.15 195.681 89.175 L 197.641 88.155 C 197.642 88.155 197.644 88.154 197.646 88.154 C 197.692 88.278 198.205 89.171 199.024 90.442 C 199.634 91.483 200.405 92.631 201.137 93.408 C 201.314 93.595 201.846 94.032 202.413 94.484 C 202.593 94.656 202.724 94.802 202.781 94.932 C 202.464 95.575 202.393 97.091 202.121 98.276 C 201.804 98.66 201.466 99.064 201.121 99.474 C 201.009 99.607 200.896 99.742 200.782 99.875" fill="url(#_lgradient_117)"/></g></g></g><path d=" M 199.112 81.968 C 199.538 83.187 199.796 87.987 199.908 88.214 C 200.02 88.443 200.369 89.268 200.582 89.112 C 200.796 88.948 199.309 90.558 198.776 90.288 C 198.244 90.024 195.888 84.659 195.984 84.274 C 196.088 83.886 199.112 81.968 199.112 81.968" fill="rgb(37,38,47)"/><path d=" M 196.689 84.031 C 195.689 80.612 195.453 77.099 190.176 78.564 C 188.978 78.895 188.06 79.288 187.35 79.731 C 187.012 79.708 186.678 79.703 186.348 79.719 C 185.202 80.266 184.738 81.255 184.544 83.004 C 184.276 85.726 185.858 89.312 187.117 91.411 C 188.481 93.558 189.973 95.671 191.981 95.78 C 192.528 95.88 193.093 95.84 193.658 95.616 C 197.27 94.19 198.626 91.406 198.213 88.338 C 198.817 87.803 199.03 86.475 198.804 85.411 C 198.525 84.02 197.694 82.995 196.689 84.031" fill="rgb(201,142,125)"/><path d=" M 188.262 78.846 L 188.288 78.498 C 188.288 78.498 189.418 77.283 189.156 77.36 C 189.008 77.406 188.372 77.124 188.278 77.91 L 188.544 76.559 L 185.694 78.53 C 185.694 78.53 184.957 78.646 184.569 79.198 C 184.181 79.742 183.882 80.17 183.882 80.17 C 183.882 80.17 184.14 80.642 184.009 79.911 C 183.369 80.342 183.429 82.112 183.814 83.311 C 183.866 83.69 183.937 84.104 184.044 84.55 C 184.457 86.386 185.484 88.195 185.484 88.195 L 185.89 88.302 C 185.89 88.302 183.869 84.298 185.117 82.564 C 186.364 80.831 190.528 80.684 190.528 80.684 L 188.262 78.846" fill="rgb(25,25,31)"/><path d=" M 197.64 78.52 C 196.776 77.638 195.544 76.312 194.629 76.2 C 193.96 75.491 191.221 76.358 188.14 76.279 C 188.14 76.279 190.882 76.383 191.126 77.022 L 191.106 77.026 C 190.588 76.619 186.093 76.594 186.393 76.84 C 188.104 78.268 187.47 77.148 187.45 78.015 L 187.525 78.058 C 187.382 77.247 186.276 76.782 185.62 76.815 C 186.197 77.768 184.957 78.098 184.517 79.495 C 183.822 80.776 183.645 82.815 184.945 83.254 C 187.934 84.263 189.356 82.151 190.942 81.734 C 192.372 81.343 193.44 81.916 193.902 82.343 C 194.525 82.922 195.861 86.187 195.861 86.187 L 196.65 85.222 L 197.221 83.528 L 199.353 83.75 C 199.353 83.75 199.38 80.299 197.64 78.52 Z " fill="rgb(37,38,47)"/><path d=" M 201.244 93.011 C 203.106 94.042 210.713 95.266 211.442 96.135 C 211.442 96.135 212.828 110.447 211.364 116.326 C 209.905 122.203 207.656 135.26 205.882 135.615 C 205.109 135.771 205.104 132.004 197.221 127.842 C 194.64 126.479 185.426 123.728 184.369 124.018 C 183.314 124.308 185.017 121.395 186.541 118.174 C 188.06 114.952 187.637 109.536 187.336 107.95 C 187.036 106.364 186.79 98.552 186.79 98.552 C 186.79 98.552 189.905 97.564 191.35 96.588 C 191.656 96.383 191.336 100.498 194.286 100.826 C 198.278 101.264 201.244 93.011 201.244 93.011" fill="rgb(203,193,2)"/><path d=" M 188.989 125.392 C 188.35 125.562 187.97 125.52 187.418 125.395 L 166.268 122.203 C 165.718 122.078 165.549 120.667 166.046 120.632 C 166.046 120.632 177.27 119.818 177.822 119.946 L 197.954 123.247 C 198.161 123.296 198 124.5 197.981 124.57 C 197.937 124.698 197.781 124.766 197.453 124.848 L 188.989 125.392 Z " fill="rgb(25,25,31)"/><path d=" M 189.041 123.798 C 188.497 124.04 188.192 123.91 187.642 123.78 L 166.588 120.239 C 166.041 120.114 176.741 119.818 177.29 119.946 L 197.345 123.018 C 197.897 123.143 198.413 123.344 197.528 123.502 L 189.041 123.798 Z " fill="rgb(37,38,47)"/><path d=" M 210.71 95.859 C 214.244 94.57 216.97 107.992 214.825 118.263 C 214.408 120.255 213.94 119.856 211.902 120.919 C 210.686 121.552 198.632 124.759 198.632 124.759 C 198.632 124.759 197.216 118.696 196.812 117.564 C 196.416 116.435 208.5 114.098 208.5 114.098 C 208.5 114.098 207.874 106.162 207.822 105.599 C 207.052 97.492 209.249 96.395 210.71 95.859" fill="rgb(172,164,10)"/><path d=" M 198.612 121.128 C 198.729 120.44 197.254 119.427 196.377 118.419 C 196.377 118.419 192.505 117.95 189.926 118.722 C 189.32 118.907 189.005 119.224 187.89 119.978 C 187.062 120.539 187.184 121.114 188.121 120.815 C 188.908 120.567 189.681 120.055 189.681 120.055 L 191.077 119.804 C 191.077 119.804 189.994 120.138 189.708 120.239 C 189.418 120.343 188.114 121.242 187.746 121.423 C 187.213 121.675 187.153 122.398 188.041 122.188 C 188.918 121.988 189.374 121.647 189.817 121.5 C 190.445 121.291 191.564 121.031 191.564 121.031 C 190.306 121.52 188.465 122.034 188.096 122.487 C 187.724 122.93 188.14 123.482 189.022 123.007 C 190.604 122.148 191.913 122.094 191.913 122.094 L 189.56 122.88 C 189.56 122.88 188.89 123.63 190.069 123.391 C 193.052 122.776 195.508 122.752 196.388 122.266 C 197.121 121.863 198.525 121.627 198.612 121.128" fill="rgb(234,191,175)"/><path d=" M 198.718 123.347 C 198.817 122.415 198.21 118.216 196.812 117.564 C 196.046 117.88 195.278 117.903 195.278 117.903 C 195.278 117.903 196.736 122.214 196.484 123.768 L 198.718 123.347 Z " fill="rgb(255,255,255)"/><path d=" M 188.64 123.752 C 188.656 124.455 188.145 124.927 187.5 124.799 L 166.197 121.146 C 165.62 121.034 165.606 120.75 165.426 119.784 L 161.624 103.964 C 161.606 103.298 162.062 102.822 162.637 102.904 L 183.976 105.022 C 184.62 105.114 185.161 105.766 185.174 106.471 L 188.64 123.752" fill="rgb(25,25,31)"/><path d=" M 203.008 93.743 C 203.008 95.468 197.517 103.036 194.241 102.947 C 191.97 102.888 190.525 97.194 190.525 97.194 L 191.35 96.588 C 191.35 96.588 192.614 100.754 194.642 100.602 C 197.609 100.38 201.533 93.374 201.148 93.044 C 200.76 92.716 203.008 93.743 203.008 93.743 Z " fill="rgb(255,255,255)"/><path d=" M 171.492 123.378 C 173.372 122.32 176.664 121.851 179.601 122.32 C 182.536 122.791 189.117 123.964 193.345 127.136 C 197.574 130.31 186.176 129.958 184.064 129.84 C 181.948 129.722 171.492 123.378 171.492 123.378" fill="rgb(149,163,188)"/><path d=" M 186.405 123.891 C 183.73 123.003 175.536 120.858 172.908 121.234 C 170.278 121.614 167.546 125.707 167.937 127.555 C 168.325 129.406 167.314 142.335 166.718 145.64 C 166.121 148.947 164.902 161.796 163.7 162.776 C 166.218 163.484 171.908 163.594 172.997 163.704 C 174.085 163.816 167.56 163.279 166.754 161.58 C 166.158 160.318 171.336 162.642 171.336 162.642 L 168.284 159.588 C 168.284 159.588 172.56 134.206 172.096 129.907 C 171.71 126.274 173.58 122.492 176.804 122.739 C 180.83 123.05 186.405 123.891 186.405 123.891" fill="rgb(183,194,212)"/></g></svg>