<?xml version="1.0" encoding="UTF-8" standalone="no"?><!-- Generator: Gravit.io --><svg xmlns="http://www.w3.org/2000/svg" xmlns:xlink="http://www.w3.org/1999/xlink" style="isolation:isolate" viewBox="0 0 300 300" width="300pt" height="300pt"><defs><clipPath id="_clipPath_QKXV1Zkw5s2l1ZWAV2GMSb0UeTsDGz7B"><rect width="300" height="300"/></clipPath></defs><g clip-path="url(#_clipPath_QKXV1Zkw5s2l1ZWAV2GMSb0UeTsDGz7B)"><path d=" M 137.861 142.25 C 137.861 142.25 136.361 141.665 135.541 141.609 C 134.72 141.553 134.4 142.562 135.541 143.066 C 137.176 143.79 138.461 144.019 138.461 144.019 L 137.861 142.25" fill="rgb(0,26,51)"/><path d=" M 157.988 142.25 C 157.988 142.25 159.489 141.665 160.309 141.609 C 161.129 141.553 161.451 142.562 160.309 143.066 C 158.675 143.79 157.389 144.019 157.389 144.019 L 157.988 142.25" fill="rgb(0,26,51)"/><path d=" M 139.067 116.169 C 139.067 116.169 140.173 112.667 141.095 111.469 C 142.016 110.271 143.029 110.455 145.977 110.825 C 148.925 111.193 151.873 110.821 153.716 110.546 C 155.559 110.271 156.572 111.099 154.361 112.435 C 152.149 113.773 148.437 114.555 147.175 114.847 C 144.779 115.401 142.752 119.023 142.752 119.023 L 139.067 116.169" fill="rgb(249,170,109)"/><path d=" M 67.652 116.169 C 67.652 116.169 66.547 112.667 65.625 111.469 C 64.704 110.271 63.691 110.455 60.743 110.825 C 57.795 111.193 54.847 110.821 53.004 110.546 C 51.161 110.271 50.148 111.099 52.359 112.435 C 54.571 113.773 58.283 114.555 59.545 114.847 C 61.94 115.401 63.968 119.023 63.968 119.023 L 67.652 116.169" fill="rgb(249,170,109)"/><path d=" M 98.989 106.995 C 98.989 106.995 100.932 105.597 103.553 105.597 C 106.176 105.597 107.901 106.995 107.901 106.995 L 104.241 110.118 L 98.989 106.995" fill="rgb(165,165,164)"/><path d=" M 113.132 85.75 C 109.453 80.519 99.98 79.297 94.847 82.937 C 91.896 85.029 91.967 88.211 93.329 90.301 C 96.66 95.403 100.817 95.306 103.719 95.486 C 106.749 95.674 111.039 95.494 113.361 92.998 C 115.208 91.015 114.576 87.806 113.132 85.75" fill="rgb(2,52,102)"/><path d=" M 90.953 210.662 C 90.953 210.662 88.855 212.239 86.72 213.734 C 84.585 215.227 84.633 217.718 84.633 217.718 L 98.384 217.718 C 98.384 217.718 98.805 212.014 97.261 210.662 C 95.02 210.662 90.953 210.662 90.953 210.662 Z " fill="rgb(165,48,32)"/><path d=" M 98.427 216.806 L 84.633 216.806 L 84.633 217.718 L 98.427 217.718 L 98.427 216.806 Z " fill="rgb(133,37,27)"/><path d=" M 118.24 210.662 C 118.24 210.662 120.339 212.239 122.473 213.734 C 124.608 215.227 124.56 217.718 124.56 217.718 L 110.809 217.718 C 110.809 217.718 110.388 212.014 111.932 210.662 C 114.173 210.662 118.24 210.662 118.24 210.662 Z " fill="rgb(165,48,32)"/><path d=" M 110.767 216.806 L 124.56 216.806 L 124.56 217.718 L 110.767 217.718 L 110.767 216.806 Z " fill="rgb(133,37,27)"/><path d=" M 100.136 105.317 C 100.136 105.317 100.305 107.742 99.931 109.151 C 99.708 109.986 103.924 113.691 103.924 113.691 C 103.924 113.691 106.952 111.209 107.187 109.151 C 107.06 107.507 106.819 105.317 106.819 105.317 L 100.136 105.317" fill="rgb(237,122,49)"/><path d=" M 97.415 97.162 C 97.415 97.162 96.561 96.711 96.009 97.814 C 95.459 98.918 96.476 100.678 97.429 100.727 C 98.381 100.778 97.415 97.162 97.415 97.162 Z " fill="rgb(249,170,109)"/><path d=" M 110.347 97.111 C 110.347 97.111 111.256 96.79 111.64 97.962 C 112.025 99.134 110.761 100.726 109.811 100.637 C 108.86 100.546 110.347 97.111 110.347 97.111 Z " fill="rgb(249,170,109)"/><path d=" M 110.207 98.402 C 110.207 103.147 107.276 106.995 103.663 106.995 C 100.048 106.995 97.119 103.147 97.119 98.402 C 97.119 93.655 100.048 89.809 103.663 89.809 C 107.276 89.809 110.207 93.655 110.207 98.402 Z " fill="rgb(249,170,109)"/><path d=" M 96.835 97.093 L 97.561 97.605 L 98.989 95.541 L 96.852 95.541 L 96.835 97.093" fill="rgb(54,53,54)"/><path d=" M 110.571 97.093 L 109.844 97.605 L 108.416 95.541 L 110.555 95.541 L 110.571 97.093 Z " fill="rgb(54,53,54)"/><path d=" M 89.361 158.089 L 88.072 212.381 L 99.652 212.381 L 103.463 160.711 L 110.603 212.381 L 121.792 212.381 L 117.461 158.089 L 111.711 150.849 L 96.852 150.849 L 89.361 158.089 Z " fill="rgb(54,53,54)"/><path d=" M 129.72 127.895 C 127.025 123.178 122.432 115.621 119.46 113.343 C 116.887 111.371 107.187 109.151 107.187 109.151 C 107.187 109.151 103.719 112.669 103.423 113.239 C 102.997 112.577 99.931 109.151 99.931 109.151 C 99.931 109.151 90.52 111.271 88.072 113.109 C 84.908 115.485 79.836 123.537 77.012 128.27 C 77.24 128.371 77.457 128.467 77.652 128.551 C 79.888 129.502 82.077 130.774 84.393 131.526 L 89.299 126.527 L 89.361 158.089 L 117.461 158.089 L 117.548 126.527 L 121.144 130.315 L 122.38 131.615 C 125.073 130.897 127.381 129.371 129.72 127.895 Z " fill="rgb(0,38,77)"/><path d=" M 110.603 158.089 L 95.855 158.089 L 95.855 113.241 L 110.603 113.241 L 110.603 158.089 Z " fill="rgb(0,26,51)"/><path d=" M 109.493 158.089 L 94.567 158.089 L 94.567 114.154 L 109.493 114.154 L 109.493 158.089" fill="rgb(0,38,77)"/><path d=" M 112.025 86.438 C 112.025 86.438 110.597 86.826 109.999 87.286 C 109.4 87.747 108.709 89.498 108.709 89.498 C 108.709 89.498 110.045 88.299 111.012 87.747 C 111.98 87.194 112.025 86.438 112.025 86.438 Z " fill="rgb(0,26,51)"/><path d=" M 94.567 85.443 C 94.567 85.443 95.379 87.207 96.548 87.747 C 97.717 88.286 98.829 89.221 98.829 89.221 C 98.829 89.221 98.529 87.655 97.377 86.779 C 96.225 85.905 94.567 85.443 94.567 85.443" fill="rgb(0,26,51)"/><path d=" M 108.295 83.869 C 108.295 83.869 108.233 85.81 107.367 86.762 C 106.499 87.714 105.839 89.007 105.839 89.007 C 105.839 89.007 105.507 87.447 106.227 86.194 C 106.947 84.939 108.295 83.869 108.295 83.869 Z " fill="rgb(0,26,51)"/><path d=" M 98.829 82.865 C 98.829 82.865 99.187 84.549 99.947 85.629 C 100.707 86.709 101.339 87.969 101.339 87.969 C 101.339 87.969 101.309 85.435 100.941 84.743 C 100.187 83.325 98.829 82.865 98.829 82.865 Z " fill="rgb(0,26,51)"/><path d=" M 110.603 96.158 L 110.603 89.145 C 110.603 89.145 108.479 86.438 103.663 86.438 C 98.805 86.438 96.835 89.145 96.835 89.145 L 96.835 96.158 L 110.603 96.158 Z " fill="rgb(0,38,77)"/><path d=" M 98.829 109.411 L 98.989 106.995 C 98.989 106.995 103.607 110.291 103.423 113.241 C 100.716 111.398 98.829 109.411 98.829 109.411" fill="rgb(195,206,217)"/><path d=" M 108.061 109.411 L 107.901 106.995 C 107.901 106.995 103.284 110.291 103.468 113.241 C 106.175 111.398 108.061 109.411 108.061 109.411" fill="rgb(195,206,217)"/><path d=" M 99.543 116.169 C 99.543 116.594 99.199 116.938 98.773 116.938 C 98.349 116.938 98.005 116.594 98.005 116.169 C 98.005 115.745 98.349 115.401 98.773 115.401 C 99.199 115.401 99.543 115.745 99.543 116.169 Z " fill="rgb(0,26,51)"/><path d=" M 108.452 116.169 C 108.452 116.594 108.107 116.938 107.683 116.938 C 107.257 116.938 106.913 116.594 106.913 116.169 C 106.913 115.745 107.257 115.401 107.683 115.401 C 108.107 115.401 108.452 115.745 108.452 116.169 Z " fill="rgb(0,26,51)"/><path d=" M 99.543 128.054 C 99.543 128.479 99.199 128.823 98.773 128.823 C 98.349 128.823 98.005 128.479 98.005 128.054 C 98.005 127.629 98.349 127.285 98.773 127.285 C 99.199 127.285 99.543 127.629 99.543 128.054 Z " fill="rgb(0,26,51)"/><path d=" M 108.452 128.054 C 108.452 128.479 108.107 128.823 107.683 128.823 C 107.257 128.823 106.913 128.479 106.913 128.054 C 106.913 127.629 107.257 127.285 107.683 127.285 C 108.107 127.285 108.452 127.629 108.452 128.054 Z " fill="rgb(0,26,51)"/><path d=" M 99.543 138.909 C 99.543 139.333 99.199 139.678 98.773 139.678 C 98.349 139.678 98.005 139.333 98.005 138.909 C 98.005 138.483 98.349 138.139 98.773 138.139 C 99.199 138.139 99.543 138.483 99.543 138.909" fill="rgb(0,26,51)"/><path d=" M 108.452 138.909 C 108.452 139.333 108.107 139.678 107.683 139.678 C 107.257 139.678 106.913 139.333 106.913 138.909 C 106.913 138.483 107.257 138.139 107.683 138.139 C 108.107 138.139 108.452 138.483 108.452 138.909" fill="rgb(0,26,51)"/><path d=" M 99.543 150.793 C 99.543 151.218 99.199 151.562 98.773 151.562 C 98.349 151.562 98.005 151.218 98.005 150.793 C 98.005 150.369 98.349 150.025 98.773 150.025 C 99.199 150.025 99.543 150.369 99.543 150.793 Z " fill="rgb(0,26,51)"/><path d=" M 108.452 150.793 C 108.452 151.218 108.107 151.562 107.683 151.562 C 107.257 151.562 106.913 151.218 106.913 150.793 C 106.913 150.369 107.257 150.025 107.683 150.025 C 108.107 150.025 108.452 150.369 108.452 150.793 Z " fill="rgb(0,26,51)"/><path d=" M 121.144 130.315 C 121.144 130.315 124.472 133.939 126.445 134.41 C 129.629 135.167 131.42 133.639 136.948 128.17 C 142.476 122.701 145.24 118.462 145.24 118.462 L 138.975 114.154 L 121.144 130.315" fill="rgb(0,38,77)"/><path d=" M 85.56 130.315 C 85.56 130.315 82.233 133.939 80.259 134.41 C 77.075 135.167 75.284 133.639 69.756 128.17 C 64.228 122.701 61.465 118.462 61.465 118.462 L 67.729 114.154 L 85.56 130.315 Z " fill="rgb(0,38,77)"/><path d=" M 159.309 106.158 C 159.163 105.766 158.733 105.727 158.373 105.53 C 157.761 105.194 158.465 103.942 156.892 104.489 C 156.712 103.85 155.705 102.621 154.515 102.89 C 154.476 102.735 154.044 101.682 153.468 102.022 C 153.077 102.253 153.167 103.081 153.095 103.481 C 152.871 103.225 152.409 102.386 151.861 102.625 C 150.876 103.053 151.351 103.931 151.689 104.799 C 149.92 105.53 151.321 107.921 152.433 107.319 L 152.708 107.153 L 152.939 107.069 C 153.08 107.222 153.249 107.337 153.449 107.375 C 153.545 107.563 153.701 107.719 153.891 107.827 C 153.729 108.555 154.672 109.179 155.343 108.777 C 155.619 109.021 156.037 109.089 156.401 108.741 L 156.561 108.57 C 156.881 108.93 157.475 108.963 157.765 108.486 C 157.871 108.313 158.857 108.471 158.609 107.185 C 158.804 107.097 159.617 106.981 159.309 106.158" fill="rgb(81,159,53)"/><path d=" M 147.544 105.074 C 147.544 105.777 146.976 106.346 146.273 106.346 C 145.572 106.346 145.003 105.777 145.003 105.074 C 145.003 104.373 145.572 103.803 146.273 103.803 C 146.976 103.803 147.544 104.373 147.544 105.074 Z " fill="rgb(238,39,72)"/><path d=" M 147.731 105.446 C 146.455 105.558 146.232 105.123 145.383 104.625 C 144.944 104.367 144.563 104.455 144.285 104.545 C 144.047 104.621 143.885 104.697 143.828 104.555 C 143.552 103.865 143.033 102.518 141.56 102.835 C 141.059 102.943 140.221 103.313 140.223 103.969 C 140.224 104.327 140.84 104.447 140.997 104.737 C 141.444 105.558 141.188 106.171 140.717 106.319 C 140.063 106.525 140.193 107.451 140.233 107.739 C 140.316 108.325 140.773 108.531 141.307 108.595 C 141.612 108.633 141.937 108.614 142.263 108.597 C 142.549 108.581 142.837 108.566 143.115 108.587 C 143.903 108.647 144.697 108.719 145.473 108.866 C 146.084 108.981 147.008 109.407 147.576 108.929 C 147.799 108.742 147.724 108.819 147.813 108.574 C 147.957 108.177 148.355 107.723 148.596 107.354 C 149.115 106.559 148.353 105.391 147.731 105.446" fill="rgb(81,159,53)"/><path d=" M 145.319 107.782 C 145.277 107.782 145.237 107.762 145.213 107.713 C 145.075 107.439 144.763 107.366 144.481 107.286 C 144.043 107.161 143.557 107.002 143.34 106.606 C 143.231 106.409 143.189 106.318 143.288 106.318 C 143.32 106.318 143.367 106.327 143.429 106.346 C 143.732 106.431 143.907 106.787 144.189 106.787 C 144.196 106.787 144.203 106.787 144.209 106.787 L 144.175 106.495 C 144.232 105.897 144.808 105.535 145.368 105.53 L 145.369 105.53 C 145.519 105.53 145.615 105.725 145.393 105.738 C 145.012 105.761 144.717 105.97 144.572 106.319 C 144.488 106.522 144.353 106.686 145.119 107.173 C 145.319 107.301 145.495 107.387 145.471 107.643 C 145.463 107.722 145.389 107.782 145.319 107.782" fill="rgb(103,189,53)"/><path d=" M 157.475 108.61 C 157.427 108.61 157.345 108.582 157.229 108.539 C 156.805 108.381 156.579 107.925 156.391 107.509 C 156.269 107.243 156.151 106.945 155.86 106.847 C 155.719 106.801 155.771 106.613 155.892 106.583 C 155.929 106.574 155.963 106.57 155.995 106.57 C 156.175 106.57 156.276 106.71 156.408 106.862 C 156.759 107.267 156.952 107.378 157.091 107.378 C 157.187 107.378 157.256 107.325 157.333 107.278 C 157.656 107.083 157.821 106.759 157.788 106.379 C 157.779 106.278 157.817 106.238 157.864 106.238 C 157.92 106.238 157.985 106.294 157.997 106.375 C 158.075 106.93 157.8 107.551 157.217 107.697 L 156.924 107.706 C 156.951 107.999 157.343 108.119 157.475 108.411 C 157.54 108.555 157.54 108.61 157.475 108.61 Z " fill="rgb(103,189,53)"/><path d=" M 143.675 108.803 C 143.652 108.803 143.627 108.801 143.603 108.795 C 143.535 108.779 143.455 108.709 143.373 108.607 C 143.559 108.622 143.744 108.638 143.929 108.655 C 143.879 108.742 143.785 108.803 143.675 108.803" fill="rgb(130,207,135)"/><path d=" M 143.929 108.655 C 143.744 108.638 143.559 108.622 143.373 108.607 C 143.087 108.257 142.765 107.547 142.753 107.506 C 142.656 107.262 142.141 106.881 141.825 106.809 C 141.816 106.806 141.807 106.805 141.796 106.805 C 141.649 106.805 141.485 107.049 141.34 107.065 C 141.331 107.066 141.323 107.066 141.313 107.066 C 141.107 107.066 141.167 106.77 141.233 106.713 C 141.419 106.555 141.592 106.491 141.753 106.491 C 142.045 106.491 142.301 106.698 142.524 106.934 C 142.393 106.271 142.459 105.549 142.701 104.97 C 143.001 104.257 142.156 104.149 141.764 103.931 L 141.816 103.738 C 142.981 103.798 143.236 104.911 142.779 105.907 C 142.315 106.919 143.36 107.754 143.888 108.305 C 143.991 108.411 143.991 108.551 143.929 108.655 Z " fill="rgb(103,189,53)"/><path d=" M 155.928 106.253 C 155.881 106.253 155.829 106.219 155.776 106.142 C 155.388 105.567 154.857 104.523 153.947 104.523 C 153.856 104.523 153.763 104.534 153.664 104.555 C 153.487 104.595 153.309 104.614 153.139 104.615 C 152.284 104.615 151.591 104.119 151.747 103.159 L 151.945 103.149 C 152.067 103.545 152.015 104.299 152.605 104.299 C 152.653 104.299 152.707 104.294 152.765 104.283 C 152.944 104.249 153.132 104.233 153.323 104.233 C 153.791 104.233 154.281 104.331 154.723 104.521 C 154.437 104.105 154.236 103.627 154.777 103.213 C 154.8 103.195 154.849 103.183 154.903 103.183 C 155.016 103.183 155.149 103.235 155.097 103.391 C 155.049 103.538 154.741 103.654 154.747 103.811 C 154.751 104.135 155.015 104.719 155.235 104.865 C 155.281 104.89 156.092 105.582 156.1 105.894 C 156.104 106.094 156.029 106.253 155.928 106.253" fill="rgb(103,189,53)"/><path d=" M 154.435 105.71 L 158.259 102.787 C 158.259 102.787 158.167 101.049 159.133 100.91 C 160.101 100.773 160.347 102.582 160.347 102.582 C 160.347 102.582 161.905 103.061 161.591 103.913 C 161.16 105.074 159.121 104.262 159.121 104.262 L 155.095 106.981 L 154.435 105.71" fill="rgb(255,255,255)"/><path d=" M 144.715 108.129 C 144.715 108.129 145.452 105.662 149.115 105.454 C 152.776 105.247 154.02 105.178 154.643 104.625 C 155.264 104.073 155.219 103.803 155.219 103.803 C 155.219 103.803 155.679 104.418 155.472 105.074 C 156.001 104.855 156.807 104.925 156.807 104.925 C 156.807 104.925 156.393 105.777 155.979 105.969 C 156.485 106.153 156.892 106.699 156.892 106.699 C 156.892 106.699 155.885 106.886 155.403 107.423 C 154.919 107.961 154.159 109.825 152.5 109.747 C 150.841 109.669 144.715 108.129 144.715 108.129" fill="rgb(165,48,32)"/><path d=" M 140.945 107.423 C 140.945 108.126 140.377 108.694 139.675 108.694 C 138.973 108.694 138.404 108.126 138.404 107.423 C 138.404 106.722 138.973 106.153 139.675 106.153 C 140.377 106.153 140.945 106.722 140.945 107.423 Z " fill="rgb(238,39,72)"/><path d=" M 155.705 107.782 C 155.705 108.483 155.137 109.053 154.435 109.053 C 153.733 109.053 153.164 108.483 153.164 107.782 C 153.164 107.081 153.733 106.511 154.435 106.511 C 155.137 106.511 155.705 107.081 155.705 107.782 Z " fill="rgb(238,39,72)"/><mask id="_mask_X89GCKqDnx6mCbp3xBN304JztwbEfLua" x="-200%" y="-200%" width="400%" height="400%"><rect x="-200%" y="-200%" width="400%" height="400%" style="fill:white;"/><path d=" M 148.573 107.974 L 136.953 107.974 C 136.953 107.974 140.433 111.457 148.573 111.525 C 156.713 111.457 160.193 107.974 160.193 107.974 L 148.573 107.974 Z " fill="black" stroke="none"/></mask><path d=" M 148.573 107.974 L 136.953 107.974 C 136.953 107.974 140.433 111.457 148.573 111.525 C 156.713 111.457 160.193 107.974 160.193 107.974 L 148.573 107.974 Z " fill="rgb(255,255,255)" mask="url(#_mask_X89GCKqDnx6mCbp3xBN304JztwbEfLua)" vector-effect="non-scaling-stroke" stroke-width="0.267" stroke="rgb(0,0,0)" stroke-linejoin="miter" stroke-linecap="butt" stroke-miterlimit="4"/><path d=" M 148.573 107.974 L 136.953 107.974 C 136.953 107.974 140.433 111.457 148.573 111.525 C 156.713 111.457 160.193 107.974 160.193 107.974 L 148.573 107.974 Z " fill="rgb(255,255,255)"/><path d=" M 67.147 198.453 C 60.301 202.306 53.712 206.597 47.495 211.386 L 47.495 219.154 L 59.871 219.154 L 161.505 219.154 L 161.505 177.734 L 161.505 168.559 C 128.731 173.235 95.943 182.243 67.147 198.453" fill="rgb(166,104,41)"/><path d=" M 47.495 155.81 L 47.495 211.386 C 53.712 206.597 60.301 202.306 67.147 198.453 C 95.943 182.243 128.731 173.235 161.505 168.559 L 161.505 155.81 L 47.495 155.81 Z " fill="rgb(179,112,45)"/><path d=" M 96 152.687 L 44.937 152.687 L 44.937 155.81 L 138 155.81 L 164.063 155.81 L 164.063 152.687 L 96 152.687 Z " fill="rgb(179,112,45)"/><path d=" M 161.505 155.81 L 47.495 155.81 L 47.495 165.994 L 161.505 165.994 L 161.505 155.81 Z " fill="rgb(102,64,26)"/><path d=" M 67.523 107.178 L 67.443 107.099 C 67.355 106.677 67.099 106.305 66.713 106.15 C 66.525 105.889 66.251 105.673 65.868 105.557 C 65.452 105.429 65.019 105.423 64.616 105.519 C 64.265 105.343 63.877 105.322 63.512 105.418 C 63.444 105.207 63.369 105.002 63.072 104.898 C 62.896 104.837 62.72 104.853 62.555 104.907 L 62.373 104.767 C 62.248 104.687 62.067 104.689 61.941 104.767 C 61.651 104.95 61.553 105.005 61.512 105.333 L 61.719 105.491 L 61.908 105.483 C 61.851 105.823 62.092 106.067 62.371 106.07 C 62.419 106.303 62.439 106.561 62.58 106.761 C 62.696 106.923 62.839 107.013 62.989 107.063 C 62.819 107.937 63.731 108.589 64.42 108.121 C 64.543 108.343 64.733 108.523 64.987 108.627 C 65.143 108.821 65.352 108.97 65.621 109.023 C 65.984 109.097 66.307 109.198 66.684 109.203 C 67.788 109.218 68.148 107.931 67.523 107.178" fill="rgb(165,48,32)"/><path d=" M 55.155 106.703 C 55.155 107.405 54.587 107.974 53.884 107.974 C 53.183 107.974 52.613 107.405 52.613 106.703 C 52.613 106.001 53.183 105.433 53.884 105.433 C 54.587 105.433 55.155 106.001 55.155 106.703 Z " fill="rgb(238,39,72)"/><path d=" M 64.739 107.349 C 64.341 107.111 63.907 106.925 63.457 106.806 C 62.884 105.661 61.705 105.026 60.415 104.863 C 59.831 104.295 58.845 104.131 58.083 104.414 C 57.376 104.675 56.357 105.294 56.239 106.115 C 55.537 106.357 54.925 106.731 54.612 107.341 C 53.709 107.523 52.892 107.915 52.621 108.817 C 52.567 108.999 52.821 109.162 52.953 109.01 C 53.239 108.678 53.633 108.47 54.077 108.334 C 53.948 108.425 53.819 108.515 53.701 108.626 C 53.299 109.01 53.815 109.665 54.292 109.391 C 55.453 108.723 57.572 108.401 59.451 108.59 C 60.556 108.862 61.62 109.263 62.648 109.787 C 62.941 109.937 63.247 109.821 63.412 109.607 L 63.589 109.803 C 63.984 110.358 64.688 110.213 64.964 109.785 L 65.012 109.849 C 65.269 110.118 65.755 110.055 65.935 109.73 C 66.449 108.799 65.503 107.803 64.739 107.349" fill="rgb(248,235,87)"/><path d=" M 53.641 107.974 C 53.641 108.675 53.072 109.245 52.371 109.245 C 51.669 109.245 51.1 108.675 51.1 107.974 C 51.1 107.271 51.669 106.703 52.371 106.703 C 53.072 106.703 53.641 107.271 53.641 107.974 Z " fill="rgb(238,39,72)"/><path d=" M 58.537 106.134 C 59.773 105.821 62.419 105.501 62.46 107.123 C 62.185 106.986 61.911 106.858 61.655 106.747 C 60.676 106.329 59.528 106.085 58.537 106.134 Z  M 62.664 107.229 C 62.632 104.717 59.056 105.235 57.657 106.237 C 57.652 106.241 58.452 106.341 58.843 106.51 C 57.909 106.555 57.028 106.845 56.317 107.533 C 55.557 107.763 54.86 108.15 54.316 108.767 C 54.189 108.91 54.379 109.094 54.523 108.974 C 57.067 106.881 59.376 107.835 62.144 108.734 L 62.197 108.607 C 60.896 107.67 59.023 107.141 57.311 107.327 C 58.235 106.929 59.167 106.742 60.115 106.785 L 60.125 106.787 L 60.135 106.785 C 60.417 106.799 60.701 106.833 60.987 106.887 C 62.299 107.261 63.535 107.883 64.273 108.77 L 64.341 108.718 C 64.072 108.171 62.733 107.265 62.664 107.229" fill="rgb(237,192,12)"/><path d=" M 59.087 107.974 C 59.087 108.675 58.517 109.245 57.816 109.245 C 57.113 109.245 56.545 108.675 56.545 107.974 C 56.545 107.271 57.113 106.703 57.816 106.703 C 58.517 106.703 59.087 107.271 59.087 107.974 Z " fill="rgb(238,39,72)"/><mask id="_mask_QfO7VZupts3mI8PRGoMNOrAqBhnXcE3w" x="-200%" y="-200%" width="400%" height="400%"><rect x="-200%" y="-200%" width="400%" height="400%" style="fill:white;"/><path d=" M 59.376 108.342 L 47.756 108.342 C 47.756 108.342 51.236 111.825 59.376 111.893 C 67.517 111.825 70.996 108.342 70.996 108.342 L 59.376 108.342 Z " fill="black" stroke="none"/></mask><path d=" M 59.376 108.342 L 47.756 108.342 C 47.756 108.342 51.236 111.825 59.376 111.893 C 67.517 111.825 70.996 108.342 70.996 108.342 L 59.376 108.342 Z " fill="rgb(255,255,255)" mask="url(#_mask_QfO7VZupts3mI8PRGoMNOrAqBhnXcE3w)" vector-effect="non-scaling-stroke" stroke-width="0.267" stroke="rgb(0,0,0)" stroke-linejoin="miter" stroke-linecap="butt" stroke-miterlimit="4"/><path d=" M 59.376 108.342 L 47.756 108.342 C 47.756 108.342 51.236 111.825 59.376 111.893 C 67.517 111.825 70.996 108.342 70.996 108.342 L 59.376 108.342 Z " fill="rgb(255,255,255)"/><path d=" M 63.132 107.349 C 62.879 107.246 62.628 107.254 62.372 107.269 L 62.399 107.098 C 62.417 106.918 62.175 106.751 62.045 106.929 C 61.873 107.166 61.749 107.689 61.837 107.827 C 62.035 108.138 62.761 107.871 63.084 107.779 C 63.361 107.699 63.403 107.458 63.132 107.349" fill="rgb(81,159,53)"/><path d=" M 55.512 105.677 C 55.765 105.574 56.016 105.582 56.272 105.597 L 56.245 105.426 C 56.227 105.246 56.469 105.079 56.599 105.257 C 56.771 105.494 56.895 106.017 56.807 106.154 C 56.609 106.466 55.883 106.199 55.56 106.106 C 55.283 106.027 55.241 105.786 55.512 105.677 Z " fill="rgb(81,159,53)"/><path d=" M 59.828 104.567 L 59.78 104.691 C 59.679 104.957 60.012 105.142 60.224 105.033 L 60.349 104.969 C 60.884 104.695 60.088 103.89 59.828 104.567" fill="rgb(81,159,53)"/><path d=" M 56.016 107.095 L 56.064 107.219 C 56.165 107.485 55.832 107.669 55.62 107.561 L 55.493 107.497 C 54.959 107.223 55.755 106.418 56.016 107.095" fill="rgb(81,159,53)"/><path d=" M 154.699 152.711 L 141.255 152.711 C 139.245 152.711 137.617 151.082 137.617 149.073 L 137.617 140.315 L 158.337 140.315 L 158.337 149.073 C 158.337 151.082 156.708 152.711 154.699 152.711 Z " fill="rgb(195,206,217)"/><path d=" M 160.055 139.094 L 135.899 139.094 L 135.899 140.419 L 160.055 140.419 L 160.055 139.094 Z " fill="rgb(95,128,158)"/><path d=" M 145.471 139.721 L 145.471 139.181 C 145.471 137.798 146.595 136.674 147.976 136.674 C 149.359 136.674 150.483 137.798 150.483 139.181 L 150.483 139.721 L 151.035 139.721 L 151.035 139.181 C 151.035 137.494 149.663 136.121 147.976 136.121 C 146.291 136.121 144.917 137.494 144.917 139.181 L 144.917 139.721 L 145.471 139.721" fill="rgb(95,128,158)"/><path d=" M 89.46 148.342 C 89.036 147.81 87.997 147.579 87.389 147.473 C 86.871 147.381 84.011 147.643 84.875 146.583 C 85.147 146.249 85.231 145.851 85.02 145.459 C 84.324 144.166 84.317 146.309 82.267 146.423 C 79.679 146.569 77.396 148.563 74.884 149.323 C 74.284 149.43 74.331 149.85 73.791 149.925 C 72.791 150.062 72.84 151.381 73.839 151.338 C 77.157 151.194 87.603 151.026 87.772 151.006 C 88.247 150.954 88.936 150.447 89.345 150.025 C 89.903 149.449 89.936 148.939 89.46 148.342" fill="rgb(81,159,53)"/><path d=" M 86.552 149.098 C 85.541 149.19 84.551 149.142 83.551 149.147 L 83.711 149.07 C 84.192 148.767 84.541 148.491 85.155 148.453 C 85.543 148.429 85.911 148.482 86.408 148.573 C 86.712 148.629 86.656 148.442 86.547 148.398 C 85.948 148.151 85.044 148.034 84.427 148.266 C 84.047 148.409 83.789 148.706 83.444 148.903 C 83.224 149.029 82.981 149.107 82.733 149.167 L 82.709 149.169 C 81.597 149.227 80.511 149.479 79.48 149.875 C 79.543 149.731 79.567 149.567 79.692 149.333 C 80.055 148.658 80.9 148.511 81.572 148.349 C 82.588 148.103 83.317 147.785 83.896 146.883 C 84.052 146.642 83.863 146.555 83.755 146.763 C 83.369 147.502 82.613 147.739 81.796 147.939 C 81.303 148.061 80.796 148.109 80.324 148.307 C 79.516 148.65 79.188 149.197 79.007 150.029 L 79.009 150.065 C 78.477 150.301 77.957 150.565 77.469 150.891 C 77.321 150.99 77.449 151.21 77.609 151.13 C 79.681 150.085 81.528 149.497 83.884 149.563 C 85.436 149.606 87.145 149.115 88.661 149.263 C 89.093 149.305 89.217 149.181 88.907 149.026 C 88.147 148.646 87.392 149.021 86.552 149.098" fill="rgb(134,208,76)"/><path d=" M 94.291 152.669 L 68.62 152.669 L 68.62 150.701 L 94.291 150.701 L 94.291 152.669 Z " fill="rgb(248,235,87)"/><path d=" M 64.647 150.134 C 63.268 145.534 58.249 146.575 54.728 145.01 C 54.559 144.934 53.039 144.534 53.039 145.51 C 53.039 145.545 53.56 146.234 53.891 146.45 L 53.868 146.479 C 54.449 146.843 55.18 147.077 55.976 147.258 C 56.049 147.401 56.181 147.525 56.387 147.595 C 57.724 148.055 59.103 148.227 60.456 148.601 C 61.865 148.989 62.651 149.809 63.744 150.659 C 64.135 150.963 64.817 150.703 64.647 150.134" fill="rgb(134,208,76)"/><path d=" M 61.477 148.439 C 60.361 148.189 57.012 147.281 56.943 147.253 C 56.431 147.045 56.317 146.599 56.224 146.194 C 56.16 145.913 55.749 145.933 55.675 146.194 C 55.603 146.442 55.568 146.653 55.559 146.862 C 55.393 146.778 53.812 145.49 52.903 145.091 C 52.285 144.821 51.376 144.739 50.917 145.327 C 50.447 145.93 50.911 146.601 51.324 147.129 C 49.929 147.301 48.377 148.381 48.881 149.934 C 49.343 151.353 51.788 152.381 52.889 152.669 C 53.18 152.745 57.175 152.699 58.072 152.687 C 59.776 152.663 63.823 153.055 64.865 151.214 C 65.772 149.614 62.676 148.709 61.477 148.439 Z " fill="rgb(81,159,53)"/><path d=" M 62.056 150.134 C 61.561 149.822 59.476 149.635 58.729 149.499 C 57.759 149.323 56.836 148.979 55.853 148.662 C 55.145 148.285 54.496 147.803 53.88 147.213 L 53.812 147.265 C 54.064 147.731 54.381 148.082 54.748 148.365 C 53.961 148.214 53.207 148.251 52.427 148.702 C 52.157 148.859 52.08 149.067 52.431 148.977 C 53.428 148.718 54.408 148.725 55.305 148.895 C 54.779 148.989 54.109 149.295 53.597 149.517 C 53.48 149.569 52.977 149.714 53.315 149.795 C 53.74 149.898 54.636 149.329 55.084 149.289 C 55.656 149.238 55.916 149.041 57.456 149.51 C 58.393 149.835 59.304 150.042 60.289 150.085 C 60.236 150.111 59.064 150.389 58.488 150.53 C 56.316 151.059 53.76 151.885 51.963 150.433 C 51.737 150.251 51.683 150.377 51.819 150.537 C 52.813 151.706 54.227 151.603 55.705 151.481 C 56.892 151.382 58.119 150.93 59.329 150.61 C 57.843 151.443 56.584 152.054 54.824 152.069 L 54.824 152.179 C 55.831 152.307 56.561 152.153 57.512 151.806 C 58.14 151.578 58.797 151.195 59.376 150.927 C 60.295 150.502 61.008 150.501 61.971 150.413 C 62.285 150.383 62.352 150.321 62.056 150.134" fill="rgb(134,208,76)"/><path d=" M 71.619 149.41 C 71.619 150.111 71.049 150.681 70.348 150.681 C 69.645 150.681 69.077 150.111 69.077 149.41 C 69.077 148.709 69.645 148.139 70.348 148.139 C 71.049 148.139 71.619 148.709 71.619 149.41 Z " fill="rgb(238,39,72)"/><path d=" M 74.783 149.41 C 74.783 150.111 74.215 150.681 73.512 150.681 C 72.811 150.681 72.241 150.111 72.241 149.41 C 72.241 148.709 72.811 148.139 73.512 148.139 C 74.215 148.139 74.783 148.709 74.783 149.41 Z " fill="rgb(238,39,72)"/><path d=" M 67.776 151.417 C 67.776 152.118 67.207 152.687 66.505 152.687 C 65.804 152.687 65.235 152.118 65.235 151.417 C 65.235 150.714 65.804 150.146 66.505 150.146 C 67.207 150.146 67.776 150.714 67.776 151.417 Z " fill="rgb(238,39,72)"/><path d=" M 111.472 149.385 C 111.472 149.385 111.288 152.711 117.921 152.711 C 124.555 152.711 127.601 152.711 127.601 152.711 L 127.601 149.286 L 111.472 149.385 Z " fill="rgb(195,206,217)"/><path d=" M 127.601 149.286 L 127.601 152.711 L 128.332 152.669 C 128.332 152.669 128.516 151.063 129.115 150.701 C 129.715 150.339 132.379 151.101 134.091 151.339 C 136.577 151.685 140.263 151.685 141.553 149.286 C 139.341 149.286 131.34 149.263 127.601 149.286 Z " fill="rgb(0,26,51)"/><path d=" M 67.671 113.241 L 60.669 118.841 L 64.188 125.679 C 64.188 125.679 71.239 119.566 67.671 113.241" fill="rgb(195,206,217)"/><path d=" M 139.273 113.241 L 146.273 118.841 L 142.755 125.679 C 142.755 125.679 135.705 119.566 139.273 113.241 Z " fill="rgb(195,206,217)"/><path d=" M 239.009 87.758 C 238.774 85.7 237.074 84.006 235.309 83.118 C 230.639 80.77 223.89 82.004 219.558 84.572 C 218.177 85.391 216.642 86.794 217.073 88.606 C 217.353 89.783 218.709 92.222 226.467 92.166 C 229.695 92.143 232.922 92.424 236.002 91.396 C 237.826 90.788 239.251 89.887 239.009 87.758" fill="rgb(2,52,102)"/><path d=" M 228.387 110.792 C 229.155 110.634 230.726 109.374 230.99 108.652 C 230.609 106.926 230.862 104.136 230.862 104.136 L 225.121 103.247 C 225.121 103.247 224.918 107.071 224.601 108.742 C 224.934 109.855 226.805 111.12 228.387 110.792 Z " fill="rgb(237,122,49)"/><path d=" M 235.178 97.691 C 234.991 96.808 234.095 96.932 233.778 97.006 C 233.354 93.259 231.202 90.471 228.269 90.364 C 225.267 90.255 222.91 92.798 222.285 96.591 C 221.986 96.495 221.082 96.29 220.827 97.168 C 220.522 98.226 220.998 99.846 222.183 100.288 L 222.194 100.291 C 222.27 100.964 222.411 101.611 222.649 102.175 C 223.821 104.959 226.042 107.104 227.657 107.163 C 229.31 107.224 231.499 105.348 232.847 102.546 C 233.113 101.995 233.358 101.368 233.541 100.716 L 233.599 100.704 C 234.814 100.348 235.406 98.767 235.178 97.691" fill="rgb(249,170,109)"/><path d=" M 229.306 92.84 C 228.062 94.707 223.962 97.41 221.094 96.683 C 220.75 94.028 222.403 91.367 223.331 90.318 C 225.938 87.374 230.742 87.791 232.203 89.388 C 235.362 92.84 235.281 95.338 234.362 97.031 C 232.867 97.71 230.034 94.631 229.306 92.84" fill="rgb(54,53,54)"/><path d=" M 247.071 130.027 C 245.454 121.972 243.673 114.043 241.297 112.579 C 238.921 111.112 230.885 108.495 230.885 108.495 L 227.795 110.792 L 224.705 108.495 C 224.705 108.495 216.67 111.112 214.294 112.579 C 211.918 114.043 210.135 121.972 208.518 130.027 C 208.155 131.834 207.725 133.852 207.278 135.883 C 211.191 135.883 214.267 137.536 214.267 137.536 L 217.281 123.938 L 219.287 137.536 L 227.69 137.536 L 227.899 137.536 L 236.303 137.536 L 238.31 123.938 L 241.323 137.536 C 241.323 137.536 244.399 135.883 248.311 135.883 C 247.866 133.852 247.435 131.834 247.071 130.027 Z " fill="rgb(0,38,77)"/><path d=" M 236.093 85.062 C 236.093 85.062 234.043 84.81 232.65 85.834 C 231.257 86.859 230.677 88.655 230.677 88.655 C 230.677 88.655 234.573 85.546 236.093 85.062" fill="rgb(0,26,51)"/><path d=" M 224.459 83.279 C 224.459 83.279 226.098 85.876 226.246 87.066 C 226.394 88.254 227.166 86.586 226.739 85.37 C 226.035 83.366 224.459 83.279 224.459 83.279" fill="rgb(0,26,51)"/><path d=" M 220.035 85.431 C 220.035 85.431 221.611 86.838 222.159 87.528 C 222.707 88.22 223.47 88.655 223.47 88.655 C 223.47 88.655 223.845 86.762 222.682 85.978 C 221.519 85.194 220.035 85.431 220.035 85.431 Z " fill="rgb(0,26,51)"/><path d=" M 205.741 133.764 L 207.065 137.536 C 207.065 137.536 210.27 137.174 212.721 139.315 C 214.066 138.528 216.062 136.659 216.062 136.659 C 216.062 136.659 214.711 133.898 211.31 133.051 C 207.909 132.204 205.741 133.764 205.741 133.764 Z " fill="rgb(195,206,217)"/><path d=" M 249.74 133.764 L 248.418 137.536 C 248.418 137.536 245.212 137.174 242.762 139.315 C 241.415 138.528 239.42 136.659 239.42 136.659 C 239.42 136.659 240.771 133.898 244.172 133.051 C 247.574 132.204 249.74 133.764 249.74 133.764 Z " fill="rgb(195,206,217)"/><path d=" M 221.939 152.146 L 234.134 152.146 L 234.134 111.202 L 221.939 111.202 L 221.939 152.146 Z " fill="rgb(0,26,51)"/><path d=" M 220.738 152.394 L 233.081 152.394 L 233.081 112.284 L 220.738 112.284 L 220.738 152.394 Z " fill="rgb(0,38,77)"/><path d=" M 217.337 210.8 C 217.337 210.8 210.586 214.079 208.718 215.271 C 206.85 216.462 207.566 217.611 207.566 217.611 L 221.215 217.611 C 221.215 217.611 221.409 212.296 221.025 211.147 C 220.641 209.998 217.337 210.8 217.337 210.8" fill="rgb(166,104,41)"/><path d=" M 216.127 171.091 C 216.127 171.091 215.857 183.512 215.326 188.594 C 214.473 196.758 213.314 212.078 213.314 212.078 L 221.939 212.078 C 221.939 212.078 223.65 192.615 224.601 184.858 C 225.267 179.418 226.599 171.091 226.599 171.091 L 216.127 171.091 Z " fill="rgb(54,53,54)"/><path d=" M 221.215 217.091 L 207.431 217.091 L 207.431 218.131 L 221.215 218.131 L 221.215 217.091 Z " fill="rgb(88,89,91)"/><path d=" M 238.973 210.8 C 238.973 210.8 245.725 214.079 247.593 215.271 C 249.459 216.462 248.745 217.611 248.745 217.611 L 235.095 217.611 C 235.095 217.611 234.902 212.296 235.285 211.147 C 235.669 209.998 238.973 210.8 238.973 210.8" fill="rgb(166,104,41)"/><path d=" M 240.183 171.091 C 240.183 171.091 240.454 183.512 240.985 188.594 C 241.838 196.758 242.995 212.078 242.995 212.078 L 234.371 212.078 C 234.371 212.078 232.661 192.615 231.71 184.858 C 231.043 179.418 229.711 171.091 229.711 171.091 L 240.183 171.091" fill="rgb(54,53,54)"/><path d=" M 235.095 217.091 L 248.879 217.091 L 248.879 218.131 L 235.095 218.131 L 235.095 217.091 Z " fill="rgb(88,89,91)"/><path d=" M 241.473 158.32 C 240.879 148.003 236.49 137.536 236.49 137.536 L 227.69 137.536 L 226.475 137.536 L 219.287 137.536 C 219.287 137.536 214.898 148.003 214.305 158.32 C 213.71 168.636 212.721 179.724 212.721 179.724 L 226.185 179.724 L 227.982 179.724 L 243.057 179.724 C 243.057 179.724 242.066 168.636 241.473 158.32" fill="rgb(92,102,10)"/><path d=" M 236.69 138.031 L 219.107 138.031 L 219.107 136.315 L 236.69 136.315 L 236.69 138.031 Z " fill="rgb(72,81,6)"/><path d=" M 223.527 108.887 L 223.527 106.486 C 223.527 106.486 227.921 107.596 227.795 110.792 C 225.662 110.028 223.527 108.887 223.527 108.887" fill="rgb(195,206,217)"/><path d=" M 232.066 108.887 L 232.066 106.486 C 232.066 106.486 227.673 107.596 227.798 110.792 C 229.93 110.028 232.066 108.887 232.066 108.887 Z " fill="rgb(195,206,217)"/><path d=" M 225.217 114.134 C 225.217 114.528 224.897 114.848 224.502 114.848 C 224.107 114.848 223.787 114.528 223.787 114.134 C 223.787 113.739 224.107 113.419 224.502 113.419 C 224.897 113.419 225.217 113.739 225.217 114.134 Z " fill="rgb(0,26,51)"/><path d=" M 231.821 114.134 C 231.821 114.528 231.501 114.848 231.106 114.848 C 230.711 114.848 230.391 114.528 230.391 114.134 C 230.391 113.739 230.711 113.419 231.106 113.419 C 231.501 113.419 231.821 113.739 231.821 114.134 Z " fill="rgb(0,26,51)"/><path d=" M 224.363 123.015 C 224.363 123.41 224.045 123.73 223.65 123.73 C 223.255 123.73 222.935 123.41 222.935 123.015 C 222.935 122.62 223.255 122.3 223.65 122.3 C 224.045 122.3 224.363 122.62 224.363 123.015 Z " fill="rgb(238,39,72)"/><path d=" M 231.821 123.015 C 231.821 123.41 231.501 123.73 231.106 123.73 C 230.711 123.73 230.391 123.41 230.391 123.015 C 230.391 122.62 230.711 122.3 231.106 122.3 C 231.501 122.3 231.821 122.62 231.821 123.015 Z " fill="rgb(238,39,72)"/><path d=" M 224.363 133.051 C 224.363 133.446 224.045 133.764 223.65 133.764 C 223.255 133.764 222.935 133.446 222.935 133.051 C 222.935 132.656 223.255 132.336 223.65 132.336 C 224.045 132.336 224.363 132.656 224.363 133.051 Z " fill="rgb(238,39,72)"/><path d=" M 231.821 133.051 C 231.821 133.446 231.501 133.764 231.106 133.764 C 230.711 133.764 230.391 133.446 230.391 133.051 C 230.391 132.656 230.711 132.336 231.106 132.336 C 231.501 132.336 231.821 132.656 231.821 133.051 Z " fill="rgb(238,39,72)"/><path d=" M 234.917 87.487 C 234.917 87.487 233.183 85.691 228.037 85.691 C 223.234 85.691 221.118 87.487 221.118 87.487 L 221.118 95.034 L 234.917 95.034 L 234.917 87.487 Z " fill="rgb(0,38,77)"/><path d=" M 223.13 117.422 L 221.635 117.422 L 221.635 109.542 L 223.13 109.023 L 223.13 117.422 Z " fill="rgb(72,81,6)"/><path d=" M 232.639 117.422 L 234.134 117.422 L 234.134 109.542 L 232.639 109.023 L 232.639 117.422 Z " fill="rgb(72,81,6)"/><path d=" M 219.107 136.315 L 221.598 117.291 L 234.134 117.291 L 236.69 136.315 L 219.107 136.315" fill="rgb(92,102,10)"/><path d=" M 220.933 147.51 L 220.933 151.768 C 220.933 155.543 224.021 158.631 227.795 158.631 C 231.57 158.631 234.658 155.543 234.658 151.768 L 234.658 147.51 L 220.933 147.51" fill="rgb(72,81,6)"/><path d=" M 207.065 137.536 C 207.065 137.536 202.597 141.867 201.283 143.387 C 199.971 144.907 200.039 147.118 201.283 148.431 C 202.527 149.743 203.841 151.402 205.083 151.334 C 206.327 151.264 208.193 150.09 208.607 149.743 C 209.022 149.398 206.811 144.768 206.811 144.768 L 212.721 139.315 C 212.721 139.315 210.842 136.592 207.065 137.536 Z " fill="rgb(249,170,109)"/><path d=" M 204.946 144.336 C 204.946 144.336 206.673 144.562 208.401 144.631 C 210.129 144.7 211.303 144.631 211.303 144.631 C 211.303 144.631 211.065 146.354 209.299 146.354 C 207.534 146.354 203.237 146.354 203.237 146.354 L 204.946 144.336 Z " fill="rgb(249,170,109)"/><path d=" M 248.322 137.536 C 248.322 137.536 252.791 141.867 254.103 143.387 C 255.417 144.907 255.347 147.118 254.103 148.431 C 252.861 149.743 251.547 151.402 250.303 151.334 C 249.059 151.264 247.194 150.09 246.779 149.743 C 246.365 149.398 248.575 144.768 248.575 144.768 L 242.667 139.315 C 242.667 139.315 244.545 136.592 248.322 137.536 Z " fill="rgb(249,170,109)"/><path d=" M 250.442 144.336 C 250.442 144.336 248.714 144.562 246.987 144.631 C 245.259 144.7 244.085 144.631 244.085 144.631 C 244.085 144.631 244.323 146.354 246.089 146.354 C 247.854 146.354 252.151 146.354 252.151 146.354 L 250.442 144.336 Z " fill="rgb(249,170,109)"/><path d=" M 229.199 146.354 L 203.237 146.354 C 203.237 147.626 204.269 148.658 205.541 148.658 L 227.257 148.658 L 229.199 148.658 L 249.847 148.658 C 251.119 148.658 252.151 147.626 252.151 146.354 L 229.199 146.354" fill="rgb(0,26,51)"/><path d=" M 229.235 133.988 C 228.553 135.346 226.89 135.45 225.709 136.231 C 224.971 136.719 224.298 137.404 223.999 138.251 C 223.603 139.379 224.137 140.935 225.291 141.284 C 226.557 142.786 229.954 141.751 231.029 140.464 C 233.107 137.979 230.434 135.372 229.235 133.988" fill="rgb(207,229,11)"/><path d=" M 225.273 137.503 C 224.527 138.479 224.777 139.727 225.415 140.688 C 225.597 140.962 226.057 140.798 225.961 140.459 C 225.677 139.458 225.237 138.68 225.91 137.668 C 226.266 137.134 227.031 136.848 227.558 136.503 C 228.314 136.007 228.965 135.474 229.185 134.583 C 228.207 136.179 226.261 136.211 225.273 137.503" fill="rgb(178,195,24)"/><path d=" M 229.459 135.162 C 229.514 137.167 227.586 137.288 226.907 138.779 C 226.563 139.535 226.693 140.948 227.681 141.083 C 227.851 141.106 228.006 140.987 227.962 140.802 C 227.769 139.982 227.185 139.49 227.833 138.643 C 228.19 138.178 228.735 137.898 229.122 137.459 C 229.746 136.754 229.827 135.81 229.459 135.162" fill="rgb(178,195,24)"/><path d=" M 230.207 136.018 C 230.541 136.799 230.569 137.246 230.382 137.859 C 230.183 138.51 229.609 138.923 229.222 139.45 C 228.783 140.044 228.427 140.884 228.918 141.532 C 229.166 141.862 229.629 141.743 229.674 141.328 C 229.761 140.539 229.945 139.988 230.362 139.3 C 230.621 138.874 230.867 138.48 230.942 137.974 C 231.053 137.232 230.887 136.41 230.207 136.018" fill="rgb(178,195,24)"/><path d=" M 227.926 139.863 L 223.794 139.863 L 225.353 146.354 L 230.041 146.354 L 231.598 139.863 L 227.926 139.863 Z " fill="rgb(153,96,0)"/><path d=" M 225.887 144.907 L 224.61 139.863 L 225.681 139.863 L 225.887 144.907" fill="rgb(130,86,10)"/><path d=" M 229.551 144.907 L 229.758 139.863 L 230.829 139.863 L 229.551 144.907" fill="rgb(130,86,10)"/><path d=" M 227.686 144.907 L 227.055 139.863 L 228.271 139.863 L 227.686 144.907 Z " fill="rgb(130,86,10)"/><path d=" M 219.378 133.988 C 218.695 135.346 217.033 135.45 215.853 136.231 C 215.115 136.719 214.441 137.404 214.143 138.251 C 213.747 139.379 214.279 140.935 215.434 141.284 C 216.701 142.786 220.097 141.751 221.173 140.464 C 223.25 137.979 220.577 135.372 219.378 133.988 Z " fill="rgb(207,229,11)"/><path d=" M 215.415 137.503 C 214.67 138.479 214.919 139.727 215.559 140.688 C 215.739 140.962 216.199 140.798 216.103 140.459 C 215.819 139.458 215.379 138.68 216.053 137.668 C 216.409 137.134 217.175 136.848 217.701 136.503 C 218.457 136.007 219.107 135.474 219.327 134.583 C 218.35 136.179 216.403 136.211 215.415 137.503" fill="rgb(178,195,24)"/><path d=" M 219.603 135.162 C 219.658 137.167 217.729 137.288 217.051 138.779 C 216.706 139.535 216.835 140.948 217.823 141.083 C 217.994 141.106 218.149 140.987 218.105 140.802 C 217.911 139.982 217.327 139.49 217.975 138.643 C 218.333 138.178 218.878 137.898 219.265 137.459 C 219.889 136.754 219.97 135.81 219.603 135.162" fill="rgb(178,195,24)"/><path d=" M 220.351 136.018 C 220.683 136.799 220.711 137.246 220.525 137.859 C 220.326 138.51 219.753 138.923 219.366 139.45 C 218.927 140.044 218.571 140.884 219.061 141.532 C 219.31 141.862 219.771 141.743 219.817 141.328 C 219.905 140.539 220.089 139.988 220.505 139.3 C 220.763 138.874 221.011 138.48 221.086 137.974 C 221.195 137.232 221.03 136.41 220.351 136.018" fill="rgb(178,195,24)"/><path d=" M 218.069 139.863 L 213.938 139.863 L 215.495 146.354 L 220.183 146.354 L 221.742 139.863 L 218.069 139.863" fill="rgb(153,96,0)"/><path d=" M 216.031 144.907 L 214.753 139.863 L 215.823 139.863 L 216.031 144.907 Z " fill="rgb(130,86,10)"/><path d=" M 219.694 144.907 L 219.902 139.863 L 220.973 139.863 L 219.694 144.907 Z " fill="rgb(130,86,10)"/><path d=" M 217.83 144.907 L 217.198 139.863 L 218.415 139.863 L 217.83 144.907 Z " fill="rgb(130,86,10)"/><path d=" M 238.827 133.988 C 238.145 135.346 236.482 135.45 235.302 136.231 C 234.565 136.719 233.89 137.404 233.593 138.251 C 233.197 139.379 233.729 140.935 234.883 141.284 C 236.15 142.786 239.546 141.751 240.622 140.464 C 242.699 137.979 240.026 135.372 238.827 133.988" fill="rgb(207,229,11)"/><path d=" M 234.866 137.503 C 234.121 138.479 234.369 139.727 235.009 140.688 C 235.189 140.962 235.649 140.798 235.553 140.459 C 235.269 139.458 234.829 138.68 235.502 137.668 C 235.858 137.134 236.625 136.848 237.15 136.503 C 237.906 136.007 238.557 135.474 238.777 134.583 C 237.799 136.179 235.853 136.211 234.866 137.503" fill="rgb(178,195,24)"/><path d=" M 239.053 135.162 C 239.107 137.167 237.178 137.288 236.501 138.779 C 236.155 139.535 236.285 140.948 237.273 141.083 C 237.445 141.106 237.598 140.987 237.554 140.802 C 237.361 139.982 236.777 139.49 237.426 138.643 C 237.782 138.178 238.327 137.898 238.714 137.459 C 239.338 136.754 239.421 135.81 239.053 135.162 Z " fill="rgb(178,195,24)"/><path d=" M 239.801 136.018 C 240.133 136.799 240.161 137.246 239.974 137.859 C 239.775 138.51 239.202 138.923 238.815 139.45 C 238.377 140.044 238.021 140.884 238.51 141.532 C 238.759 141.862 239.221 141.743 239.267 141.328 C 239.354 140.539 239.538 139.988 239.954 139.3 C 240.213 138.874 240.461 138.48 240.535 137.974 C 240.645 137.232 240.479 136.41 239.801 136.018" fill="rgb(178,195,24)"/><path d=" M 237.518 139.863 L 233.387 139.863 L 234.945 146.354 L 239.633 146.354 L 241.191 139.863 L 237.518 139.863" fill="rgb(153,96,0)"/><path d=" M 235.481 144.907 L 234.202 139.863 L 235.273 139.863 L 235.481 144.907 Z " fill="rgb(130,86,10)"/><path d=" M 239.143 144.907 L 239.351 139.863 L 240.422 139.863 L 239.143 144.907 Z " fill="rgb(130,86,10)"/><path d=" M 237.279 144.907 L 236.647 139.863 L 237.865 139.863 L 237.279 144.907" fill="rgb(130,86,10)"/></g></svg>