<?xml version="1.0" encoding="UTF-8" standalone="no"?><!-- Generator: Gravit.io --><svg xmlns="http://www.w3.org/2000/svg" xmlns:xlink="http://www.w3.org/1999/xlink" style="isolation:isolate" viewBox="0 0 300 300" width="300pt" height="300pt"><defs><clipPath id="_clipPath_uJUIpbNiZryqvcBMUb3goV0mINhqfn2B"><rect width="300" height="300"/></clipPath></defs><g clip-path="url(#_clipPath_uJUIpbNiZryqvcBMUb3goV0mINhqfn2B)"><g><line x1="236.969" y1="98.62" x2="236.969" y2="96.563"/><path d=" M 192.739 121.624 L 132.024 121.624 L 132.024 119.417 L 192.739 119.417 L 192.739 121.624 Z " fill="rgb(88,89,91)"/><path d=" M 167.656 88.97 L 166.42 88.97 C 166.263 88.97 166.136 89.095 166.136 89.252 L 166.136 91.8 C 166.136 91.955 166.263 92.082 166.42 92.082 L 167.038 92.082 L 167.656 92.082 C 167.813 92.082 167.941 91.955 167.941 91.8 L 167.941 89.252 C 167.941 89.095 167.813 88.97 167.656 88.97" fill="rgb(245,126,20)"/><path d=" M 168.062 98.065 L 168.062 90.856 L 166.019 90.856 L 166.019 98.064 C 164.498 98.504 163.385 99.905 163.385 101.568 L 163.396 101.766 L 163.396 102.584 L 163.396 118.449 L 163.396 118.936 C 163.396 119.083 163.514 119.202 163.661 119.202 L 167.038 119.202 L 170.411 119.202 C 170.558 119.202 170.677 119.083 170.677 118.936 L 170.677 118.449 L 170.677 114.781 L 167.038 114.781 L 167.038 103.95 L 170.677 103.95 L 170.677 101.766 L 170.688 101.568 C 170.688 99.908 169.578 98.509 168.062 98.065" fill="rgb(10,8,77)"/><path d=" M 167.038 103.95 L 163.385 103.95 L 163.385 114.781 L 170.688 114.781 L 170.688 103.95 L 167.038 103.95" fill="rgb(29,128,6)"/><path d=" M 168.25 90.712 L 168.25 90.693 C 168.25 90.498 168.09 90.338 167.895 90.338 L 167.038 90.338 L 166.182 90.338 C 165.985 90.338 165.826 90.498 165.826 90.693 L 165.826 90.712 L 165.73 90.856 L 165.826 90.999 L 165.886 91.011 L 165.886 91.011 L 165.826 90.999 L 165.826 91.019 C 165.826 91.214 165.985 91.372 166.182 91.372 L 167.038 91.372 L 167.895 91.372 C 168.09 91.372 168.25 91.214 168.25 91.019 L 168.25 90.999 L 168.346 90.856 L 168.25 90.712 Z " fill="rgb(238,39,72)"/><path d=" M 169.673 109.049 C 169.673 106.925 168.51 105.205 167.038 105.048 L 167.038 105.017 L 166.932 105.033 L 166.825 105.017 L 166.825 105.048 C 165.353 105.205 164.19 106.925 164.19 109.049 C 164.19 111.174 165.353 112.894 166.825 113.051 L 166.825 113.082 L 166.932 113.067 L 167.038 113.082 L 167.038 113.051 C 168.51 112.894 169.673 111.174 169.673 109.049 Z " fill="rgb(255,255,255)"/><path d=" M 157.848 88.97 L 156.61 88.97 C 156.455 88.97 156.327 89.095 156.327 89.252 L 156.327 91.8 C 156.327 91.955 156.455 92.082 156.61 92.082 L 157.23 92.082 L 157.848 92.082 C 158.005 92.082 158.131 91.955 158.131 91.8 L 158.131 89.252 C 158.131 89.095 158.005 88.97 157.848 88.97" fill="rgb(245,126,20)"/><path d=" M 158.253 98.065 L 158.253 90.856 L 156.209 90.856 L 156.209 98.064 C 154.69 98.504 153.577 99.905 153.577 101.568 L 153.586 101.766 L 153.586 102.584 L 153.586 118.449 L 153.586 118.936 C 153.586 119.083 153.706 119.202 153.852 119.202 L 157.23 119.202 L 160.603 119.202 C 160.749 119.202 160.869 119.083 160.869 118.936 L 160.869 118.449 L 160.869 114.781 L 157.23 114.781 L 157.23 103.95 L 160.869 103.95 L 160.869 101.766 L 160.878 101.568 C 160.878 99.908 159.77 98.509 158.253 98.065" fill="rgb(248,235,87)"/><path d=" M 157.23 103.95 L 153.577 103.95 L 153.577 114.781 L 160.878 114.781 L 160.878 103.95 L 157.23 103.95" fill="rgb(245,126,20)"/><path d=" M 158.441 90.712 L 158.441 90.693 C 158.441 90.498 158.282 90.338 158.086 90.338 L 157.23 90.338 L 156.373 90.338 C 156.176 90.338 156.018 90.498 156.018 90.693 L 156.018 90.712 L 155.922 90.856 L 156.018 90.999 L 156.077 91.011 L 157.23 91.011 L 157.23 91.011 L 156.077 91.011 L 156.018 90.999 L 156.018 91.019 C 156.018 91.214 156.176 91.372 156.373 91.372 L 157.23 91.372 L 158.086 91.372 C 158.282 91.372 158.441 91.214 158.441 91.019 L 158.441 90.999 L 158.538 90.856 L 158.441 90.712 Z " fill="rgb(248,235,87)"/><path d=" M 159.865 109.049 C 159.865 106.925 158.702 105.205 157.23 105.048 L 157.23 105.017 L 157.123 105.033 L 157.017 105.017 L 157.017 105.048 C 155.545 105.205 154.382 106.925 154.382 109.049 C 154.382 111.174 155.545 112.894 157.017 113.051 L 157.017 113.082 L 157.123 113.067 L 157.23 113.082 L 157.23 113.051 C 158.702 112.894 159.865 111.174 159.865 109.049 Z " fill="rgb(255,255,255)"/><mask id="_mask_5no2Wl8sMdmjZkaOhqKOmu4WnCoj67Jo" x="-200%" y="-200%" width="400%" height="400%"><rect x="-200%" y="-200%" width="400%" height="400%" style="fill:white;"/><path d=" M 183.391 114.957 L 173.978 114.957 L 173.978 118.825 C 173.978 119.155 174.246 119.424 174.577 119.424 L 179.268 119.424 L 183.961 119.424 C 184.292 119.424 184.56 119.155 184.56 118.825 L 184.56 114.957 L 183.391 114.957" fill="black" stroke="none"/></mask><path d=" M 183.391 114.957 L 173.978 114.957 L 173.978 118.825 C 173.978 119.155 174.246 119.424 174.577 119.424 L 179.268 119.424 L 183.961 119.424 C 184.292 119.424 184.56 119.155 184.56 118.825 L 184.56 114.957 L 183.391 114.957" fill="rgb(255,255,255)" mask="url(#_mask_5no2Wl8sMdmjZkaOhqKOmu4WnCoj67Jo)" vector-effect="non-scaling-stroke" stroke-width="0.267" stroke="rgb(0,0,0)" stroke-linejoin="miter" stroke-linecap="butt" stroke-miterlimit="4"/><path d=" M 183.391 114.957 L 173.978 114.957 L 173.978 118.825 C 173.978 119.155 174.246 119.424 174.577 119.424 L 179.268 119.424 L 183.961 119.424 C 184.292 119.424 184.56 119.155 184.56 118.825 L 184.56 114.957 L 183.391 114.957" fill="rgb(255,255,255)"/><path d=" M 183.826 114.192 L 174.712 114.192 L 174.712 108.498 L 183.826 108.498 L 183.826 114.192 Z  M 183.391 107.767 L 173.978 107.767 L 173.978 114.957 L 184.56 114.957 L 184.56 107.767 L 183.391 107.767" fill="rgb(245,126,20)"/><path d=" M 179.268 113.235 C 177.585 113.235 176.219 112.388 176.219 111.344 C 176.219 110.301 177.585 109.455 179.268 109.455 C 180.953 109.455 182.319 110.301 182.319 111.344 C 182.319 112.388 180.953 113.235 179.268 113.235 Z  M 183.391 108.498 L 174.712 108.498 L 174.712 114.192 L 183.826 114.192 L 183.826 108.498 L 183.391 108.498" fill="rgb(238,39,72)"/><path d=" M 179.268 109.455 C 177.585 109.455 176.219 110.301 176.219 111.344 C 176.219 112.388 177.585 113.235 179.268 113.235 C 180.953 113.235 182.319 112.388 182.319 111.344 C 182.319 110.301 180.953 109.455 179.268 109.455 Z " fill="rgb(255,255,255)"/><mask id="_mask_gbzcI2Ail3ez5Uzbr3cspahWUDPqIFMy" x="-200%" y="-200%" width="400%" height="400%"><rect x="-200%" y="-200%" width="400%" height="400%" style="fill:white;"/><path d=" M 183.961 104.997 C 182.989 104.682 181.077 104.271 181.064 103.45 C 181.049 102.55 181.064 100.404 181.064 100.404 L 179.268 100.404 L 177.474 100.404 C 177.474 100.404 177.48 102.626 177.474 103.45 C 177.468 104.271 175.647 104.65 174.577 104.997 C 174.262 105.099 173.978 105.265 173.978 105.597 L 173.978 107.767 L 175.147 107.767 L 179.268 107.767 L 183.391 107.767 L 184.56 107.767 L 184.56 105.597 C 184.56 105.265 184.276 105.098 183.961 104.997 Z " fill="black" stroke="none"/></mask><path d=" M 183.961 104.997 C 182.989 104.682 181.077 104.271 181.064 103.45 C 181.049 102.55 181.064 100.404 181.064 100.404 L 179.268 100.404 L 177.474 100.404 C 177.474 100.404 177.48 102.626 177.474 103.45 C 177.468 104.271 175.647 104.65 174.577 104.997 C 174.262 105.099 173.978 105.265 173.978 105.597 L 173.978 107.767 L 175.147 107.767 L 179.268 107.767 L 183.391 107.767 L 184.56 107.767 L 184.56 105.597 C 184.56 105.265 184.276 105.098 183.961 104.997 Z " fill="rgb(255,255,255)" mask="url(#_mask_gbzcI2Ail3ez5Uzbr3cspahWUDPqIFMy)" vector-effect="non-scaling-stroke" stroke-width="0.267" stroke="rgb(0,0,0)" stroke-linejoin="miter" stroke-linecap="butt" stroke-miterlimit="4"/><path d=" M 183.961 104.997 C 182.989 104.682 181.077 104.271 181.064 103.45 C 181.049 102.55 181.064 100.404 181.064 100.404 L 179.268 100.404 L 177.474 100.404 C 177.474 100.404 177.48 102.626 177.474 103.45 C 177.468 104.271 175.647 104.65 174.577 104.997 C 174.262 105.099 173.978 105.265 173.978 105.597 L 173.978 107.767 L 175.147 107.767 L 179.268 107.767 L 183.391 107.767 L 184.56 107.767 L 184.56 105.597 C 184.56 105.265 184.276 105.098 183.961 104.997 Z " fill="rgb(255,255,255)"/><path d=" M 181.319 99.867 L 177.219 99.867 C 177.079 99.867 176.965 99.982 176.965 100.123 L 176.965 101.439 C 176.965 101.58 177.079 101.694 177.219 101.694 L 179.268 101.694 L 181.319 101.694 C 181.459 101.694 181.573 101.58 181.573 101.439 L 181.573 100.123 C 181.573 99.982 181.459 99.867 181.319 99.867" fill="rgb(238,39,72)"/><path d=" M 149.16 114.957 L 139.745 114.957 L 139.745 118.825 C 139.745 119.155 140.013 119.424 140.344 119.424 L 145.037 119.424 L 149.729 119.424 C 150.059 119.424 150.328 119.155 150.328 118.825 L 150.328 114.957 L 149.16 114.957 Z " fill="rgb(218,217,215)"/><path d=" M 149.593 114.192 L 140.48 114.192 L 140.48 108.498 L 149.593 108.498 L 149.593 114.192 Z  M 149.16 107.767 L 139.745 107.767 L 139.745 114.957 L 150.328 114.957 L 150.328 107.767 L 149.16 107.767 Z " fill="rgb(81,159,53)"/><path d=" M 145.037 113.235 C 143.352 113.235 141.986 112.388 141.986 111.344 C 141.986 110.301 143.352 109.455 145.037 109.455 C 146.72 109.455 148.087 110.301 148.087 111.344 C 148.087 112.388 146.72 113.235 145.037 113.235 Z  M 149.16 108.498 L 140.48 108.498 L 140.48 114.192 L 149.593 114.192 L 149.593 108.498 L 149.16 108.498" fill="rgb(134,208,76)"/><path d=" M 145.037 109.455 C 143.352 109.455 141.986 110.301 141.986 111.344 C 141.986 112.388 143.352 113.235 145.037 113.235 C 146.72 113.235 148.087 112.388 148.087 111.344 C 148.087 110.301 146.72 109.455 145.037 109.455 Z " fill="rgb(255,255,255)"/><path d=" M 149.729 104.997 C 148.756 104.682 146.844 104.271 146.831 103.45 C 146.816 102.55 146.831 100.404 146.831 100.404 L 145.037 100.404 L 143.241 100.404 C 143.241 100.404 143.248 102.626 143.241 103.45 C 143.235 104.271 141.414 104.65 140.344 104.997 C 140.029 105.099 139.745 105.265 139.745 105.597 L 139.745 107.767 L 140.914 107.767 L 145.037 107.767 L 149.16 107.767 L 150.328 107.767 L 150.328 105.597 C 150.328 105.265 150.044 105.098 149.729 104.997 Z " fill="rgb(218,217,215)"/><path d=" M 147.086 99.867 L 142.988 99.867 C 142.846 99.867 142.732 99.982 142.732 100.123 L 142.732 101.439 C 142.732 101.58 142.846 101.694 142.988 101.694 L 145.037 101.694 L 147.086 101.694 C 147.226 101.694 147.34 101.58 147.34 101.439 L 147.34 100.123 C 147.34 99.982 147.226 99.867 147.086 99.867" fill="rgb(81,159,53)"/><path d=" M 212.639 119.16 C 217.922 119.846 219.141 114.292 222.322 111.434 C 222.474 111.297 223.567 109.937 222.58 109.496 C 222.545 109.48 221.61 109.696 221.242 109.933 L 221.222 109.897 C 220.591 110.322 220.023 110.956 219.48 111.68 C 219.301 111.689 219.114 111.767 218.95 111.943 C 217.879 113.088 217.082 114.406 216.089 115.609 C 215.058 116.861 213.871 117.285 212.515 118.007 C 212.029 118.266 211.985 119.075 212.639 119.16" fill="rgb(134,208,76)"/><path d=" M 215.79 116.717 C 216.549 115.699 218.987 112.718 219.046 112.661 C 219.489 112.236 219.992 112.323 220.444 112.412 C 220.758 112.474 220.924 112.05 220.693 111.856 C 220.474 111.671 220.276 111.541 220.07 111.436 C 220.228 111.307 222.249 110.289 223.066 109.548 C 223.619 109.045 224.113 108.162 223.726 107.431 C 223.328 106.681 222.438 106.847 221.717 107.026 C 222.174 105.536 221.783 103.474 219.981 103.281 C 218.336 103.105 216.187 105.117 215.397 106.103 C 215.188 106.363 213.425 110.43 213.031 111.343 C 212.282 113.081 210.053 117.003 211.445 118.892 C 212.655 120.535 214.975 117.809 215.79 116.717" fill="rgb(81,159,53)"/><path d=" M 213.812 116.535 C 214.352 116.176 215.485 114.147 215.96 113.454 C 216.579 112.55 217.345 111.77 218.113 110.919 C 218.815 110.374 219.597 109.934 220.474 109.578 L 220.452 109.484 C 219.866 109.529 219.366 109.692 218.915 109.934 C 219.423 109.205 219.727 108.424 219.623 107.431 C 219.586 107.086 219.41 106.913 219.344 107.31 C 219.154 108.438 218.703 109.427 218.125 110.258 C 218.268 109.684 218.259 108.866 218.268 108.246 C 218.27 108.104 218.349 107.529 218.113 107.835 C 217.817 108.22 217.988 109.385 217.826 109.856 C 217.619 110.458 217.7 110.811 216.527 112.159 C 215.772 112.959 215.151 113.789 214.661 114.767 C 214.66 114.702 214.908 113.388 215.027 112.742 C 215.475 110.303 215.796 107.339 218.08 106.176 C 218.367 106.03 218.265 105.919 218.04 105.984 C 216.406 106.461 215.868 107.94 215.324 109.492 C 214.886 110.74 214.789 112.187 214.565 113.559 C 214.394 111.674 214.345 110.124 215.127 108.333 L 215.015 108.285 C 214.431 109.246 214.256 110.055 214.176 111.175 C 214.123 111.915 214.213 112.754 214.222 113.461 C 214.237 114.584 213.914 115.307 213.568 116.322 C 213.456 116.655 213.488 116.751 213.812 116.535" fill="rgb(134,208,76)"/><path d=" M 215.592 115.803 C 215.676 110.476 210.02 109.893 206.821 107.055 C 206.667 106.919 205.193 105.986 204.866 107.017 C 204.854 107.054 205.175 107.958 205.452 108.298 L 205.418 108.322 C 205.911 108.902 206.606 109.393 207.386 109.851 C 207.417 110.027 207.514 110.203 207.708 110.347 C 208.967 111.282 210.367 111.927 211.674 112.776 C 213.034 113.659 213.59 114.79 214.46 116.056 C 214.772 116.509 215.582 116.463 215.592 115.803" fill="rgb(134,208,76)"/><path d=" M 212.808 112.948 C 211.713 112.309 208.475 110.224 208.411 110.171 C 207.939 109.779 207.969 109.27 208.006 108.81 C 208.032 108.492 207.591 108.375 207.424 108.626 C 207.266 108.863 207.158 109.076 207.078 109.292 C 206.932 109.15 205.692 107.256 204.863 106.53 C 204.301 106.036 203.368 105.644 202.684 106.113 C 201.984 106.592 202.251 107.456 202.51 108.154 C 200.977 107.867 198.974 108.489 198.986 110.301 C 198.996 111.955 201.239 113.865 202.305 114.538 C 202.588 114.716 206.828 116.009 207.781 116.297 C 209.591 116.844 213.74 118.617 215.46 117.019 C 216.956 115.631 213.985 113.636 212.808 112.948" fill="rgb(81,159,53)"/><path d=" M 212.851 114.933 C 212.433 114.437 210.29 113.541 209.547 113.147 C 208.578 112.636 207.719 111.961 206.787 111.295 C 206.164 110.659 205.639 109.931 205.184 109.101 L 205.096 109.134 C 205.205 109.711 205.424 110.189 205.717 110.61 C 204.934 110.187 204.124 109.973 203.149 110.189 C 202.811 110.264 202.659 110.458 203.06 110.48 C 204.202 110.541 205.236 110.877 206.127 111.359 C 205.539 111.28 204.729 111.381 204.113 111.443 C 203.971 111.458 203.39 111.443 203.721 111.643 C 204.135 111.893 205.275 111.593 205.761 111.701 C 206.383 111.838 206.724 111.718 208.196 112.73 C 209.078 113.388 209.972 113.914 210.998 114.289 C 210.933 114.298 209.602 114.199 208.945 114.155 C 206.471 113.986 203.49 114.001 202.076 111.863 C 201.899 111.594 201.8 111.709 201.89 111.925 C 202.548 113.495 204.079 113.86 205.683 114.227 C 206.971 114.522 208.421 114.455 209.809 114.522 C 207.955 114.905 206.42 115.128 204.554 114.553 L 204.517 114.67 C 205.539 115.143 206.362 115.226 207.485 115.179 C 208.226 115.146 209.049 114.963 209.751 114.874 C 210.865 114.732 211.62 114.97 212.667 115.199 C 213.01 115.275 213.102 115.232 212.851 114.933" fill="rgb(134,208,76)"/><path d=" M 231.21 107.946 C 230.639 106.539 229.542 107.373 228.967 107.91 C 228.937 107.589 228.545 107.549 228.337 107.7 C 227.637 108.209 227.066 108.749 226.551 109.394 C 226.394 109.264 226.177 109.208 225.878 109.226 C 225.53 109.248 225.363 109.476 225.085 109.681 C 224.814 109.882 224.335 110.607 224.153 110.794 C 223.357 111.607 222.443 112.14 221.455 112.705 L 221.512 112.875 L 221.456 113.056 C 221.456 113.056 221.416 114.105 221.882 113.914 C 224.433 112.868 226.508 111.848 229.313 112.612 C 229.671 112.709 229.679 112.371 229.643 112.184 C 229.594 111.937 229.291 111.43 229.183 111.272 C 229.602 111.356 230.415 111.591 230.856 111.544 C 231.054 111.523 231.367 111.175 230.896 110.526 C 231.838 110.751 232.821 110.881 233.559 110.246 C 233.958 109.903 234.041 109.397 233.895 109.116 C 234.481 108.869 234.956 108.422 234.556 107.718 C 233.992 106.724 232.316 107.425 231.21 107.946" fill="rgb(81,159,53)"/><path d=" M 218.762 111.701 C 220.156 110.751 221.987 110.987 222.85 112.255 C 223.714 113.523 223.262 115.313 221.869 116.263 C 220.475 117.211 209.623 122.932 208.846 121.791 C 208.069 120.651 217.367 112.649 218.762 111.701 Z " fill="rgb(245,126,20)"/><path d=" M 222.336 115.315 C 222.41 114.855 222.299 114.483 221.983 114.139 C 221.83 113.973 221.586 114.213 221.697 114.39 C 221.876 114.677 222.011 114.966 222.08 115.3 C 222.107 115.432 222.311 115.473 222.336 115.315" fill="rgb(248,155,54)"/><path d=" M 219.486 114.588 C 219.29 114.164 218.992 113.918 218.537 113.807 C 218.318 113.755 218.249 114.09 218.44 114.176 C 218.749 114.315 219.021 114.479 219.264 114.719 C 219.36 114.812 219.552 114.733 219.486 114.588" fill="rgb(248,155,54)"/><path d=" M 219.947 113.175 C 219.753 112.751 219.455 112.505 218.999 112.396 C 218.78 112.343 218.712 112.677 218.901 112.763 C 219.21 112.902 219.483 113.067 219.727 113.306 C 219.823 113.399 220.014 113.32 219.947 113.175 Z " fill="rgb(248,155,54)"/><path d=" M 213.641 118.781 C 213.445 118.358 213.146 118.112 212.691 118.001 C 212.473 117.948 212.404 118.284 212.595 118.37 C 212.904 118.507 213.175 118.673 213.419 118.911 C 213.515 119.006 213.707 118.926 213.641 118.781" fill="rgb(248,155,54)"/><path d=" M 221.841 112.181 C 221.684 112.017 221.478 111.874 221.258 111.804 C 221.071 111.743 221 112.007 221.148 112.127 C 221.762 112.627 222.316 112.681 221.841 112.181" fill="rgb(248,155,54)"/><path d=" M 216.561 114.861 C 216.737 115.004 216.959 115.121 217.185 115.164 C 217.379 115.199 217.416 114.93 217.253 114.828 C 216.583 114.409 216.025 114.424 216.561 114.861 Z " fill="rgb(248,155,54)"/><path d=" M 218.94 115.846 C 218.986 116.068 219.083 116.298 219.231 116.476 C 219.357 116.625 219.557 116.44 219.496 116.26 C 219.243 115.51 218.802 115.17 218.94 115.846" fill="rgb(248,155,54)"/><path d=" M 211.667 120.08 C 211.713 120.303 211.811 120.534 211.958 120.71 C 212.084 120.861 212.284 120.676 212.223 120.494 C 211.97 119.745 211.529 119.404 211.667 120.08 Z " fill="rgb(248,155,54)"/><path d=" M 221.286 115.801 C 221.153 115.248 220.996 115.022 220.793 114.71 C 220.672 114.522 220.52 114.713 220.539 114.915 C 220.573 115.304 220.813 115.612 221.02 115.939 C 221.114 116.091 221.327 115.977 221.286 115.801" fill="rgb(248,155,54)"/><path d=" M 230.8 91.726 C 231.182 90.255 231.578 89.547 233.134 88.465 C 234.691 87.384 240.774 86.307 243.722 88.807 C 246.672 91.309 245.51 95.933 245.027 97.515 C 244.481 99.311 243.495 101.536 243.154 104.018 C 242.999 105.141 244.055 107.654 244.4 108.298 L 244.404 108.304 C 243.197 109.761 240.974 110.338 239.191 110.511 C 238.182 110.609 237.314 110.521 236.496 110.325 C 236.61 110.177 236.712 110.018 236.775 109.838 C 237 109.205 236.889 106.515 236.334 105.891 C 235.546 105.006 234.615 105.067 233.464 105.302 C 231.938 105.613 232.281 103.642 231.321 103.321 C 230.693 103.111 231.1 102.789 231.259 102.468 C 231.154 102.249 230.674 102.135 230.574 101.944 C 230.33 101.479 230.869 101.303 230.794 101.064 C 230.605 100.459 228.886 100.434 229.044 99.784 C 229.316 98.658 231.29 96.467 231.013 95.731 C 230.454 94.244 230.436 93.122 230.8 91.726" fill="rgb(249,170,109)"/><path d=" M 230.921 91.291 C 230.921 91.291 232.963 90.505 235.735 92.609 C 237.509 93.955 237.57 95.537 239.935 96.194 C 241.971 96.759 241.604 98.209 241.604 98.209 L 243.356 103.145 C 243.356 103.145 246.434 100.536 246.697 94.741 C 246.95 89.165 245.271 88.493 245.271 88.493 C 245.271 88.493 242.268 86.16 236.266 86.622 C 232.887 86.881 230.911 87.98 230.911 87.98 C 230.911 87.98 231.296 89.665 230.921 91.291" fill="rgb(165,48,32)"/><path d=" M 239.438 96.37 C 239.438 96.37 239.503 94.534 241.241 94.75 C 242.981 94.964 243.184 97.429 241.284 98.883 C 239.385 100.339 239.438 96.37 239.438 96.37" fill="rgb(249,170,109)"/><path d=" M 232.825 216.413 C 232.825 216.413 224.159 220.622 221.762 222.15 C 219.364 223.68 220.283 225.155 220.283 225.155 L 237.803 225.155 C 237.803 225.155 238.05 218.333 237.558 216.858 C 237.065 215.383 232.825 216.413 232.825 216.413 Z " fill="rgb(166,104,41)"/><path d=" M 246.723 79.503 L 230.569 79.503 L 230.569 93.105 L 246.723 93.105 L 246.723 79.503 Z " fill="rgb(0,38,77)"/><path d=" M 246.723 91.233 L 230.569 91.233 L 230.569 89.353 L 246.723 89.353 L 246.723 91.233 Z " fill="rgb(166,26,17)"/><path d=" M 236.496 110.325 C 236.496 110.325 232.484 113.489 230.911 117.606 C 229.016 122.571 229.48 128.748 229.216 130.126 C 228.729 132.652 229.158 147.793 229.158 147.793 L 247.961 147.153 C 247.961 147.153 247.961 137.06 249.149 126.898 C 250.325 116.819 244.4 108.298 244.4 108.298 L 236.496 110.325" fill="rgb(0,38,77)"/><path d=" M 246.913 142.22 C 248.042 142.652 253.424 143.574 257.407 147.009 C 261.388 150.443 260.274 154.524 255.847 154.079 C 251.423 153.632 245.947 145.596 245.947 145.596 L 245.947 143.731 C 245.947 143.731 250.482 149.923 253.77 151.222 C 257.059 152.52 259.138 151.395 256.886 149.015 C 254.636 146.635 246.913 143.731 246.913 143.731 L 246.913 142.22 Z " fill="rgb(166,26,17)"/><path d=" M 246.373 142.473 C 247.396 141.83 251.362 138.077 256.498 136.951 C 261.635 135.825 264.231 139.164 261.221 142.438 C 258.209 145.712 248.495 145.271 248.495 145.271 L 247.002 144.152 C 247.002 144.152 254.677 144.24 257.689 142.387 C 260.7 140.534 261.046 138.196 257.791 138.569 C 254.537 138.942 247.582 143.38 247.582 143.38 L 246.373 142.473" fill="rgb(166,26,17)"/><path d=" M 245.039 216.413 C 245.039 216.413 236.373 220.622 233.976 222.15 C 231.58 223.68 232.497 225.155 232.497 225.155 L 250.017 225.155 C 250.017 225.155 250.264 218.333 249.772 216.858 C 249.279 215.383 245.039 216.413 245.039 216.413 Z " fill="rgb(166,104,41)"/><path d=" M 250.017 225.155 L 232.324 225.155 L 232.324 224.169 L 250.017 224.169 L 250.017 225.155 Z " fill="rgb(166,104,41)"/><path d=" M 201.604 117.278 C 201.604 117.278 199.543 116.475 198.416 116.398 C 197.289 116.321 196.85 117.705 198.416 118.398 C 200.662 119.392 202.427 119.707 202.427 119.707 L 201.604 117.278 Z " fill="rgb(204,86,20)"/><path d=" M 225.47 117.278 C 225.47 117.278 227.531 116.475 228.658 116.398 C 229.784 116.321 230.224 117.705 228.658 118.398 C 226.412 119.392 224.647 119.707 224.647 119.707 L 225.47 117.278 Z " fill="rgb(204,86,20)"/><path d=" M 222.87 132.851 L 204.424 132.851 C 202.686 132.851 201.276 131.441 201.276 129.703 L 201.276 115.211 L 216.485 115.211 L 226.019 115.211 L 226.019 129.703 C 226.019 131.441 224.609 132.851 222.87 132.851 Z " fill="rgb(204,86,20)"/><path d=" M 226.538 115.832 L 200.637 115.832 C 200.295 115.832 200.015 115.553 200.015 115.211 C 200.015 114.868 200.295 114.588 200.637 114.588 L 226.538 114.588 C 226.88 114.588 227.161 114.868 227.161 115.211 C 227.161 115.553 226.88 115.832 226.538 115.832 Z " fill="rgb(204,86,20)"/><path d=" M 245.009 109.27 C 242.024 108.628 238.142 110.112 235.828 112.897 C 235.077 113.803 231.571 124.928 228.957 125.879 C 226.341 126.83 217.432 128.015 217.432 128.015 L 215.873 136.313 C 215.873 136.313 223.709 137.829 226.732 138.272 C 229.754 138.714 236.225 135.927 240.857 132.165 C 243.579 129.953 248.909 120.448 248.57 117.899 C 248.23 115.35 245.009 109.27 245.009 109.27 Z " fill="rgb(0,38,77)"/><path d=" M 232.998 113.97 C 232.998 113.97 235.018 108.561 238.647 107.19 C 241.662 106.049 245.009 106.049 245.009 106.049 L 245.009 109.27 C 245.009 109.27 242.16 108.728 240.048 109.413 C 237.284 110.311 232.998 113.97 232.998 113.97 Z " fill="rgb(218,217,215)"/><path d=" M 220.49 129.468 C 217.977 129.305 215.374 129.659 212.574 129.147 C 208.591 128.418 205.918 127.747 204.457 126.718 C 201.393 124.559 198.68 123.439 198.604 125.228 C 198.453 128.776 199.807 131.149 204.23 131.548 C 205.636 131.675 209.384 133.226 211.349 133.832 C 213.285 134.428 216.697 135.235 219.23 135.68 C 219.531 133.569 219.821 131.384 220.49 129.468" fill="rgb(249,170,109)"/><path d=" M 216.289 127.558 C 215.138 130.703 215.329 137.597 215.329 137.597 C 215.329 137.597 216.997 137.569 218.116 138.013 C 219.233 138.457 220.77 139.941 220.77 139.941 C 220.77 139.941 221.869 136.958 221.894 132.724 C 221.918 128.489 221.626 126.733 221.626 126.733 C 221.626 126.733 220.373 126.608 218.759 127.064 C 217.787 127.339 216.289 127.558 216.289 127.558" fill="rgb(218,217,215)"/><path d=" M 248.31 142.853 L 228.983 142.853 L 228.983 140.623 L 248.31 140.623 L 248.31 142.853 Z " fill="rgb(166,26,17)"/><path d=" M 237.864 217.95 C 237.92 214.512 236.107 192.553 236.107 189.215 C 236.107 187.325 236.441 183.803 236.907 179.77 L 225.835 178.443 C 225.458 185.121 224.856 182.429 225.853 193.267 C 226.067 195.594 228.844 214.737 229.034 217.95 L 237.864 217.95" fill="rgb(54,53,54)"/><path d=" M 250.458 217.95 L 249.212 179.77 L 239.002 179.77 L 241.944 217.95 L 250.458 217.95 Z " fill="rgb(54,53,54)"/><path d=" M 228.983 142.853 C 228.983 142.853 226.272 156.122 225.848 160.605 C 224.613 173.668 223.427 185.273 223.427 185.273 L 254.247 185.273 C 254.247 185.273 252.906 162.469 251.92 155.916 C 250.637 147.407 247.961 142.851 247.961 142.851 L 228.983 142.853" fill="rgb(166,26,17)"/><path d=" M 237.803 225.155 L 220.11 225.155 L 220.11 224.169 L 237.803 224.169 L 237.803 225.155 Z " fill="rgb(166,104,41)"/><path d=" M 114.702 80.613 C 114.441 78.331 112.554 76.45 110.595 75.464 C 105.414 72.859 97.926 74.229 93.119 77.08 C 91.586 77.987 89.884 79.543 90.363 81.554 C 90.674 82.86 92.177 85.566 100.787 85.504 C 104.367 85.478 107.947 85.791 111.364 84.651 C 113.39 83.975 114.971 82.975 114.702 80.613" fill="rgb(0,51,102)"/><path d=" M 102.916 106.172 C 103.769 105.995 105.51 104.597 105.803 103.798 C 105.38 101.882 105.661 98.785 105.661 98.785 L 99.291 97.8 C 99.291 97.8 99.066 102.042 98.714 103.895 C 99.085 105.132 101.16 106.535 102.916 106.172" fill="rgb(237,122,49)"/><path d=" M 110.45 91.634 C 110.243 90.655 109.249 90.794 108.898 90.874 C 108.426 86.718 106.039 83.623 102.784 83.505 C 99.454 83.384 96.84 86.205 96.144 90.414 C 95.814 90.309 94.81 90.081 94.529 91.054 C 94.189 92.227 94.717 94.025 96.032 94.517 L 96.044 94.52 C 96.13 95.266 96.285 95.985 96.548 96.609 C 97.849 99.7 100.315 102.08 102.105 102.145 C 103.939 102.212 106.368 100.13 107.866 97.022 C 108.16 96.41 108.431 95.716 108.633 94.991 L 108.7 94.979 C 110.046 94.583 110.703 92.829 110.45 91.634" fill="rgb(249,170,109)"/><path d=" M 103.935 86.252 C 102.555 88.323 98.007 91.323 94.823 90.516 C 94.442 87.572 96.276 84.617 97.306 83.455 C 100.199 80.187 105.528 80.65 107.151 82.422 C 110.656 86.254 110.564 89.023 109.545 90.903 C 107.886 91.656 104.743 88.24 103.935 86.252 Z " fill="rgb(54,53,54)"/><path d=" M 123.648 127.512 C 121.853 118.575 119.875 109.779 117.239 108.153 C 114.603 106.527 105.688 103.622 105.688 103.622 L 102.259 106.172 L 98.831 103.622 C 98.831 103.622 89.915 106.527 87.278 108.153 C 84.642 109.779 82.666 118.575 80.871 127.512 C 80.467 129.518 79.991 131.758 79.495 134.011 C 83.836 134.01 87.249 135.844 87.249 135.844 L 90.592 120.757 L 92.819 135.844 L 102.143 135.844 L 102.376 135.844 L 111.699 135.844 L 113.925 120.757 L 117.269 135.844 C 117.269 135.844 120.682 134.01 125.024 134.011 C 124.528 131.758 124.05 129.518 123.648 127.512 Z " fill="rgb(0,38,77)"/><path d=" M 111.466 77.623 C 111.466 77.623 109.191 77.343 107.645 78.479 C 106.099 79.616 105.456 81.61 105.456 81.61 C 105.456 81.61 109.78 78.16 111.466 77.623 Z " fill="rgb(0,26,51)"/><path d=" M 98.557 75.643 C 98.557 75.643 100.375 78.527 100.54 79.845 C 100.704 81.163 101.56 79.314 101.087 77.963 C 100.307 75.74 98.557 75.643 98.557 75.643" fill="rgb(0,26,51)"/><path d=" M 93.649 78.033 C 93.649 78.033 95.397 79.593 96.005 80.36 C 96.615 81.126 97.46 81.61 97.46 81.61 C 97.46 81.61 97.875 79.509 96.585 78.639 C 95.295 77.768 93.649 78.033 93.649 78.033 Z " fill="rgb(0,26,51)"/><path d=" M 77.788 131.66 L 79.257 135.844 C 79.257 135.844 82.814 135.442 85.533 137.819 C 87.027 136.945 89.24 134.872 89.24 134.872 C 89.24 134.872 87.741 131.807 83.968 130.868 C 80.194 129.928 77.788 131.66 77.788 131.66 Z " fill="rgb(218,217,215)"/><path d=" M 126.47 131.66 L 125.001 135.844 C 125.001 135.844 121.445 135.442 118.726 137.819 C 117.233 136.945 115.018 134.872 115.018 134.872 C 115.018 134.872 116.517 131.807 120.291 130.868 C 124.065 129.928 126.47 131.66 126.47 131.66 Z " fill="rgb(218,217,215)"/><path d=" M 109.293 152.055 L 95.761 152.055 L 95.761 106.626 L 109.293 106.626 L 109.293 152.055 Z " fill="rgb(218,217,215)"/><path d=" M 108.123 152.329 L 94.428 152.329 L 94.428 107.826 L 108.123 107.826 L 108.123 152.329 Z " fill="rgb(0,38,77)"/><path d=" M 90.656 217.134 C 90.656 217.134 83.164 220.771 81.092 222.094 C 79.02 223.415 79.813 224.69 79.813 224.69 L 94.958 224.69 C 94.958 224.69 95.172 218.793 94.746 217.518 C 94.322 216.243 90.656 217.134 90.656 217.134" fill="rgb(255,255,255)"/><path d=" M 89.313 173.076 C 89.313 173.076 89.012 186.856 88.423 192.494 C 87.477 201.553 86.193 218.551 86.193 218.551 L 95.761 218.551 C 95.761 218.551 97.659 196.958 98.714 188.351 C 99.454 182.315 100.932 173.076 100.932 173.076 L 89.313 173.076" fill="rgb(54,53,54)"/><path d=" M 94.958 224.113 L 79.664 224.113 L 79.664 225.269 L 94.958 225.269 L 94.958 224.113 Z " fill="rgb(88,89,91)"/><path d=" M 114.662 217.134 C 114.662 217.134 122.152 220.771 124.225 222.094 C 126.297 223.415 125.503 224.69 125.503 224.69 L 110.358 224.69 C 110.358 224.69 110.144 218.793 110.57 217.518 C 110.996 216.243 114.662 217.134 114.662 217.134" fill="rgb(255,255,255)"/><path d=" M 116.004 173.076 C 116.004 173.076 116.304 186.856 116.893 192.494 C 117.84 201.553 119.125 218.551 119.125 218.551 L 109.555 218.551 C 109.555 218.551 107.657 196.958 106.602 188.351 C 105.862 182.315 104.385 173.076 104.385 173.076 L 116.004 173.076" fill="rgb(54,53,54)"/><path d=" M 110.358 224.113 L 125.652 224.113 L 125.652 225.269 L 110.358 225.269 L 110.358 224.113 Z " fill="rgb(88,89,91)"/><path d=" M 117.434 158.905 C 116.776 147.457 111.906 135.844 111.906 135.844 L 102.143 135.844 L 100.796 135.844 L 92.819 135.844 C 92.819 135.844 87.95 147.457 87.29 158.905 C 86.632 170.352 85.533 182.655 85.533 182.655 L 100.472 182.655 L 102.466 182.655 L 119.192 182.655 C 119.192 182.655 118.094 170.352 117.434 158.905 Z " fill="rgb(92,102,10)"/><path d=" M 112.128 136.393 L 92.619 136.393 L 92.619 134.491 L 112.128 134.491 L 112.128 136.393 Z " fill="rgb(92,102,10)"/><path d=" M 97.523 104.058 L 97.523 101.394 C 97.523 101.394 102.398 102.625 102.259 106.172 C 99.893 105.324 97.523 104.058 97.523 104.058 Z " fill="rgb(218,217,215)"/><path d=" M 106.997 104.058 L 106.997 101.394 C 106.997 101.394 102.123 102.625 102.262 106.172 C 104.629 105.324 106.997 104.058 106.997 104.058 Z " fill="rgb(218,217,215)"/><path d=" M 99.398 109.879 C 99.398 110.317 99.043 110.671 98.605 110.671 C 98.167 110.671 97.812 110.317 97.812 109.879 C 97.812 109.442 98.167 109.086 98.605 109.086 C 99.043 109.086 99.398 109.442 99.398 109.879 Z " fill="rgb(54,53,54)"/><path d=" M 106.725 109.879 C 106.725 110.317 106.37 110.671 105.934 110.671 C 105.496 110.671 105.141 110.317 105.141 109.879 C 105.141 109.442 105.496 109.086 105.934 109.086 C 106.37 109.086 106.725 109.442 106.725 109.879 Z " fill="rgb(54,53,54)"/><path d=" M 98.452 119.734 C 98.452 120.172 98.097 120.525 97.659 120.525 C 97.221 120.525 96.866 120.172 96.866 119.734 C 96.866 119.296 97.221 118.941 97.659 118.941 C 98.097 118.941 98.452 119.296 98.452 119.734 Z " fill="rgb(238,39,72)"/><path d=" M 106.725 119.734 C 106.725 120.172 106.37 120.525 105.934 120.525 C 105.496 120.525 105.141 120.172 105.141 119.734 C 105.141 119.296 105.496 118.941 105.934 118.941 C 106.37 118.941 106.725 119.296 106.725 119.734 Z " fill="rgb(238,39,72)"/><path d=" M 98.452 130.868 C 98.452 131.305 98.097 131.66 97.659 131.66 C 97.221 131.66 96.866 131.305 96.866 130.868 C 96.866 130.43 97.221 130.075 97.659 130.075 C 98.097 130.075 98.452 130.43 98.452 130.868 Z " fill="rgb(238,39,72)"/><path d=" M 106.725 130.868 C 106.725 131.305 106.37 131.66 105.934 131.66 C 105.496 131.66 105.141 131.305 105.141 130.868 C 105.141 130.43 105.496 130.075 105.934 130.075 C 106.37 130.075 106.725 130.43 106.725 130.868 Z " fill="rgb(238,39,72)"/><path d=" M 110.16 80.312 C 110.16 80.312 108.237 78.32 102.526 78.32 C 97.198 78.32 94.851 80.312 94.851 80.312 L 94.851 88.686 L 110.16 88.686 L 110.16 80.312 Z " fill="rgb(0,38,77)"/><path d=" M 97.082 113.526 L 95.424 113.526 L 95.424 104.783 L 97.082 104.207 L 97.082 113.526 Z " fill="rgb(92,102,10)"/><path d=" M 107.633 113.526 L 109.293 113.526 L 109.293 104.783 L 107.633 104.207 L 107.633 113.526 Z " fill="rgb(92,102,10)"/><path d=" M 92.619 134.491 L 95.383 113.381 L 109.293 113.381 L 112.128 134.491 L 92.619 134.491 Z " fill="rgb(92,102,10)"/><path d=" M 94.644 146.91 L 94.644 151.635 C 94.644 155.823 98.072 159.25 102.259 159.25 C 106.447 159.25 109.873 155.823 109.873 151.635 L 109.873 146.91 L 94.644 146.91" fill="rgb(134,208,76)"/><path d=" M 125.024 151.154 C 123.779 149.623 120.43 149.675 118.678 149.635 C 117.891 149.616 97.211 149.138 86.422 149.784 C 82.04 150.046 80.882 151.545 80.519 152.055 C 79.989 152.802 89.364 152.68 99.917 152.557 C 109.974 152.437 121.125 152.336 124.808 152.262 C 125.355 152.251 125.336 151.54 125.024 151.154" fill="rgb(248,235,87)"/><path d=" M 118.779 145.978 C 118.779 145.978 121.079 145.978 122.458 145.978 C 123.839 145.978 125.429 144.756 127.288 144.752 C 129.15 144.746 129.283 146.176 129.283 146.91 C 129.283 147.645 129.15 149.074 127.288 149.07 C 125.429 149.064 123.839 147.843 122.458 147.843 C 121.079 147.843 118.779 147.843 118.779 147.843 L 118.436 146.91 L 118.779 145.978 Z " fill="rgb(179,112,45)"/><path d=" M 117.644 149.972 L 87.41 149.972 C 85.907 149.972 84.678 148.743 84.678 147.24 L 84.678 147.24 C 84.678 145.738 85.907 144.509 87.41 144.509 L 117.644 144.509 C 119.146 144.509 120.375 145.738 120.375 147.24 L 120.375 147.24 C 120.375 148.743 119.146 149.972 117.644 149.972 Z " fill="rgb(179,112,45)"/><path d=" M 86.079 145.978 C 86.079 145.978 83.778 145.978 82.398 145.978 C 81.018 145.978 79.429 144.756 77.568 144.752 C 75.708 144.746 75.575 146.176 75.575 146.91 C 75.575 147.645 75.708 149.074 77.568 149.07 C 79.429 149.064 81.018 147.843 82.398 147.843 C 83.778 147.843 86.079 147.843 86.079 147.843 L 86.422 146.91 L 86.079 145.978 Z " fill="rgb(179,112,45)"/><path d=" M 79.257 135.844 C 79.257 135.844 74.3 140.649 72.843 142.336 C 71.387 144.022 71.464 146.477 72.843 147.932 C 74.223 149.389 75.68 151.23 77.06 151.153 C 78.439 151.076 80.51 149.773 80.97 149.389 C 81.43 149.006 78.976 143.87 78.976 143.87 L 85.533 137.819 C 85.533 137.819 83.448 134.797 79.257 135.844 Z " fill="rgb(249,170,109)"/><path d=" M 76.906 143.389 C 76.906 143.389 78.824 143.639 80.74 143.716 C 82.657 143.793 83.96 143.716 83.96 143.716 C 83.96 143.716 83.695 145.629 81.737 145.629 C 79.778 145.629 75.01 145.629 75.01 145.629 L 76.906 143.389 Z " fill="rgb(249,170,109)"/><path d=" M 125.035 135.844 C 125.035 135.844 129.993 140.649 131.45 142.336 C 132.906 144.022 132.829 146.477 131.45 147.932 C 130.07 149.389 128.613 151.23 127.232 151.153 C 125.852 151.076 123.782 149.773 123.322 149.389 C 122.862 149.006 125.316 143.87 125.316 143.87 L 118.76 137.819 C 118.76 137.819 120.844 134.797 125.035 135.844 Z " fill="rgb(249,170,109)"/><path d=" M 127.386 143.389 C 127.386 143.389 125.469 143.639 123.553 143.716 C 121.636 143.793 120.332 143.716 120.332 143.716 C 120.332 143.716 120.597 145.629 122.556 145.629 C 124.515 145.629 129.283 145.629 129.283 145.629 L 127.386 143.389 Z " fill="rgb(249,170,109)"/><path d=" M 62.142 202.952 C 54.545 207.228 47.236 211.99 40.337 217.304 L 40.337 225.921 L 54.068 225.921 L 166.837 225.921 L 166.837 179.965 L 166.837 169.786 C 130.471 174.972 94.092 184.969 62.142 202.952" fill="rgb(166,104,41)"/><path d=" M 40.337 155.64 L 40.337 217.304 C 47.236 211.99 54.545 207.228 62.142 202.952 C 94.092 184.969 130.471 174.972 166.837 169.786 L 166.837 155.64 L 40.337 155.64" fill="rgb(179,112,45)"/><path d=" M 37.5 152.174 L 37.5 155.64 L 169.673 155.64 L 169.673 152.174 L 37.5 152.174 Z " fill="rgb(179,112,45)"/><path d=" M 166.837 155.64 L 40.337 155.64 L 40.337 166.939 L 166.837 166.939 L 166.837 155.64 Z " fill="rgb(102,64,26)"/><path d=" M 142.14 147.662 C 141.542 147.11 139.251 146.231 137.586 147.099 C 136.14 147.888 134.894 149.268 135.23 150.768 C 135.422 151.622 136.196 152.06 137.011 152.194 C 138.303 152.407 140.029 152.333 141.313 152.079 C 143.898 151.566 143.79 149.187 142.14 147.662" fill="rgb(248,235,87)"/><path d=" M 152.182 147.662 C 151.584 147.11 149.294 146.231 147.63 147.099 C 146.183 147.888 144.938 149.268 145.273 150.768 C 145.466 151.622 146.239 152.06 147.055 152.194 C 148.346 152.407 150.072 152.333 151.357 152.079 C 153.941 151.566 153.833 149.187 152.182 147.662" fill="rgb(248,235,87)"/><path d=" M 162.456 147.662 C 161.859 147.11 159.567 146.231 157.903 147.099 C 156.456 147.888 155.21 149.268 155.546 150.768 C 155.739 151.622 156.512 152.06 157.329 152.194 C 158.62 152.407 160.345 152.333 161.629 152.079 C 164.214 151.566 164.106 149.187 162.456 147.662" fill="rgb(248,235,87)"/><path d=" M 65.397 136.393 C 62.827 134.377 60.899 135.442 57.117 136.393 C 55.375 136.831 49.593 138.513 48.792 139.046 C 47.689 139.43 46.748 140.044 46.477 141 C 45.861 143.167 48.214 144.133 49.903 144.429 C 53.468 145.053 57.29 145.102 60.851 144.433 C 63.111 144.007 66.06 143.371 66.853 140.868 C 67.44 139.017 66.881 137.557 65.397 136.393 Z " fill="rgb(248,235,87)"/><path d=" M 40.971 139.384 C 41.275 146.311 47.749 151.848 55.714 151.848 C 63.678 151.848 70.153 146.311 70.456 139.384 L 40.971 139.384 Z " fill="rgb(0,76,153)"/><path d=" M 61.354 152.305 L 50.075 152.305 L 50.075 150.861 L 61.354 150.861 L 61.354 152.305 Z " fill="rgb(0,76,153)"/></g></g></svg>