<?xml version="1.0" encoding="UTF-8" standalone="no"?><!-- Generator: Gravit.io --><svg xmlns="http://www.w3.org/2000/svg" xmlns:xlink="http://www.w3.org/1999/xlink" style="isolation:isolate" viewBox="767 303.169 519.614 226.16" width="519.614pt" height="226.16pt"><defs><clipPath id="_clipPath_cwhJXPzHiC240OTmLHxCiZhlUUTUg30S"><rect x="767" y="303.169" width="519.614" height="226.16"/></clipPath></defs><g clip-path="url(#_clipPath_cwhJXPzHiC240OTmLHxCiZhlUUTUg30S)"><path d=" M 1026.807 529.329 C 883.319 529.329 767 513.585 767 494.164 C 767 474.741 883.319 459 1026.807 459 C 1170.292 459 1286.614 474.741 1286.614 494.164 C 1286.614 513.585 1170.292 529.329 1026.807 529.329" fill="rgb(221,243,246)"/><path d=" M 1036.051 450.788 L 965.294 450.788 L 965.294 401.909 L 1036.051 401.909 L 1036.051 450.788 Z " fill="rgb(122,136,12)"/><path d=" M 965.961 450.121 L 1035.385 450.121 L 1035.385 402.576 L 965.961 402.576 L 965.961 450.121 Z  M 1036.718 451.455 L 964.627 451.455 L 964.627 401.243 L 1036.718 401.243 L 1036.718 451.455 Z " fill="rgb(92,102,10)"/><path d=" M 844.915 450.788 L 943.389 450.788 L 943.389 401.909 L 844.915 401.909 L 844.915 450.788 Z " fill="rgb(92,102,10)"/><path d=" M 845.582 450.121 L 942.722 450.121 L 942.722 402.576 L 845.582 402.576 L 845.582 450.121 Z  M 944.055 451.455 L 844.249 451.455 L 844.249 401.243 L 944.055 401.243 L 944.055 451.455 Z " fill="rgb(92,102,10)"/><path d=" M 872.63 450.788 L 943.389 450.788 L 943.389 401.909 L 872.63 401.909 L 872.63 450.788 Z " fill="rgb(122,136,12)"/><path d=" M 873.297 450.121 L 942.722 450.121 L 942.722 402.576 L 873.297 402.576 L 873.297 450.121 Z  M 944.055 451.455 L 871.963 451.455 L 871.963 401.243 L 944.055 401.243 L 944.055 451.455 Z " fill="rgb(92,102,10)"/><path d=" M 977.049 450.788 L 927.699 450.788 L 927.699 401.909 L 977.049 401.909 L 977.049 450.788 Z " fill="rgb(251,200,68)"/><path d=" M 928.366 450.121 L 976.382 450.121 L 976.382 402.576 L 928.366 402.576 L 928.366 450.121 Z  M 977.715 451.455 L 927.033 451.455 L 927.033 401.243 L 977.715 401.243 L 977.715 451.455 Z " fill="rgb(219,178,77)"/><path d=" M 977.049 450.788 L 927.699 450.788 L 927.699 401.909 L 977.049 401.909 L 977.049 450.788 Z " fill="rgb(122,136,12)"/><path d=" M 928.366 450.121 L 976.382 450.121 L 976.382 402.576 L 928.366 402.576 L 928.366 450.121 Z  M 977.715 451.455 L 927.033 451.455 L 927.033 401.243 L 977.715 401.243 L 977.715 451.455 Z " fill="rgb(92,102,10)"/><path d=" M 1021.503 500.333 L 950.746 500.333 L 950.746 451.455 L 1021.503 451.455 L 1021.503 500.333 Z " fill="rgb(122,136,12)"/><path d=" M 950.746 499.667 L 1020.17 499.667 L 1020.17 452.121 L 950.746 452.121 L 950.746 499.667 Z  M 1021.503 501 L 949.413 501 L 949.413 450.788 L 1021.503 450.788 L 1021.503 501 Z " fill="rgb(92,102,10)"/><path d=" M 830.367 500.333 L 928.841 500.333 L 928.841 451.455 L 830.367 451.455 L 830.367 500.333 Z " fill="rgb(92,102,10)"/><path d=" M 831.034 499.667 L 928.174 499.667 L 928.174 452.121 L 831.034 452.121 L 831.034 499.667 Z  M 929.507 501 L 829.701 501 L 829.701 450.788 L 929.507 450.788 L 929.507 501 Z " fill="rgb(92,102,10)"/><path d=" M 858.082 500.333 L 928.841 500.333 L 928.841 451.455 L 858.082 451.455 L 858.082 500.333 Z " fill="rgb(122,136,12)"/><path d=" M 858.749 499.667 L 928.174 499.667 L 928.174 452.121 L 858.749 452.121 L 858.749 499.667 Z  M 929.507 501 L 857.415 501 L 857.415 450.788 L 929.507 450.788 L 929.507 501 Z " fill="rgb(92,102,10)"/><path d=" M 962.501 500.333 L 913.151 500.333 L 913.151 451.455 L 962.501 451.455 L 962.501 500.333 Z " fill="rgb(251,200,68)"/><path d=" M 913.818 499.667 L 961.834 499.667 L 961.834 452.121 L 913.818 452.121 L 913.818 499.667 Z  M 963.167 501 L 912.485 501 L 912.485 450.788 L 963.167 450.788 L 963.167 501 Z " fill="rgb(219,178,77)"/><path d=" M 962.501 500.333 L 913.151 500.333 L 913.151 451.455 L 962.501 451.455 L 962.501 500.333 Z " fill="rgb(122,136,12)"/><path d=" M 913.818 499.667 L 961.834 499.667 L 961.834 452.121 L 913.818 452.121 L 913.818 499.667 Z  M 963.167 501 L 912.485 501 L 912.485 450.788 L 963.167 450.788 L 963.167 501 Z " fill="rgb(92,102,10)"/><path d=" M 1011.191 353.307 L 940.434 353.307 L 940.434 402.185 L 1011.191 402.185 L 1011.191 353.307 Z " fill="rgb(122,136,12)"/><path d=" M 941.101 353.973 L 1010.525 353.973 L 1010.525 401.519 L 941.101 401.519 L 941.101 353.973 Z  M 1011.858 352.64 L 939.767 352.64 L 939.767 402.852 L 1011.858 402.852 L 1011.858 352.64 Z " fill="rgb(92,102,10)"/><path d=" M 820.055 353.307 L 918.529 353.307 L 918.529 402.185 L 820.055 402.185 L 820.055 353.307 Z " fill="rgb(92,102,10)"/><path d=" M 820.722 353.973 L 917.862 353.973 L 917.862 401.519 L 820.722 401.519 L 820.722 353.973 Z  M 919.195 352.64 L 819.389 352.64 L 819.389 402.852 L 919.195 402.852 L 919.195 352.64 Z " fill="rgb(92,102,10)"/><path d=" M 847.77 353.307 L 918.529 353.307 L 918.529 402.185 L 847.77 402.185 L 847.77 353.307 Z " fill="rgb(122,136,12)"/><path d=" M 847.77 353.973 L 917.195 353.973 L 917.195 401.519 L 847.77 401.519 L 847.77 353.973 Z  M 918.529 352.64 L 846.437 352.64 L 846.437 402.852 L 918.529 402.852 L 918.529 352.64 Z " fill="rgb(92,102,10)"/><path d=" M 952.189 353.307 L 902.839 353.307 L 902.839 402.185 L 952.189 402.185 L 952.189 353.307 Z " fill="rgb(251,200,68)"/><path d=" M 903.506 353.973 L 951.522 353.973 L 951.522 401.519 L 903.506 401.519 L 903.506 353.973 Z  M 952.855 352.64 L 902.173 352.64 L 902.173 402.852 L 952.855 402.852 L 952.855 352.64 Z " fill="rgb(219,178,77)"/><path d=" M 952.189 353.307 L 902.839 353.307 L 902.839 402.185 L 952.189 402.185 L 952.189 353.307 Z " fill="rgb(122,136,12)"/><path d=" M 903.506 353.973 L 951.522 353.973 L 951.522 401.519 L 903.506 401.519 L 903.506 353.973 Z  M 952.855 352.64 L 902.173 352.64 L 902.173 402.852 L 952.855 402.852 L 952.855 352.64 Z " fill="rgb(92,102,10)"/><path d=" M 1020.837 303.835 L 950.079 303.835 L 950.079 352.714 L 1020.837 352.714 L 1020.837 303.835 Z " fill="rgb(122,136,12)"/><path d=" M 950.746 304.502 L 1020.17 304.502 L 1020.17 352.047 L 950.746 352.047 L 950.746 304.502 Z  M 1021.503 303.169 L 949.413 303.169 L 949.413 353.381 L 1021.503 353.381 L 1021.503 303.169 Z " fill="rgb(92,102,10)"/><path d=" M 829.701 303.835 L 928.174 303.835 L 928.174 352.714 L 829.701 352.714 L 829.701 303.835 Z " fill="rgb(92,102,10)"/><path d=" M 830.367 304.502 L 927.507 304.502 L 927.507 352.047 L 830.367 352.047 L 830.367 304.502 Z  M 928.841 303.169 L 829.034 303.169 L 829.034 353.381 L 928.841 353.381 L 928.841 303.169 Z " fill="rgb(92,102,10)"/><path d=" M 857.415 303.835 L 928.174 303.835 L 928.174 352.714 L 857.415 352.714 L 857.415 303.835 Z " fill="rgb(122,136,12)"/><path d=" M 858.082 304.502 L 927.507 304.502 L 927.507 352.047 L 858.082 352.047 L 858.082 304.502 Z  M 928.841 303.169 L 856.749 303.169 L 856.749 353.381 L 928.841 353.381 L 928.841 303.169 Z " fill="rgb(92,102,10)"/><path d=" M 961.834 303.835 L 912.485 303.835 L 912.485 352.714 L 961.834 352.714 L 961.834 303.835 Z " fill="rgb(251,200,68)"/><path d=" M 913.151 304.502 L 961.167 304.502 L 961.167 352.047 L 913.151 352.047 L 913.151 304.502 Z  M 962.501 303.169 L 911.818 303.169 L 911.818 353.381 L 962.501 353.381 L 962.501 303.169 Z " fill="rgb(219,178,77)"/><path d=" M 961.834 303.835 L 912.485 303.835 L 912.485 352.714 L 961.834 352.714 L 961.834 303.835 Z " fill="rgb(122,136,12)"/><path d=" M 913.151 304.502 L 961.167 304.502 L 961.167 352.047 L 913.151 352.047 L 913.151 304.502 Z  M 962.501 303.169 L 911.818 303.169 L 911.818 353.381 L 962.501 353.381 L 962.501 303.169 Z " fill="rgb(92,102,10)"/><path d=" M 1036.111 451.455 L 1106.869 451.455 L 1106.869 402.576 L 1036.111 402.576 L 1036.111 451.455 Z " fill="rgb(122,136,12)"/><path d=" M 1105.005 450.788 L 1035.581 450.788 L 1035.581 403.243 L 1105.005 403.243 L 1105.005 450.788 Z  M 1034.247 452.121 L 1106.338 452.121 L 1106.338 401.909 L 1034.247 401.909 L 1034.247 452.121 Z " fill="rgb(92,102,10)"/><path d=" M 1227.247 451.455 L 1128.774 451.455 L 1128.774 402.576 L 1227.247 402.576 L 1227.247 451.455 Z " fill="rgb(92,102,10)"/><path d=" M 1226.581 450.788 L 1129.441 450.788 L 1129.441 403.243 L 1226.581 403.243 L 1226.581 450.788 Z  M 1128.107 452.121 L 1227.914 452.121 L 1227.914 401.909 L 1128.107 401.909 L 1128.107 452.121 Z " fill="rgb(92,102,10)"/><path d=" M 1199.533 451.455 L 1128.774 451.455 L 1128.774 402.576 L 1199.533 402.576 L 1199.533 451.455 Z " fill="rgb(122,136,12)"/><path d=" M 1198.866 450.788 L 1129.441 450.788 L 1129.441 403.243 L 1198.866 403.243 L 1198.866 450.788 Z  M 1128.107 452.121 L 1200.199 452.121 L 1200.199 401.909 L 1128.107 401.909 L 1128.107 452.121 Z " fill="rgb(92,102,10)"/><path d=" M 1095.114 451.455 L 1144.463 451.455 L 1144.463 402.576 L 1095.114 402.576 L 1095.114 451.455 Z " fill="rgb(251,200,68)"/><path d=" M 1143.797 450.788 L 1095.781 450.788 L 1095.781 403.243 L 1143.797 403.243 L 1143.797 450.788 Z  M 1094.447 452.121 L 1145.13 452.121 L 1145.13 401.909 L 1094.447 401.909 L 1094.447 452.121 Z " fill="rgb(219,178,77)"/><path d=" M 1095.114 451.455 L 1144.463 451.455 L 1144.463 402.576 L 1095.114 402.576 L 1095.114 451.455 Z " fill="rgb(122,136,12)"/><path d=" M 1143.797 450.788 L 1095.781 450.788 L 1095.781 403.243 L 1143.797 403.243 L 1143.797 450.788 Z  M 1094.447 452.121 L 1145.13 452.121 L 1145.13 401.909 L 1094.447 401.909 L 1094.447 452.121 Z " fill="rgb(92,102,10)"/><path d=" M 1021.503 500.333 L 1092.261 500.333 L 1092.261 451.455 L 1021.503 451.455 L 1021.503 500.333 Z " fill="rgb(122,136,12)"/><path d=" M 1091.594 499.667 L 1022.17 499.667 L 1022.17 452.121 L 1091.594 452.121 L 1091.594 499.667 Z  M 1020.837 501 L 1092.927 501 L 1092.927 450.788 L 1020.837 450.788 L 1020.837 501 Z " fill="rgb(92,102,10)"/><path d=" M 1212.639 500.333 L 1114.166 500.333 L 1114.166 451.455 L 1212.639 451.455 L 1212.639 500.333 Z " fill="rgb(92,102,10)"/><path d=" M 1211.973 499.667 L 1114.833 499.667 L 1114.833 452.121 L 1211.973 452.121 L 1211.973 499.667 Z  M 1113.499 501 L 1213.306 501 L 1213.306 450.788 L 1113.499 450.788 L 1113.499 501 Z " fill="rgb(92,102,10)"/><path d=" M 1184.925 500.333 L 1114.166 500.333 L 1114.166 451.455 L 1184.925 451.455 L 1184.925 500.333 Z " fill="rgb(122,136,12)"/><path d=" M 1184.258 499.667 L 1114.833 499.667 L 1114.833 452.121 L 1184.258 452.121 L 1184.258 499.667 Z  M 1113.499 501 L 1185.591 501 L 1185.591 450.788 L 1113.499 450.788 L 1113.499 501 Z " fill="rgb(92,102,10)"/><path d=" M 1080.506 500.333 L 1129.855 500.333 L 1129.855 451.455 L 1080.506 451.455 L 1080.506 500.333 Z " fill="rgb(251,200,68)"/><path d=" M 1129.189 499.667 L 1081.173 499.667 L 1081.173 452.121 L 1129.189 452.121 L 1129.189 499.667 Z  M 1079.839 501 L 1130.522 501 L 1130.522 450.788 L 1079.839 450.788 L 1079.839 501 Z " fill="rgb(219,178,77)"/><path d=" M 1080.506 500.333 L 1129.855 500.333 L 1129.855 451.455 L 1080.506 451.455 L 1080.506 500.333 Z " fill="rgb(122,136,12)"/><path d=" M 1129.189 499.667 L 1081.173 499.667 L 1081.173 452.121 L 1129.189 452.121 L 1129.189 499.667 Z  M 1079.839 501 L 1130.522 501 L 1130.522 450.788 L 1079.839 450.788 L 1079.839 501 Z " fill="rgb(92,102,10)"/><path d=" M 1011.858 353.381 L 1082.615 353.381 L 1082.615 402.259 L 1011.858 402.259 L 1011.858 353.381 Z " fill="rgb(122,136,12)"/><path d=" M 1081.949 354.047 L 1012.525 354.047 L 1012.525 401.593 L 1081.949 401.593 L 1081.949 354.047 Z  M 1011.191 352.714 L 1083.282 352.714 L 1083.282 402.926 L 1011.191 402.926 L 1011.191 352.714 Z " fill="rgb(92,102,10)"/><path d=" M 1202.994 353.381 L 1104.521 353.381 L 1104.521 402.259 L 1202.994 402.259 L 1202.994 353.381 Z " fill="rgb(92,102,10)"/><path d=" M 1202.327 354.047 L 1105.187 354.047 L 1105.187 401.593 L 1202.327 401.593 L 1202.327 354.047 Z  M 1103.854 352.714 L 1203.661 352.714 L 1203.661 402.926 L 1103.854 402.926 L 1103.854 352.714 Z " fill="rgb(92,102,10)"/><path d=" M 1175.279 353.381 L 1104.521 353.381 L 1104.521 402.259 L 1175.279 402.259 L 1175.279 353.381 Z " fill="rgb(122,136,12)"/><path d=" M 1174.613 354.047 L 1105.187 354.047 L 1105.187 401.593 L 1174.613 401.593 L 1174.613 354.047 Z  M 1103.854 352.714 L 1175.946 352.714 L 1175.946 402.926 L 1103.854 402.926 L 1103.854 352.714 Z " fill="rgb(92,102,10)"/><path d=" M 1070.861 353.381 L 1120.21 353.381 L 1120.21 402.259 L 1070.861 402.259 L 1070.861 353.381 Z " fill="rgb(251,200,68)"/><path d=" M 1070.861 353.381 L 1120.21 353.381 L 1120.21 402.259 L 1070.861 402.259 L 1070.861 353.381 Z " fill="rgb(122,136,12)"/><path d=" M 1119.122 353.973 L 1071.106 353.973 L 1071.106 401.519 L 1119.122 401.519 L 1119.122 353.973 Z  M 1069.773 352.64 L 1120.455 352.64 L 1120.455 402.852 L 1069.773 402.852 L 1069.773 352.64 Z " fill="rgb(92,102,10)"/><path d=" M 1021.503 303.835 L 1092.261 303.835 L 1092.261 352.714 L 1021.503 352.714 L 1021.503 303.835 Z " fill="rgb(122,136,12)"/><path d=" M 1091.594 304.502 L 1022.17 304.502 L 1022.17 352.047 L 1091.594 352.047 L 1091.594 304.502 Z  M 1020.837 303.169 L 1092.927 303.169 L 1092.927 353.381 L 1020.837 353.381 L 1020.837 303.169 Z " fill="rgb(92,102,10)"/><path d=" M 1212.639 303.835 L 1114.166 303.835 L 1114.166 352.714 L 1212.639 352.714 L 1212.639 303.835 Z " fill="rgb(92,102,10)"/><path d=" M 1211.973 304.502 L 1114.833 304.502 L 1114.833 352.047 L 1211.973 352.047 L 1211.973 304.502 Z  M 1113.499 303.169 L 1213.306 303.169 L 1213.306 353.381 L 1113.499 353.381 L 1113.499 303.169 Z " fill="rgb(92,102,10)"/><path d=" M 1184.925 303.835 L 1114.166 303.835 L 1114.166 352.714 L 1184.925 352.714 L 1184.925 303.835 Z " fill="rgb(122,136,12)"/><path d=" M 1184.258 304.502 L 1114.833 304.502 L 1114.833 352.047 L 1184.258 352.047 L 1184.258 304.502 Z  M 1113.499 303.169 L 1185.591 303.169 L 1185.591 353.381 L 1113.499 353.381 L 1113.499 303.169 Z " fill="rgb(92,102,10)"/><path d=" M 1080.506 303.835 L 1129.855 303.835 L 1129.855 352.714 L 1080.506 352.714 L 1080.506 303.835 Z " fill="rgb(251,200,68)"/><path d=" M 1129.189 304.502 L 1081.173 304.502 L 1081.173 352.047 L 1129.189 352.047 L 1129.189 304.502 Z  M 1079.839 303.169 L 1130.522 303.169 L 1130.522 353.381 L 1079.839 353.381 L 1079.839 303.169 Z " fill="rgb(219,178,77)"/><path d=" M 1080.506 303.835 L 1129.855 303.835 L 1129.855 352.714 L 1080.506 352.714 L 1080.506 303.835 Z " fill="rgb(122,136,12)"/><path d=" M 1129.189 304.502 L 1081.173 304.502 L 1081.173 352.047 L 1129.189 352.047 L 1129.189 304.502 Z  M 1079.839 303.169 L 1130.522 303.169 L 1130.522 353.381 L 1079.839 353.381 L 1079.839 303.169 Z " fill="rgb(92,102,10)"/><g><g><path d=" M 1033.564 333.753 C 1068.905 339.801 1095.837 370.616 1095.837 407.671 C 1095.837 449.065 1062.23 482.671 1020.837 482.671 C 979.443 482.671 945.837 449.065 945.837 407.671 C 945.837 370.707 972.636 339.952 1007.848 333.793" fill="none" vector-effect="non-scaling-stroke" stroke-width="5" stroke="rgb(255,255,255)" stroke-linejoin="miter" stroke-linecap="round" stroke-miterlimit="3"/><line x1="1020.837" y1="319.814" x2="1020.837" y2="354.1" vector-effect="non-scaling-stroke" stroke-width="5" stroke="rgb(255,255,255)" stroke-linejoin="miter" stroke-linecap="round" stroke-miterlimit="3"/></g></g><path d=" M 1019.273 377.452 L 1019.273 377.452 L 1019.976 377.452 L 1019.976 377.452 Q 1021.734 377.452 1022.261 380.018 L 1022.261 380.018 L 1022.261 384.518 L 1022.261 384.518 Q 1025.531 384.765 1029.609 388.456 L 1029.609 388.456 L 1029.609 388.456 Q 1031.121 389.968 1031.121 390.776 L 1031.121 390.776 L 1031.121 391.585 L 1031.121 391.585 Q 1031.121 393.343 1028.519 393.765 L 1028.519 393.765 L 1028.519 393.765 Q 1027.464 393.765 1025.144 391.198 L 1025.144 391.198 L 1025.144 391.198 Q 1023.984 390.214 1022.261 389.686 L 1022.261 389.686 L 1022.261 405.858 L 1022.261 405.858 Q 1028.484 408.143 1031.121 413.101 L 1031.121 413.101 L 1031.121 413.101 Q 1033.16 416.933 1033.16 420.413 L 1033.16 420.413 L 1033.16 420.413 Q 1033.16 430.186 1023.105 434.581 L 1023.105 434.581 L 1022.261 434.722 L 1022.261 439.186 L 1022.261 439.186 Q 1021.628 441.788 1019.695 441.788 L 1019.695 441.788 L 1019.695 441.788 Q 1016.988 441.226 1016.988 439.186 L 1016.988 439.186 L 1016.988 435.53 L 1016.988 435.53 Q 1016.988 435.319 1013.859 434.862 L 1013.859 434.862 L 1013.859 434.862 Q 1007.777 432.788 1005.14 428.464 L 1005.14 428.464 L 1004.999 427.655 L 1004.999 427.655 Q 1005.456 425.054 1007.601 425.054 L 1007.601 425.054 L 1007.601 425.054 Q 1009.007 425.054 1011.398 428.042 L 1011.398 428.042 L 1011.398 428.042 Q 1014.456 430.046 1016.988 430.222 L 1016.988 430.222 L 1016.988 409.831 L 1016.988 409.831 Q 1012.347 408.39 1010.589 405.858 L 1010.589 405.858 L 1010.589 405.858 Q 1007.039 402.202 1007.039 397.456 L 1007.039 397.456 L 1007.039 396.472 L 1007.039 396.472 Q 1007.039 389.827 1013.859 385.749 L 1013.859 385.749 L 1013.859 385.749 Q 1016.109 384.659 1016.988 384.659 L 1016.988 384.659 L 1016.988 379.737 L 1016.988 379.737 Q 1017.691 377.452 1019.273 377.452 Z  M 1012.206 397.175 L 1012.206 397.175 L 1012.206 398.265 L 1012.206 398.265 Q 1012.206 402.624 1016.988 405.226 L 1016.988 405.226 L 1016.988 390.671 L 1016.988 390.671 Q 1012.206 393.026 1012.206 397.175 Z  M 1022.261 412.011 L 1022.261 412.011 L 1022.261 429.976 L 1022.402 429.976 L 1022.402 429.976 Q 1027.851 426.776 1027.851 421.819 L 1027.851 421.819 L 1027.851 420.448 L 1027.851 420.448 Q 1027.851 415.421 1022.261 412.011 Z " fill="rgb(255,255,255)"/></g></svg>