<?xml version="1.0" encoding="UTF-8" standalone="no"?><!-- Generator: Gravit.io --><svg xmlns="http://www.w3.org/2000/svg" xmlns:xlink="http://www.w3.org/1999/xlink" style="isolation:isolate" viewBox="0 0 600 600" width="600pt" height="600pt"><defs><clipPath id="_clipPath_uy367Pp8XlYIq0Th0rMViUAMGjOrCPBX"><rect width="600" height="600"/></clipPath></defs><g clip-path="url(#_clipPath_uy367Pp8XlYIq0Th0rMViUAMGjOrCPBX)"><path d=" M 286.589 421.527 C 143.101 421.527 26.782 405.783 26.782 386.362 C 26.782 366.94 143.101 351.198 286.589 351.198 C 430.074 351.198 546.397 366.94 546.397 386.362 C 546.397 405.783 430.074 421.527 286.589 421.527" fill="rgb(221,243,246)"/><path d=" M 301.804 326.092 L 231.047 326.092 L 231.047 277.214 L 301.804 277.214 L 301.804 326.092 Z " fill="rgb(69,149,229)"/><path d=" M 231.713 325.426 L 301.137 325.426 L 301.137 277.88 L 231.713 277.88 L 231.713 325.426 Z  M 302.471 326.759 L 230.38 326.759 L 230.38 276.547 L 302.471 276.547 L 302.471 326.759 Z " fill="rgb(51,110,170)"/><path d=" M 110.668 326.092 L 209.141 326.092 L 209.141 277.214 L 110.668 277.214 L 110.668 326.092 Z " fill="rgb(51,110,170)"/><path d=" M 111.335 325.426 L 208.475 325.426 L 208.475 277.88 L 111.335 277.88 L 111.335 325.426 Z  M 209.808 326.759 L 110.001 326.759 L 110.001 276.547 L 209.808 276.547 L 209.808 326.759 Z " fill="rgb(51,110,170)"/><path d=" M 138.383 326.092 L 209.141 326.092 L 209.141 277.214 L 138.383 277.214 L 138.383 326.092 Z " fill="rgb(69,149,229)"/><path d=" M 139.049 325.426 L 208.475 325.426 L 208.475 277.88 L 139.049 277.88 L 139.049 325.426 Z  M 209.808 326.759 L 137.716 326.759 L 137.716 276.547 L 209.808 276.547 L 209.808 326.759 Z " fill="rgb(51,110,170)"/><path d=" M 242.801 326.092 L 193.452 326.092 L 193.452 277.214 L 242.801 277.214 L 242.801 326.092 Z " fill="rgb(251,200,68)"/><path d=" M 194.119 325.426 L 242.135 325.426 L 242.135 277.88 L 194.119 277.88 L 194.119 325.426 Z  M 243.468 326.759 L 192.785 326.759 L 192.785 276.547 L 243.468 276.547 L 243.468 326.759 Z " fill="rgb(219,178,77)"/><path d=" M 242.801 326.092 L 193.452 326.092 L 193.452 277.214 L 242.801 277.214 L 242.801 326.092 Z " fill="rgb(69,149,229)"/><path d=" M 194.119 325.426 L 242.135 325.426 L 242.135 277.88 L 194.119 277.88 L 194.119 325.426 Z  M 243.468 326.759 L 192.785 326.759 L 192.785 276.547 L 243.468 276.547 L 243.468 326.759 Z " fill="rgb(51,110,170)"/><path d=" M 287.256 375.638 L 216.499 375.638 L 216.499 326.759 L 287.256 326.759 L 287.256 375.638 Z " fill="rgb(69,149,229)"/><path d=" M 216.499 374.971 L 285.923 374.971 L 285.923 327.426 L 216.499 327.426 L 216.499 374.971 Z  M 287.256 376.304 L 215.165 376.304 L 215.165 326.092 L 287.256 326.092 L 287.256 376.304 Z " fill="rgb(51,110,170)"/><path d=" M 96.12 375.638 L 194.593 375.638 L 194.593 326.759 L 96.12 326.759 L 96.12 375.638 Z " fill="rgb(51,110,170)"/><path d=" M 96.787 374.971 L 193.927 374.971 L 193.927 327.426 L 96.787 327.426 L 96.787 374.971 Z  M 195.26 376.304 L 95.453 376.304 L 95.453 326.092 L 195.26 326.092 L 195.26 376.304 Z " fill="rgb(51,110,170)"/><path d=" M 123.835 375.638 L 194.593 375.638 L 194.593 326.759 L 123.835 326.759 L 123.835 375.638 Z " fill="rgb(69,149,229)"/><path d=" M 124.501 374.971 L 193.927 374.971 L 193.927 327.426 L 124.501 327.426 L 124.501 374.971 Z  M 195.26 376.304 L 123.168 376.304 L 123.168 326.092 L 195.26 326.092 L 195.26 376.304 Z " fill="rgb(51,110,170)"/><path d=" M 228.253 375.638 L 178.904 375.638 L 178.904 326.759 L 228.253 326.759 L 228.253 375.638 Z " fill="rgb(251,200,68)"/><path d=" M 179.571 374.971 L 227.587 374.971 L 227.587 327.426 L 179.571 327.426 L 179.571 374.971 Z  M 228.92 376.304 L 178.237 376.304 L 178.237 326.092 L 228.92 326.092 L 228.92 376.304 Z " fill="rgb(51,110,170)"/><path d=" M 228.253 375.638 L 178.904 375.638 L 178.904 326.759 L 228.253 326.759 L 228.253 375.638 Z " fill="rgb(69,149,229)"/><path d=" M 179.571 374.971 L 227.587 374.971 L 227.587 327.426 L 179.571 327.426 L 179.571 374.971 Z  M 228.92 376.304 L 178.237 376.304 L 178.237 326.092 L 228.92 326.092 L 228.92 376.304 Z " fill="rgb(51,110,170)"/><path d=" M 276.944 228.611 L 206.187 228.611 L 206.187 277.49 L 276.944 277.49 L 276.944 228.611 Z " fill="rgb(69,149,229)"/><path d=" M 206.853 229.278 L 276.277 229.278 L 276.277 276.823 L 206.853 276.823 L 206.853 229.278 Z  M 277.611 227.944 L 205.52 227.944 L 205.52 278.156 L 277.611 278.156 L 277.611 227.944 Z " fill="rgb(51,110,170)"/><path d=" M 85.808 228.611 L 184.281 228.611 L 184.281 277.49 L 85.808 277.49 L 85.808 228.611 Z " fill="rgb(51,110,170)"/><path d=" M 86.475 229.278 L 183.615 229.278 L 183.615 276.823 L 86.475 276.823 L 86.475 229.278 Z  M 184.948 227.944 L 85.141 227.944 L 85.141 278.156 L 184.948 278.156 L 184.948 227.944 Z " fill="rgb(51,110,170)"/><path d=" M 113.523 228.611 L 184.281 228.611 L 184.281 277.49 L 113.523 277.49 L 113.523 228.611 Z " fill="rgb(69,149,229)"/><path d=" M 113.523 229.278 L 182.948 229.278 L 182.948 276.823 L 113.523 276.823 L 113.523 229.278 Z  M 184.281 227.944 L 112.189 227.944 L 112.189 278.156 L 184.281 278.156 L 184.281 227.944 Z " fill="rgb(51,110,170)"/><path d=" M 217.941 228.611 L 168.592 228.611 L 168.592 277.49 L 217.941 277.49 L 217.941 228.611 Z " fill="rgb(251,200,68)"/><path d=" M 169.259 229.278 L 217.275 229.278 L 217.275 276.823 L 169.259 276.823 L 169.259 229.278 Z  M 218.608 227.944 L 167.925 227.944 L 167.925 278.156 L 218.608 278.156 L 218.608 227.944 Z " fill="rgb(219,178,77)"/><path d=" M 217.941 228.611 L 168.592 228.611 L 168.592 277.49 L 217.941 277.49 L 217.941 228.611 Z " fill="rgb(219,178,77)"/><path d=" M 169.259 229.278 L 217.275 229.278 L 217.275 276.823 L 169.259 276.823 L 169.259 229.278 Z  M 218.608 227.944 L 167.925 227.944 L 167.925 278.156 L 218.608 278.156 L 218.608 227.944 Z " fill="rgb(251,200,68)"/><path d=" M 286.589 179.14 L 215.832 179.14 L 215.832 228.018 L 286.589 228.018 L 286.589 179.14 Z " fill="rgb(69,149,229)"/><path d=" M 216.499 179.806 L 285.923 179.806 L 285.923 227.352 L 216.499 227.352 L 216.499 179.806 Z  M 287.256 178.473 L 215.165 178.473 L 215.165 228.685 L 287.256 228.685 L 287.256 178.473 Z " fill="rgb(51,110,170)"/><path d=" M 95.453 179.14 L 193.927 179.14 L 193.927 228.018 L 95.453 228.018 L 95.453 179.14 Z " fill="rgb(51,110,170)"/><path d=" M 96.12 179.806 L 193.26 179.806 L 193.26 227.352 L 96.12 227.352 L 96.12 179.806 Z  M 194.593 178.473 L 94.787 178.473 L 94.787 228.685 L 194.593 228.685 L 194.593 178.473 Z " fill="rgb(51,110,170)"/><path d=" M 123.168 179.14 L 193.927 179.14 L 193.927 228.018 L 123.168 228.018 L 123.168 179.14 Z " fill="rgb(69,149,229)"/><path d=" M 123.835 179.806 L 193.26 179.806 L 193.26 227.352 L 123.835 227.352 L 123.835 179.806 Z  M 194.593 178.473 L 122.501 178.473 L 122.501 228.685 L 194.593 228.685 L 194.593 178.473 Z " fill="rgb(51,110,170)"/><path d=" M 227.587 179.14 L 178.237 179.14 L 178.237 228.018 L 227.587 228.018 L 227.587 179.14 Z " fill="rgb(251,200,68)"/><path d=" M 178.904 179.806 L 226.92 179.806 L 226.92 227.352 L 178.904 227.352 L 178.904 179.806 Z  M 228.253 178.473 L 177.571 178.473 L 177.571 228.685 L 228.253 228.685 L 228.253 178.473 Z " fill="rgb(51,110,170)"/><path d=" M 227.587 179.14 L 178.237 179.14 L 178.237 228.018 L 227.587 228.018 L 227.587 179.14 Z " fill="rgb(69,149,229)"/><path d=" M 178.904 179.806 L 226.92 179.806 L 226.92 227.352 L 178.904 227.352 L 178.904 179.806 Z  M 228.253 178.473 L 177.571 178.473 L 177.571 228.685 L 228.253 228.685 L 228.253 178.473 Z " fill="rgb(51,110,170)"/><path d=" M 301.864 326.759 L 372.621 326.759 L 372.621 277.88 L 301.864 277.88 L 301.864 326.759 Z " fill="rgb(69,149,229)"/><path d=" M 370.757 326.092 L 301.333 326.092 L 301.333 278.547 L 370.757 278.547 L 370.757 326.092 Z  M 300 327.426 L 372.091 327.426 L 372.091 277.214 L 300 277.214 L 300 327.426 Z " fill="rgb(51,110,170)"/><path d=" M 493 326.759 L 394.527 326.759 L 394.527 277.88 L 493 277.88 L 493 326.759 Z " fill="rgb(51,110,170)"/><path d=" M 492.333 326.092 L 395.193 326.092 L 395.193 278.547 L 492.333 278.547 L 492.333 326.092 Z  M 393.86 327.426 L 493.667 327.426 L 493.667 277.214 L 393.86 277.214 L 393.86 327.426 Z " fill="rgb(51,110,170)"/><path d=" M 465.285 326.759 L 394.527 326.759 L 394.527 277.88 L 465.285 277.88 L 465.285 326.759 Z " fill="rgb(69,149,229)"/><path d=" M 464.619 326.092 L 395.193 326.092 L 395.193 278.547 L 464.619 278.547 L 464.619 326.092 Z  M 393.86 327.426 L 465.952 327.426 L 465.952 277.214 L 393.86 277.214 L 393.86 327.426 Z " fill="rgb(51,110,170)"/><path d=" M 360.867 326.759 L 410.216 326.759 L 410.216 277.88 L 360.867 277.88 L 360.867 326.759 Z " fill="rgb(251,200,68)"/><path d=" M 409.549 326.092 L 361.533 326.092 L 361.533 278.547 L 409.549 278.547 L 409.549 326.092 Z  M 360.2 327.426 L 410.883 327.426 L 410.883 277.214 L 360.2 277.214 L 360.2 327.426 Z " fill="rgb(219,178,77)"/><path d=" M 360.867 326.759 L 410.216 326.759 L 410.216 277.88 L 360.867 277.88 L 360.867 326.759 Z " fill="rgb(69,149,229)"/><path d=" M 409.549 326.092 L 361.533 326.092 L 361.533 278.547 L 409.549 278.547 L 409.549 326.092 Z  M 360.2 327.426 L 410.883 327.426 L 410.883 277.214 L 360.2 277.214 L 360.2 327.426 Z " fill="rgb(51,110,170)"/><path d=" M 287.256 375.638 L 358.013 375.638 L 358.013 326.759 L 287.256 326.759 L 287.256 375.638 Z " fill="rgb(69,149,229)"/><path d=" M 357.347 374.971 L 287.923 374.971 L 287.923 327.426 L 357.347 327.426 L 357.347 374.971 Z  M 286.589 376.304 L 358.68 376.304 L 358.68 326.092 L 286.589 326.092 L 286.589 376.304 Z " fill="rgb(51,110,170)"/><path d=" M 478.392 375.638 L 379.919 375.638 L 379.919 326.759 L 478.392 326.759 L 478.392 375.638 Z " fill="rgb(51,110,170)"/><path d=" M 477.725 374.971 L 380.585 374.971 L 380.585 327.426 L 477.725 327.426 L 477.725 374.971 Z  M 379.252 376.304 L 479.059 376.304 L 479.059 326.092 L 379.252 326.092 L 379.252 376.304 Z " fill="rgb(51,110,170)"/><path d=" M 450.677 375.638 L 379.919 375.638 L 379.919 326.759 L 450.677 326.759 L 450.677 375.638 Z " fill="rgb(69,149,229)"/><path d=" M 450.011 374.971 L 380.585 374.971 L 380.585 327.426 L 450.011 327.426 L 450.011 374.971 Z  M 379.252 376.304 L 451.344 376.304 L 451.344 326.092 L 379.252 326.092 L 379.252 376.304 Z " fill="rgb(51,110,170)"/><path d=" M 346.259 375.638 L 395.608 375.638 L 395.608 326.759 L 346.259 326.759 L 346.259 375.638 Z " fill="rgb(251,200,68)"/><path d=" M 394.941 374.971 L 346.925 374.971 L 346.925 327.426 L 394.941 327.426 L 394.941 374.971 Z  M 345.592 376.304 L 396.275 376.304 L 396.275 326.092 L 345.592 326.092 L 345.592 376.304 Z " fill="rgb(51,110,170)"/><path d=" M 346.259 375.638 L 395.608 375.638 L 395.608 326.759 L 346.259 326.759 L 346.259 375.638 Z " fill="rgb(69,149,229)"/><path d=" M 394.941 374.971 L 346.925 374.971 L 346.925 327.426 L 394.941 327.426 L 394.941 374.971 Z  M 345.592 376.304 L 396.275 376.304 L 396.275 326.092 L 345.592 326.092 L 345.592 376.304 Z " fill="rgb(51,110,170)"/><path d=" M 277.611 228.685 L 348.368 228.685 L 348.368 277.564 L 277.611 277.564 L 277.611 228.685 Z " fill="rgb(69,149,229)"/><path d=" M 347.701 229.352 L 278.277 229.352 L 278.277 276.897 L 347.701 276.897 L 347.701 229.352 Z  M 276.944 228.018 L 349.035 228.018 L 349.035 278.23 L 276.944 278.23 L 276.944 228.018 Z " fill="rgb(51,110,170)"/><path d=" M 468.747 228.685 L 370.273 228.685 L 370.273 277.564 L 468.747 277.564 L 468.747 228.685 Z " fill="rgb(51,110,170)"/><path d=" M 468.08 229.378 L 370.94 229.378 L 370.94 277.87 L 468.08 277.87 L 468.08 229.378 Z  M 369.607 228.018 L 469.413 228.018 L 469.413 279.23 L 369.607 279.23 L 369.607 228.018 Z " fill="rgb(51,110,170)"/><path d=" M 441.032 228.685 L 370.273 228.685 L 370.273 277.564 L 441.032 277.564 L 441.032 228.685 Z " fill="rgb(69,149,229)"/><path d=" M 440.365 229.352 L 370.94 229.352 L 370.94 276.897 L 440.365 276.897 L 440.365 229.352 Z  M 369.607 228.018 L 441.699 228.018 L 441.699 278.23 L 369.607 278.23 L 369.607 228.018 Z " fill="rgb(51,110,170)"/><path d=" M 336.613 228.685 L 385.963 228.685 L 385.963 277.564 L 336.613 277.564 L 336.613 228.685 Z " fill="rgb(251,200,68)"/><path d=" M 336.613 228.685 L 385.963 228.685 L 385.963 277.564 L 336.613 277.564 L 336.613 228.685 Z " fill="rgb(69,149,229)"/><path d=" M 384.875 229.278 L 336.859 229.278 L 336.859 276.823 L 384.875 276.823 L 384.875 229.278 Z  M 335.525 227.944 L 386.208 227.944 L 386.208 278.156 L 335.525 278.156 L 335.525 227.944 Z " fill="rgb(51,110,170)"/><path d=" M 287.256 179.14 L 358.013 179.14 L 358.013 228.018 L 287.256 228.018 L 287.256 179.14 Z " fill="rgb(69,149,229)"/><path d=" M 357.347 179.806 L 287.923 179.806 L 287.923 227.352 L 357.347 227.352 L 357.347 179.806 Z  M 286.589 178.473 L 358.68 178.473 L 358.68 228.685 L 286.589 228.685 L 286.589 178.473 Z " fill="rgb(51,110,170)"/><path d=" M 478.392 179.14 L 379.919 179.14 L 379.919 228.018 L 478.392 228.018 L 478.392 179.14 Z " fill="rgb(51,110,170)"/><path d=" M 477.725 179.806 L 380.585 179.806 L 380.585 227.352 L 477.725 227.352 L 477.725 179.806 Z  M 379.252 178.473 L 479.059 178.473 L 479.059 228.685 L 379.252 228.685 L 379.252 178.473 Z " fill="rgb(51,110,170)"/><path d=" M 450.677 179.14 L 379.919 179.14 L 379.919 228.018 L 450.677 228.018 L 450.677 179.14 Z " fill="rgb(69,149,229)"/><path d=" M 450.011 179.806 L 380.585 179.806 L 380.585 227.352 L 450.011 227.352 L 450.011 179.806 Z  M 379.252 178.473 L 451.344 178.473 L 451.344 228.685 L 379.252 228.685 L 379.252 178.473 Z " fill="rgb(51,110,170)"/><path d=" M 346.259 179.14 L 395.608 179.14 L 395.608 228.018 L 346.259 228.018 L 346.259 179.14 Z " fill="rgb(251,200,68)"/><path d=" M 394.941 179.806 L 346.925 179.806 L 346.925 227.352 L 394.941 227.352 L 394.941 179.806 Z  M 345.592 178.473 L 396.275 178.473 L 396.275 228.685 L 345.592 228.685 L 345.592 178.473 Z " fill="rgb(51,110,170)"/><path d=" M 346.259 179.14 L 395.608 179.14 L 395.608 228.018 L 346.259 228.018 L 346.259 179.14 Z " fill="rgb(69,149,229)"/><path d=" M 394.941 179.806 L 346.925 179.806 L 346.925 227.352 L 394.941 227.352 L 394.941 179.806 Z  M 345.592 178.473 L 396.275 178.473 L 396.275 228.685 L 345.592 228.685 L 345.592 178.473 Z " fill="rgb(51,110,170)"/><g><g><path d=" M 426.591 196.959 C 433.188 198.088 438.215 203.84 438.215 210.757 C 438.215 218.483 431.942 224.756 424.215 224.756 C 416.489 224.756 410.216 218.483 410.216 210.757 C 410.216 203.857 415.218 198.117 421.791 196.967" fill="none" vector-effect="non-scaling-stroke" stroke-width="1" stroke="rgb(221,243,246)" stroke-linejoin="miter" stroke-linecap="round" stroke-miterlimit="3"/><path d=" M 429.415 211.568 C 435.635 212.633 437.297 209.355 437.415 210.374 C 437.415 217.659 431.5 223.574 424.215 223.574 C 416.93 223.574 411.016 217.659 411.016 210.374 C 411.016 203.869 423.169 210.501 429.415 211.568" fill="rgb(221,243,246)"/><path d=" M 419.016 211.568 C 412.796 212.633 411.134 209.355 411.016 210.374 C 411.016 217.659 416.93 223.574 424.215 223.574 C 431.5 223.574 437.415 217.659 437.415 210.374 C 437.415 203.869 425.261 210.501 419.016 211.568" fill="rgb(221,243,246)" fill-opacity="0.8"/><line x1="424.215" y1="194.358" x2="424.215" y2="200.757" vector-effect="non-scaling-stroke" stroke-width="1" stroke="rgb(221,243,246)" stroke-linejoin="miter" stroke-linecap="round" stroke-miterlimit="3"/></g><g><path d=" M 422.397 184.727 C 422.784 185.626 423.436 186.515 424.349 186.898 C 424.454 186.942 424.572 186.974 424.694 187.001 C 424.937 186.639 425.216 186.345 425.543 186.103 C 425.824 185.897 426.118 185.735 426.421 185.608 C 426.334 185.548 426.243 185.492 426.148 185.442 C 425.768 185.243 425.356 185.069 424.955 184.881 C 425.332 184.983 425.764 185.021 426.125 185.152 C 426.35 185.235 426.557 185.349 426.75 185.485 C 427.327 185.288 427.929 185.194 428.531 185.122 C 428.043 184.312 427.003 183.661 426.219 183.367 C 425.401 183.06 424.473 183.022 423.562 182.927 C 423.004 182.87 422.397 182.661 421.953 182.418 C 421.852 182.363 421.745 182.455 421.779 182.567 C 421.998 183.265 422.108 184.056 422.397 184.727 Z " fill="rgb(221,243,246)"/><path d=" M 432.037 184.62 C 431.01 185.178 429.832 185.247 428.678 185.379 C 428.114 185.444 427.556 185.525 427.025 185.685 C 426.91 185.72 426.795 185.759 426.682 185.803 C 426.347 185.931 426.023 186.099 425.718 186.324 C 425.431 186.535 425.197 186.784 424.999 187.059 C 424.684 187.498 424.465 188.003 424.285 188.527 C 423.956 189.479 423.805 190.491 423.834 191.498 C 423.846 191.906 423.853 192.331 423.953 192.729 C 423.976 192.817 423.998 192.929 424.066 192.994 C 424.155 193.08 424.315 192.992 424.279 192.867 C 424.021 191.986 424.182 190.957 424.539 190.116 C 424.949 189.148 425.742 188.573 426.71 188.222 C 426.968 188.129 427.231 188.047 427.498 187.97 C 427.503 187.968 427.508 187.968 427.514 187.968 C 427.567 187.968 427.59 188.046 427.535 188.071 C 427.22 188.213 426.907 188.357 426.609 188.512 C 425.152 189.272 424.516 191.042 425.062 191.042 C 425.107 191.042 425.159 191.03 425.218 191.005 C 426.061 190.656 427.062 190.653 427.988 190.482 C 428.314 190.422 428.631 190.34 428.929 190.217 C 430.11 189.724 430.955 188.759 431.458 187.6 C 431.832 186.734 431.978 185.713 432.261 184.814 C 432.298 184.698 432.217 184.6 432.117 184.6 C 432.092 184.599 432.065 184.605 432.037 184.62 Z " fill="rgb(221,243,246)"/></g></g><path d=" M 290.202 299.377 L 290.202 299.377 L 290.202 299.377 Q 292.614 299.377 293.893 301.965 L 293.893 301.965 L 293.893 301.965 Q 294.596 304.123 294.596 305.949 L 294.596 305.949 L 294.596 306.798 L 294.596 306.798 Q 294.596 309.054 293.668 311.34 L 293.668 311.34 L 293.668 311.34 Q 292.33 313.41 290.28 313.41 L 290.28 313.41 L 290.162 313.41 L 290.162 313.41 Q 287.936 313.41 286.657 311.047 L 286.657 311.047 L 286.657 311.047 Q 285.846 308.966 285.846 306.427 L 285.846 306.427 L 285.846 306.32 L 285.846 306.32 Q 285.846 303.625 286.803 301.447 L 286.803 301.447 L 286.803 301.447 Q 288.18 299.377 290.202 299.377 Z  M 287.174 306.213 L 287.174 306.213 L 287.174 306.613 L 287.174 306.613 Q 287.174 309.162 288.102 310.9 L 288.102 310.9 L 288.102 310.9 Q 289 312.004 290.133 312.004 L 290.133 312.004 L 290.241 312.004 L 290.241 312.004 Q 292.741 312.004 293.161 308.166 L 293.161 308.166 L 293.161 308.166 Q 293.268 307.56 293.307 306.359 L 293.307 306.359 L 293.307 306.359 Q 293.307 304.22 292.565 302.257 L 292.565 302.257 L 292.565 302.257 Q 291.647 300.783 290.241 300.783 L 290.241 300.783 L 290.241 300.783 Q 288.532 300.783 287.731 302.668 L 287.731 302.668 L 287.731 302.668 Q 287.174 304.513 287.174 306.213 Z  M 299.87 299.357 L 299.87 299.357 L 299.87 299.357 Q 301.539 299.357 302.711 300.841 L 302.711 300.841 L 302.711 300.841 Q 303.375 301.75 303.375 302.834 L 303.375 302.834 L 303.375 303.019 L 303.375 303.019 Q 303.375 304.484 302.047 305.685 L 302.047 305.685 L 302.047 305.685 Q 303.971 307.072 303.971 309.191 L 303.971 309.191 L 303.971 309.191 Q 303.971 311.291 302.047 312.707 L 302.047 312.707 L 302.047 312.707 Q 300.963 313.41 299.791 313.41 L 299.791 313.41 L 299.606 313.41 L 299.606 313.41 Q 297.594 313.41 296.129 311.418 L 296.129 311.418 L 296.129 311.418 Q 295.504 310.275 295.504 309.191 L 295.504 309.191 L 295.504 309.191 Q 295.504 307.004 297.575 305.539 L 297.575 305.539 L 297.575 305.539 Q 296.745 304.894 296.461 303.761 L 296.461 303.761 L 296.461 303.761 Q 296.354 303.488 296.354 303.019 L 296.354 303.019 L 296.354 302.834 L 296.354 302.834 Q 296.354 300.978 298.131 299.845 L 298.131 299.845 L 298.131 299.845 Q 299.02 299.357 299.87 299.357 Z  M 297.868 302.355 L 297.799 302.98 L 297.799 302.98 Q 297.799 304.377 299.459 304.943 L 299.459 304.943 L 299.87 304.982 L 299.87 304.982 Q 301.325 304.982 301.862 303.429 L 301.862 303.429 L 301.94 302.912 L 301.94 302.912 Q 301.94 301.379 300.309 300.881 L 300.309 300.881 L 299.83 300.841 L 299.83 300.841 Q 298.414 300.841 297.868 302.355 L 297.868 302.355 Z  M 297.057 308.459 L 296.95 309.162 L 296.95 309.162 Q 296.95 311.115 298.981 311.857 L 298.981 311.857 L 298.981 311.857 Q 299.254 311.965 299.791 311.965 L 299.791 311.965 L 299.791 311.965 Q 301.627 311.965 302.418 309.933 L 302.418 309.933 L 302.496 309.377 L 302.496 309.006 L 302.496 309.006 Q 302.496 307.433 300.68 306.574 L 300.68 306.574 L 300.68 306.574 Q 300.172 306.418 299.752 306.418 L 299.752 306.418 L 299.752 306.418 Q 297.77 306.418 297.057 308.459 L 297.057 308.459 Z  M 309.352 299.377 L 309.352 299.377 L 309.352 299.377 Q 311.764 299.377 313.043 301.965 L 313.043 301.965 L 313.043 301.965 Q 313.746 304.123 313.746 305.949 L 313.746 305.949 L 313.746 306.798 L 313.746 306.798 Q 313.746 309.054 312.819 311.34 L 312.819 311.34 L 312.819 311.34 Q 311.481 313.41 309.43 313.41 L 309.43 313.41 L 309.313 313.41 L 309.313 313.41 Q 307.086 313.41 305.807 311.047 L 305.807 311.047 L 305.807 311.047 Q 304.996 308.966 304.996 306.427 L 304.996 306.427 L 304.996 306.32 L 304.996 306.32 Q 304.996 303.625 305.953 301.447 L 305.953 301.447 L 305.953 301.447 Q 307.33 299.377 309.352 299.377 Z  M 306.325 306.213 L 306.325 306.213 L 306.325 306.613 L 306.325 306.613 Q 306.325 309.162 307.252 310.9 L 307.252 310.9 L 307.252 310.9 Q 308.151 312.004 309.284 312.004 L 309.284 312.004 L 309.391 312.004 L 309.391 312.004 Q 311.891 312.004 312.311 308.166 L 312.311 308.166 L 312.311 308.166 Q 312.418 307.56 312.457 306.359 L 312.457 306.359 L 312.457 306.359 Q 312.457 304.22 311.715 302.257 L 311.715 302.257 L 311.715 302.257 Q 310.797 300.783 309.391 300.783 L 309.391 300.783 L 309.391 300.783 Q 307.682 300.783 306.881 302.668 L 306.881 302.668 L 306.881 302.668 Q 306.325 304.513 306.325 306.213 Z  M 315.68 299.455 L 315.68 299.455 L 322.789 299.455 L 322.789 299.455 Q 323.453 299.591 323.453 300.041 L 323.453 300.041 L 323.453 300.226 L 323.453 300.226 Q 323.453 300.422 323.082 300.968 L 323.082 300.968 L 316.159 313.224 L 316.159 313.224 Q 315.885 313.41 315.68 313.41 L 315.68 313.41 L 315.651 313.41 L 315.651 313.41 Q 314.948 313.283 314.948 312.707 L 314.948 312.707 L 314.948 312.599 L 314.948 312.599 Q 315.045 312.248 321.393 301.076 L 321.393 301.076 L 321.461 300.89 L 315.797 300.89 L 315.797 300.89 Q 315.055 300.744 315.055 300.158 L 315.055 300.158 L 315.055 300.158 Q 315.211 299.455 315.68 299.455 Z  M 250.866 299.386 L 250.866 299.386 L 250.866 299.386 Q 252.858 299.386 254.332 301.164 L 254.332 301.164 L 254.332 301.164 Q 255.104 302.336 255.104 303.595 L 255.104 303.595 L 255.104 303.595 Q 255.104 305.519 253.219 307.287 L 253.219 307.287 L 249.127 311.974 L 254.625 311.974 L 254.625 311.974 Q 255.172 311.974 255.289 312.668 L 255.289 312.668 L 255.289 312.707 L 255.289 312.707 Q 255.182 313.41 254.586 313.41 L 254.586 313.41 L 247.428 313.41 L 247.428 313.41 Q 246.735 313.283 246.735 312.707 L 246.735 312.707 L 246.735 312.668 L 246.735 312.668 Q 246.735 312.316 247.428 311.672 L 247.428 311.672 L 253.151 305.148 L 253.151 305.148 Q 253.629 304.465 253.629 303.595 L 253.629 303.595 L 253.629 303.595 Q 253.629 301.72 251.676 300.978 L 251.676 300.978 L 251.676 300.978 Q 251.354 300.871 250.934 300.871 L 250.934 300.871 L 250.827 300.871 L 250.827 300.871 Q 249.03 300.871 248.239 302.785 L 248.239 302.785 L 248.239 302.785 Q 248.131 303.185 248.092 303.742 L 248.092 303.742 L 248.092 303.742 Q 247.838 304.259 247.428 304.259 L 247.428 304.259 L 247.36 304.259 L 247.36 304.259 Q 246.657 304.132 246.657 303.595 L 246.657 303.595 L 246.657 303.595 Q 246.657 301.388 248.756 299.982 L 248.756 299.982 L 248.756 299.982 Q 249.879 299.386 250.866 299.386 Z  M 260.553 299.357 L 260.553 299.357 L 260.553 299.357 Q 262.223 299.357 263.395 300.841 L 263.395 300.841 L 263.395 300.841 Q 264.059 301.75 264.059 302.834 L 264.059 302.834 L 264.059 303.019 L 264.059 303.019 Q 264.059 304.484 262.731 305.685 L 262.731 305.685 L 262.731 305.685 Q 264.655 307.072 264.655 309.191 L 264.655 309.191 L 264.655 309.191 Q 264.655 311.291 262.731 312.707 L 262.731 312.707 L 262.731 312.707 Q 261.647 313.41 260.475 313.41 L 260.475 313.41 L 260.289 313.41 L 260.289 313.41 Q 258.278 313.41 256.813 311.418 L 256.813 311.418 L 256.813 311.418 Q 256.188 310.275 256.188 309.191 L 256.188 309.191 L 256.188 309.191 Q 256.188 307.004 258.258 305.539 L 258.258 305.539 L 258.258 305.539 Q 257.428 304.894 257.145 303.761 L 257.145 303.761 L 257.145 303.761 Q 257.037 303.488 257.037 303.019 L 257.037 303.019 L 257.037 302.834 L 257.037 302.834 Q 257.037 300.978 258.815 299.845 L 258.815 299.845 L 258.815 299.845 Q 259.703 299.357 260.553 299.357 Z  M 258.551 302.355 L 258.483 302.98 L 258.483 302.98 Q 258.483 304.377 260.143 304.943 L 260.143 304.943 L 260.553 304.982 L 260.553 304.982 Q 262.008 304.982 262.545 303.429 L 262.545 303.429 L 262.623 302.912 L 262.623 302.912 Q 262.623 301.379 260.993 300.881 L 260.993 300.881 L 260.514 300.841 L 260.514 300.841 Q 259.098 300.841 258.551 302.355 L 258.551 302.355 Z  M 257.741 308.459 L 257.633 309.162 L 257.633 309.162 Q 257.633 311.115 259.664 311.857 L 259.664 311.857 L 259.664 311.857 Q 259.938 311.965 260.475 311.965 L 260.475 311.965 L 260.475 311.965 Q 262.311 311.965 263.102 309.933 L 263.102 309.933 L 263.18 309.377 L 263.18 309.006 L 263.18 309.006 Q 263.18 307.433 261.364 306.574 L 261.364 306.574 L 261.364 306.574 Q 260.856 306.418 260.436 306.418 L 260.436 306.418 L 260.436 306.418 Q 258.453 306.418 257.741 308.459 L 257.741 308.459 Z  M 270.036 299.377 L 270.036 299.377 L 270.036 299.377 Q 272.448 299.377 273.727 301.965 L 273.727 301.965 L 273.727 301.965 Q 274.43 304.123 274.43 305.949 L 274.43 305.949 L 274.43 306.798 L 274.43 306.798 Q 274.43 309.054 273.502 311.34 L 273.502 311.34 L 273.502 311.34 Q 272.164 313.41 270.114 313.41 L 270.114 313.41 L 269.996 313.41 L 269.996 313.41 Q 267.77 313.41 266.491 311.047 L 266.491 311.047 L 266.491 311.047 Q 265.68 308.966 265.68 306.427 L 265.68 306.427 L 265.68 306.32 L 265.68 306.32 Q 265.68 303.625 266.637 301.447 L 266.637 301.447 L 266.637 301.447 Q 268.014 299.377 270.036 299.377 Z  M 267.008 306.213 L 267.008 306.213 L 267.008 306.613 L 267.008 306.613 Q 267.008 309.162 267.936 310.9 L 267.936 310.9 L 267.936 310.9 Q 268.834 312.004 269.967 312.004 L 269.967 312.004 L 270.075 312.004 L 270.075 312.004 Q 272.575 312.004 272.995 308.166 L 272.995 308.166 L 272.995 308.166 Q 273.102 307.56 273.141 306.359 L 273.141 306.359 L 273.141 306.359 Q 273.141 304.22 272.399 302.257 L 272.399 302.257 L 272.399 302.257 Q 271.481 300.783 270.075 300.783 L 270.075 300.783 L 270.075 300.783 Q 268.366 300.783 267.565 302.668 L 267.565 302.668 L 267.565 302.668 Q 267.008 304.513 267.008 306.213 Z  M 277.213 299.709 L 278.317 299.377 L 278.434 299.377 L 278.434 299.377 Q 279.098 299.523 279.098 300.011 L 279.098 300.011 L 279.098 312.707 L 279.098 312.707 Q 278.971 313.41 278.395 313.41 L 278.395 313.41 L 278.356 313.41 L 278.356 313.41 Q 277.653 313.263 277.653 312.785 L 277.653 312.785 L 277.653 301.086 L 277.653 301.086 Q 276.657 301.418 276.354 301.418 L 276.354 301.418 L 276.354 301.418 Q 275.895 301.418 275.729 300.744 L 275.729 300.744 L 275.729 300.558 L 275.729 300.558 Q 275.729 300.011 277.213 299.709 L 277.213 299.709 Z  M 208.161 299.377 L 208.161 299.377 L 208.161 299.377 Q 210.573 299.377 211.852 301.965 L 211.852 301.965 L 211.852 301.965 Q 212.555 304.123 212.555 305.949 L 212.555 305.949 L 212.555 306.798 L 212.555 306.798 Q 212.555 309.054 211.627 311.34 L 211.627 311.34 L 211.627 311.34 Q 210.289 313.41 208.239 313.41 L 208.239 313.41 L 208.121 313.41 L 208.121 313.41 Q 205.895 313.41 204.616 311.047 L 204.616 311.047 L 204.616 311.047 Q 203.805 308.966 203.805 306.427 L 203.805 306.427 L 203.805 306.32 L 203.805 306.32 Q 203.805 303.625 204.762 301.447 L 204.762 301.447 L 204.762 301.447 Q 206.139 299.377 208.161 299.377 Z  M 205.133 306.213 L 205.133 306.213 L 205.133 306.613 L 205.133 306.613 Q 205.133 309.162 206.061 310.9 L 206.061 310.9 L 206.061 310.9 Q 206.959 312.004 208.092 312.004 L 208.092 312.004 L 208.2 312.004 L 208.2 312.004 Q 210.7 312.004 211.12 308.166 L 211.12 308.166 L 211.12 308.166 Q 211.227 307.56 211.266 306.359 L 211.266 306.359 L 211.266 306.359 Q 211.266 304.22 210.524 302.257 L 210.524 302.257 L 210.524 302.257 Q 209.606 300.783 208.2 300.783 L 208.2 300.783 L 208.2 300.783 Q 206.491 300.783 205.69 302.668 L 205.69 302.668 L 205.69 302.668 Q 205.133 304.513 205.133 306.213 Z  M 219.02 299.386 L 219.02 299.386 L 219.02 299.386 Q 219.518 299.386 219.684 300.129 L 219.684 300.129 L 219.684 300.129 Q 219.684 300.422 218.795 301.818 L 218.795 301.818 L 216.959 305.021 L 216.959 305.06 L 217.516 305.021 L 217.838 305.021 L 217.838 305.021 Q 219.85 305.021 221.266 307.043 L 221.266 307.043 L 221.266 307.043 Q 221.891 308.156 221.891 309.211 L 221.891 309.211 L 221.891 309.211 Q 221.891 311.3 219.977 312.707 L 219.977 312.707 L 219.977 312.707 Q 218.893 313.41 217.731 313.41 L 217.731 313.41 L 217.545 313.41 L 217.545 313.41 Q 215.543 313.41 214.088 311.418 L 214.088 311.418 L 214.088 311.418 Q 213.463 310.285 213.463 309.211 L 213.463 309.211 L 213.463 309.211 Q 213.463 307.795 214.498 306.418 L 214.498 306.418 L 218.473 299.572 L 218.473 299.572 Q 218.776 299.386 219.02 299.386 Z  M 215.006 308.439 L 214.938 309.035 L 214.938 309.396 L 214.938 309.396 Q 214.938 310.91 216.666 311.789 L 216.666 311.789 L 216.666 311.789 Q 217.155 311.935 217.662 311.974 L 217.662 311.974 L 217.662 311.974 Q 219.518 311.974 220.309 310.021 L 220.309 310.021 L 220.416 309.328 L 220.416 309.181 L 220.416 309.181 Q 220.416 307.248 218.317 306.525 L 218.317 306.525 L 217.623 306.457 L 217.623 306.457 Q 215.817 306.457 215.006 308.439 L 215.006 308.439 Z  M 226.959 299.386 L 226.959 299.386 L 226.959 299.386 Q 228.952 299.386 230.426 301.164 L 230.426 301.164 L 230.426 301.164 Q 231.198 302.336 231.198 303.595 L 231.198 303.595 L 231.198 303.595 Q 231.198 305.519 229.313 307.287 L 229.313 307.287 L 225.221 311.974 L 230.719 311.974 L 230.719 311.974 Q 231.266 311.974 231.383 312.668 L 231.383 312.668 L 231.383 312.707 L 231.383 312.707 Q 231.276 313.41 230.68 313.41 L 230.68 313.41 L 223.522 313.41 L 223.522 313.41 Q 222.828 313.283 222.828 312.707 L 222.828 312.707 L 222.828 312.668 L 222.828 312.668 Q 222.828 312.316 223.522 311.672 L 223.522 311.672 L 229.245 305.148 L 229.245 305.148 Q 229.723 304.465 229.723 303.595 L 229.723 303.595 L 229.723 303.595 Q 229.723 301.72 227.77 300.978 L 227.77 300.978 L 227.77 300.978 Q 227.448 300.871 227.028 300.871 L 227.028 300.871 L 226.92 300.871 L 226.92 300.871 Q 225.123 300.871 224.332 302.785 L 224.332 302.785 L 224.332 302.785 Q 224.225 303.185 224.186 303.742 L 224.186 303.742 L 224.186 303.742 Q 223.932 304.259 223.522 304.259 L 223.522 304.259 L 223.453 304.259 L 223.453 304.259 Q 222.75 304.132 222.75 303.595 L 222.75 303.595 L 222.75 303.595 Q 222.75 301.388 224.85 299.982 L 224.85 299.982 L 224.85 299.982 Q 225.973 299.386 226.959 299.386 Z  M 233.307 299.455 L 233.307 299.455 L 240.416 299.455 L 240.416 299.455 Q 241.08 299.591 241.08 300.041 L 241.08 300.041 L 241.08 300.226 L 241.08 300.226 Q 241.08 300.422 240.709 300.968 L 240.709 300.968 L 233.786 313.224 L 233.786 313.224 Q 233.512 313.41 233.307 313.41 L 233.307 313.41 L 233.278 313.41 L 233.278 313.41 Q 232.575 313.283 232.575 312.707 L 232.575 312.707 L 232.575 312.599 L 232.575 312.599 Q 232.672 312.248 239.02 301.076 L 239.02 301.076 L 239.088 300.89 L 233.424 300.89 L 233.424 300.89 Q 232.682 300.744 232.682 300.158 L 232.682 300.158 L 232.682 300.158 Q 232.838 299.455 233.307 299.455 Z  M 169.332 299.425 L 169.332 299.425 L 169.332 299.425 Q 170.973 299.425 172.164 300.9 L 172.164 300.9 L 172.164 300.9 Q 172.828 301.798 172.828 302.882 L 172.828 302.882 L 172.828 303.029 L 172.828 303.029 Q 172.828 304.552 171.5 305.715 L 171.5 305.715 L 171.5 305.715 Q 173.414 307.101 173.414 309.211 L 173.414 309.211 L 173.414 309.211 Q 173.414 311.388 171.354 312.824 L 171.354 312.824 L 171.354 312.824 Q 170.289 313.41 169.254 313.41 L 169.254 313.41 L 169.147 313.41 L 169.147 313.41 Q 166.686 313.41 165.319 310.871 L 165.319 310.871 L 165.319 310.871 Q 164.987 309.933 164.987 309.181 L 164.987 309.181 L 164.987 309.181 Q 164.987 308.664 165.758 308.517 L 165.758 308.517 L 165.758 308.517 Q 166.315 308.517 166.422 309.25 L 166.422 309.25 L 166.422 309.25 Q 166.422 310.832 168.082 311.75 L 168.082 311.75 L 168.082 311.75 Q 168.688 311.974 169.254 311.974 L 169.254 311.974 L 169.254 311.974 Q 170.905 311.974 171.754 310.246 L 171.754 310.246 L 171.754 310.246 Q 171.94 309.728 171.94 309.357 L 171.94 309.357 L 171.94 309.064 L 171.94 309.064 Q 171.94 307.502 170.211 306.642 L 170.211 306.642 L 169 306.379 L 169 306.379 Q 168.629 306.095 168.629 305.754 L 168.629 305.754 L 168.629 305.715 L 168.629 305.715 Q 168.629 305.021 169.625 305.021 L 169.625 305.021 L 169.625 305.021 Q 170.348 305.021 171.129 304.064 L 171.129 304.064 L 171.129 304.064 Q 171.422 303.439 171.422 302.922 L 171.422 302.922 L 171.422 302.922 Q 171.422 301.73 170.25 301.086 L 170.25 301.086 L 170.25 301.086 Q 169.83 300.861 169.293 300.861 L 169.293 300.861 L 169.293 300.861 Q 167.926 300.861 167.34 302.336 L 167.34 302.336 L 167.34 302.336 Q 167.223 303.4 167.086 303.4 L 167.086 303.4 L 167.086 303.4 Q 166.823 303.693 166.569 303.693 L 166.569 303.693 L 166.569 303.693 Q 165.836 303.527 165.836 303.068 L 165.836 303.068 L 165.836 302.882 L 165.836 302.882 Q 165.836 300.968 167.75 299.826 L 167.75 299.826 L 167.75 299.826 Q 168.483 299.465 169.332 299.425 Z  M 178.522 299.396 L 178.522 299.396 L 178.522 299.396 Q 180.709 299.396 182.106 301.486 L 182.106 301.486 L 182.106 301.486 Q 182.692 302.599 182.692 303.566 L 182.692 303.566 L 182.692 303.566 Q 182.692 305.138 181.412 306.642 L 181.412 306.642 L 176.51 313.224 L 176.51 313.224 Q 176.246 313.41 176.032 313.41 L 176.032 313.41 L 176.032 313.41 Q 175.299 313.263 175.299 312.677 L 175.299 312.677 L 175.299 312.677 Q 175.299 312.345 176.471 310.92 L 176.471 310.92 L 178.815 307.736 L 178.776 307.736 L 178.561 307.775 L 178.561 307.775 Q 176.159 307.775 174.791 305.509 L 174.791 305.509 L 174.791 305.509 Q 174.313 304.513 174.313 303.566 L 174.313 303.566 L 174.313 303.566 Q 174.313 301.242 176.578 299.875 L 176.578 299.875 L 176.578 299.875 Q 177.565 299.396 178.522 299.396 Z  M 175.778 303.42 L 175.778 303.42 L 175.778 303.752 L 175.778 303.752 Q 175.778 305.207 177.389 306.095 L 177.389 306.095 L 177.389 306.095 Q 177.877 306.31 178.522 306.31 L 178.522 306.31 L 178.522 306.31 Q 180.104 306.31 180.934 304.816 L 180.934 304.816 L 180.934 304.816 Q 181.227 304.259 181.227 303.605 L 181.227 303.605 L 181.227 303.566 L 181.227 303.566 Q 181.227 301.701 179.293 300.968 L 179.293 300.968 L 179.293 300.968 Q 179.02 300.861 178.561 300.861 L 178.561 300.861 L 178.336 300.861 L 178.336 300.861 Q 176.784 300.861 175.924 302.619 L 175.924 302.619 L 175.924 302.619 Q 175.778 303.136 175.778 303.42 Z  M 188.17 299.357 L 188.17 299.357 L 188.17 299.357 Q 189.84 299.357 191.012 300.841 L 191.012 300.841 L 191.012 300.841 Q 191.676 301.75 191.676 302.834 L 191.676 302.834 L 191.676 303.019 L 191.676 303.019 Q 191.676 304.484 190.348 305.685 L 190.348 305.685 L 190.348 305.685 Q 192.272 307.072 192.272 309.191 L 192.272 309.191 L 192.272 309.191 Q 192.272 311.291 190.348 312.707 L 190.348 312.707 L 190.348 312.707 Q 189.264 313.41 188.092 313.41 L 188.092 313.41 L 187.907 313.41 L 187.907 313.41 Q 185.895 313.41 184.43 311.418 L 184.43 311.418 L 184.43 311.418 Q 183.805 310.275 183.805 309.191 L 183.805 309.191 L 183.805 309.191 Q 183.805 307.004 185.875 305.539 L 185.875 305.539 L 185.875 305.539 Q 185.045 304.894 184.762 303.761 L 184.762 303.761 L 184.762 303.761 Q 184.655 303.488 184.655 303.019 L 184.655 303.019 L 184.655 302.834 L 184.655 302.834 Q 184.655 300.978 186.432 299.845 L 186.432 299.845 L 186.432 299.845 Q 187.321 299.357 188.17 299.357 Z  M 186.168 302.355 L 186.1 302.98 L 186.1 302.98 Q 186.1 304.377 187.76 304.943 L 187.76 304.943 L 188.17 304.982 L 188.17 304.982 Q 189.625 304.982 190.162 303.429 L 190.162 303.429 L 190.241 302.912 L 190.241 302.912 Q 190.241 301.379 188.61 300.881 L 188.61 300.881 L 188.131 300.841 L 188.131 300.841 Q 186.715 300.841 186.168 302.355 L 186.168 302.355 Z  M 185.358 308.459 L 185.25 309.162 L 185.25 309.162 Q 185.25 311.115 187.282 311.857 L 187.282 311.857 L 187.282 311.857 Q 187.555 311.965 188.092 311.965 L 188.092 311.965 L 188.092 311.965 Q 189.928 311.965 190.719 309.933 L 190.719 309.933 L 190.797 309.377 L 190.797 309.006 L 190.797 309.006 Q 190.797 307.433 188.981 306.574 L 188.981 306.574 L 188.981 306.574 Q 188.473 306.418 188.053 306.418 L 188.053 306.418 L 188.053 306.418 Q 186.071 306.418 185.358 308.459 L 185.358 308.459 Z  M 195.172 299.709 L 196.276 299.377 L 196.393 299.377 L 196.393 299.377 Q 197.057 299.523 197.057 300.011 L 197.057 300.011 L 197.057 312.707 L 197.057 312.707 Q 196.93 313.41 196.354 313.41 L 196.354 313.41 L 196.315 313.41 L 196.315 313.41 Q 195.612 313.263 195.612 312.785 L 195.612 312.785 L 195.612 301.086 L 195.612 301.086 Q 194.616 301.418 194.313 301.418 L 194.313 301.418 L 194.313 301.418 Q 193.854 301.418 193.688 300.744 L 193.688 300.744 L 193.688 300.558 L 193.688 300.558 Q 193.688 300.011 195.172 299.709 L 195.172 299.709 Z " fill="rgb(0,39,89)"/></g></svg>