<?xml version="1.0" encoding="UTF-8" standalone="no"?><!-- Generator: Gravit.io --><svg xmlns="http://www.w3.org/2000/svg" xmlns:xlink="http://www.w3.org/1999/xlink" style="isolation:isolate" viewBox="0 0 600 600" width="600pt" height="600pt"><defs><clipPath id="_clipPath_QlhQONmBJKr8RczPfuKHlnU9fPhlBUNI"><rect width="600" height="600"/></clipPath></defs><g clip-path="url(#_clipPath_QlhQONmBJKr8RczPfuKHlnU9fPhlBUNI)"><path d=" M 300.287 552.073 C 206.071 552.073 129.695 541.736 129.695 528.984 C 129.695 516.231 206.071 505.895 300.287 505.895 C 394.5 505.895 470.879 516.231 470.879 528.984 C 470.879 541.736 394.5 552.073 300.287 552.073" fill="rgb(221,243,246)"/><path d=" M 324.375 242.405 L 388.583 242.405 L 387.085 235.043 L 322.877 235.043 L 324.375 242.405 Z " fill="rgb(108,98,183)"/><path d=" M 348.76 189.032 L 284.552 189.032 L 286.045 181.668 L 350.252 181.668 L 348.76 189.032 Z " fill="rgb(135,129,200)"/><path d=" M 337.913 242.405 L 273.705 242.405 L 275.203 235.043 L 339.411 235.043 L 337.913 242.405 Z " fill="rgb(135,129,200)"/><path d=" M 327.069 295.781 L 262.863 295.781 L 264.36 288.42 L 328.564 288.42 L 327.069 295.781 Z " fill="rgb(135,129,200)"/><path d=" M 316.228 349.157 L 252.019 349.157 L 253.516 341.797 L 317.728 341.797 L 316.228 349.157 Z " fill="rgb(135,129,200)"/><path d=" M 336.075 383.447 L 336.075 403.688 L 252.823 403.688 L 252.823 366.725 L 336.075 366.725 L 336.075 383.447 Z " fill="rgb(51,110,170)"/><path d=" M 253.489 403.021 L 335.408 403.021 L 335.408 367.392 L 253.489 367.392 L 253.489 403.021 Z  M 336.741 404.355 L 252.156 404.355 L 252.156 366.059 L 336.741 366.059 L 336.741 404.355 Z " fill="rgb(51,110,170)"/><path d=" M 321.921 403.688 L 252.823 403.688 L 252.823 366.725 L 321.921 366.725 L 321.921 403.688 Z " fill="rgb(69,149,229)"/><path d=" M 253.489 403.021 L 321.255 403.021 L 321.255 367.392 L 253.489 367.392 L 253.489 403.021 Z  M 322.588 404.355 L 252.156 404.355 L 252.156 366.059 L 322.588 366.059 L 322.588 404.355 Z " fill="rgb(51,110,170)"/><path d=" M 223.311 367.148 L 297.775 367.148 L 297.775 330.187 L 223.311 330.187 L 223.311 367.148 Z " fill="rgb(51,110,170)"/><path d=" M 223.977 366.481 L 297.108 366.481 L 297.108 330.853 L 223.977 330.853 L 223.977 366.481 Z  M 298.441 367.815 L 222.644 367.815 L 222.644 329.52 L 298.441 329.52 L 298.441 367.815 Z " fill="rgb(51,110,170)"/><path d=" M 235.971 367.148 L 297.775 367.148 L 297.775 330.187 L 235.971 330.187 L 235.971 367.148 Z " fill="rgb(69,149,229)"/><path d=" M 236.637 366.481 L 297.108 366.481 L 297.108 330.853 L 236.637 330.853 L 236.637 366.481 Z  M 298.441 367.815 L 235.304 367.815 L 235.304 329.52 L 298.441 329.52 L 298.441 367.815 Z " fill="rgb(51,110,170)"/><path d=" M 195.204 330.609 L 281.165 330.609 L 281.165 287.94 L 195.204 287.94 L 195.204 330.609 Z " fill="rgb(51,110,170)"/><path d=" M 195.871 329.943 L 280.499 329.943 L 280.499 288.607 L 195.871 288.607 L 195.871 329.943 Z  M 281.832 331.276 L 194.537 331.276 L 194.537 287.273 L 281.832 287.273 L 281.832 331.276 Z " fill="rgb(51,110,170)"/><path d=" M 219.397 330.609 L 281.165 330.609 L 281.165 287.94 L 219.397 287.94 L 219.397 330.609 Z " fill="rgb(69,149,229)"/><path d=" M 220.064 329.943 L 280.499 329.943 L 280.499 288.607 L 220.064 288.607 L 220.064 329.943 Z  M 281.832 331.276 L 218.731 331.276 L 218.731 287.273 L 281.832 287.273 L 281.832 331.276 Z " fill="rgb(51,110,170)"/><path d=" M 386.247 330.609 L 300.287 330.609 L 300.287 287.94 L 386.247 287.94 L 386.247 330.609" fill="rgb(51,110,170)"/><path d=" M 300.953 329.943 L 385.58 329.943 L 385.58 288.607 L 300.953 288.607 L 300.953 329.943 Z  M 386.913 331.276 L 299.62 331.276 L 299.62 287.273 L 386.913 287.273 L 386.913 331.276 Z " fill="rgb(51,110,170)"/><path d=" M 362.053 330.609 L 300.287 330.609 L 300.287 287.94 L 362.053 287.94 L 362.053 330.609 Z " fill="rgb(69,149,229)"/><path d=" M 300.953 329.943 L 361.387 329.943 L 361.387 288.607 L 300.953 288.607 L 300.953 329.943 Z  M 362.72 331.276 L 299.62 331.276 L 299.62 287.273 L 362.72 287.273 L 362.72 331.276 Z " fill="rgb(51,110,170)"/><path d=" M 371.939 367.148 L 297.475 367.148 L 297.475 330.187 L 371.939 330.187 L 371.939 367.148 Z " fill="rgb(51,110,170)"/><path d=" M 298.141 366.481 L 371.272 366.481 L 371.272 330.853 L 298.141 330.853 L 298.141 366.481 Z  M 372.605 367.815 L 296.808 367.815 L 296.808 329.52 L 372.605 329.52 L 372.605 367.815 Z " fill="rgb(51,110,170)"/><path d=" M 359.277 367.148 L 297.475 367.148 L 297.475 330.187 L 359.277 330.187 L 359.277 367.148 Z " fill="rgb(69,149,229)"/><path d=" M 298.141 366.481 L 358.611 366.481 L 358.611 330.853 L 298.141 330.853 L 298.141 366.481 Z  M 359.944 367.815 L 296.808 367.815 L 296.808 329.52 L 359.944 329.52 L 359.944 367.815 Z " fill="rgb(51,110,170)"/><path d=" M 211.825 195.597 L 286.289 195.597 L 286.289 153.126 L 211.825 153.126 L 211.825 195.597 Z " fill="rgb(51,110,170)"/><path d=" M 285.623 194.831 L 212.492 194.831 L 212.492 153.892 L 285.623 153.892 L 285.623 194.831 Z  M 211.159 196.363 L 286.956 196.363 L 286.956 152.36 L 211.159 152.36 L 211.159 196.363 Z " fill="rgb(51,110,170)"/><path d=" M 224.487 195.597 L 286.289 195.597 L 286.289 153.126 L 224.487 153.126 L 224.487 195.597 Z " fill="rgb(69,149,229)"/><path d=" M 285.623 194.831 L 225.153 194.831 L 225.153 153.892 L 285.623 153.892 L 285.623 194.831 Z  M 223.82 196.363 L 286.956 196.363 L 286.956 152.36 L 223.82 152.36 L 223.82 196.363 Z " fill="rgb(51,110,170)"/><path d=" M 270.901 330.609 L 313.981 330.609 L 313.981 287.94 L 270.901 287.94 L 270.901 330.609" fill="rgb(69,149,229)"/><path d=" M 271.568 329.943 L 313.315 329.943 L 313.315 288.607 L 271.568 288.607 L 271.568 329.943 Z  M 314.648 331.276 L 270.235 331.276 L 270.235 287.273 L 314.648 287.273 L 314.648 331.276 Z " fill="rgb(51,110,170)"/><path d=" M 246.88 533.917 L 293.503 533.917 L 293.503 500.416 L 246.88 500.416 L 246.88 533.917 Z " fill="rgb(77,48,0)"/><path d=" M 247.547 533.251 L 292.836 533.251 L 292.836 501.083 L 247.547 501.083 L 247.547 533.251 Z  M 294.169 534.584 L 246.213 534.584 L 246.213 499.749 L 294.169 499.749 L 294.169 534.584 Z " fill="rgb(77,48,0)"/><path d=" M 260.827 533.917 L 293.488 533.917 L 293.488 500.416 L 260.827 500.416 L 260.827 533.917 Z " fill="rgb(153,96,0)"/><path d=" M 261.493 533.251 L 292.821 533.251 L 292.821 501.083 L 261.493 501.083 L 261.493 533.251 Z  M 294.155 534.584 L 260.16 534.584 L 260.16 499.749 L 294.155 499.749 L 294.155 534.584 Z " fill="rgb(77,48,0)"/><path d=" M 339.939 533.917 L 293.315 533.917 L 293.315 500.416 L 339.939 500.416 L 339.939 533.917 Z " fill="rgb(77,48,0)"/><path d=" M 293.981 533.251 L 339.272 533.251 L 339.272 501.083 L 293.981 501.083 L 293.981 533.251 Z  M 340.605 534.584 L 292.648 534.584 L 292.648 499.749 L 340.605 499.749 L 340.605 534.584 Z " fill="rgb(77,48,0)"/><path d=" M 325.989 533.917 L 293.329 533.917 L 293.329 500.416 L 325.989 500.416 L 325.989 533.917 Z " fill="rgb(153,96,0)"/><path d=" M 293.996 533.251 L 325.323 533.251 L 325.323 501.083 L 293.996 501.083 L 293.996 533.251 Z  M 326.656 534.584 L 292.663 534.584 L 292.663 499.749 L 326.656 499.749 L 326.656 534.584 Z " fill="rgb(77,48,0)"/><path d=" M 235.927 505.895 L 287.769 505.895 L 287.769 467.221 L 235.927 467.221 L 235.927 505.895 Z " fill="rgb(77,48,0)"/><path d=" M 236.593 505.228 L 287.103 505.228 L 287.103 467.888 L 236.593 467.888 L 236.593 505.228 Z  M 288.436 506.561 L 235.26 506.561 L 235.26 466.555 L 288.436 466.555 L 288.436 506.561 Z " fill="rgb(77,48,0)"/><path d=" M 250.517 505.895 L 287.769 505.895 L 287.769 467.221 L 250.517 467.221 L 250.517 505.895 Z " fill="rgb(153,96,0)"/><path d=" M 251.184 505.228 L 287.103 505.228 L 287.103 467.888 L 251.184 467.888 L 251.184 505.228 Z  M 288.436 506.561 L 249.851 506.561 L 249.851 466.555 L 288.436 466.555 L 288.436 506.561 Z " fill="rgb(77,48,0)"/><path d=" M 351.148 505.895 L 299.303 505.895 L 299.303 467.221 L 351.148 467.221 L 351.148 505.895 Z " fill="rgb(77,48,0)"/><path d=" M 299.969 505.228 L 350.481 505.228 L 350.481 467.888 L 299.969 467.888 L 299.969 505.228 Z  M 351.815 506.561 L 298.636 506.561 L 298.636 466.555 L 351.815 466.555 L 351.815 506.561 Z " fill="rgb(77,48,0)"/><path d=" M 336.556 505.895 L 299.303 505.895 L 299.303 467.221 L 336.556 467.221 L 336.556 505.895 Z " fill="rgb(153,96,0)"/><path d=" M 299.969 505.228 L 335.889 505.228 L 335.889 467.888 L 299.969 467.888 L 299.969 505.228 Z  M 337.223 506.561 L 298.636 506.561 L 298.636 466.555 L 337.223 466.555 L 337.223 506.561 Z " fill="rgb(77,48,0)"/><path d=" M 281.58 505.895 L 307.561 505.895 L 307.561 467.221 L 281.58 467.221 L 281.58 505.895 Z " fill="rgb(153,96,0)"/><path d=" M 282.247 505.228 L 306.895 505.228 L 306.895 467.888 L 282.247 467.888 L 282.247 505.228 Z  M 308.228 506.561 L 280.913 506.561 L 280.913 466.555 L 308.228 466.555 L 308.228 506.561 Z " fill="rgb(77,48,0)"/><path d=" M 386.247 237.856 L 300.287 237.856 L 300.287 195.187 L 386.247 195.187 L 386.247 237.856" fill="rgb(51,110,170)"/><path d=" M 300.953 237.189 L 385.58 237.189 L 385.58 195.853 L 300.953 195.853 L 300.953 237.189 Z  M 386.913 238.523 L 299.62 238.523 L 299.62 194.52 L 386.913 194.52 L 386.913 238.523 Z " fill="rgb(51,110,170)"/><path d=" M 362.053 237.856 L 300.287 237.856 L 300.287 195.187 L 362.053 195.187 L 362.053 237.856 Z " fill="rgb(69,149,229)"/><path d=" M 300.953 237.189 L 361.387 237.189 L 361.387 195.853 L 300.953 195.853 L 300.953 237.189 Z  M 362.72 238.523 L 299.62 238.523 L 299.62 194.52 L 362.72 194.52 L 362.72 238.523 Z " fill="rgb(57,116,142)"/><path d=" M 195.204 237.856 L 281.165 237.856 L 281.165 195.187 L 195.204 195.187 L 195.204 237.856 Z " fill="rgb(51,110,170)"/><path d=" M 195.871 237.189 L 280.499 237.189 L 280.499 195.853 L 195.871 195.853 L 195.871 237.189 Z  M 281.832 238.523 L 194.537 238.523 L 194.537 194.52 L 281.832 194.52 L 281.832 238.523 Z " fill="rgb(51,110,170)"/><path d=" M 219.397 237.856 L 281.165 237.856 L 281.165 195.187 L 219.397 195.187 L 219.397 237.856 Z " fill="rgb(69,149,229)"/><path d=" M 220.064 237.189 L 280.499 237.189 L 280.499 195.853 L 220.064 195.853 L 220.064 237.189 Z  M 281.832 238.523 L 218.731 238.523 L 218.731 194.52 L 281.832 194.52 L 281.832 238.523 Z " fill="rgb(51,110,170)"/><path d=" M 310.548 237.856 L 267.469 237.856 L 267.469 195.187 L 310.548 195.187 L 310.548 237.856 Z " fill="rgb(69,149,229)"/><path d=" M 268.136 237.189 L 309.881 237.189 L 309.881 195.853 L 268.136 195.853 L 268.136 237.189 Z  M 311.215 238.523 L 266.803 238.523 L 266.803 194.52 L 311.215 194.52 L 311.215 238.523 Z " fill="rgb(51,110,170)"/><path d=" M 370.788 195.696 L 284.828 195.696 L 284.828 153.027 L 370.788 153.027 L 370.788 195.696 Z " fill="rgb(51,110,170)"/><path d=" M 285.495 195.029 L 370.121 195.029 L 370.121 153.693 L 285.495 153.693 L 285.495 195.029 Z  M 371.455 196.363 L 284.161 196.363 L 284.161 152.36 L 371.455 152.36 L 371.455 196.363 Z " fill="rgb(51,110,170)"/><path d=" M 346.596 195.696 L 284.828 195.696 L 284.828 153.027 L 346.596 153.027 L 346.596 195.696 Z " fill="rgb(69,149,229)"/><path d=" M 285.495 195.029 L 345.929 195.029 L 345.929 153.693 L 285.495 153.693 L 285.495 195.029 Z  M 347.263 196.363 L 284.161 196.363 L 284.161 152.36 L 347.263 152.36 L 347.263 196.363 Z " fill="rgb(51,110,170)"/><path d=" M 402.963 287.337 L 304.489 287.337 L 304.489 238.459 L 402.963 238.459 L 402.963 287.337" fill="rgb(51,110,170)"/><path d=" M 305.156 286.671 L 402.296 286.671 L 402.296 239.125 L 305.156 239.125 L 305.156 286.671 Z  M 403.629 288.004 L 303.823 288.004 L 303.823 237.792 L 403.629 237.792 L 403.629 288.004 Z " fill="rgb(51,110,170)"/><path d=" M 375.247 287.337 L 304.489 287.337 L 304.489 238.459 L 375.247 238.459 L 375.247 287.337 Z " fill="rgb(69,149,229)"/><path d=" M 305.156 286.671 L 374.58 286.671 L 374.58 239.125 L 305.156 239.125 L 305.156 286.671 Z  M 375.913 288.004 L 303.823 288.004 L 303.823 237.792 L 375.913 237.792 L 375.913 288.004 Z " fill="rgb(57,116,142)"/><path d=" M 184.111 287.337 L 282.584 287.337 L 282.584 238.459 L 184.111 238.459 L 184.111 287.337 Z " fill="rgb(51,110,170)"/><path d=" M 184.777 286.671 L 281.917 286.671 L 281.917 239.125 L 184.777 239.125 L 184.777 286.671 Z  M 283.251 288.004 L 183.444 288.004 L 183.444 237.792 L 283.251 237.792 L 283.251 288.004 Z " fill="rgb(51,110,170)"/><path d=" M 211.825 287.337 L 282.584 287.337 L 282.584 238.459 L 211.825 238.459 L 211.825 287.337 Z " fill="rgb(69,149,229)"/><path d=" M 212.492 286.671 L 281.917 286.671 L 281.917 239.125 L 212.492 239.125 L 212.492 286.671 Z  M 283.251 288.004 L 211.159 288.004 L 211.159 237.792 L 283.251 237.792 L 283.251 288.004 Z " fill="rgb(51,110,170)"/><path d=" M 316.244 287.337 L 266.895 287.337 L 266.895 238.459 L 316.244 238.459 L 316.244 287.337 Z " fill="rgb(251,200,68)"/><path d=" M 267.561 286.671 L 315.577 286.671 L 315.577 239.125 L 267.561 239.125 L 267.561 286.671 Z  M 316.911 288.004 L 266.228 288.004 L 266.228 237.792 L 316.911 237.792 L 316.911 288.004 Z " fill="rgb(219,178,77)"/><path d=" M 316.244 287.337 L 266.895 287.337 L 266.895 238.459 L 316.244 238.459 L 316.244 287.337 Z " fill="rgb(69,149,229)"/><path d=" M 267.561 286.671 L 315.577 286.671 L 315.577 239.125 L 267.561 239.125 L 267.561 286.671 Z  M 316.911 288.004 L 266.228 288.004 L 266.228 237.792 L 316.911 237.792 L 316.911 288.004 Z " fill="rgb(51,110,170)"/><path d=" M 252.823 438.82 L 336.075 438.82 L 336.075 401.86 L 252.823 401.86 L 252.823 438.82 Z " fill="rgb(51,110,170)"/><path d=" M 253.489 438.153 L 335.408 438.153 L 335.408 402.527 L 253.489 402.527 L 253.489 438.153 Z  M 336.741 439.487 L 252.156 439.487 L 252.156 401.193 L 336.741 401.193 L 336.741 439.487 Z " fill="rgb(51,110,170)"/><path d=" M 273.581 438.82 L 336.075 438.82 L 336.075 401.86 L 273.581 401.86 L 273.581 438.82 Z " fill="rgb(69,149,229)"/><path d=" M 274.248 438.153 L 335.408 438.153 L 335.408 402.527 L 274.248 402.527 L 274.248 438.153 Z  M 336.741 439.487 L 272.915 439.487 L 272.915 401.193 L 336.741 401.193 L 336.741 439.487 Z " fill="rgb(51,110,170)"/><path d=" M 242.697 467.683 L 293.511 467.683 L 293.511 434.183 L 242.697 434.183 L 242.697 467.683 Z " fill="rgb(77,48,0)"/><path d=" M 243.364 467.016 L 292.844 467.016 L 292.844 434.849 L 243.364 434.849 L 243.364 467.016 Z  M 294.177 468.349 L 242.031 468.349 L 242.031 433.516 L 294.177 433.516 L 294.177 468.349 Z " fill="rgb(77,48,0)"/><path d=" M 251.336 467.683 L 293.511 467.683 L 293.511 434.183 L 251.336 434.183 L 251.336 467.683 Z " fill="rgb(153,96,0)"/><path d=" M 252.003 467.016 L 292.844 467.016 L 292.844 434.849 L 252.003 434.849 L 252.003 467.016 Z  M 294.177 468.349 L 250.669 468.349 L 250.669 433.516 L 294.177 433.516 L 294.177 468.349 Z " fill="rgb(77,48,0)"/><path d=" M 344.119 467.683 L 293.307 467.683 L 293.307 434.183 L 344.119 434.183 L 344.119 467.683 Z " fill="rgb(77,48,0)"/><path d=" M 293.973 467.016 L 343.452 467.016 L 343.452 434.849 L 293.973 434.849 L 293.973 467.016 Z  M 344.785 468.349 L 292.64 468.349 L 292.64 433.516 L 344.785 433.516 L 344.785 468.349 Z " fill="rgb(77,48,0)"/><path d=" M 335.481 467.683 L 293.307 467.683 L 293.307 434.183 L 335.481 434.183 L 335.481 467.683 Z " fill="rgb(153,96,0)"/><path d=" M 293.973 467.016 L 334.815 467.016 L 334.815 434.849 L 293.973 434.849 L 293.973 467.016 Z  M 336.148 468.349 L 292.64 468.349 L 292.64 433.516 L 336.148 433.516 L 336.148 468.349 Z " fill="rgb(77,48,0)"/><path d=" M 265.623 189.185 C 263.951 189.185 262.589 187.828 262.589 186.156 C 262.589 185.343 262.91 184.605 263.43 184.061 C 263.983 183.483 264.762 183.123 265.623 183.123 C 267.294 183.123 268.656 184.479 268.656 186.156 C 268.656 187.828 267.294 189.185 265.623 189.185 Z  M 265.633 175.213 L 234.668 194.375 L 234.668 283.726 L 297.775 283.726 L 297.775 194.375 L 265.633 175.213 Z " fill="rgb(207,229,11)"/><path d=" M 264.066 183.467 C 264.069 183.478 264.162 183.988 264.4 184.519 C 264.52 184.785 264.675 185.057 264.888 185.278 C 265.099 185.496 265.388 185.667 265.735 185.666 C 265.986 185.666 266.25 185.578 266.517 185.402 C 266.783 185.22 266.986 184.912 267.227 184.493 C 267.642 183.76 268.128 182.675 268.785 181.414 C 269.769 179.525 271.13 177.248 273.152 175.238 C 275.176 173.228 277.856 171.484 281.502 170.648 C 286.794 169.431 290.377 164.946 290.384 160.671 C 290.387 158.513 289.451 156.409 287.372 154.874 C 285.295 153.337 282.099 152.361 277.564 152.36 C 276.09 152.36 274.473 152.463 272.706 152.685 C 266.394 153.479 262.363 155.223 259.899 157.525 C 257.434 159.827 256.573 162.682 256.576 165.583 C 256.579 170.535 259.035 175.682 260.244 178.914 L 260.727 178.733 C 259.501 175.471 257.088 170.37 257.092 165.583 C 257.095 162.777 257.905 160.1 260.252 157.902 C 262.6 155.705 266.521 153.982 272.771 153.197 C 274.519 152.978 276.114 152.876 277.564 152.876 C 282.026 152.876 285.112 153.841 287.065 155.289 C 289.019 156.738 289.865 158.66 289.868 160.671 C 289.876 164.656 286.46 168.988 281.387 170.145 C 275.675 171.452 272.234 174.956 270.048 178.236 C 268.954 179.876 268.169 181.464 267.564 182.697 C 267.261 183.313 267.003 183.842 266.779 184.238 C 266.558 184.635 266.352 184.899 266.234 184.971 C 266.027 185.106 265.864 185.15 265.735 185.15 C 265.559 185.149 265.41 185.072 265.258 184.917 C 265.031 184.688 264.848 184.296 264.736 183.965 C 264.679 183.799 264.638 183.649 264.611 183.541 C 264.598 183.487 264.588 183.444 264.582 183.415 L 264.574 183.372 L 264.066 183.467" fill="rgb(119,132,4)"/><g><g><path d=" M 270 233.707 C 277.788 235.04 283.722 241.83 283.722 249.995 C 283.722 259.116 276.317 266.521 267.196 266.521 C 258.075 266.521 250.669 259.116 250.669 249.995 C 250.669 241.85 256.575 235.073 264.334 233.716" fill="none" vector-effect="non-scaling-stroke" stroke-width="1" stroke="rgb(255,255,255)" stroke-linejoin="miter" stroke-linecap="round" stroke-miterlimit="3"/><path d=" M 273.334 250.953 C 280.677 252.21 282.639 248.34 282.778 249.543 C 282.778 258.143 275.796 265.125 267.196 265.125 C 258.596 265.125 251.614 258.143 251.614 249.543 C 251.614 241.863 265.961 249.693 273.334 250.953" fill="rgb(255,255,255)"/><path d=" M 261.057 250.953 C 253.715 252.21 251.752 248.34 251.614 249.543 C 251.614 258.143 258.596 265.125 267.196 265.125 C 275.796 265.125 282.778 258.143 282.778 249.543 C 282.778 241.863 268.431 249.693 261.057 250.953" fill="rgb(255,255,255)" fill-opacity="0.8"/><line x1="267.196" y1="230.635" x2="267.196" y2="238.19" vector-effect="non-scaling-stroke" stroke-width="1" stroke="rgb(255,255,255)" stroke-linejoin="miter" stroke-linecap="round" stroke-miterlimit="3"/></g><g><path d=" M 265.049 219.266 C 265.506 220.328 266.276 221.377 267.354 221.83 C 267.477 221.881 267.617 221.92 267.76 221.952 C 268.047 221.523 268.377 221.176 268.763 220.892 C 269.095 220.648 269.442 220.457 269.8 220.307 C 269.697 220.235 269.589 220.17 269.477 220.111 C 269.028 219.876 268.542 219.67 268.069 219.448 C 268.514 219.569 269.024 219.614 269.45 219.769 C 269.715 219.866 269.96 220.001 270.188 220.161 C 270.869 219.929 271.58 219.817 272.29 219.733 C 271.715 218.776 270.487 218.009 269.561 217.661 C 268.595 217.299 267.5 217.254 266.425 217.142 C 265.766 217.074 265.049 216.828 264.525 216.541 C 264.406 216.476 264.279 216.585 264.32 216.717 C 264.578 217.541 264.708 218.474 265.049 219.266 Z " fill="rgb(255,255,255)"/><path d=" M 276.43 219.141 C 275.217 219.799 273.826 219.88 272.464 220.037 C 271.799 220.113 271.14 220.208 270.513 220.398 C 270.377 220.439 270.241 220.485 270.108 220.536 C 269.712 220.688 269.33 220.886 268.97 221.152 C 268.631 221.4 268.354 221.695 268.121 222.02 C 267.749 222.537 267.49 223.133 267.277 223.753 C 266.889 224.877 266.711 226.071 266.746 227.26 C 266.76 227.742 266.767 228.243 266.887 228.713 C 266.913 228.817 266.939 228.949 267.02 229.026 C 267.125 229.127 267.313 229.023 267.271 228.876 C 266.966 227.836 267.156 226.621 267.577 225.628 C 268.062 224.486 268.998 223.806 270.141 223.392 C 270.445 223.282 270.755 223.186 271.07 223.095 C 271.077 223.092 271.083 223.092 271.09 223.092 C 271.152 223.092 271.179 223.185 271.114 223.214 C 270.742 223.382 270.373 223.551 270.022 223.735 C 268.302 224.632 267.551 226.721 268.195 226.721 C 268.248 226.721 268.309 226.707 268.38 226.678 C 269.375 226.266 270.556 226.262 271.65 226.06 C 272.034 225.989 272.409 225.893 272.76 225.747 C 274.155 225.165 275.152 224.027 275.745 222.658 C 276.187 221.636 276.359 220.43 276.694 219.369 C 276.737 219.233 276.641 219.116 276.523 219.116 C 276.494 219.115 276.462 219.123 276.43 219.141 Z " fill="rgb(255,255,255)"/></g></g></g></svg>