<?xml version="1.0" encoding="UTF-8" standalone="no"?><!-- Generator: Gravit.io --><svg xmlns="http://www.w3.org/2000/svg" xmlns:xlink="http://www.w3.org/1999/xlink" style="isolation:isolate" viewBox="0 0 250 250" width="250pt" height="250pt"><defs><clipPath id="_clipPath_2n9N7QkQDTaF0MqhSB0n4Y0bOADTKZTQ"><rect width="250" height="250"/></clipPath></defs><g clip-path="url(#_clipPath_2n9N7QkQDTaF0MqhSB0n4Y0bOADTKZTQ)"><g><g><path d=" M 59.539 136.798 L 59.539 43.93 L 190.459 43.93 L 190.459 136.798 L 59.539 136.798 Z " fill="rgb(208,214,217)"/><path d=" M 60.451 135.885 L 189.549 135.885 L 189.549 44.841 L 60.451 44.841 L 60.451 135.885 Z  M 191.371 137.708 L 58.629 137.708 L 58.629 43.018 L 191.371 43.018 L 191.371 137.708 Z " fill="rgb(124,124,126)"/><path d=" M 188.638 134.975 L 61.362 134.975 L 61.362 45.751 L 188.638 45.751 L 188.638 134.975 Z " fill="rgb(229,232,234)"/><path d=" M 150.772 117.109 L 141.774 117.109 L 141.774 108.11 L 150.772 108.11 L 150.772 117.109 Z " fill="rgb(255,179,76)"/><path d=" M 123.889 126.856 L 114.89 126.856 L 114.89 117.857 L 123.889 117.857 L 123.889 126.856" fill="rgb(184,209,255)"/><path d=" M 163.983 86.267 L 154.984 86.267 L 154.984 77.27 L 163.983 77.27 L 163.983 86.267" fill="rgb(255,179,76)"/><path d=" M 141.774 67.628 L 132.775 67.628 L 132.775 58.63 L 141.774 58.63 L 141.774 67.628" fill="rgb(184,209,255)"/><path d=" M 169.991 105.038 L 161.891 108.955 L 157.973 100.855 L 166.075 96.938 L 169.991 105.038 Z " fill="rgb(255,179,76)"/><path d=" M 145.126 95.628 L 136.16 96.385 L 135.402 87.419 L 144.368 86.662 L 145.126 95.628 Z " fill="rgb(184,209,255)"/><path d=" M 152.318 101.042 L 143.351 101.799 L 142.594 92.833 L 151.56 92.074 L 152.318 101.042 Z " fill="rgb(255,177,181)"/><path d=" M 122.692 117.124 L 114.215 114.106 L 117.233 105.63 L 125.71 108.648 L 122.692 117.124 Z " fill="rgb(255,177,181)"/><path d=" M 159.258 72.999 L 150.781 69.981 L 153.799 61.502 L 162.276 64.522 L 159.258 72.999 Z " fill="rgb(255,177,181)"/><path d=" M 174.671 67.44 L 165.681 67.81 L 165.311 58.818 L 174.302 58.449 L 174.671 67.44 Z " fill="rgb(255,179,76)"/><path d=" M 91.897 63.128 L 83.42 60.11 L 86.438 51.634 L 94.915 54.651 L 91.897 63.128 Z " fill="rgb(255,177,181)"/><path d=" M 136.3 74.098 L 127.33 74.812 L 126.616 65.843 L 135.586 65.127 L 136.3 74.098 Z " fill="rgb(255,179,76)"/><path d=" M 77.625 91.627 L 68.655 92.342 L 67.941 83.371 L 76.911 82.657 L 77.625 91.627" fill="rgb(255,179,76)"/><path d=" M 93.284 59.925 C 93.284 59.925 94.767 59.807 96.991 59.779 C 97.547 59.769 98.149 59.758 98.786 59.773 C 99.423 59.773 100.095 59.814 100.79 59.837 C 102.18 59.897 103.662 59.899 105.145 59.835 C 106.627 59.784 108.109 59.747 109.5 59.737 C 110.889 59.734 112.186 59.734 113.298 59.769 C 115.522 59.816 117.004 59.925 117.004 59.925 L 117.02 59.945 L 117.004 59.964 C 117.004 59.964 115.522 60.073 113.298 60.12 C 112.186 60.155 110.889 60.155 109.5 60.153 C 108.109 60.142 106.627 60.105 105.145 60.056 C 103.662 59.992 102.18 59.994 100.79 60.054 C 100.095 60.077 99.423 60.118 98.786 60.116 C 98.149 60.131 97.547 60.12 96.991 60.11 C 94.767 60.084 93.284 59.964 93.284 59.964 L 93.269 59.944 L 93.284 59.925" fill="rgb(0,111,138)"/><path d=" M 93.284 62.559 C 93.284 62.559 94.269 62.45 95.745 62.403 C 97.222 62.347 99.19 62.351 101.159 62.469 C 102.144 62.532 103.128 62.531 104.051 62.471 C 104.512 62.448 104.958 62.407 105.381 62.407 C 105.804 62.392 106.204 62.403 106.573 62.413 C 108.049 62.441 109.033 62.559 109.033 62.559 L 109.049 62.581 L 109.033 62.598 C 109.033 62.598 108.049 62.716 106.573 62.744 C 106.204 62.753 105.804 62.765 105.381 62.75 C 104.958 62.752 104.512 62.71 104.051 62.686 C 103.128 62.626 102.144 62.624 101.159 62.688 C 99.19 62.806 97.222 62.81 95.745 62.753 C 94.269 62.707 93.284 62.598 93.284 62.598 L 93.269 62.577 L 93.284 62.559" fill="rgb(0,111,138)"/><path d=" M 164.913 80.13 C 164.913 80.13 166.133 80.048 167.962 80.029 C 168.419 80.022 168.916 80.014 169.439 80.023 C 169.963 80.023 170.516 80.053 171.088 80.068 C 172.232 80.11 173.452 80.112 174.671 80.067 C 175.891 80.033 177.111 80.007 178.255 79.999 C 179.399 79.997 180.466 79.997 181.381 80.022 C 183.21 80.055 184.431 80.13 184.431 80.13 L 184.444 80.145 L 184.431 80.158 C 184.431 80.158 183.21 80.233 181.381 80.267 C 180.466 80.291 179.399 80.291 178.255 80.29 C 177.111 80.282 175.891 80.256 174.671 80.222 C 173.452 80.177 172.232 80.177 171.088 80.22 C 170.516 80.235 169.963 80.265 169.439 80.265 C 168.916 80.275 168.419 80.267 167.962 80.26 C 166.133 80.241 164.913 80.158 164.913 80.158 L 164.9 80.143 L 164.913 80.13 Z " fill="rgb(0,111,138)"/><path d=" M 164.913 81.811 C 164.913 81.811 166.133 81.736 167.962 81.702 C 168.877 81.678 169.944 81.678 171.088 81.679 C 172.232 81.687 173.452 81.713 174.671 81.749 C 175.891 81.792 177.111 81.792 178.255 81.749 C 178.827 81.734 179.38 81.704 179.904 81.706 C 180.428 81.694 180.924 81.702 181.381 81.709 C 183.21 81.728 184.431 81.811 184.431 81.811 L 184.443 81.826 L 184.431 81.839 C 184.431 81.839 183.21 81.921 181.381 81.94 C 180.924 81.947 180.428 81.955 179.904 81.945 C 179.38 81.945 178.827 81.917 178.255 81.901 C 177.111 81.859 175.891 81.857 174.671 81.902 C 173.452 81.936 172.232 81.962 171.088 81.97 C 169.944 81.974 168.877 81.972 167.962 81.947 C 166.133 81.916 164.913 81.839 164.913 81.839 L 164.899 81.824 L 164.913 81.811 Z " fill="rgb(0,111,138)"/><path d=" M 164.913 83.654 C 164.913 83.654 166.133 83.572 167.962 83.553 C 168.419 83.545 168.916 83.538 169.439 83.547 C 169.963 83.547 170.516 83.575 171.088 83.592 C 172.232 83.633 173.452 83.635 174.671 83.59 C 175.891 83.557 177.111 83.53 178.255 83.523 C 179.399 83.519 180.466 83.521 181.381 83.545 C 183.21 83.577 184.431 83.654 184.431 83.654 L 184.444 83.669 L 184.431 83.682 C 184.431 83.682 183.21 83.757 181.381 83.791 C 180.466 83.815 179.399 83.815 178.255 83.813 C 177.111 83.806 175.891 83.779 174.671 83.744 C 173.452 83.701 172.232 83.701 171.088 83.744 C 170.516 83.759 169.963 83.789 169.439 83.789 C 168.916 83.798 168.419 83.791 167.962 83.783 C 166.133 83.764 164.913 83.682 164.913 83.682 L 164.9 83.667 L 164.913 83.654 Z " fill="rgb(0,111,138)"/><path d=" M 164.913 85.497 C 164.913 85.497 166.133 85.42 167.962 85.387 C 168.877 85.362 169.944 85.362 171.088 85.364 C 172.232 85.372 173.452 85.398 174.671 85.434 C 175.891 85.479 177.111 85.477 178.255 85.435 C 178.827 85.419 179.38 85.391 179.904 85.391 C 180.428 85.381 180.924 85.389 181.381 85.394 C 183.21 85.413 184.431 85.497 184.431 85.497 L 184.443 85.512 L 184.431 85.525 C 184.431 85.525 183.21 85.608 181.381 85.627 C 180.924 85.632 180.428 85.64 179.904 85.63 C 179.38 85.63 178.827 85.602 178.255 85.585 C 177.111 85.544 175.891 85.542 174.671 85.587 C 173.452 85.623 172.232 85.649 171.088 85.657 C 169.944 85.658 168.877 85.658 167.962 85.634 C 166.133 85.6 164.913 85.525 164.913 85.525 L 164.899 85.51 L 164.913 85.497 Z " fill="rgb(0,111,138)"/><path d=" M 164.913 87.339 C 164.913 87.339 166.133 87.256 167.962 87.238 C 168.419 87.23 168.916 87.223 169.439 87.232 C 169.963 87.232 170.516 87.262 171.088 87.277 C 172.232 87.32 173.452 87.32 174.671 87.277 C 175.891 87.241 177.111 87.215 178.255 87.208 C 179.399 87.206 180.466 87.206 181.381 87.23 C 183.21 87.264 184.431 87.339 184.431 87.339 L 184.444 87.354 L 184.431 87.367 C 184.431 87.367 183.21 87.444 181.381 87.476 C 180.466 87.5 179.399 87.502 178.255 87.498 C 177.111 87.49 175.891 87.464 174.671 87.431 C 173.452 87.386 172.232 87.387 171.088 87.429 C 170.516 87.446 169.963 87.474 169.439 87.474 C 168.916 87.483 168.419 87.476 167.962 87.468 C 166.133 87.449 164.913 87.367 164.913 87.367 L 164.9 87.352 L 164.913 87.339 Z " fill="rgb(0,111,138)"/><path d=" M 164.913 89.182 C 164.913 89.182 165.722 89.105 166.938 89.073 C 168.152 89.034 169.772 89.038 171.392 89.118 C 172.202 89.163 173.012 89.161 173.771 89.12 C 174.151 89.103 174.518 89.075 174.866 89.075 C 175.215 89.066 175.543 89.073 175.847 89.081 C 177.062 89.1 177.872 89.182 177.872 89.182 L 177.885 89.197 L 177.872 89.21 C 177.872 89.21 177.062 89.293 175.847 89.311 C 175.543 89.319 175.215 89.326 174.866 89.315 C 174.518 89.317 174.151 89.287 173.771 89.272 C 173.012 89.229 172.202 89.229 171.392 89.272 C 169.772 89.354 168.152 89.358 166.938 89.319 C 165.722 89.285 164.913 89.21 164.913 89.21 L 164.9 89.195 L 164.913 89.182 Z " fill="rgb(0,111,138)"/><path d=" M 129.898 120.916 C 129.898 120.916 131.119 120.882 132.948 120.875 C 133.406 120.871 133.901 120.867 134.425 120.873 C 134.949 120.871 135.503 120.884 136.074 120.89 C 137.218 120.907 138.438 120.908 139.657 120.89 C 140.877 120.875 142.097 120.865 143.241 120.862 C 144.385 120.862 145.452 120.862 146.367 120.871 C 148.197 120.884 149.417 120.916 149.417 120.916 L 149.43 120.921 L 149.417 120.927 C 149.417 120.927 148.197 120.957 146.367 120.972 C 145.452 120.981 144.385 120.981 143.241 120.981 C 142.097 120.978 140.877 120.966 139.657 120.953 C 138.438 120.935 137.218 120.935 136.074 120.951 C 135.503 120.959 134.949 120.97 134.425 120.97 C 133.901 120.974 133.406 120.97 132.948 120.968 C 131.119 120.961 129.898 120.927 129.898 120.927 L 129.886 120.921 L 129.898 120.916" fill="rgb(0,111,138)"/><path d=" M 129.898 121.602 C 129.898 121.602 131.119 121.572 132.948 121.558 C 133.863 121.547 134.93 121.547 136.074 121.549 C 137.218 121.551 138.438 121.562 139.657 121.577 C 140.877 121.594 142.097 121.594 143.241 121.577 C 143.813 121.57 144.366 121.558 144.89 121.558 C 145.414 121.555 145.91 121.558 146.367 121.56 C 148.197 121.568 149.417 121.602 149.417 121.602 L 149.43 121.609 L 149.417 121.613 C 149.417 121.613 148.197 121.646 146.367 121.656 C 145.91 121.658 145.414 121.661 144.89 121.658 C 144.366 121.658 143.813 121.645 143.241 121.639 C 142.097 121.622 140.877 121.622 139.657 121.639 C 138.438 121.654 137.218 121.665 136.074 121.667 C 134.93 121.669 133.863 121.669 132.948 121.658 C 131.119 121.645 129.898 121.613 129.898 121.613 L 129.886 121.607 L 129.898 121.602" fill="rgb(0,111,138)"/><path d=" M 129.898 122.355 C 129.898 122.355 131.119 122.321 132.948 122.313 C 133.406 122.311 133.901 122.308 134.425 122.311 C 134.949 122.311 135.503 122.323 136.074 122.33 C 137.218 122.347 138.438 122.347 139.657 122.33 C 140.877 122.315 142.097 122.304 143.241 122.302 C 144.385 122.3 145.452 122.3 146.367 122.311 C 148.197 122.325 149.417 122.355 149.417 122.355 L 149.43 122.362 L 149.417 122.366 C 149.417 122.366 148.197 122.398 146.367 122.411 C 145.452 122.422 144.385 122.422 143.241 122.42 C 142.097 122.416 140.877 122.407 139.657 122.392 C 138.438 122.373 137.218 122.375 136.074 122.392 C 135.503 122.398 134.949 122.411 134.425 122.411 C 133.901 122.415 133.406 122.411 132.948 122.409 C 131.119 122.4 129.898 122.366 129.898 122.366 L 129.886 122.36 L 129.898 122.355" fill="rgb(0,111,138)"/><path d=" M 129.898 123.108 C 129.898 123.108 131.119 123.078 132.948 123.063 C 133.863 123.053 134.93 123.053 136.074 123.053 C 137.218 123.057 138.438 123.068 139.657 123.081 C 140.877 123.1 142.097 123.1 143.241 123.083 C 143.813 123.076 144.366 123.065 144.89 123.065 C 145.414 123.061 145.91 123.065 146.367 123.066 C 148.197 123.074 149.417 123.108 149.417 123.108 L 149.43 123.113 L 149.417 123.119 C 149.417 123.119 148.197 123.153 146.367 123.162 C 145.91 123.164 145.414 123.168 144.89 123.162 C 144.366 123.164 143.813 123.151 143.241 123.145 C 142.097 123.128 140.877 123.126 139.657 123.145 C 138.438 123.16 137.218 123.169 136.074 123.173 C 134.93 123.173 133.863 123.173 132.948 123.164 C 131.119 123.151 129.898 123.119 129.898 123.119 L 129.886 123.113 L 129.898 123.108" fill="rgb(0,111,138)"/><path d=" M 129.898 123.861 C 129.898 123.861 131.119 123.827 132.948 123.82 C 133.406 123.816 133.901 123.814 134.425 123.818 C 134.949 123.818 135.503 123.829 136.074 123.836 C 137.218 123.853 138.438 123.853 139.657 123.834 C 140.877 123.821 142.097 123.81 143.241 123.806 C 144.385 123.806 145.452 123.806 146.367 123.816 C 148.197 123.831 149.417 123.861 149.417 123.861 L 149.43 123.866 L 149.417 123.872 C 149.417 123.872 148.197 123.904 146.367 123.917 C 145.452 123.926 144.385 123.926 143.241 123.926 C 142.097 123.923 140.877 123.913 139.657 123.898 C 138.438 123.879 137.218 123.881 136.074 123.898 C 135.503 123.904 134.949 123.915 134.425 123.915 C 133.901 123.921 133.406 123.917 132.948 123.913 C 131.119 123.906 129.898 123.872 129.898 123.872 L 129.886 123.866 L 129.898 123.861" fill="rgb(0,111,138)"/><path d=" M 129.898 124.614 C 129.898 124.614 130.708 124.584 131.924 124.569 C 133.138 124.554 134.758 124.554 136.378 124.588 C 137.188 124.606 137.998 124.606 138.757 124.589 C 139.137 124.582 139.504 124.571 139.852 124.571 C 140.2 124.567 140.529 124.569 140.833 124.573 C 142.048 124.58 142.858 124.614 142.858 124.614 L 142.871 124.619 L 142.858 124.625 C 142.858 124.625 142.048 124.659 140.833 124.666 C 140.529 124.67 140.2 124.674 139.852 124.668 C 139.504 124.668 139.137 124.657 138.757 124.651 C 137.998 124.633 137.188 124.633 136.378 124.651 C 134.758 124.685 133.138 124.687 131.924 124.67 C 130.708 124.657 129.898 124.625 129.898 124.625 L 129.886 124.619 L 129.898 124.614 Z " fill="rgb(0,111,138)"/><path d=" M 129.898 102.932 C 129.898 102.932 131.119 102.85 132.948 102.831 C 133.405 102.823 133.901 102.816 134.425 102.825 C 134.949 102.825 135.502 102.853 136.074 102.87 C 137.218 102.912 138.438 102.913 139.657 102.868 C 140.877 102.835 142.097 102.809 143.241 102.801 C 144.385 102.797 145.452 102.799 146.367 102.823 C 148.197 102.857 149.417 102.932 149.417 102.932 L 149.43 102.947 L 149.417 102.96 C 149.417 102.96 148.197 103.035 146.367 103.069 C 145.452 103.093 144.385 103.093 143.241 103.091 C 142.097 103.084 140.877 103.058 139.657 103.024 C 138.438 102.979 137.218 102.979 136.074 103.022 C 135.502 103.037 134.949 103.067 134.425 103.067 C 133.901 103.076 133.405 103.069 132.948 103.061 C 131.119 103.043 129.898 102.96 129.898 102.96 L 129.886 102.945 L 129.898 102.932" fill="rgb(0,111,138)"/><path d=" M 129.82 104.225 C 129.82 104.225 130.63 104.15 131.845 104.116 C 133.06 104.077 134.68 104.08 136.3 104.161 C 137.11 104.206 137.92 104.204 138.679 104.163 C 139.059 104.148 139.426 104.118 139.775 104.118 C 140.122 104.109 140.451 104.116 140.755 104.124 C 141.97 104.142 142.78 104.225 142.78 104.225 L 142.792 104.24 L 142.78 104.253 C 142.78 104.253 141.97 104.335 140.755 104.354 C 140.451 104.361 140.122 104.369 139.775 104.36 C 139.426 104.36 139.059 104.33 138.679 104.315 C 137.92 104.273 137.11 104.272 136.3 104.317 C 134.68 104.397 133.06 104.401 131.845 104.361 C 130.63 104.328 129.82 104.253 129.82 104.253 L 129.808 104.238 L 129.82 104.225 Z " fill="rgb(0,111,138)"/><path d=" M 130.386 65.357 L 130.188 65.241 C 130.128 65.136 124.013 54.68 111.544 51.856 C 99.053 49.028 91.082 53.003 91.003 53.044 L 90.696 52.947 L 90.795 52.639 C 90.876 52.6 98.994 48.544 111.645 51.412 C 124.315 54.281 130.522 64.908 130.584 65.015 L 130.499 65.326 L 130.386 65.357" fill="rgb(0,111,138)"/><path d=" M 130.858 65.799 L 128.055 64.069 L 127.982 63.756 L 128.295 63.681 L 130.333 64.94 L 130.159 62.768 L 130.368 62.523 L 130.613 62.731 L 130.858 65.799" fill="rgb(0,111,138)"/><path d=" M 121.524 105.525 L 121.491 105.523 L 121.3 105.263 C 121.317 105.143 123.258 92.987 134.03 85.73 C 144.787 78.48 153.816 79.315 153.909 79.327 L 154.113 79.578 L 153.862 79.78 C 153.777 79.772 144.898 78.954 134.284 86.106 C 123.683 93.249 121.768 105.212 121.749 105.334 L 121.524 105.525" fill="rgb(0,111,138)"/><path d=" M 121.328 106.094 L 120.445 103.148 L 120.599 102.863 L 120.882 103.015 L 121.507 105.103 L 122.951 103.194 L 123.27 103.151 L 123.314 103.468 L 121.328 106.094 Z " fill="rgb(0,111,138)"/><path d=" M 155.92 121.156 C 149.295 121.156 146.153 118.059 146.111 118.016 L 146.113 117.694 L 146.435 117.698 C 146.489 117.752 151.988 123.134 163.913 119.357 C 176.425 115.393 178.917 104.12 178.821 100.111 C 178.709 95.405 177.673 91.087 177.663 91.044 L 177.83 90.769 L 178.106 90.937 C 178.117 90.979 179.164 95.345 179.276 100.102 C 179.375 104.204 176.831 115.742 164.051 119.792 C 160.914 120.787 158.209 121.156 155.92 121.156" fill="rgb(0,111,138)"/><path d=" M 176.772 94.551 L 176.711 94.542 L 176.552 94.261 L 177.62 90.366 L 180.629 93.187 L 180.64 93.509 L 180.318 93.521 L 177.86 91.215 L 176.991 94.382 L 176.772 94.551" fill="rgb(0,111,138)"/><path d=" M 175.891 123.233 L 166.893 123.233 L 166.893 114.234 L 175.891 114.234 L 175.891 123.233 Z " fill="rgb(184,209,255)"/><path d=" M 111.732 61.703 L 111.729 61.703 C 111.357 61.753 111.093 62.098 111.141 62.469 L 111.514 65.37 C 111.562 65.745 111.908 66.011 112.282 65.961 L 112.286 65.961 C 112.658 65.912 112.922 65.567 112.874 65.196 L 112.501 62.295 C 112.453 61.92 112.107 61.654 111.732 61.703" fill="rgb(255,189,149)"/><path d=" M 110.447 61.747 L 110.443 61.747 C 110.072 61.796 109.807 62.141 109.855 62.512 L 110.228 65.414 C 110.277 65.788 110.623 66.054 110.997 66.006 L 111 66.006 C 111.372 65.955 111.637 65.61 111.589 65.239 L 111.215 62.338 C 111.167 61.963 110.822 61.697 110.447 61.747 Z " fill="rgb(255,189,149)"/><path d=" M 109.199 61.866 L 109.196 61.866 C 108.824 61.914 108.559 62.259 108.607 62.632 L 108.981 65.533 C 109.029 65.908 109.375 66.174 109.749 66.124 L 109.753 66.124 C 110.124 66.073 110.389 65.728 110.341 65.357 L 109.967 62.456 C 109.92 62.081 109.573 61.815 109.199 61.866" fill="rgb(255,189,149)"/><path d=" M 108.005 62.092 L 108.002 62.094 C 107.631 62.143 107.366 62.487 107.414 62.858 L 107.788 65.76 C 107.835 66.135 108.182 66.401 108.556 66.352 L 108.559 66.35 C 108.931 66.302 109.196 65.957 109.148 65.586 L 108.774 62.684 C 108.726 62.309 108.38 62.043 108.005 62.092" fill="rgb(255,189,149)"/></g><g><path d=" M 77.387 201.665 C 77.109 203.189 75.863 204.709 77.109 205.681 C 78.354 206.65 79.602 206.65 81.128 206.233 C 82.649 205.817 83.202 204.985 84.031 204.293 C 84.863 203.602 87.078 203.189 87.773 202.217 C 88.46 201.249 89.368 199.301 88.116 199.066 C 86.388 198.746 84.868 200.126 80.346 199.094 L 77.387 201.665" fill="rgb(16,15,13)"/><path d=" M 93.54 134.612 C 94.491 139.058 92.442 144.157 92.123 146.702 C 91.807 149.242 88.948 167.766 88.828 168.908 C 88.509 171.926 88.19 173.848 87.239 176.706 C 86.285 179.569 84.153 197.381 84.47 199.605 C 84.659 200.922 81.133 203.012 78.801 203.269 C 77.2 203.442 76.271 202.746 76.271 202.746 C 76.271 202.746 74.614 188.093 79.114 173.644 C 80.02 162.205 79.681 154.54 80.354 151.372 C 80.578 150.312 78.611 141.97 82.348 136.694 C 85.291 132.536 93.54 134.612 93.54 134.612" fill="rgb(25,25,31)"/><path d=" M 91.793 145.933 C 91.297 150.384 89.812 170.993 89.155 172.149 C 88.495 173.304 88.288 173.681 87.239 176.706 C 86.187 179.736 85.001 198.772 85.167 199.43 C 85.332 200.09 82.987 201.261 82.987 201.261 C 82.987 201.261 83.055 186.356 85.691 176.6 C 86.195 174.738 88.057 170.113 88.383 167.806 C 88.716 165.5 91.793 145.933 91.793 145.933" fill="rgb(37,38,47)"/><path d=" M 92.36 201.39 C 91.662 203.58 91.054 204.744 91.728 206.129 C 92.403 207.512 95.691 207.001 97.598 206.093 C 98.726 205.553 99.174 204.729 100.49 204.692 C 103.298 204.612 105.717 200.044 103.415 199.853 C 101.111 199.66 99.61 200.605 98.563 199.741 C 97.525 198.881 92.36 201.39 92.36 201.39" fill="rgb(16,15,13)"/><path d=" M 101.193 136.7 C 102.145 141.145 102.27 146.012 102.179 148.57 C 102.014 153.35 101.15 169.64 101.027 170.773 C 100.708 173.793 100.662 174.512 99.708 177.372 C 98.757 180.228 98.803 197.642 99.122 199.868 C 99.438 202.089 91.36 203.442 91.36 203.442 C 91.36 203.442 87.955 189.794 90.815 174.544 C 90.992 159.58 90.049 151.618 90.365 146.536 C 90.684 141.453 101.193 136.7 101.193 136.7" fill="rgb(25,25,31)"/><path d=" M 88.078 93.674 C 88.433 94.834 88.405 99.105 87.958 100.904 C 87.522 102.702 85.355 105.134 85.355 105.134 L 95.426 107.03 C 95.426 107.03 94.549 100.22 96.424 98.924 C 97.582 98.126 88.078 93.674 88.078 93.674" fill="rgb(201,142,125)"/><path d=" M 97.843 90.212 C 98.408 92.074 97.765 92.222 98.064 92.976 C 98.811 94.844 98.953 99.29 97.691 100.069 C 97.116 100.429 95.987 101.241 94.781 100.968 C 92.69 100.492 90.038 98.272 88.831 96.353 C 86.934 93.321 87.364 89.361 90.588 87.962 C 94.101 86.446 96.797 86.797 97.843 90.212" fill="rgb(201,142,125)"/><path d=" M 98.221 88.493 C 98.77 87.481 98.599 86.574 98.599 86.574 C 97.247 87.882 90.342 83.609 86.621 86.773 C 86.179 87.15 86.328 86.925 86.015 87.288 C 85.715 87.64 85.151 87.749 84.851 87.985 C 82.974 89.49 83.538 94.785 84.696 96.652 C 86.154 99.006 85.971 99.62 85.778 100.266 C 85.465 101.316 93.772 100.37 93.772 100.37 L 94.715 96.613 L 95.857 95.697 L 96.527 93.761 L 97.176 92.985 C 97.176 92.985 96.74 91.214 96.784 90.264 C 96.805 89.804 97.927 89.038 98.221 88.493" fill="rgb(52,21,20)"/><path d=" M 87.84 86.744 C 88.616 86.228 90.95 86.618 91.405 87.685 C 91.906 88.876 91.274 86.744 91.274 86.744 C 91.274 86.744 92.209 87.168 92.209 88.466 C 93.378 87.685 92.565 87.069 92.565 87.069 L 93.743 87.213 L 94.253 87.848 C 94.253 87.848 97.814 89.334 98.424 85.73 C 97.463 87.068 96.475 86.836 96.475 86.836 C 96.475 86.836 98.728 86.689 98.017 84.886 C 97.929 85.061 98.139 86.733 95.419 85.577 C 93.28 84.673 92.565 85.124 92.565 85.124 C 92.565 85.124 89.197 84.738 87.058 86.681 C 86.248 87.422 85.91 88.03 85.91 88.03 L 87.84 86.744" fill="rgb(83,22,21)"/><path d=" M 96.01 92.725 C 94.974 92.594 94.195 93.376 94.974 95.058 C 95.748 96.744 96.397 97.004 97.043 96.485 C 97.694 95.962 96.01 92.725 96.01 92.725" fill="rgb(201,142,125)"/><path d=" M 86.869 102.273 C 85.274 103.17 84.771 102.864 81.476 105.238 C 81.476 105.238 80.007 105.726 79.789 106.226 C 77.58 111.285 79.523 115.372 79.976 118.006 C 80.872 123.202 82.083 128.192 81.417 131.928 C 80.291 138.228 79.441 144.137 79.673 145.009 C 79.765 145.364 89.009 148.67 95.051 147.77 C 100.478 146.962 103.66 146.014 103.998 145.736 C 103.452 140.856 102.229 133.264 102.06 129.958 C 101.804 125.006 102.774 121.962 102.995 119.744 C 103.215 117.524 102.409 114.462 102.659 114.001 C 103.333 112.757 102.556 106.257 102.556 106.257 C 102.556 106.257 99.751 104.826 95.75 102.577 C 94.772 102.025 91.883 101.692 91.883 101.692 L 86.869 102.273" fill="rgb(125,189,234)"/><path d=" M 86.56 101.04 L 85.893 102.681 C 85.893 102.681 88.424 102.484 90.387 102.67 C 93.524 102.965 96.794 103.372 96.794 103.372 L 96.088 101.384 C 96.088 101.384 94.325 100.704 90.182 100.66 C 88.912 100.646 86.56 101.04 86.56 101.04" fill="rgb(125,189,234)"/><path d=" M 102.062 105.762 C 100.754 106.418 100.166 107.296 100.166 107.296 C 100.166 107.296 97.978 104.902 92.116 104.252 C 82.408 103.165 80.676 105.632 80.676 105.632 C 80.676 105.632 85.104 102.448 86.083 102.448 C 87.064 102.448 91.747 101.781 96.484 103.068 C 97.435 103.325 100.288 104.906 100.716 105.152 L 102.062 105.762 Z " fill="rgb(155,207,241)"/><path d=" M 101.528 109.954 C 99.953 111.416 99.902 125.828 100.125 129.764 C 100.351 133.701 101.861 143.602 102.087 144.616 C 102.314 145.629 96.682 146.801 96.682 146.801 C 96.682 146.801 103.267 145.97 103.78 144.97 C 104.005 144.529 103.005 137.973 102.698 136.2 C 102.387 134.428 101.785 129.484 102.123 127.796 C 102.461 126.11 102.062 121.906 102.512 119.318 L 101.528 109.954" fill="rgb(155,207,241)"/><path d=" M 101.267 105.826 C 103.557 104.522 105.06 109.038 106.172 113.305 C 106.909 116.122 107.753 118.26 108.135 119.068 C 111.073 125.337 110.209 127.941 109.002 128.652 C 104.442 131.348 101.447 122.586 100.602 119.088 C 99.024 112.561 101.267 105.826 101.267 105.826 Z " fill="rgb(125,189,234)"/><path d=" M 104.515 108.52 C 104.352 110.814 102.583 113.366 102.739 113.348 C 103.409 113.257 105.251 111.345 105.251 111.345 C 105.251 111.345 105.344 111.681 105.251 112.566 C 105.191 113.152 104.886 115.08 104.374 115.637 C 103.877 116.172 105.867 114.001 105.867 113.185 C 105.867 112.366 104.515 108.52 104.515 108.52" fill="rgb(155,207,241)"/></g></g></g></svg>