<?xml version="1.0" encoding="UTF-8" standalone="no"?><!-- Generator: Gravit.io --><svg xmlns="http://www.w3.org/2000/svg" xmlns:xlink="http://www.w3.org/1999/xlink" style="isolation:isolate" viewBox="0 0 300 300" width="300pt" height="300pt"><defs><clipPath id="_clipPath_INgz0nrAdYYxqV8AbMRAbBwWSJYhOtlX"><rect width="300" height="300"/></clipPath></defs><g clip-path="url(#_clipPath_INgz0nrAdYYxqV8AbMRAbBwWSJYhOtlX)"><g><path d=" M 196.301 110.846 C 197.07 110.687 198.641 109.427 198.905 108.706 C 198.524 106.98 198.776 104.19 198.776 104.19 L 193.034 103.302 C 193.034 103.302 192.833 107.124 192.514 108.796 C 192.849 109.91 194.718 111.175 196.301 110.846 Z " fill="rgb(237,122,49)"/><path d=" M 203.093 97.746 C 202.905 96.862 202.009 96.987 201.693 97.059 C 201.268 93.314 199.116 90.524 196.182 90.418 C 193.182 90.308 190.825 92.851 190.2 96.644 C 189.901 96.55 188.996 96.344 188.742 97.222 C 188.437 98.279 188.912 99.899 190.097 100.342 L 190.108 100.346 C 190.185 101.018 190.325 101.666 190.562 102.228 C 191.734 105.012 193.957 107.158 195.57 107.218 C 197.224 107.278 199.413 105.402 200.762 102.6 C 201.028 102.048 201.272 101.422 201.454 100.77 L 201.514 100.758 C 202.729 100.402 203.32 98.822 203.093 97.746" fill="rgb(249,170,109)"/><path d=" M 197.22 92.894 C 195.976 94.76 191.877 97.464 189.008 96.736 C 188.664 94.082 190.317 91.42 191.245 90.372 C 193.853 87.427 198.657 87.844 200.118 89.442 C 203.277 92.894 203.194 95.391 202.277 97.086 C 200.781 97.763 197.948 94.684 197.22 92.894 Z " fill="rgb(44,42,41)"/><path d=" M 214.986 130.08 C 213.369 122.027 211.588 114.098 209.212 112.632 C 206.836 111.167 198.8 108.548 198.8 108.548 L 195.709 110.846 L 192.62 108.548 C 192.62 108.548 184.584 111.167 182.208 112.632 C 179.832 114.098 178.05 122.027 176.433 130.08 C 176.07 131.888 175.64 133.907 175.193 135.938 C 179.106 135.936 182.181 137.59 182.181 137.59 L 185.194 123.992 L 187.201 137.59 L 195.605 137.59 L 195.814 137.59 L 204.218 137.59 L 206.225 123.992 L 209.238 137.59 C 209.238 137.59 212.313 135.936 216.226 135.938 C 215.78 133.907 215.349 131.888 214.986 130.08 Z " fill="rgb(0,38,77)"/><path d=" M 173.656 133.819 L 174.98 137.59 C 174.98 137.59 176.314 137.439 177.921 137.908 C 178.802 138.166 179.734 138.254 180.602 139.014 C 181.949 138.226 183.976 136.714 183.976 136.714 C 183.976 136.714 182.997 133.699 179.594 132.854 C 176.193 132.007 173.656 133.819 173.656 133.819 Z " fill="rgb(218,217,215)"/><path d=" M 217.53 133.819 L 216.206 137.59 C 216.206 137.59 213.001 137.227 210.55 139.37 C 209.205 138.582 207.209 136.714 207.209 136.714 C 207.209 136.714 208.56 133.951 211.961 133.104 C 215.364 132.258 217.53 133.819 217.53 133.819 Z " fill="rgb(218,217,215)"/><path d=" M 202.049 152.2 L 189.853 152.2 L 189.853 111.256 L 202.049 111.256 L 202.049 152.2 Z " fill="rgb(0,26,51)"/><path d=" M 200.994 152.447 L 188.652 152.447 L 188.652 112.338 L 200.994 112.338 L 200.994 152.447 Z " fill="rgb(0,38,77)"/><path d=" M 185.252 210.854 C 185.252 210.854 178.5 214.132 176.632 215.324 C 174.765 216.515 175.48 217.664 175.48 217.664 L 189.13 217.664 C 189.13 217.664 189.324 212.35 188.94 211.2 C 188.556 210.051 185.252 210.854 185.252 210.854" fill="rgb(255,255,255)"/><path d=" M 184.041 171.146 C 184.041 171.146 183.772 183.566 183.24 188.647 C 182.388 196.811 181.229 212.131 181.229 212.131 L 189.853 212.131 C 189.853 212.131 191.564 192.67 192.514 184.912 C 193.182 179.472 194.513 171.146 194.513 171.146 L 184.041 171.146" fill="rgb(88,89,91)"/><path d=" M 189.13 217.144 L 175.345 217.144 L 175.345 218.186 L 189.13 218.186 L 189.13 217.144 Z " fill="rgb(88,89,91)"/><path d=" M 206.888 210.854 C 206.888 210.854 213.64 214.132 215.506 215.324 C 217.374 216.515 216.658 217.664 216.658 217.664 L 203.009 217.664 C 203.009 217.664 202.816 212.35 203.2 211.2 C 203.584 210.051 206.888 210.854 206.888 210.854" fill="rgb(255,255,255)"/><path d=" M 208.097 171.146 C 208.097 171.146 208.368 183.566 208.898 188.647 C 209.752 196.811 210.91 212.131 210.91 212.131 L 202.286 212.131 C 202.286 212.131 200.576 192.67 199.624 184.912 C 198.957 179.472 197.626 171.146 197.626 171.146 L 208.097 171.146" fill="rgb(88,89,91)"/><path d=" M 203.009 217.144 L 216.793 217.144 L 216.793 218.186 L 203.009 218.186 L 203.009 217.144 Z " fill="rgb(88,89,91)"/><path d=" M 209.388 158.374 C 208.793 148.056 204.405 137.59 204.405 137.59 L 201.679 137.59 L 195.605 137.59 L 194.39 137.59 L 187.201 137.59 C 187.201 137.59 182.813 148.056 182.218 158.374 C 181.625 168.691 180.634 179.779 180.634 179.779 L 194.098 179.779 L 195.896 179.779 L 210.972 179.779 C 210.972 179.779 209.981 168.691 209.388 158.374 Z " fill="rgb(166,26,17)"/><path d=" M 202.832 90.414 L 188.961 90.414 L 188.961 95.579 L 202.832 95.579 L 202.832 90.414 Z " fill="rgb(166,26,17)"/><path d=" M 204.604 138.084 L 187.021 138.084 L 187.021 136.37 L 204.604 136.37 L 204.604 138.084" fill="rgb(151,25,16)"/><path d=" M 191.253 93.351 C 190.002 93.543 187.392 94.275 186.204 92.996 C 185.016 91.718 184.284 87.511 188.961 86.25 C 193.64 84.987 199.173 86.619 201.925 87.838 C 204.677 89.055 206.796 89.787 206.177 91.124 C 205.558 92.46 202.832 92.46 199.346 92.238 C 197.544 92.123 193.04 93.079 191.253 93.351" fill="rgb(151,25,16)"/><path d=" M 191.441 108.942 L 191.441 106.54 C 191.441 106.54 195.836 107.65 195.709 110.846 C 193.577 110.083 191.441 108.942 191.441 108.942" fill="rgb(218,217,215)"/><path d=" M 199.98 108.942 L 199.98 106.54 C 199.98 106.54 195.586 107.65 195.712 110.846 C 197.845 110.083 199.98 108.942 199.98 108.942" fill="rgb(218,217,215)"/><path d=" M 192.278 114.188 C 192.278 114.582 191.958 114.903 191.564 114.903 C 191.169 114.903 190.849 114.582 190.849 114.188 C 190.849 113.794 191.169 113.474 191.564 113.474 C 191.958 113.474 192.278 113.794 192.278 114.188 Z " fill="rgb(166,26,17)"/><path d=" M 199.736 114.188 C 199.736 114.582 199.416 114.903 199.021 114.903 C 198.626 114.903 198.306 114.582 198.306 114.188 C 198.306 113.794 198.626 113.474 199.021 113.474 C 199.416 113.474 199.736 113.794 199.736 114.188 Z " fill="rgb(166,26,17)"/><path d=" M 192.278 123.07 C 192.278 123.463 191.958 123.784 191.564 123.784 C 191.169 123.784 190.849 123.463 190.849 123.07 C 190.849 122.675 191.169 122.355 191.564 122.355 C 191.958 122.355 192.278 122.675 192.278 123.07 Z " fill="rgb(166,26,17)"/><path d=" M 199.736 123.07 C 199.736 123.463 199.416 123.784 199.021 123.784 C 198.626 123.784 198.306 123.463 198.306 123.07 C 198.306 122.675 198.626 122.355 199.021 122.355 C 199.416 122.355 199.736 122.675 199.736 123.07 Z " fill="rgb(166,26,17)"/><path d=" M 192.278 133.104 C 192.278 133.499 191.958 133.819 191.564 133.819 C 191.169 133.819 190.849 133.499 190.849 133.104 C 190.849 132.71 191.169 132.39 191.564 132.39 C 191.958 132.39 192.278 132.71 192.278 133.104 Z " fill="rgb(166,26,17)"/><path d=" M 199.736 133.104 C 199.736 133.499 199.416 133.819 199.021 133.819 C 198.626 133.819 198.306 133.499 198.306 133.104 C 198.306 132.71 198.626 132.39 199.021 132.39 C 199.416 132.39 199.736 132.71 199.736 133.104 Z " fill="rgb(166,26,17)"/><path d=" M 157.901 142.215 C 157.901 143.688 156.706 144.883 155.233 144.883 C 153.758 144.883 152.564 143.688 152.564 142.215 C 152.564 140.74 153.758 139.546 155.233 139.546 C 156.706 139.546 157.901 140.74 157.901 142.215 Z " fill="rgb(238,39,72)"/><path d=" M 166.877 142.838 C 166.877 144.311 165.681 145.506 164.208 145.506 C 162.734 145.506 161.538 144.311 161.538 142.838 C 161.538 141.363 162.734 140.168 164.208 140.168 C 165.681 140.168 166.877 141.363 166.877 142.838 Z " fill="rgb(238,39,72)"/><path d=" M 163.017 149.463 C 165.712 147.22 169.932 141.904 170.824 139.655 C 171.44 138.103 171.084 137.175 169.642 137.57 C 169.008 137.743 168.262 139.142 167.909 139.58 C 167.03 140.675 162.758 146.515 161.748 147.842 C 160.376 149.64 162.08 150.243 163.017 149.463 Z " fill="rgb(81,159,53)"/><path d=" M 168.942 139.734 C 169.321 139.88 169.51 139.344 169.176 139.158 C 168.828 138.966 168.557 139.583 168.942 139.734 Z " fill="rgb(134,208,76)"/><path d=" M 162.676 148.028 C 163.054 148.176 163.244 147.639 162.909 147.454 C 162.561 147.26 162.29 147.879 162.676 148.028 Z " fill="rgb(134,208,76)"/><path d=" M 166.902 142.751 C 167.149 142.42 166.636 142.036 166.389 142.368 C 166.142 142.699 166.656 143.082 166.902 142.751 Z " fill="rgb(134,208,76)"/><path d=" M 169.118 141.758 C 169.364 141.427 168.85 141.044 168.604 141.375 C 168.357 141.706 168.872 142.09 169.118 141.758 Z " fill="rgb(134,208,76)"/><path d=" M 166.916 144.666 C 167.14 144.366 166.674 144.018 166.45 144.318 C 166.226 144.618 166.693 144.966 166.916 144.666 Z " fill="rgb(134,208,76)"/><path d=" M 165.122 145.32 C 165.394 144.955 164.826 144.531 164.554 144.898 C 164.281 145.263 164.849 145.687 165.122 145.32 Z " fill="rgb(134,208,76)"/><path d=" M 164.133 147.918 C 164.416 147.536 163.825 147.096 163.542 147.478 C 163.258 147.858 163.849 148.298 164.133 147.918 Z " fill="rgb(134,208,76)"/><path d=" M 156.642 136.608 C 156.354 140.103 157.193 146.839 158.173 149.051 C 158.85 150.578 159.762 150.972 160.49 149.668 C 160.81 149.094 160.334 147.582 160.269 147.023 C 160.102 145.63 158.926 138.491 158.689 136.839 C 158.366 134.6 156.742 135.394 156.642 136.608" fill="rgb(81,159,53)"/><path d=" M 159.436 147.654 C 159.065 147.82 159.316 148.332 159.682 148.223 C 160.065 148.11 159.813 147.483 159.436 147.654 Z " fill="rgb(134,208,76)"/><path d=" M 157.905 137.37 C 157.534 137.538 157.785 138.048 158.152 137.94 C 158.534 137.827 158.282 137.2 157.905 137.37 Z " fill="rgb(134,208,76)"/><path d=" M 158.71 144.084 C 158.774 144.491 159.408 144.394 159.344 143.986 C 159.281 143.578 158.646 143.676 158.71 144.084 Z " fill="rgb(134,208,76)"/><path d=" M 157.868 146.36 C 157.932 146.768 158.565 146.67 158.501 146.262 C 158.437 145.854 157.804 145.952 157.868 146.36 Z " fill="rgb(134,208,76)"/><path d=" M 157.334 142.752 C 157.393 143.122 157.968 143.034 157.909 142.663 C 157.852 142.294 157.277 142.382 157.334 142.752 Z " fill="rgb(134,208,76)"/><path d=" M 158.124 141.012 C 158.194 141.463 158.894 141.355 158.824 140.904 C 158.753 140.454 158.054 140.563 158.124 141.012 Z " fill="rgb(134,208,76)"/><path d=" M 156.964 138.488 C 157.037 138.958 157.765 138.844 157.692 138.375 C 157.618 137.907 156.89 138.02 156.964 138.488 Z " fill="rgb(134,208,76)"/><path d=" M 142.887 135.091 C 143.665 133.964 144.466 134.914 144.867 135.499 C 144.957 135.222 145.309 135.264 145.463 135.439 C 145.979 136.023 146.375 136.611 146.701 137.279 C 146.866 137.194 147.068 137.187 147.327 137.262 C 147.628 137.348 147.731 137.583 147.935 137.818 C 148.133 138.047 148.412 138.779 148.536 138.979 C 149.078 139.851 149.777 140.499 150.536 141.188 L 150.451 141.327 L 150.466 141.498 C 150.467 141.499 150.296 142.428 149.922 142.168 C 147.885 140.748 146.258 139.446 143.641 139.567 C 143.308 139.583 143.367 139.284 143.435 139.127 C 143.526 138.919 143.893 138.532 144.018 138.414 C 143.634 138.406 142.871 138.454 142.493 138.326 C 142.323 138.268 142.116 137.902 142.657 137.422 C 141.785 137.436 140.895 137.358 140.37 136.654 C 140.085 136.274 140.112 135.812 140.295 135.594 C 139.829 135.263 139.499 134.776 139.988 134.235 C 140.679 133.471 142.016 134.415 142.887 135.091" fill="rgb(81,159,53)"/><path d=" M 153.101 140.834 C 152.061 139.724 150.404 139.575 149.396 140.52 C 148.389 141.466 148.434 143.13 149.474 144.238 C 150.515 145.346 158.941 152.506 159.848 151.655 C 160.754 150.803 154.142 141.942 153.101 140.834" fill="rgb(245,126,20)"/><path d=" M 148.208 142.938 C 148.404 147.399 151.925 151.112 156.66 152.208 C 157.586 152.422 158.559 152.536 159.562 152.536 C 165.697 152.536 170.684 148.272 170.917 142.938 L 148.208 142.938 Z " fill="rgb(204,86,20)"/><path d=" M 163.906 152.888 L 155.22 152.888 L 155.22 151.776 L 163.906 151.776 L 163.906 152.888 Z " fill="rgb(204,86,20)"/><path d=" M 159.398 198.726 C 152.553 202.579 145.963 206.87 139.746 211.659 L 139.746 219.427 L 152.122 219.427 L 253.757 219.427 L 253.757 178.008 L 253.757 168.832 C 220.982 173.508 188.194 182.518 159.398 198.726 Z " fill="rgb(166,104,41)"/><path d=" M 139.746 156.084 L 139.746 211.659 C 145.963 206.87 152.553 202.579 159.398 198.726 C 188.194 182.518 220.982 173.508 253.757 168.832 L 253.757 156.084 L 139.746 156.084 Z " fill="rgb(179,112,45)"/><path d=" M 137.189 152.96 L 137.189 156.084 L 256.314 156.084 L 256.314 152.96 L 137.189 152.96 Z " fill="rgb(179,112,45)"/><path d=" M 253.757 156.084 L 139.746 156.084 L 139.746 166.267 L 253.757 166.267 L 253.757 156.084 Z " fill="rgb(102,64,26)"/><path d=" M 210.221 140.33 C 210.221 140.33 211.21 142.775 206.242 144.471 C 201.274 146.167 198.992 146.947 198.992 146.947 L 198.116 144.38 L 210.221 140.33 Z " fill="rgb(193,191,189)"/><path d=" M 198.116 144.38 L 198.992 146.947 L 198.434 147.1 C 198.434 147.1 197.885 145.946 197.345 145.827 C 196.804 145.71 195.002 146.963 193.781 147.578 C 192.008 148.474 189.248 149.415 187.668 147.948 C 189.324 147.383 195.31 145.32 198.116 144.38" fill="rgb(54,53,54)"/><path d=" M 180.473 137.05 C 180.977 137.302 182.484 137.968 185.106 139.37 C 188.089 140.963 191.658 142.738 193.092 143.436 C 195.564 144.643 195.716 145.06 196.422 146.516 C 197.3 148.322 195.829 150.13 193.092 149.012 C 190.353 147.895 189.413 145.314 188.47 144.735 C 186.218 143.354 177.829 142.094 176.861 141.418 C 174.617 139.852 174.729 137.59 174.729 137.59 C 174.729 137.59 176.641 135.134 180.473 137.05" fill="rgb(249,170,109)"/><path d=" M 218.477 146.024 C 218.477 146.024 217.781 147.272 217.53 147.846 C 217.28 148.42 216.868 149.802 216.868 149.802 L 218.938 149.802 C 218.938 149.802 219.261 146.946 218.477 146.024 Z " fill="rgb(249,170,109)"/><path d=" M 233.565 149.884 C 233.676 148.52 232.454 148.748 231.774 148.948 C 231.88 148.678 231.58 148.487 231.35 148.524 C 230.581 148.651 229.902 148.856 229.228 149.167 C 229.154 148.998 229.001 148.864 228.754 148.759 C 228.465 148.635 228.237 148.752 227.93 148.806 C 227.632 148.858 226.953 149.248 226.73 149.324 C 225.76 149.658 224.809 149.716 223.784 149.771 L 223.762 149.932 C 223.854 149.962 223.776 150.035 223.642 150.055 C 223.642 150.055 223.186 150.884 223.64 150.918 C 226.117 151.107 228.201 151.126 230.15 152.876 C 230.4 153.099 230.542 152.83 230.589 152.664 C 230.65 152.446 230.61 151.915 230.589 151.743 C 230.89 151.98 231.452 152.499 231.826 152.639 C 231.993 152.703 232.385 152.55 232.27 151.835 C 232.937 152.399 233.676 152.9 234.528 152.687 C 234.988 152.572 235.26 152.199 235.256 151.914 C 235.826 151.951 236.389 151.783 236.353 151.055 C 236.301 150.026 234.668 149.912 233.565 149.884" fill="rgb(81,159,53)"/><path d=" M 222.021 147.874 C 223.529 147.672 224.908 148.604 225.09 149.975 C 225.272 151.344 224.185 152.604 222.678 152.804 C 221.172 153.006 210.117 153.223 209.953 151.991 C 209.789 150.758 220.514 148.074 222.021 147.874 Z " fill="rgb(245,126,20)"/><path d=" M 152.232 140.667 C 151.811 140.68 151.503 140.843 151.252 141.182 C 151.132 141.346 151.386 141.52 151.523 141.391 C 151.747 141.183 151.979 141.015 152.262 140.896 C 152.374 140.848 152.375 140.662 152.232 140.667" fill="rgb(248,155,54)"/><path d=" M 149.545 141.644 C 149.427 141.811 149.335 142.018 149.31 142.224 C 149.289 142.4 149.535 142.418 149.616 142.266 C 149.952 141.636 149.905 141.138 149.545 141.644 Z " fill="rgb(248,155,54)"/><path d=" M 152.351 141.963 C 151.884 142.175 151.712 142.354 151.47 142.586 C 151.324 142.726 151.52 142.827 151.695 142.776 C 152.034 142.678 152.266 142.412 152.519 142.175 C 152.637 142.064 152.5 141.895 152.351 141.963" fill="rgb(248,155,54)"/><path d=" M 223.438 152.231 C 223.685 151.89 223.745 151.546 223.629 151.14 C 223.573 150.946 223.28 151.039 223.297 151.227 C 223.326 151.531 223.317 151.818 223.238 152.115 L 223.438 152.231 Z " fill="rgb(248,155,54)"/><path d=" M 217.416 150.472 C 217.43 150.052 217.289 149.734 216.968 149.46 C 216.813 149.33 216.621 149.572 216.741 149.718 C 216.933 149.955 217.085 150.198 217.185 150.488 C 217.225 150.603 217.41 150.616 217.416 150.472 Z " fill="rgb(248,155,54)"/><path d=" M 215.032 151.506 C 215.046 151.084 214.905 150.766 214.584 150.494 C 214.429 150.362 214.237 150.604 214.357 150.75 C 214.549 150.987 214.701 151.23 214.801 151.52 C 214.841 151.635 215.028 151.648 215.032 151.506 Z " fill="rgb(248,155,54)"/><path d=" M 224.306 149.507 C 224.246 149.311 224.138 149.112 223.99 148.967 C 223.864 148.842 223.701 149.026 223.772 149.183 C 224.064 149.832 224.488 150.102 224.306 149.507" fill="rgb(248,155,54)"/><path d=" M 216.425 151.599 C 216.37 151.796 216.356 152.022 216.404 152.224 C 216.445 152.396 216.681 152.327 216.705 152.158 C 216.804 151.451 216.588 150.999 216.425 151.599 Z " fill="rgb(248,155,54)"/><path d=" M 212.918 151.754 C 212.864 151.951 212.849 152.176 212.897 152.379 C 212.938 152.551 213.174 152.482 213.198 152.312 C 213.297 151.606 213.081 151.154 212.918 151.754 Z " fill="rgb(248,155,54)"/><path d=" M 218.332 152.512 C 218.449 152.012 218.414 151.767 218.377 151.434 C 218.354 151.232 218.156 151.326 218.089 151.495 C 217.96 151.823 218.028 152.17 218.061 152.515 C 218.077 152.676 218.294 152.671 218.332 152.512" fill="rgb(248,155,54)"/><path d=" M 215.585 136.675 C 217.936 139.322 221.518 145.382 222.532 146.947 C 223.545 148.512 223.396 150.631 221.978 151.828 C 220.206 153.327 219.113 152.244 218.8 151.276 C 218.293 149.71 218.468 147.258 217.97 146.116 C 216.97 143.818 212.733 142.511 210.55 139.37 C 209.772 138.248 210.761 136.296 212.005 135.934 C 213.624 135.462 214.998 136.015 215.585 136.675" fill="rgb(249,170,109)"/><path d=" M 206.412 152.96 L 180.742 152.96 L 180.742 150.992 L 206.412 150.992 L 206.412 152.96 Z " fill="rgb(248,235,87)"/><path d=" M 175.242 150.964 C 171.833 150.142 165.049 149.932 162.712 150.56 C 161.1 150.992 160.569 151.834 161.745 152.754 C 162.264 153.159 163.83 152.922 164.393 152.943 C 165.796 152.994 173.03 152.932 174.7 152.951 C 176.961 152.978 176.426 151.251 175.242 150.964" fill="rgb(81,159,53)"/><path d=" M 163.898 152.022 C 163.79 151.631 163.246 151.8 163.298 152.179 C 163.35 152.574 164.009 152.422 163.898 152.022 Z " fill="rgb(134,208,76)"/><path d=" M 174.296 152.095 C 174.186 151.703 173.644 151.872 173.694 152.251 C 173.748 152.646 174.405 152.494 174.296 152.095 Z " fill="rgb(134,208,76)"/><path d=" M 167.537 151.856 C 167.125 151.856 167.124 152.498 167.537 152.498 C 167.949 152.498 167.95 151.856 167.537 151.856 Z " fill="rgb(134,208,76)"/><path d=" M 165.418 150.672 C 165.005 150.672 165.005 151.314 165.418 151.314 C 165.83 151.314 165.83 150.672 165.418 150.672 Z " fill="rgb(134,208,76)"/><path d=" M 169.065 150.702 C 168.69 150.702 168.69 151.284 169.065 151.284 C 169.438 151.284 169.44 150.702 169.065 150.702 Z " fill="rgb(134,208,76)"/><path d=" M 170.662 151.75 C 170.206 151.75 170.205 152.458 170.662 152.458 C 171.117 152.458 171.118 151.75 170.662 151.75 Z " fill="rgb(134,208,76)"/><path d=" M 173.334 150.992 C 172.861 150.992 172.86 151.73 173.334 151.73 C 173.809 151.73 173.81 150.992 173.334 150.992 Z " fill="rgb(134,208,76)"/><path d=" M 245.378 149.07 C 245.378 149.07 243.128 150.446 240.641 145.823 C 238.153 141.2 237.01 139.076 237.01 139.076 L 239.398 137.791 L 245.378 149.07" fill="rgb(193,191,189)"/><path d=" M 239.398 137.791 L 237.01 139.076 L 236.768 138.551 C 236.768 138.551 237.817 137.82 237.845 137.267 C 237.873 136.715 236.342 135.143 235.534 134.039 C 234.361 132.436 232.978 129.867 234.168 128.07 C 234.996 129.61 238.013 135.178 239.398 137.791" fill="rgb(54,53,54)"/><path d=" M 250.665 149.192 C 250.665 149.192 247.944 150.856 244.936 145.266 C 241.928 139.675 240.545 137.106 240.545 137.106 L 243.433 135.552 L 250.665 149.192" fill="rgb(193,191,189)"/><path d=" M 243.433 135.552 L 240.545 137.106 L 240.25 136.471 C 240.25 136.471 241.52 135.587 241.553 134.918 C 241.588 134.25 239.736 132.348 238.76 131.014 C 237.34 129.075 235.669 125.968 237.106 123.792 C 238.109 125.656 241.757 132.391 243.433 135.552" fill="rgb(54,53,54)"/><path d=" M 239.809 147.696 L 239.809 152.934 L 245.378 152.934 L 241.194 146.947 L 239.809 147.696" fill="rgb(166,104,41)"/><path d=" M 254.596 152.934 L 246.644 137.39 L 237.048 142.299 L 242.488 152.934 L 254.596 152.934" fill="rgb(179,112,45)"/><path d=" M 66.384 111.149 C 66.384 111.149 68.327 109.752 70.949 109.752 C 73.571 109.752 75.296 111.149 75.296 111.149 L 71.636 114.272 L 66.384 111.149 Z " fill="rgb(165,165,164)"/><path d=" M 58.348 214.817 C 58.348 214.817 56.25 216.393 54.115 217.888 C 51.98 219.381 52.029 221.872 52.029 221.872 L 65.779 221.872 C 65.779 221.872 66.201 216.168 64.656 214.817 C 62.415 214.817 58.348 214.817 58.348 214.817 Z " fill="rgb(54,53,54)"/><path d=" M 65.821 220.96 L 52.029 220.96 L 52.029 221.872 L 65.821 221.872 L 65.821 220.96" fill="rgb(44,42,41)"/><path d=" M 85.636 214.817 C 85.636 214.817 87.733 216.393 89.868 217.888 C 92.004 219.381 91.955 221.872 91.955 221.872 L 78.204 221.872 C 78.204 221.872 77.783 216.168 79.327 214.817 C 81.568 214.817 85.636 214.817 85.636 214.817" fill="rgb(54,53,54)"/><path d=" M 78.163 220.96 L 91.955 220.96 L 91.955 221.872 L 78.163 221.872 L 78.163 220.96 Z " fill="rgb(44,42,41)"/><path d=" M 67.531 109.471 C 67.531 109.471 67.7 111.896 67.325 113.305 C 67.104 114.14 71.319 117.845 71.319 117.845 C 71.319 117.845 74.347 115.363 74.581 113.305 C 74.455 111.661 74.213 109.471 74.213 109.471 L 67.531 109.471" fill="rgb(237,122,49)"/><path d=" M 64.809 101.316 C 64.809 101.316 63.956 100.865 63.405 101.968 C 62.853 103.072 63.871 104.832 64.824 104.881 C 65.777 104.932 64.809 101.316 64.809 101.316" fill="rgb(249,170,109)"/><path d=" M 77.742 101.265 C 77.742 101.265 78.651 100.944 79.036 102.116 C 79.42 103.288 78.156 104.88 77.206 104.791 C 76.256 104.7 77.742 101.265 77.742 101.265 Z " fill="rgb(249,170,109)"/><path d=" M 77.602 102.556 C 77.602 107.303 74.671 111.149 71.057 111.149 C 67.443 111.149 64.514 107.303 64.514 102.556 C 64.514 97.809 67.443 93.963 71.057 93.963 C 74.671 93.963 77.602 97.809 77.602 102.556 Z " fill="rgb(249,170,109)"/><path d=" M 64.23 101.247 L 64.957 101.759 L 66.384 99.695 L 64.246 99.695 L 64.23 101.247 Z " fill="rgb(54,53,54)"/><path d=" M 77.966 101.247 L 77.239 101.759 L 75.812 99.695 L 77.95 99.695 L 77.966 101.247 Z " fill="rgb(54,53,54)"/><path d=" M 56.757 162.243 L 55.467 216.535 L 67.046 216.535 L 70.858 164.865 L 77.998 216.535 L 89.187 216.535 L 84.857 162.243 L 79.106 155.003 L 64.246 155.003 L 56.757 162.243 Z " fill="rgb(88,89,91)"/><path d=" M 103.747 118.348 C 103.747 118.348 106.988 111.151 107.725 109.509 C 108.463 107.868 110.236 105.872 111.342 107.715 C 112.447 109.557 112.612 111.4 112.336 112.757 C 112.059 114.115 106.988 120.363 106.988 120.363 L 103.747 118.348 Z " fill="rgb(249,170,109)"/><path d=" M 94.755 128.045 C 92.193 123.839 89.073 119.196 86.855 117.497 C 84.281 115.525 74.581 113.305 74.581 113.305 C 74.581 113.305 71.114 116.823 70.818 117.395 C 70.392 116.731 67.325 113.305 67.325 113.305 C 67.325 113.305 57.915 115.425 55.467 117.263 C 51.884 119.953 46.77 132.556 44.329 136.743 C 43.656 137.896 43.234 140.275 44.508 141.941 C 46.751 144.872 56.317 151.775 56.317 151.775 L 60.186 145.28 L 53.632 138.923 L 56.693 130.681 L 56.757 162.243 L 84.857 162.243 L 84.943 130.681 L 88.533 134.463 C 90.239 132.063 92.614 130.123 94.755 128.045" fill="rgb(0,38,77)"/><path d=" M 77.998 162.243 L 63.249 162.243 L 63.249 117.395 L 77.998 117.395 L 77.998 162.243 Z " fill="rgb(0,26,51)"/><path d=" M 76.889 162.243 L 61.963 162.243 L 61.963 118.308 L 76.889 118.308 L 76.889 162.243" fill="rgb(0,38,77)"/><path d=" M 77.998 100.312 L 77.998 80.835 C 77.998 80.835 75.874 78.128 71.058 78.128 C 66.2 78.128 64.23 80.835 64.23 80.835 L 64.23 100.312 L 77.998 100.312 Z " fill="rgb(0,38,77)"/><path d=" M 66.225 113.565 L 66.384 111.149 C 66.384 111.149 71.002 114.445 70.818 117.395 C 68.111 115.552 66.225 113.565 66.225 113.565" fill="rgb(218,217,215)"/><path d=" M 75.456 113.565 L 75.296 111.149 C 75.296 111.149 70.679 114.445 70.863 117.395 C 73.57 115.552 75.456 113.565 75.456 113.565" fill="rgb(218,217,215)"/><path d=" M 66.938 120.324 C 66.938 120.748 66.594 121.092 66.169 121.092 C 65.744 121.092 65.4 120.748 65.4 120.324 C 65.4 119.899 65.744 119.555 66.169 119.555 C 66.594 119.555 66.938 119.899 66.938 120.324 Z " fill="rgb(54,53,54)"/><path d=" M 75.846 120.324 C 75.846 120.748 75.502 121.092 75.078 121.092 C 74.653 121.092 74.308 120.748 74.308 120.324 C 74.308 119.899 74.653 119.555 75.078 119.555 C 75.502 119.555 75.846 119.899 75.846 120.324 Z " fill="rgb(54,53,54)"/><path d=" M 66.938 132.208 C 66.938 132.633 66.594 132.977 66.169 132.977 C 65.744 132.977 65.4 132.633 65.4 132.208 C 65.4 131.784 65.744 131.439 66.169 131.439 C 66.594 131.439 66.938 131.784 66.938 132.208 Z " fill="rgb(54,53,54)"/><path d=" M 75.846 132.208 C 75.846 132.633 75.502 132.977 75.078 132.977 C 74.653 132.977 74.308 132.633 74.308 132.208 C 74.308 131.784 74.653 131.439 75.078 131.439 C 75.502 131.439 75.846 131.784 75.846 132.208 Z " fill="rgb(54,53,54)"/><path d=" M 66.938 143.063 C 66.938 143.488 66.594 143.832 66.169 143.832 C 65.744 143.832 65.4 143.488 65.4 143.063 C 65.4 142.637 65.744 142.293 66.169 142.293 C 66.594 142.293 66.938 142.637 66.938 143.063 Z " fill="rgb(54,53,54)"/><path d=" M 75.846 143.063 C 75.846 143.488 75.502 143.832 75.078 143.832 C 74.653 143.832 74.308 143.488 74.308 143.063 C 74.308 142.637 74.653 142.293 75.078 142.293 C 75.502 142.293 75.846 142.637 75.846 143.063 Z " fill="rgb(54,53,54)"/><path d=" M 66.938 154.948 C 66.938 155.372 66.594 155.716 66.169 155.716 C 65.744 155.716 65.4 155.372 65.4 154.948 C 65.4 154.523 65.744 154.179 66.169 154.179 C 66.594 154.179 66.938 154.523 66.938 154.948 Z " fill="rgb(54,53,54)"/><path d=" M 75.846 154.948 C 75.846 155.372 75.502 155.716 75.078 155.716 C 74.653 155.716 74.308 155.372 74.308 154.948 C 74.308 154.523 74.653 154.179 75.078 154.179 C 75.502 154.179 75.846 154.523 75.846 154.948 Z " fill="rgb(54,53,54)"/><path d=" M 56.558 149.011 L 53.184 192.312 L 89.187 192.312 L 85.058 149.011 L 56.558 149.011 Z " fill="rgb(92,102,10)"/><path d=" M 79.106 126.839 L 62.694 126.839 L 62.694 152.797 L 79.106 152.797 L 79.106 126.839 Z " fill="rgb(92,102,10)"/><path d=" M 56.558 149.425 L 85.058 149.425 L 85.058 147.72 L 56.558 147.72 L 56.558 149.425 Z " fill="rgb(70,79,8)"/><path d=" M 88.009 134.099 C 88.009 134.099 91.32 138.537 93.658 138.54 C 96.321 138.543 98.507 134.739 102.227 129.839 C 105.946 124.939 108.307 119.94 108.307 119.94 L 103.747 116.291 L 88.009 134.099 Z " fill="rgb(0,38,77)"/><path d=" M 60.472 137.3 L 60.409 137.416 C 57.795 142.924 60.141 149.508 65.648 152.123 C 71.156 154.737 77.74 152.392 80.354 146.884 L 80.405 146.761 L 60.472 137.3" fill="rgb(204,86,20)"/><path d=" M 57.953 150.992 C 57.953 150.992 61.136 153.611 64.148 154.588 C 67.57 155.699 70.99 154.723 71.957 154.079 C 73.055 153.347 72.839 152.559 71.523 152.465 C 70.207 152.373 65.784 151.335 65.784 151.335 C 65.784 151.335 67.246 150.357 67.838 149.609 C 68.575 148.679 68.22 148.275 67.489 148.459 C 66.757 148.643 65.176 149.673 64.49 149.388 C 63.508 148.98 60.533 147.952 60.533 147.952 L 57.953 150.992" fill="rgb(249,170,109)"/><path d=" M 102.868 114.952 L 110.1 120.251 L 106.875 127.233 C 106.875 127.233 99.572 121.424 102.868 114.952" fill="rgb(218,217,215)"/><path d=" M 56.621 154.179 L 61.963 146.977 L 56.816 141.261 C 56.816 141.261 51.558 148.971 56.621 154.179 Z " fill="rgb(218,217,215)"/><path d=" M 77.998 97.971 L 64.23 97.971 L 64.23 98.8 L 77.998 98.8 L 77.998 97.971 Z " fill="rgb(70,79,8)"/><path d=" M 64.905 127.643 L 62.849 128.359 L 58.579 115.668 L 60.636 114.952 L 64.905 127.643 Z " fill="rgb(92,102,10)"/><path d=" M 76.889 127.643 L 78.944 128.359 L 83.214 115.668 L 81.158 114.952 L 76.889 127.643 Z " fill="rgb(92,102,10)"/><path d=" M 108.789 106.355 C 108.474 105.388 107.705 104.191 107.265 104.576 C 106.69 105.079 107.357 105.709 107.403 106.953 C 107.453 108.295 106.804 112.943 106.804 112.943 L 108.863 109.633 C 108.863 109.633 109.104 107.321 108.789 106.355" fill="rgb(249,170,109)"/><path d=" M 109.475 105.687 L 109.188 105.709 L 108.103 92.232 L 108.391 92.209 L 109.475 105.687 Z " fill="rgb(54,53,54)"/><path d=" M 109.795 104.897 L 109.52 104.92 L 109.115 99.885 C 109.058 99.183 109.487 98.591 109.941 97.963 C 110.513 97.172 111.161 96.276 111.053 94.929 C 110.978 94 110.674 93.305 110.148 92.867 C 109.468 92.299 108.598 92.307 108.26 92.349 C 107.83 92.392 107.03 92.563 106.49 93.233 C 106.045 93.785 105.878 94.557 105.991 95.531 C 106.15 96.896 106.87 97.569 107.505 98.165 C 108.041 98.667 108.546 99.141 108.609 99.925 L 109.015 104.961 L 108.74 104.983 L 108.334 99.948 C 108.28 99.269 107.833 98.851 107.316 98.367 C 106.646 97.739 105.888 97.028 105.716 95.563 C 105.594 94.513 105.782 93.672 106.275 93.06 C 106.879 92.311 107.76 92.121 108.232 92.075 C 108.599 92.032 109.565 92.02 110.325 92.655 C 110.909 93.143 111.248 93.901 111.329 94.908 C 111.445 96.355 110.765 97.296 110.165 98.125 C 109.724 98.736 109.342 99.263 109.39 99.863 L 109.795 104.897" fill="rgb(54,53,54)"/><path d=" M 108.466 104.703 L 109.233 114.232 C 109.28 114.812 109.669 115.259 110.098 115.225 C 110.528 115.191 110.841 114.687 110.794 114.105 L 110.027 104.576 L 108.466 104.703" fill="rgb(179,112,45)"/><path d=" M 110.931 106.093 C 110.931 106.093 109.431 106.876 109.118 107.608 C 108.806 108.341 108.879 108.779 109.795 108.487 C 110.711 108.195 111.248 107.845 111.786 107.336 C 112.323 106.827 111.924 105.464 110.931 106.093" fill="rgb(249,170,109)"/><path d=" M 111.241 107.417 C 111.241 107.417 109.741 108.199 109.429 108.932 C 109.116 109.664 109.189 110.103 110.105 109.811 C 111.021 109.517 111.558 109.169 112.096 108.66 C 112.633 108.151 112.234 106.787 111.241 107.417 Z " fill="rgb(249,170,109)"/><path d=" M 111.454 108.741 C 111.454 108.741 109.954 109.523 109.642 110.256 C 109.329 110.988 109.402 111.425 110.318 111.133 C 111.234 110.841 111.771 110.492 112.309 109.983 C 112.846 109.473 112.448 108.111 111.454 108.741 Z " fill="rgb(249,170,109)"/><path d=" M 111.897 110.065 C 111.897 110.065 110.397 110.847 110.084 111.579 C 109.772 112.312 109.844 112.749 110.76 112.457 C 111.677 112.165 112.214 111.816 112.752 111.307 C 113.289 110.797 112.89 109.435 111.897 110.065 Z " fill="rgb(249,170,109)"/></g></g></svg>