<?xml version="1.0" encoding="UTF-8" standalone="no"?><!-- Generator: Gravit.io --><svg xmlns="http://www.w3.org/2000/svg" xmlns:xlink="http://www.w3.org/1999/xlink" style="isolation:isolate" viewBox="0 0 250 310" width="250pt" height="310pt"><defs><clipPath id="_clipPath_ZcAt5ETYenU7sxNyLHCOz08KfuUrwUao"><rect width="250" height="310"/></clipPath></defs><g clip-path="url(#_clipPath_ZcAt5ETYenU7sxNyLHCOz08KfuUrwUao)"><g><g><g><path d=" M 1.714 177.22 L 1.714 2.317 L 248.282 2.317 L 248.282 177.22 L 1.714 177.22 Z " fill="rgb(208,214,217)"/><path d=" M 3.431 175.5 L 246.569 175.5 L 246.569 4.032 L 3.431 4.032 L 3.431 175.5 Z  M 250 178.934 L 0 178.934 L 0 0.599 L 250 0.599 L 250 178.934 Z " fill="rgb(124,124,126)"/><path d=" M 244.853 173.786 L 5.147 173.786 L 5.147 5.746 L 244.853 5.746 L 244.853 173.786 Z " fill="rgb(229,232,234)"/><path d=" M 173.538 140.138 L 156.591 140.138 L 156.591 123.19 L 173.538 123.19 L 173.538 140.138 Z " fill="rgb(255,179,76)"/><path d=" M 122.908 158.495 L 105.959 158.495 L 105.959 141.547 L 122.908 141.547 L 122.908 158.495 Z " fill="rgb(184,209,255)"/><path d=" M 198.419 82.052 L 181.47 82.052 L 181.47 65.108 L 198.419 65.108 L 198.419 82.052 Z " fill="rgb(255,179,76)"/><path d=" M 156.591 46.948 L 139.643 46.948 L 139.643 30.002 L 156.591 30.002 L 156.591 46.948 Z " fill="rgb(184,209,255)"/><path d=" M 209.734 117.404 L 194.479 124.782 L 187.1 109.526 L 202.359 102.149 L 209.734 117.404 Z " fill="rgb(255,179,76)"/><path d=" M 162.904 99.682 L 146.018 101.108 L 144.591 84.222 L 161.477 82.796 L 162.904 99.682 Z " fill="rgb(184,209,255)"/><path d=" M 176.449 109.879 L 159.561 111.304 L 158.136 94.418 L 175.022 92.989 L 176.449 109.879 Z " fill="rgb(255,177,181)"/><path d=" M 120.653 140.167 L 104.688 134.483 L 110.372 118.519 L 126.337 124.203 L 120.653 140.167 Z " fill="rgb(255,177,181)"/><path d=" M 189.52 57.064 L 173.555 51.38 L 179.239 35.411 L 195.204 41.099 L 189.52 57.064 Z " fill="rgb(255,177,181)"/><path d=" M 218.548 46.594 L 201.617 47.291 L 200.92 30.356 L 217.853 29.661 L 218.548 46.594 Z " fill="rgb(255,179,76)"/><path d=" M 62.655 38.473 L 46.69 32.789 L 52.374 16.826 L 68.339 22.508 L 62.655 38.473 Z " fill="rgb(255,177,181)"/><path d=" M 146.282 59.134 L 129.388 60.478 L 128.043 43.586 L 144.937 42.238 L 146.282 59.134 Z " fill="rgb(255,179,76)"/><path d=" M 35.776 92.147 L 18.882 93.493 L 17.538 76.598 L 34.431 75.253 L 35.776 92.147 Z " fill="rgb(255,179,76)"/><path d=" M 65.268 32.441 C 65.268 32.441 68.061 32.219 72.249 32.166 C 73.296 32.147 74.43 32.126 75.63 32.154 C 76.829 32.154 78.095 32.232 79.404 32.275 C 82.022 32.388 84.813 32.392 87.606 32.271 C 90.397 32.175 93.188 32.106 95.808 32.087 C 98.424 32.081 100.867 32.081 102.961 32.147 C 107.15 32.235 109.941 32.441 109.941 32.441 L 109.971 32.478 L 109.941 32.514 C 109.941 32.514 107.15 32.719 102.961 32.808 C 100.867 32.874 98.424 32.874 95.808 32.87 C 93.188 32.849 90.397 32.78 87.606 32.687 C 84.813 32.567 82.022 32.571 79.404 32.684 C 78.095 32.727 76.829 32.804 75.63 32.8 C 74.43 32.829 73.296 32.808 72.249 32.789 C 68.061 32.74 65.268 32.514 65.268 32.514 L 65.239 32.477 L 65.268 32.441 Z " fill="rgb(0,111,138)"/><path d=" M 65.268 37.402 C 65.268 37.402 67.123 37.196 69.903 37.108 C 72.684 37.002 76.391 37.01 80.099 37.232 C 81.954 37.351 83.807 37.349 85.546 37.236 C 86.414 37.192 87.254 37.115 88.051 37.115 C 88.847 37.087 89.601 37.108 90.295 37.127 C 93.075 37.179 94.929 37.402 94.929 37.402 L 94.959 37.443 L 94.929 37.475 C 94.929 37.475 93.075 37.697 90.295 37.75 C 89.601 37.767 88.847 37.789 88.051 37.761 C 87.254 37.765 86.414 37.686 85.546 37.641 C 83.807 37.528 81.954 37.524 80.099 37.644 C 76.391 37.867 72.684 37.874 69.903 37.767 C 67.123 37.68 65.268 37.475 65.268 37.475 L 65.239 37.435 L 65.268 37.402 Z " fill="rgb(0,111,138)"/><path d=" M 200.17 70.494 C 200.17 70.494 202.468 70.339 205.913 70.304 C 206.773 70.29 207.709 70.275 208.694 70.292 C 209.681 70.292 210.723 70.349 211.8 70.377 C 213.955 70.456 216.252 70.46 218.548 70.375 C 220.846 70.311 223.143 70.262 225.298 70.247 C 227.453 70.243 229.462 70.243 231.185 70.29 C 234.63 70.353 236.93 70.494 236.93 70.494 L 236.954 70.522 L 236.93 70.547 C 236.93 70.547 234.63 70.688 231.185 70.752 C 229.462 70.797 227.453 70.797 225.298 70.795 C 223.143 70.78 220.846 70.731 218.548 70.667 C 216.252 70.582 213.955 70.582 211.8 70.663 C 210.723 70.692 209.681 70.748 208.694 70.748 C 207.709 70.767 206.773 70.752 205.913 70.739 C 202.468 70.703 200.17 70.547 200.17 70.547 L 200.146 70.518 L 200.17 70.494 Z " fill="rgb(0,111,138)"/><path d=" M 200.17 73.66 C 200.17 73.66 202.468 73.519 205.913 73.455 C 207.636 73.409 209.645 73.409 211.8 73.411 C 213.955 73.426 216.252 73.475 218.548 73.543 C 220.846 73.624 223.143 73.624 225.298 73.543 C 226.375 73.515 227.417 73.458 228.404 73.462 C 229.39 73.439 230.325 73.455 231.185 73.468 C 234.63 73.503 236.93 73.66 236.93 73.66 L 236.952 73.688 L 236.93 73.713 C 236.93 73.713 234.63 73.867 231.185 73.903 C 230.325 73.916 229.39 73.931 228.404 73.912 C 227.417 73.912 226.375 73.859 225.298 73.829 C 223.143 73.75 220.846 73.746 218.548 73.831 C 216.252 73.895 213.955 73.944 211.8 73.959 C 209.645 73.967 207.636 73.963 205.913 73.916 C 202.468 73.858 200.17 73.713 200.17 73.713 L 200.144 73.684 L 200.17 73.66 Z " fill="rgb(0,111,138)"/><path d=" M 200.17 77.131 C 200.17 77.131 202.468 76.976 205.913 76.941 C 206.773 76.926 207.709 76.912 208.694 76.929 C 209.681 76.929 210.723 76.982 211.8 77.014 C 213.955 77.091 216.252 77.095 218.548 77.01 C 220.846 76.948 223.143 76.897 225.298 76.884 C 227.453 76.877 229.462 76.88 231.185 76.926 C 234.63 76.986 236.93 77.131 236.93 77.131 L 236.954 77.159 L 236.93 77.184 C 236.93 77.184 234.63 77.325 231.185 77.389 C 229.462 77.434 227.453 77.434 225.298 77.43 C 223.143 77.417 220.846 77.366 218.548 77.3 C 216.252 77.219 213.955 77.219 211.8 77.3 C 210.723 77.329 209.681 77.385 208.694 77.385 C 207.709 77.402 206.773 77.389 205.913 77.374 C 202.468 77.338 200.17 77.184 200.17 77.184 L 200.146 77.155 L 200.17 77.131 Z " fill="rgb(0,111,138)"/><path d=" M 200.17 80.602 C 200.17 80.602 202.468 80.457 205.913 80.395 C 207.636 80.348 209.645 80.348 211.8 80.351 C 213.955 80.366 216.252 80.415 218.548 80.483 C 220.846 80.568 223.143 80.564 225.298 80.485 C 226.375 80.455 227.417 80.402 228.404 80.402 C 229.39 80.383 230.325 80.398 231.185 80.408 C 234.63 80.444 236.93 80.602 236.93 80.602 L 236.952 80.63 L 236.93 80.655 C 236.93 80.655 234.63 80.811 231.185 80.847 C 230.325 80.856 229.39 80.871 228.404 80.852 C 227.417 80.852 226.375 80.8 225.298 80.768 C 223.143 80.69 220.846 80.687 218.548 80.771 C 216.252 80.839 213.955 80.888 211.8 80.903 C 209.645 80.905 207.636 80.905 205.913 80.86 C 202.468 80.796 200.17 80.655 200.17 80.655 L 200.144 80.626 L 200.17 80.602 Z " fill="rgb(0,111,138)"/><path d=" M 200.17 84.071 C 200.17 84.071 202.468 83.915 205.913 83.881 C 206.773 83.866 207.709 83.853 208.694 83.869 C 209.681 83.869 210.723 83.926 211.8 83.954 C 213.955 84.035 216.252 84.035 218.548 83.954 C 220.846 83.886 223.143 83.837 225.298 83.824 C 227.453 83.821 229.462 83.821 231.185 83.866 C 234.63 83.93 236.93 84.071 236.93 84.071 L 236.954 84.099 L 236.93 84.124 C 236.93 84.124 234.63 84.269 231.185 84.329 C 229.462 84.374 227.453 84.378 225.298 84.37 C 223.143 84.355 220.846 84.306 218.548 84.244 C 216.252 84.16 213.955 84.161 211.8 84.24 C 210.723 84.273 209.681 84.325 208.694 84.325 C 207.709 84.342 206.773 84.329 205.913 84.314 C 202.468 84.278 200.17 84.124 200.17 84.124 L 200.146 84.095 L 200.17 84.071 Z " fill="rgb(0,111,138)"/><path d=" M 200.17 87.542 C 200.17 87.542 201.694 87.397 203.984 87.337 C 206.27 87.263 209.321 87.271 212.372 87.421 C 213.898 87.506 215.424 87.502 216.853 87.425 C 217.569 87.393 218.26 87.34 218.915 87.34 C 219.573 87.324 220.19 87.337 220.763 87.352 C 223.051 87.388 224.577 87.542 224.577 87.542 L 224.601 87.57 L 224.577 87.595 C 224.577 87.595 223.051 87.751 220.763 87.785 C 220.19 87.8 219.573 87.813 218.915 87.792 C 218.26 87.796 217.569 87.74 216.853 87.712 C 215.424 87.631 213.898 87.631 212.372 87.712 C 209.321 87.866 206.27 87.873 203.984 87.8 C 201.694 87.736 200.17 87.595 200.17 87.595 L 200.146 87.566 L 200.17 87.542 Z " fill="rgb(0,111,138)"/><path d=" M 134.225 147.308 C 134.225 147.308 136.524 147.244 139.969 147.231 C 140.831 147.224 141.764 147.216 142.751 147.227 C 143.737 147.224 144.781 147.248 145.856 147.259 C 148.011 147.291 150.308 147.293 152.604 147.259 C 154.902 147.231 157.2 147.212 159.354 147.207 C 161.509 147.207 163.518 147.207 165.242 147.224 C 168.688 147.248 170.986 147.308 170.986 147.308 L 171.01 147.318 L 170.986 147.329 C 170.986 147.329 168.688 147.386 165.242 147.414 C 163.518 147.431 161.509 147.431 159.354 147.431 C 157.2 147.425 154.902 147.402 152.604 147.378 C 150.308 147.344 148.011 147.344 145.856 147.374 C 144.781 147.389 143.737 147.41 142.751 147.41 C 141.764 147.418 140.831 147.41 139.969 147.406 C 136.524 147.393 134.225 147.329 134.225 147.329 L 134.202 147.318 L 134.225 147.308 Z " fill="rgb(0,111,138)"/><path d=" M 134.225 148.6 C 134.225 148.6 136.524 148.544 139.969 148.517 C 141.692 148.497 143.702 148.497 145.856 148.5 C 148.011 148.504 150.308 148.525 152.604 148.553 C 154.902 148.585 157.2 148.585 159.354 148.553 C 160.432 148.54 161.473 148.517 162.46 148.517 C 163.447 148.512 164.381 148.517 165.242 148.521 C 168.688 148.536 170.986 148.6 170.986 148.6 L 171.01 148.613 L 170.986 148.621 C 170.986 148.621 168.688 148.683 165.242 148.702 C 164.381 148.706 163.447 148.711 162.46 148.706 C 161.473 148.706 160.432 148.681 159.354 148.67 C 157.2 148.638 154.902 148.638 152.604 148.67 C 150.308 148.698 148.011 148.719 145.856 148.723 C 143.702 148.726 141.692 148.726 139.969 148.706 C 136.524 148.681 134.225 148.621 134.225 148.621 L 134.202 148.61 L 134.225 148.6 Z " fill="rgb(0,111,138)"/><path d=" M 134.225 150.018 C 134.225 150.018 136.524 149.954 139.969 149.939 C 140.831 149.936 141.764 149.93 142.751 149.936 C 143.737 149.936 144.781 149.958 145.856 149.971 C 148.011 150.003 150.308 150.003 152.604 149.971 C 154.902 149.943 157.2 149.922 159.354 149.919 C 161.509 149.915 163.518 149.915 165.242 149.936 C 168.688 149.962 170.986 150.018 170.986 150.018 L 171.01 150.032 L 170.986 150.039 C 170.986 150.039 168.688 150.099 165.242 150.124 C 163.518 150.145 161.509 150.145 159.354 150.141 C 157.2 150.133 154.902 150.116 152.604 150.088 C 150.308 150.052 148.011 150.056 145.856 150.088 C 144.781 150.099 143.737 150.124 142.751 150.124 C 141.764 150.131 140.831 150.124 139.969 150.12 C 136.524 150.103 134.225 150.039 134.225 150.039 L 134.202 150.028 L 134.225 150.018 Z " fill="rgb(0,111,138)"/><path d=" M 134.225 151.437 C 134.225 151.437 136.524 151.38 139.969 151.352 C 141.692 151.333 143.702 151.333 145.856 151.333 C 148.011 151.341 150.308 151.361 152.604 151.386 C 154.902 151.422 157.2 151.422 159.354 151.39 C 160.432 151.376 161.473 151.356 162.46 151.356 C 163.447 151.348 164.381 151.356 165.242 151.358 C 168.688 151.373 170.986 151.437 170.986 151.437 L 171.01 151.446 L 170.986 151.457 C 170.986 151.457 168.688 151.521 165.242 151.538 C 164.381 151.542 163.447 151.55 162.46 151.538 C 161.473 151.542 160.432 151.518 159.354 151.506 C 157.2 151.474 154.902 151.471 152.604 151.506 C 150.308 151.535 148.011 151.552 145.856 151.559 C 143.702 151.559 141.692 151.559 139.969 151.542 C 136.524 151.518 134.225 151.457 134.225 151.457 L 134.202 151.446 L 134.225 151.437 Z " fill="rgb(0,111,138)"/><path d=" M 134.225 152.855 C 134.225 152.855 136.524 152.791 139.969 152.778 C 140.831 152.77 141.764 152.766 142.751 152.774 C 143.737 152.774 144.781 152.795 145.856 152.808 C 148.011 152.84 150.308 152.84 152.604 152.804 C 154.902 152.779 157.2 152.759 159.354 152.751 C 161.509 152.751 163.518 152.751 165.242 152.77 C 168.688 152.798 170.986 152.855 170.986 152.855 L 171.01 152.864 L 170.986 152.876 C 170.986 152.876 168.688 152.936 165.242 152.96 C 163.518 152.977 161.509 152.977 159.354 152.977 C 157.2 152.972 154.902 152.953 152.604 152.924 C 150.308 152.889 148.011 152.892 145.856 152.924 C 144.781 152.936 143.737 152.956 142.751 152.956 C 141.764 152.968 140.831 152.96 139.969 152.953 C 136.524 152.94 134.225 152.876 134.225 152.876 L 134.202 152.864 L 134.225 152.855 Z " fill="rgb(0,111,138)"/><path d=" M 134.225 154.273 C 134.225 154.273 135.75 154.216 138.04 154.188 C 140.327 154.16 143.378 154.16 146.429 154.224 C 147.954 154.258 149.48 154.258 150.909 154.226 C 151.625 154.213 152.316 154.192 152.972 154.192 C 153.627 154.184 154.247 154.188 154.819 154.196 C 157.107 154.209 158.633 154.273 158.633 154.273 L 158.657 154.282 L 158.633 154.294 C 158.633 154.294 157.107 154.358 154.819 154.371 C 154.247 154.378 153.627 154.386 152.972 154.375 C 152.316 154.375 151.625 154.354 150.909 154.343 C 149.48 154.309 147.954 154.309 146.429 154.343 C 143.378 154.407 140.327 154.41 138.04 154.378 C 135.75 154.354 134.225 154.294 134.225 154.294 L 134.202 154.282 L 134.225 154.273 Z " fill="rgb(0,111,138)"/><path d=" M 134.225 113.438 C 134.225 113.438 136.524 113.284 139.969 113.248 C 140.83 113.233 141.764 113.22 142.751 113.237 C 143.737 113.237 144.779 113.289 145.856 113.321 C 148.011 113.4 150.308 113.402 152.604 113.318 C 154.902 113.255 157.2 113.206 159.354 113.191 C 161.509 113.184 163.518 113.188 165.242 113.233 C 168.688 113.297 170.986 113.438 170.986 113.438 L 171.01 113.466 L 170.986 113.491 C 170.986 113.491 168.688 113.632 165.242 113.696 C 163.518 113.741 161.509 113.741 159.354 113.738 C 157.2 113.724 154.902 113.675 152.604 113.611 C 150.308 113.527 148.011 113.527 145.856 113.608 C 144.779 113.636 143.737 113.692 142.751 113.692 C 141.764 113.709 140.83 113.696 139.969 113.681 C 136.524 113.647 134.225 113.491 134.225 113.491 L 134.202 113.463 L 134.225 113.438 Z " fill="rgb(0,111,138)"/><path d=" M 134.078 115.873 C 134.078 115.873 135.603 115.732 137.892 115.668 C 140.18 115.595 143.231 115.6 146.282 115.753 C 147.807 115.838 149.333 115.834 150.762 115.757 C 151.478 115.728 152.169 115.672 152.827 115.672 C 153.48 115.655 154.1 115.668 154.672 115.683 C 156.96 115.717 158.486 115.873 158.486 115.873 L 158.509 115.902 L 158.486 115.926 C 158.486 115.926 156.96 116.08 154.672 116.116 C 154.1 116.129 153.48 116.144 152.827 116.128 C 152.169 116.128 151.478 116.071 150.762 116.043 C 149.333 115.964 147.807 115.962 146.282 116.047 C 143.231 116.197 140.18 116.205 137.892 116.129 C 135.603 116.067 134.078 115.926 134.078 115.926 L 134.055 115.898 L 134.078 115.873 Z " fill="rgb(0,111,138)"/><path d=" M 135.144 42.671 L 134.771 42.453 C 134.658 42.255 123.141 22.563 99.658 17.244 C 76.133 11.918 61.12 19.404 60.972 19.481 L 60.393 19.299 L 60.58 18.719 C 60.732 18.645 76.022 11.006 99.848 16.408 C 123.71 21.811 135.4 41.826 135.517 42.027 L 135.357 42.613 L 135.144 42.671 Z " fill="rgb(0,111,138)"/><path d=" M 136.033 43.504 L 130.754 40.245 L 130.616 39.656 L 131.206 39.515 L 135.044 41.886 L 134.716 37.795 L 135.11 37.334 L 135.571 37.725 L 136.033 43.504 Z " fill="rgb(0,111,138)"/><path d=" M 118.453 118.322 L 118.391 118.318 L 118.032 117.828 C 118.064 117.602 121.719 94.708 142.007 81.041 C 162.266 67.386 179.271 68.959 179.446 68.982 L 179.83 69.454 L 179.357 69.835 C 179.197 69.82 162.475 68.279 142.485 81.749 C 122.52 95.202 118.913 117.732 118.877 117.962 L 118.453 118.322 Z " fill="rgb(0,111,138)"/><path d=" M 118.084 119.393 L 116.421 113.845 L 116.711 113.308 L 117.244 113.594 L 118.421 117.527 L 121.141 113.932 L 121.742 113.851 L 121.825 114.448 L 118.084 119.393 Z " fill="rgb(0,111,138)"/><path d=" M 183.233 147.76 C 170.756 147.76 164.839 141.928 164.759 141.847 L 164.763 141.24 L 165.37 141.248 C 165.471 141.349 175.828 151.486 198.287 144.372 C 221.851 136.907 226.545 115.676 226.364 108.125 C 226.153 99.262 224.202 91.13 224.183 91.049 L 224.498 90.531 L 225.017 90.847 C 225.038 90.926 227.01 99.149 227.221 108.108 C 227.407 115.834 222.616 137.564 198.547 145.191 C 192.639 147.065 187.544 147.76 183.233 147.76 Z " fill="rgb(0,111,138)"/><path d=" M 222.505 97.654 L 222.39 97.637 L 222.091 97.108 L 224.102 89.772 L 229.769 95.085 L 229.79 95.691 L 229.183 95.714 L 224.554 91.371 L 222.917 97.335 L 222.505 97.654 Z " fill="rgb(0,111,138)"/><path d=" M 220.846 151.672 L 203.899 151.672 L 203.899 134.724 L 220.846 134.724 L 220.846 151.672 Z " fill="rgb(184,209,255)"/><path d=" M 100.012 35.789 L 100.006 35.789 C 99.305 35.884 98.808 36.533 98.899 37.232 L 99.601 42.696 C 99.692 43.402 100.343 43.903 101.048 43.809 L 101.055 43.809 C 101.756 43.716 102.253 43.067 102.162 42.368 L 101.46 36.904 C 101.37 36.198 100.718 35.697 100.012 35.789 Z " fill="rgb(255,189,149)"/><path d=" M 97.592 35.872 L 97.584 35.872 C 96.885 35.965 96.386 36.614 96.477 37.313 L 97.179 42.778 C 97.271 43.483 97.923 43.984 98.627 43.893 L 98.633 43.893 C 99.334 43.797 99.833 43.148 99.742 42.449 L 99.038 36.985 C 98.948 36.279 98.298 35.778 97.592 35.872 Z " fill="rgb(255,189,149)"/><path d=" M 95.241 36.096 L 95.235 36.096 C 94.535 36.187 94.036 36.837 94.126 37.539 L 94.831 43.003 C 94.921 43.709 95.573 44.21 96.277 44.116 L 96.285 44.116 C 96.983 44.02 97.482 43.37 97.392 42.671 L 96.688 37.208 C 96.599 36.501 95.946 36 95.241 36.096 Z " fill="rgb(255,189,149)"/><path d=" M 92.992 36.522 L 92.987 36.526 C 92.288 36.618 91.789 37.266 91.879 37.965 L 92.584 43.43 C 92.672 44.136 93.326 44.637 94.03 44.545 L 94.036 44.541 C 94.736 44.451 95.235 43.801 95.145 43.102 L 94.441 37.637 C 94.35 36.931 93.699 36.43 92.992 36.522 Z " fill="rgb(255,189,149)"/></g><g><path d=" M 35.328 299.387 C 34.804 302.257 32.458 305.12 34.804 306.951 C 37.149 308.776 39.5 308.776 42.374 307.99 C 45.238 307.207 46.28 305.64 47.841 304.337 C 49.408 303.035 53.58 302.257 54.888 300.427 C 56.182 298.604 57.892 294.935 55.534 294.492 C 52.28 293.89 49.417 296.489 40.901 294.545 L 35.328 299.387 Z " fill="rgb(16,15,13)"/><path d=" M 65.75 173.103 C 67.541 181.476 63.682 191.079 63.081 195.872 C 62.486 200.656 57.101 235.543 56.875 237.694 C 56.275 243.378 55.674 246.998 53.883 252.381 C 52.086 257.773 48.071 291.319 48.668 295.507 C 49.024 297.988 42.383 301.924 37.991 302.408 C 34.976 302.734 33.226 301.423 33.226 301.423 C 33.226 301.423 30.105 273.826 38.58 246.614 C 40.287 225.07 39.648 210.634 40.916 204.668 C 41.338 202.671 37.633 186.96 44.671 177.024 C 50.214 169.193 65.75 173.103 65.75 173.103 Z " fill="rgb(25,25,31)"/><path d=" M 62.46 194.424 C 61.525 202.807 58.729 241.621 57.491 243.798 C 56.248 245.973 55.858 246.683 53.883 252.381 C 51.901 258.087 49.668 293.939 49.98 295.178 C 50.291 296.421 45.875 298.626 45.875 298.626 C 45.875 298.626 46.003 270.555 50.967 252.181 C 51.916 248.674 55.423 239.964 56.037 235.619 C 56.664 231.276 62.46 194.424 62.46 194.424 Z " fill="rgb(37,38,47)"/><path d=" M 63.527 298.869 C 62.213 302.994 61.068 305.186 62.337 307.794 C 63.608 310.399 69.801 309.437 73.392 307.727 C 75.517 306.71 76.361 305.158 78.839 305.088 C 84.127 304.937 88.683 296.334 84.348 295.975 C 80.009 295.611 77.182 297.391 75.21 295.764 C 73.255 294.144 63.527 298.869 63.527 298.869 Z " fill="rgb(16,15,13)"/><path d=" M 80.163 177.035 C 81.956 185.407 82.191 194.573 82.02 199.391 C 81.709 208.393 80.082 239.073 79.85 241.207 C 79.25 246.894 79.163 248.248 77.366 253.635 C 75.575 259.014 75.662 291.81 76.263 296.003 C 76.858 300.186 61.644 302.734 61.644 302.734 C 61.644 302.734 55.231 277.03 60.618 248.309 C 60.951 220.126 59.175 205.131 59.77 195.56 C 60.371 185.987 80.163 177.035 80.163 177.035 Z " fill="rgb(25,25,31)"/><path d=" M 55.463 96.002 C 56.131 98.187 56.079 106.231 55.237 109.619 C 54.416 113.005 50.334 117.585 50.334 117.585 L 69.302 121.156 C 69.302 121.156 67.65 108.33 71.181 105.89 C 73.362 104.387 55.463 96.002 55.463 96.002 Z " fill="rgb(201,142,125)"/><path d=" M 73.854 89.482 C 74.918 92.989 73.707 93.267 74.27 94.687 C 75.677 98.206 75.944 106.579 73.568 108.046 C 72.485 108.724 70.358 110.253 68.087 109.739 C 64.149 108.843 59.154 104.662 56.881 101.048 C 53.308 95.337 54.118 87.879 60.19 85.244 C 66.806 82.389 71.884 83.05 73.854 89.482 Z " fill="rgb(201,142,125)"/><path d=" M 74.566 86.244 C 75.6 84.338 75.278 82.63 75.278 82.63 C 72.731 85.094 59.727 77.046 52.719 83.005 C 51.886 83.715 52.167 83.291 51.577 83.975 C 51.012 84.638 49.95 84.843 49.385 85.288 C 45.85 88.122 46.912 98.094 49.093 101.611 C 51.839 106.044 51.495 107.2 51.131 108.417 C 50.542 110.395 66.187 108.613 66.187 108.613 L 67.963 101.537 L 70.113 99.812 L 71.375 96.166 L 72.598 94.704 C 72.598 94.704 71.776 91.369 71.859 89.58 C 71.899 88.713 74.012 87.271 74.566 86.244 Z " fill="rgb(52,21,20)"/><path d=" M 55.015 82.95 C 56.476 81.979 60.872 82.713 61.729 84.723 C 62.672 86.966 61.482 82.95 61.482 82.95 C 61.482 82.95 63.243 83.749 63.243 86.194 C 65.445 84.723 63.913 83.562 63.913 83.562 L 66.132 83.834 L 67.093 85.03 C 67.093 85.03 73.799 87.828 74.948 81.041 C 73.138 83.561 71.277 83.124 71.277 83.124 C 71.277 83.124 75.521 82.847 74.181 79.451 C 74.016 79.781 74.411 82.93 69.289 80.753 C 65.26 79.05 63.913 79.899 63.913 79.899 C 63.913 79.899 57.57 79.172 53.542 82.832 C 52.016 84.227 51.38 85.372 51.38 85.372 L 55.015 82.95 Z " fill="rgb(83,22,21)"/><path d=" M 70.402 94.215 C 68.45 93.968 66.983 95.441 68.45 98.609 C 69.908 101.784 71.13 102.274 72.347 101.296 C 73.573 100.311 70.402 94.215 70.402 94.215 Z " fill="rgb(201,142,125)"/><path d=" M 53.186 112.197 C 50.182 113.886 49.235 113.31 43.029 117.781 C 43.029 117.781 40.262 118.7 39.852 119.642 C 35.691 129.17 39.351 136.867 40.204 141.828 C 41.891 151.614 44.172 161.012 42.918 168.048 C 40.797 179.913 39.196 191.042 39.633 192.684 C 39.807 193.353 57.216 199.579 68.595 197.884 C 78.816 196.362 84.809 194.577 85.446 194.053 C 84.418 184.862 82.114 170.564 81.796 164.338 C 81.314 155.011 83.141 149.278 83.557 145.101 C 83.971 140.92 82.453 135.153 82.924 134.285 C 84.193 131.942 82.73 119.7 82.73 119.7 C 82.73 119.7 77.447 117.005 69.912 112.77 C 68.07 111.73 62.629 111.103 62.629 111.103 L 53.186 112.197 Z " fill="rgb(125,189,234)"/><path d=" M 52.604 109.875 L 51.348 112.965 C 51.348 112.965 56.114 112.594 59.812 112.945 C 65.72 113.5 71.878 114.267 71.878 114.267 L 70.549 110.523 C 70.549 110.523 67.228 109.242 59.425 109.159 C 57.034 109.133 52.604 109.875 52.604 109.875 Z " fill="rgb(125,189,234)"/><path d=" M 81.8 118.768 C 79.336 120.003 78.229 121.657 78.229 121.657 C 78.229 121.657 74.108 117.148 63.068 115.924 C 44.784 113.877 41.522 118.523 41.522 118.523 C 41.522 118.523 49.862 112.527 51.706 112.527 C 53.553 112.527 62.373 111.27 71.294 113.694 C 73.085 114.178 78.459 117.156 79.265 117.619 L 81.8 118.768 Z " fill="rgb(155,207,241)"/><path d=" M 80.794 126.663 C 77.828 129.416 77.732 156.559 78.152 163.972 C 78.577 171.387 81.421 190.034 81.847 191.944 C 82.274 193.852 71.667 196.059 71.667 196.059 C 71.667 196.059 84.069 194.494 85.035 192.61 C 85.459 191.78 83.576 179.433 82.997 176.093 C 82.412 172.756 81.278 163.445 81.915 160.266 C 82.551 157.09 81.8 149.173 82.647 144.299 L 80.794 126.663 Z " fill="rgb(155,207,241)"/><path d=" M 80.302 118.889 C 84.615 116.433 87.446 124.938 89.54 132.974 C 90.928 138.28 92.518 142.306 93.237 143.828 C 98.771 155.635 97.143 160.539 94.87 161.878 C 86.282 166.955 80.641 150.454 79.05 143.866 C 76.078 131.573 80.302 118.889 80.302 118.889 Z " fill="rgb(125,189,234)"/><path d=" M 86.42 123.962 C 86.113 128.283 82.781 133.089 83.075 133.055 C 84.337 132.884 87.806 129.283 87.806 129.283 C 87.806 129.283 87.981 129.916 87.806 131.582 C 87.693 132.686 87.118 136.317 86.154 137.366 C 85.218 138.374 88.966 134.285 88.966 132.748 C 88.966 131.206 86.42 123.962 86.42 123.962 Z " fill="rgb(155,207,241)"/></g></g></g></g></svg>