<?xml version="1.0" encoding="UTF-8" standalone="no"?><!-- Generator: Gravit.io --><svg xmlns="http://www.w3.org/2000/svg" xmlns:xlink="http://www.w3.org/1999/xlink" style="isolation:isolate" viewBox="0 0 600 600" width="600pt" height="600pt"><defs><clipPath id="_clipPath_hzr8d4D7WCMno9LqMnrE2oKq5vnveRZS"><rect width="600" height="600"/></clipPath></defs><g clip-path="url(#_clipPath_hzr8d4D7WCMno9LqMnrE2oKq5vnveRZS)"><g><path d=" M 300 452.069 C 205.784 452.069 129.408 441.731 129.408 428.979 C 129.408 416.226 205.784 405.89 300 405.89 C 394.213 405.89 470.592 416.226 470.592 428.979 C 470.592 441.731 394.213 452.069 300 452.069" fill="rgb(221,243,246)"/><path d=" M 348.003 340.109 L 412.211 340.109 L 410.713 332.746 L 346.505 332.746 L 348.003 340.109 Z " fill="rgb(108,98,183)"/><path d=" M 361.541 340.109 L 297.333 340.109 L 298.831 332.746 L 363.039 332.746 L 361.541 340.109 Z " fill="rgb(135,129,200)"/><path d=" M 350.697 393.485 L 286.491 393.485 L 287.988 386.124 L 352.192 386.124 L 350.697 393.485 Z " fill="rgb(135,129,200)"/><path d=" M 218.832 428.313 L 304.793 428.313 L 304.793 385.644 L 218.832 385.644 L 218.832 428.313 Z " fill="rgb(51,110,170)"/><path d=" M 219.499 427.646 L 304.127 427.646 L 304.127 386.31 L 219.499 386.31 L 219.499 427.646 Z  M 305.46 428.98 L 218.165 428.98 L 218.165 384.977 L 305.46 384.977 L 305.46 428.98 Z " fill="rgb(51,110,170)"/><path d=" M 243.025 428.313 L 304.793 428.313 L 304.793 385.644 L 243.025 385.644 L 243.025 428.313 Z " fill="rgb(69,149,229)"/><path d=" M 243.692 427.646 L 304.127 427.646 L 304.127 386.31 L 243.692 386.31 L 243.692 427.646 Z  M 305.46 428.98 L 242.359 428.98 L 242.359 384.977 L 305.46 384.977 L 305.46 428.98 Z " fill="rgb(51,110,170)"/><path d=" M 409.875 428.313 L 323.915 428.313 L 323.915 385.644 L 409.875 385.644 L 409.875 428.313" fill="rgb(51,110,170)"/><path d=" M 324.581 427.646 L 409.208 427.646 L 409.208 386.31 L 324.581 386.31 L 324.581 427.646 Z  M 410.541 428.98 L 323.248 428.98 L 323.248 384.977 L 410.541 384.977 L 410.541 428.98 Z " fill="rgb(51,110,170)"/><path d=" M 385.681 428.313 L 323.915 428.313 L 323.915 385.644 L 385.681 385.644 L 385.681 428.313 Z " fill="rgb(69,149,229)"/><path d=" M 324.581 427.646 L 385.015 427.646 L 385.015 386.31 L 324.581 386.31 L 324.581 427.646 Z  M 386.348 428.98 L 323.248 428.98 L 323.248 384.977 L 386.348 384.977 L 386.348 428.98 Z " fill="rgb(51,110,170)"/><path d=" M 294.529 428.313 L 337.609 428.313 L 337.609 385.644 L 294.529 385.644 L 294.529 428.313" fill="rgb(69,149,229)"/><path d=" M 295.196 427.646 L 336.943 427.646 L 336.943 386.31 L 295.196 386.31 L 295.196 427.646 Z  M 338.276 428.98 L 293.863 428.98 L 293.863 384.977 L 338.276 384.977 L 338.276 428.98 Z " fill="rgb(51,110,170)"/><path d=" M 409.875 335.56 L 323.915 335.56 L 323.915 292.89 L 409.875 292.89 L 409.875 335.56" fill="rgb(51,110,170)"/><path d=" M 324.581 334.893 L 409.208 334.893 L 409.208 293.557 L 324.581 293.557 L 324.581 334.893 Z  M 410.541 336.226 L 323.248 336.226 L 323.248 292.224 L 410.541 292.224 L 410.541 336.226 Z " fill="rgb(51,110,170)"/><path d=" M 385.681 335.56 L 323.915 335.56 L 323.915 292.89 L 385.681 292.89 L 385.681 335.56 Z " fill="rgb(69,149,229)"/><path d=" M 324.581 334.893 L 385.015 334.893 L 385.015 293.557 L 324.581 293.557 L 324.581 334.893 Z  M 386.348 336.226 L 323.248 336.226 L 323.248 292.224 L 386.348 292.224 L 386.348 336.226 Z " fill="rgb(57,116,142)"/><path d=" M 218.832 335.56 L 304.793 335.56 L 304.793 292.89 L 218.832 292.89 L 218.832 335.56 Z " fill="rgb(51,110,170)"/><path d=" M 219.499 334.893 L 304.127 334.893 L 304.127 293.557 L 219.499 293.557 L 219.499 334.893 Z  M 305.46 336.226 L 218.165 336.226 L 218.165 292.224 L 305.46 292.224 L 305.46 336.226 Z " fill="rgb(51,110,170)"/><path d=" M 243.025 335.56 L 304.793 335.56 L 304.793 292.89 L 243.025 292.89 L 243.025 335.56 Z " fill="rgb(69,149,229)"/><path d=" M 243.692 334.893 L 304.127 334.893 L 304.127 293.557 L 243.692 293.557 L 243.692 334.893 Z  M 305.46 336.226 L 242.359 336.226 L 242.359 292.224 L 305.46 292.224 L 305.46 336.226 Z " fill="rgb(51,110,170)"/><path d=" M 334.176 335.56 L 291.097 335.56 L 291.097 292.89 L 334.176 292.89 L 334.176 335.56 Z " fill="rgb(69,149,229)"/><path d=" M 291.764 334.893 L 333.509 334.893 L 333.509 293.557 L 291.764 293.557 L 291.764 334.893 Z  M 334.843 336.226 L 290.431 336.226 L 290.431 292.224 L 334.843 292.224 L 334.843 336.226 Z " fill="rgb(51,110,170)"/><path d=" M 426.591 385.041 L 328.117 385.041 L 328.117 336.162 L 426.591 336.162 L 426.591 385.041" fill="rgb(51,110,170)"/><path d=" M 328.784 384.374 L 425.924 384.374 L 425.924 336.829 L 328.784 336.829 L 328.784 384.374 Z  M 427.257 385.708 L 327.451 385.708 L 327.451 335.496 L 427.257 335.496 L 427.257 385.708 Z " fill="rgb(51,110,170)"/><path d=" M 398.875 385.041 L 328.117 385.041 L 328.117 336.162 L 398.875 336.162 L 398.875 385.041 Z " fill="rgb(69,149,229)"/><path d=" M 328.784 384.374 L 398.208 384.374 L 398.208 336.829 L 328.784 336.829 L 328.784 384.374 Z  M 399.541 385.708 L 327.451 385.708 L 327.451 335.496 L 399.541 335.496 L 399.541 385.708 Z " fill="rgb(57,116,142)"/><path d=" M 207.739 385.041 L 306.212 385.041 L 306.212 336.162 L 207.739 336.162 L 207.739 385.041 Z " fill="rgb(51,110,170)"/><path d=" M 208.405 384.374 L 305.545 384.374 L 305.545 336.829 L 208.405 336.829 L 208.405 384.374 Z  M 306.879 385.708 L 207.072 385.708 L 207.072 335.496 L 306.879 335.496 L 306.879 385.708 Z " fill="rgb(51,110,170)"/><path d=" M 235.453 385.041 L 306.212 385.041 L 306.212 336.162 L 235.453 336.162 L 235.453 385.041 Z " fill="rgb(69,149,229)"/><path d=" M 236.12 384.374 L 305.545 384.374 L 305.545 336.829 L 236.12 336.829 L 236.12 384.374 Z  M 306.879 385.708 L 234.787 385.708 L 234.787 335.496 L 306.879 335.496 L 306.879 385.708 Z " fill="rgb(51,110,170)"/><path d=" M 339.872 385.041 L 290.523 385.041 L 290.523 336.162 L 339.872 336.162 L 339.872 385.041 Z " fill="rgb(251,200,68)"/><path d=" M 291.189 384.374 L 339.205 384.374 L 339.205 336.829 L 291.189 336.829 L 291.189 384.374 Z  M 340.539 385.708 L 289.856 385.708 L 289.856 335.496 L 340.539 335.496 L 340.539 385.708 Z " fill="rgb(219,178,77)"/><path d=" M 339.872 385.041 L 290.523 385.041 L 290.523 336.162 L 339.872 336.162 L 339.872 385.041 Z " fill="rgb(69,149,229)"/><path d=" M 291.189 384.374 L 339.205 384.374 L 339.205 336.829 L 291.189 336.829 L 291.189 384.374 Z  M 340.539 385.708 L 289.856 385.708 L 289.856 335.496 L 340.539 335.496 L 340.539 385.708 Z " fill="rgb(51,110,170)"/><path d=" M 416.305 291.557 L 317.831 291.557 L 317.831 242.678 L 416.305 242.678 L 416.305 291.557" fill="rgb(51,110,170)"/><path d=" M 318.498 290.89 L 415.638 290.89 L 415.638 243.345 L 318.498 243.345 L 318.498 290.89 Z  M 416.971 292.224 L 317.165 292.224 L 317.165 242.012 L 416.971 242.012 L 416.971 292.224 Z " fill="rgb(51,110,170)"/><path d=" M 388.589 291.557 L 317.831 291.557 L 317.831 242.678 L 388.589 242.678 L 388.589 291.557 Z " fill="rgb(69,149,229)"/><path d=" M 318.498 290.89 L 387.922 290.89 L 387.922 243.345 L 318.498 243.345 L 318.498 290.89 Z  M 389.255 292.224 L 317.165 292.224 L 317.165 242.012 L 389.255 242.012 L 389.255 292.224 Z " fill="rgb(57,116,142)"/><path d=" M 197.453 291.557 L 295.926 291.557 L 295.926 242.678 L 197.453 242.678 L 197.453 291.557 Z " fill="rgb(51,110,170)"/><path d=" M 198.119 290.89 L 295.259 290.89 L 295.259 243.345 L 198.119 243.345 L 198.119 290.89 Z  M 296.593 292.224 L 196.786 292.224 L 196.786 242.012 L 296.593 242.012 L 296.593 292.224 Z " fill="rgb(51,110,170)"/><path d=" M 225.167 291.557 L 295.926 291.557 L 295.926 242.678 L 225.167 242.678 L 225.167 291.557 Z " fill="rgb(69,149,229)"/><path d=" M 225.834 290.89 L 295.259 290.89 L 295.259 243.345 L 225.834 243.345 L 225.834 290.89 Z  M 296.593 292.224 L 224.501 292.224 L 224.501 242.012 L 296.593 242.012 L 296.593 292.224 Z " fill="rgb(51,110,170)"/><path d=" M 329.586 291.557 L 280.237 291.557 L 280.237 242.678 L 329.586 242.678 L 329.586 291.557 Z " fill="rgb(251,200,68)"/><path d=" M 280.903 290.89 L 328.919 290.89 L 328.919 243.345 L 280.903 243.345 L 280.903 290.89 Z  M 330.253 292.224 L 279.57 292.224 L 279.57 242.012 L 330.253 242.012 L 330.253 292.224 Z " fill="rgb(219,178,77)"/><path d=" M 329.586 291.557 L 280.237 291.557 L 280.237 242.678 L 329.586 242.678 L 329.586 291.557 Z " fill="rgb(69,149,229)"/><path d=" M 280.903 290.89 L 328.919 290.89 L 328.919 243.345 L 280.903 243.345 L 280.903 290.89 Z  M 330.253 292.224 L 279.57 292.224 L 279.57 242.012 L 330.253 242.012 L 330.253 292.224 Z " fill="rgb(51,110,170)"/><path d=" M 297.975 392.726 L 297.967 392.827 L 297.937 392.978 L 297.975 392.726 Z " fill="rgb(158,67,61)"/><path d=" M 334.099 235.063 C 334.099 235.063 380.971 201.183 390.005 215.658 C 395.286 224.122 366.338 237.028 334.099 235.063 Z  M 407.706 200.935 C 380.445 167.688 317.165 237.158 317.165 237.158 L 326.401 239.61 C 335.635 242.06 435.854 235.264 407.706 200.935 Z " fill="rgb(117,74,1)"/><path d=" M 329.706 229.516 C 329.706 229.516 369.763 174.516 378.763 180.85 C 387.763 187.183 361.37 220.151 329.706 229.516 Z  M 392.097 153.248 C 354.731 121.972 313.874 238.882 313.874 238.882 L 323.43 238.882 C 332.986 238.882 442.541 195.47 392.097 153.248 Z " fill="rgb(153,96,0)"/><path d=" M 296.739 235.063 C 296.739 235.063 249.869 201.183 240.835 215.658 C 235.553 224.122 264.501 237.028 296.739 235.063 Z  M 223.134 200.935 C 250.396 167.688 313.675 237.158 313.675 237.158 L 304.439 239.61 C 295.203 242.06 194.986 235.264 223.134 200.935 Z " fill="rgb(117,74,1)"/><path d=" M 300.709 229.516 C 300.709 229.516 260.653 174.516 251.653 180.85 C 242.653 187.183 269.045 220.151 300.709 229.516 Z  M 238.319 153.248 C 275.685 121.972 316.541 238.882 316.541 238.882 L 306.986 238.882 C 297.43 238.882 187.874 195.47 238.319 153.248 Z " fill="rgb(153,96,0)"/><path d=" M 331.039 428.98 L 299.375 428.98 L 299.375 238.882 L 331.039 238.882 L 331.039 428.98 Z " fill="rgb(153,96,0)"/></g></g></svg>