<?xml version="1.0" encoding="UTF-8" standalone="no"?><!-- Generator: Gravit.io --><svg xmlns="http://www.w3.org/2000/svg" xmlns:xlink="http://www.w3.org/1999/xlink" style="isolation:isolate" viewBox="0 0 600 600" width="600pt" height="600pt"><defs><clipPath id="_clipPath_m8shYvA1MJkWJj9QyvsvBEtBfgaJXILb"><rect width="600" height="600"/></clipPath></defs><g clip-path="url(#_clipPath_m8shYvA1MJkWJj9QyvsvBEtBfgaJXILb)"><g><path d=" M 300 499.857 C 205.784 499.857 129.408 489.519 129.408 476.767 C 129.408 464.014 205.784 453.678 300 453.678 C 394.213 453.678 470.592 464.014 470.592 476.767 C 470.592 489.519 394.213 499.857 300 499.857" fill="rgb(221,243,246)"/><path d=" M 329.048 190.189 L 393.256 190.189 L 391.759 182.826 L 327.551 182.826 L 329.048 190.189 Z " fill="rgb(108,98,183)"/><path d=" M 353.433 136.815 L 289.225 136.815 L 290.719 129.451 L 354.925 129.451 L 353.433 136.815 Z " fill="rgb(135,129,200)"/><path d=" M 342.587 190.189 L 278.379 190.189 L 279.876 182.826 L 344.084 182.826 L 342.587 190.189 Z " fill="rgb(135,129,200)"/><path d=" M 331.743 243.565 L 267.536 243.565 L 269.033 236.203 L 333.237 236.203 L 331.743 243.565 Z " fill="rgb(135,129,200)"/><path d=" M 320.901 296.941 L 256.692 296.941 L 258.189 289.581 L 322.401 289.581 L 320.901 296.941 Z " fill="rgb(135,129,200)"/><path d=" M 340.748 351.471 L 257.496 351.471 L 257.496 314.509 L 340.748 314.509 L 340.748 351.471 Z " fill="rgb(219,178,77)"/><path d=" M 258.163 350.805 L 340.081 350.805 L 340.081 315.175 L 258.163 315.175 L 258.163 350.805 Z  M 341.415 352.138 L 256.829 352.138 L 256.829 313.842 L 341.415 313.842 L 341.415 352.138 Z " fill="rgb(219,178,77)"/><path d=" M 326.595 351.471 L 257.496 351.471 L 257.496 314.509 L 326.595 314.509 L 326.595 351.471 Z " fill="rgb(251,200,68)"/><path d=" M 258.163 350.805 L 325.928 350.805 L 325.928 315.175 L 258.163 315.175 L 258.163 350.805 Z  M 327.261 352.138 L 256.829 352.138 L 256.829 313.842 L 327.261 313.842 L 327.261 352.138 Z " fill="rgb(219,178,77)"/><path d=" M 227.984 314.931 L 302.448 314.931 L 302.448 277.97 L 227.984 277.97 L 227.984 314.931 Z " fill="rgb(219,178,77)"/><path d=" M 228.651 314.265 L 301.781 314.265 L 301.781 278.637 L 228.651 278.637 L 228.651 314.265 Z  M 303.115 315.598 L 227.317 315.598 L 227.317 277.303 L 303.115 277.303 L 303.115 315.598 Z " fill="rgb(219,178,77)"/><path d=" M 240.644 314.931 L 302.448 314.931 L 302.448 277.97 L 240.644 277.97 L 240.644 314.931 Z " fill="rgb(251,200,68)"/><path d=" M 241.311 314.265 L 301.781 314.265 L 301.781 278.637 L 241.311 278.637 L 241.311 314.265 Z  M 303.115 315.598 L 239.977 315.598 L 239.977 277.303 L 303.115 277.303 L 303.115 315.598 Z " fill="rgb(219,178,77)"/><path d=" M 199.877 278.393 L 285.839 278.393 L 285.839 235.723 L 199.877 235.723 L 199.877 278.393 Z " fill="rgb(219,178,77)"/><path d=" M 200.544 277.726 L 285.172 277.726 L 285.172 236.39 L 200.544 236.39 L 200.544 277.726 Z  M 286.505 279.059 L 199.211 279.059 L 199.211 235.057 L 286.505 235.057 L 286.505 279.059 Z " fill="rgb(219,178,77)"/><path d=" M 224.071 278.393 L 285.839 278.393 L 285.839 235.723 L 224.071 235.723 L 224.071 278.393 Z " fill="rgb(251,200,68)"/><path d=" M 224.737 277.726 L 285.172 277.726 L 285.172 236.39 L 224.737 236.39 L 224.737 277.726 Z  M 286.505 279.059 L 223.404 279.059 L 223.404 235.057 L 286.505 235.057 L 286.505 279.059 Z " fill="rgb(219,178,77)"/><path d=" M 390.92 278.393 L 304.96 278.393 L 304.96 235.723 L 390.92 235.723 L 390.92 278.393" fill="rgb(219,178,77)"/><path d=" M 305.627 277.726 L 390.253 277.726 L 390.253 236.39 L 305.627 236.39 L 305.627 277.726 Z  M 391.587 279.059 L 304.293 279.059 L 304.293 235.057 L 391.587 235.057 L 391.587 279.059 Z " fill="rgb(219,178,77)"/><path d=" M 366.727 278.393 L 304.96 278.393 L 304.96 235.723 L 366.727 235.723 L 366.727 278.393 Z " fill="rgb(251,200,68)"/><path d=" M 305.627 277.726 L 366.06 277.726 L 366.06 236.39 L 305.627 236.39 L 305.627 277.726 Z  M 367.393 279.059 L 304.293 279.059 L 304.293 235.057 L 367.393 235.057 L 367.393 279.059 Z " fill="rgb(219,178,77)"/><path d=" M 376.612 314.931 L 302.148 314.931 L 302.148 277.97 L 376.612 277.97 L 376.612 314.931 Z " fill="rgb(219,178,77)"/><path d=" M 302.815 314.265 L 375.945 314.265 L 375.945 278.637 L 302.815 278.637 L 302.815 314.265 Z  M 377.279 315.598 L 301.481 315.598 L 301.481 277.303 L 377.279 277.303 L 377.279 315.598 Z " fill="rgb(219,178,77)"/><path d=" M 363.951 314.931 L 302.148 314.931 L 302.148 277.97 L 363.951 277.97 L 363.951 314.931 Z " fill="rgb(251,200,68)"/><path d=" M 302.815 314.265 L 363.284 314.265 L 363.284 278.637 L 302.815 278.637 L 302.815 314.265 Z  M 364.617 315.598 L 301.481 315.598 L 301.481 277.303 L 364.617 277.303 L 364.617 315.598 Z " fill="rgb(219,178,77)"/><path d=" M 275.575 278.393 L 318.655 278.393 L 318.655 235.723 L 275.575 235.723 L 275.575 278.393" fill="rgb(251,200,68)"/><path d=" M 276.241 277.726 L 317.988 277.726 L 317.988 236.39 L 276.241 236.39 L 276.241 277.726 Z  M 319.321 279.059 L 274.908 279.059 L 274.908 235.057 L 319.321 235.057 L 319.321 279.059 Z " fill="rgb(219,178,77)"/><path d=" M 251.553 481.701 L 298.176 481.701 L 298.176 448.199 L 251.553 448.199 L 251.553 481.701 Z " fill="rgb(138,139,139)"/><path d=" M 252.22 481.034 L 297.509 481.034 L 297.509 448.866 L 252.22 448.866 L 252.22 481.034 Z  M 298.843 482.367 L 250.887 482.367 L 250.887 447.533 L 298.843 447.533 L 298.843 482.367 Z " fill="rgb(138,139,139)"/><path d=" M 265.5 481.701 L 298.161 481.701 L 298.161 448.199 L 265.5 448.199 L 265.5 481.701 Z " fill="rgb(179,178,177)"/><path d=" M 266.167 481.034 L 297.495 481.034 L 297.495 448.866 L 266.167 448.866 L 266.167 481.034 Z  M 298.828 482.367 L 264.833 482.367 L 264.833 447.533 L 298.828 447.533 L 298.828 482.367 Z " fill="rgb(138,139,139)"/><path d=" M 344.612 481.701 L 297.988 481.701 L 297.988 448.199 L 344.612 448.199 L 344.612 481.701 Z " fill="rgb(138,139,139)"/><path d=" M 298.655 481.034 L 343.945 481.034 L 343.945 448.866 L 298.655 448.866 L 298.655 481.034 Z  M 345.279 482.367 L 297.321 482.367 L 297.321 447.533 L 345.279 447.533 L 345.279 482.367 Z " fill="rgb(138,139,139)"/><path d=" M 330.663 481.701 L 298.003 481.701 L 298.003 448.199 L 330.663 448.199 L 330.663 481.701 Z " fill="rgb(179,178,177)"/><path d=" M 298.669 481.034 L 329.996 481.034 L 329.996 448.866 L 298.669 448.866 L 298.669 481.034 Z  M 331.329 482.367 L 297.336 482.367 L 297.336 447.533 L 331.329 447.533 L 331.329 482.367 Z " fill="rgb(138,139,139)"/><path d=" M 240.6 453.678 L 292.443 453.678 L 292.443 415.005 L 240.6 415.005 L 240.6 453.678 Z " fill="rgb(138,139,139)"/><path d=" M 241.267 453.011 L 291.776 453.011 L 291.776 415.671 L 241.267 415.671 L 241.267 453.011 Z  M 293.109 454.345 L 239.933 454.345 L 239.933 414.338 L 293.109 414.338 L 293.109 454.345 Z " fill="rgb(138,139,139)"/><path d=" M 255.191 453.678 L 292.443 453.678 L 292.443 415.005 L 255.191 415.005 L 255.191 453.678 Z " fill="rgb(179,178,177)"/><path d=" M 255.857 453.011 L 291.776 453.011 L 291.776 415.671 L 255.857 415.671 L 255.857 453.011 Z  M 293.109 454.345 L 254.524 454.345 L 254.524 414.338 L 293.109 414.338 L 293.109 454.345 Z " fill="rgb(138,139,139)"/><path d=" M 355.821 453.678 L 303.976 453.678 L 303.976 415.005 L 355.821 415.005 L 355.821 453.678 Z " fill="rgb(138,139,139)"/><path d=" M 304.643 453.011 L 355.155 453.011 L 355.155 415.671 L 304.643 415.671 L 304.643 453.011 Z  M 356.488 454.345 L 303.309 454.345 L 303.309 414.338 L 356.488 414.338 L 356.488 454.345 Z " fill="rgb(138,139,139)"/><path d=" M 341.229 453.678 L 303.976 453.678 L 303.976 415.005 L 341.229 415.005 L 341.229 453.678 Z " fill="rgb(179,178,177)"/><path d=" M 304.643 453.011 L 340.563 453.011 L 340.563 415.671 L 304.643 415.671 L 304.643 453.011 Z  M 341.896 454.345 L 303.309 454.345 L 303.309 414.338 L 341.896 414.338 L 341.896 454.345 Z " fill="rgb(138,139,139)"/><path d=" M 286.253 453.678 L 312.235 453.678 L 312.235 415.005 L 286.253 415.005 L 286.253 453.678 Z " fill="rgb(179,178,177)"/><path d=" M 286.92 453.011 L 311.568 453.011 L 311.568 415.671 L 286.92 415.671 L 286.92 453.011 Z  M 312.901 454.345 L 285.587 454.345 L 285.587 414.338 L 312.901 414.338 L 312.901 454.345 Z " fill="rgb(138,139,139)"/><path d=" M 390.92 185.639 L 304.96 185.639 L 304.96 142.97 L 390.92 142.97 L 390.92 185.639" fill="rgb(219,178,77)"/><path d=" M 305.627 184.973 L 390.253 184.973 L 390.253 143.637 L 305.627 143.637 L 305.627 184.973 Z  M 391.587 186.306 L 304.293 186.306 L 304.293 142.303 L 391.587 142.303 L 391.587 186.306 Z " fill="rgb(219,178,77)"/><path d=" M 366.727 185.639 L 304.96 185.639 L 304.96 142.97 L 366.727 142.97 L 366.727 185.639 Z " fill="rgb(251,200,68)"/><path d=" M 305.627 184.973 L 366.06 184.973 L 366.06 143.637 L 305.627 143.637 L 305.627 184.973 Z  M 367.393 186.306 L 304.293 186.306 L 304.293 142.303 L 367.393 142.303 L 367.393 186.306 Z " fill="rgb(219,178,77)"/><path d=" M 199.877 185.639 L 285.839 185.639 L 285.839 142.97 L 199.877 142.97 L 199.877 185.639 Z " fill="rgb(219,178,77)"/><path d=" M 200.544 184.973 L 285.172 184.973 L 285.172 143.637 L 200.544 143.637 L 200.544 184.973 Z  M 286.505 186.306 L 199.211 186.306 L 199.211 142.303 L 286.505 142.303 L 286.505 186.306 Z " fill="rgb(219,178,77)"/><path d=" M 224.071 185.639 L 285.839 185.639 L 285.839 142.97 L 224.071 142.97 L 224.071 185.639 Z " fill="rgb(251,200,68)"/><path d=" M 224.737 184.973 L 285.172 184.973 L 285.172 143.637 L 224.737 143.637 L 224.737 184.973 Z  M 286.505 186.306 L 223.404 186.306 L 223.404 142.303 L 286.505 142.303 L 286.505 186.306 Z " fill="rgb(219,178,77)"/><path d=" M 315.221 185.639 L 272.143 185.639 L 272.143 142.97 L 315.221 142.97 L 315.221 185.639 Z " fill="rgb(251,200,68)"/><path d=" M 272.809 184.973 L 314.555 184.973 L 314.555 143.637 L 272.809 143.637 L 272.809 184.973 Z  M 315.888 186.306 L 271.476 186.306 L 271.476 142.303 L 315.888 142.303 L 315.888 186.306 Z " fill="rgb(219,178,77)"/><path d=" M 375.461 143.479 L 289.501 143.479 L 289.501 100.81 L 375.461 100.81 L 375.461 143.479 Z " fill="rgb(219,178,77)"/><path d=" M 290.168 142.813 L 374.795 142.813 L 374.795 101.477 L 290.168 101.477 L 290.168 142.813 Z  M 376.128 144.146 L 288.835 144.146 L 288.835 100.143 L 376.128 100.143 L 376.128 144.146 Z " fill="rgb(219,178,77)"/><path d=" M 351.269 143.479 L 289.501 143.479 L 289.501 100.81 L 351.269 100.81 L 351.269 143.479 Z " fill="rgb(251,200,68)"/><path d=" M 290.168 142.813 L 350.603 142.813 L 350.603 101.477 L 290.168 101.477 L 290.168 142.813 Z  M 351.936 144.146 L 288.835 144.146 L 288.835 100.143 L 351.936 100.143 L 351.936 144.146 Z " fill="rgb(219,178,77)"/><path d=" M 407.636 235.121 L 309.163 235.121 L 309.163 186.242 L 407.636 186.242 L 407.636 235.121" fill="rgb(219,178,77)"/><path d=" M 309.829 234.454 L 406.969 234.454 L 406.969 186.909 L 309.829 186.909 L 309.829 234.454 Z  M 408.303 235.787 L 308.496 235.787 L 308.496 185.575 L 408.303 185.575 L 408.303 235.787 Z " fill="rgb(219,178,77)"/><path d=" M 379.92 235.121 L 309.163 235.121 L 309.163 186.242 L 379.92 186.242 L 379.92 235.121 Z " fill="rgb(251,200,68)"/><path d=" M 309.829 234.454 L 379.253 234.454 L 379.253 186.909 L 309.829 186.909 L 309.829 234.454 Z  M 380.587 235.787 L 308.496 235.787 L 308.496 185.575 L 380.587 185.575 L 380.587 235.787 Z " fill="rgb(219,178,77)"/><path d=" M 188.784 235.121 L 287.257 235.121 L 287.257 186.242 L 188.784 186.242 L 188.784 235.121 Z " fill="rgb(219,178,77)"/><path d=" M 189.451 234.454 L 286.591 234.454 L 286.591 186.909 L 189.451 186.909 L 189.451 234.454 Z  M 287.924 235.787 L 188.117 235.787 L 188.117 185.575 L 287.924 185.575 L 287.924 235.787 Z " fill="rgb(219,178,77)"/><path d=" M 216.499 235.121 L 287.257 235.121 L 287.257 186.242 L 216.499 186.242 L 216.499 235.121 Z " fill="rgb(251,200,68)"/><path d=" M 217.165 234.454 L 286.591 234.454 L 286.591 186.909 L 217.165 186.909 L 217.165 234.454 Z  M 287.924 235.787 L 215.832 235.787 L 215.832 185.575 L 287.924 185.575 L 287.924 235.787 Z " fill="rgb(219,178,77)"/><path d=" M 320.917 235.121 L 271.568 235.121 L 271.568 186.242 L 320.917 186.242 L 320.917 235.121 Z " fill="rgb(251,200,68)"/><path d=" M 272.235 234.454 L 320.251 234.454 L 320.251 186.909 L 272.235 186.909 L 272.235 234.454 Z  M 321.584 235.787 L 270.901 235.787 L 270.901 185.575 L 321.584 185.575 L 321.584 235.787 Z " fill="rgb(219,178,77)"/><path d=" M 320.917 235.121 L 271.568 235.121 L 271.568 186.242 L 320.917 186.242 L 320.917 235.121 Z " fill="rgb(251,200,68)"/><path d=" M 272.235 234.454 L 320.251 234.454 L 320.251 186.909 L 272.235 186.909 L 272.235 234.454 Z  M 321.584 235.787 L 270.901 235.787 L 270.901 185.575 L 321.584 185.575 L 321.584 235.787 Z " fill="rgb(219,178,77)"/><path d=" M 257.496 386.603 L 340.748 386.603 L 340.748 349.643 L 257.496 349.643 L 257.496 386.603 Z " fill="rgb(219,178,77)"/><path d=" M 258.163 385.937 L 340.081 385.937 L 340.081 350.31 L 258.163 350.31 L 258.163 385.937 Z  M 341.415 387.27 L 256.829 387.27 L 256.829 348.977 L 341.415 348.977 L 341.415 387.27 Z " fill="rgb(219,178,77)"/><path d=" M 278.255 386.603 L 340.748 386.603 L 340.748 349.643 L 278.255 349.643 L 278.255 386.603 Z " fill="rgb(251,200,68)"/><path d=" M 278.921 385.937 L 340.081 385.937 L 340.081 350.31 L 278.921 350.31 L 278.921 385.937 Z  M 341.415 387.27 L 277.588 387.27 L 277.588 348.977 L 341.415 348.977 L 341.415 387.27 Z " fill="rgb(219,178,77)"/><path d=" M 247.371 415.466 L 298.184 415.466 L 298.184 381.966 L 247.371 381.966 L 247.371 415.466 Z " fill="rgb(138,139,139)"/><path d=" M 248.037 414.799 L 297.517 414.799 L 297.517 382.633 L 248.037 382.633 L 248.037 414.799 Z  M 298.851 416.133 L 246.704 416.133 L 246.704 381.299 L 298.851 381.299 L 298.851 416.133 Z " fill="rgb(138,139,139)"/><path d=" M 256.009 415.466 L 298.184 415.466 L 298.184 381.966 L 256.009 381.966 L 256.009 415.466 Z " fill="rgb(179,178,177)"/><path d=" M 256.676 414.799 L 297.517 414.799 L 297.517 382.633 L 256.676 382.633 L 256.676 414.799 Z  M 298.851 416.133 L 255.343 416.133 L 255.343 381.299 L 298.851 381.299 L 298.851 416.133 Z " fill="rgb(138,139,139)"/><path d=" M 348.792 415.466 L 297.98 415.466 L 297.98 381.966 L 348.792 381.966 L 348.792 415.466 Z " fill="rgb(138,139,139)"/><path d=" M 298.647 414.799 L 348.125 414.799 L 348.125 382.633 L 298.647 382.633 L 298.647 414.799 Z  M 349.459 416.133 L 297.313 416.133 L 297.313 381.299 L 349.459 381.299 L 349.459 416.133 Z " fill="rgb(138,139,139)"/><path d=" M 340.155 415.466 L 297.98 415.466 L 297.98 381.966 L 340.155 381.966 L 340.155 415.466 Z " fill="rgb(179,178,177)"/><path d=" M 298.647 414.799 L 339.488 414.799 L 339.488 382.633 L 298.647 382.633 L 298.647 414.799 Z  M 340.821 416.133 L 297.313 416.133 L 297.313 381.299 L 340.821 381.299 L 340.821 416.133 Z " fill="rgb(138,139,139)"/><path d=" M 214.051 143.38 L 288.515 143.38 L 288.515 100.91 L 214.051 100.91 L 214.051 143.38 Z " fill="rgb(219,178,77)"/><path d=" M 287.848 142.614 L 214.717 142.614 L 214.717 101.676 L 287.848 101.676 L 287.848 142.614 Z  M 213.384 144.146 L 289.181 144.146 L 289.181 100.143 L 213.384 100.143 L 213.384 144.146 Z " fill="rgb(219,178,77)"/><path d=" M 226.712 143.38 L 288.515 143.38 L 288.515 100.91 L 226.712 100.91 L 226.712 143.38 Z " fill="rgb(251,200,68)"/><path d=" M 287.848 142.614 L 227.379 142.614 L 227.379 101.676 L 287.848 101.676 L 287.848 142.614 Z  M 226.045 144.146 L 289.181 144.146 L 289.181 100.143 L 226.045 100.143 L 226.045 144.146 Z " fill="rgb(219,178,77)"/><path d=" M 267.848 136.968 C 266.177 136.968 264.815 135.611 264.815 133.939 C 264.815 133.126 265.135 132.388 265.656 131.844 C 266.208 131.266 266.987 130.906 267.848 130.906 C 269.52 130.906 270.882 132.263 270.882 133.939 C 270.882 135.611 269.52 136.968 267.848 136.968 Z  M 267.858 122.996 L 236.893 142.158 L 236.893 231.509 L 300 231.509 L 300 142.158 L 267.858 122.996 Z " fill="rgb(255,255,255)"/><path d=" M 266.292 131.25 C 266.294 131.261 266.388 131.772 266.626 132.302 C 266.745 132.568 266.9 132.841 267.114 133.061 C 267.324 133.279 267.613 133.45 267.96 133.449 C 268.211 133.449 268.475 133.361 268.742 133.185 C 269.009 133.004 269.211 132.696 269.453 132.276 C 269.868 131.543 270.354 130.458 271.01 129.198 C 271.994 127.308 273.355 125.031 275.377 123.022 C 277.401 121.012 280.081 119.267 283.727 118.432 C 289.019 117.215 292.602 112.729 292.61 108.454 C 292.613 106.297 291.676 104.192 289.598 102.658 C 287.52 101.121 284.324 100.144 279.789 100.143 C 278.315 100.143 276.699 100.247 274.932 100.468 C 268.62 101.262 264.588 103.006 262.125 105.309 C 259.659 107.611 258.798 110.465 258.801 113.366 C 258.804 118.319 261.261 123.465 262.469 126.697 L 262.952 126.516 C 261.726 123.254 259.313 118.154 259.317 113.366 C 259.32 110.561 260.13 107.883 262.477 105.685 C 264.825 103.488 268.746 101.765 274.996 100.981 C 276.744 100.761 278.339 100.659 279.789 100.659 C 284.252 100.659 287.337 101.624 289.291 103.072 C 291.244 104.522 292.091 106.444 292.094 108.454 C 292.101 112.439 288.686 116.771 283.612 117.929 C 277.9 119.235 274.459 122.739 272.274 126.019 C 271.179 127.66 270.394 129.247 269.789 130.48 C 269.487 131.097 269.229 131.625 269.004 132.022 C 268.783 132.419 268.578 132.682 268.459 132.754 C 268.252 132.89 268.09 132.933 267.96 132.933 C 267.785 132.932 267.636 132.855 267.483 132.701 C 267.256 132.472 267.073 132.08 266.961 131.748 C 266.904 131.583 266.863 131.432 266.837 131.324 C 266.824 131.271 266.814 131.227 266.808 131.198 L 266.799 131.156 L 266.292 131.25" fill="rgb(134,107,40)"/><g><g><path d=" M 263.952 173.004 C 254.163 174.679 246.704 183.214 246.704 193.477 C 246.704 204.942 256.012 214.25 267.477 214.25 C 278.942 214.25 288.25 204.942 288.25 193.477 C 288.25 183.239 280.827 174.721 271.075 173.015" fill="none" vector-effect="non-scaling-stroke" stroke-width="1" stroke="rgb(0,76,153)" stroke-linejoin="miter" stroke-linecap="round" stroke-miterlimit="3"/><path d=" M 259.761 194.681 C 250.532 196.261 248.065 191.397 247.891 192.909 C 247.891 203.719 256.667 212.495 267.477 212.495 C 278.287 212.495 287.063 203.719 287.063 192.909 C 287.063 183.256 269.029 193.097 259.761 194.681" fill="rgb(0,76,153)"/><path d=" M 275.193 194.681 C 284.422 196.261 286.889 191.397 287.063 192.909 C 287.063 203.719 278.287 212.495 267.477 212.495 C 256.667 212.495 247.891 203.719 247.891 192.909 C 247.891 183.256 265.925 193.097 275.193 194.681" fill="rgb(0,76,153)" fill-opacity="0.8"/><line x1="267.477" y1="169.143" x2="267.477" y2="178.639" vector-effect="non-scaling-stroke" stroke-width="1" stroke="rgb(0,76,153)" stroke-linejoin="miter" stroke-linecap="round" stroke-miterlimit="3"/></g><g><path d=" M 270.175 154.852 C 269.602 156.186 268.633 157.506 267.278 158.075 C 267.123 158.139 266.948 158.187 266.767 158.228 C 266.406 157.689 265.992 157.253 265.507 156.895 C 265.09 156.589 264.653 156.349 264.204 156.16 C 264.333 156.07 264.468 155.988 264.61 155.914 C 265.174 155.619 265.785 155.36 266.379 155.081 C 265.82 155.232 265.179 155.289 264.644 155.484 C 264.31 155.606 264.003 155.775 263.716 155.977 C 262.86 155.685 261.966 155.545 261.073 155.439 C 261.797 154.237 263.34 153.272 264.504 152.835 C 265.719 152.379 267.094 152.323 268.446 152.182 C 269.274 152.097 270.175 151.788 270.834 151.427 C 270.984 151.345 271.143 151.481 271.092 151.647 C 270.768 152.683 270.604 153.856 270.175 154.852 Z " fill="rgb(8,166,162)"/><path d=" M 255.87 154.694 C 257.394 155.522 259.143 155.624 260.855 155.82 C 261.692 155.917 262.52 156.036 263.308 156.275 C 263.478 156.326 263.649 156.384 263.817 156.449 C 264.315 156.639 264.795 156.889 265.247 157.222 C 265.673 157.535 266.021 157.905 266.314 158.313 C 266.781 158.964 267.107 159.713 267.374 160.491 C 267.862 161.904 268.086 163.406 268.043 164.9 C 268.025 165.505 268.016 166.135 267.866 166.727 C 267.832 166.857 267.8 167.023 267.698 167.12 C 267.566 167.247 267.329 167.117 267.382 166.931 C 267.766 165.625 267.527 164.097 266.997 162.849 C 266.388 161.413 265.212 160.559 263.775 160.039 C 263.393 159.9 263.003 159.779 262.607 159.665 C 262.599 159.662 262.591 159.662 262.583 159.662 C 262.504 159.662 262.47 159.778 262.552 159.815 C 263.019 160.026 263.483 160.238 263.925 160.469 C 266.087 161.597 267.031 164.223 266.221 164.223 C 266.155 164.223 266.077 164.205 265.989 164.168 C 264.738 163.651 263.253 163.646 261.878 163.392 C 261.395 163.303 260.925 163.182 260.483 162.998 C 258.73 162.267 257.477 160.836 256.731 159.115 C 256.175 157.831 255.959 156.315 255.538 154.981 C 255.484 154.81 255.604 154.664 255.753 154.664 C 255.79 154.662 255.83 154.672 255.87 154.694 Z " fill="rgb(8,166,162)"/></g></g></g></g></svg>