<?xml version="1.0" encoding="UTF-8"?>
<!DOCTYPE svg PUBLIC "-//W3C//DTD SVG 1.1//EN" "http://www.w3.org/Graphics/SVG/1.1/DTD/svg11.dtd">
<svg version="1.1" xmlns="http://www.w3.org/2000/svg" xmlns:xlink="http://www.w3.org/1999/xlink" x="0" y="0" width="100" height="100" viewBox="0, 0, 100, 100">
  <g id="Capa_1">
    <path d="M62.666,10 L62.666,33.704 L51.583,33.704 L51.583,48.518 L86.416,48.518 L86.416,66.296 L97.5,66.296 L97.5,90 L72.166,90 L72.166,66.296 L83.25,66.296 L83.25,51.481 L51.583,51.481 C50.291,51.533 48.741,51.558 48.461,51.562 L48.416,51.582 L16.75,51.481 L16.75,66.296 L27.833,66.296 L27.833,90 L2.5,90 L2.5,66.296 L13.583,66.296 L13.583,48.518 L48.416,48.518 L48.416,33.704 L37.333,33.704 L37.333,10 L62.666,10 z M94.333,69.259 L75.333,69.259 L75.333,87.037 L94.333,87.037 L94.333,69.259 z M24.666,69.259 L5.666,69.259 L5.666,87.037 L24.666,87.037 L24.666,69.259 z M59.5,12.963 L40.5,12.963 L40.5,30.741 L59.5,30.741 L59.5,12.963 z" fill="#231123"/>
    <path d="M48.416,51.481" fill="#231123"/>
    <path d="M39.2,12 L60,12 L60,32.2 L39.2,32.2 L39.2,12 z" fill="#231123"/>
  </g>
</svg>
