<?xml version="1.0" encoding="UTF-8"?>
<!DOCTYPE svg PUBLIC "-//W3C//DTD SVG 1.1//EN" "http://www.w3.org/Graphics/SVG/1.1/DTD/svg11.dtd">
<svg version="1.1" xmlns="http://www.w3.org/2000/svg" xmlns:xlink="http://www.w3.org/1999/xlink" x="0" y="0" width="100" height="100" viewBox="0, 0, 100, 100">
  <g id="Capa_1">
    <path d="M-0,-0 z" fill="#231123"/>
    <path d="M0,0 z" fill="#231123"/>
    <path d="M38.378,18.661 C39.053,18.996 39.875,18.722 40.211,18.053 C42.076,14.347 45.828,12.044 50,12.044 C54.196,12.044 57.957,14.364 59.811,18.099 C60.05,18.578 60.536,18.854 61.04,18.854 C61.242,18.854 61.449,18.81 61.643,18.715 C62.319,18.384 62.598,17.572 62.265,16.9 C59.944,12.233 55.245,9.333 50,9.333 C44.784,9.333 40.098,12.211 37.766,16.843 C37.427,17.512 37.703,18.326 38.378,18.661 z" fill="#231123"/>
    <path d="M63.667,14.755 C68.188,14.755 71.867,18.403 71.867,22.889 C71.867,26.004 70.027,28.884 67.277,30.187 C67.184,30.222 57.856,33.733 50,33.733 C42.399,33.733 38.505,31.279 38.452,31.247 C37.825,30.833 36.979,31.003 36.563,31.625 C36.144,32.249 36.315,33.09 36.942,33.505 C37.124,33.624 41.485,36.444 50,36.444 C58.357,36.444 67.854,32.869 68.353,32.676 C72.148,30.886 74.6,27.045 74.6,22.888 C74.6,16.909 69.695,12.044 63.667,12.044 C62.911,12.044 62.3,12.651 62.3,13.4 C62.3,14.148 62.911,14.755 63.667,14.755 z" fill="#231123"/>
    <path d="M32.234,44.577 C32.988,44.577 33.601,43.97 33.601,43.222 C33.601,42.474 32.988,41.866 32.234,41.866 C29.226,41.866 28.134,44.298 28.134,45.933 L28.134,48.644 C28.134,50.474 29.359,52.026 31.038,52.534 C31.477,55.134 32.834,62.147 35.197,65.663 C35.362,65.908 35.534,66.186 35.719,66.484 C37.444,69.251 40.65,74.399 50,74.399 C59.35,74.399 62.556,69.251 64.28,66.484 C64.466,66.186 64.639,65.908 64.804,65.663 C67.165,62.147 68.522,55.134 68.962,52.534 C70.641,52.026 71.867,50.474 71.867,48.644 L71.867,45.933 C71.867,44.298 70.775,41.866 67.767,41.866 C67.011,41.866 66.4,42.473 66.4,43.222 C66.4,43.97 67.011,44.577 67.767,44.577 C68.865,44.577 69.117,45.323 69.133,45.932 L69.133,48.644 C69.133,49.391 68.518,49.999 67.767,49.999 C67.086,49.999 66.509,50.495 66.412,51.162 C66.4,51.254 65.061,60.391 62.53,64.158 C62.348,64.429 62.158,64.731 61.954,65.059 C60.311,67.698 57.826,71.688 50,71.688 C42.173,71.688 39.689,67.698 38.046,65.059 C37.841,64.731 37.652,64.429 37.471,64.158 C34.942,60.396 33.6,51.254 33.587,51.162 C33.491,50.495 32.914,49.999 32.234,49.999 C31.481,49.999 30.867,49.391 30.867,48.644 L30.867,45.949 C30.882,45.323 31.134,44.577 32.234,44.577 z" fill="#231123"/>
    <path d="M30.867,32.269 L30.867,39.155 C30.867,39.514 31.011,39.86 31.268,40.113 C35.768,44.577 43.003,44.577 50,44.577 C56.997,44.577 64.232,44.577 68.733,40.113 C68.988,39.86 69.133,39.514 69.133,39.155 L69.133,36.613 C69.133,35.865 68.521,35.258 67.766,35.258 C67.011,35.258 66.4,35.865 66.4,36.613 L66.4,38.571 C62.653,41.866 56.5,41.866 50,41.866 C43.5,41.866 37.348,41.866 33.6,38.571 L33.6,31.451 C33.6,30.93 33.296,30.452 32.82,30.229 C29.972,28.884 28.134,26.004 28.134,22.889 C28.134,18.403 31.811,14.755 36.334,14.755 C37.088,14.755 37.7,14.148 37.7,13.4 C37.7,12.652 37.088,12.044 36.334,12.044 C30.305,12.044 25.401,16.909 25.401,22.889 C25.401,26.752 27.519,30.344 30.867,32.269 z" fill="#231123"/>
    <path d="M56.873,87.954 L56.86,87.954 C56.105,87.954 55.501,88.562 55.501,89.31 C55.501,90.058 56.119,90.665 56.873,90.665 C57.629,90.665 58.24,90.058 58.24,89.31 C58.24,88.561 57.629,87.954 56.873,87.954 z" fill="#231123"/>
    <path d="M90.93,88.881 L89.403,84.33 C87.953,79.879 86.141,77.142 68.089,77.11 C66.971,76.557 62.911,74.541 62.911,74.541 C62.493,74.335 61.998,74.354 61.598,74.591 C61.531,74.631 55.017,78.465 50,78.465 C44.983,78.465 38.468,74.631 38.401,74.591 C38.002,74.354 37.508,74.336 37.088,74.541 L31.91,77.111 C13.859,77.143 12.046,79.879 10.597,84.33 L9.069,88.881 C8.833,89.592 9.22,90.359 9.934,90.596 C10.653,90.835 11.426,90.448 11.665,89.738 L13.198,85.163 C14.171,82.18 14.936,79.822 32.22,79.822 L32.234,79.822 C32.446,79.822 32.655,79.774 32.845,79.68 L37.657,77.292 C39.563,78.337 45.181,81.177 50,81.177 C54.818,81.177 60.436,78.337 62.342,77.292 C65.871,79.042 67.142,79.661 67.767,79.78 L67.767,79.821 C85.061,79.821 85.828,82.178 86.801,85.163 L88.335,89.738 C88.527,90.306 89.06,90.665 89.633,90.665 C89.775,90.665 89.921,90.644 90.065,90.596 C90.781,90.359 91.168,89.592 90.93,88.881 z" fill="#231123"/>
    <path d="M56.873,82.532 L56.86,82.532 C56.105,82.532 55.501,83.139 55.501,83.888 C55.501,84.636 56.119,85.243 56.873,85.243 C57.629,85.243 58.24,84.636 58.24,83.888 C58.24,83.139 57.629,82.532 56.873,82.532 z" fill="#231123"/>
    <path d="M43.207,82.532 L43.193,82.532 C42.439,82.532 41.835,83.139 41.835,83.888 C41.835,84.636 42.452,85.243 43.207,85.243 C43.963,85.243 44.573,84.636 44.573,83.888 C44.573,83.139 43.963,82.532 43.207,82.532 z" fill="#231123"/>
    <path d="M43.207,87.954 L43.193,87.954 C42.439,87.954 41.835,88.562 41.835,89.31 C41.835,90.058 42.452,90.665 43.207,90.665 C43.963,90.665 44.573,90.058 44.573,89.31 C44.573,88.561 43.963,87.954 43.207,87.954 z" fill="#231123"/>
  </g>
</svg>
