<?xml version="1.0" encoding="UTF-8"?>
<!DOCTYPE svg PUBLIC "-//W3C//DTD SVG 1.1//EN" "http://www.w3.org/Graphics/SVG/1.1/DTD/svg11.dtd">
<svg version="1.1" xmlns="http://www.w3.org/2000/svg" xmlns:xlink="http://www.w3.org/1999/xlink" x="0" y="0" width="300" height="300" viewBox="0, 0, 300, 300">
  <g id="Capa_1">
    <path d="M0,0 L300,0 L300,300 L0,300 L0,0 z" fill="#003D5B"/>
    <g id="supermarket">
      <path d="M239.629,182.859 L239.629,93.906 L245.499,93.906 L245.499,80.429 L216.145,80.429 L216.145,72.342 L222.016,72.342 L222.016,58.864 L201.467,58.864 L201.467,50.777 L207.338,50.777 L207.338,37.3 L101.661,37.3 L101.661,50.777 L107.532,50.777 L107.532,58.864 L86.984,58.864 L86.984,72.342 L92.855,72.342 L92.855,80.429 L63.5,80.429 L63.5,93.906 L69.371,93.906 L69.371,182.859 L63.5,182.859 L63.5,188.25 L107.532,188.25 L201.468,188.25 L245.5,188.25 L245.5,182.859 L239.629,182.859 z M92.855,182.859 L75.242,182.859 L75.242,93.906 L92.855,93.906 L92.855,182.859 z M92.855,88.515 L69.371,88.515 L69.371,85.82 L92.855,85.82 L92.855,88.515 z M107.532,182.859 L98.726,182.859 L98.726,93.906 L98.726,80.429 L98.726,72.342 L107.532,72.342 L107.532,182.859 z M107.532,66.951 L92.855,66.951 L92.855,64.255 L107.532,64.255 L107.532,66.951 z M107.532,42.691 L201.468,42.691 L201.468,45.387 L107.532,45.387 L107.532,42.691 z M151.565,182.859 L151.564,182.859 L125.145,182.859 L125.145,150.512 L151.565,150.512 L151.565,182.859 z M183.855,182.859 L157.435,182.859 L157.435,150.512 L183.855,150.512 L183.855,182.859 z M195.597,182.859 L189.726,182.859 L189.726,145.121 L119.274,145.121 L119.274,182.859 L113.403,182.859 L113.403,139.73 L195.597,139.73 L195.597,182.859 z M195.597,58.864 L195.597,72.342 L195.597,134.339 L113.403,134.339 L113.403,72.342 L113.403,58.864 L113.403,50.777 L195.597,50.777 L195.597,58.864 z M201.467,66.951 L201.467,64.255 L216.145,64.255 L216.145,66.951 L201.467,66.951 z M210.274,80.429 L210.274,93.906 L210.274,182.859 L201.468,182.859 L201.468,72.342 L210.274,72.342 L210.274,80.429 z M233.757,182.859 L216.145,182.859 L216.145,93.906 L233.757,93.906 L233.757,182.859 z M239.628,88.515 L216.145,88.515 L216.145,85.82 L239.628,85.82 L239.628,88.515 z" fill="#F5E0CE"/>
      <path d="M189.726,66.951 L119.274,66.951 L119.274,104.688 L189.726,104.688 L189.726,66.951 z M183.855,99.297 L125.145,99.297 L125.145,72.342 L183.855,72.342 L183.855,99.297 z" fill="#F5E0CE"/>
      <path d="M131.016,77.733 L177.984,77.733 L177.984,83.124 L131.016,83.124 z" fill="#F5E0CE"/>
      <path d="M172.113,88.515 L177.984,88.515 L177.984,93.906 L172.113,93.906 z" fill="#F5E0CE"/>
      <path d="M131.016,88.515 L166.242,88.515 L166.242,93.906 L131.016,93.906 z" fill="#F5E0CE"/>
      <path d="M142.758,158.599 L148.629,158.599 L148.629,172.077 L142.758,172.077 z" fill="#F5E0CE"/>
      <path d="M160.371,158.599 L166.242,158.599 L166.242,172.077 L160.371,172.077 z" fill="#F5E0CE"/>
    </g>
    <g id="team">
      <path d="M171.408,217.634 C171.261,214.583 169.058,213.5 167.209,213.5 C167.178,213.5 167.147,213.5 167.115,213.5 C167.094,213.5 167.063,213.5 167.021,213.5 C165.173,213.5 162.969,214.583 162.813,217.634 C162.781,217.922 162.52,220.823 164.108,222.522 C164.849,223.297 165.831,223.705 167.042,223.725 C167.074,223.725 167.105,223.725 167.115,223.725 C167.126,223.725 167.136,223.725 167.147,223.725 C167.157,223.725 167.178,223.725 167.188,223.725 C168.4,223.705 169.382,223.297 170.113,222.522 C171.7,220.823 171.439,217.922 171.408,217.634 z M169.173,221.727 C168.671,222.264 168.013,222.522 167.136,222.532 L167.126,222.532 C167.115,222.532 167.105,222.532 167.105,222.532 C166.228,222.522 165.57,222.264 165.069,221.727 C163.794,220.376 164.076,217.763 164.076,217.733 C164.076,217.723 164.076,217.713 164.076,217.693 C164.212,214.901 166.374,214.682 167.032,214.682 C167.063,214.682 167.084,214.682 167.094,214.682 C167.115,214.682 167.126,214.682 167.147,214.682 C167.157,214.682 167.178,214.682 167.209,214.682 C167.867,214.682 170.029,214.901 170.165,217.693 C170.165,217.703 170.165,217.713 170.165,217.733 C170.248,218.458 170.227,220.595 169.173,221.727 z" fill="#F5E0CE"/>
      <path d="M174.822,228.504 C174.447,228.146 174.227,227.948 173.778,227.63 C172.149,226.487 170.207,225.732 170.123,225.702 C169.851,225.603 169.549,225.682 169.382,225.901 L167.136,228.842 L164.891,225.901 C164.724,225.682 164.421,225.593 164.15,225.702 C164.076,225.732 162.332,226.398 160.776,227.431 C160.766,227.431 160.766,227.441 160.755,227.451 C159.189,226.408 157.435,225.732 157.361,225.702 C157.09,225.603 156.787,225.682 156.62,225.901 L154.343,228.852 L152.098,225.911 C151.931,225.692 151.628,225.603 151.357,225.712 C151.283,225.742 149.529,226.417 147.963,227.461 C147.952,227.461 147.952,227.451 147.942,227.441 C146.375,226.408 144.642,225.732 144.568,225.712 C144.297,225.613 143.994,225.692 143.827,225.911 L141.582,228.852 L139.336,225.911 C139.169,225.692 138.867,225.603 138.595,225.712 C138.511,225.742 136.559,226.497 134.94,227.64 C134.491,227.958 134.271,228.156 133.896,228.514 C133.697,228.703 133.102,229.269 133.196,232.32 C133.217,233.86 133.436,235.549 133.708,236.513 C134.209,238.262 135.577,240.637 135.744,240.925 C136.005,241.501 136.183,242.117 136.245,242.753 L138.146,260.47 C138.24,261.344 139.002,262 139.921,262 L143.2,262 C144.119,262 144.882,261.344 144.976,260.47 L146.876,242.753 C146.939,242.127 147.117,241.511 147.378,240.925 C147.44,240.825 147.66,240.428 147.952,239.891 C148.234,240.428 148.464,240.825 148.526,240.925 C148.788,241.501 148.965,242.117 149.028,242.753 L150.928,260.47 C151.022,261.344 151.785,262 152.704,262 L155.983,262 C156.902,262 157.664,261.344 157.758,260.47 L159.659,242.753 C159.722,242.127 159.899,241.511 160.16,240.925 C160.223,240.815 160.453,240.428 160.735,239.891 C161.017,240.438 161.246,240.825 161.309,240.925 C161.57,241.501 161.748,242.117 161.81,242.753 L163.711,260.47 C163.805,261.344 164.567,262 165.486,262 L168.765,262 C169.684,262 170.447,261.344 170.541,260.47 L172.441,242.753 C172.504,242.127 172.682,241.511 172.943,240.925 C173.11,240.637 174.478,238.262 174.979,236.513 C175.251,235.549 175.47,233.86 175.522,232.31 C175.616,229.259 175.021,228.693 174.822,228.504 z M146.292,240.368 C146.281,240.388 146.271,240.398 146.26,240.418 C145.937,241.123 145.728,241.869 145.644,242.624 L143.743,260.341 C143.712,260.599 143.482,260.798 143.211,260.798 L139.932,260.798 C139.66,260.798 139.43,260.599 139.399,260.341 L137.498,242.624 C137.415,241.859 137.206,241.113 136.882,240.418 C136.872,240.398 136.861,240.388 136.851,240.368 C136.841,240.348 135.399,237.874 134.919,236.195 C134.668,235.33 134.47,233.721 134.418,232.29 C134.355,230.213 134.647,229.458 134.762,229.349 C135.117,229.011 135.284,228.862 135.66,228.594 C136.715,227.858 137.948,227.282 138.595,226.994 L141.06,230.213 C141.174,230.372 141.362,230.462 141.571,230.462 C141.77,230.462 141.958,230.372 142.083,230.213 L144.548,226.994 C145.091,227.222 146.041,227.669 146.95,228.236 C146.866,228.315 146.772,228.405 146.668,228.504 C146.469,228.693 145.874,229.259 145.968,232.31 C146.01,233.86 146.229,235.549 146.511,236.513 C146.688,237.139 146.981,237.844 147.284,238.5 C146.782,239.524 146.292,240.358 146.292,240.368 z M160.996,236.195 C160.515,237.874 159.074,240.338 159.064,240.368 C159.053,240.388 159.043,240.398 159.032,240.418 C158.709,241.123 158.5,241.869 158.416,242.624 L156.516,260.341 C156.484,260.599 156.254,260.798 155.983,260.798 L152.704,260.798 C152.432,260.798 152.202,260.599 152.171,260.341 L150.27,242.624 C150.187,241.859 149.978,241.113 149.654,240.418 C149.644,240.398 149.633,240.388 149.623,240.368 C149.613,240.348 148.171,237.884 147.691,236.195 C147.44,235.33 147.242,233.721 147.19,232.29 C147.127,230.213 147.409,229.468 147.524,229.349 C147.879,229.011 148.046,228.862 148.422,228.594 C149.487,227.858 150.73,227.282 151.377,226.994 L153.842,230.213 C153.957,230.372 154.145,230.462 154.354,230.462 C154.563,230.462 154.74,230.372 154.866,230.213 L157.33,226.994 C157.978,227.272 159.22,227.848 160.265,228.594 C160.641,228.862 160.808,229.011 161.163,229.349 C161.278,229.468 161.56,230.213 161.497,232.29 C161.455,233.721 161.246,235.33 160.996,236.195 z M174.279,232.29 C174.238,233.721 174.029,235.33 173.778,236.195 C173.298,237.874 171.857,240.338 171.846,240.368 C171.836,240.388 171.825,240.398 171.815,240.418 C171.491,241.123 171.282,241.869 171.199,242.624 L169.298,260.341 C169.267,260.599 169.037,260.798 168.765,260.798 L165.486,260.798 C165.215,260.798 164.985,260.599 164.954,260.341 L163.053,242.624 C162.969,241.859 162.761,241.113 162.437,240.418 C162.426,240.398 162.416,240.388 162.405,240.368 C162.405,240.358 161.915,239.524 161.413,238.5 C161.716,237.834 162.009,237.139 162.186,236.513 C162.458,235.549 162.677,233.86 162.729,232.31 C162.823,229.259 162.228,228.693 162.03,228.504 C161.925,228.405 161.831,228.315 161.748,228.236 C162.667,227.669 163.617,227.232 164.16,226.994 L166.625,230.213 C166.739,230.372 166.927,230.462 167.136,230.462 C167.335,230.462 167.523,230.372 167.648,230.213 L170.113,226.994 C170.76,227.272 171.992,227.848 173.047,228.594 C173.423,228.862 173.59,229.011 173.945,229.349 C174.06,229.468 174.342,230.213 174.279,232.29 z" fill="#F5E0CE"/>
      <path d="M145.843,217.634 C145.707,214.583 143.493,213.5 141.655,213.5 C141.624,213.5 141.592,213.5 141.561,213.5 C141.54,213.5 141.509,213.5 141.467,213.5 C139.629,213.5 137.425,214.583 137.269,217.624 C137.237,217.912 136.976,220.813 138.564,222.512 C139.295,223.297 140.276,223.705 141.488,223.725 C141.509,223.725 141.53,223.725 141.561,223.725 C141.571,223.725 141.582,223.725 141.582,223.725 C141.603,223.725 141.624,223.725 141.634,223.725 C142.845,223.705 143.827,223.297 144.548,222.522 C146.135,220.823 145.874,217.922 145.843,217.634 z M143.618,221.727 C143.117,222.264 142.449,222.522 141.582,222.532 C141.571,222.532 141.561,222.532 141.561,222.532 L141.55,222.532 C140.673,222.522 140.015,222.264 139.514,221.727 C138.24,220.376 138.511,217.763 138.522,217.733 C138.522,217.723 138.522,217.713 138.522,217.693 C138.658,214.901 140.819,214.682 141.477,214.682 C141.509,214.682 141.53,214.682 141.54,214.682 C141.561,214.682 141.571,214.682 141.592,214.682 C141.603,214.682 141.624,214.682 141.655,214.682 C142.313,214.682 144.475,214.901 144.61,217.693 C144.61,217.703 144.61,217.713 144.61,217.733 C144.694,218.458 144.673,220.595 143.618,221.727 z" fill="#F5E0CE"/>
      <path d="M158.625,217.634 C158.479,214.583 156.275,213.5 154.437,213.5 C154.406,213.5 154.375,213.5 154.343,213.5 C154.322,213.5 154.291,213.5 154.249,213.5 C152.401,213.5 150.197,214.583 150.041,217.634 C150.009,217.922 149.748,220.823 151.336,222.522 C152.077,223.297 153.059,223.705 154.26,223.725 C154.291,223.725 154.322,223.725 154.333,223.725 C154.343,223.725 154.354,223.725 154.364,223.725 C154.375,223.725 154.396,223.725 154.406,223.725 C155.617,223.705 156.599,223.297 157.33,222.522 C158.917,220.823 158.656,217.922 158.625,217.634 z M156.39,221.727 C155.889,222.264 155.231,222.522 154.354,222.532 L154.343,222.532 C154.333,222.532 154.322,222.532 154.322,222.532 C153.445,222.522 152.787,222.264 152.286,221.727 C151.022,220.376 151.294,217.763 151.294,217.733 C151.294,217.723 151.294,217.713 151.294,217.693 C151.43,214.901 153.591,214.682 154.249,214.682 C154.281,214.682 154.302,214.682 154.312,214.682 C154.333,214.682 154.343,214.682 154.364,214.682 C154.375,214.682 154.396,214.682 154.427,214.682 C155.085,214.682 157.247,214.901 157.382,217.693 C157.382,217.703 157.382,217.713 157.382,217.733 C157.466,218.458 157.445,220.595 156.39,221.727 z" fill="#F5E0CE"/>
    </g>
    <path d="M154.5,262 L154.688,183.219" fill-opacity="0" stroke="#F5E0CE" stroke-width="1.049" stroke-dasharray="3.147,2.098"/>
  </g>
</svg>
