<?xml version="1.0" encoding="UTF-8"?>
<!DOCTYPE svg PUBLIC "-//W3C//DTD SVG 1.1//EN" "http://www.w3.org/Graphics/SVG/1.1/DTD/svg11.dtd">
<svg version="1.1" xmlns="http://www.w3.org/2000/svg" xmlns:xlink="http://www.w3.org/1999/xlink" x="0" y="0" width="100" height="100" viewBox="0, 0, 100, 100">
  <g id="Capa_1">
    <path d="M12.667,27.333 L27.333,27.333 C28.133,27.333 28.667,26.767 28.667,25.917 L28.667,10.333 L74,10.333 L74,30.167 L76.667,30.167 L76.667,8.917 C76.667,8.067 76.133,7.5 75.333,7.5 L27.333,7.5 L27.333,7.5 C27.2,7.5 27.067,7.5 26.933,7.642 L26.8,7.642 C26.667,7.783 26.533,7.783 26.4,7.925 L10.4,24.925 C10.267,25.067 10.267,25.208 10.133,25.35 L10.133,25.492 C10.133,25.633 10,25.775 10,25.917 L10,25.917 L10,41.5 L12.667,41.5 C12.667,41.5 12.667,28.892 12.667,27.333 z M26,24.5 L14.533,24.5 L20.267,18.408 L26,12.317 L26,24.5 L26,24.5 z" fill="#231123"/>
    <path d="M43.333,68.417 L28.667,68.417 L28.667,62.75 L28.667,55.667 L28.667,48.583 C28.667,47.733 28.133,47.167 27.333,47.167 L11.333,47.167 C10.533,47.167 10,47.733 10,48.583 L10,55.667 L10,62.75 L10,69.833 L10,76.917 L10,84 L10,91.083 C10,91.933 10.533,92.5 11.333,92.5 L27.333,92.5 L43.333,92.5 C44.133,92.5 44.667,91.933 44.667,91.083 L44.667,84 L44.667,76.917 L44.667,69.833 C44.667,68.983 44.133,68.417 43.333,68.417 z M12.667,71.25 L26,71.25 L26,75.5 L12.667,75.5 L12.667,71.25 z M26,68.417 L12.667,68.417 L12.667,64.167 L26,64.167 L26,68.417 z M26,61.333 L12.667,61.333 L12.667,57.083 L26,57.083 L26,61.333 z M12.667,78.333 L26,78.333 L26,82.583 L12.667,82.583 L12.667,78.333 z M28.667,78.333 L42,78.333 L42,82.583 L28.667,82.583 L28.667,78.333 z M42,75.5 L28.667,75.5 L28.667,71.25 L42,71.25 L42,75.5 z M12.667,50 L26,50 L26,54.25 L12.667,54.25 L12.667,50 z M12.667,85.417 L26,85.417 L26,89.667 L12.667,89.667 L12.667,85.417 z M42,89.667 L28.667,89.667 L28.667,85.417 L42,85.417 L42,89.667 z" fill="#231123"/>
    <path d="M60.667,14.583 L70,14.583 L70,17.417 L60.667,17.417 z" fill="#231123"/>
    <path d="M46,21.667 L70,21.667 L70,24.5 L46,24.5 z" fill="#231123"/>
    <path d="M75.844,29.859 L75.844,89.359" fill-opacity="0" stroke="#231123" stroke-width="2.64"/>
    <path d="M25.1,32.7 L70.5,32.7" fill-opacity="0" stroke="#231123" stroke-width="2.64"/>
    <path d="M25.1,38.1 L70.5,38.1" fill-opacity="0" stroke="#231123" stroke-width="2.64"/>
    <path d="M25.1,43.3 L70.5,43.3" fill-opacity="0" stroke="#231123" stroke-width="2.64"/>
    <path d="M31.767,55.3 L70.5,55.5" fill-opacity="0" stroke="#231123" stroke-width="2.64"/>
    <path d="M31.767,60.5 L70.5,60.7" fill-opacity="0" stroke="#231123" stroke-width="2.64"/>
    <path d="M60.667,77.967 L70,77.967 L70,80.8 L60.667,80.8 z" fill="#231123"/>
  </g>
</svg>
