<?xml version="1.0" encoding="UTF-8"?>
<!DOCTYPE svg PUBLIC "-//W3C//DTD SVG 1.1//EN" "http://www.w3.org/Graphics/SVG/1.1/DTD/svg11.dtd">
<svg version="1.1" xmlns="http://www.w3.org/2000/svg" xmlns:xlink="http://www.w3.org/1999/xlink" x="0" y="0" width="100" height="100" viewBox="0, 0, 100, 100">
  <g id="Capa_1">
    <path d="M-0,-0 z" fill="#231123"/>
    <path d="M0,0 z" fill="#231123"/>
    <path d="M20.057,27.881 C20.343,30.865 21.597,33.492 21.657,33.616 C23.018,36.431 25.073,40.685 32,40.685 C38.927,40.685 40.982,36.431 42.342,33.616 C42.402,33.492 43.656,30.865 43.943,27.881 C44.87,27.353 45.5,26.33 45.5,25.159 L45.5,22.054 C45.5,20.907 44.897,19.903 44,19.366 L44,18.949 C44,13.811 39.963,9.633 35,9.633 L29,9.633 C24.036,9.633 20,13.811 20,18.949 L20,19.366 C19.103,19.903 18.5,20.907 18.5,22.054 L18.5,25.159 C18.5,26.33 19.13,27.353 20.057,27.881 z M21.5,22.054 C22.329,22.054 23,21.358 23,20.501 L23,18.949 C23,15.524 25.691,12.739 29,12.739 L35,12.739 C38.309,12.739 41,15.524 41,18.949 L41,20.501 C41,21.358 41.67,22.054 42.5,22.054 L42.5,25.159 C41.67,25.159 41,25.855 41,26.712 C41,29.398 39.671,32.201 39.657,32.228 C38.096,35.46 36.719,37.579 32,37.579 C27.281,37.579 25.903,35.46 24.344,32.229 C24.329,32.201 22.999,29.397 22.999,26.712 C22.999,25.855 22.329,25.159 21.5,25.159 L21.5,22.054 z" fill="#231123"/>
    <path d="M15.5,62.42 C14.67,62.42 14,63.116 14,63.973 L14,88.814 C14,89.671 14.67,90.366 15.5,90.366 C16.329,90.366 16.999,89.671 16.999,88.814 L16.999,63.973 C17,63.116 16.329,62.42 15.5,62.42 z" fill="#231123"/>
    <path d="M84.599,62.42 L84.593,62.42 C83.768,62.42 83.096,63.111 83.093,63.967 L83,88.808 C82.997,89.665 83.665,90.363 84.494,90.367 L84.5,90.367 C85.327,90.367 85.997,89.676 86,88.82 L86.093,63.979 C86.096,63.122 85.429,62.424 84.599,62.42 z" fill="#231123"/>
    <path d="M70.922,23.116 C70.72,22.481 70.147,22.054 69.5,22.054 C68.854,22.054 68.282,22.481 68.078,23.116 C66.95,26.617 63.63,26.71 63.5,26.712 C62.67,26.712 62,27.407 62,28.264 L62,34.474 C62,39.66 65.423,46.895 71,46.895 C76.577,46.895 80,39.66 80,34.474 L80,28.264 C80,27.407 79.33,26.712 78.5,26.712 C78.436,26.712 72.05,26.614 70.922,23.116 z M77,34.474 C77,38.694 74.324,43.79 71,43.79 C67.676,43.79 65,38.694 65,34.474 L65,29.627 C66.469,29.283 68.282,28.416 69.614,26.653 C71.716,28.828 75.067,29.508 77,29.72 L77,34.474 z" fill="#231123"/>
    <path d="M91.322,51.554 C88.382,48.517 83.966,46.913 78.545,46.913 C77.705,46.931 77.005,47.592 77,48.461 C76.999,48.778 76.895,56.21 71,56.21 C65.105,56.21 65.002,48.78 65,48.463 C64.999,47.608 64.328,46.915 63.5,46.915 C62.671,46.915 62,47.609 62,48.468 C62,51.939 63.62,58.263 69.5,59.19 L69.5,67.078 C69.5,67.935 70.171,68.631 71,68.631 C71.83,68.631 72.5,67.935 72.5,67.078 L72.5,59.188 C77.563,58.388 79.469,53.594 79.9,50.057 C83.878,50.288 87.074,51.552 89.203,53.752 C91.008,55.617 92.001,58.143 92.001,60.868 L92.001,85.708 C92.001,86.565 92.671,87.261 93.501,87.261 C94.33,87.261 95.001,86.565 95.001,85.708 L95.001,60.868 C95,57.312 93.694,54.006 91.322,51.554 z" fill="#231123"/>
    <path d="M48.5,62.42 C47.67,62.42 47,63.116 47,63.973 L47,88.814 C47,89.671 47.67,90.366 48.5,90.366 C49.329,90.366 50,89.671 50,88.814 L50,63.973 C50,63.116 49.329,62.42 48.5,62.42 z" fill="#231123"/>
    <path d="M69.5,15.844 L72.5,15.844 C76.448,15.844 81.245,20.039 81.505,23.726 L83.005,43.909 C83.065,44.723 83.722,45.342 84.499,45.342 C84.536,45.342 84.577,45.341 84.616,45.338 C85.441,45.272 86.059,44.526 85.996,43.67 L84.496,23.493 C84.095,17.803 77.455,12.738 72.5,12.738 L69.5,12.738 C64.04,12.738 57.987,18.151 57.504,23.487 L56.004,43.67 C55.942,44.526 56.559,45.272 57.385,45.338 C58.226,45.393 58.932,44.763 58.996,43.909 L60.494,23.751 C60.828,20.056 65.626,15.844 69.5,15.844 z" fill="#231123"/>
    <path d="M39.597,43.81 C38.855,43.798 38.181,44.291 38.031,45.046 L32,74.999 L25.968,45.046 C25.817,44.291 25.121,43.811 24.399,43.81 C16.519,43.81 10.491,45.556 7.417,48.73 C5.814,50.388 4.999,52.383 4.999,54.658 L4.999,85.709 C4.999,86.566 5.67,87.261 6.499,87.261 C7.329,87.261 7.999,86.566 7.999,85.709 L7.999,54.658 C7.999,53.217 8.503,51.997 9.537,50.927 C11.874,48.513 16.845,47.076 23.282,46.927 L30.528,82.899 C30.528,82.902 30.53,82.905 30.53,82.908 L30.531,82.92 C30.542,82.968 30.573,83.006 30.587,83.052 C30.63,83.198 30.677,83.343 30.759,83.468 C30.807,83.544 30.879,83.597 30.939,83.662 C31.014,83.74 31.077,83.828 31.166,83.891 C31.265,83.959 31.38,83.991 31.493,84.033 C31.562,84.06 31.619,84.108 31.694,84.123 L31.704,84.123 C31.799,84.144 31.902,84.125 32.001,84.125 C32.1,84.125 32.204,84.144 32.3,84.123 L32.306,84.123 C32.355,84.112 32.393,84.08 32.439,84.064 C32.579,84.02 32.718,83.971 32.838,83.887 C32.913,83.835 32.966,83.759 33.03,83.693 C33.102,83.62 33.185,83.557 33.242,83.468 C33.323,83.346 33.366,83.203 33.41,83.06 C33.425,83.012 33.458,82.972 33.468,82.92 L33.47,82.908 C33.47,82.905 33.471,82.902 33.471,82.899 L40.718,46.927 C47.156,47.076 52.125,48.514 54.463,50.927 C55.496,51.996 56,53.217 56,54.658 L56,85.709 C56,86.566 56.671,87.261 57.5,87.261 C58.33,87.261 59,86.566 59,85.709 L59,54.658 C59,52.383 58.185,50.388 56.582,48.73 C53.508,45.555 47.48,43.81 39.597,43.81 z" fill="#231123"/>
  </g>
</svg>
