<?xml version="1.0" encoding="UTF-8"?>
<!DOCTYPE svg PUBLIC "-//W3C//DTD SVG 1.1//EN" "http://www.w3.org/Graphics/SVG/1.1/DTD/svg11.dtd">
<svg version="1.1" xmlns="http://www.w3.org/2000/svg" xmlns:xlink="http://www.w3.org/1999/xlink" x="0" y="0" width="100" height="100" viewBox="0, 0, 100, 100">
  <g id="Capa_1">
    <g>
      <path d="M33.113,49.889 C33.686,51.738 35.271,56.754 36.175,58.73 C37.877,62.454 42.706,68.756 50,68.756 C57.294,68.756 62.122,62.454 63.826,58.73 C64.729,56.754 66.314,51.738 66.888,49.889 C68.274,49.497 69.3,48.119 69.3,46.483 L69.3,41.794 C69.3,40.266 68.403,38.962 67.155,38.478 L67.155,32.416 C67.155,27.788 64.926,19.239 56.682,18.414 C56.665,17.861 56.496,17.415 56.311,17.086 C55.258,15.223 52.297,14.833 50,14.833 C30.921,14.833 30.7,34.562 30.7,34.761 C30.7,35.408 31.179,35.932 31.771,35.932 L31.772,35.932 C32.363,35.932 32.843,35.409 32.844,34.762 C32.846,34.045 33.088,17.177 50,17.177 C53.032,17.177 54.247,17.895 54.486,18.319 C54.521,18.379 54.611,18.539 54.402,18.998 C54.236,19.361 54.254,19.793 54.449,20.138 C54.644,20.483 54.99,20.694 55.361,20.694 C64.867,20.694 65.009,31.939 65.011,32.416 L65.011,39.45 C65.011,40.097 65.491,40.622 66.083,40.622 C66.674,40.622 67.155,41.148 67.155,41.794 L67.155,46.483 C67.155,47.129 66.674,47.655 66.083,47.655 C65.622,47.655 65.212,47.978 65.065,48.457 C65.045,48.526 62.934,55.438 61.907,57.682 C61.745,58.038 57.824,66.411 49.999,66.411 C42.174,66.411 38.255,58.038 38.092,57.682 C37.066,55.438 34.954,48.526 34.934,48.457 C34.788,47.978 34.378,47.655 33.916,47.655 C33.325,47.655 32.844,47.129 32.844,46.483 L32.844,41.794 C32.844,41.477 32.961,41.188 33.148,40.977 C33.575,42.024 34.481,42.966 36.061,42.966 C36.467,42.966 36.838,42.716 37.02,42.318 C37.967,40.249 38.941,38.118 39.206,35.91 C44.693,35.668 52.9,33.53 56.765,30.263 C57.796,34.352 60.879,37.763 61.036,37.934 C61.455,38.392 62.134,38.392 62.552,37.934 C62.971,37.476 62.971,36.735 62.552,36.276 C62.512,36.233 58.577,31.883 58.577,27.727 C58.577,27.201 58.255,26.738 57.791,26.597 C57.326,26.457 56.834,26.672 56.586,27.123 C54.758,30.454 44.681,33.588 38.205,33.588 C37.613,33.588 37.133,34.114 37.133,34.761 C37.133,36.587 36.363,38.484 35.463,40.475 C35.099,40.255 34.998,39.822 34.989,39.449 C34.989,38.802 34.508,38.277 33.916,38.277 C32.143,38.277 30.7,39.855 30.7,41.794 L30.7,46.483 C30.7,48.119 31.727,49.497 33.113,49.889 z" fill="#231123"/>
      <path d="M82.134,83.71 L81.04,78.936 C80.488,77.128 77.234,71.314 58.578,71.155 L58.578,69.928 C58.578,69.281 58.097,68.756 57.505,68.756 C56.914,68.756 56.433,69.281 56.433,69.928 L56.433,72.273 C56.433,72.281 56.438,72.288 56.438,72.296 C56.438,72.303 56.433,72.309 56.433,72.317 C56.429,73.032 56.214,79.306 50,79.306 C43.786,79.306 43.571,72.989 43.567,72.273 L43.567,69.928 C43.567,69.281 43.086,68.756 42.494,68.756 C41.903,68.756 41.422,69.281 41.422,69.928 L41.422,71.112 C27.53,71.232 20.571,73.656 18.938,79.021 L17.866,83.71 C17.722,84.338 18.071,84.975 18.646,85.132 C19.219,85.289 19.802,84.907 19.946,84.28 L20.995,79.676 C22.241,75.591 28.95,73.55 41.493,73.448 C41.882,76.804 43.97,81.65 50,81.65 C56.029,81.65 58.117,76.834 58.507,73.495 C73.203,73.614 78.313,77.406 78.982,79.591 L80.054,84.28 C80.176,84.812 80.613,85.167 81.093,85.167 C81.18,85.167 81.267,85.156 81.355,85.132 C81.929,84.975 82.278,84.338 82.134,83.71 z" fill="#231123"/>
    </g>
  </g>
</svg>
