<?xml version="1.0" encoding="UTF-8"?>
<!DOCTYPE svg PUBLIC "-//W3C//DTD SVG 1.1//EN" "http://www.w3.org/Graphics/SVG/1.1/DTD/svg11.dtd">
<svg version="1.1" xmlns="http://www.w3.org/2000/svg" xmlns:xlink="http://www.w3.org/1999/xlink" x="0" y="0" width="100" height="100" viewBox="0, 0, 100, 100">
  <g id="Capa_1">
    <path d="M-0,-0 z" fill="#231123"/>
    <path d="M0,0 z" fill="#231123"/>
    <path d="M89.165,16.766 L10.835,16.766 C10.098,16.766 9.5,17.433 9.5,18.255 L9.5,81.745 C9.5,82.567 10.098,83.234 10.835,83.234 L89.165,83.234 C89.902,83.234 90.5,82.567 90.5,81.745 L90.5,18.255 C90.5,17.433 89.902,16.766 89.165,16.766 z M87.83,80.257 L12.17,80.257 L12.17,19.743 L87.83,19.743 L87.83,80.257 z" fill="#231123"/>
    <path d="M17.956,75.297 L82.044,75.297 C82.782,75.297 83.379,74.631 83.379,73.809 L83.379,26.191 C83.379,25.369 82.782,24.703 82.044,24.703 L17.956,24.703 C17.219,24.703 16.621,25.369 16.621,26.191 L16.562,40.125 C16.562,40.947 17.45,40.562 18.188,40.562 C18.925,40.562 19.312,41.01 19.312,40.188 L19.291,27.679 L80.709,27.679 L80.709,72.321 L19.291,72.321 L19.291,40.08 C19.291,39.258 18.693,38.591 17.956,38.591 C17.219,38.591 16.621,39.258 16.621,40.08 L16.621,73.809 C16.621,74.631 17.219,75.297 17.956,75.297 z" fill="#231123"/>
    <path d="M31.589,48.394 C31.18,47.71 30.351,47.526 29.737,47.981 L24.397,51.949 C24.396,51.95 24.396,51.95 24.396,51.95 C24.353,51.982 24.313,52.016 24.274,52.053 C24.264,52.064 24.254,52.074 24.243,52.085 C24.216,52.112 24.19,52.14 24.165,52.17 C24.154,52.183 24.143,52.196 24.132,52.21 C24.108,52.241 24.084,52.274 24.062,52.307 C24.055,52.319 24.047,52.329 24.04,52.341 C24.011,52.387 23.984,52.435 23.96,52.485 C23.96,52.486 23.959,52.487 23.959,52.489 C23.936,52.536 23.916,52.586 23.898,52.637 C23.893,52.65 23.889,52.663 23.885,52.676 C23.872,52.716 23.86,52.757 23.85,52.798 C23.846,52.814 23.842,52.83 23.839,52.845 C23.83,52.886 23.824,52.928 23.818,52.97 C23.816,52.985 23.813,53 23.812,53.016 C23.806,53.072 23.802,53.129 23.802,53.188 C23.802,53.246 23.806,53.303 23.812,53.359 C23.813,53.375 23.816,53.39 23.818,53.405 C23.823,53.447 23.83,53.489 23.839,53.53 C23.842,53.545 23.846,53.561 23.85,53.577 C23.86,53.618 23.872,53.659 23.885,53.699 C23.889,53.712 23.893,53.725 23.898,53.738 C23.916,53.789 23.936,53.839 23.959,53.886 C23.959,53.888 23.96,53.889 23.96,53.89 C23.984,53.94 24.011,53.988 24.04,54.034 C24.047,54.046 24.055,54.056 24.062,54.068 C24.084,54.101 24.108,54.134 24.132,54.165 C24.143,54.179 24.154,54.192 24.165,54.205 C24.19,54.235 24.216,54.263 24.243,54.29 C24.253,54.301 24.263,54.311 24.274,54.322 C24.313,54.359 24.353,54.393 24.396,54.425 C24.396,54.425 24.396,54.425 24.397,54.426 L29.737,58.394 C29.965,58.563 30.222,58.644 30.477,58.644 C30.908,58.644 31.332,58.411 31.589,57.981 C31.998,57.297 31.832,56.373 31.219,55.918 L29.547,54.676 L60.742,54.676 C61.479,54.676 62.077,54.01 62.077,53.188 C62.077,52.365 61.479,51.699 60.742,51.699 L29.547,51.699 L31.219,50.457 C31.832,50.001 31.998,49.078 31.589,48.394 z" fill="#231123"/>
    <path d="M59.884,31.989 C60.293,31.306 61.122,31.121 61.735,31.577 L67.076,35.545 C67.076,35.545 67.077,35.545 67.077,35.546 C67.119,35.577 67.16,35.612 67.198,35.649 C67.209,35.659 67.219,35.67 67.23,35.68 C67.257,35.707 67.283,35.735 67.308,35.765 C67.319,35.778 67.33,35.792 67.341,35.805 C67.365,35.837 67.388,35.869 67.411,35.903 C67.418,35.914 67.426,35.925 67.433,35.936 C67.462,35.982 67.488,36.03 67.513,36.08 C67.513,36.081 67.513,36.083 67.514,36.084 C67.537,36.132 67.557,36.182 67.575,36.232 C67.58,36.245 67.584,36.258 67.588,36.271 C67.601,36.311 67.613,36.352 67.623,36.394 C67.627,36.409 67.63,36.425 67.634,36.441 C67.642,36.482 67.649,36.523 67.655,36.566 C67.657,36.581 67.66,36.596 67.661,36.611 C67.667,36.667 67.671,36.725 67.671,36.783 C67.671,36.841 67.667,36.898 67.661,36.955 C67.66,36.97 67.657,36.985 67.655,37 C67.649,37.042 67.642,37.084 67.634,37.125 C67.63,37.141 67.627,37.156 67.623,37.172 C67.613,37.214 67.601,37.254 67.588,37.295 C67.584,37.307 67.58,37.321 67.575,37.333 C67.557,37.384 67.537,37.434 67.514,37.482 C67.513,37.483 67.513,37.484 67.513,37.485 C67.488,37.535 67.462,37.583 67.433,37.63 C67.426,37.641 67.418,37.652 67.411,37.663 C67.388,37.697 67.365,37.729 67.341,37.76 C67.33,37.774 67.319,37.788 67.308,37.801 C67.283,37.83 67.257,37.858 67.23,37.886 C67.219,37.896 67.209,37.907 67.198,37.917 C67.16,37.954 67.119,37.988 67.077,38.02 C67.077,38.02 67.076,38.021 67.076,38.021 L61.735,41.989 C61.508,42.158 61.25,42.239 60.996,42.239 C60.565,42.239 60.141,42.007 59.884,41.576 C59.475,40.893 59.641,39.969 60.254,39.513 L61.926,38.271 L30.731,38.271 C29.993,38.271 29.396,37.605 29.396,36.783 C29.396,35.961 29.993,35.295 30.731,35.295 L61.926,35.295 L60.254,34.053 C59.641,33.597 59.475,32.673 59.884,31.989 z" fill="#231123"/>
    <path d="M68.088,58.687 C68.497,58.004 69.326,57.819 69.94,58.275 L75.28,62.243 C75.281,62.243 75.281,62.244 75.281,62.244 C75.324,62.275 75.364,62.31 75.403,62.347 C75.413,62.357 75.423,62.368 75.434,62.378 C75.461,62.405 75.487,62.433 75.512,62.463 C75.523,62.476 75.534,62.49 75.545,62.504 C75.57,62.535 75.593,62.567 75.615,62.601 C75.622,62.612 75.63,62.623 75.637,62.634 C75.666,62.68 75.693,62.729 75.717,62.779 C75.717,62.78 75.718,62.781 75.718,62.782 C75.741,62.83 75.761,62.88 75.779,62.931 C75.784,62.943 75.788,62.956 75.792,62.969 C75.805,63.009 75.817,63.05 75.827,63.092 C75.831,63.107 75.835,63.123 75.838,63.139 C75.847,63.18 75.853,63.222 75.859,63.264 C75.861,63.279 75.864,63.294 75.865,63.309 C75.871,63.366 75.875,63.423 75.875,63.481 C75.875,63.539 75.871,63.597 75.865,63.653 C75.864,63.668 75.861,63.683 75.859,63.698 C75.854,63.741 75.847,63.782 75.838,63.823 C75.835,63.839 75.831,63.855 75.827,63.87 C75.817,63.912 75.805,63.953 75.792,63.993 C75.788,64.006 75.784,64.019 75.779,64.031 C75.761,64.082 75.741,64.132 75.718,64.18 C75.718,64.181 75.717,64.182 75.717,64.183 C75.693,64.233 75.666,64.281 75.637,64.328 C75.63,64.339 75.622,64.35 75.615,64.361 C75.593,64.395 75.57,64.427 75.545,64.458 C75.534,64.472 75.523,64.486 75.512,64.499 C75.487,64.528 75.461,64.557 75.434,64.584 C75.424,64.594 75.414,64.605 75.403,64.615 C75.364,64.652 75.324,64.687 75.281,64.718 C75.281,64.719 75.281,64.719 75.28,64.719 L69.94,68.687 C69.712,68.857 69.455,68.938 69.2,68.938 C68.769,68.938 68.345,68.705 68.088,68.275 C67.679,67.591 67.845,66.667 68.458,66.211 L70.13,64.969 L38.935,64.969 C38.198,64.969 37.6,64.303 37.6,63.481 C37.6,62.659 38.198,61.993 38.935,61.993 L70.13,61.993 L68.458,60.751 C67.845,60.295 67.679,59.371 68.088,58.687 z" fill="#231123"/>
  </g>
</svg>
