<?xml version="1.0" encoding="UTF-8"?>
<!DOCTYPE svg PUBLIC "-//W3C//DTD SVG 1.1//EN" "http://www.w3.org/Graphics/SVG/1.1/DTD/svg11.dtd">
<svg version="1.1" xmlns="http://www.w3.org/2000/svg" xmlns:xlink="http://www.w3.org/1999/xlink" x="0" y="0" width="300" height="300" viewBox="0, 0, 300, 300">
  <g id="Capa_1">
    <path d="M0,0 L300,0 L300,300 L0,300 L0,0 z" fill="#3A5A40"/>
    <path d="M247.933,63.909 L42.199,63.909 C38.632,63.909 35.729,66.886 35.729,70.546 L35.729,187.514 C35.729,187.514 35.733,187.518 35.733,187.522 L35.733,193.367 C35.733,195.529 37.438,197.278 39.541,197.278 L123.743,197.278 C123.401,204.97 121.745,220.408 113.962,223.792 C113.962,223.792 110.941,226.667 119.394,226.667 L133.86,226.667 L153.799,226.667 L168.269,226.667 C176.721,226.667 173.701,223.792 173.701,223.792 C165.918,220.408 164.258,204.968 163.92,197.278 L250.657,197.278 C252.768,197.278 254.379,195.529 254.379,193.367 L254.379,187.698 C254.379,187.634 254.395,187.575 254.395,187.514 L254.395,70.546 C254.399,66.886 251.5,63.909 247.933,63.909 z M140.92,195.988 C140.92,194.161 142.362,192.683 144.141,192.683 C145.922,192.683 147.362,194.163 147.362,195.988 C147.362,197.813 145.92,199.293 144.141,199.293 C142.362,199.293 140.92,197.815 140.92,195.988 z M247.933,188.241 L42.199,188.241 L42.199,71.069 C42.199,70.55 42.607,70.128 43.112,70.128 L247.016,70.128 C247.521,70.128 247.933,70.55 247.933,71.069 L247.933,188.241 z" fill="#EDF7D2" id="monitor"/>
    <path d="M209.247,169 L90.753,169 C89.785,169 89,168.433 89,167.733 L89,92.564 C89,91.864 89.785,91.297 90.753,91.297 L197.098,91.297 C198.066,91.297 198.85,91.864 198.85,92.564 L198.85,130.04 L209.247,130.04 C210.215,130.04 211,130.607 211,131.307 L211,167.733 C211,168.433 210.215,169 209.247,169 z M120.902,166.465 L207.494,166.465 L207.494,132.574 L171.244,132.574 C170.276,132.574 169.491,132.007 169.491,131.307 L169.491,128.867 L165.164,128.867 C164.195,128.867 163.411,128.3 163.411,127.6 C163.411,126.9 164.195,126.333 165.164,126.333 L169.491,126.333 L169.491,118.137 C169.491,117.437 170.276,116.87 171.244,116.87 C172.212,116.87 172.997,117.437 172.997,118.137 L172.997,130.04 L183.184,130.04 L183.184,93.831 L172.997,93.831 L172.997,103.098 C172.997,103.798 172.212,104.365 171.244,104.365 C170.276,104.365 169.491,103.798 169.491,103.098 L169.491,99.211 L141.937,99.211 C140.968,99.211 140.184,98.644 140.184,97.944 L140.184,93.831 L133.785,93.831 L133.785,99.718 C133.785,100.418 133,100.986 132.032,100.986 C131.063,100.986 130.279,100.418 130.279,99.718 L130.279,93.831 L128.381,93.831 L128.381,97.099 C128.381,97.8 127.597,98.367 126.629,98.367 L126.082,98.367 C126.396,98.884 126.57,99.456 126.57,100.056 L126.57,103.351 C126.57,105.681 123.949,107.576 120.728,107.576 C117.506,107.576 114.885,105.681 114.885,103.351 L114.885,100.056 C114.885,99.456 115.06,98.884 115.373,98.367 L114.827,98.367 C113.859,98.367 113.074,97.8 113.074,97.099 L113.074,93.831 L106.704,93.831 L106.704,110.617 C106.704,111.317 105.919,111.885 104.951,111.885 L102.672,111.885 L102.672,119.001 L130.279,119.001 L130.279,113.152 C130.279,112.452 131.063,111.885 132.032,111.885 C133,111.885 133.785,112.452 133.785,113.152 L133.785,126.332 L138.112,126.332 C139.08,126.332 139.865,126.899 139.865,127.599 C139.865,128.3 139.08,128.867 138.112,128.867 L133.785,128.867 L133.785,135.077 C133.785,135.777 133,136.344 132.032,136.344 C131.063,136.344 130.279,135.777 130.279,135.077 L130.279,121.536 L105.244,121.536 L105.244,157.931 L119.149,157.931 C120.118,157.931 120.902,158.498 120.902,159.198 L120.902,166.465 z M92.506,166.465 L117.397,166.465 L117.397,160.466 L103.491,160.466 C102.522,160.466 101.738,159.899 101.738,159.198 L101.738,137.147 L92.506,137.147 L92.506,166.465 z M92.506,134.612 L101.738,134.612 L101.738,121.536 L92.506,121.536 L92.506,134.612 z M192.77,130.04 L195.345,130.04 L195.345,93.831 L192.77,93.831 L192.77,130.04 z M186.69,130.04 L189.264,130.04 L189.264,93.831 L186.69,93.831 L186.69,130.04 z M92.506,118.559 L99.167,118.559 L99.167,111.885 L92.506,111.885 L92.506,118.559 z M100.92,109.35 L103.198,109.35 L103.198,93.831 L92.506,93.831 L92.506,109.35 L100.92,109.35 z M120.727,98.367 C119.438,98.367 118.39,99.125 118.39,100.056 L118.39,103.351 C118.39,104.283 119.438,105.041 120.727,105.041 C122.016,105.041 123.064,104.283 123.064,103.351 L123.064,100.056 C123.064,99.125 122.016,98.367 120.727,98.367 z M143.69,96.677 L169.491,96.677 L169.491,93.831 L143.69,93.831 L143.69,96.677 z M120.727,95.832 L124.876,95.832 L124.876,93.831 L116.578,93.831 L116.578,95.832 L120.727,95.832 z M159.084,162.704 L145.03,162.704 C144.061,162.704 143.277,162.137 143.277,161.437 L143.277,138.214 C143.277,137.514 144.061,136.946 145.03,136.946 L159.084,136.946 C160.052,136.946 160.837,137.514 160.837,138.214 L160.837,161.438 C160.837,162.137 160.052,162.704 159.084,162.704 z M146.782,160.17 L157.331,160.17 L157.331,158.902 L151.11,158.902 C150.142,158.902 149.357,158.335 149.357,157.635 L149.357,142.016 C149.357,141.315 150.142,140.748 151.11,140.748 L157.331,140.748 L157.331,139.481 L146.782,139.481 L146.782,160.17 z M152.863,156.368 L157.331,156.368 L157.331,143.283 L152.863,143.283 L152.863,156.368 z M197.098,161.944 C196.129,161.944 195.345,161.377 195.345,160.677 L195.345,138.879 C195.345,138.179 196.129,137.611 197.098,137.611 C198.066,137.611 198.85,138.179 198.85,138.879 L198.85,142.81 C199.762,142.855 200.483,143.404 200.483,144.075 L200.483,155.481 C200.483,156.151 199.763,156.7 198.85,156.745 L198.85,160.677 C198.85,161.377 198.066,161.944 197.098,161.944 z M180.199,160.423 C174.624,160.423 170.258,156.081 170.258,150.538 C170.258,144.995 174.624,140.653 180.199,140.653 C185.774,140.653 190.141,144.995 190.141,150.538 C190.141,156.081 185.774,160.423 180.199,160.423 z M180.199,143.188 C176.71,143.188 173.763,146.554 173.763,150.538 C173.763,154.523 176.711,157.889 180.199,157.889 C183.687,157.889 186.635,154.523 186.635,150.538 C186.635,146.554 183.687,143.188 180.199,143.188 z" fill="#EDF7D2" id="house-plans"/>
  </g>
</svg>
