<?xml version="1.0" encoding="UTF-8"?>
<!DOCTYPE svg PUBLIC "-//W3C//DTD SVG 1.1//EN" "http://www.w3.org/Graphics/SVG/1.1/DTD/svg11.dtd">
<svg version="1.1" xmlns="http://www.w3.org/2000/svg" xmlns:xlink="http://www.w3.org/1999/xlink" x="0" y="0" width="100" height="100" viewBox="0, 0, 100, 100">
  <g id="Capa_1">
    <path d="M71.637,43.401 L57.943,43.401 L56.639,37.631 C56.397,36.557 55.562,35.695 54.475,35.283 L54.475,11.088 C56.674,10.431 58.263,8.589 58.263,6.423 C58.263,3.709 55.767,1.5 52.7,1.5 C49.633,1.5 47.137,3.709 47.137,6.423 C47.137,8.589 48.726,10.431 50.925,11.088 L50.925,35.283 C49.838,35.695 49.004,36.557 48.761,37.631 L47.457,43.401 L33.763,43.401 C30.695,43.401 28.2,45.609 28.2,48.324 L28.2,93.577 C28.2,96.291 30.695,98.5 33.763,98.5 L71.637,98.5 C74.705,98.5 77.2,96.291 77.2,93.577 L77.2,48.324 C77.2,45.609 74.705,43.401 71.637,43.401 z M52.7,4.643 C53.809,4.643 54.712,5.441 54.712,6.423 C54.712,7.405 53.809,8.204 52.7,8.204 C51.591,8.204 50.688,7.405 50.688,6.423 C50.688,5.441 51.591,4.643 52.7,4.643 z M52.243,38.247 C52.254,38.198 52.303,38.163 52.359,38.163 L53.041,38.163 C53.097,38.163 53.146,38.198 53.157,38.247 L54.322,43.401 L51.078,43.401 L52.243,38.247 z M73.649,93.577 C73.649,94.559 72.747,95.357 71.637,95.357 L33.763,95.357 C32.653,95.357 31.751,94.559 31.751,93.577 L31.751,48.324 C31.751,47.342 32.653,46.543 33.763,46.543 L71.637,46.543 C72.747,46.543 73.649,47.342 73.649,48.324 L73.649,93.577 z" fill="#231123"/>
    <path d="M52.7,63.513 C47.544,63.513 43.35,67.225 43.35,71.788 C43.35,76.351 47.544,80.064 52.7,80.064 C57.856,80.064 62.05,76.351 62.05,71.788 C62.05,67.225 57.856,63.513 52.7,63.513 z M52.7,76.921 C49.502,76.921 46.9,74.619 46.9,71.788 C46.9,68.958 49.502,66.656 52.7,66.656 C55.898,66.656 58.5,68.958 58.5,71.788 C58.5,74.619 55.898,76.921 52.7,76.921 z" fill="#231123"/>
  </g>
</svg>
