<?xml version="1.0" encoding="UTF-8"?>
<!DOCTYPE svg PUBLIC "-//W3C//DTD SVG 1.1//EN" "http://www.w3.org/Graphics/SVG/1.1/DTD/svg11.dtd">
<svg version="1.1" xmlns="http://www.w3.org/2000/svg" xmlns:xlink="http://www.w3.org/1999/xlink" x="0" y="0" width="300" height="300" viewBox="0, 0, 300, 300">
  <g id="Capa_1">
    <path d="M0,0 L300,0 L300,300 L0,300 L0,0 z" fill="#172A3A"/>
    <path d="M274.044,39.997 L37.953,39.997 C36.045,39.997 34.498,41.419 34.498,43.174 L34.498,164.715 C34.498,166.47 36.045,167.892 37.953,167.892 L132.952,167.892 C138.066,173.57 144.297,177.579 151.568,179.836 C158.267,181.915 165.839,182.443 173.681,181.402 L173.681,243.573 C173.681,245.328 175.228,246.75 177.136,246.75 L260.437,246.75 C262.345,246.75 263.892,245.328 263.892,243.573 L263.892,178.512 C263.892,174.791 263.197,171.218 261.927,167.892 L274.045,167.892 C275.953,167.892 277.5,166.469 277.5,164.714 L277.5,43.174 C277.499,41.419 275.952,39.997 274.044,39.997 z M256.981,240.396 L245.263,240.396 L245.263,196.071 C245.263,194.317 243.716,192.894 241.808,192.894 C239.9,192.894 238.353,194.317 238.353,196.071 L238.353,240.396 L180.591,240.396 L180.591,177.596 C180.591,176.634 180.117,175.724 179.301,175.121 C178.485,174.517 177.416,174.287 176.395,174.494 C165.69,176.655 145.923,177.37 133.803,157.867 C128.917,150.006 126.86,135.159 131.581,125.585 C133.002,122.703 136.08,120.258 139.754,121.294 C143.135,122.248 145.043,125.554 144.006,128.665 C141.957,134.805 142.588,141.334 145.78,147.048 C152.12,158.395 171.836,164.315 196.176,153.381 C200.935,155.828 206.412,157.229 212.24,157.229 C218.584,157.229 224.512,155.572 229.548,152.711 C244.733,153.027 256.981,164.475 256.981,178.513 L256.981,240.396 z M186.123,126.859 C186.123,113.618 197.839,102.846 212.24,102.846 C226.642,102.846 238.358,113.618 238.358,126.859 C238.358,140.101 226.642,150.874 212.24,150.874 C197.839,150.874 186.123,140.101 186.123,126.859 z M270.589,161.538 L258.608,161.538 C253.76,154.395 245.95,149.118 236.769,147.17 C242.048,141.785 245.268,134.663 245.268,126.859 C245.268,110.115 230.452,96.492 212.24,96.492 C194.029,96.492 179.213,110.115 179.213,126.859 C179.213,135.623 183.275,143.526 189.754,149.074 C171.579,156.049 156.536,152.395 151.926,144.144 C149.561,139.911 149.094,135.075 150.612,130.527 C152.766,124.068 148.804,117.2 141.779,115.219 C135.229,113.372 128.447,116.556 125.288,122.961 C119.512,134.674 122.096,151.835 127.803,161.019 C127.913,161.196 128.028,161.364 128.14,161.538 L41.408,161.538 L41.408,46.351 L270.589,46.351 L270.589,161.538 z" fill="#B3BFB8"/>
    <path d="M227.565,220.168 L217.262,179.884 L226.081,167.725 C227.14,166.265 226.712,164.293 225.124,163.319 C223.537,162.346 221.392,162.74 220.333,164.2 L213.221,174.004 L206.11,164.2 C205.051,162.74 202.907,162.346 201.318,163.319 C199.731,164.293 199.302,166.265 200.361,167.725 L209.254,179.985 L199.474,220.202 C199.252,221.118 199.481,222.079 200.101,222.825 L210.568,235.414 C211.214,236.192 212.157,236.652 213.221,236.662 C214.274,236.662 215.36,236.221 216.016,235.463 L226.905,222.873 C227.564,222.111 227.807,221.115 227.565,220.168 z M213.222,228.319 L206.57,220.143 L213.222,192.287 L220.456,220.123 L213.222,228.319 z" fill="#B3BFB8"/>
    <path d="M116.906,92.047 C116.252,92.047 115.672,91.453 115.672,92.156 L115.699,107.33 C115.699,109.438 114.106,111.154 112.149,111.154 L71.917,111.154 C69.96,111.154 68.367,109.438 68.367,107.33 L68.359,91.703 C68.359,91 67.92,92.375 67.266,92.375 C66.611,92.375 65.969,92.375 65.969,93.078 L66.001,107.33 C66.001,110.844 68.655,113.704 71.917,113.704 L112.149,113.704 C115.411,113.704 118.065,110.844 118.065,107.33 L118.156,93.281 C118.156,92.578 117.561,92.047 116.906,92.047 z" fill="#B3BFB8"/>
    <path d="M68.367,92.033 L68.367,79.286 C68.367,77.178 69.96,75.462 71.917,75.462 L81.383,75.462 C82.038,75.462 82.567,74.891 82.567,74.187 C82.567,69.163 87.656,65.264 92.033,65.264 C95.112,65.264 98.372,67.096 100.148,69.823 C100.523,70.398 101.26,70.539 101.796,70.135 C102.331,69.73 102.461,68.936 102.085,68.359 C100.081,65.28 96.693,63.194 93.216,62.798 L93.216,59.931 C94.59,59.402 95.583,58.001 95.583,56.341 C95.583,54.233 93.99,52.517 92.033,52.517 C90.076,52.517 88.483,54.233 88.483,56.341 C88.483,58.001 89.476,59.402 90.85,59.929 L90.85,62.794 C85.974,63.375 80.966,67.44 80.28,72.912 L71.917,72.912 C68.655,72.912 66.001,75.772 66.001,79.286 L65.998,90.758 L63.414,90.758 C62.923,89.277 61.623,88.209 60.082,88.209 C58.125,88.209 56.532,89.925 56.532,92.033 C56.532,94.142 58.125,95.857 60.082,95.857 C61.623,95.857 62.923,94.789 63.414,93.308 L67.184,93.308 C67.838,93.308 68.367,92.737 68.367,92.033 z M92.033,55.066 C92.686,55.066 93.216,55.639 93.216,56.341 C93.216,57.044 92.686,57.616 92.033,57.616 C91.38,57.616 90.85,57.044 90.85,56.341 C90.85,55.639 91.38,55.066 92.033,55.066 z M60.082,93.308 C59.429,93.308 58.899,92.736 58.899,92.033 C58.899,91.331 59.429,90.759 60.082,90.759 C60.735,90.759 61.265,91.331 61.265,92.033 C61.265,92.736 60.735,93.308 60.082,93.308 z" fill="#B3BFB8"/>
    <path d="M123.982,88.209 C122.441,88.209 121.141,89.277 120.651,90.759 L118.065,90.759 L118.065,79.286 C118.065,75.772 115.411,72.913 112.149,72.913 L81.812,72.906 C81.158,72.906 81.281,73.421 81.281,74.125 C81.281,74.829 80.729,75.462 81.383,75.462 L112.149,75.462 C114.106,75.462 115.698,77.178 115.698,79.286 L115.698,92.033 C115.698,92.737 116.227,93.308 116.882,93.308 L120.651,93.308 C121.14,94.789 122.441,95.857 123.981,95.857 C125.939,95.857 127.531,94.142 127.531,92.033 C127.531,89.925 125.939,88.209 123.982,88.209 z M123.982,93.308 C123.328,93.308 122.798,92.736 122.798,92.033 C122.798,91.331 123.328,90.759 123.982,90.759 C124.635,90.759 125.165,91.331 125.165,92.033 C125.165,92.736 124.635,93.308 123.982,93.308 z" fill="#B3BFB8"/>
    <path d="M102.683,116.253 L81.383,116.253 C80.729,116.253 80.2,116.824 80.2,117.528 C80.2,118.231 80.729,118.802 81.383,118.802 L102.683,118.802 C103.337,118.802 103.866,118.231 103.866,117.528 C103.866,116.824 103.337,116.253 102.683,116.253 z" fill="#B3BFB8"/>
    <path d="M108.599,86.934 C108.599,84.826 107.006,83.11 105.049,83.11 C103.092,83.11 101.499,84.826 101.499,86.934 C101.499,89.043 103.092,90.759 105.049,90.759 C107.006,90.759 108.599,89.043 108.599,86.934 z M103.866,86.934 C103.866,86.232 104.396,85.66 105.049,85.66 C105.702,85.66 106.232,86.232 106.232,86.934 C106.232,87.637 105.702,88.209 105.049,88.209 C104.396,88.209 103.866,87.637 103.866,86.934 z" fill="#B3BFB8"/>
    <path d="M82.567,86.934 C82.567,84.826 80.974,83.11 79.017,83.11 C77.06,83.11 75.467,84.826 75.467,86.934 C75.467,89.043 77.06,90.759 79.017,90.759 C80.974,90.759 82.567,89.043 82.567,86.934 z M79.017,88.209 C78.364,88.209 77.834,87.637 77.834,86.934 C77.834,86.232 78.364,85.66 79.017,85.66 C79.67,85.66 80.2,86.232 80.2,86.934 C80.2,87.637 79.67,88.209 79.017,88.209 z" fill="#B3BFB8"/>
    <path d="M100.316,126.451 L83.75,126.451 C83.096,126.451 82.567,127.022 82.567,127.725 C82.567,128.429 83.096,129 83.75,129 L100.316,129 C100.97,129 101.499,128.429 101.499,127.725 C101.499,127.022 100.97,126.451 100.316,126.451 z" fill="#B3BFB8"/>
    <path d="M80.2,99.682 L80.2,104.78 C80.2,105.484 80.729,106.055 81.383,106.055 L102.683,106.055 C103.337,106.055 103.866,105.484 103.866,104.78 L103.866,99.682 C103.866,98.978 103.337,98.407 102.683,98.407 L81.383,98.407 C80.729,98.407 80.2,98.978 80.2,99.682 z M96.766,100.956 L101.499,100.956 L101.499,103.506 L96.766,103.506 L96.766,100.956 z M89.666,100.956 L94.399,100.956 L94.399,103.506 L89.666,103.506 L89.666,100.956 z M82.567,100.956 L87.3,100.956 L87.3,103.506 L82.567,103.506 L82.567,100.956 z" fill="#B3BFB8"/>
    <path d="M100.316,121.352 L83.75,121.352 C83.096,121.352 82.567,121.923 82.567,122.627 C82.567,123.33 83.096,123.901 83.75,123.901 L100.316,123.901 C100.97,123.901 101.499,123.33 101.499,122.627 C101.499,121.923 100.97,121.352 100.316,121.352 z" fill="#B3BFB8"/>
  </g>
</svg>
