<?xml version="1.0" encoding="UTF-8"?>
<!DOCTYPE svg PUBLIC "-//W3C//DTD SVG 1.1//EN" "http://www.w3.org/Graphics/SVG/1.1/DTD/svg11.dtd">
<svg version="1.1" xmlns="http://www.w3.org/2000/svg" xmlns:xlink="http://www.w3.org/1999/xlink" x="0" y="0" width="100" height="100" viewBox="0, 0, 100, 100">
  <g id="Capa_1">
    <g id="cloud-storage">
      <path d="M14.413,66.972 L16.462,66.972 L16.462,74.974 L14.413,74.974 z" fill="#231123"/>
      <path d="M19.54,66.972 L21.59,66.972 L21.59,74.974 L19.54,74.974 z" fill="#231123"/>
      <path d="M75.758,71.607 C75.758,73.085 74.572,74.283 73.11,74.283 C71.648,74.283 70.462,73.085 70.462,71.607 C70.462,70.129 71.648,68.931 73.11,68.931 C74.572,68.931 75.758,70.129 75.758,71.607 z" fill="#231123"/>
      <path d="M89.023,16.484 L88.949,16.469 L88.914,16.404 C86.971,12.896 83.472,10.803 79.559,10.803 C78.982,10.803 78.396,10.849 77.815,10.943 L77.697,10.96 L77.645,10.854 C75.818,6.978 72.039,4.571 67.785,4.571 C61.755,4.571 56.844,9.535 56.844,15.63 C56.844,15.878 56.859,16.14 56.88,16.406 L56.891,16.545 L56.76,16.578 C53.323,17.367 50.532,19.724 49.002,22.774 L11.464,22.774 L1.5,63.691 L1.5,79.571 L82.312,79.571 L82.312,63.613 L77.724,39.741 L86.89,39.741 C93.293,39.741 98.5,34.478 98.5,28.009 C98.5,22.363 94.512,17.515 89.023,16.484 z M80.261,77.498 L3.551,77.498 L3.551,64.851 L80.263,64.851 L80.263,77.498 L80.261,77.498 z M80.063,62.776 L3.834,62.776 L13.068,24.845 L48.208,24.845 C47.919,25.863 47.725,26.914 47.725,28.007 C47.725,34.476 52.934,39.739 59.335,39.739 L75.631,39.739 L80.063,62.776 z M86.89,38.094 L59.335,38.094 C53.827,38.094 49.354,33.57 49.354,28.008 C49.354,23.026 53.03,18.739 57.907,18.034 C58.123,18.001 58.32,17.882 58.448,17.708 C58.574,17.531 58.63,17.309 58.597,17.091 C58.512,16.554 58.472,16.077 58.472,15.633 C58.472,10.439 62.65,6.217 67.783,6.217 C71.638,6.217 75.04,8.566 76.45,12.203 C76.597,12.578 76.997,12.795 77.389,12.701 C78.108,12.536 78.836,12.449 79.551,12.449 C82.994,12.449 86.117,14.419 87.692,17.59 C87.811,17.828 88.038,17.996 88.304,18.037 C93.188,18.735 96.872,23.026 96.872,28.011 C96.874,33.57 92.394,38.094 86.89,38.094 z" fill="#231123"/>
    </g>
  </g>
</svg>
