<?xml version="1.0" encoding="UTF-8"?>
<!DOCTYPE svg PUBLIC "-//W3C//DTD SVG 1.1//EN" "http://www.w3.org/Graphics/SVG/1.1/DTD/svg11.dtd">
<svg version="1.1" xmlns="http://www.w3.org/2000/svg" xmlns:xlink="http://www.w3.org/1999/xlink" x="0" y="0" width="300" height="300" viewBox="0, 0, 300, 300">
  <g id="Capa_1">
    <path d="M0,0 L300,0 L300,300 L0,300 L0,0 z" fill="#28464B"/>
    <path d="M138.15,192.832 C138.15,192.785 138.147,192.739 138.142,192.693 C138.142,192.688 138.141,192.683 138.14,192.677 C138.135,192.636 138.129,192.595 138.12,192.555 C138.119,192.553 135.343,180.105 135.343,180.105 C135.206,179.489 134.64,179.05 133.985,179.05 L55.315,179.05 C54.66,179.05 54.095,179.489 53.958,180.104 L51.181,192.553 C51.172,192.595 51.165,192.636 51.16,192.677 C51.16,192.682 51.158,192.688 51.158,192.693 C51.153,192.739 51.15,192.785 51.15,192.832 C51.15,195.624 52.195,198.185 53.927,200.175 L53.927,261.3 C53.927,262.036 54.548,262.633 55.315,262.633 L133.985,262.633 C134.752,262.633 135.373,262.036 135.373,261.3 L135.373,200.175 C137.105,198.185 138.15,195.624 138.15,192.832 z M132.597,247.517 L85.51,247.517 L85.51,204.212 C89.475,203.768 92.852,201.446 94.65,198.197 C96.654,201.819 100.621,204.291 105.178,204.291 C109.735,204.291 113.702,201.82 115.706,198.197 C117.71,201.819 121.677,204.291 126.234,204.291 C128.573,204.291 130.754,203.637 132.597,202.513 L132.597,247.517 z M84.122,201.624 C79.554,201.624 75.758,198.383 75.088,194.166 L93.157,194.166 C92.487,198.383 88.691,201.624 84.122,201.624 z M54.034,194.166 L72.101,194.166 C71.431,198.383 67.635,201.624 63.066,201.624 C58.498,201.624 54.704,198.383 54.034,194.166 z M56.703,202.513 C58.546,203.637 60.727,204.291 63.066,204.291 C67.623,204.291 71.59,201.82 73.594,198.197 C75.392,201.446 78.769,203.768 82.734,204.212 L82.734,214.072 L56.703,214.072 L56.703,202.513 z M126.234,201.624 C121.665,201.624 117.869,198.383 117.199,194.166 L135.266,194.166 C134.596,198.383 130.802,201.624 126.234,201.624 z M56.437,181.718 L132.863,181.718 L135.044,191.499 L115.706,191.499 C114.939,191.499 114.318,192.096 114.318,192.832 C114.318,197.68 110.218,201.624 105.178,201.624 C100.61,201.624 96.814,198.383 96.143,194.166 L117.181,194.113 C117.948,194.113 116.119,193.662 116.119,192.925 C116.119,192.188 116.448,191.488 115.681,191.488 L54.256,191.499 L56.437,181.718 z M56.703,216.74 L82.734,216.74 L82.734,259.966 L56.703,259.966 L56.703,216.74 z M85.51,259.966 L85.51,250.185 L132.597,250.185 L132.597,259.966 L85.51,259.966 z" fill="#FFF8F0"/>
    <path d="M244.065,46.882 C242.97,32.905 227.555,21.733 208.969,21.733 C197.687,21.733 186.762,25.869 179.992,32.616 C179.839,32.556 179.674,32.515 179.519,32.458 C179.107,32.309 178.69,32.166 178.262,32.04 C178.023,31.97 177.784,31.907 177.543,31.843 C177.123,31.733 176.699,31.636 176.265,31.548 C176.024,31.5 175.785,31.45 175.54,31.408 C175.074,31.329 174.6,31.268 174.12,31.216 C173.909,31.192 173.701,31.161 173.487,31.143 C172.801,31.087 172.103,31.051 171.394,31.051 C161.085,31.051 152.694,37.32 152.694,45.027 C152.694,45.228 152.709,45.423 152.728,45.619 C144.086,49.14 138.15,56.518 138.15,63.902 C138.15,74.901 150.122,83.851 164.839,83.851 L175.55,83.851 C176.697,83.851 177.628,83.157 177.628,82.298 C177.628,81.439 176.697,80.745 175.55,80.745 L164.839,80.745 C152.414,80.745 142.306,73.19 142.306,63.902 C142.306,57.451 147.926,50.755 155.67,47.98 L156.85,47.559 L156.85,46.58 C156.85,46.389 156.867,46.194 156.881,45.998 L156.9,45.726 L156.875,45.434 C156.865,45.299 156.85,45.164 156.85,45.027 C156.85,39.035 163.374,34.157 171.394,34.157 C172.036,34.157 172.67,34.199 173.3,34.261 C173.462,34.276 173.622,34.297 173.782,34.317 C174.339,34.385 174.887,34.475 175.427,34.592 C175.498,34.607 175.571,34.617 175.639,34.632 C176.234,34.767 176.813,34.94 177.381,35.132 C177.524,35.18 177.665,35.233 177.806,35.286 C178.309,35.471 178.802,35.676 179.275,35.905 C183.279,37.845 185.939,41.206 185.939,45.027 C185.939,45.886 186.87,46.58 188.017,46.58 C189.164,46.58 190.094,45.886 190.094,45.027 C190.094,40.751 187.506,36.923 183.446,34.357 C189.4,28.534 199.212,24.839 208.969,24.839 C225.059,24.839 238.428,34.366 239.82,46.405 C237.696,46.293 234.515,46.236 231.336,46.599 C230.202,46.728 229.423,47.52 229.595,48.368 C229.751,49.137 230.636,49.688 231.646,49.688 C231.75,49.688 231.856,49.682 231.962,49.669 C236.583,49.147 241.401,49.637 241.694,49.666 C251.368,51.04 258.661,57.701 258.661,65.172 C258.661,73.758 249.313,80.745 237.825,80.745 L229.572,80.745 C228.425,80.745 227.494,81.439 227.494,82.298 C227.494,83.157 228.425,83.851 229.572,83.851 L237.825,83.851 C251.605,83.851 262.817,75.471 262.817,65.172 C262.817,56.648 254.865,49.003 244.065,46.882 z" fill="#FFF8F0"/>
    <path d="M204.032,62.566 C203.841,62.422 203.61,62.309 203.355,62.229 C202.848,62.073 202.274,62.073 201.767,62.229 C201.512,62.309 201.283,62.422 201.09,62.566 L184.47,74.988 C183.658,75.596 183.658,76.577 184.47,77.184 C184.875,77.487 185.407,77.639 185.939,77.639 C186.471,77.639 187.003,77.487 187.408,77.184 L200.483,67.412 L204.639,67.412 L217.714,77.184 C218.12,77.487 218.651,77.639 219.183,77.639 C219.715,77.639 220.247,77.487 220.652,77.184 C221.465,76.577 221.465,75.596 220.652,74.988 L204.032,62.566 z" fill="#FFF8F0"/>
    <path d="M202.906,237.75 L203.031,67.219" fill-opacity="0" stroke="#FFF8F0" stroke-width="4"/>
    <path d="M204.906,236.359 L135.141,236.406" fill-opacity="0" stroke="#FFF8F0" stroke-width="4"/>
  </g>
</svg>
