<?xml version="1.0" encoding="UTF-8"?>
<!DOCTYPE svg PUBLIC "-//W3C//DTD SVG 1.1//EN" "http://www.w3.org/Graphics/SVG/1.1/DTD/svg11.dtd">
<svg version="1.1" xmlns="http://www.w3.org/2000/svg" xmlns:xlink="http://www.w3.org/1999/xlink" x="0" y="0" width="530" height="530" viewBox="0, 0, 530, 530">
  <g id="Capa_1">
    <path d="M265.001,521 C406.389,521 520.996,406.384 520.996,264.995 C520.996,123.617 406.388,9 265.001,9 C123.613,9 9.004,123.617 9.004,264.995 C9.004,406.384 123.612,521 265.001,521 z M311.666,136.506 C324.556,136.506 335.005,146.955 335.005,159.844 C335.005,172.734 324.556,183.183 311.666,183.183 C298.777,183.183 288.328,172.734 288.328,159.844 C288.339,146.945 298.777,136.506 311.666,136.506 z M288.339,231.258 C301.229,231.258 311.677,241.706 311.677,254.596 C311.677,267.486 301.229,277.934 288.339,277.934 C275.449,277.924 265.001,267.486 265.001,254.596 C265.001,241.706 275.449,231.258 288.339,231.258 z" fill-opacity="0" stroke="#FFBA08" stroke-width="15"/>
  </g>
</svg>
