<?xml version="1.0" encoding="UTF-8"?>
<!DOCTYPE svg PUBLIC "-//W3C//DTD SVG 1.1//EN" "http://www.w3.org/Graphics/SVG/1.1/DTD/svg11.dtd">
<svg version="1.1" xmlns="http://www.w3.org/2000/svg" xmlns:xlink="http://www.w3.org/1999/xlink" x="0" y="0" width="512" height="512" viewBox="0, 0, 512, 512">
  <g id="Capa_1">
    <path d="M65.046,159.641 L183.525,174.873 C187.659,185.371 208.493,237.049 212.41,246.297 C212.41,246.297 212.41,246.297 212.356,246.297 C178.031,263.269 143.705,280.187 109.38,297.159 C121.294,294.983 133.37,293.895 145.501,293.895 C161.385,293.895 176.943,295.799 191.793,299.553 C221.766,307.168 248.856,319.353 275.022,331.158 C298.359,341.656 320.444,351.612 342.475,357.324 C345.576,358.14 348.568,358.847 351.56,359.445 C325.449,305.971 255.221,161.872 241.35,130.158 C234.822,115.198 225.846,109.65 213.118,108.018 L73.968,90.121 C54.766,87.673 37.195,101.218 34.693,120.42 C32.299,139.623 45.844,157.193 65.046,159.641 z" fill-opacity="0" stroke="#FFBA08" stroke-width="15"/>
    <path d="M9.071,416.545 C12.933,419.319 17.339,420.625 21.745,420.625 C22.725,420.625 23.649,420.57 24.574,420.407 C30.34,419.646 35.78,416.599 39.425,411.54 C53.514,391.902 75.327,376.454 100.731,367.967 C115.31,363.126 130.541,360.678 145.501,360.678 C199.735,360.678 246.245,393.099 295.203,411.757 C321.423,421.767 348.785,429.165 378.54,429.165 C391.052,429.165 403.999,427.86 417.435,424.868 C449.04,417.905 476.13,402.891 495.713,381.839 C500.391,376.78 504.634,371.449 508.388,365.737 C515.024,355.728 512.25,342.237 502.241,335.6 C498.542,333.153 494.408,332.01 490.273,332.01 C483.202,332.01 476.293,335.437 472.105,341.747 C470.418,344.304 468.569,346.751 466.556,349.146 C452.957,365.356 432.557,376.997 408.078,382.383 C385.503,387.333 360.589,385.864 338.341,380.098 C314.95,374.006 292.32,363.833 268.276,353.008 C242.709,341.53 216.326,329.617 187.713,322.328 C174.114,318.846 159.862,317.16 145.446,317.16 C125.809,317.16 105.845,320.369 86.86,326.68 C70.268,332.228 54.874,339.952 41.057,349.69 C26.478,359.971 14.021,372.211 4.012,386.137 C3.359,387.061 2.815,387.986 2.325,388.965 C-2.407,398.376 0.204,410.18 9.071,416.545 z" fill-opacity="0" stroke="#FFBA08" stroke-width="15"/>
    <path d="M479.775,231.827 C479.775,274.217 445.41,308.582 403.019,308.582 C360.629,308.582 326.264,274.217 326.264,231.827 C326.264,189.436 360.629,155.071 403.019,155.071 C445.41,155.071 479.775,189.436 479.775,231.827 z" fill-opacity="0" stroke="#FFBA08" stroke-width="15"/>
  </g>
</svg>
