<?xml version="1.0" encoding="UTF-8"?>
<!DOCTYPE svg PUBLIC "-//W3C//DTD SVG 1.1//EN" "http://www.w3.org/Graphics/SVG/1.1/DTD/svg11.dtd">
<svg version="1.1" xmlns="http://www.w3.org/2000/svg" xmlns:xlink="http://www.w3.org/1999/xlink" x="0" y="0" width="288" height="432" viewBox="0, 0, 288, 432">
  <g id="Capa_2">
    <g>
      <g>
        <path d="M53.636,123.987 C53.636,123.987 66.102,107.894 76.528,99.848 C86.955,91.801 188.044,86.772 206.63,95.07 C225.216,103.368 255.815,176.79 248.335,198.666 C240.856,220.542 249.469,227.08 249.242,254.488 C249.242,254.488 249.242,254.488 249.242,254.488 C249.242,254.488 249.242,254.488 249.242,254.488 C249.015,281.895 263.732,219.239 263.989,231.323 C264.325,247.156 262.161,239.904 261.255,256.751 C260.348,273.598 264.201,273.598 262.161,286.673 C260.121,299.748 258.082,307.292 249.695,313.326 C241.309,319.361 259.215,342.746 214.337,384.486 C169.458,426.226 138.633,418.683 138.633,418.683 C138.633,418.683 91.488,411.642 74.488,389.515 C57.489,367.387 36.863,354.312 34.596,301.508 C32.33,248.704 42.983,247.447 38.45,217.776 C33.917,188.106 53.636,123.987 53.636,123.987 z" fill="#A57257"/>
        <path d="M53.636,123.987 C53.636,123.987 66.102,107.894 76.528,99.848 C86.955,91.801 188.044,86.772 206.63,95.07 C225.216,103.368 255.815,176.79 248.335,198.666 C240.856,220.542 249.469,227.08 249.242,254.488 C249.242,254.488 249.242,254.488 249.242,254.488 C249.242,254.488 249.242,254.488 249.242,254.488 C249.015,281.895 263.732,219.239 263.989,231.323 C264.325,247.156 262.161,239.904 261.255,256.751 C260.348,273.598 264.201,273.598 262.161,286.673 C260.121,299.748 258.082,307.292 249.695,313.326 C241.309,319.361 259.215,342.746 214.337,384.486 C169.458,426.226 138.633,418.683 138.633,418.683 C138.633,418.683 91.488,411.642 74.488,389.515 C57.489,367.387 36.863,354.312 34.596,301.508 C32.33,248.704 42.983,247.447 38.45,217.776 C33.917,188.106 53.636,123.987 53.636,123.987 z" fill-opacity="0" stroke="#A57257" stroke-width="1.8"/>
      </g>
      <g>
        <path d="M34.049,302.074 C34.331,302.255 25.983,294.531 24.284,286.673 C22.584,278.815 20.884,232.926 23.434,222.868 C25.983,212.81 19.467,216.582 24,211.553 C28.533,206.524 39.3,227.268 39.3,227.268 C39.3,227.268 29.649,299.245 34.049,302.074 z" fill="#A57257"/>
        <path d="M34.049,302.074 C34.331,302.255 25.983,294.531 24.284,286.673 C22.584,278.815 20.884,232.926 23.434,222.868 C25.983,212.81 19.467,216.582 24,211.553 C28.533,206.524 39.3,227.268 39.3,227.268 C39.3,227.268 29.649,299.245 34.049,302.074 z" fill-opacity="0" stroke="#A57257" stroke-width="1.8"/>
      </g>
      <g>
        <path d="M53.636,123.987 C53.636,123.987 66.782,104.36 77.888,97.585 C88.994,90.809 179.658,87.024 199.15,92.053 C218.643,97.082 224.309,111.666 239.722,146.868 C255.135,182.071 250.375,199.641 247.202,205.204 C244.029,210.767 248.562,238.898 249.695,245.436 C250.828,251.973 247.429,276.112 256.722,246.19 C266.015,216.268 264.024,228.337 264.024,228.589 C264.024,228.84 268.961,202.941 268.961,202.941 C268.961,202.941 274.628,138.068 268.281,132.787 C261.935,127.507 268.281,119.963 252.868,94.316 C237.456,68.668 239.496,44.529 239.496,44.529 C239.496,44.529 216.83,22.15 175.351,16.619 C133.873,11.087 138.633,15.361 138.633,15.361 L137.273,21.145 C137.273,21.145 128.66,26.928 120.953,24.916 C113.247,22.905 118.233,30.951 118.233,30.951 C118.233,30.951 103.954,30.951 91.714,39.249 C79.475,47.547 84.461,52.324 84.461,52.324 C84.461,52.324 81.061,64.142 70.182,63.388 C59.302,62.633 48.423,93.31 48.423,93.31 C48.423,93.31 32.585,106.228 31.593,114.714 C30.602,123.201 24.369,119.743 23.802,138.759 C23.235,157.775 21.535,157.618 21.535,157.618 L19.977,164.061 L17.71,168.304 L19.269,172.862 L18.844,187.477 L20.969,212.936 L25.643,209.164 C25.643,209.164 29.185,208.379 36.976,220.165 C44.768,231.952 25.388,207.907 53.636,123.987 z" fill="#0F0C20"/>
        <path d="M53.636,123.987 C53.636,123.987 66.782,104.36 77.888,97.585 C88.994,90.809 179.658,87.024 199.15,92.053 C218.643,97.082 224.309,111.666 239.722,146.868 C255.135,182.071 250.375,199.641 247.202,205.204 C244.029,210.767 248.562,238.898 249.695,245.436 C250.828,251.973 247.429,276.112 256.722,246.19 C266.015,216.268 264.024,228.337 264.024,228.589 C264.024,228.84 268.961,202.941 268.961,202.941 C268.961,202.941 274.628,138.068 268.281,132.787 C261.935,127.507 268.281,119.963 252.868,94.316 C237.456,68.668 239.496,44.529 239.496,44.529 C239.496,44.529 216.83,22.15 175.351,16.619 C133.873,11.087 138.633,15.361 138.633,15.361 L137.273,21.145 C137.273,21.145 128.66,26.928 120.953,24.916 C113.247,22.905 118.233,30.951 118.233,30.951 C118.233,30.951 103.954,30.951 91.714,39.249 C79.475,47.547 84.461,52.324 84.461,52.324 C84.461,52.324 81.061,64.142 70.182,63.388 C59.302,62.633 48.423,93.31 48.423,93.31 C48.423,93.31 32.585,106.228 31.593,114.714 C30.602,123.201 24.369,119.743 23.802,138.759 C23.235,157.775 21.535,157.618 21.535,157.618 L19.977,164.061 L17.71,168.304 L19.269,172.862 L18.844,187.477 L20.969,212.936 L25.643,209.164 C25.643,209.164 29.185,208.379 36.976,220.165 C44.768,231.952 25.388,207.907 53.636,123.987 z" fill-opacity="0" stroke="#0F0C20" stroke-width="0.9"/>
      </g>
      <g>
        <path d="M39.951,214.508 L40.518,199.735 C40.518,199.735 75.65,195.178 91.799,197.849 C107.949,200.521 124.806,208.379 124.806,208.379 C124.806,208.379 129.198,211.207 131.606,210.579 C134.014,209.95 149.172,208.85 149.597,210.893 C150.022,212.936 160.505,209.793 160.505,209.793 C160.505,209.793 170.28,204.764 181.046,203.035 C191.812,201.307 231.477,203.192 241.394,209.479 C251.31,215.765 252.727,210.579 252.727,210.579 L253.293,218.122 C253.293,218.122 243.094,222.994 241.819,230.223 C240.544,237.452 240.119,224.251 240.119,224.251 C240.119,224.251 238.561,216.236 231.053,212.465 C223.544,208.693 212.92,206.65 212.92,206.65 C212.92,206.65 192.379,205.393 183.454,206.021 C174.53,206.65 161.213,212.465 159.797,214.822 C158.38,217.179 156.964,226.766 156.964,226.766 L157.389,230.223 L155.264,226.451 L150.305,216.708 C150.305,216.708 132.598,214.508 130.898,217.022 C129.198,219.536 126.648,227.08 126.648,227.08 L125.373,229.123 C125.373,229.123 126.365,211.836 117.653,208.457 C108.94,205.078 87.181,198.666 61.342,202.187 C35.503,205.707 55.888,204.292 55.888,204.292 C55.888,204.292 49.797,205.864 48.168,211.364 C46.538,216.865 46.468,222.601 46.468,222.837 C46.468,223.072 44.116,224.063 44.116,224.063 C44.116,224.063 43.719,219.285 39.951,214.508 z" fill="#000000"/>
        <path d="M39.951,214.508 L40.518,199.735 C40.518,199.735 75.65,195.178 91.799,197.849 C107.949,200.521 124.806,208.379 124.806,208.379 C124.806,208.379 129.198,211.207 131.606,210.579 C134.014,209.95 149.172,208.85 149.597,210.893 C150.022,212.936 160.505,209.793 160.505,209.793 C160.505,209.793 170.28,204.764 181.046,203.035 C191.812,201.307 231.477,203.192 241.394,209.479 C251.31,215.765 252.727,210.579 252.727,210.579 L253.293,218.122 C253.293,218.122 243.094,222.994 241.819,230.223 C240.544,237.452 240.119,224.251 240.119,224.251 C240.119,224.251 238.561,216.236 231.053,212.465 C223.544,208.693 212.92,206.65 212.92,206.65 C212.92,206.65 192.379,205.393 183.454,206.021 C174.53,206.65 161.213,212.465 159.797,214.822 C158.38,217.179 156.964,226.766 156.964,226.766 L157.389,230.223 L155.264,226.451 L150.305,216.708 C150.305,216.708 132.598,214.508 130.898,217.022 C129.198,219.536 126.648,227.08 126.648,227.08 L125.373,229.123 C125.373,229.123 126.365,211.836 117.653,208.457 C108.94,205.078 87.181,198.666 61.342,202.187 C35.503,205.707 55.888,204.292 55.888,204.292 C55.888,204.292 49.797,205.864 48.168,211.364 C46.538,216.865 46.468,222.601 46.468,222.837 C46.468,223.072 44.116,224.063 44.116,224.063 C44.116,224.063 43.719,219.285 39.951,214.508 z" fill-opacity="0" stroke="#000000" stroke-width="0.9"/>
      </g>
      <g>
        <path d="M40.518,199.735 L30.885,201.778 L31.452,208.064 L38.676,213.25 L39.951,214.508 L40.518,199.735 z" fill="#000000"/>
        <path d="M40.518,199.735 L30.885,201.778 L31.452,208.064 L38.676,213.25 L39.951,214.508 L40.518,199.735 z" fill-opacity="0" stroke="#000000" stroke-width="0.9"/>
      </g>
      <g>
        <path d="M82.535,264.294 C62.318,264.294 44.343,249.746 44.343,232.387 C44.343,226.498 45.594,219.219 48.876,214.508 C51.157,211.234 50.689,205.707 55.888,204.292 C63.006,202.356 73.944,201.236 82.535,201.432 C93.528,201.684 89.448,201.181 107.58,205.204 C107.59,205.206 119.813,211.231 119.82,211.239 C124.22,216.426 123.9,227.714 123.9,234.623 C123.9,251.982 102.751,264.294 82.535,264.294 z" fill="#141414" fill-opacity="0.3"/>
        <path d="M82.535,264.294 C62.318,264.294 44.343,249.746 44.343,232.387 C44.343,226.498 45.594,219.219 48.876,214.508 C51.157,211.234 50.689,205.707 55.888,204.292 C63.006,202.356 73.944,201.236 82.535,201.432 C93.528,201.684 89.448,201.181 107.58,205.204 C107.59,205.206 119.813,211.231 119.82,211.239 C124.22,216.426 123.9,227.714 123.9,234.623 C123.9,251.982 102.751,264.294 82.535,264.294 z" fill-opacity="0" stroke="#000000" stroke-width="2.7"/>
      </g>
      <g>
        <path d="M201.656,270.329 C221.873,270.329 238.261,256.257 238.261,238.898 C238.261,233.009 239.73,225.254 236.448,220.542 C234.167,217.268 234.495,213.156 229.296,211.742 C222.178,209.805 210.246,207.271 201.656,207.467 C190.663,207.718 197.564,205.707 177.165,207.718 C177.155,207.719 161.079,214.5 161.072,214.508 C156.672,219.695 156.824,225.481 156.992,232.387 C157.672,260.271 180.067,270.832 200.284,270.832 z" fill="#141414" fill-opacity="0.3"/>
        <path d="M201.656,270.329 C221.873,270.329 238.261,256.257 238.261,238.898 C238.261,233.009 239.73,225.254 236.448,220.542 C234.167,217.268 234.495,213.156 229.296,211.742 C222.178,209.805 210.246,207.271 201.656,207.467 C190.663,207.718 197.564,205.707 177.165,207.718 C177.155,207.719 161.079,214.5 161.072,214.508 C156.672,219.695 156.824,225.481 156.992,232.387 C157.672,260.271 180.067,270.832 200.284,270.832 z" fill-opacity="0" stroke="#000000" stroke-width="2.7"/>
      </g>
      <path d="M181.849,276.419 C181.849,276.419 181.849,276.419 181.849,276.419 C181.849,276.419 181.849,276.419 181.849,276.419 C180.291,282.789 177.038,287.611 170.233,287.577 C168.153,287.567 158.037,284.919 156.032,284.905 C150.929,284.871 144.711,292.687 140.2,292.292 C133.763,291.728 129.36,282.892 124.334,282.789 C122.745,282.757 112.721,286.984 111.301,286.948 C101.86,286.715 102.943,275.315 102.943,275.005" fill-opacity="0" stroke="#965041" stroke-width="0.9"/>
      <g>
        <path d="M96.219,329.691 C96.219,329.691 133.375,365.645 189.788,336.159" fill="#955251"/>
        <path d="M96.219,329.691 C96.219,329.691 133.375,365.645 189.788,336.159" fill-opacity="0" stroke="#955251" stroke-width="0.9"/>
      </g>
      <g>
        <path d="M189.788,336.159 C189.788,336.159 191.958,332.248 187.212,329.691 C182.465,327.133 177.584,320.363 164.972,316.302 C152.361,312.24 145.716,314.797 145.716,314.797 L143.953,316.452 L141.919,315.549 C141.919,315.549 129.172,310.886 120.764,312.992 C112.356,315.098 96.219,326.23 96.219,326.381 C96.219,326.531 92.286,327.735 96.219,329.691" fill="#955251"/>
        <path d="M189.788,336.159 C189.788,336.159 191.958,332.248 187.212,329.691 C182.465,327.133 177.584,320.363 164.972,316.302 C152.361,312.24 145.716,314.797 145.716,314.797 L143.953,316.452 L141.919,315.549 C141.919,315.549 129.172,310.886 120.764,312.992 C112.356,315.098 96.219,326.23 96.219,326.381 C96.219,326.531 92.286,327.735 96.219,329.691" fill-opacity="0" stroke="#955251" stroke-width="0.9"/>
      </g>
      <path d="M95.134,327.885 L189.788,334.053" fill-opacity="0" stroke="#955251" stroke-width="0.9"/>
      <path d="M55.392,194.392 C55.392,190.746 86.067,187.791 123.905,187.791" fill-opacity="0" stroke="#0F0C20" stroke-width="5.4"/>
      <path d="M169.005,191.249 C205.933,191.249 235.869,198.218 235.869,206.815" fill-opacity="0" stroke="#0F0C20" stroke-width="5.4"/>
    </g>
  </g>
</svg>
