<?xml version="1.0" encoding="UTF-8"?>
<!DOCTYPE svg PUBLIC "-//W3C//DTD SVG 1.1//EN" "http://www.w3.org/Graphics/SVG/1.1/DTD/svg11.dtd">
<svg version="1.1" xmlns="http://www.w3.org/2000/svg" xmlns:xlink="http://www.w3.org/1999/xlink" x="0" y="0" width="100" height="100" viewBox="0, 0, 100, 100">
  <g id="Capa_1">
    <path d="M23.298,53.823 L23.298,65.822 L76.702,65.822 L76.702,53.823 L23.298,53.823 z M73.971,62.89 L26.029,62.89 L26.029,56.755 L73.971,56.755 L73.971,62.89 z" fill="#231123"/>
    <path d="M28.88,58.307 L31.611,58.307 L31.611,61.239 L28.88,61.239 z" fill="#231123"/>
    <path d="M34.524,58.307 L37.255,58.307 L37.255,61.239 L34.524,61.239 z" fill="#231123"/>
    <path d="M40.168,58.307 L42.899,58.307 L42.899,61.239 L40.168,61.239 z" fill="#231123"/>
    <path d="M48.543,34.07 L51.274,34.07 L51.274,38.761 L48.543,38.761 z" fill="#231123"/>
    <path d="M56.673,58.307 L59.404,58.307 L59.404,61.239 L56.673,61.239 z" fill="#231123"/>
    <path d="M51.274,58.356 L54.187,58.356 L54.187,61.288 L51.274,61.288 z" fill="#231123"/>
    <path d="M45.63,58.307 L48.543,58.307 L48.543,61.239 L45.63,61.239 z" fill="#231123"/>
    <path d="M5,10 L5,90 L95,90 L95,10 L5,10 z M92.269,87.068 L7.731,87.068 L7.731,12.932 L92.269,12.932 L92.269,16.087 L27.424,16.087 L27.424,19.019 L92.269,19.019 L92.269,87.068 z" fill="#231123"/>
    <path d="M58.375,35.437 L60.537,36.887 L61.984,34.401 L50,26.36 L38.016,34.401 L39.463,36.887 L41.625,35.437 L41.625,46.188 L38.712,46.188 L38.712,49.12 L61.288,49.12 L61.288,46.188 L58.375,46.188 L58.375,35.437 z M55.644,46.188 L51.275,46.188 L51.275,43.257 L48.544,43.257 L48.544,46.188 L44.356,46.188 L44.356,33.605 L50,29.817 L55.644,33.605 L55.644,46.188 z" fill="#231123"/>
    <path d="M29.38,18.05 L7.344,18.062" fill-opacity="0" stroke="#231123" stroke-width="2.9"/>
  </g>
</svg>
