<?xml version="1.0" encoding="UTF-8"?>
<!DOCTYPE svg PUBLIC "-//W3C//DTD SVG 1.1//EN" "http://www.w3.org/Graphics/SVG/1.1/DTD/svg11.dtd">
<svg version="1.1" xmlns="http://www.w3.org/2000/svg" xmlns:xlink="http://www.w3.org/1999/xlink" x="0" y="0" width="566.929" height="566.929" viewBox="0, 0, 566.929, 566.929">
  <defs>
    <clipPath id="Clip_1">
      <path d="M87.015,109.96 L478.955,109.96 L478.955,398.9 L87.015,398.9 z"/>
    </clipPath>
  </defs>
  <g id="Capa_1">
    <path d="M0,0 L566.929,0 L566.929,566.929 L0,566.929 L0,0 z" fill="#014860"/>
    <path d="M133.275,257.48 C133.275,268.128 124.642,276.761 113.994,276.761 C103.345,276.761 94.716,268.128 94.716,257.48 C94.716,246.831 103.345,238.198 113.994,238.198 C124.642,238.198 133.275,246.831 133.275,257.48 z M133.275,257.48" fill="#014860"/>
    <path d="M133.275,143.96 C133.275,154.608 124.642,163.241 113.994,163.241 C103.345,163.241 94.716,154.608 94.716,143.96 C94.716,133.312 103.345,124.679 113.994,124.679 C124.642,124.679 133.275,133.312 133.275,143.96 z M133.275,143.96" fill="#014860"/>
    <path d="M133.275,370.921 C133.275,381.569 124.642,390.198 113.994,390.198 C103.345,390.198 94.716,381.569 94.716,370.921 C94.716,360.272 103.345,351.64 113.994,351.64 C124.642,351.64 133.275,360.272 133.275,370.921 z M133.275,370.921" fill="#014860"/>
    <path d="M471.673,257.48 C471.673,268.128 463.044,276.761 452.396,276.761 C441.747,276.761 433.115,268.128 433.115,257.48 C433.115,246.831 441.747,238.198 452.396,238.198 C463.044,238.198 471.673,246.831 471.673,257.48 z M471.673,257.48" fill="#014860"/>
    <path d="M471.673,370.921 C471.673,381.569 463.044,390.198 452.396,390.198 C441.747,390.198 433.115,381.569 433.115,370.921 C433.115,360.272 441.747,351.64 452.396,351.64 C463.044,351.64 471.673,360.272 471.673,370.921 z M471.673,370.921" fill="#014860"/>
    <path d="M471.673,143.96 C471.673,154.608 463.044,163.241 452.396,163.241 C441.747,163.241 433.115,154.608 433.115,143.96 C433.115,133.312 441.747,124.679 452.396,124.679 C463.044,124.679 471.673,133.312 471.673,143.96 z M471.673,143.96" fill="#014860"/>
    <path d="M342.955,196.198 L340.794,196.198 L340.794,167.562 C340.794,135.8 314.955,109.96 283.197,109.96 C251.435,109.96 225.595,135.8 225.595,167.562 C225.595,171.562 228.876,174.839 232.876,174.839 C236.876,174.839 240.154,171.562 240.154,167.562 C240.154,143.8 259.513,124.44 283.275,124.44 C307.037,124.44 326.396,143.8 326.396,167.562 L326.396,196.198 L223.435,196.198 C213.037,196.198 204.556,204.679 204.556,215.081 L204.556,293.722 C204.556,304.12 213.037,312.601 223.435,312.601 L342.876,312.601 C353.275,312.601 361.755,304.12 361.755,293.722 L361.755,215.081 C361.755,204.679 353.357,196.198 342.955,196.198 z M347.275,293.64 C347.275,296.038 345.357,297.96 342.955,297.96 L223.435,297.96 C221.037,297.96 219.115,296.038 219.115,293.64 L219.115,214.999 C219.115,212.601 221.037,210.679 223.435,210.679 L342.876,210.679 C345.275,210.679 347.197,212.601 347.197,214.999 L347.197,293.64 z M347.275,293.64" fill="#B6B8BA"/>
    <g clip-path="url(#Clip_1)">
      <path d="M285.169,234.92 C279.888,233.877 274.368,236.838 272.13,241.877 C269.809,247.076 271.329,252.92 276.048,256.357 C277.009,257.076 277.169,257.717 277.169,258.76 L277.169,274.279 C277.169,278.518 281.649,281.799 286.208,279.478 C288.13,278.518 289.251,276.439 289.091,274.279 L289.091,258.76 C289.091,257.639 289.329,256.92 290.368,256.197 C293.649,253.799 295.251,250.518 295.251,246.518 C295.091,240.76 291.009,236.037 285.169,234.92 z M285.169,234.92" fill="#B6B8BA"/>
      <path d="M179.275,250.598 L139.033,250.598 C135.834,239.481 125.674,231.321 113.514,231.321 C98.877,231.321 86.955,243.239 86.955,257.88 C86.955,272.52 98.877,284.438 113.514,284.438 C125.596,284.438 135.834,276.282 139.033,265.161 L179.353,265.161 C183.353,265.161 186.635,261.88 186.635,257.88 C186.557,253.88 183.275,250.598 179.275,250.598 z M113.514,269.88 C106.877,269.88 101.514,264.52 101.514,257.88 C101.514,251.239 106.877,245.88 113.514,245.88 C120.154,245.88 125.514,251.239 125.514,257.88 C125.514,264.52 120.154,269.88 113.514,269.88 z M113.514,269.88" fill="#B6B8BA"/>
      <path d="M179.275,207.962 L135.193,207.962 C127.275,207.962 120.795,201.481 120.795,193.559 L120.795,169.88 C131.916,166.68 140.076,156.52 140.076,144.36 C140.076,129.719 128.154,117.801 113.514,117.801 C98.877,117.801 86.955,129.719 86.955,144.36 C86.955,156.438 95.115,166.68 106.236,169.88 L106.236,193.559 C106.236,209.481 119.193,222.438 135.115,222.438 L179.275,222.438 C183.275,222.438 186.557,219.161 186.557,215.161 C186.557,211.161 183.275,207.962 179.275,207.962 z M101.435,144.36 C101.435,137.719 106.795,132.36 113.435,132.36 C120.076,132.36 125.435,137.719 125.435,144.36 C125.435,151.001 120.076,156.36 113.435,156.36 C106.795,156.36 101.435,151.001 101.435,144.36 z M101.435,144.36" fill="#B6B8BA"/>
    </g>
    <path d="M179.737,292.839 L135.655,292.839 C119.737,292.839 106.776,305.8 106.776,321.722 L106.776,345.401 C95.655,348.601 87.495,358.761 87.495,370.921 C87.495,385.562 99.417,397.48 114.058,397.48 C128.698,397.48 140.616,385.562 140.616,370.921 C140.616,358.839 132.456,348.601 121.339,345.401 L121.339,321.722 C121.339,313.8 127.815,307.319 135.737,307.319 L179.897,307.319 C183.897,307.319 187.179,304.038 187.179,300.038 C187.019,296.12 183.737,292.839 179.737,292.839 z M125.976,370.921 C125.976,377.562 120.616,382.921 113.976,382.921 C107.339,382.921 101.976,377.562 101.976,370.921 C101.976,364.28 107.339,358.921 113.976,358.921 C120.616,358.921 125.976,364.28 125.976,370.921 z M125.976,370.921" fill="#B6B8BA"/>
    <path d="M452.396,230.921 C440.314,230.921 430.076,239.081 426.876,250.198 L386.556,250.198 C382.556,250.198 379.275,253.48 379.275,257.48 C379.275,261.48 382.556,264.761 386.556,264.761 L426.876,264.761 C430.076,275.882 440.236,284.038 452.396,284.038 C467.037,284.038 478.955,272.12 478.955,257.48 C478.955,242.839 467.037,230.921 452.396,230.921 z M452.396,269.48 C445.755,269.48 440.396,264.12 440.396,257.48 C440.396,250.839 445.755,245.48 452.396,245.48 C459.037,245.48 464.396,250.839 464.396,257.48 C464.474,264.12 459.037,269.48 452.396,269.48 z M452.396,269.48" fill="#B6B8BA"/>
    <path d="M459.591,345.36 L459.591,321.681 C459.591,305.759 446.634,292.798 430.712,292.798 L386.552,292.798 C382.552,292.798 379.275,296.079 379.275,300.079 C379.275,304.079 382.552,307.36 386.552,307.36 L430.712,307.36 C438.634,307.36 445.115,313.841 445.115,321.759 L445.115,345.439 C433.994,348.638 425.833,358.798 425.833,370.958 C425.833,385.599 437.751,397.521 452.392,397.521 C467.033,397.521 478.955,385.599 478.955,370.958 C478.873,358.798 470.712,348.56 459.591,345.36 z M452.314,382.958 C445.673,382.958 440.314,377.599 440.314,370.958 C440.314,364.317 445.673,358.958 452.314,358.958 C458.955,358.958 464.314,364.317 464.314,370.958 C464.392,377.521 458.955,382.958 452.314,382.958 z M452.314,382.958" fill="#B6B8BA"/>
    <path d="M386.634,222.038 L430.794,222.038 C446.716,222.038 459.673,209.081 459.673,193.159 L459.673,169.48 C470.794,166.28 478.955,156.12 478.955,143.96 C478.955,129.319 467.037,117.401 452.396,117.401 C437.755,117.401 425.833,129.319 425.833,143.96 C425.833,156.038 433.994,166.28 445.115,169.48 L445.115,193.159 C445.115,201.081 438.634,207.562 430.716,207.562 L386.556,207.562 C382.556,207.562 379.275,210.839 379.275,214.839 C379.357,218.761 382.634,222.038 386.634,222.038 z M440.396,143.96 C440.396,137.319 445.755,131.96 452.396,131.96 C459.037,131.96 464.396,137.319 464.396,143.96 C464.396,150.601 459.037,155.96 452.396,155.96 C445.755,155.96 440.396,150.601 440.396,143.96 z M440.396,143.96" fill="#B6B8BA"/>
  </g>
</svg>
